%TF.GenerationSoftware,KiCad,Pcbnew,(6.0.9)*%
%TF.CreationDate,2023-02-13T00:06:44-05:00*%
%TF.ProjectId,Tang,54616e67-2e6b-4696-9361-645f70636258,rev?*%
%TF.SameCoordinates,Original*%
%TF.FileFunction,Copper,L1,Top*%
%TF.FilePolarity,Positive*%
%FSLAX46Y46*%
G04 Gerber Fmt 4.6, Leading zero omitted, Abs format (unit mm)*
G04 Created by KiCad (PCBNEW (6.0.9)) date 2023-02-13 00:06:44*
%MOMM*%
%LPD*%
G01*
G04 APERTURE LIST*
G04 Aperture macros list*
%AMRoundRect*
0 Rectangle with rounded corners*
0 $1 Rounding radius*
0 $2 $3 $4 $5 $6 $7 $8 $9 X,Y pos of 4 corners*
0 Add a 4 corners polygon primitive as box body*
4,1,4,$2,$3,$4,$5,$6,$7,$8,$9,$2,$3,0*
0 Add four circle primitives for the rounded corners*
1,1,$1+$1,$2,$3*
1,1,$1+$1,$4,$5*
1,1,$1+$1,$6,$7*
1,1,$1+$1,$8,$9*
0 Add four rect primitives between the rounded corners*
20,1,$1+$1,$2,$3,$4,$5,0*
20,1,$1+$1,$4,$5,$6,$7,0*
20,1,$1+$1,$6,$7,$8,$9,0*
20,1,$1+$1,$8,$9,$2,$3,0*%
G04 Aperture macros list end*
%TA.AperFunction,SMDPad,CuDef*%
%ADD10RoundRect,0.218750X-0.218750X-0.256250X0.218750X-0.256250X0.218750X0.256250X-0.218750X0.256250X0*%
%TD*%
%TA.AperFunction,ComponentPad*%
%ADD11R,2.000000X2.000000*%
%TD*%
%TA.AperFunction,ComponentPad*%
%ADD12C,2.000000*%
%TD*%
%TA.AperFunction,ComponentPad*%
%ADD13C,2.800000*%
%TD*%
%TA.AperFunction,SMDPad,CuDef*%
%ADD14O,3.000000X2.000000*%
%TD*%
%TA.AperFunction,ComponentPad*%
%ADD15C,3.000000*%
%TD*%
%TA.AperFunction,ViaPad*%
%ADD16C,0.800000*%
%TD*%
%TA.AperFunction,Conductor*%
%ADD17C,0.250000*%
%TD*%
%TA.AperFunction,Conductor*%
%ADD18C,0.300000*%
%TD*%
G04 APERTURE END LIST*
D10*
%TO.P,D2,1,K*%
%TO.N,GND*%
X128712500Y-101000000D03*
%TO.P,D2,2,A*%
%TO.N,Net-(D2-Pad2)*%
X130287500Y-101000000D03*
%TD*%
%TO.P,D3,1,K*%
%TO.N,GND*%
X109587500Y-120000000D03*
%TO.P,D3,2,A*%
%TO.N,Net-(D3-Pad2)*%
X111162500Y-120000000D03*
%TD*%
%TO.P,D4,1,K*%
%TO.N,GND*%
X128712500Y-120000000D03*
%TO.P,D4,2,A*%
%TO.N,Net-(D4-Pad2)*%
X130287500Y-120000000D03*
%TD*%
D11*
%TO.P,SW3,A,A*%
%TO.N,ENCA*%
X113000000Y-68450000D03*
D12*
%TO.P,SW3,B,B*%
%TO.N,ENCB*%
X108000000Y-68450000D03*
%TO.P,SW3,C,C*%
%TO.N,GND*%
X110500000Y-68450000D03*
D13*
%TO.P,SW3,MP*%
%TO.N,N/C*%
X116100000Y-75950000D03*
X104900000Y-75950000D03*
%TD*%
D10*
%TO.P,D1,1,K*%
%TO.N,GND*%
X109862500Y-101000000D03*
%TO.P,D1,2,A*%
%TO.N,Net-(D1-Pad2)*%
X111437500Y-101000000D03*
%TD*%
D14*
%TO.P,U1,1,PA02_A0_D0*%
%TO.N,ENCA*%
X120118000Y-68380000D03*
%TO.P,U1,2,PA4_A1_D1*%
%TO.N,ENCB*%
X120118000Y-70920000D03*
%TO.P,U1,3,PA10_A2_D2*%
%TO.N,+3V3*%
X120118000Y-73460000D03*
%TO.P,U1,4,PA11_A3_D3*%
%TO.N,SW1*%
X120118000Y-76000000D03*
%TO.P,U1,5,PA8_A4_D4_SDA*%
%TO.N,LED1*%
X120118000Y-78540000D03*
%TO.P,U1,6,PA9_A5_D5_SCL*%
%TO.N,LED3*%
X120118000Y-81080000D03*
%TO.P,U1,7,PB08_A6_D6_TX*%
%TO.N,SW3*%
X120118000Y-83620000D03*
%TO.P,U1,8,PB09_A7_D7_RX*%
%TO.N,LED2*%
X136882000Y-83620000D03*
%TO.P,U1,9,PA7_A8_D8_SCK*%
%TO.N,SW4*%
X136882000Y-81080000D03*
%TO.P,U1,10,PA5_A9_D9_MISO*%
%TO.N,SW2*%
X136882000Y-78540000D03*
%TO.P,U1,11,PA6_A10_D10_MOSI*%
%TO.N,LED4*%
X136882000Y-76000000D03*
%TO.P,U1,12,3V3*%
%TO.N,+3V3*%
X136882000Y-73460000D03*
%TO.P,U1,13,GND*%
%TO.N,GND*%
X136882000Y-70920000D03*
%TO.P,U1,14,5V*%
%TO.N,+5V*%
X136882000Y-68380000D03*
%TD*%
D15*
%TO.P,GND1,1,1*%
%TO.N,GND*%
X103000000Y-85000000D03*
%TD*%
%TO.P,3V3,1,1*%
%TO.N,+3V3*%
X111000000Y-85000000D03*
%TD*%
D16*
%TO.N,ENCA*%
X116620000Y-68380000D03*
%TO.N,Net-(D1-Pad2)*%
X113000000Y-101000000D03*
%TO.N,Net-(D2-Pad2)*%
X132000000Y-101000000D03*
%TO.N,Net-(D3-Pad2)*%
X113000000Y-120000000D03*
%TO.N,Net-(D4-Pad2)*%
X132000000Y-120000000D03*
%TO.N,LED3*%
X118000000Y-120000000D03*
%TO.N,LED1*%
X117050000Y-99350000D03*
%TO.N,LED4*%
X136800000Y-120000000D03*
%TO.N,LED2*%
X135700000Y-99700000D03*
%TO.N,+3V3*%
X106500000Y-111200000D03*
X125800000Y-111300000D03*
%TO.N,SW1*%
X105000000Y-88000000D03*
%TO.N,SW2*%
X124000000Y-88000000D03*
%TO.N,SW3*%
X113800000Y-107000000D03*
%TO.N,SW4*%
X132700000Y-107000000D03*
%TO.N,GND*%
X138600000Y-72100000D03*
X108000000Y-101000000D03*
X127000000Y-120000000D03*
X135200000Y-69700000D03*
X135100000Y-72100000D03*
X138500000Y-69700000D03*
X127000000Y-101000000D03*
X108000000Y-120000000D03*
%TO.N,ENCB*%
X116080000Y-70920000D03*
%TD*%
D17*
%TO.N,ENCA*%
X116550000Y-68450000D02*
X113000000Y-68450000D01*
X120350000Y-68380000D02*
X116620000Y-68380000D01*
X116620000Y-68380000D02*
X116550000Y-68450000D01*
%TO.N,Net-(D1-Pad2)*%
X113000000Y-101000000D02*
X111587500Y-101000000D01*
%TO.N,Net-(D2-Pad2)*%
X130437500Y-101000000D02*
X132000000Y-101000000D01*
%TO.N,Net-(D3-Pad2)*%
X111312500Y-120000000D02*
X113000000Y-120000000D01*
%TO.N,Net-(D4-Pad2)*%
X132000000Y-120000000D02*
X130437500Y-120000000D01*
%TO.N,LED3*%
X118900000Y-85063604D02*
X118200000Y-84363604D01*
X115700000Y-106100000D02*
X118900000Y-102900000D01*
X118200000Y-84363604D02*
X118200000Y-82998000D01*
X118900000Y-102900000D02*
X118900000Y-85063604D01*
X115700000Y-122300000D02*
X108900000Y-122300000D01*
X118000000Y-120000000D02*
X115700000Y-122300000D01*
X103700000Y-112100000D02*
X109700000Y-106100000D01*
X108900000Y-122300000D02*
X103700000Y-117100000D01*
X118200000Y-82998000D02*
X120118000Y-81080000D01*
X103700000Y-117100000D02*
X103700000Y-112100000D01*
X109700000Y-106100000D02*
X115700000Y-106100000D01*
%TO.N,LED1*%
X117600000Y-84600000D02*
X117600000Y-81058000D01*
X117600000Y-81058000D02*
X120118000Y-78540000D01*
X117050000Y-99350000D02*
X118100000Y-98300000D01*
X118100000Y-85100000D02*
X117600000Y-84600000D01*
X118100000Y-98300000D02*
X118100000Y-85100000D01*
%TO.N,LED4*%
X138800000Y-77918000D02*
X136882000Y-76000000D01*
X138800000Y-90500000D02*
X138800000Y-77918000D01*
X136800000Y-92500000D02*
X138800000Y-90500000D01*
X136800000Y-120000000D02*
X136800000Y-92500000D01*
%TO.N,LED2*%
X136100000Y-91950000D02*
X136882000Y-91168000D01*
X136882000Y-91168000D02*
X136882000Y-83620000D01*
X135700000Y-99700000D02*
X136100000Y-99300000D01*
X136100000Y-99300000D02*
X136100000Y-91950000D01*
D18*
%TO.N,+3V3*%
X122950000Y-67876406D02*
X121673594Y-66600000D01*
X120118000Y-73460000D02*
X121752132Y-73460000D01*
X108100000Y-109600000D02*
X119000000Y-109600000D01*
X124147868Y-73460000D02*
X122950000Y-72262132D01*
X106500000Y-111200000D02*
X108100000Y-109600000D01*
X121752132Y-73460000D02*
X122950000Y-72262132D01*
X119000000Y-109600000D02*
X121500000Y-107100000D01*
X102000000Y-70000000D02*
X102000000Y-79000000D01*
X105400000Y-66600000D02*
X102000000Y-70000000D01*
X121500000Y-107100000D02*
X121500000Y-85500000D01*
X136882000Y-73460000D02*
X124147868Y-73460000D01*
X121500000Y-85500000D02*
X133540000Y-73460000D01*
X121500000Y-107100000D02*
X125700000Y-111300000D01*
X121673594Y-66600000D02*
X105400000Y-66600000D01*
X108000000Y-85000000D02*
X111000000Y-85000000D01*
X133540000Y-73460000D02*
X136514560Y-73460000D01*
X125700000Y-111300000D02*
X125800000Y-111300000D01*
X102000000Y-79000000D02*
X108000000Y-85000000D01*
X122950000Y-72262132D02*
X122950000Y-67876406D01*
D17*
%TO.N,SW1*%
X113400000Y-88000000D02*
X117000000Y-84400000D01*
X120284167Y-76000000D02*
X120350000Y-76000000D01*
X105000000Y-88000000D02*
X113400000Y-88000000D01*
X117000000Y-84400000D02*
X117000000Y-79118000D01*
X117000000Y-79118000D02*
X120118000Y-76000000D01*
%TO.N,SW2*%
X131000000Y-88000000D02*
X124000000Y-88000000D01*
X133900000Y-85100000D02*
X131000000Y-88000000D01*
X133900000Y-81522000D02*
X133900000Y-85100000D01*
X136882000Y-78540000D02*
X133900000Y-81522000D01*
%TO.N,SW3*%
X120100000Y-103400000D02*
X120100000Y-83638000D01*
X120100000Y-83638000D02*
X120118000Y-83620000D01*
X113800000Y-107000000D02*
X116500000Y-107000000D01*
X116500000Y-107000000D02*
X120100000Y-103400000D01*
%TO.N,SW4*%
X132725000Y-94975000D02*
X134700000Y-93000000D01*
X132725000Y-106975000D02*
X132725000Y-94975000D01*
X134700000Y-93000000D02*
X134700000Y-83262000D01*
X134700000Y-83262000D02*
X136882000Y-81080000D01*
X132700000Y-107000000D02*
X132725000Y-106975000D01*
%TO.N,GND*%
X135662000Y-69700000D02*
X136882000Y-70920000D01*
X138600000Y-72100000D02*
X138062000Y-72100000D01*
D18*
X109712500Y-101000000D02*
X108000000Y-101000000D01*
D17*
X135200000Y-69700000D02*
X135662000Y-69700000D01*
X138500000Y-69700000D02*
X138102000Y-69700000D01*
X138062000Y-72100000D02*
X136882000Y-70920000D01*
D18*
X128562500Y-101000000D02*
X127000000Y-101000000D01*
X109437500Y-120000000D02*
X108000000Y-120000000D01*
D17*
X138102000Y-69700000D02*
X136882000Y-70920000D01*
X135702000Y-72100000D02*
X136882000Y-70920000D01*
D18*
X128562500Y-120000000D02*
X127000000Y-120000000D01*
D17*
X135100000Y-72100000D02*
X135702000Y-72100000D01*
%TO.N,ENCB*%
X110470000Y-70920000D02*
X108000000Y-68450000D01*
X116080000Y-70920000D02*
X110470000Y-70920000D01*
X120350000Y-70920000D02*
X116080000Y-70920000D01*
%TD*%
M02*
