M48
; DRILL file {KiCad (6.0.9)} date Mon Feb 13 00:07:05 2023
; FORMAT={-:-/ absolute / metric / decimal}
; #@! TF.CreationDate,2023-02-13T00:07:05-05:00
; #@! TF.GenerationSoftware,Kicad,Pcbnew,(6.0.9)
; #@! TF.FileFunction,MixedPlating,1,2
FMAT,2
METRIC
; #@! TA.AperFunction,Plated,PTH,ViaDrill
T1C0.400
; #@! TA.AperFunction,Plated,PTH,ComponentDrill
T2C1.000
; #@! TA.AperFunction,Plated,PTH,ComponentDrill
T3C2.000
; #@! TA.AperFunction,Plated,PTH,ComponentDrill
T4C2.200
; #@! TA.AperFunction,NonPlated,NPTH,ComponentDrill
T5C1.750
; #@! TA.AperFunction,NonPlated,NPTH,ComponentDrill
T6C3.050
; #@! TA.AperFunction,NonPlated,NPTH,ComponentDrill
T7C4.000
%
G90
G05
T1
X105.0Y-88.0
X106.5Y-111.2
X108.0Y-101.0
X108.0Y-120.0
X113.0Y-101.0
X113.0Y-120.0
X113.8Y-107.0
X116.08Y-70.92
X116.62Y-68.38
X117.05Y-99.35
X118.0Y-120.0
X124.0Y-88.0
X125.8Y-111.3
X127.0Y-101.0
X127.0Y-120.0
X132.0Y-101.0
X132.0Y-120.0
X132.7Y-107.0
X135.1Y-72.1
X135.2Y-69.7
X135.7Y-99.7
X136.8Y-120.0
X138.5Y-69.7
X138.6Y-72.1
T2
X108.0Y-68.45
X110.5Y-68.45
X113.0Y-68.45
T3
X103.0Y-85.0
X111.0Y-85.0
T4
X104.9Y-75.95
X116.1Y-75.95
T5
X105.42Y-96.0
X105.42Y-115.0
X115.58Y-96.0
X115.58Y-115.0
X124.42Y-96.0
X124.42Y-115.0
X134.58Y-96.0
X134.58Y-115.0
T6
X106.69Y-93.46
X113.04Y-90.92
X125.69Y-93.46
X132.04Y-90.92
T7
X110.5Y-96.0
X129.5Y-96.0
T0
M30
