%TF.GenerationSoftware,KiCad,Pcbnew,(6.0.9)*%
%TF.CreationDate,2023-02-13T00:06:44-05:00*%
%TF.ProjectId,Tang,54616e67-2e6b-4696-9361-645f70636258,rev?*%
%TF.SameCoordinates,Original*%
%TF.FileFunction,Copper,L2,Bot*%
%TF.FilePolarity,Positive*%
%FSLAX46Y46*%
G04 Gerber Fmt 4.6, Leading zero omitted, Abs format (unit mm)*
G04 Created by KiCad (PCBNEW (6.0.9)) date 2023-02-13 00:06:44*
%MOMM*%
%LPD*%
G01*
G04 APERTURE LIST*
G04 Aperture macros list*
%AMRoundRect*
0 Rectangle with rounded corners*
0 $1 Rounding radius*
0 $2 $3 $4 $5 $6 $7 $8 $9 X,Y pos of 4 corners*
0 Add a 4 corners polygon primitive as box body*
4,1,4,$2,$3,$4,$5,$6,$7,$8,$9,$2,$3,0*
0 Add four circle primitives for the rounded corners*
1,1,$1+$1,$2,$3*
1,1,$1+$1,$4,$5*
1,1,$1+$1,$6,$7*
1,1,$1+$1,$8,$9*
0 Add four rect primitives between the rounded corners*
20,1,$1+$1,$2,$3,$4,$5,0*
20,1,$1+$1,$4,$5,$6,$7,0*
20,1,$1+$1,$6,$7,$8,$9,0*
20,1,$1+$1,$8,$9,$2,$3,0*%
G04 Aperture macros list end*
%TA.AperFunction,ComponentPad*%
%ADD10R,2.000000X2.000000*%
%TD*%
%TA.AperFunction,ComponentPad*%
%ADD11C,2.000000*%
%TD*%
%TA.AperFunction,ComponentPad*%
%ADD12C,2.800000*%
%TD*%
%TA.AperFunction,SMDPad,CuDef*%
%ADD13RoundRect,0.250000X-1.025000X-1.000000X1.025000X-1.000000X1.025000X1.000000X-1.025000X1.000000X0*%
%TD*%
%TA.AperFunction,SMDPad,CuDef*%
%ADD14R,2.000000X2.000000*%
%TD*%
%TA.AperFunction,SMDPad,CuDef*%
%ADD15RoundRect,0.200000X-0.200000X-0.275000X0.200000X-0.275000X0.200000X0.275000X-0.200000X0.275000X0*%
%TD*%
%TA.AperFunction,SMDPad,CuDef*%
%ADD16RoundRect,0.225000X0.250000X-0.225000X0.250000X0.225000X-0.250000X0.225000X-0.250000X-0.225000X0*%
%TD*%
%TA.AperFunction,SMDPad,CuDef*%
%ADD17RoundRect,0.200000X0.275000X-0.200000X0.275000X0.200000X-0.275000X0.200000X-0.275000X-0.200000X0*%
%TD*%
%TA.AperFunction,SMDPad,CuDef*%
%ADD18RoundRect,0.150000X-0.150000X0.587500X-0.150000X-0.587500X0.150000X-0.587500X0.150000X0.587500X0*%
%TD*%
%TA.AperFunction,SMDPad,CuDef*%
%ADD19RoundRect,0.225000X-0.250000X0.225000X-0.250000X-0.225000X0.250000X-0.225000X0.250000X0.225000X0*%
%TD*%
%TA.AperFunction,ComponentPad*%
%ADD20C,3.000000*%
%TD*%
%TA.AperFunction,ViaPad*%
%ADD21C,0.800000*%
%TD*%
%TA.AperFunction,Conductor*%
%ADD22C,0.250000*%
%TD*%
%TA.AperFunction,Conductor*%
%ADD23C,0.300000*%
%TD*%
G04 APERTURE END LIST*
D10*
%TO.P,SW3,A,A*%
%TO.N,ENCA*%
X113000000Y-68450000D03*
D11*
%TO.P,SW3,B,B*%
%TO.N,ENCB*%
X108000000Y-68450000D03*
%TO.P,SW3,C,C*%
%TO.N,GND*%
X110500000Y-68450000D03*
D12*
%TO.P,SW3,MP*%
%TO.N,N/C*%
X116100000Y-75950000D03*
X104900000Y-75950000D03*
%TD*%
D13*
%TO.P,SW1,1,A*%
%TO.N,SW1*%
X103415000Y-93460000D03*
%TO.P,SW1,2,B*%
%TO.N,GND*%
X116342000Y-90920000D03*
%TD*%
%TO.P,SW2,1,A*%
%TO.N,SW2*%
X122415000Y-93460000D03*
%TO.P,SW2,2,B*%
%TO.N,GND*%
X135342000Y-90920000D03*
%TD*%
D14*
%TO.P,TP_SW4,1,1*%
%TO.N,SW4*%
X137000000Y-107000000D03*
%TD*%
D15*
%TO.P,R1,1*%
%TO.N,Net-(D1-Pad2)*%
X114675000Y-101000000D03*
%TO.P,R1,2*%
%TO.N,LED1*%
X116325000Y-101000000D03*
%TD*%
D16*
%TO.P,C2,1*%
%TO.N,+3V3*%
X127500000Y-111275000D03*
%TO.P,C2,2*%
%TO.N,GND*%
X127500000Y-109725000D03*
%TD*%
D15*
%TO.P,R2,1*%
%TO.N,Net-(D2-Pad2)*%
X133675000Y-101000000D03*
%TO.P,R2,2*%
%TO.N,LED2*%
X135325000Y-101000000D03*
%TD*%
D17*
%TO.P,R5,1*%
%TO.N,Net-(R5-Pad1)*%
X110500000Y-111325000D03*
%TO.P,R5,2*%
%TO.N,SW3*%
X110500000Y-109675000D03*
%TD*%
D18*
%TO.P,U2,1,VCC*%
%TO.N,+3V3*%
X109550000Y-114262500D03*
%TO.P,U2,2,OUT*%
%TO.N,Net-(R5-Pad1)*%
X111450000Y-114262500D03*
%TO.P,U2,3,GND*%
%TO.N,GND*%
X110500000Y-116137500D03*
%TD*%
D14*
%TO.P,TP_SW3,1,1*%
%TO.N,SW3*%
X118000000Y-107000000D03*
%TD*%
D17*
%TO.P,R6,1*%
%TO.N,Net-(R6-Pad1)*%
X129500000Y-111325000D03*
%TO.P,R6,2*%
%TO.N,SW4*%
X129500000Y-109675000D03*
%TD*%
D19*
%TO.P,C4,1*%
%TO.N,SW4*%
X131500000Y-109725000D03*
%TO.P,C4,2*%
%TO.N,GND*%
X131500000Y-111275000D03*
%TD*%
%TO.P,C3,1*%
%TO.N,SW3*%
X112500000Y-109725000D03*
%TO.P,C3,2*%
%TO.N,GND*%
X112500000Y-111275000D03*
%TD*%
D15*
%TO.P,R3,1*%
%TO.N,Net-(D3-Pad2)*%
X114675000Y-120000000D03*
%TO.P,R3,2*%
%TO.N,LED3*%
X116325000Y-120000000D03*
%TD*%
D14*
%TO.P,ENCA1,1,1*%
%TO.N,ENCA*%
X118000000Y-68000000D03*
%TD*%
D16*
%TO.P,C1,1*%
%TO.N,+3V3*%
X108500000Y-111275000D03*
%TO.P,C1,2*%
%TO.N,GND*%
X108500000Y-109725000D03*
%TD*%
D14*
%TO.P,ENCB1,1,1*%
%TO.N,ENCB*%
X118000000Y-71650000D03*
%TD*%
D20*
%TO.P,GND1,1,1*%
%TO.N,GND*%
X103000000Y-85000000D03*
%TD*%
D18*
%TO.P,U3,1,VCC*%
%TO.N,+3V3*%
X128550000Y-114262500D03*
%TO.P,U3,2,OUT*%
%TO.N,Net-(R6-Pad1)*%
X130450000Y-114262500D03*
%TO.P,U3,3,GND*%
%TO.N,GND*%
X129500000Y-116137500D03*
%TD*%
D20*
%TO.P,3V3,1,1*%
%TO.N,+3V3*%
X111000000Y-85000000D03*
%TD*%
D15*
%TO.P,R4,1*%
%TO.N,Net-(D4-Pad2)*%
X133675000Y-120000000D03*
%TO.P,R4,2*%
%TO.N,LED4*%
X135325000Y-120000000D03*
%TD*%
D21*
%TO.N,ENCA*%
X116620000Y-68380000D03*
%TO.N,Net-(D1-Pad2)*%
X113000000Y-101000000D03*
%TO.N,Net-(D2-Pad2)*%
X132000000Y-101000000D03*
%TO.N,Net-(D3-Pad2)*%
X113000000Y-120000000D03*
%TO.N,Net-(D4-Pad2)*%
X132000000Y-120000000D03*
%TO.N,LED3*%
X118000000Y-120000000D03*
%TO.N,LED1*%
X117050000Y-99350000D03*
%TO.N,LED4*%
X136800000Y-120000000D03*
%TO.N,LED2*%
X135700000Y-99700000D03*
%TO.N,+3V3*%
X106500000Y-111200000D03*
X125800000Y-111300000D03*
%TO.N,SW1*%
X105000000Y-88000000D03*
%TO.N,SW2*%
X124000000Y-88000000D03*
%TO.N,SW3*%
X113800000Y-107000000D03*
%TO.N,SW4*%
X132700000Y-107000000D03*
%TO.N,GND*%
X138600000Y-72100000D03*
X108000000Y-101000000D03*
X127000000Y-120000000D03*
X135200000Y-69700000D03*
X135100000Y-72100000D03*
X138500000Y-69700000D03*
X127000000Y-101000000D03*
X108000000Y-120000000D03*
%TO.N,ENCB*%
X116080000Y-70920000D03*
%TD*%
D22*
%TO.N,ENCA*%
X117000000Y-68000000D02*
X116620000Y-68380000D01*
X118000000Y-68000000D02*
X117000000Y-68000000D01*
%TO.N,Net-(D1-Pad2)*%
X114587500Y-101000000D02*
X113000000Y-101000000D01*
%TO.N,Net-(D2-Pad2)*%
X132000000Y-101000000D02*
X133587500Y-101000000D01*
%TO.N,Net-(D3-Pad2)*%
X113000000Y-120000000D02*
X114587500Y-120000000D01*
%TO.N,Net-(D4-Pad2)*%
X133587500Y-120000000D02*
X132000000Y-120000000D01*
%TO.N,LED3*%
X118000000Y-120000000D02*
X116412500Y-120000000D01*
%TO.N,LED1*%
X116325000Y-101000000D02*
X116325000Y-100075000D01*
X116325000Y-100075000D02*
X117050000Y-99350000D01*
%TO.N,LED4*%
X135412500Y-120000000D02*
X136800000Y-120000000D01*
%TO.N,LED2*%
X135325000Y-100075000D02*
X135325000Y-101000000D01*
X135700000Y-99700000D02*
X135325000Y-100075000D01*
D23*
%TO.N,+3V3*%
X106500000Y-111200000D02*
X106575000Y-111275000D01*
D22*
X128550000Y-114262500D02*
X128550000Y-112325000D01*
D23*
X106575000Y-111275000D02*
X108500000Y-111275000D01*
D22*
X108500000Y-111275000D02*
X109550000Y-112325000D01*
D23*
X125800000Y-111300000D02*
X127475000Y-111300000D01*
D22*
X128550000Y-112325000D02*
X127500000Y-111275000D01*
X109550000Y-112325000D02*
X109550000Y-114262500D01*
%TO.N,SW1*%
X105000000Y-88000000D02*
X103500000Y-89500000D01*
X103500000Y-89500000D02*
X103500000Y-93375000D01*
X103500000Y-93375000D02*
X103415000Y-93460000D01*
%TO.N,SW2*%
X122415000Y-93460000D02*
X122415000Y-89585000D01*
X122415000Y-89585000D02*
X124000000Y-88000000D01*
%TO.N,SW3*%
X118000000Y-107000000D02*
X113800000Y-107000000D01*
X112500000Y-108300000D02*
X112500000Y-109725000D01*
X112450000Y-109675000D02*
X112500000Y-109725000D01*
X110500000Y-109675000D02*
X112450000Y-109675000D01*
X113800000Y-107000000D02*
X112500000Y-108300000D01*
%TO.N,SW4*%
X131500000Y-109725000D02*
X131500000Y-108200000D01*
X137000000Y-107000000D02*
X132700000Y-107000000D01*
X131500000Y-108200000D02*
X132700000Y-107000000D01*
X129500000Y-109675000D02*
X131450000Y-109675000D01*
X131450000Y-109675000D02*
X131500000Y-109725000D01*
D23*
%TO.N,GND*%
X110500000Y-116137500D02*
X110500000Y-118600000D01*
X129500000Y-116137500D02*
X129500000Y-118700000D01*
D22*
%TO.N,ENCB*%
X118000000Y-71650000D02*
X116810000Y-71650000D01*
X116810000Y-71650000D02*
X116080000Y-70920000D01*
%TO.N,Net-(R5-Pad1)*%
X111450000Y-111950000D02*
X110825000Y-111325000D01*
X110825000Y-111325000D02*
X110500000Y-111325000D01*
X111450000Y-114262500D02*
X111450000Y-111950000D01*
%TO.N,Net-(R6-Pad1)*%
X130450000Y-114262500D02*
X130450000Y-112000000D01*
X130450000Y-112000000D02*
X129775000Y-111325000D01*
X129775000Y-111325000D02*
X129500000Y-111325000D01*
%TD*%
%TA.AperFunction,Conductor*%
%TO.N,GND*%
G36*
X137470018Y-65510000D02*
G01*
X137484851Y-65512310D01*
X137484855Y-65512310D01*
X137493724Y-65513691D01*
X137508981Y-65511696D01*
X137534302Y-65510953D01*
X137703285Y-65523039D01*
X137721064Y-65525596D01*
X137911392Y-65566999D01*
X137928641Y-65572063D01*
X138111150Y-65640136D01*
X138127502Y-65647604D01*
X138298458Y-65740952D01*
X138313582Y-65750672D01*
X138469514Y-65867402D01*
X138483100Y-65879175D01*
X138620825Y-66016900D01*
X138632598Y-66030486D01*
X138749328Y-66186418D01*
X138759048Y-66201542D01*
X138852396Y-66372498D01*
X138859864Y-66388850D01*
X138927937Y-66571359D01*
X138933001Y-66588607D01*
X138974404Y-66778936D01*
X138976961Y-66796715D01*
X138988540Y-66958601D01*
X138987793Y-66976565D01*
X138987692Y-66984845D01*
X138986309Y-66993724D01*
X138989398Y-67017344D01*
X138990436Y-67025283D01*
X138991500Y-67041621D01*
X138991500Y-90703265D01*
X138989999Y-90722656D01*
X138986309Y-90746347D01*
X138987473Y-90755253D01*
X138987397Y-90761450D01*
X138987524Y-90785733D01*
X138981116Y-90839100D01*
X138979331Y-90853966D01*
X138972223Y-90883144D01*
X138941722Y-90964567D01*
X138927911Y-90991234D01*
X138879049Y-91063067D01*
X138879008Y-91063127D01*
X138859276Y-91085770D01*
X138814266Y-91126419D01*
X138793923Y-91141253D01*
X138790882Y-91142716D01*
X138785873Y-91146164D01*
X138785632Y-91146283D01*
X138785435Y-91146465D01*
X138780541Y-91149833D01*
X138777006Y-91153174D01*
X138773221Y-91156234D01*
X138773196Y-91156202D01*
X138770147Y-91158811D01*
X138457144Y-91400936D01*
X138156279Y-91678590D01*
X138154438Y-91680612D01*
X138154437Y-91680613D01*
X137882489Y-91979281D01*
X137882481Y-91979291D01*
X137880645Y-91981307D01*
X137820689Y-92059896D01*
X137636263Y-92301639D01*
X137632323Y-92306803D01*
X137413186Y-92652621D01*
X137224887Y-93016153D01*
X137223840Y-93018693D01*
X137223838Y-93018697D01*
X137206864Y-93059871D01*
X137068849Y-93394655D01*
X137068035Y-93397247D01*
X137068034Y-93397251D01*
X137033555Y-93507103D01*
X136946247Y-93785270D01*
X136858007Y-94185051D01*
X136857653Y-94187751D01*
X136857652Y-94187757D01*
X136830111Y-94397860D01*
X136804796Y-94590983D01*
X136804678Y-94593702D01*
X136804677Y-94593711D01*
X136793402Y-94853058D01*
X136787014Y-95000000D01*
X136787133Y-95002737D01*
X136804474Y-95401605D01*
X136804796Y-95409017D01*
X136805151Y-95411722D01*
X136805151Y-95411727D01*
X136843874Y-95707129D01*
X136858007Y-95814949D01*
X136946247Y-96214730D01*
X137068849Y-96605345D01*
X137118970Y-96726924D01*
X137196823Y-96915771D01*
X137224887Y-96983847D01*
X137413186Y-97347379D01*
X137632323Y-97693197D01*
X137880645Y-98018693D01*
X137882481Y-98020709D01*
X137882489Y-98020719D01*
X137993456Y-98142589D01*
X138156279Y-98321410D01*
X138457144Y-98599064D01*
X138757678Y-98831543D01*
X138763117Y-98836315D01*
X138763204Y-98836213D01*
X138766924Y-98839374D01*
X138770377Y-98842801D01*
X138775251Y-98846333D01*
X138775448Y-98846524D01*
X138775690Y-98846652D01*
X138780541Y-98850167D01*
X138784873Y-98852382D01*
X138789014Y-98854920D01*
X138788784Y-98855295D01*
X138810715Y-98870414D01*
X138859317Y-98914296D01*
X138879047Y-98936933D01*
X138927947Y-99008805D01*
X138941761Y-99035473D01*
X138972259Y-99116871D01*
X138979370Y-99146057D01*
X138986885Y-99208639D01*
X138987775Y-99225194D01*
X138987689Y-99232232D01*
X138986309Y-99241101D01*
X138987473Y-99249999D01*
X138987473Y-99250000D01*
X138990436Y-99272648D01*
X138991500Y-99288992D01*
X138991500Y-122950633D01*
X138990000Y-122970018D01*
X138987690Y-122984851D01*
X138987690Y-122984855D01*
X138986309Y-122993724D01*
X138988136Y-123007693D01*
X138988304Y-123008976D01*
X138989047Y-123034305D01*
X138976962Y-123203279D01*
X138974404Y-123221064D01*
X138956598Y-123302919D01*
X138933001Y-123411392D01*
X138927937Y-123428641D01*
X138859864Y-123611150D01*
X138852396Y-123627502D01*
X138759048Y-123798458D01*
X138749328Y-123813582D01*
X138632598Y-123969514D01*
X138620825Y-123983100D01*
X138483100Y-124120825D01*
X138469514Y-124132598D01*
X138313582Y-124249328D01*
X138298458Y-124259048D01*
X138127502Y-124352396D01*
X138111150Y-124359864D01*
X137928641Y-124427937D01*
X137911393Y-124433001D01*
X137721064Y-124474404D01*
X137703285Y-124476961D01*
X137541395Y-124488540D01*
X137523435Y-124487793D01*
X137515155Y-124487692D01*
X137506276Y-124486309D01*
X137474714Y-124490436D01*
X137458379Y-124491500D01*
X102549367Y-124491500D01*
X102529982Y-124490000D01*
X102515149Y-124487690D01*
X102515145Y-124487690D01*
X102506276Y-124486309D01*
X102491019Y-124488304D01*
X102465698Y-124489047D01*
X102296715Y-124476961D01*
X102278936Y-124474404D01*
X102088607Y-124433001D01*
X102071359Y-124427937D01*
X101888850Y-124359864D01*
X101872498Y-124352396D01*
X101701542Y-124259048D01*
X101686418Y-124249328D01*
X101530486Y-124132598D01*
X101516900Y-124120825D01*
X101379175Y-123983100D01*
X101367402Y-123969514D01*
X101250672Y-123813582D01*
X101240952Y-123798458D01*
X101147604Y-123627502D01*
X101140136Y-123611150D01*
X101072063Y-123428641D01*
X101066999Y-123411392D01*
X101043402Y-123302919D01*
X101025596Y-123221064D01*
X101023038Y-123203278D01*
X101011719Y-123045012D01*
X101012805Y-123022245D01*
X101012334Y-123022203D01*
X101012770Y-123017345D01*
X101013576Y-123012552D01*
X101013729Y-123000000D01*
X101009773Y-122972376D01*
X101008500Y-122954514D01*
X101008500Y-120000000D01*
X112086496Y-120000000D01*
X112106458Y-120189928D01*
X112165473Y-120371556D01*
X112260960Y-120536944D01*
X112388747Y-120678866D01*
X112543248Y-120791118D01*
X112549276Y-120793802D01*
X112549278Y-120793803D01*
X112645490Y-120836639D01*
X112717712Y-120868794D01*
X112811113Y-120888647D01*
X112898056Y-120907128D01*
X112898061Y-120907128D01*
X112904513Y-120908500D01*
X113095487Y-120908500D01*
X113101939Y-120907128D01*
X113101944Y-120907128D01*
X113188887Y-120888647D01*
X113282288Y-120868794D01*
X113354510Y-120836639D01*
X113450722Y-120793803D01*
X113450724Y-120793802D01*
X113456752Y-120791118D01*
X113611253Y-120678866D01*
X113615668Y-120673963D01*
X113620580Y-120669540D01*
X113621705Y-120670789D01*
X113675014Y-120637949D01*
X113708200Y-120633500D01*
X113792775Y-120633500D01*
X113860896Y-120653502D01*
X113900551Y-120694229D01*
X113913361Y-120715381D01*
X114034619Y-120836639D01*
X114181301Y-120925472D01*
X114188548Y-120927743D01*
X114188550Y-120927744D01*
X114254836Y-120948517D01*
X114344938Y-120976753D01*
X114418365Y-120983500D01*
X114421263Y-120983500D01*
X114675665Y-120983499D01*
X114931634Y-120983499D01*
X114934492Y-120983236D01*
X114934501Y-120983236D01*
X114970004Y-120979974D01*
X115005062Y-120976753D01*
X115011447Y-120974752D01*
X115161450Y-120927744D01*
X115161452Y-120927743D01*
X115168699Y-120925472D01*
X115315381Y-120836639D01*
X115410905Y-120741115D01*
X115473217Y-120707089D01*
X115544032Y-120712154D01*
X115589095Y-120741115D01*
X115684619Y-120836639D01*
X115831301Y-120925472D01*
X115838548Y-120927743D01*
X115838550Y-120927744D01*
X115904836Y-120948517D01*
X115994938Y-120976753D01*
X116068365Y-120983500D01*
X116071263Y-120983500D01*
X116325665Y-120983499D01*
X116581634Y-120983499D01*
X116584492Y-120983236D01*
X116584501Y-120983236D01*
X116620004Y-120979974D01*
X116655062Y-120976753D01*
X116661447Y-120974752D01*
X116811450Y-120927744D01*
X116811452Y-120927743D01*
X116818699Y-120925472D01*
X116965381Y-120836639D01*
X117086639Y-120715381D01*
X117099449Y-120694229D01*
X117151846Y-120646322D01*
X117207225Y-120633500D01*
X117291800Y-120633500D01*
X117359921Y-120653502D01*
X117379147Y-120669843D01*
X117379420Y-120669540D01*
X117384332Y-120673963D01*
X117388747Y-120678866D01*
X117543248Y-120791118D01*
X117549276Y-120793802D01*
X117549278Y-120793803D01*
X117645490Y-120836639D01*
X117717712Y-120868794D01*
X117811113Y-120888647D01*
X117898056Y-120907128D01*
X117898061Y-120907128D01*
X117904513Y-120908500D01*
X118095487Y-120908500D01*
X118101939Y-120907128D01*
X118101944Y-120907128D01*
X118188887Y-120888647D01*
X118282288Y-120868794D01*
X118354510Y-120836639D01*
X118450722Y-120793803D01*
X118450724Y-120793802D01*
X118456752Y-120791118D01*
X118611253Y-120678866D01*
X118739040Y-120536944D01*
X118834527Y-120371556D01*
X118893542Y-120189928D01*
X118913504Y-120000000D01*
X131086496Y-120000000D01*
X131106458Y-120189928D01*
X131165473Y-120371556D01*
X131260960Y-120536944D01*
X131388747Y-120678866D01*
X131543248Y-120791118D01*
X131549276Y-120793802D01*
X131549278Y-120793803D01*
X131645490Y-120836639D01*
X131717712Y-120868794D01*
X131811113Y-120888647D01*
X131898056Y-120907128D01*
X131898061Y-120907128D01*
X131904513Y-120908500D01*
X132095487Y-120908500D01*
X132101939Y-120907128D01*
X132101944Y-120907128D01*
X132188887Y-120888647D01*
X132282288Y-120868794D01*
X132354510Y-120836639D01*
X132450722Y-120793803D01*
X132450724Y-120793802D01*
X132456752Y-120791118D01*
X132611253Y-120678866D01*
X132615668Y-120673963D01*
X132620580Y-120669540D01*
X132621705Y-120670789D01*
X132675014Y-120637949D01*
X132708200Y-120633500D01*
X132792775Y-120633500D01*
X132860896Y-120653502D01*
X132900551Y-120694229D01*
X132913361Y-120715381D01*
X133034619Y-120836639D01*
X133181301Y-120925472D01*
X133188548Y-120927743D01*
X133188550Y-120927744D01*
X133254836Y-120948517D01*
X133344938Y-120976753D01*
X133418365Y-120983500D01*
X133421263Y-120983500D01*
X133675665Y-120983499D01*
X133931634Y-120983499D01*
X133934492Y-120983236D01*
X133934501Y-120983236D01*
X133970004Y-120979974D01*
X134005062Y-120976753D01*
X134011447Y-120974752D01*
X134161450Y-120927744D01*
X134161452Y-120927743D01*
X134168699Y-120925472D01*
X134315381Y-120836639D01*
X134410905Y-120741115D01*
X134473217Y-120707089D01*
X134544032Y-120712154D01*
X134589095Y-120741115D01*
X134684619Y-120836639D01*
X134831301Y-120925472D01*
X134838548Y-120927743D01*
X134838550Y-120927744D01*
X134904836Y-120948517D01*
X134994938Y-120976753D01*
X135068365Y-120983500D01*
X135071263Y-120983500D01*
X135325665Y-120983499D01*
X135581634Y-120983499D01*
X135584492Y-120983236D01*
X135584501Y-120983236D01*
X135620004Y-120979974D01*
X135655062Y-120976753D01*
X135661447Y-120974752D01*
X135811450Y-120927744D01*
X135811452Y-120927743D01*
X135818699Y-120925472D01*
X135965381Y-120836639D01*
X136074661Y-120727359D01*
X136136973Y-120693333D01*
X136207788Y-120698398D01*
X136237817Y-120714518D01*
X136274425Y-120741115D01*
X136343248Y-120791118D01*
X136349276Y-120793802D01*
X136349278Y-120793803D01*
X136445490Y-120836639D01*
X136517712Y-120868794D01*
X136611113Y-120888647D01*
X136698056Y-120907128D01*
X136698061Y-120907128D01*
X136704513Y-120908500D01*
X136895487Y-120908500D01*
X136901939Y-120907128D01*
X136901944Y-120907128D01*
X136988887Y-120888647D01*
X137082288Y-120868794D01*
X137154510Y-120836639D01*
X137250722Y-120793803D01*
X137250724Y-120793802D01*
X137256752Y-120791118D01*
X137411253Y-120678866D01*
X137539040Y-120536944D01*
X137634527Y-120371556D01*
X137693542Y-120189928D01*
X137713504Y-120000000D01*
X137693542Y-119810072D01*
X137634527Y-119628444D01*
X137539040Y-119463056D01*
X137411253Y-119321134D01*
X137256752Y-119208882D01*
X137250724Y-119206198D01*
X137250722Y-119206197D01*
X137088319Y-119133891D01*
X137088318Y-119133891D01*
X137082288Y-119131206D01*
X136988888Y-119111353D01*
X136901944Y-119092872D01*
X136901939Y-119092872D01*
X136895487Y-119091500D01*
X136704513Y-119091500D01*
X136698061Y-119092872D01*
X136698056Y-119092872D01*
X136611112Y-119111353D01*
X136517712Y-119131206D01*
X136511682Y-119133891D01*
X136511681Y-119133891D01*
X136349278Y-119206197D01*
X136349276Y-119206198D01*
X136343248Y-119208882D01*
X136337907Y-119212762D01*
X136337906Y-119212763D01*
X136237817Y-119285482D01*
X136170949Y-119309341D01*
X136101798Y-119293260D01*
X136074661Y-119272641D01*
X135965381Y-119163361D01*
X135818699Y-119074528D01*
X135811452Y-119072257D01*
X135811450Y-119072256D01*
X135745164Y-119051483D01*
X135655062Y-119023247D01*
X135581635Y-119016500D01*
X135578737Y-119016500D01*
X135324335Y-119016501D01*
X135068366Y-119016501D01*
X135065508Y-119016764D01*
X135065499Y-119016764D01*
X135029996Y-119020026D01*
X134994938Y-119023247D01*
X134988560Y-119025246D01*
X134988559Y-119025246D01*
X134838550Y-119072256D01*
X134838548Y-119072257D01*
X134831301Y-119074528D01*
X134684619Y-119163361D01*
X134589095Y-119258885D01*
X134526783Y-119292911D01*
X134455968Y-119287846D01*
X134410905Y-119258885D01*
X134315381Y-119163361D01*
X134168699Y-119074528D01*
X134161452Y-119072257D01*
X134161450Y-119072256D01*
X134095164Y-119051483D01*
X134005062Y-119023247D01*
X133931635Y-119016500D01*
X133928737Y-119016500D01*
X133674335Y-119016501D01*
X133418366Y-119016501D01*
X133415508Y-119016764D01*
X133415499Y-119016764D01*
X133379996Y-119020026D01*
X133344938Y-119023247D01*
X133338560Y-119025246D01*
X133338559Y-119025246D01*
X133188550Y-119072256D01*
X133188548Y-119072257D01*
X133181301Y-119074528D01*
X133034619Y-119163361D01*
X132913361Y-119284619D01*
X132909424Y-119291120D01*
X132900551Y-119305771D01*
X132848154Y-119353678D01*
X132792775Y-119366500D01*
X132708200Y-119366500D01*
X132640079Y-119346498D01*
X132620853Y-119330157D01*
X132620580Y-119330460D01*
X132615668Y-119326037D01*
X132611253Y-119321134D01*
X132456752Y-119208882D01*
X132450724Y-119206198D01*
X132450722Y-119206197D01*
X132288319Y-119133891D01*
X132288318Y-119133891D01*
X132282288Y-119131206D01*
X132188888Y-119111353D01*
X132101944Y-119092872D01*
X132101939Y-119092872D01*
X132095487Y-119091500D01*
X131904513Y-119091500D01*
X131898061Y-119092872D01*
X131898056Y-119092872D01*
X131811112Y-119111353D01*
X131717712Y-119131206D01*
X131711682Y-119133891D01*
X131711681Y-119133891D01*
X131549278Y-119206197D01*
X131549276Y-119206198D01*
X131543248Y-119208882D01*
X131388747Y-119321134D01*
X131260960Y-119463056D01*
X131165473Y-119628444D01*
X131106458Y-119810072D01*
X131086496Y-120000000D01*
X118913504Y-120000000D01*
X118893542Y-119810072D01*
X118834527Y-119628444D01*
X118739040Y-119463056D01*
X118611253Y-119321134D01*
X118456752Y-119208882D01*
X118450724Y-119206198D01*
X118450722Y-119206197D01*
X118288319Y-119133891D01*
X118288318Y-119133891D01*
X118282288Y-119131206D01*
X118188888Y-119111353D01*
X118101944Y-119092872D01*
X118101939Y-119092872D01*
X118095487Y-119091500D01*
X117904513Y-119091500D01*
X117898061Y-119092872D01*
X117898056Y-119092872D01*
X117811112Y-119111353D01*
X117717712Y-119131206D01*
X117711682Y-119133891D01*
X117711681Y-119133891D01*
X117549278Y-119206197D01*
X117549276Y-119206198D01*
X117543248Y-119208882D01*
X117388747Y-119321134D01*
X117384332Y-119326037D01*
X117379420Y-119330460D01*
X117378295Y-119329211D01*
X117324986Y-119362051D01*
X117291800Y-119366500D01*
X117207225Y-119366500D01*
X117139104Y-119346498D01*
X117099449Y-119305771D01*
X117090576Y-119291120D01*
X117086639Y-119284619D01*
X116965381Y-119163361D01*
X116818699Y-119074528D01*
X116811452Y-119072257D01*
X116811450Y-119072256D01*
X116745164Y-119051483D01*
X116655062Y-119023247D01*
X116581635Y-119016500D01*
X116578737Y-119016500D01*
X116324335Y-119016501D01*
X116068366Y-119016501D01*
X116065508Y-119016764D01*
X116065499Y-119016764D01*
X116029996Y-119020026D01*
X115994938Y-119023247D01*
X115988560Y-119025246D01*
X115988559Y-119025246D01*
X115838550Y-119072256D01*
X115838548Y-119072257D01*
X115831301Y-119074528D01*
X115684619Y-119163361D01*
X115589095Y-119258885D01*
X115526783Y-119292911D01*
X115455968Y-119287846D01*
X115410905Y-119258885D01*
X115315381Y-119163361D01*
X115168699Y-119074528D01*
X115161452Y-119072257D01*
X115161450Y-119072256D01*
X115095164Y-119051483D01*
X115005062Y-119023247D01*
X114931635Y-119016500D01*
X114928737Y-119016500D01*
X114674335Y-119016501D01*
X114418366Y-119016501D01*
X114415508Y-119016764D01*
X114415499Y-119016764D01*
X114379996Y-119020026D01*
X114344938Y-119023247D01*
X114338560Y-119025246D01*
X114338559Y-119025246D01*
X114188550Y-119072256D01*
X114188548Y-119072257D01*
X114181301Y-119074528D01*
X114034619Y-119163361D01*
X113913361Y-119284619D01*
X113909424Y-119291120D01*
X113900551Y-119305771D01*
X113848154Y-119353678D01*
X113792775Y-119366500D01*
X113708200Y-119366500D01*
X113640079Y-119346498D01*
X113620853Y-119330157D01*
X113620580Y-119330460D01*
X113615668Y-119326037D01*
X113611253Y-119321134D01*
X113456752Y-119208882D01*
X113450724Y-119206198D01*
X113450722Y-119206197D01*
X113288319Y-119133891D01*
X113288318Y-119133891D01*
X113282288Y-119131206D01*
X113188888Y-119111353D01*
X113101944Y-119092872D01*
X113101939Y-119092872D01*
X113095487Y-119091500D01*
X112904513Y-119091500D01*
X112898061Y-119092872D01*
X112898056Y-119092872D01*
X112811112Y-119111353D01*
X112717712Y-119131206D01*
X112711682Y-119133891D01*
X112711681Y-119133891D01*
X112549278Y-119206197D01*
X112549276Y-119206198D01*
X112543248Y-119208882D01*
X112388747Y-119321134D01*
X112260960Y-119463056D01*
X112165473Y-119628444D01*
X112106458Y-119810072D01*
X112086496Y-120000000D01*
X101008500Y-120000000D01*
X101008500Y-114934593D01*
X104033039Y-114934593D01*
X104041848Y-115169216D01*
X104042943Y-115174434D01*
X104088668Y-115392356D01*
X104090062Y-115399001D01*
X104176302Y-115617377D01*
X104298104Y-115818100D01*
X104451985Y-115995432D01*
X104456117Y-115998820D01*
X104629416Y-116140917D01*
X104629422Y-116140921D01*
X104633544Y-116144301D01*
X104638180Y-116146940D01*
X104638183Y-116146942D01*
X104749408Y-116210255D01*
X104837590Y-116260451D01*
X105058289Y-116340561D01*
X105063538Y-116341510D01*
X105063541Y-116341511D01*
X105144615Y-116356171D01*
X105289330Y-116382340D01*
X105293469Y-116382535D01*
X105293476Y-116382536D01*
X105312440Y-116383430D01*
X105312449Y-116383430D01*
X105313929Y-116383500D01*
X105478950Y-116383500D01*
X105560299Y-116376597D01*
X105648637Y-116369102D01*
X105648641Y-116369101D01*
X105653948Y-116368651D01*
X105659103Y-116367313D01*
X105659109Y-116367312D01*
X105876035Y-116311009D01*
X105876034Y-116311009D01*
X105881206Y-116309667D01*
X105886072Y-116307475D01*
X105886075Y-116307474D01*
X106090417Y-116215424D01*
X106090420Y-116215423D01*
X106095278Y-116213234D01*
X106290041Y-116082112D01*
X106459927Y-115920049D01*
X106600078Y-115731679D01*
X106660719Y-115612408D01*
X106704069Y-115527144D01*
X106704069Y-115527143D01*
X106706487Y-115522388D01*
X106753667Y-115370442D01*
X106792970Y-115311317D01*
X106857999Y-115282826D01*
X106928109Y-115294016D01*
X106981039Y-115341333D01*
X107000000Y-115407806D01*
X107000000Y-117000000D01*
X108500000Y-118500000D01*
X112500000Y-118500000D01*
X114000000Y-117000000D01*
X114000000Y-115421315D01*
X114020002Y-115353194D01*
X114073658Y-115306701D01*
X114143932Y-115296597D01*
X114208512Y-115326091D01*
X114246896Y-115385817D01*
X114248540Y-115392356D01*
X114248965Y-115393772D01*
X114250062Y-115399001D01*
X114336302Y-115617377D01*
X114458104Y-115818100D01*
X114611985Y-115995432D01*
X114616117Y-115998820D01*
X114789416Y-116140917D01*
X114789422Y-116140921D01*
X114793544Y-116144301D01*
X114798180Y-116146940D01*
X114798183Y-116146942D01*
X114909408Y-116210255D01*
X114997590Y-116260451D01*
X115218289Y-116340561D01*
X115223538Y-116341510D01*
X115223541Y-116341511D01*
X115304615Y-116356171D01*
X115449330Y-116382340D01*
X115453469Y-116382535D01*
X115453476Y-116382536D01*
X115472440Y-116383430D01*
X115472449Y-116383430D01*
X115473929Y-116383500D01*
X115638950Y-116383500D01*
X115720299Y-116376597D01*
X115808637Y-116369102D01*
X115808641Y-116369101D01*
X115813948Y-116368651D01*
X115819103Y-116367313D01*
X115819109Y-116367312D01*
X116036035Y-116311009D01*
X116036034Y-116311009D01*
X116041206Y-116309667D01*
X116046072Y-116307475D01*
X116046075Y-116307474D01*
X116250417Y-116215424D01*
X116250420Y-116215423D01*
X116255278Y-116213234D01*
X116450041Y-116082112D01*
X116619927Y-115920049D01*
X116760078Y-115731679D01*
X116820719Y-115612408D01*
X116864069Y-115527144D01*
X116864069Y-115527143D01*
X116866487Y-115522388D01*
X116936111Y-115298160D01*
X116953202Y-115169216D01*
X116966261Y-115070690D01*
X116966261Y-115070687D01*
X116966961Y-115065407D01*
X116962050Y-114934593D01*
X123033039Y-114934593D01*
X123041848Y-115169216D01*
X123042943Y-115174434D01*
X123088668Y-115392356D01*
X123090062Y-115399001D01*
X123176302Y-115617377D01*
X123298104Y-115818100D01*
X123451985Y-115995432D01*
X123456117Y-115998820D01*
X123629416Y-116140917D01*
X123629422Y-116140921D01*
X123633544Y-116144301D01*
X123638180Y-116146940D01*
X123638183Y-116146942D01*
X123749408Y-116210255D01*
X123837590Y-116260451D01*
X124058289Y-116340561D01*
X124063538Y-116341510D01*
X124063541Y-116341511D01*
X124144615Y-116356171D01*
X124289330Y-116382340D01*
X124293469Y-116382535D01*
X124293476Y-116382536D01*
X124312440Y-116383430D01*
X124312449Y-116383430D01*
X124313929Y-116383500D01*
X124478950Y-116383500D01*
X124560299Y-116376597D01*
X124648637Y-116369102D01*
X124648641Y-116369101D01*
X124653948Y-116368651D01*
X124659103Y-116367313D01*
X124659109Y-116367312D01*
X124876035Y-116311009D01*
X124876034Y-116311009D01*
X124881206Y-116309667D01*
X124886072Y-116307475D01*
X124886075Y-116307474D01*
X125090417Y-116215424D01*
X125090420Y-116215423D01*
X125095278Y-116213234D01*
X125290041Y-116082112D01*
X125459927Y-115920049D01*
X125600078Y-115731679D01*
X125660719Y-115612408D01*
X125704069Y-115527144D01*
X125704069Y-115527143D01*
X125706487Y-115522388D01*
X125753667Y-115370442D01*
X125792970Y-115311317D01*
X125857999Y-115282826D01*
X125928109Y-115294016D01*
X125981039Y-115341333D01*
X126000000Y-115407806D01*
X126000000Y-117000000D01*
X127500000Y-118500000D01*
X131500000Y-118500000D01*
X133000000Y-117000000D01*
X133000000Y-115421315D01*
X133020002Y-115353194D01*
X133073658Y-115306701D01*
X133143932Y-115296597D01*
X133208512Y-115326091D01*
X133246896Y-115385817D01*
X133248540Y-115392356D01*
X133248965Y-115393772D01*
X133250062Y-115399001D01*
X133336302Y-115617377D01*
X133458104Y-115818100D01*
X133611985Y-115995432D01*
X133616117Y-115998820D01*
X133789416Y-116140917D01*
X133789422Y-116140921D01*
X133793544Y-116144301D01*
X133798180Y-116146940D01*
X133798183Y-116146942D01*
X133909408Y-116210255D01*
X133997590Y-116260451D01*
X134218289Y-116340561D01*
X134223538Y-116341510D01*
X134223541Y-116341511D01*
X134304615Y-116356171D01*
X134449330Y-116382340D01*
X134453469Y-116382535D01*
X134453476Y-116382536D01*
X134472440Y-116383430D01*
X134472449Y-116383430D01*
X134473929Y-116383500D01*
X134638950Y-116383500D01*
X134720299Y-116376597D01*
X134808637Y-116369102D01*
X134808641Y-116369101D01*
X134813948Y-116368651D01*
X134819103Y-116367313D01*
X134819109Y-116367312D01*
X135036035Y-116311009D01*
X135036034Y-116311009D01*
X135041206Y-116309667D01*
X135046072Y-116307475D01*
X135046075Y-116307474D01*
X135250417Y-116215424D01*
X135250420Y-116215423D01*
X135255278Y-116213234D01*
X135450041Y-116082112D01*
X135619927Y-115920049D01*
X135760078Y-115731679D01*
X135820719Y-115612408D01*
X135864069Y-115527144D01*
X135864069Y-115527143D01*
X135866487Y-115522388D01*
X135936111Y-115298160D01*
X135953202Y-115169216D01*
X135966261Y-115070690D01*
X135966261Y-115070687D01*
X135966961Y-115065407D01*
X135958152Y-114830784D01*
X135934314Y-114717174D01*
X135911035Y-114606226D01*
X135911034Y-114606223D01*
X135909938Y-114600999D01*
X135823698Y-114382623D01*
X135701896Y-114181900D01*
X135548015Y-114004568D01*
X135537938Y-113996306D01*
X135370584Y-113859083D01*
X135370578Y-113859079D01*
X135366456Y-113855699D01*
X135361820Y-113853060D01*
X135361817Y-113853058D01*
X135167053Y-113742192D01*
X135162410Y-113739549D01*
X134941711Y-113659439D01*
X134936462Y-113658490D01*
X134936459Y-113658489D01*
X134855385Y-113643829D01*
X134710670Y-113617660D01*
X134706531Y-113617465D01*
X134706524Y-113617464D01*
X134687560Y-113616570D01*
X134687551Y-113616570D01*
X134686071Y-113616500D01*
X134521050Y-113616500D01*
X134439701Y-113623403D01*
X134351363Y-113630898D01*
X134351359Y-113630899D01*
X134346052Y-113631349D01*
X134340897Y-113632687D01*
X134340891Y-113632688D01*
X134163177Y-113678814D01*
X134118794Y-113690333D01*
X134113928Y-113692525D01*
X134113925Y-113692526D01*
X133909583Y-113784576D01*
X133909580Y-113784577D01*
X133904722Y-113786766D01*
X133709959Y-113917888D01*
X133540073Y-114079951D01*
X133399922Y-114268321D01*
X133397506Y-114273072D01*
X133397504Y-114273076D01*
X133295931Y-114472856D01*
X133293513Y-114477612D01*
X133291931Y-114482707D01*
X133246333Y-114629558D01*
X133207030Y-114688683D01*
X133142001Y-114717174D01*
X133071891Y-114705984D01*
X133018961Y-114658667D01*
X133000000Y-114592194D01*
X133000000Y-113500000D01*
X131911171Y-112411171D01*
X131877145Y-112348859D01*
X131882210Y-112278044D01*
X131924757Y-112221208D01*
X131960391Y-112202552D01*
X132056105Y-112170620D01*
X132069286Y-112164445D01*
X132202173Y-112082212D01*
X132213574Y-112073176D01*
X132323986Y-111962571D01*
X132332998Y-111951160D01*
X132415004Y-111818120D01*
X132421151Y-111804939D01*
X132470491Y-111656186D01*
X132473358Y-111642810D01*
X132482672Y-111551903D01*
X132482929Y-111546874D01*
X132478525Y-111531876D01*
X132477135Y-111530671D01*
X132469452Y-111529000D01*
X131372000Y-111529000D01*
X131303879Y-111508998D01*
X131257386Y-111455342D01*
X131246000Y-111403000D01*
X131246000Y-111147000D01*
X131266002Y-111078879D01*
X131319658Y-111032386D01*
X131372000Y-111021000D01*
X132464885Y-111021000D01*
X132480124Y-111016525D01*
X132481329Y-111015135D01*
X132483000Y-111007452D01*
X132483000Y-111004562D01*
X132482663Y-110998047D01*
X132473106Y-110905943D01*
X132470212Y-110892544D01*
X132420619Y-110743893D01*
X132414445Y-110730714D01*
X132332212Y-110597827D01*
X132318629Y-110580689D01*
X132320559Y-110579159D01*
X132292097Y-110527120D01*
X132297113Y-110456301D01*
X132320799Y-110419383D01*
X132319843Y-110418628D01*
X132324381Y-110412882D01*
X132329552Y-110407702D01*
X132333585Y-110401160D01*
X132415462Y-110268331D01*
X132415463Y-110268329D01*
X132419302Y-110262101D01*
X132473149Y-110099757D01*
X132483500Y-109998732D01*
X132483500Y-109451268D01*
X132472887Y-109348981D01*
X132418756Y-109186732D01*
X132407051Y-109167816D01*
X132332606Y-109047515D01*
X132328752Y-109041287D01*
X132207702Y-108920448D01*
X132201468Y-108916605D01*
X132193383Y-108911621D01*
X132145890Y-108858848D01*
X132133500Y-108804362D01*
X132133500Y-108514594D01*
X132153502Y-108446473D01*
X132170405Y-108425499D01*
X132650499Y-107945405D01*
X132712811Y-107911379D01*
X132739594Y-107908500D01*
X132795487Y-107908500D01*
X132801939Y-107907128D01*
X132801944Y-107907128D01*
X132913483Y-107883419D01*
X132982288Y-107868794D01*
X132988319Y-107866109D01*
X133150722Y-107793803D01*
X133150724Y-107793802D01*
X133156752Y-107791118D01*
X133167436Y-107783356D01*
X133305914Y-107682745D01*
X133311253Y-107678866D01*
X133315668Y-107673963D01*
X133320580Y-107669540D01*
X133321705Y-107670789D01*
X133375014Y-107637949D01*
X133408200Y-107633500D01*
X135365500Y-107633500D01*
X135433621Y-107653502D01*
X135480114Y-107707158D01*
X135491500Y-107759500D01*
X135491500Y-108048134D01*
X135498255Y-108110316D01*
X135549385Y-108246705D01*
X135636739Y-108363261D01*
X135753295Y-108450615D01*
X135889684Y-108501745D01*
X135951866Y-108508500D01*
X138048134Y-108508500D01*
X138110316Y-108501745D01*
X138246705Y-108450615D01*
X138363261Y-108363261D01*
X138450615Y-108246705D01*
X138501745Y-108110316D01*
X138508500Y-108048134D01*
X138508500Y-105951866D01*
X138501745Y-105889684D01*
X138450615Y-105753295D01*
X138363261Y-105636739D01*
X138246705Y-105549385D01*
X138110316Y-105498255D01*
X138048134Y-105491500D01*
X135951866Y-105491500D01*
X135889684Y-105498255D01*
X135753295Y-105549385D01*
X135636739Y-105636739D01*
X135549385Y-105753295D01*
X135498255Y-105889684D01*
X135491500Y-105951866D01*
X135491500Y-106240500D01*
X135471498Y-106308621D01*
X135417842Y-106355114D01*
X135365500Y-106366500D01*
X133408200Y-106366500D01*
X133340079Y-106346498D01*
X133320853Y-106330157D01*
X133320580Y-106330460D01*
X133315668Y-106326037D01*
X133311253Y-106321134D01*
X133156752Y-106208882D01*
X133150724Y-106206198D01*
X133150722Y-106206197D01*
X132988319Y-106133891D01*
X132988318Y-106133891D01*
X132982288Y-106131206D01*
X132888888Y-106111353D01*
X132801944Y-106092872D01*
X132801939Y-106092872D01*
X132795487Y-106091500D01*
X132604513Y-106091500D01*
X132598061Y-106092872D01*
X132598056Y-106092872D01*
X132511113Y-106111353D01*
X132417712Y-106131206D01*
X132411682Y-106133891D01*
X132411681Y-106133891D01*
X132249278Y-106206197D01*
X132249276Y-106206198D01*
X132243248Y-106208882D01*
X132088747Y-106321134D01*
X131960960Y-106463056D01*
X131865473Y-106628444D01*
X131806458Y-106810072D01*
X131805768Y-106816633D01*
X131805768Y-106816635D01*
X131789093Y-106975292D01*
X131762080Y-107040949D01*
X131752878Y-107051217D01*
X131107747Y-107696348D01*
X131099461Y-107703888D01*
X131092982Y-107708000D01*
X131087557Y-107713777D01*
X131046357Y-107757651D01*
X131043602Y-107760493D01*
X131023865Y-107780230D01*
X131021385Y-107783427D01*
X131013682Y-107792447D01*
X130983414Y-107824679D01*
X130979595Y-107831625D01*
X130979593Y-107831628D01*
X130973652Y-107842434D01*
X130962801Y-107858953D01*
X130950386Y-107874959D01*
X130947241Y-107882228D01*
X130947238Y-107882232D01*
X130932826Y-107915537D01*
X130927609Y-107926187D01*
X130906305Y-107964940D01*
X130904334Y-107972615D01*
X130904334Y-107972616D01*
X130901267Y-107984562D01*
X130894863Y-108003266D01*
X130886819Y-108021855D01*
X130885580Y-108029678D01*
X130885577Y-108029688D01*
X130879901Y-108065524D01*
X130877495Y-108077144D01*
X130870789Y-108103266D01*
X130866500Y-108119970D01*
X130866500Y-108140224D01*
X130864949Y-108159934D01*
X130861780Y-108179943D01*
X130862526Y-108187835D01*
X130865941Y-108223961D01*
X130866500Y-108235819D01*
X130866500Y-108804501D01*
X130846498Y-108872622D01*
X130806805Y-108911644D01*
X130797512Y-108917395D01*
X130797507Y-108917399D01*
X130791287Y-108921248D01*
X130786118Y-108926426D01*
X130708162Y-109004518D01*
X130645880Y-109038597D01*
X130618989Y-109041500D01*
X130395710Y-109041500D01*
X130327589Y-109021498D01*
X130306615Y-109004595D01*
X130215381Y-108913361D01*
X130068699Y-108824528D01*
X130061452Y-108822257D01*
X130061450Y-108822256D01*
X129995164Y-108801483D01*
X129905062Y-108773247D01*
X129831635Y-108766500D01*
X129828737Y-108766500D01*
X129499140Y-108766501D01*
X129168366Y-108766501D01*
X129165508Y-108766764D01*
X129165499Y-108766764D01*
X129131630Y-108769876D01*
X129094938Y-108773247D01*
X129088560Y-108775246D01*
X129088559Y-108775246D01*
X128938550Y-108822256D01*
X128938548Y-108822257D01*
X128931301Y-108824528D01*
X128784619Y-108913361D01*
X128663361Y-109034619D01*
X128659424Y-109041120D01*
X128602146Y-109135697D01*
X128549748Y-109183604D01*
X128479769Y-109195577D01*
X128414425Y-109167816D01*
X128387226Y-109136729D01*
X128332212Y-109047827D01*
X128323176Y-109036426D01*
X128212571Y-108926014D01*
X128201160Y-108917002D01*
X128068120Y-108834996D01*
X128054939Y-108828849D01*
X127906186Y-108779509D01*
X127892810Y-108776642D01*
X127801903Y-108767328D01*
X127795486Y-108767000D01*
X127772115Y-108767000D01*
X127756876Y-108771475D01*
X127755671Y-108772865D01*
X127754000Y-108780548D01*
X127754000Y-109853000D01*
X127733998Y-109921121D01*
X127680342Y-109967614D01*
X127628000Y-109979000D01*
X126535115Y-109979000D01*
X126519876Y-109983475D01*
X126518671Y-109984865D01*
X126517000Y-109992548D01*
X126517000Y-109995438D01*
X126517337Y-110001953D01*
X126526894Y-110094057D01*
X126529788Y-110107456D01*
X126579381Y-110256107D01*
X126585555Y-110269286D01*
X126667788Y-110402173D01*
X126681371Y-110419311D01*
X126679441Y-110420841D01*
X126707903Y-110472880D01*
X126702887Y-110543699D01*
X126679201Y-110580618D01*
X126680156Y-110581373D01*
X126675618Y-110587119D01*
X126670448Y-110592298D01*
X126668986Y-110594670D01*
X126612588Y-110634655D01*
X126571624Y-110641500D01*
X126480224Y-110641500D01*
X126412103Y-110621498D01*
X126406163Y-110617436D01*
X126405909Y-110617251D01*
X126284101Y-110528752D01*
X126262094Y-110512763D01*
X126262093Y-110512762D01*
X126256752Y-110508882D01*
X126250724Y-110506198D01*
X126250722Y-110506197D01*
X126088319Y-110433891D01*
X126088318Y-110433891D01*
X126082288Y-110431206D01*
X125986780Y-110410905D01*
X125901944Y-110392872D01*
X125901939Y-110392872D01*
X125895487Y-110391500D01*
X125704513Y-110391500D01*
X125698061Y-110392872D01*
X125698056Y-110392872D01*
X125613220Y-110410905D01*
X125517712Y-110431206D01*
X125511682Y-110433891D01*
X125511681Y-110433891D01*
X125349278Y-110506197D01*
X125349276Y-110506198D01*
X125343248Y-110508882D01*
X125337907Y-110512762D01*
X125337906Y-110512763D01*
X125315899Y-110528752D01*
X125188747Y-110621134D01*
X125184326Y-110626044D01*
X125184325Y-110626045D01*
X125085192Y-110736144D01*
X125060960Y-110763056D01*
X125002686Y-110863990D01*
X124982484Y-110898981D01*
X124965473Y-110928444D01*
X124906458Y-111110072D01*
X124886496Y-111300000D01*
X124887186Y-111306565D01*
X124897322Y-111403000D01*
X124906458Y-111489928D01*
X124965473Y-111671556D01*
X124968776Y-111677278D01*
X124968777Y-111677279D01*
X124999924Y-111731226D01*
X125060960Y-111836944D01*
X125065378Y-111841851D01*
X125065379Y-111841852D01*
X125170409Y-111958500D01*
X125188747Y-111978866D01*
X125287843Y-112050864D01*
X125320212Y-112074381D01*
X125343248Y-112091118D01*
X125349276Y-112093802D01*
X125349278Y-112093803D01*
X125507944Y-112164445D01*
X125517712Y-112168794D01*
X125611113Y-112188647D01*
X125698056Y-112207128D01*
X125698061Y-112207128D01*
X125704513Y-112208500D01*
X125895487Y-112208500D01*
X125901939Y-112207128D01*
X125901944Y-112207128D01*
X125988887Y-112188647D01*
X126082288Y-112168794D01*
X126092056Y-112164445D01*
X126250722Y-112093803D01*
X126250724Y-112093802D01*
X126256752Y-112091118D01*
X126279789Y-112074381D01*
X126394390Y-111991118D01*
X126406163Y-111982564D01*
X126473031Y-111958706D01*
X126480224Y-111958500D01*
X126618908Y-111958500D01*
X126687029Y-111978502D01*
X126707926Y-111995327D01*
X126792298Y-112079552D01*
X126798528Y-112083392D01*
X126798529Y-112083393D01*
X126930020Y-112164445D01*
X126937899Y-112169302D01*
X127026306Y-112198625D01*
X127039037Y-112202848D01*
X127097396Y-112243279D01*
X127124633Y-112308843D01*
X127112099Y-112378725D01*
X127088464Y-112411536D01*
X126000000Y-113500000D01*
X126000000Y-114578685D01*
X125979998Y-114646806D01*
X125926342Y-114693299D01*
X125856068Y-114703403D01*
X125791488Y-114673909D01*
X125753104Y-114614183D01*
X125751460Y-114607644D01*
X125751035Y-114606226D01*
X125749938Y-114600999D01*
X125663698Y-114382623D01*
X125541896Y-114181900D01*
X125388015Y-114004568D01*
X125377938Y-113996306D01*
X125210584Y-113859083D01*
X125210578Y-113859079D01*
X125206456Y-113855699D01*
X125201820Y-113853060D01*
X125201817Y-113853058D01*
X125007053Y-113742192D01*
X125002410Y-113739549D01*
X124781711Y-113659439D01*
X124776462Y-113658490D01*
X124776459Y-113658489D01*
X124695385Y-113643829D01*
X124550670Y-113617660D01*
X124546531Y-113617465D01*
X124546524Y-113617464D01*
X124527560Y-113616570D01*
X124527551Y-113616570D01*
X124526071Y-113616500D01*
X124361050Y-113616500D01*
X124279701Y-113623403D01*
X124191363Y-113630898D01*
X124191359Y-113630899D01*
X124186052Y-113631349D01*
X124180897Y-113632687D01*
X124180891Y-113632688D01*
X124003177Y-113678814D01*
X123958794Y-113690333D01*
X123953928Y-113692525D01*
X123953925Y-113692526D01*
X123749583Y-113784576D01*
X123749580Y-113784577D01*
X123744722Y-113786766D01*
X123549959Y-113917888D01*
X123380073Y-114079951D01*
X123239922Y-114268321D01*
X123237506Y-114273072D01*
X123237504Y-114273076D01*
X123135931Y-114472856D01*
X123133513Y-114477612D01*
X123063889Y-114701840D01*
X123063188Y-114707129D01*
X123046092Y-114836116D01*
X123033039Y-114934593D01*
X116962050Y-114934593D01*
X116958152Y-114830784D01*
X116934314Y-114717174D01*
X116911035Y-114606226D01*
X116911034Y-114606223D01*
X116909938Y-114600999D01*
X116823698Y-114382623D01*
X116701896Y-114181900D01*
X116548015Y-114004568D01*
X116537938Y-113996306D01*
X116370584Y-113859083D01*
X116370578Y-113859079D01*
X116366456Y-113855699D01*
X116361820Y-113853060D01*
X116361817Y-113853058D01*
X116167053Y-113742192D01*
X116162410Y-113739549D01*
X115941711Y-113659439D01*
X115936462Y-113658490D01*
X115936459Y-113658489D01*
X115855385Y-113643829D01*
X115710670Y-113617660D01*
X115706531Y-113617465D01*
X115706524Y-113617464D01*
X115687560Y-113616570D01*
X115687551Y-113616570D01*
X115686071Y-113616500D01*
X115521050Y-113616500D01*
X115439701Y-113623403D01*
X115351363Y-113630898D01*
X115351359Y-113630899D01*
X115346052Y-113631349D01*
X115340897Y-113632687D01*
X115340891Y-113632688D01*
X115163177Y-113678814D01*
X115118794Y-113690333D01*
X115113928Y-113692525D01*
X115113925Y-113692526D01*
X114909583Y-113784576D01*
X114909580Y-113784577D01*
X114904722Y-113786766D01*
X114709959Y-113917888D01*
X114540073Y-114079951D01*
X114399922Y-114268321D01*
X114397506Y-114273072D01*
X114397504Y-114273076D01*
X114295931Y-114472856D01*
X114293513Y-114477612D01*
X114291931Y-114482707D01*
X114246333Y-114629558D01*
X114207030Y-114688683D01*
X114142001Y-114717174D01*
X114071891Y-114705984D01*
X114018961Y-114658667D01*
X114000000Y-114592194D01*
X114000000Y-113500000D01*
X112911171Y-112411171D01*
X112877145Y-112348859D01*
X112882210Y-112278044D01*
X112924757Y-112221208D01*
X112960391Y-112202552D01*
X113056105Y-112170620D01*
X113069286Y-112164445D01*
X113202173Y-112082212D01*
X113213574Y-112073176D01*
X113323986Y-111962571D01*
X113332998Y-111951160D01*
X113415004Y-111818120D01*
X113421151Y-111804939D01*
X113470491Y-111656186D01*
X113473358Y-111642810D01*
X113482672Y-111551903D01*
X113482929Y-111546874D01*
X113478525Y-111531876D01*
X113477135Y-111530671D01*
X113469452Y-111529000D01*
X112372000Y-111529000D01*
X112303879Y-111508998D01*
X112257386Y-111455342D01*
X112246000Y-111403000D01*
X112246000Y-111147000D01*
X112266002Y-111078879D01*
X112319658Y-111032386D01*
X112372000Y-111021000D01*
X113464885Y-111021000D01*
X113480124Y-111016525D01*
X113481329Y-111015135D01*
X113483000Y-111007452D01*
X113483000Y-111004562D01*
X113482663Y-110998047D01*
X113473106Y-110905943D01*
X113470212Y-110892544D01*
X113420619Y-110743893D01*
X113414445Y-110730714D01*
X113332212Y-110597827D01*
X113318629Y-110580689D01*
X113320559Y-110579159D01*
X113292097Y-110527120D01*
X113297113Y-110456301D01*
X113320799Y-110419383D01*
X113319843Y-110418628D01*
X113324381Y-110412882D01*
X113329552Y-110407702D01*
X113333585Y-110401160D01*
X113415462Y-110268331D01*
X113415463Y-110268329D01*
X113419302Y-110262101D01*
X113473149Y-110099757D01*
X113483500Y-109998732D01*
X113483500Y-109453126D01*
X126517071Y-109453126D01*
X126521475Y-109468124D01*
X126522865Y-109469329D01*
X126530548Y-109471000D01*
X127227885Y-109471000D01*
X127243124Y-109466525D01*
X127244329Y-109465135D01*
X127246000Y-109457452D01*
X127246000Y-108785115D01*
X127241525Y-108769876D01*
X127240135Y-108768671D01*
X127232452Y-108767000D01*
X127204562Y-108767000D01*
X127198047Y-108767337D01*
X127105943Y-108776894D01*
X127092544Y-108779788D01*
X126943893Y-108829381D01*
X126930714Y-108835555D01*
X126797827Y-108917788D01*
X126786426Y-108926824D01*
X126676014Y-109037429D01*
X126667002Y-109048840D01*
X126584996Y-109181880D01*
X126578849Y-109195061D01*
X126529509Y-109343814D01*
X126526642Y-109357190D01*
X126517328Y-109448097D01*
X126517071Y-109453126D01*
X113483500Y-109453126D01*
X113483500Y-109451268D01*
X113472887Y-109348981D01*
X113418756Y-109186732D01*
X113407051Y-109167816D01*
X113332606Y-109047515D01*
X113328752Y-109041287D01*
X113207702Y-108920448D01*
X113201468Y-108916605D01*
X113193383Y-108911621D01*
X113145890Y-108858848D01*
X113133500Y-108804362D01*
X113133500Y-108614594D01*
X113153502Y-108546473D01*
X113170405Y-108525499D01*
X113750499Y-107945405D01*
X113812811Y-107911379D01*
X113839594Y-107908500D01*
X113895487Y-107908500D01*
X113901939Y-107907128D01*
X113901944Y-107907128D01*
X114013483Y-107883419D01*
X114082288Y-107868794D01*
X114088319Y-107866109D01*
X114250722Y-107793803D01*
X114250724Y-107793802D01*
X114256752Y-107791118D01*
X114267436Y-107783356D01*
X114405914Y-107682745D01*
X114411253Y-107678866D01*
X114415668Y-107673963D01*
X114420580Y-107669540D01*
X114421705Y-107670789D01*
X114475014Y-107637949D01*
X114508200Y-107633500D01*
X116365500Y-107633500D01*
X116433621Y-107653502D01*
X116480114Y-107707158D01*
X116491500Y-107759500D01*
X116491500Y-108048134D01*
X116498255Y-108110316D01*
X116549385Y-108246705D01*
X116636739Y-108363261D01*
X116753295Y-108450615D01*
X116889684Y-108501745D01*
X116951866Y-108508500D01*
X119048134Y-108508500D01*
X119110316Y-108501745D01*
X119246705Y-108450615D01*
X119363261Y-108363261D01*
X119450615Y-108246705D01*
X119501745Y-108110316D01*
X119508500Y-108048134D01*
X119508500Y-105951866D01*
X119501745Y-105889684D01*
X119450615Y-105753295D01*
X119363261Y-105636739D01*
X119246705Y-105549385D01*
X119110316Y-105498255D01*
X119048134Y-105491500D01*
X116951866Y-105491500D01*
X116889684Y-105498255D01*
X116753295Y-105549385D01*
X116636739Y-105636739D01*
X116549385Y-105753295D01*
X116498255Y-105889684D01*
X116491500Y-105951866D01*
X116491500Y-106240500D01*
X116471498Y-106308621D01*
X116417842Y-106355114D01*
X116365500Y-106366500D01*
X114508200Y-106366500D01*
X114440079Y-106346498D01*
X114420853Y-106330157D01*
X114420580Y-106330460D01*
X114415668Y-106326037D01*
X114411253Y-106321134D01*
X114256752Y-106208882D01*
X114250724Y-106206198D01*
X114250722Y-106206197D01*
X114088319Y-106133891D01*
X114088318Y-106133891D01*
X114082288Y-106131206D01*
X113988888Y-106111353D01*
X113901944Y-106092872D01*
X113901939Y-106092872D01*
X113895487Y-106091500D01*
X113704513Y-106091500D01*
X113698061Y-106092872D01*
X113698056Y-106092872D01*
X113611113Y-106111353D01*
X113517712Y-106131206D01*
X113511682Y-106133891D01*
X113511681Y-106133891D01*
X113349278Y-106206197D01*
X113349276Y-106206198D01*
X113343248Y-106208882D01*
X113188747Y-106321134D01*
X113060960Y-106463056D01*
X112965473Y-106628444D01*
X112906458Y-106810072D01*
X112905768Y-106816633D01*
X112905768Y-106816635D01*
X112889093Y-106975292D01*
X112862080Y-107040949D01*
X112852878Y-107051218D01*
X112107742Y-107796353D01*
X112099463Y-107803887D01*
X112092982Y-107808000D01*
X112070794Y-107831628D01*
X112046357Y-107857651D01*
X112043602Y-107860493D01*
X112023865Y-107880230D01*
X112021385Y-107883427D01*
X112013682Y-107892447D01*
X111983414Y-107924679D01*
X111979595Y-107931625D01*
X111979593Y-107931628D01*
X111973652Y-107942434D01*
X111962801Y-107958953D01*
X111950386Y-107974959D01*
X111947241Y-107982228D01*
X111947238Y-107982232D01*
X111932826Y-108015537D01*
X111927609Y-108026187D01*
X111906305Y-108064940D01*
X111904334Y-108072615D01*
X111904334Y-108072616D01*
X111901267Y-108084562D01*
X111894863Y-108103266D01*
X111890959Y-108112289D01*
X111886819Y-108121855D01*
X111885580Y-108129678D01*
X111885577Y-108129688D01*
X111879901Y-108165524D01*
X111877495Y-108177144D01*
X111868472Y-108212289D01*
X111866500Y-108219970D01*
X111866500Y-108240224D01*
X111864949Y-108259934D01*
X111861780Y-108279943D01*
X111862526Y-108287835D01*
X111865941Y-108323961D01*
X111866500Y-108335819D01*
X111866500Y-108804501D01*
X111846498Y-108872622D01*
X111806805Y-108911644D01*
X111797512Y-108917395D01*
X111797507Y-108917399D01*
X111791287Y-108921248D01*
X111786118Y-108926426D01*
X111708162Y-109004518D01*
X111645880Y-109038597D01*
X111618989Y-109041500D01*
X111395710Y-109041500D01*
X111327589Y-109021498D01*
X111306615Y-109004595D01*
X111215381Y-108913361D01*
X111068699Y-108824528D01*
X111061452Y-108822257D01*
X111061450Y-108822256D01*
X110995164Y-108801483D01*
X110905062Y-108773247D01*
X110831635Y-108766500D01*
X110828737Y-108766500D01*
X110499140Y-108766501D01*
X110168366Y-108766501D01*
X110165508Y-108766764D01*
X110165499Y-108766764D01*
X110131630Y-108769876D01*
X110094938Y-108773247D01*
X110088560Y-108775246D01*
X110088559Y-108775246D01*
X109938550Y-108822256D01*
X109938548Y-108822257D01*
X109931301Y-108824528D01*
X109784619Y-108913361D01*
X109663361Y-109034619D01*
X109659424Y-109041120D01*
X109602146Y-109135697D01*
X109549748Y-109183604D01*
X109479769Y-109195577D01*
X109414425Y-109167816D01*
X109387226Y-109136729D01*
X109332212Y-109047827D01*
X109323176Y-109036426D01*
X109212571Y-108926014D01*
X109201160Y-108917002D01*
X109068120Y-108834996D01*
X109054939Y-108828849D01*
X108906186Y-108779509D01*
X108892810Y-108776642D01*
X108801903Y-108767328D01*
X108795486Y-108767000D01*
X108772115Y-108767000D01*
X108756876Y-108771475D01*
X108755671Y-108772865D01*
X108754000Y-108780548D01*
X108754000Y-109853000D01*
X108733998Y-109921121D01*
X108680342Y-109967614D01*
X108628000Y-109979000D01*
X107535115Y-109979000D01*
X107519876Y-109983475D01*
X107518671Y-109984865D01*
X107517000Y-109992548D01*
X107517000Y-109995438D01*
X107517337Y-110001953D01*
X107526894Y-110094057D01*
X107529788Y-110107456D01*
X107579381Y-110256107D01*
X107585555Y-110269286D01*
X107667788Y-110402173D01*
X107675765Y-110412238D01*
X107702400Y-110478049D01*
X107689228Y-110547813D01*
X107640429Y-110599380D01*
X107577017Y-110616500D01*
X107253219Y-110616500D01*
X107185098Y-110596498D01*
X107159583Y-110574810D01*
X107115675Y-110526045D01*
X107115674Y-110526044D01*
X107111253Y-110521134D01*
X106971536Y-110419623D01*
X106962094Y-110412763D01*
X106962093Y-110412762D01*
X106956752Y-110408882D01*
X106950724Y-110406198D01*
X106950722Y-110406197D01*
X106788319Y-110333891D01*
X106788318Y-110333891D01*
X106782288Y-110331206D01*
X106688888Y-110311353D01*
X106601944Y-110292872D01*
X106601939Y-110292872D01*
X106595487Y-110291500D01*
X106404513Y-110291500D01*
X106398061Y-110292872D01*
X106398056Y-110292872D01*
X106311112Y-110311353D01*
X106217712Y-110331206D01*
X106211682Y-110333891D01*
X106211681Y-110333891D01*
X106049278Y-110406197D01*
X106049276Y-110406198D01*
X106043248Y-110408882D01*
X106037907Y-110412762D01*
X106037906Y-110412763D01*
X106028464Y-110419623D01*
X105888747Y-110521134D01*
X105884326Y-110526044D01*
X105884325Y-110526045D01*
X105834508Y-110581373D01*
X105760960Y-110663056D01*
X105703225Y-110763056D01*
X105685037Y-110794559D01*
X105665473Y-110828444D01*
X105606458Y-111010072D01*
X105605768Y-111016633D01*
X105605768Y-111016635D01*
X105595948Y-111110072D01*
X105586496Y-111200000D01*
X105606458Y-111389928D01*
X105665473Y-111571556D01*
X105668776Y-111577278D01*
X105668777Y-111577279D01*
X105682942Y-111601813D01*
X105760960Y-111736944D01*
X105765378Y-111741851D01*
X105765379Y-111741852D01*
X105845852Y-111831226D01*
X105888747Y-111878866D01*
X105972973Y-111940060D01*
X106026385Y-111978866D01*
X106043248Y-111991118D01*
X106049276Y-111993802D01*
X106049278Y-111993803D01*
X106063197Y-112000000D01*
X106217712Y-112068794D01*
X106286395Y-112083393D01*
X106398056Y-112107128D01*
X106398061Y-112107128D01*
X106404513Y-112108500D01*
X106595487Y-112108500D01*
X106601939Y-112107128D01*
X106601944Y-112107128D01*
X106713605Y-112083393D01*
X106782288Y-112068794D01*
X106936803Y-112000000D01*
X106950722Y-111993803D01*
X106950724Y-111993802D01*
X106956752Y-111991118D01*
X106973616Y-111978866D01*
X107002935Y-111957564D01*
X107069803Y-111933706D01*
X107076996Y-111933500D01*
X107593864Y-111933500D01*
X107661985Y-111953502D01*
X107682882Y-111970327D01*
X107706399Y-111993803D01*
X107792298Y-112079552D01*
X107798528Y-112083392D01*
X107798529Y-112083393D01*
X107930020Y-112164445D01*
X107937899Y-112169302D01*
X108026306Y-112198625D01*
X108039037Y-112202848D01*
X108097396Y-112243279D01*
X108124633Y-112308843D01*
X108112099Y-112378725D01*
X108088464Y-112411536D01*
X107000000Y-113500000D01*
X107000000Y-114578685D01*
X106979998Y-114646806D01*
X106926342Y-114693299D01*
X106856068Y-114703403D01*
X106791488Y-114673909D01*
X106753104Y-114614183D01*
X106751460Y-114607644D01*
X106751035Y-114606226D01*
X106749938Y-114600999D01*
X106663698Y-114382623D01*
X106541896Y-114181900D01*
X106388015Y-114004568D01*
X106377938Y-113996306D01*
X106210584Y-113859083D01*
X106210578Y-113859079D01*
X106206456Y-113855699D01*
X106201820Y-113853060D01*
X106201817Y-113853058D01*
X106007053Y-113742192D01*
X106002410Y-113739549D01*
X105781711Y-113659439D01*
X105776462Y-113658490D01*
X105776459Y-113658489D01*
X105695385Y-113643829D01*
X105550670Y-113617660D01*
X105546531Y-113617465D01*
X105546524Y-113617464D01*
X105527560Y-113616570D01*
X105527551Y-113616570D01*
X105526071Y-113616500D01*
X105361050Y-113616500D01*
X105279701Y-113623403D01*
X105191363Y-113630898D01*
X105191359Y-113630899D01*
X105186052Y-113631349D01*
X105180897Y-113632687D01*
X105180891Y-113632688D01*
X105003177Y-113678814D01*
X104958794Y-113690333D01*
X104953928Y-113692525D01*
X104953925Y-113692526D01*
X104749583Y-113784576D01*
X104749580Y-113784577D01*
X104744722Y-113786766D01*
X104549959Y-113917888D01*
X104380073Y-114079951D01*
X104239922Y-114268321D01*
X104237506Y-114273072D01*
X104237504Y-114273076D01*
X104135931Y-114472856D01*
X104133513Y-114477612D01*
X104063889Y-114701840D01*
X104063188Y-114707129D01*
X104046092Y-114836116D01*
X104033039Y-114934593D01*
X101008500Y-114934593D01*
X101008500Y-109453126D01*
X107517071Y-109453126D01*
X107521475Y-109468124D01*
X107522865Y-109469329D01*
X107530548Y-109471000D01*
X108227885Y-109471000D01*
X108243124Y-109466525D01*
X108244329Y-109465135D01*
X108246000Y-109457452D01*
X108246000Y-108785115D01*
X108241525Y-108769876D01*
X108240135Y-108768671D01*
X108232452Y-108767000D01*
X108204562Y-108767000D01*
X108198047Y-108767337D01*
X108105943Y-108776894D01*
X108092544Y-108779788D01*
X107943893Y-108829381D01*
X107930714Y-108835555D01*
X107797827Y-108917788D01*
X107786426Y-108926824D01*
X107676014Y-109037429D01*
X107667002Y-109048840D01*
X107584996Y-109181880D01*
X107578849Y-109195061D01*
X107529509Y-109343814D01*
X107526642Y-109357190D01*
X107517328Y-109448097D01*
X107517071Y-109453126D01*
X101008500Y-109453126D01*
X101008500Y-101000000D01*
X112086496Y-101000000D01*
X112106458Y-101189928D01*
X112165473Y-101371556D01*
X112168776Y-101377278D01*
X112168777Y-101377279D01*
X112202686Y-101436010D01*
X112260960Y-101536944D01*
X112388747Y-101678866D01*
X112543248Y-101791118D01*
X112549276Y-101793802D01*
X112549278Y-101793803D01*
X112645490Y-101836639D01*
X112717712Y-101868794D01*
X112811112Y-101888647D01*
X112898056Y-101907128D01*
X112898061Y-101907128D01*
X112904513Y-101908500D01*
X113095487Y-101908500D01*
X113101939Y-101907128D01*
X113101944Y-101907128D01*
X113188888Y-101888647D01*
X113282288Y-101868794D01*
X113354510Y-101836639D01*
X113450722Y-101793803D01*
X113450724Y-101793802D01*
X113456752Y-101791118D01*
X113611253Y-101678866D01*
X113615668Y-101673963D01*
X113620580Y-101669540D01*
X113621705Y-101670789D01*
X113675014Y-101637949D01*
X113708200Y-101633500D01*
X113792775Y-101633500D01*
X113860896Y-101653502D01*
X113900551Y-101694229D01*
X113913361Y-101715381D01*
X114034619Y-101836639D01*
X114181301Y-101925472D01*
X114188548Y-101927743D01*
X114188550Y-101927744D01*
X114254836Y-101948517D01*
X114344938Y-101976753D01*
X114418365Y-101983500D01*
X114421263Y-101983500D01*
X114675665Y-101983499D01*
X114931634Y-101983499D01*
X114934492Y-101983236D01*
X114934501Y-101983236D01*
X114970004Y-101979974D01*
X115005062Y-101976753D01*
X115011447Y-101974752D01*
X115161450Y-101927744D01*
X115161452Y-101927743D01*
X115168699Y-101925472D01*
X115315381Y-101836639D01*
X115410905Y-101741115D01*
X115473217Y-101707089D01*
X115544032Y-101712154D01*
X115589095Y-101741115D01*
X115684619Y-101836639D01*
X115831301Y-101925472D01*
X115838548Y-101927743D01*
X115838550Y-101927744D01*
X115904836Y-101948517D01*
X115994938Y-101976753D01*
X116068365Y-101983500D01*
X116071263Y-101983500D01*
X116325665Y-101983499D01*
X116581634Y-101983499D01*
X116584492Y-101983236D01*
X116584501Y-101983236D01*
X116620004Y-101979974D01*
X116655062Y-101976753D01*
X116661447Y-101974752D01*
X116811450Y-101927744D01*
X116811452Y-101927743D01*
X116818699Y-101925472D01*
X116965381Y-101836639D01*
X117086639Y-101715381D01*
X117175472Y-101568699D01*
X117183886Y-101541852D01*
X117224752Y-101411446D01*
X117226753Y-101405062D01*
X117233500Y-101331635D01*
X117233500Y-101000000D01*
X131086496Y-101000000D01*
X131106458Y-101189928D01*
X131165473Y-101371556D01*
X131168776Y-101377278D01*
X131168777Y-101377279D01*
X131202686Y-101436010D01*
X131260960Y-101536944D01*
X131388747Y-101678866D01*
X131543248Y-101791118D01*
X131549276Y-101793802D01*
X131549278Y-101793803D01*
X131645490Y-101836639D01*
X131717712Y-101868794D01*
X131811112Y-101888647D01*
X131898056Y-101907128D01*
X131898061Y-101907128D01*
X131904513Y-101908500D01*
X132095487Y-101908500D01*
X132101939Y-101907128D01*
X132101944Y-101907128D01*
X132188888Y-101888647D01*
X132282288Y-101868794D01*
X132354510Y-101836639D01*
X132450722Y-101793803D01*
X132450724Y-101793802D01*
X132456752Y-101791118D01*
X132611253Y-101678866D01*
X132615668Y-101673963D01*
X132620580Y-101669540D01*
X132621705Y-101670789D01*
X132675014Y-101637949D01*
X132708200Y-101633500D01*
X132792775Y-101633500D01*
X132860896Y-101653502D01*
X132900551Y-101694229D01*
X132913361Y-101715381D01*
X133034619Y-101836639D01*
X133181301Y-101925472D01*
X133188548Y-101927743D01*
X133188550Y-101927744D01*
X133254836Y-101948517D01*
X133344938Y-101976753D01*
X133418365Y-101983500D01*
X133421263Y-101983500D01*
X133675665Y-101983499D01*
X133931634Y-101983499D01*
X133934492Y-101983236D01*
X133934501Y-101983236D01*
X133970004Y-101979974D01*
X134005062Y-101976753D01*
X134011447Y-101974752D01*
X134161450Y-101927744D01*
X134161452Y-101927743D01*
X134168699Y-101925472D01*
X134315381Y-101836639D01*
X134410905Y-101741115D01*
X134473217Y-101707089D01*
X134544032Y-101712154D01*
X134589095Y-101741115D01*
X134684619Y-101836639D01*
X134831301Y-101925472D01*
X134838548Y-101927743D01*
X134838550Y-101927744D01*
X134904836Y-101948517D01*
X134994938Y-101976753D01*
X135068365Y-101983500D01*
X135071263Y-101983500D01*
X135325665Y-101983499D01*
X135581634Y-101983499D01*
X135584492Y-101983236D01*
X135584501Y-101983236D01*
X135620004Y-101979974D01*
X135655062Y-101976753D01*
X135661447Y-101974752D01*
X135811450Y-101927744D01*
X135811452Y-101927743D01*
X135818699Y-101925472D01*
X135965381Y-101836639D01*
X136086639Y-101715381D01*
X136175472Y-101568699D01*
X136183886Y-101541852D01*
X136224752Y-101411446D01*
X136226753Y-101405062D01*
X136233500Y-101331635D01*
X136233500Y-101000000D01*
X136233499Y-100671249D01*
X136233499Y-100668366D01*
X136229306Y-100622721D01*
X136227364Y-100601590D01*
X136226753Y-100594938D01*
X136214345Y-100555343D01*
X136213061Y-100484358D01*
X136250358Y-100423948D01*
X136260517Y-100415729D01*
X136305906Y-100382751D01*
X136305907Y-100382750D01*
X136311253Y-100378866D01*
X136315675Y-100373955D01*
X136434621Y-100241852D01*
X136434622Y-100241851D01*
X136439040Y-100236944D01*
X136534527Y-100071556D01*
X136593542Y-99889928D01*
X136599526Y-99832999D01*
X136612814Y-99706565D01*
X136613504Y-99700000D01*
X136601207Y-99583000D01*
X136594232Y-99516635D01*
X136594232Y-99516633D01*
X136593542Y-99510072D01*
X136534527Y-99328444D01*
X136439040Y-99163056D01*
X136430701Y-99153794D01*
X136315675Y-99026045D01*
X136315674Y-99026044D01*
X136311253Y-99021134D01*
X136195361Y-98936933D01*
X136162094Y-98912763D01*
X136162093Y-98912762D01*
X136156752Y-98908882D01*
X136150724Y-98906198D01*
X136150722Y-98906197D01*
X135988319Y-98833891D01*
X135988318Y-98833891D01*
X135982288Y-98831206D01*
X135888887Y-98811353D01*
X135801944Y-98792872D01*
X135801939Y-98792872D01*
X135795487Y-98791500D01*
X135604513Y-98791500D01*
X135598061Y-98792872D01*
X135598056Y-98792872D01*
X135511113Y-98811353D01*
X135417712Y-98831206D01*
X135411682Y-98833891D01*
X135411681Y-98833891D01*
X135249278Y-98906197D01*
X135249276Y-98906198D01*
X135243248Y-98908882D01*
X135237907Y-98912762D01*
X135237906Y-98912763D01*
X135204639Y-98936933D01*
X135088747Y-99021134D01*
X135084326Y-99026044D01*
X135084325Y-99026045D01*
X134969300Y-99153794D01*
X134960960Y-99163056D01*
X134865473Y-99328444D01*
X134806458Y-99510072D01*
X134805768Y-99516633D01*
X134805768Y-99516635D01*
X134798793Y-99583000D01*
X134786496Y-99700000D01*
X134786497Y-99700007D01*
X134773103Y-99748970D01*
X134775386Y-99749958D01*
X134757826Y-99790537D01*
X134752609Y-99801187D01*
X134731305Y-99839940D01*
X134729334Y-99847615D01*
X134729334Y-99847616D01*
X134726267Y-99859562D01*
X134719863Y-99878266D01*
X134717657Y-99883365D01*
X134711819Y-99896855D01*
X134710580Y-99904678D01*
X134710577Y-99904688D01*
X134704901Y-99940524D01*
X134702495Y-99952144D01*
X134691500Y-99994970D01*
X134691500Y-100015224D01*
X134689949Y-100034934D01*
X134686780Y-100054943D01*
X134687526Y-100062835D01*
X134690377Y-100092997D01*
X134676874Y-100162697D01*
X134654031Y-100193949D01*
X134589095Y-100258885D01*
X134526783Y-100292911D01*
X134455968Y-100287846D01*
X134410905Y-100258885D01*
X134315381Y-100163361D01*
X134168699Y-100074528D01*
X134161452Y-100072257D01*
X134161450Y-100072256D01*
X134042358Y-100034935D01*
X134005062Y-100023247D01*
X133931635Y-100016500D01*
X133928737Y-100016500D01*
X133674335Y-100016501D01*
X133418366Y-100016501D01*
X133415508Y-100016764D01*
X133415499Y-100016764D01*
X133379996Y-100020026D01*
X133344938Y-100023247D01*
X133338560Y-100025246D01*
X133338559Y-100025246D01*
X133188550Y-100072256D01*
X133188548Y-100072257D01*
X133181301Y-100074528D01*
X133034619Y-100163361D01*
X132913361Y-100284619D01*
X132909424Y-100291120D01*
X132900551Y-100305771D01*
X132848154Y-100353678D01*
X132792775Y-100366500D01*
X132708200Y-100366500D01*
X132640079Y-100346498D01*
X132620853Y-100330157D01*
X132620580Y-100330460D01*
X132615668Y-100326037D01*
X132611253Y-100321134D01*
X132456752Y-100208882D01*
X132450724Y-100206198D01*
X132450722Y-100206197D01*
X132288319Y-100133891D01*
X132288318Y-100133891D01*
X132282288Y-100131206D01*
X132188887Y-100111353D01*
X132101944Y-100092872D01*
X132101939Y-100092872D01*
X132095487Y-100091500D01*
X131904513Y-100091500D01*
X131898061Y-100092872D01*
X131898056Y-100092872D01*
X131811113Y-100111353D01*
X131717712Y-100131206D01*
X131711682Y-100133891D01*
X131711681Y-100133891D01*
X131549278Y-100206197D01*
X131549276Y-100206198D01*
X131543248Y-100208882D01*
X131388747Y-100321134D01*
X131384326Y-100326044D01*
X131384325Y-100326045D01*
X131301637Y-100417880D01*
X131260960Y-100463056D01*
X131165473Y-100628444D01*
X131106458Y-100810072D01*
X131086496Y-101000000D01*
X117233500Y-101000000D01*
X117233499Y-100671249D01*
X117233499Y-100668366D01*
X117226753Y-100594938D01*
X117192099Y-100484358D01*
X117177744Y-100438550D01*
X117177743Y-100438548D01*
X117175472Y-100431301D01*
X117171182Y-100424217D01*
X117171053Y-100423732D01*
X117168411Y-100417880D01*
X117169386Y-100417440D01*
X117153002Y-100355589D01*
X117174811Y-100288025D01*
X117229686Y-100242978D01*
X117252757Y-100235699D01*
X117332288Y-100218794D01*
X117354551Y-100208882D01*
X117500722Y-100143803D01*
X117500724Y-100143802D01*
X117506752Y-100141118D01*
X117661253Y-100028866D01*
X117666863Y-100022636D01*
X117784621Y-99891852D01*
X117784622Y-99891851D01*
X117789040Y-99886944D01*
X117863929Y-99757232D01*
X117881223Y-99727279D01*
X117881224Y-99727278D01*
X117884527Y-99721556D01*
X117943542Y-99539928D01*
X117963504Y-99350000D01*
X117952713Y-99247327D01*
X117944232Y-99166635D01*
X117944232Y-99166633D01*
X117943542Y-99160072D01*
X117884527Y-98978444D01*
X117789040Y-98813056D01*
X117661253Y-98671134D01*
X117506752Y-98558882D01*
X117500724Y-98556198D01*
X117500722Y-98556197D01*
X117338319Y-98483891D01*
X117338318Y-98483891D01*
X117332288Y-98481206D01*
X117238888Y-98461353D01*
X117151944Y-98442872D01*
X117151939Y-98442872D01*
X117145487Y-98441500D01*
X116954513Y-98441500D01*
X116948061Y-98442872D01*
X116948056Y-98442872D01*
X116861112Y-98461353D01*
X116767712Y-98481206D01*
X116761682Y-98483891D01*
X116761681Y-98483891D01*
X116599278Y-98556197D01*
X116599276Y-98556198D01*
X116593248Y-98558882D01*
X116438747Y-98671134D01*
X116310960Y-98813056D01*
X116215473Y-98978444D01*
X116156458Y-99160072D01*
X116155768Y-99166633D01*
X116155768Y-99166635D01*
X116148606Y-99234775D01*
X116143120Y-99286981D01*
X116139093Y-99325292D01*
X116112080Y-99390949D01*
X116102878Y-99401218D01*
X115932742Y-99571353D01*
X115924463Y-99578887D01*
X115917982Y-99583000D01*
X115871357Y-99632651D01*
X115868602Y-99635493D01*
X115848865Y-99655230D01*
X115846385Y-99658427D01*
X115838682Y-99667447D01*
X115808414Y-99699679D01*
X115804595Y-99706625D01*
X115804593Y-99706628D01*
X115798652Y-99717434D01*
X115787801Y-99733953D01*
X115775386Y-99749959D01*
X115772241Y-99757228D01*
X115772238Y-99757232D01*
X115757826Y-99790537D01*
X115752609Y-99801187D01*
X115731305Y-99839940D01*
X115729334Y-99847615D01*
X115729334Y-99847616D01*
X115726267Y-99859562D01*
X115719863Y-99878266D01*
X115717657Y-99883365D01*
X115711819Y-99896855D01*
X115710580Y-99904678D01*
X115710577Y-99904688D01*
X115704901Y-99940524D01*
X115702495Y-99952144D01*
X115691500Y-99994970D01*
X115691500Y-100015224D01*
X115689949Y-100034934D01*
X115686780Y-100054943D01*
X115687526Y-100062835D01*
X115690377Y-100092997D01*
X115676874Y-100162697D01*
X115654031Y-100193949D01*
X115589095Y-100258885D01*
X115526783Y-100292911D01*
X115455968Y-100287846D01*
X115410905Y-100258885D01*
X115315381Y-100163361D01*
X115168699Y-100074528D01*
X115161452Y-100072257D01*
X115161450Y-100072256D01*
X115042358Y-100034935D01*
X115005062Y-100023247D01*
X114931635Y-100016500D01*
X114928737Y-100016500D01*
X114674335Y-100016501D01*
X114418366Y-100016501D01*
X114415508Y-100016764D01*
X114415499Y-100016764D01*
X114379996Y-100020026D01*
X114344938Y-100023247D01*
X114338560Y-100025246D01*
X114338559Y-100025246D01*
X114188550Y-100072256D01*
X114188548Y-100072257D01*
X114181301Y-100074528D01*
X114034619Y-100163361D01*
X113913361Y-100284619D01*
X113909424Y-100291120D01*
X113900551Y-100305771D01*
X113848154Y-100353678D01*
X113792775Y-100366500D01*
X113708200Y-100366500D01*
X113640079Y-100346498D01*
X113620853Y-100330157D01*
X113620580Y-100330460D01*
X113615668Y-100326037D01*
X113611253Y-100321134D01*
X113456752Y-100208882D01*
X113450724Y-100206198D01*
X113450722Y-100206197D01*
X113288319Y-100133891D01*
X113288318Y-100133891D01*
X113282288Y-100131206D01*
X113188887Y-100111353D01*
X113101944Y-100092872D01*
X113101939Y-100092872D01*
X113095487Y-100091500D01*
X112904513Y-100091500D01*
X112898061Y-100092872D01*
X112898056Y-100092872D01*
X112811113Y-100111353D01*
X112717712Y-100131206D01*
X112711682Y-100133891D01*
X112711681Y-100133891D01*
X112549278Y-100206197D01*
X112549276Y-100206198D01*
X112543248Y-100208882D01*
X112388747Y-100321134D01*
X112384326Y-100326044D01*
X112384325Y-100326045D01*
X112301637Y-100417880D01*
X112260960Y-100463056D01*
X112165473Y-100628444D01*
X112106458Y-100810072D01*
X112086496Y-101000000D01*
X101008500Y-101000000D01*
X101008500Y-99296735D01*
X101010001Y-99277344D01*
X101012309Y-99262526D01*
X101013691Y-99253653D01*
X101012527Y-99244749D01*
X101012604Y-99238492D01*
X101012477Y-99214265D01*
X101020668Y-99146062D01*
X101027777Y-99116883D01*
X101058273Y-99035489D01*
X101072087Y-99008823D01*
X101120981Y-98936960D01*
X101140717Y-98914317D01*
X101142439Y-98912763D01*
X101186029Y-98873406D01*
X101206253Y-98858662D01*
X101209118Y-98857284D01*
X101214056Y-98853886D01*
X101214299Y-98853765D01*
X101214499Y-98853581D01*
X101219459Y-98850167D01*
X101222994Y-98846826D01*
X101226778Y-98843767D01*
X101226803Y-98843798D01*
X101229856Y-98841186D01*
X101236285Y-98836213D01*
X101542856Y-98599064D01*
X101843721Y-98321410D01*
X102006544Y-98142589D01*
X102117511Y-98020719D01*
X102117519Y-98020709D01*
X102119355Y-98018693D01*
X102367677Y-97693197D01*
X102586814Y-97347379D01*
X102775113Y-96983847D01*
X102803178Y-96915771D01*
X102881030Y-96726924D01*
X102931151Y-96605345D01*
X103053753Y-96214730D01*
X103141993Y-95814949D01*
X103156127Y-95707129D01*
X103194849Y-95411727D01*
X103194849Y-95411722D01*
X103195204Y-95409017D01*
X103195527Y-95401605D01*
X103198247Y-95339027D01*
X103221189Y-95271839D01*
X103276814Y-95227721D01*
X103324128Y-95218500D01*
X104059840Y-95218500D01*
X104127961Y-95238502D01*
X104174454Y-95292158D01*
X104184558Y-95362432D01*
X104172157Y-95401605D01*
X104133513Y-95477612D01*
X104063889Y-95701840D01*
X104063188Y-95707129D01*
X104046092Y-95836116D01*
X104033039Y-95934593D01*
X104041848Y-96169216D01*
X104042943Y-96174434D01*
X104067794Y-96292871D01*
X104090062Y-96399001D01*
X104176302Y-96617377D01*
X104298104Y-96818100D01*
X104451985Y-96995432D01*
X104456117Y-96998820D01*
X104629416Y-97140917D01*
X104629422Y-97140921D01*
X104633544Y-97144301D01*
X104638180Y-97146940D01*
X104638183Y-97146942D01*
X104749408Y-97210255D01*
X104837590Y-97260451D01*
X105058289Y-97340561D01*
X105063538Y-97341510D01*
X105063541Y-97341511D01*
X105110382Y-97349981D01*
X105289330Y-97382340D01*
X105293469Y-97382535D01*
X105293476Y-97382536D01*
X105312440Y-97383430D01*
X105312449Y-97383430D01*
X105313929Y-97383500D01*
X105478950Y-97383500D01*
X105560299Y-97376597D01*
X105648637Y-97369102D01*
X105648641Y-97369101D01*
X105653948Y-97368651D01*
X105659103Y-97367313D01*
X105659109Y-97367312D01*
X105876035Y-97311009D01*
X105876034Y-97311009D01*
X105881206Y-97309667D01*
X105886072Y-97307475D01*
X105886075Y-97307474D01*
X106090417Y-97215424D01*
X106090420Y-97215423D01*
X106095278Y-97213234D01*
X106290041Y-97082112D01*
X106306402Y-97066505D01*
X106395716Y-96981303D01*
X106459927Y-96920049D01*
X106600078Y-96731679D01*
X106660719Y-96612408D01*
X106704069Y-96527144D01*
X106704069Y-96527143D01*
X106706487Y-96522388D01*
X106776111Y-96298160D01*
X106793202Y-96169216D01*
X106806261Y-96070690D01*
X106806261Y-96070687D01*
X106806961Y-96065407D01*
X106798152Y-95830784D01*
X106757555Y-95637301D01*
X106763142Y-95566525D01*
X106806107Y-95510004D01*
X106872081Y-95485734D01*
X106969315Y-95478935D01*
X106969320Y-95478934D01*
X106973700Y-95478628D01*
X107251877Y-95419499D01*
X107256006Y-95417996D01*
X107256010Y-95417995D01*
X107514974Y-95323740D01*
X107514978Y-95323738D01*
X107519119Y-95322231D01*
X107523009Y-95320163D01*
X107523015Y-95320160D01*
X107766330Y-95190787D01*
X107766336Y-95190783D01*
X107770222Y-95188717D01*
X107773788Y-95186126D01*
X107773793Y-95186123D01*
X107915741Y-95082993D01*
X107982608Y-95059134D01*
X108051760Y-95075215D01*
X108101240Y-95126129D01*
X108115339Y-95195712D01*
X108109949Y-95222307D01*
X108109557Y-95223298D01*
X108031060Y-95529025D01*
X107991500Y-95842179D01*
X107991500Y-96157821D01*
X108031060Y-96470975D01*
X108109557Y-96776702D01*
X108111010Y-96780371D01*
X108111010Y-96780372D01*
X108196159Y-96995432D01*
X108225753Y-97070179D01*
X108227659Y-97073647D01*
X108227660Y-97073648D01*
X108374398Y-97340561D01*
X108377816Y-97346779D01*
X108563346Y-97602140D01*
X108779418Y-97832233D01*
X109022625Y-98033432D01*
X109289131Y-98202562D01*
X109292710Y-98204246D01*
X109292717Y-98204250D01*
X109571144Y-98335267D01*
X109571148Y-98335269D01*
X109574734Y-98336956D01*
X109874928Y-98434495D01*
X110184980Y-98493641D01*
X110421162Y-98508500D01*
X110578838Y-98508500D01*
X110815020Y-98493641D01*
X111125072Y-98434495D01*
X111425266Y-98336956D01*
X111428852Y-98335269D01*
X111428856Y-98335267D01*
X111707283Y-98204250D01*
X111707290Y-98204246D01*
X111710869Y-98202562D01*
X111977375Y-98033432D01*
X112220582Y-97832233D01*
X112436654Y-97602140D01*
X112622184Y-97346779D01*
X112625603Y-97340561D01*
X112772340Y-97073648D01*
X112772341Y-97073647D01*
X112774247Y-97070179D01*
X112803842Y-96995432D01*
X112888990Y-96780372D01*
X112888990Y-96780371D01*
X112890443Y-96776702D01*
X112968940Y-96470975D01*
X113008500Y-96157821D01*
X113008500Y-95934593D01*
X114193039Y-95934593D01*
X114201848Y-96169216D01*
X114202943Y-96174434D01*
X114227794Y-96292871D01*
X114250062Y-96399001D01*
X114336302Y-96617377D01*
X114458104Y-96818100D01*
X114611985Y-96995432D01*
X114616117Y-96998820D01*
X114789416Y-97140917D01*
X114789422Y-97140921D01*
X114793544Y-97144301D01*
X114798180Y-97146940D01*
X114798183Y-97146942D01*
X114909408Y-97210255D01*
X114997590Y-97260451D01*
X115218289Y-97340561D01*
X115223538Y-97341510D01*
X115223541Y-97341511D01*
X115270382Y-97349981D01*
X115449330Y-97382340D01*
X115453469Y-97382535D01*
X115453476Y-97382536D01*
X115472440Y-97383430D01*
X115472449Y-97383430D01*
X115473929Y-97383500D01*
X115638950Y-97383500D01*
X115720299Y-97376597D01*
X115808637Y-97369102D01*
X115808641Y-97369101D01*
X115813948Y-97368651D01*
X115819103Y-97367313D01*
X115819109Y-97367312D01*
X116036035Y-97311009D01*
X116036034Y-97311009D01*
X116041206Y-97309667D01*
X116046072Y-97307475D01*
X116046075Y-97307474D01*
X116250417Y-97215424D01*
X116250420Y-97215423D01*
X116255278Y-97213234D01*
X116450041Y-97082112D01*
X116466402Y-97066505D01*
X116555716Y-96981303D01*
X116619927Y-96920049D01*
X116760078Y-96731679D01*
X116820719Y-96612408D01*
X116864069Y-96527144D01*
X116864069Y-96527143D01*
X116866487Y-96522388D01*
X116936111Y-96298160D01*
X116953202Y-96169216D01*
X116966261Y-96070690D01*
X116966261Y-96070687D01*
X116966961Y-96065407D01*
X116958152Y-95830784D01*
X116940358Y-95745978D01*
X116911035Y-95606226D01*
X116911034Y-95606223D01*
X116909938Y-95600999D01*
X116823698Y-95382623D01*
X116757223Y-95273076D01*
X116704664Y-95186461D01*
X116704662Y-95186458D01*
X116701896Y-95181900D01*
X116548015Y-95004568D01*
X116537938Y-94996306D01*
X116370584Y-94859083D01*
X116370578Y-94859079D01*
X116366456Y-94855699D01*
X116361820Y-94853060D01*
X116361817Y-94853058D01*
X116167053Y-94742192D01*
X116162410Y-94739549D01*
X115941711Y-94659439D01*
X115936462Y-94658490D01*
X115936459Y-94658489D01*
X115855385Y-94643829D01*
X115710670Y-94617660D01*
X115706531Y-94617465D01*
X115706524Y-94617464D01*
X115687560Y-94616570D01*
X115687551Y-94616570D01*
X115686071Y-94616500D01*
X115521050Y-94616500D01*
X115447935Y-94622704D01*
X115351363Y-94630898D01*
X115351359Y-94630899D01*
X115346052Y-94631349D01*
X115340897Y-94632687D01*
X115340891Y-94632688D01*
X115163177Y-94678814D01*
X115118794Y-94690333D01*
X115113928Y-94692525D01*
X115113925Y-94692526D01*
X114909583Y-94784576D01*
X114909580Y-94784577D01*
X114904722Y-94786766D01*
X114709959Y-94917888D01*
X114706102Y-94921567D01*
X114706100Y-94921569D01*
X114692704Y-94934348D01*
X114540073Y-95079951D01*
X114399922Y-95268321D01*
X114397506Y-95273072D01*
X114397504Y-95273076D01*
X114323824Y-95417995D01*
X114293513Y-95477612D01*
X114223889Y-95701840D01*
X114223188Y-95707129D01*
X114206092Y-95836116D01*
X114193039Y-95934593D01*
X113008500Y-95934593D01*
X113008500Y-95842179D01*
X112968940Y-95529025D01*
X112890443Y-95223298D01*
X112888543Y-95218500D01*
X112775702Y-94933495D01*
X112775700Y-94933490D01*
X112774247Y-94929821D01*
X112772340Y-94926352D01*
X112624093Y-94656693D01*
X112624091Y-94656690D01*
X112622184Y-94653221D01*
X112518419Y-94510400D01*
X120631500Y-94510400D01*
X120631837Y-94513646D01*
X120631837Y-94513650D01*
X120640786Y-94599896D01*
X120642474Y-94616166D01*
X120644655Y-94622702D01*
X120644655Y-94622704D01*
X120666770Y-94688991D01*
X120698450Y-94783946D01*
X120791522Y-94934348D01*
X120916697Y-95059305D01*
X120922927Y-95063145D01*
X120922928Y-95063146D01*
X120942508Y-95075215D01*
X121067262Y-95152115D01*
X121144899Y-95177866D01*
X121228611Y-95205632D01*
X121228613Y-95205632D01*
X121235139Y-95207797D01*
X121241975Y-95208497D01*
X121241978Y-95208498D01*
X121285031Y-95212909D01*
X121339600Y-95218500D01*
X123059840Y-95218500D01*
X123127961Y-95238502D01*
X123174454Y-95292158D01*
X123184558Y-95362432D01*
X123172157Y-95401605D01*
X123133513Y-95477612D01*
X123063889Y-95701840D01*
X123063188Y-95707129D01*
X123046092Y-95836116D01*
X123033039Y-95934593D01*
X123041848Y-96169216D01*
X123042943Y-96174434D01*
X123067794Y-96292871D01*
X123090062Y-96399001D01*
X123176302Y-96617377D01*
X123298104Y-96818100D01*
X123451985Y-96995432D01*
X123456117Y-96998820D01*
X123629416Y-97140917D01*
X123629422Y-97140921D01*
X123633544Y-97144301D01*
X123638180Y-97146940D01*
X123638183Y-97146942D01*
X123749408Y-97210255D01*
X123837590Y-97260451D01*
X124058289Y-97340561D01*
X124063538Y-97341510D01*
X124063541Y-97341511D01*
X124110382Y-97349981D01*
X124289330Y-97382340D01*
X124293469Y-97382535D01*
X124293476Y-97382536D01*
X124312440Y-97383430D01*
X124312449Y-97383430D01*
X124313929Y-97383500D01*
X124478950Y-97383500D01*
X124560299Y-97376597D01*
X124648637Y-97369102D01*
X124648641Y-97369101D01*
X124653948Y-97368651D01*
X124659103Y-97367313D01*
X124659109Y-97367312D01*
X124876035Y-97311009D01*
X124876034Y-97311009D01*
X124881206Y-97309667D01*
X124886072Y-97307475D01*
X124886075Y-97307474D01*
X125090417Y-97215424D01*
X125090420Y-97215423D01*
X125095278Y-97213234D01*
X125290041Y-97082112D01*
X125306402Y-97066505D01*
X125395716Y-96981303D01*
X125459927Y-96920049D01*
X125600078Y-96731679D01*
X125660719Y-96612408D01*
X125704069Y-96527144D01*
X125704069Y-96527143D01*
X125706487Y-96522388D01*
X125776111Y-96298160D01*
X125793202Y-96169216D01*
X125806261Y-96070690D01*
X125806261Y-96070687D01*
X125806961Y-96065407D01*
X125798152Y-95830784D01*
X125757555Y-95637301D01*
X125763142Y-95566525D01*
X125806107Y-95510004D01*
X125872081Y-95485734D01*
X125969315Y-95478935D01*
X125969320Y-95478934D01*
X125973700Y-95478628D01*
X126251877Y-95419499D01*
X126256006Y-95417996D01*
X126256010Y-95417995D01*
X126514974Y-95323740D01*
X126514978Y-95323738D01*
X126519119Y-95322231D01*
X126523009Y-95320163D01*
X126523015Y-95320160D01*
X126766330Y-95190787D01*
X126766336Y-95190783D01*
X126770222Y-95188717D01*
X126773788Y-95186126D01*
X126773793Y-95186123D01*
X126915741Y-95082993D01*
X126982608Y-95059134D01*
X127051760Y-95075215D01*
X127101240Y-95126129D01*
X127115339Y-95195712D01*
X127109949Y-95222307D01*
X127109557Y-95223298D01*
X127031060Y-95529025D01*
X126991500Y-95842179D01*
X126991500Y-96157821D01*
X127031060Y-96470975D01*
X127109557Y-96776702D01*
X127111010Y-96780371D01*
X127111010Y-96780372D01*
X127196159Y-96995432D01*
X127225753Y-97070179D01*
X127227659Y-97073647D01*
X127227660Y-97073648D01*
X127374398Y-97340561D01*
X127377816Y-97346779D01*
X127563346Y-97602140D01*
X127779418Y-97832233D01*
X128022625Y-98033432D01*
X128289131Y-98202562D01*
X128292710Y-98204246D01*
X128292717Y-98204250D01*
X128571144Y-98335267D01*
X128571148Y-98335269D01*
X128574734Y-98336956D01*
X128874928Y-98434495D01*
X129184980Y-98493641D01*
X129421162Y-98508500D01*
X129578838Y-98508500D01*
X129815020Y-98493641D01*
X130125072Y-98434495D01*
X130425266Y-98336956D01*
X130428852Y-98335269D01*
X130428856Y-98335267D01*
X130707283Y-98204250D01*
X130707290Y-98204246D01*
X130710869Y-98202562D01*
X130977375Y-98033432D01*
X131220582Y-97832233D01*
X131436654Y-97602140D01*
X131622184Y-97346779D01*
X131625603Y-97340561D01*
X131772340Y-97073648D01*
X131772341Y-97073647D01*
X131774247Y-97070179D01*
X131803842Y-96995432D01*
X131888990Y-96780372D01*
X131888990Y-96780371D01*
X131890443Y-96776702D01*
X131968940Y-96470975D01*
X132008500Y-96157821D01*
X132008500Y-95934593D01*
X133193039Y-95934593D01*
X133201848Y-96169216D01*
X133202943Y-96174434D01*
X133227794Y-96292871D01*
X133250062Y-96399001D01*
X133336302Y-96617377D01*
X133458104Y-96818100D01*
X133611985Y-96995432D01*
X133616117Y-96998820D01*
X133789416Y-97140917D01*
X133789422Y-97140921D01*
X133793544Y-97144301D01*
X133798180Y-97146940D01*
X133798183Y-97146942D01*
X133909408Y-97210255D01*
X133997590Y-97260451D01*
X134218289Y-97340561D01*
X134223538Y-97341510D01*
X134223541Y-97341511D01*
X134270382Y-97349981D01*
X134449330Y-97382340D01*
X134453469Y-97382535D01*
X134453476Y-97382536D01*
X134472440Y-97383430D01*
X134472449Y-97383430D01*
X134473929Y-97383500D01*
X134638950Y-97383500D01*
X134720299Y-97376597D01*
X134808637Y-97369102D01*
X134808641Y-97369101D01*
X134813948Y-97368651D01*
X134819103Y-97367313D01*
X134819109Y-97367312D01*
X135036035Y-97311009D01*
X135036034Y-97311009D01*
X135041206Y-97309667D01*
X135046072Y-97307475D01*
X135046075Y-97307474D01*
X135250417Y-97215424D01*
X135250420Y-97215423D01*
X135255278Y-97213234D01*
X135450041Y-97082112D01*
X135466402Y-97066505D01*
X135555716Y-96981303D01*
X135619927Y-96920049D01*
X135760078Y-96731679D01*
X135820719Y-96612408D01*
X135864069Y-96527144D01*
X135864069Y-96527143D01*
X135866487Y-96522388D01*
X135936111Y-96298160D01*
X135953202Y-96169216D01*
X135966261Y-96070690D01*
X135966261Y-96070687D01*
X135966961Y-96065407D01*
X135958152Y-95830784D01*
X135940358Y-95745978D01*
X135911035Y-95606226D01*
X135911034Y-95606223D01*
X135909938Y-95600999D01*
X135823698Y-95382623D01*
X135757223Y-95273076D01*
X135704664Y-95186461D01*
X135704662Y-95186458D01*
X135701896Y-95181900D01*
X135548015Y-95004568D01*
X135537938Y-94996306D01*
X135370584Y-94859083D01*
X135370578Y-94859079D01*
X135366456Y-94855699D01*
X135361820Y-94853060D01*
X135361817Y-94853058D01*
X135167053Y-94742192D01*
X135162410Y-94739549D01*
X134941711Y-94659439D01*
X134936462Y-94658490D01*
X134936459Y-94658489D01*
X134855385Y-94643829D01*
X134710670Y-94617660D01*
X134706531Y-94617465D01*
X134706524Y-94617464D01*
X134687560Y-94616570D01*
X134687551Y-94616570D01*
X134686071Y-94616500D01*
X134521050Y-94616500D01*
X134447935Y-94622704D01*
X134351363Y-94630898D01*
X134351359Y-94630899D01*
X134346052Y-94631349D01*
X134340897Y-94632687D01*
X134340891Y-94632688D01*
X134163177Y-94678814D01*
X134118794Y-94690333D01*
X134113928Y-94692525D01*
X134113925Y-94692526D01*
X133909583Y-94784576D01*
X133909580Y-94784577D01*
X133904722Y-94786766D01*
X133709959Y-94917888D01*
X133706102Y-94921567D01*
X133706100Y-94921569D01*
X133692704Y-94934348D01*
X133540073Y-95079951D01*
X133399922Y-95268321D01*
X133397506Y-95273072D01*
X133397504Y-95273076D01*
X133323824Y-95417995D01*
X133293513Y-95477612D01*
X133223889Y-95701840D01*
X133223188Y-95707129D01*
X133206092Y-95836116D01*
X133193039Y-95934593D01*
X132008500Y-95934593D01*
X132008500Y-95842179D01*
X131968940Y-95529025D01*
X131890443Y-95223298D01*
X131888543Y-95218500D01*
X131775702Y-94933495D01*
X131775700Y-94933490D01*
X131774247Y-94929821D01*
X131772340Y-94926352D01*
X131624093Y-94656693D01*
X131624091Y-94656690D01*
X131622184Y-94653221D01*
X131477174Y-94453631D01*
X131438982Y-94401064D01*
X131438981Y-94401062D01*
X131436654Y-94397860D01*
X131220582Y-94167767D01*
X130977375Y-93966568D01*
X130710869Y-93797438D01*
X130707290Y-93795754D01*
X130707283Y-93795750D01*
X130428856Y-93664733D01*
X130428852Y-93664731D01*
X130425266Y-93663044D01*
X130125072Y-93565505D01*
X129815020Y-93506359D01*
X129578838Y-93491500D01*
X129421162Y-93491500D01*
X129184980Y-93506359D01*
X128874928Y-93565505D01*
X128574734Y-93663044D01*
X128571148Y-93664731D01*
X128571144Y-93664733D01*
X128292717Y-93795750D01*
X128292710Y-93795754D01*
X128289131Y-93797438D01*
X128022625Y-93966568D01*
X128019573Y-93969093D01*
X127860362Y-94100804D01*
X127795124Y-94128814D01*
X127725099Y-94117107D01*
X127672520Y-94069400D01*
X127654079Y-94000841D01*
X127657789Y-93973237D01*
X127696432Y-93818247D01*
X127697497Y-93813976D01*
X127699236Y-93797438D01*
X127726765Y-93535510D01*
X127726765Y-93535507D01*
X127727224Y-93531141D01*
X127726350Y-93506110D01*
X127717453Y-93251319D01*
X127717452Y-93251313D01*
X127717299Y-93246922D01*
X127667915Y-92966850D01*
X127666560Y-92962679D01*
X127666558Y-92962672D01*
X127581394Y-92700566D01*
X127580033Y-92696377D01*
X127571070Y-92677999D01*
X127470257Y-92471305D01*
X127455363Y-92440767D01*
X127452908Y-92437128D01*
X127452905Y-92437122D01*
X127298792Y-92208641D01*
X127296333Y-92204995D01*
X127106037Y-91993650D01*
X126888180Y-91810846D01*
X126647002Y-91660141D01*
X126387196Y-91544469D01*
X126113821Y-91466079D01*
X126109467Y-91465467D01*
X126109462Y-91465466D01*
X125935833Y-91441065D01*
X125832196Y-91426500D01*
X125618982Y-91426500D01*
X125616796Y-91426653D01*
X125616792Y-91426653D01*
X125410685Y-91441065D01*
X125410680Y-91441066D01*
X125406300Y-91441372D01*
X125128123Y-91500501D01*
X125123994Y-91502004D01*
X125123990Y-91502005D01*
X124865026Y-91596260D01*
X124865022Y-91596262D01*
X124860881Y-91597769D01*
X124856991Y-91599837D01*
X124856985Y-91599840D01*
X124613670Y-91729213D01*
X124613664Y-91729217D01*
X124609778Y-91731283D01*
X124606218Y-91733870D01*
X124606214Y-91733872D01*
X124383262Y-91895855D01*
X124379699Y-91898444D01*
X124376535Y-91901500D01*
X124376532Y-91901502D01*
X124244762Y-92028752D01*
X124181866Y-92061684D01*
X124111149Y-92055384D01*
X124055065Y-92011852D01*
X124050091Y-92004419D01*
X124042981Y-91992928D01*
X124038478Y-91985652D01*
X123913303Y-91860695D01*
X123907072Y-91856854D01*
X123768968Y-91771725D01*
X123768966Y-91771724D01*
X123762738Y-91767885D01*
X123682995Y-91741436D01*
X123601389Y-91714368D01*
X123601387Y-91714368D01*
X123594861Y-91712203D01*
X123588025Y-91711503D01*
X123588022Y-91711502D01*
X123540176Y-91706600D01*
X123490400Y-91701500D01*
X123174500Y-91701500D01*
X123106379Y-91681498D01*
X123059886Y-91627842D01*
X123048500Y-91575500D01*
X123048500Y-90848859D01*
X130002776Y-90848859D01*
X130002929Y-90853247D01*
X130002929Y-90853253D01*
X130011047Y-91085710D01*
X130012701Y-91133078D01*
X130013463Y-91137401D01*
X130013464Y-91137408D01*
X130037545Y-91273976D01*
X130062085Y-91413150D01*
X130063440Y-91417321D01*
X130063442Y-91417328D01*
X130114836Y-91575500D01*
X130149967Y-91683623D01*
X130151895Y-91687576D01*
X130151897Y-91687581D01*
X130191340Y-91768450D01*
X130274637Y-91939233D01*
X130277092Y-91942872D01*
X130277095Y-91942878D01*
X130380378Y-92096000D01*
X130433667Y-92175005D01*
X130623963Y-92386350D01*
X130841820Y-92569154D01*
X131082998Y-92719859D01*
X131342804Y-92835531D01*
X131616179Y-92913921D01*
X131620533Y-92914533D01*
X131620538Y-92914534D01*
X131790770Y-92938458D01*
X131897804Y-92953500D01*
X132111018Y-92953500D01*
X132113204Y-92953347D01*
X132113208Y-92953347D01*
X132319315Y-92938935D01*
X132319320Y-92938934D01*
X132323700Y-92938628D01*
X132601877Y-92879499D01*
X132606006Y-92877996D01*
X132606010Y-92877995D01*
X132864974Y-92783740D01*
X132864978Y-92783738D01*
X132869119Y-92782231D01*
X132873009Y-92780163D01*
X132873015Y-92780160D01*
X133116330Y-92650787D01*
X133116336Y-92650783D01*
X133120222Y-92648717D01*
X133123782Y-92646130D01*
X133123786Y-92646128D01*
X133346738Y-92484145D01*
X133346741Y-92484142D01*
X133350301Y-92481556D01*
X133392539Y-92440767D01*
X133502507Y-92334572D01*
X133565403Y-92301639D01*
X133636120Y-92307939D01*
X133692204Y-92351470D01*
X133697179Y-92358905D01*
X133715068Y-92387813D01*
X133724099Y-92399208D01*
X133838829Y-92513739D01*
X133850240Y-92522751D01*
X133988243Y-92607816D01*
X134001424Y-92613963D01*
X134155710Y-92665138D01*
X134169086Y-92668005D01*
X134263438Y-92677672D01*
X134269854Y-92678000D01*
X135069885Y-92678000D01*
X135085124Y-92673525D01*
X135086329Y-92672135D01*
X135088000Y-92664452D01*
X135088000Y-92659884D01*
X135596000Y-92659884D01*
X135600475Y-92675123D01*
X135601865Y-92676328D01*
X135609548Y-92677999D01*
X136414095Y-92677999D01*
X136420614Y-92677662D01*
X136516206Y-92667743D01*
X136529600Y-92664851D01*
X136683784Y-92613412D01*
X136696962Y-92607239D01*
X136834807Y-92521937D01*
X136846208Y-92512901D01*
X136960739Y-92398171D01*
X136969751Y-92386760D01*
X137054816Y-92248757D01*
X137060963Y-92235576D01*
X137112138Y-92081290D01*
X137115005Y-92067914D01*
X137124672Y-91973562D01*
X137125000Y-91967146D01*
X137125000Y-91192115D01*
X137120525Y-91176876D01*
X137119135Y-91175671D01*
X137111452Y-91174000D01*
X135614115Y-91174000D01*
X135598876Y-91178475D01*
X135597671Y-91179865D01*
X135596000Y-91187548D01*
X135596000Y-92659884D01*
X135088000Y-92659884D01*
X135088000Y-90647885D01*
X135596000Y-90647885D01*
X135600475Y-90663124D01*
X135601865Y-90664329D01*
X135609548Y-90666000D01*
X137106884Y-90666000D01*
X137122123Y-90661525D01*
X137123328Y-90660135D01*
X137124999Y-90652452D01*
X137124999Y-89872905D01*
X137124662Y-89866386D01*
X137114743Y-89770794D01*
X137111851Y-89757400D01*
X137060412Y-89603216D01*
X137054239Y-89590038D01*
X136968937Y-89452193D01*
X136959901Y-89440792D01*
X136845171Y-89326261D01*
X136833760Y-89317249D01*
X136695757Y-89232184D01*
X136682576Y-89226037D01*
X136528290Y-89174862D01*
X136514914Y-89171995D01*
X136420562Y-89162328D01*
X136414145Y-89162000D01*
X135614115Y-89162000D01*
X135598876Y-89166475D01*
X135597671Y-89167865D01*
X135596000Y-89175548D01*
X135596000Y-90647885D01*
X135088000Y-90647885D01*
X135088000Y-89180116D01*
X135083525Y-89164877D01*
X135082135Y-89163672D01*
X135074452Y-89162001D01*
X134269905Y-89162001D01*
X134263386Y-89162338D01*
X134167794Y-89172257D01*
X134154400Y-89175149D01*
X134000216Y-89226588D01*
X133987038Y-89232761D01*
X133849193Y-89318063D01*
X133837792Y-89327099D01*
X133723261Y-89441829D01*
X133714247Y-89453243D01*
X133697463Y-89480471D01*
X133644691Y-89527964D01*
X133574619Y-89539386D01*
X133509496Y-89511112D01*
X133496573Y-89498670D01*
X133456037Y-89453650D01*
X133238180Y-89270846D01*
X132997002Y-89120141D01*
X132737196Y-89004469D01*
X132463821Y-88926079D01*
X132459467Y-88925467D01*
X132459462Y-88925466D01*
X132285833Y-88901065D01*
X132182196Y-88886500D01*
X131968982Y-88886500D01*
X131966796Y-88886653D01*
X131966792Y-88886653D01*
X131760685Y-88901065D01*
X131760680Y-88901066D01*
X131756300Y-88901372D01*
X131478123Y-88960501D01*
X131473994Y-88962004D01*
X131473990Y-88962005D01*
X131215026Y-89056260D01*
X131215022Y-89056262D01*
X131210881Y-89057769D01*
X131206991Y-89059837D01*
X131206985Y-89059840D01*
X130963670Y-89189213D01*
X130963664Y-89189217D01*
X130959778Y-89191283D01*
X130956218Y-89193870D01*
X130956214Y-89193872D01*
X130733262Y-89355855D01*
X130729699Y-89358444D01*
X130726535Y-89361500D01*
X130726532Y-89361502D01*
X130528290Y-89552943D01*
X130528286Y-89552947D01*
X130525125Y-89556000D01*
X130522418Y-89559465D01*
X130522416Y-89559467D01*
X130439968Y-89664995D01*
X130350035Y-89780104D01*
X130330122Y-89814594D01*
X130281048Y-89899594D01*
X130207839Y-90026395D01*
X130206189Y-90030479D01*
X130206186Y-90030485D01*
X130155323Y-90156377D01*
X130101304Y-90290079D01*
X130032503Y-90566024D01*
X130032044Y-90570392D01*
X130032043Y-90570397D01*
X130010525Y-90775129D01*
X130002776Y-90848859D01*
X123048500Y-90848859D01*
X123048500Y-89899594D01*
X123068502Y-89831473D01*
X123085405Y-89810499D01*
X123950499Y-88945405D01*
X124012811Y-88911379D01*
X124039594Y-88908500D01*
X124095487Y-88908500D01*
X124101939Y-88907128D01*
X124101944Y-88907128D01*
X124198988Y-88886500D01*
X124282288Y-88868794D01*
X124288319Y-88866109D01*
X124450722Y-88793803D01*
X124450724Y-88793802D01*
X124456752Y-88791118D01*
X124611253Y-88678866D01*
X124739040Y-88536944D01*
X124834527Y-88371556D01*
X124893542Y-88189928D01*
X124913504Y-88000000D01*
X124893542Y-87810072D01*
X124834527Y-87628444D01*
X124739040Y-87463056D01*
X124611253Y-87321134D01*
X124456752Y-87208882D01*
X124450724Y-87206198D01*
X124450722Y-87206197D01*
X124288319Y-87133891D01*
X124288318Y-87133891D01*
X124282288Y-87131206D01*
X124188888Y-87111353D01*
X124101944Y-87092872D01*
X124101939Y-87092872D01*
X124095487Y-87091500D01*
X123904513Y-87091500D01*
X123898061Y-87092872D01*
X123898056Y-87092872D01*
X123811112Y-87111353D01*
X123717712Y-87131206D01*
X123711682Y-87133891D01*
X123711681Y-87133891D01*
X123549278Y-87206197D01*
X123549276Y-87206198D01*
X123543248Y-87208882D01*
X123388747Y-87321134D01*
X123260960Y-87463056D01*
X123165473Y-87628444D01*
X123106458Y-87810072D01*
X123105768Y-87816633D01*
X123105768Y-87816635D01*
X123089093Y-87975292D01*
X123062080Y-88040949D01*
X123052878Y-88051217D01*
X122022747Y-89081348D01*
X122014461Y-89088888D01*
X122007982Y-89093000D01*
X122002557Y-89098777D01*
X121961357Y-89142651D01*
X121958602Y-89145493D01*
X121938865Y-89165230D01*
X121936385Y-89168427D01*
X121928682Y-89177447D01*
X121898414Y-89209679D01*
X121894595Y-89216625D01*
X121894593Y-89216628D01*
X121888652Y-89227434D01*
X121877801Y-89243953D01*
X121865386Y-89259959D01*
X121862241Y-89267228D01*
X121862238Y-89267232D01*
X121847826Y-89300537D01*
X121842609Y-89311187D01*
X121821305Y-89349940D01*
X121819334Y-89357615D01*
X121819334Y-89357616D01*
X121816267Y-89369562D01*
X121809863Y-89388266D01*
X121801819Y-89406855D01*
X121800580Y-89414678D01*
X121800577Y-89414688D01*
X121794901Y-89450524D01*
X121792495Y-89462144D01*
X121787790Y-89480471D01*
X121781500Y-89504970D01*
X121781500Y-89525224D01*
X121779949Y-89544934D01*
X121776780Y-89564943D01*
X121777526Y-89572835D01*
X121780941Y-89608961D01*
X121781500Y-89620819D01*
X121781500Y-91575500D01*
X121761498Y-91643621D01*
X121707842Y-91690114D01*
X121655500Y-91701500D01*
X121339600Y-91701500D01*
X121336354Y-91701837D01*
X121336350Y-91701837D01*
X121240692Y-91711762D01*
X121240688Y-91711763D01*
X121233834Y-91712474D01*
X121227298Y-91714655D01*
X121227296Y-91714655D01*
X121131318Y-91746676D01*
X121066054Y-91768450D01*
X120915652Y-91861522D01*
X120790695Y-91986697D01*
X120786855Y-91992927D01*
X120786854Y-91992928D01*
X120748356Y-92055384D01*
X120697885Y-92137262D01*
X120642203Y-92305139D01*
X120631500Y-92409600D01*
X120631500Y-94510400D01*
X112518419Y-94510400D01*
X112477174Y-94453631D01*
X112438982Y-94401064D01*
X112438981Y-94401062D01*
X112436654Y-94397860D01*
X112220582Y-94167767D01*
X111977375Y-93966568D01*
X111710869Y-93797438D01*
X111707290Y-93795754D01*
X111707283Y-93795750D01*
X111428856Y-93664733D01*
X111428852Y-93664731D01*
X111425266Y-93663044D01*
X111125072Y-93565505D01*
X110815020Y-93506359D01*
X110578838Y-93491500D01*
X110421162Y-93491500D01*
X110184980Y-93506359D01*
X109874928Y-93565505D01*
X109574734Y-93663044D01*
X109571148Y-93664731D01*
X109571144Y-93664733D01*
X109292717Y-93795750D01*
X109292710Y-93795754D01*
X109289131Y-93797438D01*
X109022625Y-93966568D01*
X109019573Y-93969093D01*
X108860362Y-94100804D01*
X108795124Y-94128814D01*
X108725099Y-94117107D01*
X108672520Y-94069400D01*
X108654079Y-94000841D01*
X108657789Y-93973237D01*
X108696432Y-93818247D01*
X108697497Y-93813976D01*
X108699236Y-93797438D01*
X108726765Y-93535510D01*
X108726765Y-93535507D01*
X108727224Y-93531141D01*
X108726350Y-93506110D01*
X108717453Y-93251319D01*
X108717452Y-93251313D01*
X108717299Y-93246922D01*
X108667915Y-92966850D01*
X108666560Y-92962679D01*
X108666558Y-92962672D01*
X108581394Y-92700566D01*
X108580033Y-92696377D01*
X108571070Y-92677999D01*
X108470257Y-92471305D01*
X108455363Y-92440767D01*
X108452908Y-92437128D01*
X108452905Y-92437122D01*
X108298792Y-92208641D01*
X108296333Y-92204995D01*
X108106037Y-91993650D01*
X107888180Y-91810846D01*
X107647002Y-91660141D01*
X107387196Y-91544469D01*
X107113821Y-91466079D01*
X107109467Y-91465467D01*
X107109462Y-91465466D01*
X106935833Y-91441065D01*
X106832196Y-91426500D01*
X106618982Y-91426500D01*
X106616796Y-91426653D01*
X106616792Y-91426653D01*
X106410685Y-91441065D01*
X106410680Y-91441066D01*
X106406300Y-91441372D01*
X106128123Y-91500501D01*
X106123994Y-91502004D01*
X106123990Y-91502005D01*
X105865026Y-91596260D01*
X105865022Y-91596262D01*
X105860881Y-91597769D01*
X105856991Y-91599837D01*
X105856985Y-91599840D01*
X105613670Y-91729213D01*
X105613664Y-91729217D01*
X105609778Y-91731283D01*
X105606218Y-91733870D01*
X105606214Y-91733872D01*
X105383262Y-91895855D01*
X105379699Y-91898444D01*
X105376535Y-91901500D01*
X105376532Y-91901502D01*
X105244762Y-92028752D01*
X105181866Y-92061684D01*
X105111149Y-92055384D01*
X105055065Y-92011852D01*
X105050091Y-92004419D01*
X105042981Y-91992928D01*
X105038478Y-91985652D01*
X104913303Y-91860695D01*
X104907072Y-91856854D01*
X104768968Y-91771725D01*
X104768966Y-91771724D01*
X104762738Y-91767885D01*
X104682995Y-91741436D01*
X104601389Y-91714368D01*
X104601387Y-91714368D01*
X104594861Y-91712203D01*
X104588025Y-91711503D01*
X104588022Y-91711502D01*
X104540176Y-91706600D01*
X104490400Y-91701500D01*
X104259500Y-91701500D01*
X104191379Y-91681498D01*
X104144886Y-91627842D01*
X104133500Y-91575500D01*
X104133500Y-90848859D01*
X111002776Y-90848859D01*
X111002929Y-90853247D01*
X111002929Y-90853253D01*
X111011047Y-91085710D01*
X111012701Y-91133078D01*
X111013463Y-91137401D01*
X111013464Y-91137408D01*
X111037545Y-91273976D01*
X111062085Y-91413150D01*
X111063440Y-91417321D01*
X111063442Y-91417328D01*
X111114836Y-91575500D01*
X111149967Y-91683623D01*
X111151895Y-91687576D01*
X111151897Y-91687581D01*
X111191340Y-91768450D01*
X111274637Y-91939233D01*
X111277092Y-91942872D01*
X111277095Y-91942878D01*
X111380378Y-92096000D01*
X111433667Y-92175005D01*
X111623963Y-92386350D01*
X111841820Y-92569154D01*
X112082998Y-92719859D01*
X112342804Y-92835531D01*
X112616179Y-92913921D01*
X112620533Y-92914533D01*
X112620538Y-92914534D01*
X112790770Y-92938458D01*
X112897804Y-92953500D01*
X113111018Y-92953500D01*
X113113204Y-92953347D01*
X113113208Y-92953347D01*
X113319315Y-92938935D01*
X113319320Y-92938934D01*
X113323700Y-92938628D01*
X113601877Y-92879499D01*
X113606006Y-92877996D01*
X113606010Y-92877995D01*
X113864974Y-92783740D01*
X113864978Y-92783738D01*
X113869119Y-92782231D01*
X113873009Y-92780163D01*
X113873015Y-92780160D01*
X114116330Y-92650787D01*
X114116336Y-92650783D01*
X114120222Y-92648717D01*
X114123782Y-92646130D01*
X114123786Y-92646128D01*
X114346738Y-92484145D01*
X114346741Y-92484142D01*
X114350301Y-92481556D01*
X114392539Y-92440767D01*
X114502507Y-92334572D01*
X114565403Y-92301639D01*
X114636120Y-92307939D01*
X114692204Y-92351470D01*
X114697179Y-92358905D01*
X114715068Y-92387813D01*
X114724099Y-92399208D01*
X114838829Y-92513739D01*
X114850240Y-92522751D01*
X114988243Y-92607816D01*
X115001424Y-92613963D01*
X115155710Y-92665138D01*
X115169086Y-92668005D01*
X115263438Y-92677672D01*
X115269854Y-92678000D01*
X116069885Y-92678000D01*
X116085124Y-92673525D01*
X116086329Y-92672135D01*
X116088000Y-92664452D01*
X116088000Y-92659884D01*
X116596000Y-92659884D01*
X116600475Y-92675123D01*
X116601865Y-92676328D01*
X116609548Y-92677999D01*
X117414095Y-92677999D01*
X117420614Y-92677662D01*
X117516206Y-92667743D01*
X117529600Y-92664851D01*
X117683784Y-92613412D01*
X117696962Y-92607239D01*
X117834807Y-92521937D01*
X117846208Y-92512901D01*
X117960739Y-92398171D01*
X117969751Y-92386760D01*
X118054816Y-92248757D01*
X118060963Y-92235576D01*
X118112138Y-92081290D01*
X118115005Y-92067914D01*
X118124672Y-91973562D01*
X118125000Y-91967146D01*
X118125000Y-91192115D01*
X118120525Y-91176876D01*
X118119135Y-91175671D01*
X118111452Y-91174000D01*
X116614115Y-91174000D01*
X116598876Y-91178475D01*
X116597671Y-91179865D01*
X116596000Y-91187548D01*
X116596000Y-92659884D01*
X116088000Y-92659884D01*
X116088000Y-90647885D01*
X116596000Y-90647885D01*
X116600475Y-90663124D01*
X116601865Y-90664329D01*
X116609548Y-90666000D01*
X118106884Y-90666000D01*
X118122123Y-90661525D01*
X118123328Y-90660135D01*
X118124999Y-90652452D01*
X118124999Y-89872905D01*
X118124662Y-89866386D01*
X118114743Y-89770794D01*
X118111851Y-89757400D01*
X118060412Y-89603216D01*
X118054239Y-89590038D01*
X117968937Y-89452193D01*
X117959901Y-89440792D01*
X117845171Y-89326261D01*
X117833760Y-89317249D01*
X117695757Y-89232184D01*
X117682576Y-89226037D01*
X117528290Y-89174862D01*
X117514914Y-89171995D01*
X117420562Y-89162328D01*
X117414145Y-89162000D01*
X116614115Y-89162000D01*
X116598876Y-89166475D01*
X116597671Y-89167865D01*
X116596000Y-89175548D01*
X116596000Y-90647885D01*
X116088000Y-90647885D01*
X116088000Y-89180116D01*
X116083525Y-89164877D01*
X116082135Y-89163672D01*
X116074452Y-89162001D01*
X115269905Y-89162001D01*
X115263386Y-89162338D01*
X115167794Y-89172257D01*
X115154400Y-89175149D01*
X115000216Y-89226588D01*
X114987038Y-89232761D01*
X114849193Y-89318063D01*
X114837792Y-89327099D01*
X114723261Y-89441829D01*
X114714247Y-89453243D01*
X114697463Y-89480471D01*
X114644691Y-89527964D01*
X114574619Y-89539386D01*
X114509496Y-89511112D01*
X114496573Y-89498670D01*
X114456037Y-89453650D01*
X114238180Y-89270846D01*
X113997002Y-89120141D01*
X113737196Y-89004469D01*
X113463821Y-88926079D01*
X113459467Y-88925467D01*
X113459462Y-88925466D01*
X113285833Y-88901065D01*
X113182196Y-88886500D01*
X112968982Y-88886500D01*
X112966796Y-88886653D01*
X112966792Y-88886653D01*
X112760685Y-88901065D01*
X112760680Y-88901066D01*
X112756300Y-88901372D01*
X112478123Y-88960501D01*
X112473994Y-88962004D01*
X112473990Y-88962005D01*
X112215026Y-89056260D01*
X112215022Y-89056262D01*
X112210881Y-89057769D01*
X112206991Y-89059837D01*
X112206985Y-89059840D01*
X111963670Y-89189213D01*
X111963664Y-89189217D01*
X111959778Y-89191283D01*
X111956218Y-89193870D01*
X111956214Y-89193872D01*
X111733262Y-89355855D01*
X111729699Y-89358444D01*
X111726535Y-89361500D01*
X111726532Y-89361502D01*
X111528290Y-89552943D01*
X111528286Y-89552947D01*
X111525125Y-89556000D01*
X111522418Y-89559465D01*
X111522416Y-89559467D01*
X111439968Y-89664995D01*
X111350035Y-89780104D01*
X111330122Y-89814594D01*
X111281048Y-89899594D01*
X111207839Y-90026395D01*
X111206189Y-90030479D01*
X111206186Y-90030485D01*
X111155323Y-90156377D01*
X111101304Y-90290079D01*
X111032503Y-90566024D01*
X111032044Y-90570392D01*
X111032043Y-90570397D01*
X111010525Y-90775129D01*
X111002776Y-90848859D01*
X104133500Y-90848859D01*
X104133500Y-89814594D01*
X104153502Y-89746473D01*
X104170405Y-89725499D01*
X104950499Y-88945405D01*
X105012811Y-88911379D01*
X105039594Y-88908500D01*
X105095487Y-88908500D01*
X105101939Y-88907128D01*
X105101944Y-88907128D01*
X105198988Y-88886500D01*
X105282288Y-88868794D01*
X105288319Y-88866109D01*
X105450722Y-88793803D01*
X105450724Y-88793802D01*
X105456752Y-88791118D01*
X105611253Y-88678866D01*
X105739040Y-88536944D01*
X105834527Y-88371556D01*
X105893542Y-88189928D01*
X105913504Y-88000000D01*
X105893542Y-87810072D01*
X105834527Y-87628444D01*
X105739040Y-87463056D01*
X105611253Y-87321134D01*
X105456752Y-87208882D01*
X105450724Y-87206198D01*
X105450722Y-87206197D01*
X105288319Y-87133891D01*
X105288318Y-87133891D01*
X105282288Y-87131206D01*
X105188888Y-87111353D01*
X105101944Y-87092872D01*
X105101939Y-87092872D01*
X105095487Y-87091500D01*
X104904513Y-87091500D01*
X104898061Y-87092872D01*
X104898056Y-87092872D01*
X104811112Y-87111353D01*
X104717712Y-87131206D01*
X104711682Y-87133891D01*
X104711681Y-87133891D01*
X104549278Y-87206197D01*
X104549276Y-87206198D01*
X104543248Y-87208882D01*
X104388747Y-87321134D01*
X104260960Y-87463056D01*
X104165473Y-87628444D01*
X104106458Y-87810072D01*
X104105768Y-87816633D01*
X104105768Y-87816635D01*
X104089093Y-87975292D01*
X104062080Y-88040949D01*
X104052878Y-88051217D01*
X103107747Y-88996348D01*
X103099461Y-89003888D01*
X103092982Y-89008000D01*
X103087557Y-89013777D01*
X103046357Y-89057651D01*
X103043602Y-89060493D01*
X103023865Y-89080230D01*
X103021385Y-89083427D01*
X103013682Y-89092447D01*
X102983414Y-89124679D01*
X102979595Y-89131625D01*
X102979593Y-89131628D01*
X102973652Y-89142434D01*
X102962801Y-89158953D01*
X102950386Y-89174959D01*
X102947241Y-89182228D01*
X102947238Y-89182232D01*
X102932826Y-89215537D01*
X102927609Y-89226187D01*
X102906305Y-89264940D01*
X102904334Y-89272615D01*
X102904334Y-89272616D01*
X102901267Y-89284562D01*
X102894863Y-89303266D01*
X102886819Y-89321855D01*
X102885580Y-89329678D01*
X102885577Y-89329688D01*
X102879901Y-89365524D01*
X102877495Y-89377144D01*
X102866500Y-89419970D01*
X102866500Y-89440224D01*
X102864949Y-89459934D01*
X102861780Y-89479943D01*
X102862526Y-89487835D01*
X102865941Y-89523961D01*
X102866500Y-89535819D01*
X102866500Y-91575500D01*
X102846498Y-91643621D01*
X102792842Y-91690114D01*
X102740500Y-91701500D01*
X102339600Y-91701500D01*
X102336354Y-91701837D01*
X102336350Y-91701837D01*
X102240692Y-91711762D01*
X102240688Y-91711763D01*
X102233834Y-91712474D01*
X102227298Y-91714655D01*
X102227296Y-91714655D01*
X102131318Y-91746676D01*
X102066054Y-91768450D01*
X102059823Y-91772306D01*
X102053203Y-91775407D01*
X102051908Y-91772643D01*
X101996732Y-91787827D01*
X101928962Y-91766666D01*
X101905718Y-91746679D01*
X101843721Y-91678590D01*
X101754509Y-91596260D01*
X101544865Y-91402790D01*
X101542856Y-91400936D01*
X101242322Y-91168457D01*
X101236883Y-91163685D01*
X101236796Y-91163787D01*
X101233076Y-91160626D01*
X101229623Y-91157199D01*
X101224749Y-91153667D01*
X101224552Y-91153476D01*
X101224310Y-91153348D01*
X101219459Y-91149833D01*
X101215127Y-91147618D01*
X101210986Y-91145080D01*
X101211216Y-91144705D01*
X101189285Y-91129586D01*
X101140683Y-91085704D01*
X101120953Y-91063067D01*
X101072053Y-90991195D01*
X101058238Y-90964525D01*
X101027741Y-90883129D01*
X101020630Y-90853943D01*
X101013115Y-90791361D01*
X101012225Y-90774806D01*
X101012311Y-90767768D01*
X101013691Y-90758899D01*
X101009564Y-90727349D01*
X101008500Y-90711008D01*
X101008500Y-86589654D01*
X101775618Y-86589654D01*
X101782673Y-86599627D01*
X101813679Y-86625551D01*
X101820598Y-86630579D01*
X102045272Y-86771515D01*
X102052807Y-86775556D01*
X102294520Y-86884694D01*
X102302551Y-86887680D01*
X102556832Y-86963002D01*
X102565184Y-86964869D01*
X102827340Y-87004984D01*
X102835874Y-87005700D01*
X103101045Y-87009867D01*
X103109596Y-87009418D01*
X103372883Y-86977557D01*
X103381284Y-86975955D01*
X103637824Y-86908653D01*
X103645926Y-86905926D01*
X103890949Y-86804434D01*
X103898617Y-86800628D01*
X104127598Y-86666822D01*
X104134679Y-86662009D01*
X104214655Y-86599301D01*
X104223125Y-86587442D01*
X104216608Y-86575818D01*
X103012812Y-85372022D01*
X102998868Y-85364408D01*
X102997035Y-85364539D01*
X102990420Y-85368790D01*
X101782910Y-86576300D01*
X101775618Y-86589654D01*
X101008500Y-86589654D01*
X101008500Y-86040347D01*
X101028502Y-85972226D01*
X101082158Y-85925733D01*
X101152432Y-85915629D01*
X101217012Y-85945123D01*
X101247065Y-85983732D01*
X101265667Y-86020718D01*
X101270020Y-86028079D01*
X101399347Y-86216250D01*
X101409601Y-86224594D01*
X101423342Y-86217448D01*
X102627978Y-85012812D01*
X102634356Y-85001132D01*
X103364408Y-85001132D01*
X103364539Y-85002965D01*
X103368790Y-85009580D01*
X104575730Y-86216520D01*
X104587939Y-86223187D01*
X104599439Y-86214497D01*
X104696831Y-86081913D01*
X104701418Y-86074685D01*
X104827962Y-85841621D01*
X104831530Y-85833827D01*
X104925271Y-85585750D01*
X104927748Y-85577544D01*
X104986954Y-85319038D01*
X104988294Y-85310577D01*
X105012031Y-85044616D01*
X105012277Y-85039677D01*
X105012666Y-85002485D01*
X105012523Y-84997519D01*
X105011255Y-84978918D01*
X108986917Y-84978918D01*
X109002682Y-85252320D01*
X109003507Y-85256525D01*
X109003508Y-85256533D01*
X109024698Y-85364539D01*
X109055405Y-85521053D01*
X109056792Y-85525103D01*
X109056793Y-85525108D01*
X109077605Y-85585895D01*
X109144112Y-85780144D01*
X109146039Y-85783975D01*
X109246506Y-85983732D01*
X109267160Y-86024799D01*
X109269586Y-86028328D01*
X109269589Y-86028334D01*
X109398741Y-86216250D01*
X109422274Y-86250490D01*
X109606582Y-86453043D01*
X109816675Y-86628707D01*
X109820316Y-86630991D01*
X110045024Y-86771951D01*
X110045028Y-86771953D01*
X110048664Y-86774234D01*
X110116544Y-86804883D01*
X110294345Y-86885164D01*
X110294349Y-86885166D01*
X110298257Y-86886930D01*
X110302377Y-86888150D01*
X110302376Y-86888150D01*
X110556723Y-86963491D01*
X110556727Y-86963492D01*
X110560836Y-86964709D01*
X110565070Y-86965357D01*
X110565075Y-86965358D01*
X110827298Y-87005483D01*
X110827300Y-87005483D01*
X110831540Y-87006132D01*
X110970912Y-87008322D01*
X111101071Y-87010367D01*
X111101077Y-87010367D01*
X111105362Y-87010434D01*
X111377235Y-86977534D01*
X111642127Y-86908041D01*
X111646087Y-86906401D01*
X111646092Y-86906399D01*
X111768631Y-86855641D01*
X111895136Y-86803241D01*
X112131582Y-86665073D01*
X112347089Y-86496094D01*
X112388809Y-86453043D01*
X112534686Y-86302509D01*
X112537669Y-86299431D01*
X112540202Y-86295983D01*
X112540206Y-86295978D01*
X112697257Y-86082178D01*
X112699795Y-86078723D01*
X112701841Y-86074955D01*
X112828418Y-85841830D01*
X112828419Y-85841828D01*
X112830468Y-85838054D01*
X112927269Y-85581877D01*
X112988407Y-85314933D01*
X113012751Y-85042161D01*
X113013193Y-85000000D01*
X113011465Y-84974648D01*
X112994859Y-84731055D01*
X112994858Y-84731049D01*
X112994567Y-84726778D01*
X112939032Y-84458612D01*
X112847617Y-84200465D01*
X112722013Y-83957112D01*
X112712040Y-83942921D01*
X112567008Y-83736562D01*
X112564545Y-83733057D01*
X112378125Y-83532445D01*
X112374810Y-83529731D01*
X112374806Y-83529728D01*
X112169523Y-83361706D01*
X112166205Y-83358990D01*
X111932704Y-83215901D01*
X111928768Y-83214173D01*
X111685873Y-83107549D01*
X111685869Y-83107548D01*
X111681945Y-83105825D01*
X111418566Y-83030800D01*
X111414324Y-83030196D01*
X111414318Y-83030195D01*
X111213834Y-83001662D01*
X111147443Y-82992213D01*
X111003589Y-82991460D01*
X110877877Y-82990802D01*
X110877871Y-82990802D01*
X110873591Y-82990780D01*
X110869347Y-82991339D01*
X110869343Y-82991339D01*
X110750302Y-83007011D01*
X110602078Y-83026525D01*
X110597938Y-83027658D01*
X110597936Y-83027658D01*
X110525008Y-83047609D01*
X110337928Y-83098788D01*
X110333980Y-83100472D01*
X110089982Y-83204546D01*
X110089978Y-83204548D01*
X110086030Y-83206232D01*
X110066125Y-83218145D01*
X109854725Y-83344664D01*
X109854721Y-83344667D01*
X109851043Y-83346868D01*
X109637318Y-83518094D01*
X109448808Y-83716742D01*
X109289002Y-83939136D01*
X109160857Y-84181161D01*
X109159385Y-84185184D01*
X109159383Y-84185188D01*
X109152314Y-84204506D01*
X109066743Y-84438337D01*
X109008404Y-84705907D01*
X108986917Y-84978918D01*
X105011255Y-84978918D01*
X104994362Y-84731123D01*
X104993201Y-84722649D01*
X104939419Y-84462944D01*
X104937120Y-84454709D01*
X104848588Y-84204705D01*
X104845191Y-84196854D01*
X104723550Y-83961178D01*
X104719122Y-83953866D01*
X104600031Y-83784417D01*
X104589509Y-83776037D01*
X104576121Y-83783089D01*
X103372022Y-84987188D01*
X103364408Y-85001132D01*
X102634356Y-85001132D01*
X102635592Y-84998868D01*
X102635461Y-84997035D01*
X102631210Y-84990420D01*
X101423814Y-83783024D01*
X101411804Y-83776466D01*
X101400064Y-83785434D01*
X101291935Y-83935911D01*
X101287418Y-83943196D01*
X101245854Y-84021697D01*
X101196302Y-84072540D01*
X101127127Y-84088522D01*
X101060294Y-84064568D01*
X101017020Y-84008284D01*
X101008500Y-83962738D01*
X101008500Y-83412500D01*
X101776584Y-83412500D01*
X101782980Y-83423770D01*
X102987188Y-84627978D01*
X103001132Y-84635592D01*
X103002965Y-84635461D01*
X103009580Y-84631210D01*
X104216604Y-83424186D01*
X104223795Y-83411017D01*
X104216473Y-83400780D01*
X104169233Y-83362115D01*
X104162261Y-83357160D01*
X103936122Y-83218582D01*
X103928552Y-83214624D01*
X103685704Y-83108022D01*
X103677644Y-83105120D01*
X103422592Y-83032467D01*
X103414214Y-83030685D01*
X103151656Y-82993318D01*
X103143111Y-82992691D01*
X102877908Y-82991302D01*
X102869374Y-82991839D01*
X102606433Y-83026456D01*
X102598035Y-83028149D01*
X102342238Y-83098127D01*
X102334143Y-83100946D01*
X102090199Y-83204997D01*
X102082577Y-83208881D01*
X101855013Y-83345075D01*
X101847981Y-83349962D01*
X101785053Y-83400377D01*
X101776584Y-83412500D01*
X101008500Y-83412500D01*
X101008500Y-75889899D01*
X102987569Y-75889899D01*
X102998180Y-76159963D01*
X103046737Y-76425837D01*
X103132272Y-76682217D01*
X103253078Y-76923987D01*
X103255607Y-76927646D01*
X103359563Y-77078058D01*
X103406744Y-77146324D01*
X103590205Y-77344790D01*
X103799799Y-77515427D01*
X104031346Y-77654830D01*
X104035441Y-77656564D01*
X104035443Y-77656565D01*
X104276124Y-77758480D01*
X104276131Y-77758482D01*
X104280225Y-77760216D01*
X104376358Y-77785705D01*
X104537172Y-77828345D01*
X104537177Y-77828346D01*
X104541469Y-77829484D01*
X104545878Y-77830006D01*
X104545884Y-77830007D01*
X104695210Y-77847680D01*
X104809868Y-77861251D01*
X105080064Y-77854883D01*
X105084459Y-77854151D01*
X105084464Y-77854151D01*
X105342267Y-77811241D01*
X105342271Y-77811240D01*
X105346669Y-77810508D01*
X105514959Y-77757285D01*
X105600114Y-77730354D01*
X105600116Y-77730353D01*
X105604360Y-77729011D01*
X105608371Y-77727085D01*
X105608376Y-77727083D01*
X105843979Y-77613948D01*
X105843980Y-77613947D01*
X105847998Y-77612018D01*
X105996768Y-77512613D01*
X106069013Y-77464341D01*
X106069017Y-77464338D01*
X106072721Y-77461863D01*
X106076038Y-77458892D01*
X106076042Y-77458889D01*
X106270729Y-77284512D01*
X106274045Y-77281542D01*
X106447953Y-77074654D01*
X106590975Y-76845325D01*
X106700258Y-76598133D01*
X106773620Y-76338008D01*
X106796946Y-76164343D01*
X106809172Y-76073324D01*
X106809173Y-76073316D01*
X106809599Y-76070142D01*
X106813375Y-75950000D01*
X106809120Y-75889899D01*
X114187569Y-75889899D01*
X114198180Y-76159963D01*
X114246737Y-76425837D01*
X114332272Y-76682217D01*
X114453078Y-76923987D01*
X114455607Y-76927646D01*
X114559563Y-77078058D01*
X114606744Y-77146324D01*
X114790205Y-77344790D01*
X114999799Y-77515427D01*
X115231346Y-77654830D01*
X115235441Y-77656564D01*
X115235443Y-77656565D01*
X115476124Y-77758480D01*
X115476131Y-77758482D01*
X115480225Y-77760216D01*
X115576358Y-77785705D01*
X115737172Y-77828345D01*
X115737177Y-77828346D01*
X115741469Y-77829484D01*
X115745878Y-77830006D01*
X115745884Y-77830007D01*
X115895210Y-77847680D01*
X116009868Y-77861251D01*
X116280064Y-77854883D01*
X116284459Y-77854151D01*
X116284464Y-77854151D01*
X116542267Y-77811241D01*
X116542271Y-77811240D01*
X116546669Y-77810508D01*
X116714959Y-77757285D01*
X116800114Y-77730354D01*
X116800116Y-77730353D01*
X116804360Y-77729011D01*
X116808371Y-77727085D01*
X116808376Y-77727083D01*
X117043979Y-77613948D01*
X117043980Y-77613947D01*
X117047998Y-77612018D01*
X117196768Y-77512613D01*
X117269013Y-77464341D01*
X117269017Y-77464338D01*
X117272721Y-77461863D01*
X117276038Y-77458892D01*
X117276042Y-77458889D01*
X117470729Y-77284512D01*
X117474045Y-77281542D01*
X117647953Y-77074654D01*
X117790975Y-76845325D01*
X117900258Y-76598133D01*
X117973620Y-76338008D01*
X117996946Y-76164343D01*
X118009172Y-76073324D01*
X118009173Y-76073316D01*
X118009599Y-76070142D01*
X118013375Y-75950000D01*
X117994287Y-75680403D01*
X117937402Y-75416185D01*
X117917801Y-75363053D01*
X117845397Y-75166796D01*
X117843856Y-75162619D01*
X117814510Y-75108231D01*
X117717629Y-74928678D01*
X117717629Y-74928677D01*
X117715516Y-74924762D01*
X117554942Y-74707362D01*
X117365338Y-74514756D01*
X117288556Y-74456158D01*
X117154028Y-74353489D01*
X117154024Y-74353487D01*
X117150487Y-74350787D01*
X116914675Y-74218727D01*
X116662609Y-74121210D01*
X116658284Y-74120207D01*
X116658279Y-74120206D01*
X116552748Y-74095746D01*
X116399318Y-74060182D01*
X116130054Y-74036861D01*
X116125619Y-74037105D01*
X116125615Y-74037105D01*
X115864634Y-74051468D01*
X115864627Y-74051469D01*
X115860191Y-74051713D01*
X115728622Y-74077883D01*
X115599484Y-74103570D01*
X115599479Y-74103571D01*
X115595112Y-74104440D01*
X115590909Y-74105916D01*
X115344315Y-74192513D01*
X115344312Y-74192514D01*
X115340107Y-74193991D01*
X115336154Y-74196044D01*
X115336148Y-74196047D01*
X115292488Y-74218727D01*
X115100264Y-74318580D01*
X115096649Y-74321163D01*
X115096643Y-74321167D01*
X114883990Y-74473131D01*
X114883986Y-74473134D01*
X114880369Y-74475719D01*
X114684808Y-74662275D01*
X114517485Y-74874524D01*
X114515253Y-74878366D01*
X114515250Y-74878371D01*
X114383974Y-75104377D01*
X114383971Y-75104384D01*
X114381736Y-75108231D01*
X114280272Y-75358735D01*
X114279201Y-75363048D01*
X114279199Y-75363053D01*
X114266001Y-75416185D01*
X114215116Y-75621035D01*
X114214662Y-75625463D01*
X114214662Y-75625465D01*
X114188023Y-75885467D01*
X114187569Y-75889899D01*
X106809120Y-75889899D01*
X106794287Y-75680403D01*
X106737402Y-75416185D01*
X106717801Y-75363053D01*
X106645397Y-75166796D01*
X106643856Y-75162619D01*
X106614510Y-75108231D01*
X106517629Y-74928678D01*
X106517629Y-74928677D01*
X106515516Y-74924762D01*
X106354942Y-74707362D01*
X106165338Y-74514756D01*
X106088556Y-74456158D01*
X105954028Y-74353489D01*
X105954024Y-74353487D01*
X105950487Y-74350787D01*
X105714675Y-74218727D01*
X105462609Y-74121210D01*
X105458284Y-74120207D01*
X105458279Y-74120206D01*
X105352748Y-74095746D01*
X105199318Y-74060182D01*
X104930054Y-74036861D01*
X104925619Y-74037105D01*
X104925615Y-74037105D01*
X104664634Y-74051468D01*
X104664627Y-74051469D01*
X104660191Y-74051713D01*
X104528622Y-74077883D01*
X104399484Y-74103570D01*
X104399479Y-74103571D01*
X104395112Y-74104440D01*
X104390909Y-74105916D01*
X104144315Y-74192513D01*
X104144312Y-74192514D01*
X104140107Y-74193991D01*
X104136154Y-74196044D01*
X104136148Y-74196047D01*
X104092488Y-74218727D01*
X103900264Y-74318580D01*
X103896649Y-74321163D01*
X103896643Y-74321167D01*
X103683990Y-74473131D01*
X103683986Y-74473134D01*
X103680369Y-74475719D01*
X103484808Y-74662275D01*
X103317485Y-74874524D01*
X103315253Y-74878366D01*
X103315250Y-74878371D01*
X103183974Y-75104377D01*
X103183971Y-75104384D01*
X103181736Y-75108231D01*
X103080272Y-75358735D01*
X103079201Y-75363048D01*
X103079199Y-75363053D01*
X103066001Y-75416185D01*
X103015116Y-75621035D01*
X103014662Y-75625463D01*
X103014662Y-75625465D01*
X102988023Y-75885467D01*
X102987569Y-75889899D01*
X101008500Y-75889899D01*
X101008500Y-70920000D01*
X115166496Y-70920000D01*
X115186458Y-71109928D01*
X115245473Y-71291556D01*
X115340960Y-71456944D01*
X115468747Y-71598866D01*
X115623248Y-71711118D01*
X115629276Y-71713802D01*
X115629278Y-71713803D01*
X115791681Y-71786109D01*
X115797712Y-71788794D01*
X115891113Y-71808647D01*
X115978056Y-71827128D01*
X115978061Y-71827128D01*
X115984513Y-71828500D01*
X116040405Y-71828500D01*
X116108526Y-71848502D01*
X116129500Y-71865405D01*
X116306348Y-72042253D01*
X116313888Y-72050539D01*
X116318000Y-72057018D01*
X116323777Y-72062443D01*
X116367651Y-72103643D01*
X116370493Y-72106398D01*
X116390230Y-72126135D01*
X116393427Y-72128615D01*
X116402447Y-72136318D01*
X116434679Y-72166586D01*
X116440051Y-72169539D01*
X116482917Y-72225133D01*
X116491500Y-72270842D01*
X116491500Y-72698134D01*
X116498255Y-72760316D01*
X116549385Y-72896705D01*
X116636739Y-73013261D01*
X116753295Y-73100615D01*
X116889684Y-73151745D01*
X116951866Y-73158500D01*
X119048134Y-73158500D01*
X119110316Y-73151745D01*
X119246705Y-73100615D01*
X119363261Y-73013261D01*
X119450615Y-72896705D01*
X119501745Y-72760316D01*
X119508500Y-72698134D01*
X119508500Y-70601866D01*
X119501745Y-70539684D01*
X119450615Y-70403295D01*
X119363261Y-70286739D01*
X119246705Y-70199385D01*
X119110316Y-70148255D01*
X119048134Y-70141500D01*
X116951866Y-70141500D01*
X116889684Y-70148255D01*
X116753295Y-70199385D01*
X116752414Y-70200045D01*
X116686926Y-70214366D01*
X116621717Y-70190613D01*
X116542094Y-70132763D01*
X116542093Y-70132762D01*
X116536752Y-70128882D01*
X116530724Y-70126198D01*
X116530722Y-70126197D01*
X116368319Y-70053891D01*
X116368318Y-70053891D01*
X116362288Y-70051206D01*
X116268888Y-70031353D01*
X116181944Y-70012872D01*
X116181939Y-70012872D01*
X116175487Y-70011500D01*
X115984513Y-70011500D01*
X115978061Y-70012872D01*
X115978056Y-70012872D01*
X115891112Y-70031353D01*
X115797712Y-70051206D01*
X115791682Y-70053891D01*
X115791681Y-70053891D01*
X115629278Y-70126197D01*
X115629276Y-70126198D01*
X115623248Y-70128882D01*
X115617907Y-70132762D01*
X115617906Y-70132763D01*
X115596583Y-70148255D01*
X115468747Y-70241134D01*
X115340960Y-70383056D01*
X115337659Y-70388774D01*
X115250531Y-70539684D01*
X115245473Y-70548444D01*
X115186458Y-70730072D01*
X115166496Y-70920000D01*
X101008500Y-70920000D01*
X101008500Y-68450000D01*
X106486835Y-68450000D01*
X106505465Y-68686711D01*
X106560895Y-68917594D01*
X106562788Y-68922165D01*
X106562789Y-68922167D01*
X106640723Y-69110316D01*
X106651760Y-69136963D01*
X106654346Y-69141183D01*
X106773241Y-69335202D01*
X106773245Y-69335208D01*
X106775824Y-69339416D01*
X106866197Y-69445229D01*
X106920236Y-69508500D01*
X106930031Y-69519969D01*
X107110584Y-69674176D01*
X107114792Y-69676755D01*
X107114798Y-69676759D01*
X107308084Y-69795205D01*
X107313037Y-69798240D01*
X107317607Y-69800133D01*
X107317611Y-69800135D01*
X107527833Y-69887211D01*
X107532406Y-69889105D01*
X107580349Y-69900615D01*
X107758476Y-69943380D01*
X107758482Y-69943381D01*
X107763289Y-69944535D01*
X108000000Y-69963165D01*
X108236711Y-69944535D01*
X108241518Y-69943381D01*
X108241524Y-69943380D01*
X108419651Y-69900615D01*
X108467594Y-69889105D01*
X108472167Y-69887211D01*
X108682389Y-69800135D01*
X108682393Y-69800133D01*
X108686963Y-69798240D01*
X108691916Y-69795205D01*
X108885202Y-69676759D01*
X108885208Y-69676755D01*
X108889416Y-69674176D01*
X109069969Y-69519969D01*
X109079765Y-69508500D01*
X109208753Y-69357474D01*
X109254686Y-69323598D01*
X109276668Y-69314122D01*
X110127978Y-68462812D01*
X110135592Y-68448868D01*
X110135461Y-68447035D01*
X110131210Y-68440420D01*
X109279710Y-67588920D01*
X109241352Y-67567974D01*
X109205928Y-67539218D01*
X109073177Y-67383787D01*
X109069969Y-67380031D01*
X108889416Y-67225824D01*
X108885208Y-67223245D01*
X108885202Y-67223241D01*
X108876470Y-67217890D01*
X109632093Y-67217890D01*
X109635876Y-67226666D01*
X110770115Y-68360905D01*
X110804141Y-68423217D01*
X110799076Y-68494032D01*
X110770115Y-68539095D01*
X109638920Y-69670290D01*
X109632160Y-69682670D01*
X109637887Y-69690320D01*
X109809042Y-69795205D01*
X109817837Y-69799687D01*
X110027988Y-69886734D01*
X110037373Y-69889783D01*
X110258554Y-69942885D01*
X110268301Y-69944428D01*
X110495070Y-69962275D01*
X110504930Y-69962275D01*
X110731699Y-69944428D01*
X110741446Y-69942885D01*
X110962627Y-69889783D01*
X110972012Y-69886734D01*
X111182163Y-69799687D01*
X111190958Y-69795205D01*
X111389121Y-69673770D01*
X111390396Y-69675851D01*
X111447739Y-69655280D01*
X111516918Y-69671242D01*
X111555974Y-69705497D01*
X111631357Y-69806080D01*
X111636739Y-69813261D01*
X111753295Y-69900615D01*
X111889684Y-69951745D01*
X111951866Y-69958500D01*
X114048134Y-69958500D01*
X114110316Y-69951745D01*
X114246705Y-69900615D01*
X114363261Y-69813261D01*
X114450615Y-69696705D01*
X114501745Y-69560316D01*
X114508500Y-69498134D01*
X114508500Y-68380000D01*
X115706496Y-68380000D01*
X115726458Y-68569928D01*
X115785473Y-68751556D01*
X115880960Y-68916944D01*
X115885378Y-68921851D01*
X115885379Y-68921852D01*
X116004325Y-69053955D01*
X116008747Y-69058866D01*
X116163248Y-69171118D01*
X116169276Y-69173802D01*
X116169278Y-69173803D01*
X116314135Y-69238297D01*
X116337712Y-69248794D01*
X116431113Y-69268647D01*
X116518056Y-69287128D01*
X116518061Y-69287128D01*
X116524513Y-69288500D01*
X116530484Y-69288500D01*
X116595925Y-69315424D01*
X116617920Y-69338151D01*
X116636739Y-69363261D01*
X116753295Y-69450615D01*
X116889684Y-69501745D01*
X116951866Y-69508500D01*
X119048134Y-69508500D01*
X119110316Y-69501745D01*
X119246705Y-69450615D01*
X119363261Y-69363261D01*
X119450615Y-69246705D01*
X119501745Y-69110316D01*
X119508500Y-69048134D01*
X119508500Y-66951866D01*
X119501745Y-66889684D01*
X119450615Y-66753295D01*
X119363261Y-66636739D01*
X119246705Y-66549385D01*
X119110316Y-66498255D01*
X119048134Y-66491500D01*
X116951866Y-66491500D01*
X116889684Y-66498255D01*
X116753295Y-66549385D01*
X116636739Y-66636739D01*
X116549385Y-66753295D01*
X116498255Y-66889684D01*
X116491500Y-66951866D01*
X116491500Y-67376484D01*
X116471498Y-67444605D01*
X116417842Y-67491098D01*
X116391697Y-67499731D01*
X116337712Y-67511206D01*
X116331682Y-67513891D01*
X116331681Y-67513891D01*
X116169278Y-67586197D01*
X116169276Y-67586198D01*
X116163248Y-67588882D01*
X116008747Y-67701134D01*
X115880960Y-67843056D01*
X115785473Y-68008444D01*
X115726458Y-68190072D01*
X115725768Y-68196633D01*
X115725768Y-68196635D01*
X115724018Y-68213289D01*
X115706496Y-68380000D01*
X114508500Y-68380000D01*
X114508500Y-67401866D01*
X114501745Y-67339684D01*
X114450615Y-67203295D01*
X114363261Y-67086739D01*
X114246705Y-66999385D01*
X114110316Y-66948255D01*
X114048134Y-66941500D01*
X111951866Y-66941500D01*
X111889684Y-66948255D01*
X111753295Y-66999385D01*
X111636739Y-67086739D01*
X111631358Y-67093919D01*
X111631357Y-67093920D01*
X111555974Y-67194503D01*
X111499115Y-67237018D01*
X111428296Y-67242044D01*
X111389983Y-67224824D01*
X111389121Y-67226230D01*
X111190958Y-67104795D01*
X111182163Y-67100313D01*
X110972012Y-67013266D01*
X110962627Y-67010217D01*
X110741446Y-66957115D01*
X110731699Y-66955572D01*
X110504930Y-66937725D01*
X110495070Y-66937725D01*
X110268301Y-66955572D01*
X110258554Y-66957115D01*
X110037373Y-67010217D01*
X110027988Y-67013266D01*
X109817837Y-67100313D01*
X109809042Y-67104795D01*
X109641555Y-67207432D01*
X109632093Y-67217890D01*
X108876470Y-67217890D01*
X108691183Y-67104346D01*
X108686963Y-67101760D01*
X108682393Y-67099867D01*
X108682389Y-67099865D01*
X108472167Y-67012789D01*
X108472165Y-67012788D01*
X108467594Y-67010895D01*
X108387391Y-66991640D01*
X108241524Y-66956620D01*
X108241518Y-66956619D01*
X108236711Y-66955465D01*
X108000000Y-66936835D01*
X107763289Y-66955465D01*
X107758482Y-66956619D01*
X107758476Y-66956620D01*
X107612609Y-66991640D01*
X107532406Y-67010895D01*
X107527835Y-67012788D01*
X107527833Y-67012789D01*
X107317611Y-67099865D01*
X107317607Y-67099867D01*
X107313037Y-67101760D01*
X107308817Y-67104346D01*
X107114798Y-67223241D01*
X107114792Y-67223245D01*
X107110584Y-67225824D01*
X106930031Y-67380031D01*
X106775824Y-67560584D01*
X106773245Y-67564792D01*
X106773241Y-67564798D01*
X106692074Y-67697251D01*
X106651760Y-67763037D01*
X106649867Y-67767607D01*
X106649865Y-67767611D01*
X106562789Y-67977833D01*
X106560895Y-67982406D01*
X106559740Y-67987218D01*
X106511039Y-68190072D01*
X106505465Y-68213289D01*
X106486835Y-68450000D01*
X101008500Y-68450000D01*
X101008500Y-67053250D01*
X101010246Y-67032345D01*
X101012770Y-67017344D01*
X101012770Y-67017341D01*
X101013576Y-67012552D01*
X101013729Y-67000000D01*
X101013040Y-66995186D01*
X101013039Y-66995176D01*
X101012157Y-66989017D01*
X101011206Y-66962172D01*
X101023038Y-66796723D01*
X101025596Y-66778934D01*
X101066999Y-66588607D01*
X101072063Y-66571359D01*
X101140136Y-66388850D01*
X101147604Y-66372498D01*
X101240952Y-66201542D01*
X101250672Y-66186418D01*
X101367402Y-66030486D01*
X101379175Y-66016900D01*
X101516900Y-65879175D01*
X101530486Y-65867402D01*
X101686418Y-65750672D01*
X101701542Y-65740952D01*
X101872498Y-65647604D01*
X101888850Y-65640136D01*
X102071359Y-65572063D01*
X102088608Y-65566999D01*
X102278936Y-65525596D01*
X102296715Y-65523039D01*
X102458605Y-65511460D01*
X102476565Y-65512207D01*
X102484845Y-65512308D01*
X102493724Y-65513691D01*
X102525286Y-65509564D01*
X102541621Y-65508500D01*
X137450633Y-65508500D01*
X137470018Y-65510000D01*
G37*
%TD.AperFunction*%
%TD*%
M02*
