%TF.GenerationSoftware,KiCad,Pcbnew,7.0.1*%
%TF.CreationDate,2023-03-19T03:20:37-04:00*%
%TF.ProjectId,Fluxpad,466c7578-7061-4642-9e6b-696361645f70,rev?*%
%TF.SameCoordinates,Original*%
%TF.FileFunction,Legend,Bot*%
%TF.FilePolarity,Positive*%
%FSLAX46Y46*%
G04 Gerber Fmt 4.6, Leading zero omitted, Abs format (unit mm)*
G04 Created by KiCad (PCBNEW 7.0.1) date 2023-03-19 03:20:37*
%MOMM*%
%LPD*%
G01*
G04 APERTURE LIST*
G04 Aperture macros list*
%AMRoundRect*
0 Rectangle with rounded corners*
0 $1 Rounding radius*
0 $2 $3 $4 $5 $6 $7 $8 $9 X,Y pos of 4 corners*
0 Add a 4 corners polygon primitive as box body*
4,1,4,$2,$3,$4,$5,$6,$7,$8,$9,$2,$3,0*
0 Add four circle primitives for the rounded corners*
1,1,$1+$1,$2,$3*
1,1,$1+$1,$4,$5*
1,1,$1+$1,$6,$7*
1,1,$1+$1,$8,$9*
0 Add four rect primitives between the rounded corners*
20,1,$1+$1,$2,$3,$4,$5,0*
20,1,$1+$1,$4,$5,$6,$7,0*
20,1,$1+$1,$6,$7,$8,$9,0*
20,1,$1+$1,$8,$9,$2,$3,0*%
G04 Aperture macros list end*
%ADD10C,0.000000*%
%ADD11C,0.175000*%
%ADD12C,0.200000*%
%ADD13C,0.150000*%
%ADD14C,0.120000*%
%ADD15C,0.100000*%
%ADD16C,1.448000*%
%ADD17C,1.750000*%
%ADD18RoundRect,0.150000X-0.150000X0.587500X-0.150000X-0.587500X0.150000X-0.587500X0.150000X0.587500X0*%
%ADD19RoundRect,0.250000X-1.025000X-1.000000X1.025000X-1.000000X1.025000X1.000000X-1.025000X1.000000X0*%
%ADD20C,3.050000*%
%ADD21C,4.000000*%
%ADD22C,2.800000*%
%ADD23C,2.000000*%
%ADD24R,2.000000X2.000000*%
%ADD25R,1.000000X1.000000*%
%ADD26RoundRect,0.200000X-0.200000X-0.275000X0.200000X-0.275000X0.200000X0.275000X-0.200000X0.275000X0*%
%ADD27RoundRect,0.225000X0.250000X-0.225000X0.250000X0.225000X-0.250000X0.225000X-0.250000X-0.225000X0*%
%ADD28RoundRect,0.200000X0.275000X-0.200000X0.275000X0.200000X-0.275000X0.200000X-0.275000X-0.200000X0*%
%ADD29RoundRect,0.300000X-0.450000X-0.500000X0.450000X-0.500000X0.450000X0.500000X-0.450000X0.500000X0*%
%ADD30O,2.000000X3.600000*%
%ADD31RoundRect,0.225000X-0.250000X0.225000X-0.250000X-0.225000X0.250000X-0.225000X0.250000X0.225000X0*%
%TA.AperFunction,Profile*%
%ADD32C,0.100000*%
%TD*%
G04 APERTURE END LIST*
D10*
G36*
X119900000Y-70400000D02*
G01*
X120400000Y-70400000D01*
X120400000Y-70900000D01*
X119400000Y-70900000D01*
X119400000Y-69900000D01*
X119900000Y-69900000D01*
X119900000Y-70400000D01*
G37*
G36*
X133000000Y-67900000D02*
G01*
X132500000Y-67900000D01*
X132500000Y-67400000D01*
X132000000Y-67400000D01*
X132000000Y-66900000D01*
X133000000Y-66900000D01*
X133000000Y-67900000D01*
G37*
D11*
G36*
X131809420Y-69930000D02*
G01*
X131809420Y-67970195D01*
X130588694Y-67970195D01*
X130588694Y-68275010D01*
X131470900Y-68275010D01*
X131470900Y-68793293D01*
X130659036Y-68793293D01*
X130659036Y-69101039D01*
X131470900Y-69101039D01*
X131470900Y-69930000D01*
X131809420Y-69930000D01*
G37*
G36*
X130312700Y-69930000D02*
G01*
X130312700Y-67970195D01*
X129974179Y-67970195D01*
X129974179Y-69624696D01*
X129055826Y-69624696D01*
X129055826Y-69930000D01*
X130312700Y-69930000D01*
G37*
G36*
X128102791Y-69969078D02*
G01*
X128131905Y-69968746D01*
X128160508Y-69967750D01*
X128188600Y-69966090D01*
X128216180Y-69963766D01*
X128243249Y-69960778D01*
X128269807Y-69957126D01*
X128295853Y-69952809D01*
X128321388Y-69947829D01*
X128346412Y-69942185D01*
X128370924Y-69935877D01*
X128394924Y-69928904D01*
X128418414Y-69921268D01*
X128441391Y-69912967D01*
X128463858Y-69904003D01*
X128485813Y-69894374D01*
X128507257Y-69884082D01*
X128528138Y-69873097D01*
X128548404Y-69861512D01*
X128568056Y-69849329D01*
X128587094Y-69836546D01*
X128605517Y-69823164D01*
X128623326Y-69809183D01*
X128640520Y-69794603D01*
X128657100Y-69779424D01*
X128673065Y-69763645D01*
X128688416Y-69747268D01*
X128703153Y-69730291D01*
X128717275Y-69712715D01*
X128730783Y-69694540D01*
X128743676Y-69675766D01*
X128755955Y-69656392D01*
X128767620Y-69636420D01*
X128778622Y-69615846D01*
X128788915Y-69594791D01*
X128798497Y-69573256D01*
X128807370Y-69551240D01*
X128815533Y-69528743D01*
X128822987Y-69505765D01*
X128829730Y-69482306D01*
X128835764Y-69458367D01*
X128841087Y-69433946D01*
X128845701Y-69409045D01*
X128849605Y-69383663D01*
X128852799Y-69357800D01*
X128855284Y-69331456D01*
X128857058Y-69304631D01*
X128858123Y-69277325D01*
X128858478Y-69249539D01*
X128858478Y-67970195D01*
X128522888Y-67970195D01*
X128522888Y-69257843D01*
X128522461Y-69282038D01*
X128521179Y-69305532D01*
X128519042Y-69328323D01*
X128516050Y-69350411D01*
X128512203Y-69371798D01*
X128507501Y-69392482D01*
X128501945Y-69412464D01*
X128495533Y-69431744D01*
X128488267Y-69450322D01*
X128480146Y-69468197D01*
X128466361Y-69493694D01*
X128450654Y-69517611D01*
X128433022Y-69539947D01*
X128413468Y-69560704D01*
X128392144Y-69579648D01*
X128369206Y-69596728D01*
X128344654Y-69611945D01*
X128318488Y-69625299D01*
X128300147Y-69633166D01*
X128281088Y-69640205D01*
X128261312Y-69646416D01*
X128240818Y-69651799D01*
X128219607Y-69656354D01*
X128197679Y-69660081D01*
X128175033Y-69662979D01*
X128151670Y-69665049D01*
X128127589Y-69666292D01*
X128102791Y-69666706D01*
X128077586Y-69666292D01*
X128053141Y-69665049D01*
X128029455Y-69662979D01*
X128006529Y-69660081D01*
X127984362Y-69656354D01*
X127962954Y-69651799D01*
X127942306Y-69646416D01*
X127922417Y-69640205D01*
X127903288Y-69633166D01*
X127884918Y-69625299D01*
X127867308Y-69616603D01*
X127842317Y-69602008D01*
X127819034Y-69585548D01*
X127797460Y-69567226D01*
X127790648Y-69560704D01*
X127771356Y-69539947D01*
X127753960Y-69517611D01*
X127738463Y-69493694D01*
X127724863Y-69468197D01*
X127716851Y-69450322D01*
X127709682Y-69431744D01*
X127703356Y-69412464D01*
X127697874Y-69392482D01*
X127693236Y-69371798D01*
X127689440Y-69350411D01*
X127686488Y-69328323D01*
X127684380Y-69305532D01*
X127683115Y-69282038D01*
X127682693Y-69257843D01*
X127682693Y-67970195D01*
X127346615Y-67970195D01*
X127346615Y-69249539D01*
X127346966Y-69277325D01*
X127348019Y-69304631D01*
X127349775Y-69331456D01*
X127352232Y-69357800D01*
X127355392Y-69383663D01*
X127359254Y-69409045D01*
X127363819Y-69433946D01*
X127369085Y-69458367D01*
X127375054Y-69482306D01*
X127381725Y-69505765D01*
X127389098Y-69528743D01*
X127397173Y-69551240D01*
X127405951Y-69573256D01*
X127415430Y-69594791D01*
X127425612Y-69615846D01*
X127436496Y-69636420D01*
X127447989Y-69656392D01*
X127460119Y-69675766D01*
X127472887Y-69694540D01*
X127486291Y-69712715D01*
X127500333Y-69730291D01*
X127515013Y-69747268D01*
X127530329Y-69763645D01*
X127546283Y-69779424D01*
X127562875Y-69794603D01*
X127580103Y-69809183D01*
X127597969Y-69823164D01*
X127616473Y-69836546D01*
X127635613Y-69849329D01*
X127655391Y-69861512D01*
X127675807Y-69873097D01*
X127696859Y-69884082D01*
X127718423Y-69894374D01*
X127740495Y-69904003D01*
X127763074Y-69912967D01*
X127786160Y-69921268D01*
X127809755Y-69928904D01*
X127833856Y-69935877D01*
X127858466Y-69942185D01*
X127883583Y-69947829D01*
X127909207Y-69952809D01*
X127935339Y-69957126D01*
X127961979Y-69960778D01*
X127989126Y-69963766D01*
X128016781Y-69966090D01*
X128044943Y-69967750D01*
X128073613Y-69968746D01*
X128102791Y-69969078D01*
G37*
G36*
X127095533Y-69930000D02*
G01*
X126504954Y-68941793D01*
X127087229Y-67970195D01*
X126703768Y-67970195D01*
X126286601Y-68703412D01*
X126238729Y-68703412D01*
X125824493Y-67970195D01*
X125438101Y-67970195D01*
X126020376Y-68941793D01*
X125432728Y-69930000D01*
X125816189Y-69930000D01*
X126238729Y-69179685D01*
X126286601Y-69179685D01*
X126709141Y-69930000D01*
X127095533Y-69930000D01*
G37*
G36*
X125171877Y-69930000D02*
G01*
X124833356Y-69930000D01*
X124833356Y-69196294D01*
X124379553Y-69196294D01*
X124357292Y-69196010D01*
X124335330Y-69195157D01*
X124313664Y-69193735D01*
X124292297Y-69191745D01*
X124271227Y-69189186D01*
X124250455Y-69186059D01*
X124229981Y-69182363D01*
X124209804Y-69178098D01*
X124189925Y-69173265D01*
X124170343Y-69167863D01*
X124151060Y-69161892D01*
X124132074Y-69155353D01*
X124113385Y-69148245D01*
X124094995Y-69140568D01*
X124076902Y-69132323D01*
X124059106Y-69123510D01*
X124050340Y-69118900D01*
X124033152Y-69109322D01*
X124008227Y-69094052D01*
X123984333Y-69077700D01*
X123961470Y-69060266D01*
X123939637Y-69041750D01*
X123918834Y-69022153D01*
X123899062Y-69001473D01*
X123880320Y-68979712D01*
X123862609Y-68956868D01*
X123845928Y-68932943D01*
X123835380Y-68916392D01*
X123825324Y-68899424D01*
X123815917Y-68882106D01*
X123807158Y-68864437D01*
X123799049Y-68846416D01*
X123791588Y-68828044D01*
X123784776Y-68809322D01*
X123778612Y-68790248D01*
X123773098Y-68770823D01*
X123768232Y-68751047D01*
X123764015Y-68730920D01*
X123760447Y-68710442D01*
X123757527Y-68689612D01*
X123755257Y-68668432D01*
X123753635Y-68646900D01*
X123752662Y-68625018D01*
X123752337Y-68602784D01*
X123752337Y-68597411D01*
X124091346Y-68597411D01*
X124091692Y-68614280D01*
X124093505Y-68638734D01*
X124096872Y-68662165D01*
X124101794Y-68684575D01*
X124108270Y-68705963D01*
X124116300Y-68726329D01*
X124125884Y-68745674D01*
X124137022Y-68763996D01*
X124149715Y-68781297D01*
X124163961Y-68797576D01*
X124179762Y-68812833D01*
X124190978Y-68822297D01*
X124208647Y-68835349D01*
X124227328Y-68847027D01*
X124247023Y-68857331D01*
X124267732Y-68866261D01*
X124289453Y-68873817D01*
X124312188Y-68880000D01*
X124335935Y-68884808D01*
X124360696Y-68888243D01*
X124386471Y-68890303D01*
X124413258Y-68890990D01*
X124833356Y-68890990D01*
X124833356Y-68275010D01*
X124413258Y-68275010D01*
X124394938Y-68275317D01*
X124368367Y-68276930D01*
X124342886Y-68279925D01*
X124318495Y-68284303D01*
X124295195Y-68290063D01*
X124272986Y-68297206D01*
X124251867Y-68305731D01*
X124231839Y-68315639D01*
X124212901Y-68326929D01*
X124195054Y-68339601D01*
X124178297Y-68353656D01*
X124167767Y-68363657D01*
X124153247Y-68379523D01*
X124140256Y-68396429D01*
X124128793Y-68414374D01*
X124118858Y-68433358D01*
X124110452Y-68453380D01*
X124103574Y-68474442D01*
X124098224Y-68496543D01*
X124094403Y-68519682D01*
X124092110Y-68543861D01*
X124091346Y-68569078D01*
X124091346Y-68597411D01*
X123752337Y-68597411D01*
X123752337Y-68563705D01*
X123752656Y-68541122D01*
X123753612Y-68518925D01*
X123755205Y-68497113D01*
X123757436Y-68475686D01*
X123760304Y-68454645D01*
X123763809Y-68433989D01*
X123767951Y-68413719D01*
X123772731Y-68393834D01*
X123778149Y-68374335D01*
X123784203Y-68355221D01*
X123790895Y-68336492D01*
X123798224Y-68318149D01*
X123806191Y-68300192D01*
X123819336Y-68273978D01*
X123833914Y-68248632D01*
X123849638Y-68224247D01*
X123866400Y-68200919D01*
X123884202Y-68178646D01*
X123903043Y-68157430D01*
X123922922Y-68137270D01*
X123943841Y-68118166D01*
X123965798Y-68100118D01*
X123988795Y-68083127D01*
X124012830Y-68067191D01*
X124037905Y-68052312D01*
X124055198Y-68042979D01*
X124072837Y-68034166D01*
X124090827Y-68025920D01*
X124109168Y-68018244D01*
X124127861Y-68011136D01*
X124146904Y-68004597D01*
X124166298Y-67998626D01*
X124186044Y-67993224D01*
X124206140Y-67988391D01*
X124226588Y-67984126D01*
X124247387Y-67980430D01*
X124268537Y-67977303D01*
X124290038Y-67974744D01*
X124311890Y-67972754D01*
X124334093Y-67971332D01*
X124356647Y-67970479D01*
X124379553Y-67970195D01*
X125171877Y-67970195D01*
X125171877Y-69930000D01*
G37*
G36*
X123775296Y-69930000D02*
G01*
X123428471Y-69930000D01*
X123310746Y-69482058D01*
X122579971Y-69482058D01*
X122462246Y-69930000D01*
X122114933Y-69930000D01*
X122322448Y-69173824D01*
X122658129Y-69173824D01*
X123232100Y-69173824D01*
X122969295Y-68180244D01*
X122921423Y-68180244D01*
X122658129Y-69173824D01*
X122322448Y-69173824D01*
X122652756Y-67970195D01*
X123237962Y-67970195D01*
X123775296Y-69930000D01*
G37*
G36*
X121930285Y-68266706D02*
G01*
X121667480Y-68266706D01*
X121667480Y-69633000D01*
X121930285Y-69633000D01*
X121930285Y-69930000D01*
X121132588Y-69930000D01*
X121108253Y-69929805D01*
X121084280Y-69929223D01*
X121060668Y-69928252D01*
X121037418Y-69926893D01*
X121014529Y-69925146D01*
X120992002Y-69923010D01*
X120969836Y-69920486D01*
X120948032Y-69917574D01*
X120926590Y-69914273D01*
X120905509Y-69910584D01*
X120884790Y-69906507D01*
X120864433Y-69902041D01*
X120844437Y-69897187D01*
X120824802Y-69891945D01*
X120805530Y-69886315D01*
X120786618Y-69880296D01*
X120749881Y-69867094D01*
X120714590Y-69852338D01*
X120680745Y-69836029D01*
X120648346Y-69818167D01*
X120617394Y-69798751D01*
X120587889Y-69777783D01*
X120559829Y-69755261D01*
X120533216Y-69731186D01*
X120520474Y-69718566D01*
X120496202Y-69692161D01*
X120473549Y-69664203D01*
X120452513Y-69634691D01*
X120433096Y-69603627D01*
X120415297Y-69571009D01*
X120399116Y-69536838D01*
X120384553Y-69501113D01*
X120377878Y-69482669D01*
X120371608Y-69463836D01*
X120365742Y-69444615D01*
X120360281Y-69425005D01*
X120355224Y-69405007D01*
X120350572Y-69384621D01*
X120346325Y-69363846D01*
X120342482Y-69342684D01*
X120339043Y-69321133D01*
X120336009Y-69299193D01*
X120333380Y-69276866D01*
X120331155Y-69254149D01*
X120329335Y-69231045D01*
X120327919Y-69207553D01*
X120326908Y-69183672D01*
X120326301Y-69159402D01*
X120326190Y-69145980D01*
X120662177Y-69145980D01*
X120662625Y-69174617D01*
X120663970Y-69202400D01*
X120666212Y-69229328D01*
X120669351Y-69255401D01*
X120673387Y-69280619D01*
X120678320Y-69304982D01*
X120684149Y-69328490D01*
X120690875Y-69351144D01*
X120698498Y-69372943D01*
X120707018Y-69393886D01*
X120716435Y-69413975D01*
X120726748Y-69433210D01*
X120737959Y-69451589D01*
X120750066Y-69469113D01*
X120763070Y-69485783D01*
X120776971Y-69501598D01*
X120791801Y-69516504D01*
X120807593Y-69530449D01*
X120824346Y-69543432D01*
X120842061Y-69555453D01*
X120860738Y-69566513D01*
X120880377Y-69576611D01*
X120900977Y-69585747D01*
X120922539Y-69593921D01*
X120945063Y-69601134D01*
X120968549Y-69607385D01*
X120992996Y-69612675D01*
X121018405Y-69617002D01*
X121044775Y-69620368D01*
X121072108Y-69622773D01*
X121100402Y-69624215D01*
X121129657Y-69624696D01*
X121331402Y-69624696D01*
X121331402Y-68275010D01*
X121129657Y-68275010D01*
X121100402Y-68275487D01*
X121072108Y-68276918D01*
X121044775Y-68279303D01*
X121018405Y-68282643D01*
X120992996Y-68286936D01*
X120968549Y-68292183D01*
X120945063Y-68298385D01*
X120922539Y-68305540D01*
X120900977Y-68313650D01*
X120880377Y-68322714D01*
X120860738Y-68332731D01*
X120842061Y-68343703D01*
X120824346Y-68355629D01*
X120807593Y-68368509D01*
X120791801Y-68382343D01*
X120776971Y-68397131D01*
X120763070Y-68412790D01*
X120750066Y-68429356D01*
X120737959Y-68446831D01*
X120726748Y-68465214D01*
X120716435Y-68484505D01*
X120707018Y-68504705D01*
X120698498Y-68525813D01*
X120690875Y-68547829D01*
X120684149Y-68570754D01*
X120678320Y-68594586D01*
X120673387Y-68619328D01*
X120669351Y-68644977D01*
X120666212Y-68671534D01*
X120663970Y-68699000D01*
X120662625Y-68727374D01*
X120662177Y-68756657D01*
X120662177Y-69145980D01*
X120326190Y-69145980D01*
X120326098Y-69134745D01*
X120326098Y-68764961D01*
X120326301Y-68740334D01*
X120326908Y-68716093D01*
X120327919Y-68692241D01*
X120329335Y-68668775D01*
X120331155Y-68645697D01*
X120333380Y-68623006D01*
X120336009Y-68600703D01*
X120339043Y-68578787D01*
X120342482Y-68557258D01*
X120346325Y-68536117D01*
X120350572Y-68515363D01*
X120355224Y-68494996D01*
X120360281Y-68475017D01*
X120365742Y-68455425D01*
X120371608Y-68436221D01*
X120377878Y-68417404D01*
X120391632Y-68380931D01*
X120407004Y-68346008D01*
X120423994Y-68312635D01*
X120442602Y-68280811D01*
X120462829Y-68250536D01*
X120484673Y-68221811D01*
X120508136Y-68194635D01*
X120533216Y-68169009D01*
X120546342Y-68156777D01*
X120573678Y-68133478D01*
X120602461Y-68111733D01*
X120632690Y-68091541D01*
X120664365Y-68072902D01*
X120697486Y-68055817D01*
X120732054Y-68040284D01*
X120768069Y-68026305D01*
X120786618Y-68019898D01*
X120805530Y-68013880D01*
X120824802Y-68008249D01*
X120844437Y-68003007D01*
X120864433Y-67998153D01*
X120884790Y-67993688D01*
X120905509Y-67989610D01*
X120926590Y-67985921D01*
X120948032Y-67982621D01*
X120969836Y-67979708D01*
X120992002Y-67977184D01*
X121014529Y-67975049D01*
X121037418Y-67973301D01*
X121060668Y-67971942D01*
X121084280Y-67970972D01*
X121108253Y-67970389D01*
X121132588Y-67970195D01*
X121930285Y-67970195D01*
X121930285Y-68266706D01*
G37*
D12*
X129214285Y-74078928D02*
X129714285Y-73364642D01*
X130071428Y-74078928D02*
X130071428Y-72578928D01*
X130071428Y-72578928D02*
X129499999Y-72578928D01*
X129499999Y-72578928D02*
X129357142Y-72650357D01*
X129357142Y-72650357D02*
X129285713Y-72721785D01*
X129285713Y-72721785D02*
X129214285Y-72864642D01*
X129214285Y-72864642D02*
X129214285Y-73078928D01*
X129214285Y-73078928D02*
X129285713Y-73221785D01*
X129285713Y-73221785D02*
X129357142Y-73293214D01*
X129357142Y-73293214D02*
X129499999Y-73364642D01*
X129499999Y-73364642D02*
X130071428Y-73364642D01*
X128571428Y-73293214D02*
X128071428Y-73293214D01*
X127857142Y-74078928D02*
X128571428Y-74078928D01*
X128571428Y-74078928D02*
X128571428Y-72578928D01*
X128571428Y-72578928D02*
X127857142Y-72578928D01*
X127428570Y-72578928D02*
X126928570Y-74078928D01*
X126928570Y-74078928D02*
X126428570Y-72578928D01*
X124357142Y-72578928D02*
X124357142Y-73650357D01*
X124357142Y-73650357D02*
X124428571Y-73864642D01*
X124428571Y-73864642D02*
X124571428Y-74007500D01*
X124571428Y-74007500D02*
X124785714Y-74078928D01*
X124785714Y-74078928D02*
X124928571Y-74078928D01*
X122857142Y-74078928D02*
X123714285Y-74078928D01*
X123285714Y-74078928D02*
X123285714Y-72578928D01*
X123285714Y-72578928D02*
X123428571Y-72793214D01*
X123428571Y-72793214D02*
X123571428Y-72936071D01*
X123571428Y-72936071D02*
X123714285Y-73007500D01*
X128821428Y-75008928D02*
X127964286Y-75008928D01*
X128392857Y-76508928D02*
X128392857Y-75008928D01*
X127464286Y-76366071D02*
X127392857Y-76437500D01*
X127392857Y-76437500D02*
X127464286Y-76508928D01*
X127464286Y-76508928D02*
X127535714Y-76437500D01*
X127535714Y-76437500D02*
X127464286Y-76366071D01*
X127464286Y-76366071D02*
X127464286Y-76508928D01*
X126892857Y-75008928D02*
X126535714Y-76508928D01*
X126535714Y-76508928D02*
X126250000Y-75437500D01*
X126250000Y-75437500D02*
X125964285Y-76508928D01*
X125964285Y-76508928D02*
X125607143Y-75008928D01*
X124392857Y-75508928D02*
X124392857Y-76508928D01*
X125035714Y-75508928D02*
X125035714Y-76294642D01*
X125035714Y-76294642D02*
X124964285Y-76437500D01*
X124964285Y-76437500D02*
X124821428Y-76508928D01*
X124821428Y-76508928D02*
X124607142Y-76508928D01*
X124607142Y-76508928D02*
X124464285Y-76437500D01*
X124464285Y-76437500D02*
X124392857Y-76366071D01*
D13*
%TO.C,U2*%
X111261904Y-112162619D02*
X111261904Y-112972142D01*
X111261904Y-112972142D02*
X111214285Y-113067380D01*
X111214285Y-113067380D02*
X111166666Y-113115000D01*
X111166666Y-113115000D02*
X111071428Y-113162619D01*
X111071428Y-113162619D02*
X110880952Y-113162619D01*
X110880952Y-113162619D02*
X110785714Y-113115000D01*
X110785714Y-113115000D02*
X110738095Y-113067380D01*
X110738095Y-113067380D02*
X110690476Y-112972142D01*
X110690476Y-112972142D02*
X110690476Y-112162619D01*
X110261904Y-112257857D02*
X110214285Y-112210238D01*
X110214285Y-112210238D02*
X110119047Y-112162619D01*
X110119047Y-112162619D02*
X109880952Y-112162619D01*
X109880952Y-112162619D02*
X109785714Y-112210238D01*
X109785714Y-112210238D02*
X109738095Y-112257857D01*
X109738095Y-112257857D02*
X109690476Y-112353095D01*
X109690476Y-112353095D02*
X109690476Y-112448333D01*
X109690476Y-112448333D02*
X109738095Y-112591190D01*
X109738095Y-112591190D02*
X110309523Y-113162619D01*
X110309523Y-113162619D02*
X109690476Y-113162619D01*
%TO.C,U3*%
X130261904Y-112162619D02*
X130261904Y-112972142D01*
X130261904Y-112972142D02*
X130214285Y-113067380D01*
X130214285Y-113067380D02*
X130166666Y-113115000D01*
X130166666Y-113115000D02*
X130071428Y-113162619D01*
X130071428Y-113162619D02*
X129880952Y-113162619D01*
X129880952Y-113162619D02*
X129785714Y-113115000D01*
X129785714Y-113115000D02*
X129738095Y-113067380D01*
X129738095Y-113067380D02*
X129690476Y-112972142D01*
X129690476Y-112972142D02*
X129690476Y-112162619D01*
X129309523Y-112162619D02*
X128690476Y-112162619D01*
X128690476Y-112162619D02*
X129023809Y-112543571D01*
X129023809Y-112543571D02*
X128880952Y-112543571D01*
X128880952Y-112543571D02*
X128785714Y-112591190D01*
X128785714Y-112591190D02*
X128738095Y-112638809D01*
X128738095Y-112638809D02*
X128690476Y-112734047D01*
X128690476Y-112734047D02*
X128690476Y-112972142D01*
X128690476Y-112972142D02*
X128738095Y-113067380D01*
X128738095Y-113067380D02*
X128785714Y-113115000D01*
X128785714Y-113115000D02*
X128880952Y-113162619D01*
X128880952Y-113162619D02*
X129166666Y-113162619D01*
X129166666Y-113162619D02*
X129261904Y-113115000D01*
X129261904Y-113115000D02*
X129309523Y-113067380D01*
%TO.C,TP_SW4*%
X135840475Y-105812619D02*
X135269047Y-105812619D01*
X135554761Y-106812619D02*
X135554761Y-105812619D01*
X134935713Y-106812619D02*
X134935713Y-105812619D01*
X134935713Y-105812619D02*
X134554761Y-105812619D01*
X134554761Y-105812619D02*
X134459523Y-105860238D01*
X134459523Y-105860238D02*
X134411904Y-105907857D01*
X134411904Y-105907857D02*
X134364285Y-106003095D01*
X134364285Y-106003095D02*
X134364285Y-106145952D01*
X134364285Y-106145952D02*
X134411904Y-106241190D01*
X134411904Y-106241190D02*
X134459523Y-106288809D01*
X134459523Y-106288809D02*
X134554761Y-106336428D01*
X134554761Y-106336428D02*
X134935713Y-106336428D01*
X134173809Y-106907857D02*
X133411904Y-106907857D01*
X133221427Y-106765000D02*
X133078570Y-106812619D01*
X133078570Y-106812619D02*
X132840475Y-106812619D01*
X132840475Y-106812619D02*
X132745237Y-106765000D01*
X132745237Y-106765000D02*
X132697618Y-106717380D01*
X132697618Y-106717380D02*
X132649999Y-106622142D01*
X132649999Y-106622142D02*
X132649999Y-106526904D01*
X132649999Y-106526904D02*
X132697618Y-106431666D01*
X132697618Y-106431666D02*
X132745237Y-106384047D01*
X132745237Y-106384047D02*
X132840475Y-106336428D01*
X132840475Y-106336428D02*
X133030951Y-106288809D01*
X133030951Y-106288809D02*
X133126189Y-106241190D01*
X133126189Y-106241190D02*
X133173808Y-106193571D01*
X133173808Y-106193571D02*
X133221427Y-106098333D01*
X133221427Y-106098333D02*
X133221427Y-106003095D01*
X133221427Y-106003095D02*
X133173808Y-105907857D01*
X133173808Y-105907857D02*
X133126189Y-105860238D01*
X133126189Y-105860238D02*
X133030951Y-105812619D01*
X133030951Y-105812619D02*
X132792856Y-105812619D01*
X132792856Y-105812619D02*
X132649999Y-105860238D01*
X132316665Y-105812619D02*
X132078570Y-106812619D01*
X132078570Y-106812619D02*
X131888094Y-106098333D01*
X131888094Y-106098333D02*
X131697618Y-106812619D01*
X131697618Y-106812619D02*
X131459523Y-105812619D01*
X130649999Y-106145952D02*
X130649999Y-106812619D01*
X130888094Y-105765000D02*
X131126189Y-106479285D01*
X131126189Y-106479285D02*
X130507142Y-106479285D01*
%TO.C,TP_SW1*%
X106690475Y-98014619D02*
X106119047Y-98014619D01*
X106404761Y-99014619D02*
X106404761Y-98014619D01*
X105785713Y-99014619D02*
X105785713Y-98014619D01*
X105785713Y-98014619D02*
X105404761Y-98014619D01*
X105404761Y-98014619D02*
X105309523Y-98062238D01*
X105309523Y-98062238D02*
X105261904Y-98109857D01*
X105261904Y-98109857D02*
X105214285Y-98205095D01*
X105214285Y-98205095D02*
X105214285Y-98347952D01*
X105214285Y-98347952D02*
X105261904Y-98443190D01*
X105261904Y-98443190D02*
X105309523Y-98490809D01*
X105309523Y-98490809D02*
X105404761Y-98538428D01*
X105404761Y-98538428D02*
X105785713Y-98538428D01*
X105023809Y-99109857D02*
X104261904Y-99109857D01*
X104071427Y-98967000D02*
X103928570Y-99014619D01*
X103928570Y-99014619D02*
X103690475Y-99014619D01*
X103690475Y-99014619D02*
X103595237Y-98967000D01*
X103595237Y-98967000D02*
X103547618Y-98919380D01*
X103547618Y-98919380D02*
X103499999Y-98824142D01*
X103499999Y-98824142D02*
X103499999Y-98728904D01*
X103499999Y-98728904D02*
X103547618Y-98633666D01*
X103547618Y-98633666D02*
X103595237Y-98586047D01*
X103595237Y-98586047D02*
X103690475Y-98538428D01*
X103690475Y-98538428D02*
X103880951Y-98490809D01*
X103880951Y-98490809D02*
X103976189Y-98443190D01*
X103976189Y-98443190D02*
X104023808Y-98395571D01*
X104023808Y-98395571D02*
X104071427Y-98300333D01*
X104071427Y-98300333D02*
X104071427Y-98205095D01*
X104071427Y-98205095D02*
X104023808Y-98109857D01*
X104023808Y-98109857D02*
X103976189Y-98062238D01*
X103976189Y-98062238D02*
X103880951Y-98014619D01*
X103880951Y-98014619D02*
X103642856Y-98014619D01*
X103642856Y-98014619D02*
X103499999Y-98062238D01*
X103166665Y-98014619D02*
X102928570Y-99014619D01*
X102928570Y-99014619D02*
X102738094Y-98300333D01*
X102738094Y-98300333D02*
X102547618Y-99014619D01*
X102547618Y-99014619D02*
X102309523Y-98014619D01*
X101404761Y-99014619D02*
X101976189Y-99014619D01*
X101690475Y-99014619D02*
X101690475Y-98014619D01*
X101690475Y-98014619D02*
X101785713Y-98157476D01*
X101785713Y-98157476D02*
X101880951Y-98252714D01*
X101880951Y-98252714D02*
X101976189Y-98300333D01*
%TO.C,R1*%
X115666666Y-102892619D02*
X115999999Y-102416428D01*
X116238094Y-102892619D02*
X116238094Y-101892619D01*
X116238094Y-101892619D02*
X115857142Y-101892619D01*
X115857142Y-101892619D02*
X115761904Y-101940238D01*
X115761904Y-101940238D02*
X115714285Y-101987857D01*
X115714285Y-101987857D02*
X115666666Y-102083095D01*
X115666666Y-102083095D02*
X115666666Y-102225952D01*
X115666666Y-102225952D02*
X115714285Y-102321190D01*
X115714285Y-102321190D02*
X115761904Y-102368809D01*
X115761904Y-102368809D02*
X115857142Y-102416428D01*
X115857142Y-102416428D02*
X116238094Y-102416428D01*
X114714285Y-102892619D02*
X115285713Y-102892619D01*
X114999999Y-102892619D02*
X114999999Y-101892619D01*
X114999999Y-101892619D02*
X115095237Y-102035476D01*
X115095237Y-102035476D02*
X115190475Y-102130714D01*
X115190475Y-102130714D02*
X115285713Y-102178333D01*
%TO.C,C2*%
X127867380Y-107633333D02*
X127915000Y-107585714D01*
X127915000Y-107585714D02*
X127962619Y-107442857D01*
X127962619Y-107442857D02*
X127962619Y-107347619D01*
X127962619Y-107347619D02*
X127915000Y-107204762D01*
X127915000Y-107204762D02*
X127819761Y-107109524D01*
X127819761Y-107109524D02*
X127724523Y-107061905D01*
X127724523Y-107061905D02*
X127534047Y-107014286D01*
X127534047Y-107014286D02*
X127391190Y-107014286D01*
X127391190Y-107014286D02*
X127200714Y-107061905D01*
X127200714Y-107061905D02*
X127105476Y-107109524D01*
X127105476Y-107109524D02*
X127010238Y-107204762D01*
X127010238Y-107204762D02*
X126962619Y-107347619D01*
X126962619Y-107347619D02*
X126962619Y-107442857D01*
X126962619Y-107442857D02*
X127010238Y-107585714D01*
X127010238Y-107585714D02*
X127057857Y-107633333D01*
X127057857Y-108014286D02*
X127010238Y-108061905D01*
X127010238Y-108061905D02*
X126962619Y-108157143D01*
X126962619Y-108157143D02*
X126962619Y-108395238D01*
X126962619Y-108395238D02*
X127010238Y-108490476D01*
X127010238Y-108490476D02*
X127057857Y-108538095D01*
X127057857Y-108538095D02*
X127153095Y-108585714D01*
X127153095Y-108585714D02*
X127248333Y-108585714D01*
X127248333Y-108585714D02*
X127391190Y-108538095D01*
X127391190Y-108538095D02*
X127962619Y-107966667D01*
X127962619Y-107966667D02*
X127962619Y-108585714D01*
%TO.C,R2*%
X134666666Y-102892619D02*
X134999999Y-102416428D01*
X135238094Y-102892619D02*
X135238094Y-101892619D01*
X135238094Y-101892619D02*
X134857142Y-101892619D01*
X134857142Y-101892619D02*
X134761904Y-101940238D01*
X134761904Y-101940238D02*
X134714285Y-101987857D01*
X134714285Y-101987857D02*
X134666666Y-102083095D01*
X134666666Y-102083095D02*
X134666666Y-102225952D01*
X134666666Y-102225952D02*
X134714285Y-102321190D01*
X134714285Y-102321190D02*
X134761904Y-102368809D01*
X134761904Y-102368809D02*
X134857142Y-102416428D01*
X134857142Y-102416428D02*
X135238094Y-102416428D01*
X134285713Y-101987857D02*
X134238094Y-101940238D01*
X134238094Y-101940238D02*
X134142856Y-101892619D01*
X134142856Y-101892619D02*
X133904761Y-101892619D01*
X133904761Y-101892619D02*
X133809523Y-101940238D01*
X133809523Y-101940238D02*
X133761904Y-101987857D01*
X133761904Y-101987857D02*
X133714285Y-102083095D01*
X133714285Y-102083095D02*
X133714285Y-102178333D01*
X133714285Y-102178333D02*
X133761904Y-102321190D01*
X133761904Y-102321190D02*
X134333332Y-102892619D01*
X134333332Y-102892619D02*
X133714285Y-102892619D01*
%TO.C,R5*%
X110962619Y-107733333D02*
X110486428Y-107400000D01*
X110962619Y-107161905D02*
X109962619Y-107161905D01*
X109962619Y-107161905D02*
X109962619Y-107542857D01*
X109962619Y-107542857D02*
X110010238Y-107638095D01*
X110010238Y-107638095D02*
X110057857Y-107685714D01*
X110057857Y-107685714D02*
X110153095Y-107733333D01*
X110153095Y-107733333D02*
X110295952Y-107733333D01*
X110295952Y-107733333D02*
X110391190Y-107685714D01*
X110391190Y-107685714D02*
X110438809Y-107638095D01*
X110438809Y-107638095D02*
X110486428Y-107542857D01*
X110486428Y-107542857D02*
X110486428Y-107161905D01*
X109962619Y-108638095D02*
X109962619Y-108161905D01*
X109962619Y-108161905D02*
X110438809Y-108114286D01*
X110438809Y-108114286D02*
X110391190Y-108161905D01*
X110391190Y-108161905D02*
X110343571Y-108257143D01*
X110343571Y-108257143D02*
X110343571Y-108495238D01*
X110343571Y-108495238D02*
X110391190Y-108590476D01*
X110391190Y-108590476D02*
X110438809Y-108638095D01*
X110438809Y-108638095D02*
X110534047Y-108685714D01*
X110534047Y-108685714D02*
X110772142Y-108685714D01*
X110772142Y-108685714D02*
X110867380Y-108638095D01*
X110867380Y-108638095D02*
X110915000Y-108590476D01*
X110915000Y-108590476D02*
X110962619Y-108495238D01*
X110962619Y-108495238D02*
X110962619Y-108257143D01*
X110962619Y-108257143D02*
X110915000Y-108161905D01*
X110915000Y-108161905D02*
X110867380Y-108114286D01*
%TO.C,D2*%
X126338094Y-101462619D02*
X126338094Y-100462619D01*
X126338094Y-100462619D02*
X126099999Y-100462619D01*
X126099999Y-100462619D02*
X125957142Y-100510238D01*
X125957142Y-100510238D02*
X125861904Y-100605476D01*
X125861904Y-100605476D02*
X125814285Y-100700714D01*
X125814285Y-100700714D02*
X125766666Y-100891190D01*
X125766666Y-100891190D02*
X125766666Y-101034047D01*
X125766666Y-101034047D02*
X125814285Y-101224523D01*
X125814285Y-101224523D02*
X125861904Y-101319761D01*
X125861904Y-101319761D02*
X125957142Y-101415000D01*
X125957142Y-101415000D02*
X126099999Y-101462619D01*
X126099999Y-101462619D02*
X126338094Y-101462619D01*
X125385713Y-100557857D02*
X125338094Y-100510238D01*
X125338094Y-100510238D02*
X125242856Y-100462619D01*
X125242856Y-100462619D02*
X125004761Y-100462619D01*
X125004761Y-100462619D02*
X124909523Y-100510238D01*
X124909523Y-100510238D02*
X124861904Y-100557857D01*
X124861904Y-100557857D02*
X124814285Y-100653095D01*
X124814285Y-100653095D02*
X124814285Y-100748333D01*
X124814285Y-100748333D02*
X124861904Y-100891190D01*
X124861904Y-100891190D02*
X125433332Y-101462619D01*
X125433332Y-101462619D02*
X124814285Y-101462619D01*
%TO.C,D3*%
X107338094Y-120462619D02*
X107338094Y-119462619D01*
X107338094Y-119462619D02*
X107099999Y-119462619D01*
X107099999Y-119462619D02*
X106957142Y-119510238D01*
X106957142Y-119510238D02*
X106861904Y-119605476D01*
X106861904Y-119605476D02*
X106814285Y-119700714D01*
X106814285Y-119700714D02*
X106766666Y-119891190D01*
X106766666Y-119891190D02*
X106766666Y-120034047D01*
X106766666Y-120034047D02*
X106814285Y-120224523D01*
X106814285Y-120224523D02*
X106861904Y-120319761D01*
X106861904Y-120319761D02*
X106957142Y-120415000D01*
X106957142Y-120415000D02*
X107099999Y-120462619D01*
X107099999Y-120462619D02*
X107338094Y-120462619D01*
X106433332Y-119462619D02*
X105814285Y-119462619D01*
X105814285Y-119462619D02*
X106147618Y-119843571D01*
X106147618Y-119843571D02*
X106004761Y-119843571D01*
X106004761Y-119843571D02*
X105909523Y-119891190D01*
X105909523Y-119891190D02*
X105861904Y-119938809D01*
X105861904Y-119938809D02*
X105814285Y-120034047D01*
X105814285Y-120034047D02*
X105814285Y-120272142D01*
X105814285Y-120272142D02*
X105861904Y-120367380D01*
X105861904Y-120367380D02*
X105909523Y-120415000D01*
X105909523Y-120415000D02*
X106004761Y-120462619D01*
X106004761Y-120462619D02*
X106290475Y-120462619D01*
X106290475Y-120462619D02*
X106385713Y-120415000D01*
X106385713Y-120415000D02*
X106433332Y-120367380D01*
%TO.C,TP_SW3*%
X116990475Y-105812619D02*
X116419047Y-105812619D01*
X116704761Y-106812619D02*
X116704761Y-105812619D01*
X116085713Y-106812619D02*
X116085713Y-105812619D01*
X116085713Y-105812619D02*
X115704761Y-105812619D01*
X115704761Y-105812619D02*
X115609523Y-105860238D01*
X115609523Y-105860238D02*
X115561904Y-105907857D01*
X115561904Y-105907857D02*
X115514285Y-106003095D01*
X115514285Y-106003095D02*
X115514285Y-106145952D01*
X115514285Y-106145952D02*
X115561904Y-106241190D01*
X115561904Y-106241190D02*
X115609523Y-106288809D01*
X115609523Y-106288809D02*
X115704761Y-106336428D01*
X115704761Y-106336428D02*
X116085713Y-106336428D01*
X115323809Y-106907857D02*
X114561904Y-106907857D01*
X114371427Y-106765000D02*
X114228570Y-106812619D01*
X114228570Y-106812619D02*
X113990475Y-106812619D01*
X113990475Y-106812619D02*
X113895237Y-106765000D01*
X113895237Y-106765000D02*
X113847618Y-106717380D01*
X113847618Y-106717380D02*
X113799999Y-106622142D01*
X113799999Y-106622142D02*
X113799999Y-106526904D01*
X113799999Y-106526904D02*
X113847618Y-106431666D01*
X113847618Y-106431666D02*
X113895237Y-106384047D01*
X113895237Y-106384047D02*
X113990475Y-106336428D01*
X113990475Y-106336428D02*
X114180951Y-106288809D01*
X114180951Y-106288809D02*
X114276189Y-106241190D01*
X114276189Y-106241190D02*
X114323808Y-106193571D01*
X114323808Y-106193571D02*
X114371427Y-106098333D01*
X114371427Y-106098333D02*
X114371427Y-106003095D01*
X114371427Y-106003095D02*
X114323808Y-105907857D01*
X114323808Y-105907857D02*
X114276189Y-105860238D01*
X114276189Y-105860238D02*
X114180951Y-105812619D01*
X114180951Y-105812619D02*
X113942856Y-105812619D01*
X113942856Y-105812619D02*
X113799999Y-105860238D01*
X113466665Y-105812619D02*
X113228570Y-106812619D01*
X113228570Y-106812619D02*
X113038094Y-106098333D01*
X113038094Y-106098333D02*
X112847618Y-106812619D01*
X112847618Y-106812619D02*
X112609523Y-105812619D01*
X112323808Y-105812619D02*
X111704761Y-105812619D01*
X111704761Y-105812619D02*
X112038094Y-106193571D01*
X112038094Y-106193571D02*
X111895237Y-106193571D01*
X111895237Y-106193571D02*
X111799999Y-106241190D01*
X111799999Y-106241190D02*
X111752380Y-106288809D01*
X111752380Y-106288809D02*
X111704761Y-106384047D01*
X111704761Y-106384047D02*
X111704761Y-106622142D01*
X111704761Y-106622142D02*
X111752380Y-106717380D01*
X111752380Y-106717380D02*
X111799999Y-106765000D01*
X111799999Y-106765000D02*
X111895237Y-106812619D01*
X111895237Y-106812619D02*
X112180951Y-106812619D01*
X112180951Y-106812619D02*
X112276189Y-106765000D01*
X112276189Y-106765000D02*
X112323808Y-106717380D01*
%TO.C,R6*%
X129962619Y-107733333D02*
X129486428Y-107400000D01*
X129962619Y-107161905D02*
X128962619Y-107161905D01*
X128962619Y-107161905D02*
X128962619Y-107542857D01*
X128962619Y-107542857D02*
X129010238Y-107638095D01*
X129010238Y-107638095D02*
X129057857Y-107685714D01*
X129057857Y-107685714D02*
X129153095Y-107733333D01*
X129153095Y-107733333D02*
X129295952Y-107733333D01*
X129295952Y-107733333D02*
X129391190Y-107685714D01*
X129391190Y-107685714D02*
X129438809Y-107638095D01*
X129438809Y-107638095D02*
X129486428Y-107542857D01*
X129486428Y-107542857D02*
X129486428Y-107161905D01*
X128962619Y-108590476D02*
X128962619Y-108400000D01*
X128962619Y-108400000D02*
X129010238Y-108304762D01*
X129010238Y-108304762D02*
X129057857Y-108257143D01*
X129057857Y-108257143D02*
X129200714Y-108161905D01*
X129200714Y-108161905D02*
X129391190Y-108114286D01*
X129391190Y-108114286D02*
X129772142Y-108114286D01*
X129772142Y-108114286D02*
X129867380Y-108161905D01*
X129867380Y-108161905D02*
X129915000Y-108209524D01*
X129915000Y-108209524D02*
X129962619Y-108304762D01*
X129962619Y-108304762D02*
X129962619Y-108495238D01*
X129962619Y-108495238D02*
X129915000Y-108590476D01*
X129915000Y-108590476D02*
X129867380Y-108638095D01*
X129867380Y-108638095D02*
X129772142Y-108685714D01*
X129772142Y-108685714D02*
X129534047Y-108685714D01*
X129534047Y-108685714D02*
X129438809Y-108638095D01*
X129438809Y-108638095D02*
X129391190Y-108590476D01*
X129391190Y-108590476D02*
X129343571Y-108495238D01*
X129343571Y-108495238D02*
X129343571Y-108304762D01*
X129343571Y-108304762D02*
X129391190Y-108209524D01*
X129391190Y-108209524D02*
X129438809Y-108161905D01*
X129438809Y-108161905D02*
X129534047Y-108114286D01*
%TO.C,C4*%
X133517380Y-110333333D02*
X133565000Y-110285714D01*
X133565000Y-110285714D02*
X133612619Y-110142857D01*
X133612619Y-110142857D02*
X133612619Y-110047619D01*
X133612619Y-110047619D02*
X133565000Y-109904762D01*
X133565000Y-109904762D02*
X133469761Y-109809524D01*
X133469761Y-109809524D02*
X133374523Y-109761905D01*
X133374523Y-109761905D02*
X133184047Y-109714286D01*
X133184047Y-109714286D02*
X133041190Y-109714286D01*
X133041190Y-109714286D02*
X132850714Y-109761905D01*
X132850714Y-109761905D02*
X132755476Y-109809524D01*
X132755476Y-109809524D02*
X132660238Y-109904762D01*
X132660238Y-109904762D02*
X132612619Y-110047619D01*
X132612619Y-110047619D02*
X132612619Y-110142857D01*
X132612619Y-110142857D02*
X132660238Y-110285714D01*
X132660238Y-110285714D02*
X132707857Y-110333333D01*
X132945952Y-111190476D02*
X133612619Y-111190476D01*
X132565000Y-110952381D02*
X133279285Y-110714286D01*
X133279285Y-110714286D02*
X133279285Y-111333333D01*
%TO.C,D4*%
X126338094Y-120462619D02*
X126338094Y-119462619D01*
X126338094Y-119462619D02*
X126099999Y-119462619D01*
X126099999Y-119462619D02*
X125957142Y-119510238D01*
X125957142Y-119510238D02*
X125861904Y-119605476D01*
X125861904Y-119605476D02*
X125814285Y-119700714D01*
X125814285Y-119700714D02*
X125766666Y-119891190D01*
X125766666Y-119891190D02*
X125766666Y-120034047D01*
X125766666Y-120034047D02*
X125814285Y-120224523D01*
X125814285Y-120224523D02*
X125861904Y-120319761D01*
X125861904Y-120319761D02*
X125957142Y-120415000D01*
X125957142Y-120415000D02*
X126099999Y-120462619D01*
X126099999Y-120462619D02*
X126338094Y-120462619D01*
X124909523Y-119795952D02*
X124909523Y-120462619D01*
X125147618Y-119415000D02*
X125385713Y-120129285D01*
X125385713Y-120129285D02*
X124766666Y-120129285D01*
%TO.C,TP_SW2*%
X125690475Y-98014619D02*
X125119047Y-98014619D01*
X125404761Y-99014619D02*
X125404761Y-98014619D01*
X124785713Y-99014619D02*
X124785713Y-98014619D01*
X124785713Y-98014619D02*
X124404761Y-98014619D01*
X124404761Y-98014619D02*
X124309523Y-98062238D01*
X124309523Y-98062238D02*
X124261904Y-98109857D01*
X124261904Y-98109857D02*
X124214285Y-98205095D01*
X124214285Y-98205095D02*
X124214285Y-98347952D01*
X124214285Y-98347952D02*
X124261904Y-98443190D01*
X124261904Y-98443190D02*
X124309523Y-98490809D01*
X124309523Y-98490809D02*
X124404761Y-98538428D01*
X124404761Y-98538428D02*
X124785713Y-98538428D01*
X124023809Y-99109857D02*
X123261904Y-99109857D01*
X123071427Y-98967000D02*
X122928570Y-99014619D01*
X122928570Y-99014619D02*
X122690475Y-99014619D01*
X122690475Y-99014619D02*
X122595237Y-98967000D01*
X122595237Y-98967000D02*
X122547618Y-98919380D01*
X122547618Y-98919380D02*
X122499999Y-98824142D01*
X122499999Y-98824142D02*
X122499999Y-98728904D01*
X122499999Y-98728904D02*
X122547618Y-98633666D01*
X122547618Y-98633666D02*
X122595237Y-98586047D01*
X122595237Y-98586047D02*
X122690475Y-98538428D01*
X122690475Y-98538428D02*
X122880951Y-98490809D01*
X122880951Y-98490809D02*
X122976189Y-98443190D01*
X122976189Y-98443190D02*
X123023808Y-98395571D01*
X123023808Y-98395571D02*
X123071427Y-98300333D01*
X123071427Y-98300333D02*
X123071427Y-98205095D01*
X123071427Y-98205095D02*
X123023808Y-98109857D01*
X123023808Y-98109857D02*
X122976189Y-98062238D01*
X122976189Y-98062238D02*
X122880951Y-98014619D01*
X122880951Y-98014619D02*
X122642856Y-98014619D01*
X122642856Y-98014619D02*
X122499999Y-98062238D01*
X122166665Y-98014619D02*
X121928570Y-99014619D01*
X121928570Y-99014619D02*
X121738094Y-98300333D01*
X121738094Y-98300333D02*
X121547618Y-99014619D01*
X121547618Y-99014619D02*
X121309523Y-98014619D01*
X120976189Y-98109857D02*
X120928570Y-98062238D01*
X120928570Y-98062238D02*
X120833332Y-98014619D01*
X120833332Y-98014619D02*
X120595237Y-98014619D01*
X120595237Y-98014619D02*
X120499999Y-98062238D01*
X120499999Y-98062238D02*
X120452380Y-98109857D01*
X120452380Y-98109857D02*
X120404761Y-98205095D01*
X120404761Y-98205095D02*
X120404761Y-98300333D01*
X120404761Y-98300333D02*
X120452380Y-98443190D01*
X120452380Y-98443190D02*
X121023808Y-99014619D01*
X121023808Y-99014619D02*
X120404761Y-99014619D01*
%TO.C,C3*%
X114467380Y-110333333D02*
X114515000Y-110285714D01*
X114515000Y-110285714D02*
X114562619Y-110142857D01*
X114562619Y-110142857D02*
X114562619Y-110047619D01*
X114562619Y-110047619D02*
X114515000Y-109904762D01*
X114515000Y-109904762D02*
X114419761Y-109809524D01*
X114419761Y-109809524D02*
X114324523Y-109761905D01*
X114324523Y-109761905D02*
X114134047Y-109714286D01*
X114134047Y-109714286D02*
X113991190Y-109714286D01*
X113991190Y-109714286D02*
X113800714Y-109761905D01*
X113800714Y-109761905D02*
X113705476Y-109809524D01*
X113705476Y-109809524D02*
X113610238Y-109904762D01*
X113610238Y-109904762D02*
X113562619Y-110047619D01*
X113562619Y-110047619D02*
X113562619Y-110142857D01*
X113562619Y-110142857D02*
X113610238Y-110285714D01*
X113610238Y-110285714D02*
X113657857Y-110333333D01*
X113562619Y-110666667D02*
X113562619Y-111285714D01*
X113562619Y-111285714D02*
X113943571Y-110952381D01*
X113943571Y-110952381D02*
X113943571Y-111095238D01*
X113943571Y-111095238D02*
X113991190Y-111190476D01*
X113991190Y-111190476D02*
X114038809Y-111238095D01*
X114038809Y-111238095D02*
X114134047Y-111285714D01*
X114134047Y-111285714D02*
X114372142Y-111285714D01*
X114372142Y-111285714D02*
X114467380Y-111238095D01*
X114467380Y-111238095D02*
X114515000Y-111190476D01*
X114515000Y-111190476D02*
X114562619Y-111095238D01*
X114562619Y-111095238D02*
X114562619Y-110809524D01*
X114562619Y-110809524D02*
X114515000Y-110714286D01*
X114515000Y-110714286D02*
X114467380Y-110666667D01*
%TO.C,D1*%
X107438094Y-101462619D02*
X107438094Y-100462619D01*
X107438094Y-100462619D02*
X107199999Y-100462619D01*
X107199999Y-100462619D02*
X107057142Y-100510238D01*
X107057142Y-100510238D02*
X106961904Y-100605476D01*
X106961904Y-100605476D02*
X106914285Y-100700714D01*
X106914285Y-100700714D02*
X106866666Y-100891190D01*
X106866666Y-100891190D02*
X106866666Y-101034047D01*
X106866666Y-101034047D02*
X106914285Y-101224523D01*
X106914285Y-101224523D02*
X106961904Y-101319761D01*
X106961904Y-101319761D02*
X107057142Y-101415000D01*
X107057142Y-101415000D02*
X107199999Y-101462619D01*
X107199999Y-101462619D02*
X107438094Y-101462619D01*
X105914285Y-101462619D02*
X106485713Y-101462619D01*
X106199999Y-101462619D02*
X106199999Y-100462619D01*
X106199999Y-100462619D02*
X106295237Y-100605476D01*
X106295237Y-100605476D02*
X106390475Y-100700714D01*
X106390475Y-100700714D02*
X106485713Y-100748333D01*
%TO.C,R3*%
X115666666Y-121892619D02*
X115999999Y-121416428D01*
X116238094Y-121892619D02*
X116238094Y-120892619D01*
X116238094Y-120892619D02*
X115857142Y-120892619D01*
X115857142Y-120892619D02*
X115761904Y-120940238D01*
X115761904Y-120940238D02*
X115714285Y-120987857D01*
X115714285Y-120987857D02*
X115666666Y-121083095D01*
X115666666Y-121083095D02*
X115666666Y-121225952D01*
X115666666Y-121225952D02*
X115714285Y-121321190D01*
X115714285Y-121321190D02*
X115761904Y-121368809D01*
X115761904Y-121368809D02*
X115857142Y-121416428D01*
X115857142Y-121416428D02*
X116238094Y-121416428D01*
X115333332Y-120892619D02*
X114714285Y-120892619D01*
X114714285Y-120892619D02*
X115047618Y-121273571D01*
X115047618Y-121273571D02*
X114904761Y-121273571D01*
X114904761Y-121273571D02*
X114809523Y-121321190D01*
X114809523Y-121321190D02*
X114761904Y-121368809D01*
X114761904Y-121368809D02*
X114714285Y-121464047D01*
X114714285Y-121464047D02*
X114714285Y-121702142D01*
X114714285Y-121702142D02*
X114761904Y-121797380D01*
X114761904Y-121797380D02*
X114809523Y-121845000D01*
X114809523Y-121845000D02*
X114904761Y-121892619D01*
X114904761Y-121892619D02*
X115190475Y-121892619D01*
X115190475Y-121892619D02*
X115285713Y-121845000D01*
X115285713Y-121845000D02*
X115333332Y-121797380D01*
%TO.C,C1*%
X108867380Y-107733333D02*
X108915000Y-107685714D01*
X108915000Y-107685714D02*
X108962619Y-107542857D01*
X108962619Y-107542857D02*
X108962619Y-107447619D01*
X108962619Y-107447619D02*
X108915000Y-107304762D01*
X108915000Y-107304762D02*
X108819761Y-107209524D01*
X108819761Y-107209524D02*
X108724523Y-107161905D01*
X108724523Y-107161905D02*
X108534047Y-107114286D01*
X108534047Y-107114286D02*
X108391190Y-107114286D01*
X108391190Y-107114286D02*
X108200714Y-107161905D01*
X108200714Y-107161905D02*
X108105476Y-107209524D01*
X108105476Y-107209524D02*
X108010238Y-107304762D01*
X108010238Y-107304762D02*
X107962619Y-107447619D01*
X107962619Y-107447619D02*
X107962619Y-107542857D01*
X107962619Y-107542857D02*
X108010238Y-107685714D01*
X108010238Y-107685714D02*
X108057857Y-107733333D01*
X108962619Y-108685714D02*
X108962619Y-108114286D01*
X108962619Y-108400000D02*
X107962619Y-108400000D01*
X107962619Y-108400000D02*
X108105476Y-108304762D01*
X108105476Y-108304762D02*
X108200714Y-108209524D01*
X108200714Y-108209524D02*
X108248333Y-108114286D01*
%TO.C,GND1*%
X133438095Y-81862238D02*
X133533333Y-81814619D01*
X133533333Y-81814619D02*
X133676190Y-81814619D01*
X133676190Y-81814619D02*
X133819047Y-81862238D01*
X133819047Y-81862238D02*
X133914285Y-81957476D01*
X133914285Y-81957476D02*
X133961904Y-82052714D01*
X133961904Y-82052714D02*
X134009523Y-82243190D01*
X134009523Y-82243190D02*
X134009523Y-82386047D01*
X134009523Y-82386047D02*
X133961904Y-82576523D01*
X133961904Y-82576523D02*
X133914285Y-82671761D01*
X133914285Y-82671761D02*
X133819047Y-82767000D01*
X133819047Y-82767000D02*
X133676190Y-82814619D01*
X133676190Y-82814619D02*
X133580952Y-82814619D01*
X133580952Y-82814619D02*
X133438095Y-82767000D01*
X133438095Y-82767000D02*
X133390476Y-82719380D01*
X133390476Y-82719380D02*
X133390476Y-82386047D01*
X133390476Y-82386047D02*
X133580952Y-82386047D01*
X132961904Y-82814619D02*
X132961904Y-81814619D01*
X132961904Y-81814619D02*
X132390476Y-82814619D01*
X132390476Y-82814619D02*
X132390476Y-81814619D01*
X131914285Y-82814619D02*
X131914285Y-81814619D01*
X131914285Y-81814619D02*
X131676190Y-81814619D01*
X131676190Y-81814619D02*
X131533333Y-81862238D01*
X131533333Y-81862238D02*
X131438095Y-81957476D01*
X131438095Y-81957476D02*
X131390476Y-82052714D01*
X131390476Y-82052714D02*
X131342857Y-82243190D01*
X131342857Y-82243190D02*
X131342857Y-82386047D01*
X131342857Y-82386047D02*
X131390476Y-82576523D01*
X131390476Y-82576523D02*
X131438095Y-82671761D01*
X131438095Y-82671761D02*
X131533333Y-82767000D01*
X131533333Y-82767000D02*
X131676190Y-82814619D01*
X131676190Y-82814619D02*
X131914285Y-82814619D01*
X130390476Y-82814619D02*
X130961904Y-82814619D01*
X130676190Y-82814619D02*
X130676190Y-81814619D01*
X130676190Y-81814619D02*
X130771428Y-81957476D01*
X130771428Y-81957476D02*
X130866666Y-82052714D01*
X130866666Y-82052714D02*
X130961904Y-82100333D01*
%TO.C,3V3*%
X133438094Y-78014619D02*
X132819047Y-78014619D01*
X132819047Y-78014619D02*
X133152380Y-78395571D01*
X133152380Y-78395571D02*
X133009523Y-78395571D01*
X133009523Y-78395571D02*
X132914285Y-78443190D01*
X132914285Y-78443190D02*
X132866666Y-78490809D01*
X132866666Y-78490809D02*
X132819047Y-78586047D01*
X132819047Y-78586047D02*
X132819047Y-78824142D01*
X132819047Y-78824142D02*
X132866666Y-78919380D01*
X132866666Y-78919380D02*
X132914285Y-78967000D01*
X132914285Y-78967000D02*
X133009523Y-79014619D01*
X133009523Y-79014619D02*
X133295237Y-79014619D01*
X133295237Y-79014619D02*
X133390475Y-78967000D01*
X133390475Y-78967000D02*
X133438094Y-78919380D01*
X132533332Y-78014619D02*
X132199999Y-79014619D01*
X132199999Y-79014619D02*
X131866666Y-78014619D01*
X131628570Y-78014619D02*
X131009523Y-78014619D01*
X131009523Y-78014619D02*
X131342856Y-78395571D01*
X131342856Y-78395571D02*
X131199999Y-78395571D01*
X131199999Y-78395571D02*
X131104761Y-78443190D01*
X131104761Y-78443190D02*
X131057142Y-78490809D01*
X131057142Y-78490809D02*
X131009523Y-78586047D01*
X131009523Y-78586047D02*
X131009523Y-78824142D01*
X131009523Y-78824142D02*
X131057142Y-78919380D01*
X131057142Y-78919380D02*
X131104761Y-78967000D01*
X131104761Y-78967000D02*
X131199999Y-79014619D01*
X131199999Y-79014619D02*
X131485713Y-79014619D01*
X131485713Y-79014619D02*
X131580951Y-78967000D01*
X131580951Y-78967000D02*
X131628570Y-78919380D01*
%TO.C,R4*%
X134666666Y-121892619D02*
X134999999Y-121416428D01*
X135238094Y-121892619D02*
X135238094Y-120892619D01*
X135238094Y-120892619D02*
X134857142Y-120892619D01*
X134857142Y-120892619D02*
X134761904Y-120940238D01*
X134761904Y-120940238D02*
X134714285Y-120987857D01*
X134714285Y-120987857D02*
X134666666Y-121083095D01*
X134666666Y-121083095D02*
X134666666Y-121225952D01*
X134666666Y-121225952D02*
X134714285Y-121321190D01*
X134714285Y-121321190D02*
X134761904Y-121368809D01*
X134761904Y-121368809D02*
X134857142Y-121416428D01*
X134857142Y-121416428D02*
X135238094Y-121416428D01*
X133809523Y-121225952D02*
X133809523Y-121892619D01*
X134047618Y-120845000D02*
X134285713Y-121559285D01*
X134285713Y-121559285D02*
X133666666Y-121559285D01*
D14*
%TO.C,U2*%
X112060000Y-115200000D02*
X112060000Y-114550000D01*
X112060000Y-115200000D02*
X112060000Y-115850000D01*
X108940000Y-115200000D02*
X108940000Y-113525000D01*
X108940000Y-115200000D02*
X108940000Y-115850000D01*
%TO.C,U3*%
X131060000Y-115200000D02*
X131060000Y-114550000D01*
X131060000Y-115200000D02*
X131060000Y-115850000D01*
X127940000Y-115200000D02*
X127940000Y-113525000D01*
X127940000Y-115200000D02*
X127940000Y-115850000D01*
%TO.C,SW2*%
X129300000Y-93300000D02*
G75*
G03*
X127300000Y-95300000I-1J-1999999D01*
G01*
X125400000Y-89100000D02*
G75*
G03*
X123400000Y-91100000I-1J-1999999D01*
G01*
X129300000Y-93300000D02*
X134400000Y-93300000D01*
X125400000Y-89100000D02*
X130500000Y-89100000D01*
%TO.C,SW1*%
X106400000Y-89100000D02*
X111500000Y-89100000D01*
X110300000Y-93300000D02*
X115400000Y-93300000D01*
X106400000Y-89100000D02*
G75*
G03*
X104400000Y-91100000I-1J-1999999D01*
G01*
X110300000Y-93300000D02*
G75*
G03*
X108300000Y-95300000I-1J-1999999D01*
G01*
%TO.C,TP_SW4*%
X130800000Y-107100000D02*
X130800000Y-108500000D01*
X132200000Y-107100000D02*
X130800000Y-107100000D01*
X132200000Y-108500000D02*
X132200000Y-107100000D01*
X130800000Y-108500000D02*
X132200000Y-108500000D01*
%TO.C,TP_SW1*%
X104700000Y-99300000D02*
X103300000Y-99300000D01*
X103300000Y-100700000D02*
X104700000Y-100700000D01*
X103300000Y-99300000D02*
X103300000Y-100700000D01*
X104700000Y-100700000D02*
X104700000Y-99300000D01*
%TO.C,R1*%
X115262742Y-100477500D02*
X115737258Y-100477500D01*
X115262742Y-101522500D02*
X115737258Y-101522500D01*
%TO.C,C2*%
X126990000Y-110640580D02*
X126990000Y-110359420D01*
X128010000Y-110640580D02*
X128010000Y-110359420D01*
%TO.C,R2*%
X134262742Y-101522500D02*
X134737258Y-101522500D01*
X134262742Y-100477500D02*
X134737258Y-100477500D01*
%TO.C,R5*%
X109977500Y-110737258D02*
X109977500Y-110262742D01*
X111022500Y-110737258D02*
X111022500Y-110262742D01*
%TO.C,D2*%
D15*
X129900000Y-104200000D02*
X129100000Y-103600000D01*
X129900000Y-103000000D01*
X129900000Y-104200000D01*
G36*
X129900000Y-104200000D02*
G01*
X129100000Y-103600000D01*
X129900000Y-103000000D01*
X129900000Y-104200000D01*
G37*
D14*
X128500000Y-102200000D02*
X126700000Y-102200000D01*
X129100000Y-104200000D02*
X129100000Y-103000000D01*
X129100000Y-103600000D02*
X128500000Y-103600000D01*
X130500000Y-102200000D02*
X131700000Y-102200000D01*
X126700000Y-102200000D02*
X126700000Y-99800000D01*
X130500000Y-99800000D02*
X131700000Y-99800000D01*
X129900000Y-103600000D02*
X130500000Y-103600000D01*
X126700000Y-99800000D02*
X128500000Y-99800000D01*
%TO.C,D3*%
D15*
X110900000Y-123200000D02*
X110100000Y-122600000D01*
X110900000Y-122000000D01*
X110900000Y-123200000D01*
G36*
X110900000Y-123200000D02*
G01*
X110100000Y-122600000D01*
X110900000Y-122000000D01*
X110900000Y-123200000D01*
G37*
D14*
X107700000Y-121200000D02*
X107700000Y-118800000D01*
X110100000Y-122600000D02*
X109500000Y-122600000D01*
X110100000Y-123200000D02*
X110100000Y-122000000D01*
X111500000Y-121200000D02*
X112700000Y-121200000D01*
X107700000Y-118800000D02*
X109500000Y-118800000D01*
X111500000Y-118800000D02*
X112700000Y-118800000D01*
X110900000Y-122600000D02*
X111500000Y-122600000D01*
X109500000Y-121200000D02*
X107700000Y-121200000D01*
%TO.C,TP_SW3*%
X111800000Y-108500000D02*
X113200000Y-108500000D01*
X113200000Y-107100000D02*
X111800000Y-107100000D01*
X113200000Y-108500000D02*
X113200000Y-107100000D01*
X111800000Y-107100000D02*
X111800000Y-108500000D01*
%TO.C,R6*%
X128977500Y-110737258D02*
X128977500Y-110262742D01*
X130022500Y-110737258D02*
X130022500Y-110262742D01*
%TO.C,C4*%
X130990000Y-110359420D02*
X130990000Y-110640580D01*
X132010000Y-110359420D02*
X132010000Y-110640580D01*
%TO.C,D4*%
D15*
X129900000Y-123200000D02*
X129100000Y-122600000D01*
X129900000Y-122000000D01*
X129900000Y-123200000D01*
G36*
X129900000Y-123200000D02*
G01*
X129100000Y-122600000D01*
X129900000Y-122000000D01*
X129900000Y-123200000D01*
G37*
D14*
X130500000Y-121200000D02*
X131700000Y-121200000D01*
X130500000Y-118800000D02*
X131700000Y-118800000D01*
X129100000Y-123200000D02*
X129100000Y-122000000D01*
X129100000Y-122600000D02*
X128500000Y-122600000D01*
X129900000Y-122600000D02*
X130500000Y-122600000D01*
X126700000Y-118800000D02*
X128500000Y-118800000D01*
X128500000Y-121200000D02*
X126700000Y-121200000D01*
X126700000Y-121200000D02*
X126700000Y-118800000D01*
%TO.C,TP_SW2*%
X123700000Y-99300000D02*
X122300000Y-99300000D01*
X122300000Y-100700000D02*
X123700000Y-100700000D01*
X122300000Y-99300000D02*
X122300000Y-100700000D01*
X123700000Y-100700000D02*
X123700000Y-99300000D01*
%TO.C,C3*%
X111990000Y-110359420D02*
X111990000Y-110640580D01*
X113010000Y-110359420D02*
X113010000Y-110640580D01*
%TO.C,D1*%
D15*
X111050000Y-104200000D02*
X110250000Y-103600000D01*
X111050000Y-103000000D01*
X111050000Y-104200000D01*
G36*
X111050000Y-104200000D02*
G01*
X110250000Y-103600000D01*
X111050000Y-103000000D01*
X111050000Y-104200000D01*
G37*
D14*
X110250000Y-103600000D02*
X109650000Y-103600000D01*
X111050000Y-103600000D02*
X111650000Y-103600000D01*
X109650000Y-102200000D02*
X107850000Y-102200000D01*
X110250000Y-104200000D02*
X110250000Y-103000000D01*
X107850000Y-102200000D02*
X107850000Y-99800000D01*
X107850000Y-99800000D02*
X109650000Y-99800000D01*
X111650000Y-99800000D02*
X112850000Y-99800000D01*
X111650000Y-102200000D02*
X112850000Y-102200000D01*
%TO.C,R3*%
X115262742Y-119477500D02*
X115737258Y-119477500D01*
X115262742Y-120522500D02*
X115737258Y-120522500D01*
%TO.C,C1*%
X109010000Y-110640580D02*
X109010000Y-110359420D01*
X107990000Y-110640580D02*
X107990000Y-110359420D01*
%TO.C,GND1*%
X131500000Y-83100000D02*
X131500000Y-84500000D01*
X132900000Y-84500000D02*
X132900000Y-83100000D01*
X132900000Y-83100000D02*
X131500000Y-83100000D01*
X131500000Y-84500000D02*
X132900000Y-84500000D01*
%TO.C,3V3*%
X132900000Y-79300000D02*
X131500000Y-79300000D01*
X131500000Y-79300000D02*
X131500000Y-80700000D01*
X131500000Y-80700000D02*
X132900000Y-80700000D01*
X132900000Y-80700000D02*
X132900000Y-79300000D01*
%TO.C,R4*%
X134262742Y-120522500D02*
X134737258Y-120522500D01*
X134262742Y-119477500D02*
X134737258Y-119477500D01*
%TD*%
%LPC*%
D16*
%TO.C,H3*%
X102500000Y-105000000D03*
%TD*%
%TO.C,H2*%
X137500000Y-123000000D03*
%TD*%
%TO.C,H1*%
X102500000Y-67000000D03*
%TD*%
D17*
%TO.C,U2*%
X115580000Y-115000000D03*
X105420000Y-115000000D03*
D18*
X109550000Y-114262500D03*
X111450000Y-114262500D03*
X110500000Y-116137500D03*
%TD*%
D17*
%TO.C,U3*%
X134580000Y-115000000D03*
X124420000Y-115000000D03*
D18*
X128550000Y-114262500D03*
X130450000Y-114262500D03*
X129500000Y-116137500D03*
%TD*%
D19*
%TO.C,SW2*%
X135342000Y-90920000D03*
X122415000Y-93460000D03*
D17*
X134580000Y-96000000D03*
D20*
X132040000Y-90920000D03*
D21*
X129500000Y-96000000D03*
D20*
X125690000Y-93460000D03*
D17*
X124420000Y-96000000D03*
%TD*%
%TO.C,SW1*%
X105420000Y-96000000D03*
D20*
X106690000Y-93460000D03*
D21*
X110500000Y-96000000D03*
D20*
X113040000Y-90920000D03*
D17*
X115580000Y-96000000D03*
D19*
X103415000Y-93460000D03*
X116342000Y-90920000D03*
%TD*%
D22*
%TO.C,SW3*%
X116100000Y-75950000D03*
X104900000Y-75950000D03*
D23*
X110500000Y-68450000D03*
X108000000Y-68450000D03*
D24*
X113000000Y-68450000D03*
%TD*%
D25*
%TO.C,TP_SW4*%
X131500000Y-107800000D03*
%TD*%
%TO.C,TP_SW1*%
X104000000Y-100000000D03*
%TD*%
D26*
%TO.C,R1*%
X114675000Y-101000000D03*
X116325000Y-101000000D03*
%TD*%
D27*
%TO.C,C2*%
X127500000Y-111275000D03*
X127500000Y-109725000D03*
%TD*%
D26*
%TO.C,R2*%
X133675000Y-101000000D03*
X135325000Y-101000000D03*
%TD*%
D28*
%TO.C,R5*%
X110500000Y-111325000D03*
X110500000Y-109675000D03*
%TD*%
D29*
%TO.C,D2*%
X131300000Y-101000000D03*
X127700000Y-101000000D03*
D30*
X129500000Y-101000000D03*
%TD*%
D29*
%TO.C,D3*%
X112300000Y-120000000D03*
X108700000Y-120000000D03*
D30*
X110500000Y-120000000D03*
%TD*%
D25*
%TO.C,TP_SW3*%
X112500000Y-107800000D03*
%TD*%
D28*
%TO.C,R6*%
X129500000Y-111325000D03*
X129500000Y-109675000D03*
%TD*%
D31*
%TO.C,C4*%
X131500000Y-109725000D03*
X131500000Y-111275000D03*
%TD*%
D29*
%TO.C,D4*%
X131300000Y-120000000D03*
X127700000Y-120000000D03*
D30*
X129500000Y-120000000D03*
%TD*%
D25*
%TO.C,TP_SW2*%
X123000000Y-100000000D03*
%TD*%
D31*
%TO.C,C3*%
X112500000Y-109725000D03*
X112500000Y-111275000D03*
%TD*%
D29*
%TO.C,D1*%
X112450000Y-101000000D03*
X108850000Y-101000000D03*
D30*
X110650000Y-101000000D03*
%TD*%
D26*
%TO.C,R3*%
X114675000Y-120000000D03*
X116325000Y-120000000D03*
%TD*%
D27*
%TO.C,C1*%
X108500000Y-111275000D03*
X108500000Y-109725000D03*
%TD*%
D25*
%TO.C,GND1*%
X132200000Y-83800000D03*
%TD*%
%TO.C,3V3*%
X132200000Y-80000000D03*
%TD*%
D26*
%TO.C,R4*%
X133675000Y-120000000D03*
X135325000Y-120000000D03*
%TD*%
D32*
X102500000Y-65000000D02*
G75*
G03*
X100500000Y-67000000I0J-2000000D01*
G01*
X139499998Y-99247352D02*
G75*
G03*
X139076923Y-98430554I-1000016J-8D01*
G01*
X100923077Y-98430554D02*
G75*
G03*
X100923077Y-91569446I-2423077J3430554D01*
G01*
X100923078Y-98430555D02*
G75*
G03*
X100500000Y-99247352I576940J-816808D01*
G01*
X139076923Y-91569446D02*
G75*
G03*
X139076923Y-98430554I2423077J-3430554D01*
G01*
X100500000Y-67000000D02*
X100500000Y-90752648D01*
X102500000Y-125000000D02*
X137500000Y-125000000D01*
X139500000Y-67000000D02*
G75*
G03*
X137500000Y-65000000I-2000000J0D01*
G01*
X100500002Y-90752648D02*
G75*
G03*
X100923078Y-91569445I1000017J9D01*
G01*
X139500000Y-90752648D02*
X139500000Y-67000000D01*
X137500000Y-65000000D02*
X102500000Y-65000000D01*
X137500000Y-125000000D02*
G75*
G03*
X139500000Y-123000000I0J2000000D01*
G01*
X100500000Y-99247352D02*
X100500000Y-123000000D01*
X100500000Y-123000000D02*
G75*
G03*
X102500000Y-125000000I2000000J0D01*
G01*
X139500000Y-123000000D02*
X139500000Y-99247352D01*
X139076922Y-91569445D02*
G75*
G03*
X139500000Y-90752648I-577098J816890D01*
G01*
M02*
