%TF.GenerationSoftware,KiCad,Pcbnew,(6.0.9)*%
%TF.CreationDate,2023-03-08T23:19:46-05:00*%
%TF.ProjectId,Fluxpad,466c7578-7061-4642-9e6b-696361645f70,rev?*%
%TF.SameCoordinates,Original*%
%TF.FileFunction,Copper,L1,Top*%
%TF.FilePolarity,Positive*%
%FSLAX46Y46*%
G04 Gerber Fmt 4.6, Leading zero omitted, Abs format (unit mm)*
G04 Created by KiCad (PCBNEW (6.0.9)) date 2023-03-08 23:19:46*
%MOMM*%
%LPD*%
G01*
G04 APERTURE LIST*
G04 Aperture macros list*
%AMRoundRect*
0 Rectangle with rounded corners*
0 $1 Rounding radius*
0 $2 $3 $4 $5 $6 $7 $8 $9 X,Y pos of 4 corners*
0 Add a 4 corners polygon primitive as box body*
4,1,4,$2,$3,$4,$5,$6,$7,$8,$9,$2,$3,0*
0 Add four circle primitives for the rounded corners*
1,1,$1+$1,$2,$3*
1,1,$1+$1,$4,$5*
1,1,$1+$1,$6,$7*
1,1,$1+$1,$8,$9*
0 Add four rect primitives between the rounded corners*
20,1,$1+$1,$2,$3,$4,$5,0*
20,1,$1+$1,$4,$5,$6,$7,0*
20,1,$1+$1,$6,$7,$8,$9,0*
20,1,$1+$1,$8,$9,$2,$3,0*%
G04 Aperture macros list end*
%TA.AperFunction,Profile*%
%ADD10C,0.250000*%
%TD*%
%TA.AperFunction,SMDPad,CuDef*%
%ADD11RoundRect,0.218750X-0.218750X-0.256250X0.218750X-0.256250X0.218750X0.256250X-0.218750X0.256250X0*%
%TD*%
%TA.AperFunction,ComponentPad*%
%ADD12R,2.000000X2.000000*%
%TD*%
%TA.AperFunction,ComponentPad*%
%ADD13C,2.000000*%
%TD*%
%TA.AperFunction,ComponentPad*%
%ADD14C,2.800000*%
%TD*%
%TA.AperFunction,SMDPad,CuDef*%
%ADD15O,3.000000X2.000000*%
%TD*%
%TA.AperFunction,ViaPad*%
%ADD16C,0.800000*%
%TD*%
%TA.AperFunction,Conductor*%
%ADD17C,0.250000*%
%TD*%
%TA.AperFunction,Conductor*%
%ADD18C,0.300000*%
%TD*%
G04 APERTURE END LIST*
D10*
X102500000Y-65000000D02*
G75*
G03*
X100500000Y-67000000I0J-2000000D01*
G01*
X139500039Y-99247352D02*
G75*
G03*
X139076923Y-98430554I-1000039J-48D01*
G01*
X100923077Y-98430554D02*
G75*
G03*
X100923077Y-91569446I-2423077J3430554D01*
G01*
X100923099Y-98430586D02*
G75*
G03*
X100500000Y-99247352I576901J-816814D01*
G01*
X139076923Y-91569446D02*
G75*
G03*
X139076923Y-98430554I2423077J-3430554D01*
G01*
X100500000Y-67000000D02*
X100500000Y-90752648D01*
X102500000Y-125000000D02*
X137500000Y-125000000D01*
X139500000Y-67000000D02*
G75*
G03*
X137500000Y-65000000I-2000000J0D01*
G01*
X100499961Y-90752648D02*
G75*
G03*
X100923077Y-91569446I1000039J48D01*
G01*
X139500000Y-90752648D02*
X139500000Y-67000000D01*
X137500000Y-65000000D02*
X102500000Y-65000000D01*
X137500000Y-125000000D02*
G75*
G03*
X139500000Y-123000000I0J2000000D01*
G01*
X100500000Y-99247352D02*
X100500000Y-123000000D01*
X100500000Y-123000000D02*
G75*
G03*
X102500000Y-125000000I2000000J0D01*
G01*
X139500000Y-123000000D02*
X139500000Y-99247352D01*
X139076949Y-91569483D02*
G75*
G03*
X139500000Y-90752648I-577149J816883D01*
G01*
D11*
%TO.P,D3,1,K*%
%TO.N,GND*%
X109712500Y-120000000D03*
%TO.P,D3,2,A*%
%TO.N,Net-(D3-Pad2)*%
X111287500Y-120000000D03*
%TD*%
%TO.P,D2,1,K*%
%TO.N,GND*%
X128712500Y-101000000D03*
%TO.P,D2,2,A*%
%TO.N,Net-(D2-Pad2)*%
X130287500Y-101000000D03*
%TD*%
%TO.P,D4,1,K*%
%TO.N,GND*%
X128712500Y-120000000D03*
%TO.P,D4,2,A*%
%TO.N,Net-(D4-Pad2)*%
X130287500Y-120000000D03*
%TD*%
D12*
%TO.P,SW3,A,A*%
%TO.N,ENCA*%
X113000000Y-68450000D03*
D13*
%TO.P,SW3,B,B*%
%TO.N,ENCB*%
X108000000Y-68450000D03*
%TO.P,SW3,C,C*%
%TO.N,GND*%
X110500000Y-68450000D03*
D14*
%TO.P,SW3,MP*%
%TO.N,N/C*%
X104900000Y-75950000D03*
X116100000Y-75950000D03*
%TD*%
D11*
%TO.P,D1,1,K*%
%TO.N,GND*%
X109862500Y-101000000D03*
%TO.P,D1,2,A*%
%TO.N,Net-(D1-Pad2)*%
X111437500Y-101000000D03*
%TD*%
D15*
%TO.P,U1,1,PA02_A0_D0*%
%TO.N,ENCA*%
X120118000Y-68380000D03*
%TO.P,U1,2,PA4_A1_D1*%
%TO.N,ENCB*%
X120118000Y-70920000D03*
%TO.P,U1,3,PA10_A2_D2*%
%TO.N,unconnected-(U1-Pad3)*%
X120118000Y-73460000D03*
%TO.P,U1,4,PA11_A3_D3*%
%TO.N,LED1*%
X120118000Y-76000000D03*
%TO.P,U1,5,PA8_A4_D4_SDA*%
%TO.N,SW1*%
X120118000Y-78540000D03*
%TO.P,U1,6,PA9_A5_D5_SCL*%
%TO.N,LED3*%
X120118000Y-81080000D03*
%TO.P,U1,7,PB08_A6_D6_TX*%
%TO.N,SW3*%
X120118000Y-83620000D03*
%TO.P,U1,8,PB09_A7_D7_RX*%
%TO.N,LED2*%
X136882000Y-83620000D03*
%TO.P,U1,9,PA7_A8_D8_SCK*%
%TO.N,SW4*%
X136882000Y-81080000D03*
%TO.P,U1,10,PA5_A9_D9_MISO*%
%TO.N,SW2*%
X136882000Y-78540000D03*
%TO.P,U1,11,PA6_A10_D10_MOSI*%
%TO.N,LED4*%
X136882000Y-76000000D03*
%TO.P,U1,12,3V3*%
%TO.N,+3V3*%
X136882000Y-73460000D03*
%TO.P,U1,13,GND*%
%TO.N,GND*%
X136882000Y-70920000D03*
%TO.P,U1,14,5V*%
%TO.N,+5V*%
X136882000Y-68380000D03*
%TD*%
D16*
%TO.N,Net-(D1-Pad2)*%
X113000000Y-101000000D03*
%TO.N,Net-(D2-Pad2)*%
X132000000Y-101000000D03*
%TO.N,Net-(D3-Pad2)*%
X113000000Y-120000000D03*
%TO.N,Net-(D4-Pad2)*%
X132000000Y-120000000D03*
%TO.N,LED3*%
X118300000Y-120000000D03*
%TO.N,LED1*%
X122450000Y-76000000D03*
X118000000Y-79850000D03*
X116300000Y-99600000D03*
%TO.N,LED4*%
X136800000Y-120000000D03*
%TO.N,LED2*%
X135350000Y-99650000D03*
%TO.N,+3V3*%
X107125000Y-111275000D03*
X125800000Y-111300000D03*
X134190000Y-73460000D03*
%TO.N,SW1*%
X102550000Y-89000000D03*
%TO.N,SW2*%
X121600000Y-87750000D03*
%TO.N,SW3*%
X119200000Y-106000000D03*
%TO.N,SW4*%
X129500000Y-106650000D03*
%TO.N,GND*%
X138600000Y-72100000D03*
X108000000Y-101000000D03*
X127000000Y-120000000D03*
X135200000Y-69700000D03*
X135100000Y-72100000D03*
X138500000Y-69700000D03*
X127000000Y-101000000D03*
X108000000Y-120000000D03*
%TD*%
D17*
%TO.N,SW3*%
X119900000Y-83838000D02*
X120118000Y-83620000D01*
X119900000Y-105300000D02*
X119900000Y-83838000D01*
X119200000Y-106000000D02*
X119900000Y-105300000D01*
%TO.N,LED3*%
X118200000Y-82998000D02*
X120118000Y-81080000D01*
X118200000Y-84500000D02*
X118200000Y-82998000D01*
X119250000Y-85550000D02*
X118200000Y-84500000D01*
X119250000Y-104550000D02*
X119250000Y-85550000D01*
X117150000Y-106650000D02*
X119250000Y-104550000D01*
X102750000Y-107550000D02*
X103650000Y-106650000D01*
X102750000Y-122300000D02*
X102750000Y-107550000D01*
X103650000Y-106650000D02*
X117150000Y-106650000D01*
X103150000Y-122700000D02*
X102750000Y-122300000D01*
X117750000Y-122700000D02*
X103150000Y-122700000D01*
X118300000Y-122150000D02*
X117750000Y-122700000D01*
X118300000Y-120000000D02*
X118300000Y-122150000D01*
%TO.N,ENCA*%
X113070000Y-68380000D02*
X113000000Y-68450000D01*
X120350000Y-68380000D02*
X113070000Y-68380000D01*
%TO.N,Net-(D1-Pad2)*%
X113000000Y-101000000D02*
X111587500Y-101000000D01*
%TO.N,Net-(D2-Pad2)*%
X130437500Y-101000000D02*
X132000000Y-101000000D01*
%TO.N,Net-(D3-Pad2)*%
X111287500Y-120000000D02*
X113000000Y-120000000D01*
%TO.N,Net-(D4-Pad2)*%
X132000000Y-120000000D02*
X130437500Y-120000000D01*
%TO.N,LED1*%
X118600000Y-85750000D02*
X118600000Y-97300000D01*
X118000000Y-79850000D02*
X117600000Y-80250000D01*
X120284167Y-76000000D02*
X120350000Y-76000000D01*
X122450000Y-76000000D02*
X120118000Y-76000000D01*
X117600000Y-80250000D02*
X117600000Y-84750000D01*
X118600000Y-97300000D02*
X116300000Y-99600000D01*
X117600000Y-84750000D02*
X118600000Y-85750000D01*
%TO.N,LED4*%
X138800000Y-77918000D02*
X136882000Y-76000000D01*
X138800000Y-90500000D02*
X138800000Y-77918000D01*
X136800000Y-92500000D02*
X138800000Y-90500000D01*
X136800000Y-120000000D02*
X136800000Y-92500000D01*
%TO.N,LED2*%
X136882000Y-91368000D02*
X136882000Y-83620000D01*
X136200000Y-98800000D02*
X136200000Y-92050000D01*
X135350000Y-99650000D02*
X136200000Y-98800000D01*
X136200000Y-92050000D02*
X136882000Y-91368000D01*
D18*
%TO.N,+3V3*%
X107125000Y-111275000D02*
X107125000Y-108975000D01*
X125800000Y-108750000D02*
X124450000Y-107400000D01*
X120600000Y-106200000D02*
X120600000Y-87050000D01*
X119400000Y-107400000D02*
X120600000Y-106200000D01*
X107125000Y-108975000D02*
X108700000Y-107400000D01*
X121800000Y-107400000D02*
X120750000Y-106350000D01*
X124450000Y-107400000D02*
X121800000Y-107400000D01*
X120750000Y-106350000D02*
X120600000Y-106200000D01*
X120600000Y-87050000D02*
X134190000Y-73460000D01*
X125800000Y-111300000D02*
X125800000Y-108750000D01*
X108700000Y-107400000D02*
X119400000Y-107400000D01*
X134190000Y-73460000D02*
X136514560Y-73460000D01*
D17*
%TO.N,SW1*%
X113400000Y-88000000D02*
X103550000Y-88000000D01*
X117000000Y-84400000D02*
X113400000Y-88000000D01*
X103550000Y-88000000D02*
X102550000Y-89000000D01*
X120118000Y-78540000D02*
X117860000Y-78540000D01*
X117860000Y-78540000D02*
X117000000Y-79400000D01*
X117000000Y-79400000D02*
X117000000Y-84400000D01*
%TO.N,SW2*%
X134450000Y-80972000D02*
X136882000Y-78540000D01*
X122200000Y-87150000D02*
X131200000Y-87150000D01*
X134450000Y-83900000D02*
X134450000Y-80972000D01*
X121600000Y-87750000D02*
X122200000Y-87150000D01*
X131200000Y-87150000D02*
X134450000Y-83900000D01*
%TO.N,SW4*%
X123000000Y-87750000D02*
X131450000Y-87750000D01*
X121250000Y-89500000D02*
X123000000Y-87750000D01*
X121250000Y-105850000D02*
X121250000Y-89500000D01*
X135000000Y-82962000D02*
X136882000Y-81080000D01*
X131450000Y-87750000D02*
X135000000Y-84200000D01*
X135000000Y-84200000D02*
X135000000Y-82962000D01*
X129500000Y-106650000D02*
X122050000Y-106650000D01*
X122050000Y-106650000D02*
X121250000Y-105850000D01*
%TO.N,GND*%
X135662000Y-69700000D02*
X136882000Y-70920000D01*
X138600000Y-72100000D02*
X138062000Y-72100000D01*
D18*
X109712500Y-101000000D02*
X108000000Y-101000000D01*
D17*
X135200000Y-69700000D02*
X135662000Y-69700000D01*
X138500000Y-69700000D02*
X138102000Y-69700000D01*
X138062000Y-72100000D02*
X136882000Y-70920000D01*
D18*
X109712500Y-120000000D02*
X108000000Y-120000000D01*
X128562500Y-101000000D02*
X127000000Y-101000000D01*
D17*
X138102000Y-69700000D02*
X136882000Y-70920000D01*
X135702000Y-72100000D02*
X136882000Y-70920000D01*
D18*
X128562500Y-120000000D02*
X127000000Y-120000000D01*
D17*
X135100000Y-72100000D02*
X135702000Y-72100000D01*
%TO.N,ENCB*%
X110470000Y-70920000D02*
X108000000Y-68450000D01*
X116080000Y-70920000D02*
X110470000Y-70920000D01*
X120350000Y-70920000D02*
X116080000Y-70920000D01*
%TD*%
M02*
