M48
; DRILL file {KiCad (6.0.9)} date Wed Mar  8 23:19:47 2023
; FORMAT={-:-/ absolute / metric / decimal}
; #@! TF.CreationDate,2023-03-08T23:19:47-05:00
; #@! TF.GenerationSoftware,Kicad,Pcbnew,(6.0.9)
; #@! TF.FileFunction,MixedPlating,1,2
FMAT,2
METRIC
; #@! TA.AperFunction,Plated,PTH,ViaDrill
T1C0.400
; #@! TA.AperFunction,Plated,PTH,ComponentDrill
T2C1.000
; #@! TA.AperFunction,Plated,PTH,ComponentDrill
T3C2.200
; #@! TA.AperFunction,NonPlated,NPTH,ComponentDrill
T4C1.750
; #@! TA.AperFunction,NonPlated,NPTH,ComponentDrill
T5C3.050
; #@! TA.AperFunction,NonPlated,NPTH,ComponentDrill
T6C4.000
%
G90
G05
T1
X102.55Y-89.0
X107.125Y-111.275
X108.0Y-101.0
X108.0Y-120.0
X113.0Y-101.0
X113.0Y-120.0
X116.3Y-99.6
X118.0Y-79.85
X118.3Y-120.0
X119.2Y-106.0
X121.6Y-87.75
X122.45Y-76.0
X125.8Y-111.3
X127.0Y-101.0
X127.0Y-120.0
X129.5Y-106.65
X132.0Y-101.0
X132.0Y-120.0
X134.19Y-73.46
X135.1Y-72.1
X135.2Y-69.7
X135.35Y-99.65
X136.8Y-120.0
X138.5Y-69.7
X138.6Y-72.1
T2
X108.0Y-68.45
X110.5Y-68.45
X113.0Y-68.45
T3
X104.9Y-75.95
X116.1Y-75.95
T4
X105.42Y-96.0
X105.42Y-115.0
X115.58Y-96.0
X115.58Y-115.0
X124.42Y-96.0
X124.42Y-115.0
X134.58Y-96.0
X134.58Y-115.0
T5
X106.69Y-93.46
X113.04Y-90.92
X125.69Y-93.46
X132.04Y-90.92
T6
X110.5Y-96.0
X129.5Y-96.0
T0
M30
