%TF.GenerationSoftware,KiCad,Pcbnew,7.0.1*%
%TF.CreationDate,2023-03-19T03:20:37-04:00*%
%TF.ProjectId,Fluxpad,466c7578-7061-4642-9e6b-696361645f70,rev?*%
%TF.SameCoordinates,Original*%
%TF.FileFunction,Copper,L1,Top*%
%TF.FilePolarity,Positive*%
%FSLAX46Y46*%
G04 Gerber Fmt 4.6, Leading zero omitted, Abs format (unit mm)*
G04 Created by KiCad (PCBNEW 7.0.1) date 2023-03-19 03:20:37*
%MOMM*%
%LPD*%
G01*
G04 APERTURE LIST*
%TA.AperFunction,SMDPad,CuDef*%
%ADD10O,3.000000X2.000000*%
%TD*%
%TA.AperFunction,ComponentPad*%
%ADD11C,2.800000*%
%TD*%
%TA.AperFunction,ComponentPad*%
%ADD12C,2.000000*%
%TD*%
%TA.AperFunction,ComponentPad*%
%ADD13R,2.000000X2.000000*%
%TD*%
%TA.AperFunction,ViaPad*%
%ADD14C,0.800000*%
%TD*%
%TA.AperFunction,Conductor*%
%ADD15C,0.250000*%
%TD*%
%TA.AperFunction,Conductor*%
%ADD16C,0.300000*%
%TD*%
%TA.AperFunction,Profile*%
%ADD17C,0.100000*%
%TD*%
G04 APERTURE END LIST*
D10*
%TO.P,U1,1,PA02_A0_D0*%
%TO.N,ENCA*%
X120118000Y-68380000D03*
%TO.P,U1,2,PA4_A1_D1*%
%TO.N,ENCB*%
X120118000Y-70920000D03*
%TO.P,U1,3,PA10_A2_D2*%
%TO.N,unconnected-(U1-PA10_A2_D2-Pad3)*%
X120118000Y-73460000D03*
%TO.P,U1,4,PA11_A3_D3*%
%TO.N,LED1*%
X120118000Y-76000000D03*
%TO.P,U1,5,PA8_A4_D4_SDA*%
%TO.N,SW1*%
X120118000Y-78540000D03*
%TO.P,U1,6,PA9_A5_D5_SCL*%
%TO.N,LED3*%
X120118000Y-81080000D03*
%TO.P,U1,7,PB08_A6_D6_TX*%
%TO.N,SW3*%
X120118000Y-83620000D03*
%TO.P,U1,8,PB09_A7_D7_RX*%
%TO.N,LED2*%
X136882000Y-83620000D03*
%TO.P,U1,9,PA7_A8_D8_SCK*%
%TO.N,SW4*%
X136882000Y-81080000D03*
%TO.P,U1,10,PA5_A9_D9_MISO*%
%TO.N,SW2*%
X136882000Y-78540000D03*
%TO.P,U1,11,PA6_A10_D10_MOSI*%
%TO.N,LED4*%
X136882000Y-76000000D03*
%TO.P,U1,12,3V3*%
%TO.N,+3V3*%
X136882000Y-73460000D03*
%TO.P,U1,13,GND*%
%TO.N,GND*%
X136882000Y-70920000D03*
%TO.P,U1,14,5V*%
%TO.N,+5V*%
X136882000Y-68380000D03*
%TD*%
D11*
%TO.P,SW3,MP*%
%TO.N,N/C*%
X116100000Y-75950000D03*
X104900000Y-75950000D03*
D12*
%TO.P,SW3,C,C*%
%TO.N,GND*%
X110500000Y-68450000D03*
%TO.P,SW3,B,B*%
%TO.N,ENCB*%
X108000000Y-68450000D03*
D13*
%TO.P,SW3,A,A*%
%TO.N,ENCA*%
X113000000Y-68450000D03*
%TD*%
D14*
%TO.N,GND*%
X114000000Y-66000000D03*
X104000000Y-66000000D03*
X101500000Y-88500000D03*
X101500000Y-78500000D03*
X101500000Y-68500000D03*
X101500000Y-112500000D03*
X138500000Y-101500000D03*
X138500000Y-111500000D03*
X138500000Y-121500000D03*
X136000000Y-124000000D03*
X103000000Y-124000000D03*
X101500000Y-122500000D03*
X101500000Y-102500000D03*
X128500000Y-124000000D03*
X111500000Y-124100500D03*
X120000000Y-124000000D03*
X117600000Y-69700000D03*
X137800000Y-87800000D03*
X134200000Y-77200000D03*
%TO.N,LED3*%
X118300000Y-120000000D03*
%TO.N,LED1*%
X122450000Y-76000000D03*
X118000000Y-79850000D03*
X116300000Y-99600000D03*
%TO.N,LED4*%
X136800000Y-120000000D03*
%TO.N,LED2*%
X135350000Y-99650000D03*
%TO.N,+3V3*%
X107125000Y-111275000D03*
X125800000Y-111300000D03*
X134190000Y-73460000D03*
%TO.N,SW1*%
X102550000Y-89000000D03*
%TO.N,SW2*%
X121600000Y-87750000D03*
%TO.N,SW3*%
X119200000Y-106000000D03*
%TO.N,SW4*%
X129500000Y-106650000D03*
%TO.N,GND*%
X138600000Y-72100000D03*
X135200000Y-69700000D03*
X135100000Y-72100000D03*
X138500000Y-69700000D03*
%TD*%
D15*
%TO.N,LED2*%
X136882000Y-91368000D02*
X136882000Y-83620000D01*
X136100000Y-92150000D02*
X136882000Y-91368000D01*
X136100000Y-98900000D02*
X136100000Y-92150000D01*
X135350000Y-99650000D02*
X136100000Y-98900000D01*
%TO.N,LED4*%
X138800000Y-90500000D02*
X138800000Y-77918000D01*
X138800000Y-77918000D02*
X136882000Y-76000000D01*
X136672343Y-92627657D02*
X138800000Y-90500000D01*
X136672343Y-119872343D02*
X136672343Y-92627657D01*
X136800000Y-120000000D02*
X136672343Y-119872343D01*
%TO.N,ENCA*%
X113070000Y-68380000D02*
X113000000Y-68450000D01*
X120350000Y-68380000D02*
X113070000Y-68380000D01*
%TO.N,LED3*%
X117150000Y-106650000D02*
X119250000Y-104550000D01*
X102750000Y-122300000D02*
X102750000Y-107550000D01*
X118200000Y-84500000D02*
X118200000Y-82998000D01*
X118300000Y-122150000D02*
X117750000Y-122700000D01*
X117750000Y-122700000D02*
X103150000Y-122700000D01*
X102750000Y-107550000D02*
X103650000Y-106650000D01*
X118300000Y-120000000D02*
X118300000Y-122150000D01*
X103650000Y-106650000D02*
X117150000Y-106650000D01*
X119250000Y-104550000D02*
X119250000Y-85550000D01*
X103150000Y-122700000D02*
X102750000Y-122300000D01*
X118200000Y-82998000D02*
X120118000Y-81080000D01*
X119250000Y-85550000D02*
X118200000Y-84500000D01*
%TO.N,LED1*%
X118600000Y-85750000D02*
X118600000Y-97300000D01*
X118000000Y-79850000D02*
X117600000Y-80250000D01*
X122450000Y-76000000D02*
X120118000Y-76000000D01*
X117600000Y-80250000D02*
X117600000Y-84750000D01*
X118600000Y-97300000D02*
X116300000Y-99600000D01*
X117600000Y-84750000D02*
X118600000Y-85750000D01*
D16*
%TO.N,+3V3*%
X107125000Y-111275000D02*
X107125000Y-108975000D01*
X125800000Y-108750000D02*
X124450000Y-107400000D01*
X120600000Y-106200000D02*
X120600000Y-87050000D01*
X119400000Y-107400000D02*
X120600000Y-106200000D01*
X107125000Y-108975000D02*
X108700000Y-107400000D01*
X121800000Y-107400000D02*
X120750000Y-106350000D01*
X124450000Y-107400000D02*
X121800000Y-107400000D01*
X120750000Y-106350000D02*
X120600000Y-106200000D01*
X120600000Y-87050000D02*
X134190000Y-73460000D01*
X125800000Y-111300000D02*
X125800000Y-108750000D01*
X108700000Y-107400000D02*
X119400000Y-107400000D01*
X134190000Y-73460000D02*
X136514560Y-73460000D01*
D15*
%TO.N,SW1*%
X113400000Y-88000000D02*
X103550000Y-88000000D01*
X117000000Y-84400000D02*
X113400000Y-88000000D01*
X103550000Y-88000000D02*
X102550000Y-89000000D01*
X120118000Y-78540000D02*
X117860000Y-78540000D01*
X117860000Y-78540000D02*
X117000000Y-79400000D01*
X117000000Y-79400000D02*
X117000000Y-84400000D01*
%TO.N,SW2*%
X134450000Y-80972000D02*
X136882000Y-78540000D01*
X122200000Y-87150000D02*
X131200000Y-87150000D01*
X134450000Y-83900000D02*
X134450000Y-80972000D01*
X121600000Y-87750000D02*
X122200000Y-87150000D01*
X131200000Y-87150000D02*
X134450000Y-83900000D01*
%TO.N,SW3*%
X119900000Y-105300000D02*
X119900000Y-83838000D01*
X119200000Y-106000000D02*
X119900000Y-105300000D01*
X119900000Y-83838000D02*
X120118000Y-83620000D01*
%TO.N,SW4*%
X123000000Y-87750000D02*
X131450000Y-87750000D01*
X121250000Y-89500000D02*
X123000000Y-87750000D01*
X121250000Y-105850000D02*
X121250000Y-89500000D01*
X135000000Y-82962000D02*
X136882000Y-81080000D01*
X131450000Y-87750000D02*
X135000000Y-84200000D01*
X135000000Y-84200000D02*
X135000000Y-82962000D01*
X129500000Y-106650000D02*
X122050000Y-106650000D01*
X122050000Y-106650000D02*
X121250000Y-105850000D01*
%TO.N,GND*%
X135662000Y-69700000D02*
X136882000Y-70920000D01*
X138600000Y-72100000D02*
X138062000Y-72100000D01*
X135200000Y-69700000D02*
X135662000Y-69700000D01*
X138500000Y-69700000D02*
X138102000Y-69700000D01*
X138062000Y-72100000D02*
X136882000Y-70920000D01*
X138102000Y-69700000D02*
X136882000Y-70920000D01*
X135702000Y-72100000D02*
X136882000Y-70920000D01*
X135100000Y-72100000D02*
X135702000Y-72100000D01*
%TO.N,ENCB*%
X110470000Y-70920000D02*
X108000000Y-68450000D01*
X116080000Y-70920000D02*
X110470000Y-70920000D01*
X120350000Y-70920000D02*
X116080000Y-70920000D01*
%TD*%
%TA.AperFunction,Conductor*%
%TO.N,GND*%
G36*
X123037000Y-65517381D02*
G01*
X123083119Y-65563500D01*
X123100000Y-65626500D01*
X123100000Y-72200000D01*
X133900000Y-72200000D01*
X133900000Y-65626500D01*
X133916881Y-65563500D01*
X133963000Y-65517381D01*
X134026000Y-65500500D01*
X137434108Y-65500500D01*
X137495499Y-65500500D01*
X137504487Y-65500821D01*
X137522302Y-65502095D01*
X137704419Y-65515120D01*
X137722193Y-65517675D01*
X137913653Y-65559324D01*
X137930899Y-65564388D01*
X138114476Y-65632859D01*
X138130825Y-65640326D01*
X138302783Y-65734222D01*
X138317907Y-65743942D01*
X138474752Y-65861355D01*
X138488338Y-65873128D01*
X138626871Y-66011661D01*
X138638644Y-66025247D01*
X138756057Y-66182092D01*
X138765777Y-66197216D01*
X138859673Y-66369174D01*
X138867141Y-66385526D01*
X138935610Y-66569098D01*
X138940675Y-66586348D01*
X138982322Y-66777796D01*
X138984880Y-66795590D01*
X138999179Y-66995512D01*
X138999500Y-67004501D01*
X138999500Y-68054969D01*
X138984779Y-68114070D01*
X138944057Y-68159361D01*
X138886848Y-68180260D01*
X138826520Y-68171883D01*
X138777170Y-68136187D01*
X138750328Y-68081514D01*
X138725955Y-67968421D01*
X138708341Y-67924588D01*
X138637064Y-67747210D01*
X138512069Y-67544205D01*
X138512068Y-67544204D01*
X138512067Y-67544202D01*
X138354565Y-67365246D01*
X138169082Y-67215478D01*
X137960954Y-67099210D01*
X137835049Y-67054725D01*
X137736171Y-67019789D01*
X137501200Y-66979500D01*
X136322503Y-66979500D01*
X136322502Y-66979500D01*
X136144457Y-66994653D01*
X135913755Y-67054723D01*
X135696511Y-67152924D01*
X135498997Y-67286420D01*
X135326882Y-67451378D01*
X135185121Y-67643053D01*
X135077791Y-67855929D01*
X135007983Y-68083877D01*
X134977701Y-68320346D01*
X134987819Y-68558529D01*
X135038044Y-68791578D01*
X135126937Y-69012792D01*
X135251932Y-69215797D01*
X135333628Y-69308621D01*
X135409436Y-69394755D01*
X135519861Y-69483917D01*
X135555909Y-69530923D01*
X135566492Y-69589211D01*
X135549269Y-69645893D01*
X135508046Y-69688439D01*
X135473134Y-69710516D01*
X135290886Y-69871974D01*
X135136903Y-70060570D01*
X135015164Y-70271427D01*
X134928826Y-70499080D01*
X134894749Y-70666000D01*
X137010000Y-70666000D01*
X137073000Y-70682881D01*
X137119119Y-70729000D01*
X137136000Y-70792000D01*
X137136000Y-71048000D01*
X137119119Y-71111000D01*
X137073000Y-71157119D01*
X137010000Y-71174000D01*
X134893765Y-71174000D01*
X134899669Y-71222621D01*
X134967407Y-71456481D01*
X135071785Y-71676453D01*
X135210097Y-71876832D01*
X135378753Y-72052421D01*
X135514404Y-72154357D01*
X135552130Y-72200206D01*
X135564671Y-72258240D01*
X135549241Y-72315575D01*
X135509269Y-72359478D01*
X135498997Y-72366420D01*
X135326882Y-72531378D01*
X135185121Y-72723053D01*
X135126044Y-72840226D01*
X135079598Y-72890793D01*
X135013535Y-72909500D01*
X134823768Y-72909500D01*
X134775549Y-72899909D01*
X134734675Y-72872597D01*
X134692262Y-72830184D01*
X134692261Y-72830183D01*
X134692260Y-72830182D01*
X134539521Y-72734210D01*
X134369257Y-72674632D01*
X134190000Y-72654435D01*
X134010742Y-72674632D01*
X133840478Y-72734210D01*
X133687736Y-72830184D01*
X133560184Y-72957736D01*
X133464210Y-73110478D01*
X133404632Y-73280742D01*
X133385938Y-73446662D01*
X133374252Y-73487223D01*
X133349825Y-73521649D01*
X120640595Y-86230880D01*
X120590436Y-86261618D01*
X120531789Y-86266234D01*
X120477439Y-86243721D01*
X120439233Y-86198988D01*
X120425500Y-86141785D01*
X120425500Y-85146500D01*
X120442381Y-85083500D01*
X120488500Y-85037381D01*
X120551500Y-85020500D01*
X120677498Y-85020500D01*
X120855542Y-85005346D01*
X120962377Y-84977528D01*
X121086249Y-84945275D01*
X121303486Y-84847077D01*
X121501003Y-84713579D01*
X121673118Y-84548621D01*
X121814879Y-84356947D01*
X121922207Y-84144074D01*
X121992016Y-83916123D01*
X122022298Y-83679654D01*
X122012180Y-83441468D01*
X121990531Y-83341017D01*
X121961955Y-83208421D01*
X121944341Y-83164588D01*
X121873064Y-82987210D01*
X121748069Y-82784205D01*
X121748068Y-82784204D01*
X121748067Y-82784202D01*
X121590565Y-82605246D01*
X121396736Y-82448739D01*
X121397822Y-82447393D01*
X121362055Y-82413111D01*
X121343463Y-82352396D01*
X121356842Y-82290324D01*
X121398791Y-82242661D01*
X121501003Y-82173579D01*
X121673118Y-82008621D01*
X121814879Y-81816947D01*
X121922207Y-81604074D01*
X121992016Y-81376123D01*
X122022298Y-81139654D01*
X122012180Y-80901468D01*
X121976817Y-80737383D01*
X121961955Y-80668421D01*
X121931316Y-80592175D01*
X121873064Y-80447210D01*
X121748069Y-80244205D01*
X121748068Y-80244204D01*
X121748067Y-80244202D01*
X121590565Y-80065246D01*
X121396736Y-79908739D01*
X121397822Y-79907393D01*
X121362055Y-79873111D01*
X121343463Y-79812396D01*
X121356842Y-79750324D01*
X121398791Y-79702661D01*
X121501003Y-79633579D01*
X121673118Y-79468621D01*
X121814879Y-79276947D01*
X121922207Y-79064074D01*
X121992016Y-78836123D01*
X122022298Y-78599654D01*
X122012180Y-78361468D01*
X121986837Y-78243877D01*
X121961955Y-78128421D01*
X121939006Y-78071311D01*
X121873064Y-77907210D01*
X121748069Y-77704205D01*
X121748068Y-77704204D01*
X121748067Y-77704202D01*
X121590565Y-77525246D01*
X121396736Y-77368739D01*
X121397822Y-77367393D01*
X121362055Y-77333111D01*
X121343463Y-77272396D01*
X121356842Y-77210324D01*
X121398791Y-77162661D01*
X121501003Y-77093579D01*
X121673118Y-76928621D01*
X121814879Y-76736947D01*
X121825537Y-76715807D01*
X121872307Y-76665042D01*
X121938808Y-76646536D01*
X122005080Y-76665846D01*
X122100478Y-76725789D01*
X122270745Y-76785368D01*
X122450000Y-76805565D01*
X122629255Y-76785368D01*
X122799522Y-76725789D01*
X122952262Y-76629816D01*
X123079816Y-76502262D01*
X123175789Y-76349522D01*
X123235368Y-76179255D01*
X123255565Y-76000000D01*
X123235368Y-75820745D01*
X123175789Y-75650478D01*
X123079816Y-75497738D01*
X123079815Y-75497736D01*
X122952263Y-75370184D01*
X122799521Y-75274210D01*
X122629257Y-75214632D01*
X122450000Y-75194435D01*
X122270742Y-75214632D01*
X122100478Y-75274210D01*
X122002878Y-75335537D01*
X121940171Y-75354776D01*
X121876292Y-75339889D01*
X121828549Y-75294913D01*
X121766682Y-75194435D01*
X121748069Y-75164205D01*
X121590564Y-74985245D01*
X121525734Y-74932898D01*
X121396736Y-74828739D01*
X121397822Y-74827393D01*
X121362055Y-74793111D01*
X121343463Y-74732396D01*
X121356842Y-74670324D01*
X121398791Y-74622661D01*
X121501003Y-74553579D01*
X121673118Y-74388621D01*
X121814879Y-74196947D01*
X121922207Y-73984074D01*
X121992016Y-73756123D01*
X122022298Y-73519654D01*
X122012180Y-73281468D01*
X121975329Y-73110478D01*
X121961955Y-73048421D01*
X121878294Y-72840226D01*
X121873064Y-72827210D01*
X121748069Y-72624205D01*
X121748068Y-72624204D01*
X121748067Y-72624202D01*
X121590565Y-72445246D01*
X121396736Y-72288739D01*
X121397822Y-72287393D01*
X121362055Y-72253111D01*
X121343463Y-72192396D01*
X121356842Y-72130324D01*
X121398791Y-72082661D01*
X121501003Y-72013579D01*
X121673118Y-71848621D01*
X121814879Y-71656947D01*
X121922207Y-71444074D01*
X121992016Y-71216123D01*
X122022298Y-70979654D01*
X122012180Y-70741468D01*
X121990531Y-70641018D01*
X121961955Y-70508421D01*
X121908660Y-70375793D01*
X121873064Y-70287210D01*
X121748069Y-70084205D01*
X121748068Y-70084204D01*
X121748067Y-70084202D01*
X121590565Y-69905246D01*
X121396736Y-69748739D01*
X121397822Y-69747393D01*
X121362055Y-69713111D01*
X121343463Y-69652396D01*
X121356842Y-69590324D01*
X121398791Y-69542661D01*
X121501003Y-69473579D01*
X121673118Y-69308621D01*
X121814879Y-69116947D01*
X121922207Y-68904074D01*
X121992016Y-68676123D01*
X122022298Y-68439654D01*
X122012180Y-68201468D01*
X121980607Y-68054969D01*
X121961955Y-67968421D01*
X121944341Y-67924588D01*
X121873064Y-67747210D01*
X121748069Y-67544205D01*
X121748068Y-67544204D01*
X121748067Y-67544202D01*
X121590565Y-67365246D01*
X121405082Y-67215478D01*
X121196954Y-67099210D01*
X121071049Y-67054725D01*
X120972171Y-67019789D01*
X120737200Y-66979500D01*
X119558503Y-66979500D01*
X119558502Y-66979500D01*
X119380457Y-66994653D01*
X119149755Y-67054723D01*
X118932511Y-67152924D01*
X118734997Y-67286420D01*
X118562882Y-67451378D01*
X118421121Y-67643053D01*
X118349439Y-67785226D01*
X118302993Y-67835793D01*
X118236930Y-67854500D01*
X114526499Y-67854500D01*
X114463499Y-67837619D01*
X114417380Y-67791500D01*
X114400499Y-67728500D01*
X114400499Y-67418482D01*
X114399628Y-67412980D01*
X114385646Y-67324696D01*
X114328050Y-67211658D01*
X114328049Y-67211657D01*
X114328048Y-67211655D01*
X114238344Y-67121951D01*
X114125304Y-67064354D01*
X114125303Y-67064353D01*
X114031519Y-67049500D01*
X114031517Y-67049500D01*
X111968481Y-67049500D01*
X111874696Y-67064354D01*
X111761655Y-67121951D01*
X111671949Y-67211657D01*
X111653577Y-67247715D01*
X111617358Y-67290974D01*
X111565892Y-67314090D01*
X111509497Y-67312429D01*
X111459481Y-67286323D01*
X111389117Y-67226227D01*
X111186738Y-67102208D01*
X110967440Y-67011372D01*
X110736633Y-66955960D01*
X110500000Y-66937337D01*
X110263366Y-66955960D01*
X110032559Y-67011372D01*
X109813264Y-67102207D01*
X109626107Y-67216896D01*
X109626107Y-67216898D01*
X110770114Y-68360905D01*
X110802726Y-68417389D01*
X110802726Y-68482611D01*
X110770114Y-68539095D01*
X110589095Y-68720114D01*
X110532611Y-68752726D01*
X110467389Y-68752726D01*
X110410905Y-68720114D01*
X109266898Y-67576107D01*
X109252853Y-67577769D01*
X109246385Y-67584298D01*
X109191775Y-67602885D01*
X109134605Y-67595187D01*
X109086858Y-67562816D01*
X108951787Y-67416090D01*
X108951786Y-67416089D01*
X108951784Y-67416087D01*
X108818604Y-67312429D01*
X108768624Y-67273528D01*
X108564502Y-67163063D01*
X108415900Y-67112048D01*
X108344981Y-67087702D01*
X108116049Y-67049500D01*
X107883951Y-67049500D01*
X107655019Y-67087702D01*
X107655016Y-67087702D01*
X107655016Y-67087703D01*
X107435497Y-67163063D01*
X107231375Y-67273528D01*
X107048212Y-67416090D01*
X106891021Y-67586845D01*
X106764076Y-67781150D01*
X106670842Y-67993700D01*
X106618228Y-68201470D01*
X106613866Y-68218695D01*
X106594700Y-68450000D01*
X106613866Y-68681305D01*
X106613866Y-68681308D01*
X106613867Y-68681309D01*
X106670842Y-68906299D01*
X106764076Y-69118849D01*
X106891021Y-69313154D01*
X107046011Y-69481518D01*
X107048216Y-69483913D01*
X107194742Y-69597958D01*
X107231375Y-69626471D01*
X107386677Y-69710516D01*
X107435497Y-69736936D01*
X107655019Y-69812298D01*
X107883951Y-69850500D01*
X108116046Y-69850500D01*
X108116049Y-69850500D01*
X108344981Y-69812298D01*
X108474676Y-69767772D01*
X108543986Y-69764188D01*
X108604681Y-69797851D01*
X110090525Y-71283694D01*
X110093515Y-71286787D01*
X110135245Y-71331469D01*
X110168427Y-71351647D01*
X110179079Y-71358897D01*
X110210025Y-71382364D01*
X110225356Y-71388409D01*
X110244591Y-71397963D01*
X110258672Y-71406526D01*
X110296065Y-71417003D01*
X110308278Y-71421110D01*
X110344410Y-71435359D01*
X110360801Y-71437043D01*
X110381912Y-71441056D01*
X110397772Y-71445500D01*
X110436605Y-71445500D01*
X110449490Y-71446161D01*
X110488108Y-71450131D01*
X110488108Y-71450130D01*
X110488109Y-71450131D01*
X110497777Y-71448464D01*
X110504344Y-71447332D01*
X110525751Y-71445500D01*
X116007772Y-71445500D01*
X116115949Y-71445500D01*
X118234662Y-71445500D01*
X118283291Y-71455262D01*
X118324385Y-71483036D01*
X118351575Y-71524519D01*
X118362934Y-71552787D01*
X118487932Y-71755797D01*
X118645434Y-71934753D01*
X118839264Y-72091261D01*
X118838177Y-72092607D01*
X118873941Y-72126884D01*
X118892535Y-72187599D01*
X118879158Y-72249672D01*
X118837206Y-72297339D01*
X118734998Y-72366419D01*
X118562882Y-72531378D01*
X118421121Y-72723053D01*
X118313791Y-72935929D01*
X118243983Y-73163877D01*
X118213701Y-73400346D01*
X118223819Y-73638529D01*
X118274044Y-73871578D01*
X118344699Y-74047405D01*
X118361741Y-74089817D01*
X118362937Y-74092792D01*
X118487932Y-74295797D01*
X118645434Y-74474753D01*
X118839264Y-74631261D01*
X118838177Y-74632607D01*
X118873941Y-74666884D01*
X118892535Y-74727599D01*
X118879158Y-74789672D01*
X118837206Y-74837339D01*
X118734998Y-74906419D01*
X118562882Y-75071378D01*
X118421121Y-75263053D01*
X118313791Y-75475929D01*
X118243983Y-75703877D01*
X118213701Y-75940346D01*
X118223819Y-76178529D01*
X118274044Y-76411578D01*
X118362937Y-76632792D01*
X118487932Y-76835797D01*
X118645434Y-77014753D01*
X118839264Y-77171261D01*
X118838177Y-77172607D01*
X118873941Y-77206884D01*
X118892535Y-77267599D01*
X118879158Y-77329672D01*
X118837206Y-77377339D01*
X118734998Y-77446419D01*
X118562882Y-77611378D01*
X118421121Y-77803053D01*
X118349439Y-77945226D01*
X118302993Y-77995793D01*
X118236930Y-78014500D01*
X117871149Y-78014500D01*
X117866848Y-78014427D01*
X117855564Y-78014041D01*
X117805754Y-78012340D01*
X117805751Y-78012340D01*
X117768020Y-78021534D01*
X117755350Y-78023942D01*
X117716888Y-78029229D01*
X117701772Y-78035794D01*
X117681422Y-78042637D01*
X117665409Y-78046540D01*
X117631559Y-78065573D01*
X117620006Y-78071311D01*
X117584390Y-78086781D01*
X117571604Y-78097183D01*
X117553848Y-78109268D01*
X117539487Y-78117342D01*
X117512033Y-78144797D01*
X117502458Y-78153438D01*
X117472334Y-78177946D01*
X117462831Y-78191409D01*
X117448990Y-78207839D01*
X116636303Y-79020526D01*
X116633211Y-79023515D01*
X116588532Y-79065242D01*
X116568356Y-79098421D01*
X116561099Y-79109082D01*
X116537635Y-79140024D01*
X116531590Y-79155354D01*
X116522037Y-79174588D01*
X116513473Y-79188672D01*
X116502999Y-79226054D01*
X116498888Y-79238280D01*
X116484640Y-79274411D01*
X116482955Y-79290802D01*
X116478946Y-79311899D01*
X116474500Y-79327771D01*
X116474500Y-79366606D01*
X116473839Y-79379491D01*
X116469868Y-79418109D01*
X116472668Y-79434345D01*
X116474500Y-79455752D01*
X116474500Y-84130140D01*
X116464909Y-84178358D01*
X116437595Y-84219235D01*
X113219236Y-87437595D01*
X113178359Y-87464909D01*
X113130141Y-87474500D01*
X103561149Y-87474500D01*
X103556848Y-87474427D01*
X103545564Y-87474041D01*
X103495754Y-87472340D01*
X103495751Y-87472340D01*
X103458020Y-87481534D01*
X103445350Y-87483942D01*
X103406888Y-87489229D01*
X103391772Y-87495794D01*
X103371422Y-87502637D01*
X103355409Y-87506540D01*
X103321559Y-87525573D01*
X103310006Y-87531311D01*
X103274390Y-87546781D01*
X103261604Y-87557183D01*
X103243848Y-87569268D01*
X103229487Y-87577342D01*
X103202033Y-87604797D01*
X103192458Y-87613438D01*
X103162334Y-87637946D01*
X103152831Y-87651409D01*
X103138990Y-87667839D01*
X102648983Y-88157846D01*
X102601510Y-88187678D01*
X102564001Y-88191907D01*
X102564107Y-88192846D01*
X102550001Y-88194435D01*
X102452402Y-88205431D01*
X102370742Y-88214632D01*
X102200478Y-88274210D01*
X102047736Y-88370184D01*
X101920184Y-88497736D01*
X101824210Y-88650478D01*
X101764632Y-88820742D01*
X101744435Y-88999999D01*
X101764632Y-89179257D01*
X101824210Y-89349521D01*
X101920184Y-89502263D01*
X102047736Y-89629815D01*
X102047738Y-89629816D01*
X102200478Y-89725789D01*
X102370745Y-89785368D01*
X102550000Y-89805565D01*
X102729255Y-89785368D01*
X102899522Y-89725789D01*
X103052262Y-89629816D01*
X103179816Y-89502262D01*
X103275789Y-89349522D01*
X103335368Y-89179255D01*
X103355565Y-89000000D01*
X103355564Y-88999997D01*
X103357154Y-88985892D01*
X103358093Y-88985997D01*
X103362319Y-88948497D01*
X103392153Y-88901016D01*
X103730766Y-88562404D01*
X103771643Y-88535091D01*
X103819861Y-88525500D01*
X113388851Y-88525500D01*
X113393152Y-88525573D01*
X113395116Y-88525640D01*
X113454245Y-88527660D01*
X113491979Y-88518463D01*
X113504621Y-88516060D01*
X113543111Y-88510771D01*
X113558227Y-88504204D01*
X113578589Y-88497356D01*
X113594594Y-88493457D01*
X113628450Y-88474419D01*
X113639979Y-88468694D01*
X113675609Y-88453219D01*
X113688395Y-88442816D01*
X113706142Y-88430737D01*
X113720512Y-88422658D01*
X113747975Y-88395193D01*
X113757547Y-88386556D01*
X113787665Y-88362054D01*
X113797170Y-88348586D01*
X113811004Y-88332164D01*
X117034950Y-85108218D01*
X117095606Y-85074566D01*
X117164883Y-85078117D01*
X117221782Y-85117797D01*
X117237946Y-85137665D01*
X117251406Y-85147166D01*
X117267839Y-85161009D01*
X118037595Y-85930765D01*
X118064909Y-85971642D01*
X118074500Y-86019860D01*
X118074500Y-97030141D01*
X118064909Y-97078359D01*
X118037597Y-97119233D01*
X116776591Y-98380239D01*
X116398983Y-98757847D01*
X116351510Y-98787678D01*
X116314001Y-98791907D01*
X116314107Y-98792846D01*
X116300001Y-98794435D01*
X116202402Y-98805431D01*
X116120742Y-98814632D01*
X115950478Y-98874210D01*
X115797736Y-98970184D01*
X115670184Y-99097736D01*
X115574210Y-99250478D01*
X115514632Y-99420742D01*
X115494435Y-99599999D01*
X115514632Y-99779257D01*
X115574210Y-99949521D01*
X115670184Y-100102263D01*
X115797736Y-100229815D01*
X115877311Y-100279815D01*
X115950478Y-100325789D01*
X116120745Y-100385368D01*
X116300000Y-100405565D01*
X116479255Y-100385368D01*
X116649522Y-100325789D01*
X116802262Y-100229816D01*
X116929816Y-100102262D01*
X117025789Y-99949522D01*
X117085368Y-99779255D01*
X117105565Y-99600000D01*
X117105564Y-99599997D01*
X117107154Y-99585892D01*
X117108093Y-99585997D01*
X117112316Y-99548501D01*
X117142150Y-99501018D01*
X118509404Y-98133764D01*
X118559564Y-98103026D01*
X118618211Y-98098410D01*
X118672561Y-98120923D01*
X118710767Y-98165656D01*
X118724500Y-98222859D01*
X118724500Y-104280141D01*
X118714909Y-104328359D01*
X118687595Y-104369236D01*
X116969236Y-106087595D01*
X116928359Y-106114909D01*
X116880141Y-106124500D01*
X103661149Y-106124500D01*
X103656848Y-106124427D01*
X103642676Y-106123942D01*
X103595754Y-106122340D01*
X103595752Y-106122340D01*
X103558029Y-106131532D01*
X103545360Y-106133940D01*
X103506887Y-106139228D01*
X103491770Y-106145795D01*
X103471407Y-106152643D01*
X103455405Y-106156542D01*
X103421567Y-106175568D01*
X103410019Y-106181304D01*
X103374390Y-106196781D01*
X103361601Y-106207185D01*
X103343852Y-106219264D01*
X103329490Y-106227340D01*
X103302031Y-106254798D01*
X103292459Y-106263436D01*
X103262335Y-106287944D01*
X103252831Y-106301409D01*
X103238990Y-106317839D01*
X102386303Y-107170526D01*
X102383211Y-107173515D01*
X102338532Y-107215242D01*
X102318356Y-107248421D01*
X102311099Y-107259082D01*
X102287635Y-107290024D01*
X102281590Y-107305354D01*
X102272037Y-107324588D01*
X102263473Y-107338672D01*
X102252999Y-107376054D01*
X102248888Y-107388280D01*
X102234640Y-107424411D01*
X102232955Y-107440802D01*
X102228946Y-107461899D01*
X102224500Y-107477771D01*
X102224500Y-107516606D01*
X102223839Y-107529491D01*
X102219868Y-107568109D01*
X102222668Y-107584345D01*
X102224500Y-107605752D01*
X102224500Y-122288851D01*
X102224427Y-122293152D01*
X102222340Y-122354245D01*
X102231533Y-122391971D01*
X102233941Y-122404643D01*
X102239229Y-122443112D01*
X102245795Y-122458230D01*
X102252642Y-122478589D01*
X102256542Y-122494594D01*
X102275568Y-122528431D01*
X102281306Y-122539984D01*
X102296780Y-122575607D01*
X102296781Y-122575609D01*
X102306064Y-122587019D01*
X102307177Y-122588387D01*
X102319265Y-122606148D01*
X102325821Y-122617807D01*
X102327342Y-122620512D01*
X102354801Y-122647971D01*
X102363437Y-122657540D01*
X102387945Y-122687664D01*
X102401404Y-122697164D01*
X102417841Y-122711010D01*
X102770526Y-123063695D01*
X102773515Y-123066787D01*
X102815245Y-123111469D01*
X102848427Y-123131647D01*
X102859079Y-123138897D01*
X102890025Y-123162364D01*
X102905356Y-123168409D01*
X102924591Y-123177963D01*
X102938672Y-123186526D01*
X102976065Y-123197003D01*
X102988278Y-123201110D01*
X103024410Y-123215359D01*
X103040801Y-123217043D01*
X103061912Y-123221056D01*
X103077771Y-123225499D01*
X103077772Y-123225500D01*
X103116605Y-123225500D01*
X103129490Y-123226161D01*
X103168108Y-123230131D01*
X103168108Y-123230130D01*
X103168109Y-123230131D01*
X103182447Y-123227659D01*
X103184344Y-123227332D01*
X103205751Y-123225500D01*
X117738851Y-123225500D01*
X117743152Y-123225573D01*
X117745116Y-123225640D01*
X117804245Y-123227660D01*
X117841979Y-123218463D01*
X117854621Y-123216060D01*
X117893111Y-123210771D01*
X117908227Y-123204204D01*
X117928589Y-123197356D01*
X117944594Y-123193457D01*
X117978450Y-123174419D01*
X117989979Y-123168694D01*
X118025609Y-123153219D01*
X118038395Y-123142816D01*
X118056142Y-123130737D01*
X118070512Y-123122658D01*
X118097979Y-123095189D01*
X118107537Y-123086563D01*
X118137665Y-123062054D01*
X118147164Y-123048595D01*
X118161000Y-123032168D01*
X118240901Y-122952267D01*
X136619624Y-122952267D01*
X136629947Y-123142639D01*
X136653137Y-123226161D01*
X136680951Y-123326339D01*
X136770253Y-123494781D01*
X136879091Y-123622915D01*
X136893678Y-123640088D01*
X137032038Y-123745266D01*
X137045453Y-123755464D01*
X137218482Y-123835515D01*
X137404675Y-123876500D01*
X137547519Y-123876500D01*
X137547523Y-123876500D01*
X137661130Y-123864144D01*
X137689533Y-123861055D01*
X137781340Y-123830121D01*
X137870201Y-123800181D01*
X137870203Y-123800180D01*
X138033563Y-123701890D01*
X138171974Y-123570780D01*
X138278964Y-123412981D01*
X138349531Y-123235871D01*
X138380375Y-123047733D01*
X138370053Y-122857362D01*
X138319049Y-122673661D01*
X138229747Y-122505219D01*
X138106323Y-122359913D01*
X138106322Y-122359912D01*
X138106321Y-122359911D01*
X137954546Y-122244535D01*
X137857890Y-122199818D01*
X137781518Y-122164485D01*
X137595325Y-122123500D01*
X137452481Y-122123500D01*
X137452477Y-122123500D01*
X137310467Y-122138944D01*
X137129798Y-122199818D01*
X136966437Y-122298109D01*
X136828024Y-122429221D01*
X136721035Y-122587019D01*
X136650469Y-122764128D01*
X136619624Y-122952267D01*
X118240901Y-122952267D01*
X118663750Y-122529417D01*
X118666785Y-122526485D01*
X118711469Y-122484755D01*
X118731656Y-122451556D01*
X118738882Y-122440939D01*
X118762364Y-122409975D01*
X118768410Y-122394640D01*
X118777964Y-122375405D01*
X118786526Y-122361328D01*
X118797001Y-122323939D01*
X118801110Y-122311721D01*
X118815359Y-122275590D01*
X118817043Y-122259201D01*
X118821056Y-122238087D01*
X118825500Y-122222228D01*
X118825500Y-122183395D01*
X118826161Y-122170510D01*
X118830131Y-122131891D01*
X118827332Y-122115656D01*
X118825500Y-122094249D01*
X118825500Y-120658768D01*
X118835091Y-120610550D01*
X118862402Y-120569675D01*
X118929816Y-120502262D01*
X119025789Y-120349522D01*
X119085368Y-120179255D01*
X119105565Y-120000000D01*
X119085368Y-119820745D01*
X119025789Y-119650478D01*
X118929815Y-119497736D01*
X118802263Y-119370184D01*
X118649521Y-119274210D01*
X118479257Y-119214632D01*
X118300000Y-119194435D01*
X118120742Y-119214632D01*
X117950478Y-119274210D01*
X117797736Y-119370184D01*
X117670184Y-119497736D01*
X117574210Y-119650478D01*
X117514632Y-119820742D01*
X117494435Y-119999999D01*
X117514632Y-120179257D01*
X117574210Y-120349521D01*
X117574211Y-120349522D01*
X117670184Y-120502262D01*
X117737597Y-120569675D01*
X117764909Y-120610550D01*
X117774500Y-120658768D01*
X117774500Y-121880141D01*
X117764909Y-121928359D01*
X117737595Y-121969236D01*
X117569236Y-122137595D01*
X117528359Y-122164909D01*
X117480141Y-122174500D01*
X111084711Y-122174500D01*
X111021059Y-122157240D01*
X110974846Y-122110190D01*
X110958731Y-122046238D01*
X110977131Y-121982906D01*
X111025004Y-121937545D01*
X111088622Y-121903310D01*
X111191681Y-121847852D01*
X111367666Y-121707508D01*
X111515765Y-121537996D01*
X111631215Y-121344764D01*
X111710307Y-121134024D01*
X111750500Y-120912547D01*
X111750500Y-119143845D01*
X111735377Y-118975812D01*
X111675493Y-118758830D01*
X111637853Y-118680669D01*
X111625573Y-118618935D01*
X111644688Y-118558964D01*
X111690427Y-118515722D01*
X111751375Y-118500000D01*
X112500000Y-118500000D01*
X113999999Y-117000001D01*
X126000000Y-117000001D01*
X127499998Y-118499999D01*
X127500000Y-118500000D01*
X128245176Y-118500000D01*
X128303635Y-118514382D01*
X128348748Y-118554245D01*
X128370218Y-118610488D01*
X128363142Y-118670273D01*
X128289692Y-118865977D01*
X128249500Y-119087454D01*
X128249500Y-120856152D01*
X128264623Y-121024190D01*
X128324507Y-121241170D01*
X128422170Y-121443972D01*
X128490482Y-121537996D01*
X128554478Y-121626078D01*
X128717175Y-121781632D01*
X128905032Y-121905635D01*
X129112012Y-121994103D01*
X129331463Y-122044191D01*
X129530644Y-122053136D01*
X129556327Y-122054290D01*
X129556327Y-122054289D01*
X129556330Y-122054290D01*
X129779387Y-122024075D01*
X129993464Y-121954517D01*
X130191681Y-121847852D01*
X130367666Y-121707508D01*
X130515765Y-121537996D01*
X130631215Y-121344764D01*
X130710307Y-121134024D01*
X130750500Y-120912547D01*
X130750500Y-119143845D01*
X130735377Y-118975812D01*
X130675493Y-118758830D01*
X130637853Y-118680669D01*
X130625573Y-118618935D01*
X130644688Y-118558964D01*
X130690427Y-118515722D01*
X130751375Y-118500000D01*
X131500000Y-118500000D01*
X133000000Y-117000000D01*
X133000000Y-114946207D01*
X133450660Y-114946207D01*
X133460887Y-115160904D01*
X133511561Y-115369787D01*
X133600853Y-115565309D01*
X133725535Y-115740401D01*
X133807201Y-115818268D01*
X133881097Y-115888727D01*
X134045369Y-115994298D01*
X134061923Y-116004937D01*
X134261465Y-116084821D01*
X134261468Y-116084822D01*
X134472528Y-116125500D01*
X134633618Y-116125500D01*
X134633623Y-116125500D01*
X134722702Y-116116993D01*
X134793971Y-116110188D01*
X135000209Y-116049631D01*
X135124911Y-115985342D01*
X135191260Y-115951138D01*
X135360214Y-115818270D01*
X135360217Y-115818268D01*
X135500976Y-115655824D01*
X135608448Y-115469677D01*
X135678750Y-115266554D01*
X135709339Y-115053797D01*
X135699112Y-114839096D01*
X135673481Y-114733443D01*
X135648438Y-114630212D01*
X135559146Y-114434690D01*
X135434464Y-114259598D01*
X135278904Y-114111274D01*
X135278903Y-114111273D01*
X135181788Y-114048861D01*
X135098076Y-113995062D01*
X134898534Y-113915178D01*
X134687472Y-113874500D01*
X134526382Y-113874500D01*
X134526377Y-113874500D01*
X134366032Y-113889811D01*
X134159788Y-113950370D01*
X133968739Y-114048861D01*
X133799785Y-114181729D01*
X133659023Y-114344176D01*
X133551552Y-114530322D01*
X133481250Y-114733443D01*
X133450660Y-114946207D01*
X133000000Y-114946207D01*
X133000000Y-113500000D01*
X132999999Y-113499998D01*
X131500001Y-112000000D01*
X131500000Y-112000000D01*
X127500000Y-112000000D01*
X127499998Y-112000000D01*
X126000000Y-113499998D01*
X126000000Y-117000001D01*
X113999999Y-117000001D01*
X114000000Y-117000000D01*
X114000000Y-114946207D01*
X114450660Y-114946207D01*
X114460887Y-115160904D01*
X114511561Y-115369787D01*
X114600853Y-115565309D01*
X114725535Y-115740401D01*
X114807201Y-115818268D01*
X114881097Y-115888727D01*
X115045369Y-115994298D01*
X115061923Y-116004937D01*
X115261465Y-116084821D01*
X115261468Y-116084822D01*
X115472528Y-116125500D01*
X115633618Y-116125500D01*
X115633623Y-116125500D01*
X115722702Y-116116993D01*
X115793971Y-116110188D01*
X116000209Y-116049631D01*
X116124911Y-115985342D01*
X116191260Y-115951138D01*
X116360214Y-115818270D01*
X116360217Y-115818268D01*
X116500976Y-115655824D01*
X116608448Y-115469677D01*
X116678750Y-115266554D01*
X116709339Y-115053797D01*
X116704214Y-114946207D01*
X123290660Y-114946207D01*
X123300887Y-115160904D01*
X123351561Y-115369787D01*
X123440853Y-115565309D01*
X123565535Y-115740401D01*
X123647201Y-115818268D01*
X123721097Y-115888727D01*
X123885369Y-115994298D01*
X123901923Y-116004937D01*
X124101465Y-116084821D01*
X124101468Y-116084822D01*
X124312528Y-116125500D01*
X124473618Y-116125500D01*
X124473623Y-116125500D01*
X124562702Y-116116993D01*
X124633971Y-116110188D01*
X124840209Y-116049631D01*
X124964911Y-115985342D01*
X125031260Y-115951138D01*
X125200214Y-115818270D01*
X125200217Y-115818268D01*
X125340976Y-115655824D01*
X125448448Y-115469677D01*
X125518750Y-115266554D01*
X125549339Y-115053797D01*
X125539112Y-114839096D01*
X125513481Y-114733443D01*
X125488438Y-114630212D01*
X125399146Y-114434690D01*
X125274464Y-114259598D01*
X125118904Y-114111274D01*
X125118903Y-114111273D01*
X125021788Y-114048861D01*
X124938076Y-113995062D01*
X124738534Y-113915178D01*
X124527472Y-113874500D01*
X124366382Y-113874500D01*
X124366377Y-113874500D01*
X124206032Y-113889811D01*
X123999788Y-113950370D01*
X123808739Y-114048861D01*
X123639785Y-114181729D01*
X123499023Y-114344176D01*
X123391552Y-114530322D01*
X123321250Y-114733443D01*
X123290660Y-114946207D01*
X116704214Y-114946207D01*
X116699112Y-114839096D01*
X116673481Y-114733443D01*
X116648438Y-114630212D01*
X116559146Y-114434690D01*
X116434464Y-114259598D01*
X116278904Y-114111274D01*
X116278903Y-114111273D01*
X116181788Y-114048861D01*
X116098076Y-113995062D01*
X115898534Y-113915178D01*
X115687472Y-113874500D01*
X115526382Y-113874500D01*
X115526377Y-113874500D01*
X115366032Y-113889811D01*
X115159788Y-113950370D01*
X114968739Y-114048861D01*
X114799785Y-114181729D01*
X114659023Y-114344176D01*
X114551552Y-114530322D01*
X114481250Y-114733443D01*
X114450660Y-114946207D01*
X114000000Y-114946207D01*
X114000000Y-113500000D01*
X113999999Y-113499998D01*
X112500001Y-112000000D01*
X112500000Y-112000000D01*
X108500000Y-112000000D01*
X108499998Y-112000000D01*
X107000000Y-113499998D01*
X107000000Y-117000001D01*
X108499998Y-118499999D01*
X108500000Y-118500000D01*
X109245176Y-118500000D01*
X109303635Y-118514382D01*
X109348748Y-118554245D01*
X109370218Y-118610488D01*
X109363142Y-118670273D01*
X109289692Y-118865977D01*
X109249500Y-119087454D01*
X109249500Y-120856152D01*
X109264623Y-121024190D01*
X109324507Y-121241170D01*
X109422170Y-121443972D01*
X109490482Y-121537996D01*
X109554478Y-121626078D01*
X109717175Y-121781632D01*
X109905032Y-121905635D01*
X109958197Y-121928359D01*
X109968213Y-121932640D01*
X110021289Y-121975357D01*
X110044367Y-122039460D01*
X110030701Y-122106206D01*
X109984286Y-122156080D01*
X109918692Y-122174500D01*
X103419859Y-122174500D01*
X103371641Y-122164909D01*
X103330764Y-122137595D01*
X103312405Y-122119236D01*
X103285091Y-122078359D01*
X103275500Y-122030141D01*
X103275500Y-114946207D01*
X104290660Y-114946207D01*
X104300887Y-115160904D01*
X104351561Y-115369787D01*
X104440853Y-115565309D01*
X104565535Y-115740401D01*
X104647201Y-115818268D01*
X104721097Y-115888727D01*
X104885369Y-115994298D01*
X104901923Y-116004937D01*
X105101465Y-116084821D01*
X105101468Y-116084822D01*
X105312528Y-116125500D01*
X105473618Y-116125500D01*
X105473623Y-116125500D01*
X105562702Y-116116993D01*
X105633971Y-116110188D01*
X105840209Y-116049631D01*
X105964911Y-115985342D01*
X106031260Y-115951138D01*
X106200214Y-115818270D01*
X106200217Y-115818268D01*
X106340976Y-115655824D01*
X106448448Y-115469677D01*
X106518750Y-115266554D01*
X106549339Y-115053797D01*
X106539112Y-114839096D01*
X106513481Y-114733443D01*
X106488438Y-114630212D01*
X106399146Y-114434690D01*
X106274464Y-114259598D01*
X106118904Y-114111274D01*
X106118903Y-114111273D01*
X106021788Y-114048861D01*
X105938076Y-113995062D01*
X105738534Y-113915178D01*
X105527472Y-113874500D01*
X105366382Y-113874500D01*
X105366377Y-113874500D01*
X105206032Y-113889811D01*
X104999788Y-113950370D01*
X104808739Y-114048861D01*
X104639785Y-114181729D01*
X104499023Y-114344176D01*
X104391552Y-114530322D01*
X104321250Y-114733443D01*
X104290660Y-114946207D01*
X103275500Y-114946207D01*
X103275500Y-107819861D01*
X103285091Y-107771643D01*
X103312404Y-107730766D01*
X103830764Y-107212405D01*
X103871642Y-107185091D01*
X103919860Y-107175500D01*
X107841785Y-107175500D01*
X107898988Y-107189233D01*
X107943721Y-107227439D01*
X107966234Y-107281789D01*
X107961618Y-107340436D01*
X107930880Y-107390595D01*
X107726505Y-107594970D01*
X106743899Y-108577574D01*
X106740808Y-108580562D01*
X106693954Y-108624322D01*
X106672662Y-108659334D01*
X106665406Y-108669995D01*
X106640638Y-108702657D01*
X106634116Y-108719196D01*
X106624563Y-108738431D01*
X106615326Y-108753620D01*
X106604267Y-108793088D01*
X106600157Y-108805309D01*
X106585123Y-108843433D01*
X106583305Y-108861118D01*
X106579296Y-108882214D01*
X106574500Y-108899335D01*
X106574500Y-108940320D01*
X106573839Y-108953205D01*
X106569648Y-108993971D01*
X106572668Y-109011489D01*
X106574500Y-109032896D01*
X106574500Y-110641232D01*
X106564909Y-110689451D01*
X106537597Y-110730324D01*
X106516388Y-110751533D01*
X106495182Y-110772739D01*
X106399210Y-110925478D01*
X106339632Y-111095742D01*
X106319435Y-111275000D01*
X106339632Y-111454257D01*
X106399210Y-111624521D01*
X106495184Y-111777263D01*
X106622736Y-111904815D01*
X106662525Y-111929816D01*
X106775478Y-112000789D01*
X106945745Y-112060368D01*
X107125000Y-112080565D01*
X107304255Y-112060368D01*
X107474522Y-112000789D01*
X107627262Y-111904816D01*
X107754816Y-111777262D01*
X107850789Y-111624522D01*
X107910368Y-111454255D01*
X107930565Y-111275000D01*
X107910368Y-111095745D01*
X107850789Y-110925478D01*
X107754816Y-110772738D01*
X107712402Y-110730324D01*
X107685091Y-110689451D01*
X107675500Y-110641232D01*
X107675500Y-109255215D01*
X107685091Y-109206997D01*
X107712405Y-109166120D01*
X108891119Y-107987405D01*
X108931996Y-107960091D01*
X108980214Y-107950500D01*
X119388439Y-107950500D01*
X119392740Y-107950573D01*
X119456826Y-107952762D01*
X119496642Y-107943058D01*
X119509295Y-107940652D01*
X119549920Y-107935070D01*
X119566225Y-107927986D01*
X119586586Y-107921139D01*
X119603852Y-107916933D01*
X119639584Y-107896841D01*
X119651122Y-107891110D01*
X119688720Y-107874780D01*
X119702501Y-107863567D01*
X119720264Y-107851477D01*
X119735759Y-107842766D01*
X119764742Y-107813781D01*
X119774311Y-107805145D01*
X119806108Y-107779278D01*
X119816362Y-107764750D01*
X119830200Y-107748324D01*
X120510904Y-107067620D01*
X120567388Y-107035008D01*
X120632610Y-107035008D01*
X120689094Y-107067619D01*
X121402559Y-107781083D01*
X121405549Y-107784177D01*
X121449320Y-107831044D01*
X121484333Y-107852335D01*
X121495003Y-107859597D01*
X121527658Y-107884361D01*
X121544198Y-107890883D01*
X121563425Y-107900433D01*
X121578618Y-107909672D01*
X121602816Y-107916452D01*
X121618087Y-107920731D01*
X121630305Y-107924839D01*
X121668436Y-107939876D01*
X121684525Y-107941530D01*
X121686110Y-107941693D01*
X121707217Y-107945704D01*
X121724335Y-107950500D01*
X121765320Y-107950500D01*
X121778205Y-107951161D01*
X121780942Y-107951442D01*
X121818972Y-107955352D01*
X121833994Y-107952762D01*
X121836489Y-107952332D01*
X121857896Y-107950500D01*
X124169785Y-107950500D01*
X124218003Y-107960091D01*
X124258877Y-107987402D01*
X125212597Y-108941121D01*
X125239909Y-108981996D01*
X125249500Y-109030214D01*
X125249500Y-110666232D01*
X125239909Y-110714451D01*
X125212597Y-110755324D01*
X125195184Y-110772738D01*
X125170182Y-110797739D01*
X125074210Y-110950478D01*
X125014632Y-111120742D01*
X124994435Y-111299999D01*
X125014632Y-111479257D01*
X125074210Y-111649521D01*
X125170184Y-111802263D01*
X125297736Y-111929815D01*
X125297738Y-111929816D01*
X125450478Y-112025789D01*
X125620745Y-112085368D01*
X125800000Y-112105565D01*
X125979255Y-112085368D01*
X126149522Y-112025789D01*
X126302262Y-111929816D01*
X126429816Y-111802262D01*
X126525789Y-111649522D01*
X126585368Y-111479255D01*
X126605565Y-111300000D01*
X126585368Y-111120745D01*
X126525789Y-110950478D01*
X126525788Y-110950477D01*
X126429817Y-110797739D01*
X126429816Y-110797738D01*
X126387402Y-110755324D01*
X126360091Y-110714451D01*
X126350500Y-110666232D01*
X126350500Y-108761561D01*
X126350573Y-108757260D01*
X126351216Y-108738431D01*
X126352762Y-108693174D01*
X126343058Y-108653356D01*
X126340650Y-108640686D01*
X126335070Y-108600080D01*
X126327988Y-108583778D01*
X126321139Y-108563408D01*
X126316934Y-108546150D01*
X126316933Y-108546148D01*
X126296838Y-108510409D01*
X126291114Y-108498885D01*
X126274780Y-108461280D01*
X126263558Y-108447488D01*
X126251475Y-108429734D01*
X126242765Y-108414241D01*
X126213794Y-108385270D01*
X126205149Y-108375691D01*
X126179279Y-108343892D01*
X126164752Y-108333638D01*
X126148324Y-108319800D01*
X125219117Y-107390592D01*
X125188382Y-107340436D01*
X125183766Y-107281789D01*
X125206279Y-107227439D01*
X125251012Y-107189233D01*
X125308215Y-107175500D01*
X128841232Y-107175500D01*
X128889450Y-107185091D01*
X128930324Y-107212402D01*
X128997738Y-107279816D01*
X129150478Y-107375789D01*
X129320745Y-107435368D01*
X129500000Y-107455565D01*
X129679255Y-107435368D01*
X129849522Y-107375789D01*
X130002262Y-107279816D01*
X130129816Y-107152262D01*
X130225789Y-106999522D01*
X130285368Y-106829255D01*
X130305565Y-106650000D01*
X130285368Y-106470745D01*
X130225789Y-106300478D01*
X130150907Y-106181304D01*
X130129815Y-106147736D01*
X130002263Y-106020184D01*
X129849521Y-105924210D01*
X129679257Y-105864632D01*
X129500000Y-105844435D01*
X129320742Y-105864632D01*
X129150478Y-105924210D01*
X128997739Y-106020183D01*
X128997738Y-106020183D01*
X128997738Y-106020184D01*
X128930324Y-106087597D01*
X128889450Y-106114909D01*
X128841232Y-106124500D01*
X122319861Y-106124500D01*
X122271643Y-106114909D01*
X122230766Y-106087596D01*
X121812405Y-105669236D01*
X121785091Y-105628358D01*
X121775500Y-105580140D01*
X121775500Y-101856152D01*
X128249500Y-101856152D01*
X128264623Y-102024190D01*
X128324507Y-102241170D01*
X128422170Y-102443972D01*
X128490482Y-102537996D01*
X128554478Y-102626078D01*
X128717175Y-102781632D01*
X128905032Y-102905635D01*
X129112012Y-102994103D01*
X129331463Y-103044191D01*
X129530644Y-103053136D01*
X129556327Y-103054290D01*
X129556327Y-103054289D01*
X129556330Y-103054290D01*
X129779387Y-103024075D01*
X129993464Y-102954517D01*
X130191681Y-102847852D01*
X130367666Y-102707508D01*
X130515765Y-102537996D01*
X130631215Y-102344764D01*
X130710307Y-102134024D01*
X130750500Y-101912547D01*
X130750500Y-100143845D01*
X130735377Y-99975812D01*
X130675493Y-99758830D01*
X130577829Y-99556027D01*
X130445522Y-99373922D01*
X130320721Y-99254600D01*
X130282824Y-99218367D01*
X130170400Y-99144157D01*
X130094968Y-99094365D01*
X130094966Y-99094364D01*
X129887992Y-99005898D01*
X129884601Y-99005124D01*
X129668537Y-98955809D01*
X129651413Y-98955039D01*
X129443672Y-98945709D01*
X129306690Y-98964265D01*
X129220613Y-98975925D01*
X129220610Y-98975925D01*
X129220609Y-98975926D01*
X129006535Y-99045482D01*
X128808321Y-99152146D01*
X128632331Y-99292494D01*
X128484236Y-99462002D01*
X128368785Y-99655235D01*
X128289692Y-99865977D01*
X128249500Y-100087454D01*
X128249500Y-101856152D01*
X121775500Y-101856152D01*
X121775500Y-95946207D01*
X123290660Y-95946207D01*
X123300887Y-96160904D01*
X123351561Y-96369787D01*
X123440853Y-96565309D01*
X123565535Y-96740401D01*
X123647201Y-96818268D01*
X123721097Y-96888727D01*
X123885369Y-96994298D01*
X123901923Y-97004937D01*
X124101465Y-97084821D01*
X124101468Y-97084822D01*
X124312528Y-97125500D01*
X124473618Y-97125500D01*
X124473623Y-97125500D01*
X124562702Y-97116993D01*
X124633971Y-97110188D01*
X124840209Y-97049631D01*
X124964911Y-96985342D01*
X125031260Y-96951138D01*
X125147236Y-96859932D01*
X125200217Y-96818268D01*
X125340976Y-96655824D01*
X125448448Y-96469677D01*
X125518750Y-96266554D01*
X125546237Y-96075373D01*
X127245723Y-96075373D01*
X127275881Y-96375157D01*
X127345731Y-96668262D01*
X127393151Y-96791383D01*
X127454023Y-96949434D01*
X127571594Y-97163975D01*
X127598826Y-97213667D01*
X127777552Y-97456236D01*
X127777554Y-97456238D01*
X127987020Y-97672824D01*
X128138038Y-97792081D01*
X128216174Y-97853785D01*
X128223485Y-97859558D01*
X128482730Y-98013109D01*
X128592749Y-98059761D01*
X128760128Y-98130736D01*
X129050726Y-98210340D01*
X129237157Y-98235412D01*
X129349347Y-98250500D01*
X129575239Y-98250500D01*
X129575244Y-98250500D01*
X129800634Y-98235412D01*
X130095903Y-98175396D01*
X130380537Y-98076560D01*
X130649459Y-97940668D01*
X130897869Y-97770144D01*
X131121333Y-97568032D01*
X131315865Y-97337939D01*
X131315867Y-97337937D01*
X131477449Y-97084822D01*
X131477993Y-97083970D01*
X131604823Y-96810658D01*
X131694093Y-96522879D01*
X131744209Y-96225770D01*
X131754277Y-95924631D01*
X131724118Y-95624838D01*
X131654269Y-95331739D01*
X131545977Y-95050566D01*
X131401175Y-94786335D01*
X131309610Y-94662062D01*
X131222447Y-94543763D01*
X131215780Y-94536869D01*
X131012980Y-94327176D01*
X130776515Y-94140442D01*
X130517270Y-93986891D01*
X130517267Y-93986890D01*
X130517266Y-93986889D01*
X130239871Y-93869263D01*
X129949273Y-93789659D01*
X129679267Y-93753348D01*
X129650653Y-93749500D01*
X129424756Y-93749500D01*
X129312061Y-93757043D01*
X129199361Y-93764588D01*
X128904096Y-93824603D01*
X128619462Y-93923439D01*
X128350545Y-94059329D01*
X128102130Y-94229856D01*
X127878665Y-94431969D01*
X127684132Y-94662062D01*
X127522007Y-94916028D01*
X127395178Y-95189338D01*
X127305906Y-95477121D01*
X127255791Y-95774227D01*
X127255790Y-95774230D01*
X127255791Y-95774230D01*
X127246445Y-96053792D01*
X127245723Y-96075373D01*
X125546237Y-96075373D01*
X125549339Y-96053797D01*
X125539112Y-95839096D01*
X125513481Y-95733443D01*
X125488438Y-95630212D01*
X125442820Y-95530323D01*
X125399146Y-95434690D01*
X125392469Y-95425314D01*
X125369281Y-95358864D01*
X125385350Y-95290343D01*
X125435663Y-95241130D01*
X125504519Y-95226579D01*
X125623558Y-95235500D01*
X125756437Y-95235500D01*
X125756442Y-95235500D01*
X125955367Y-95220593D01*
X126214805Y-95161377D01*
X126462521Y-95064156D01*
X126692980Y-94931101D01*
X126901033Y-94765183D01*
X127082035Y-94570110D01*
X127231940Y-94350240D01*
X127347401Y-94110482D01*
X127425839Y-93856194D01*
X127465500Y-93593055D01*
X127465500Y-93326945D01*
X127425839Y-93063806D01*
X127358447Y-92845327D01*
X127347401Y-92809517D01*
X127256796Y-92621376D01*
X127231940Y-92569761D01*
X127082035Y-92349890D01*
X126901033Y-92154817D01*
X126890244Y-92146213D01*
X126692981Y-91988899D01*
X126462521Y-91855844D01*
X126214805Y-91758623D01*
X125955367Y-91699407D01*
X125955366Y-91699406D01*
X125756442Y-91684500D01*
X125623558Y-91684500D01*
X125457787Y-91696922D01*
X125424632Y-91699407D01*
X125165194Y-91758623D01*
X124917478Y-91855844D01*
X124687018Y-91988899D01*
X124478967Y-92154816D01*
X124297964Y-92349890D01*
X124148060Y-92569759D01*
X124032598Y-92809517D01*
X123958393Y-93050084D01*
X123954161Y-93063806D01*
X123914500Y-93326945D01*
X123914500Y-93593055D01*
X123954161Y-93856194D01*
X123958193Y-93869264D01*
X124032598Y-94110482D01*
X124148060Y-94350239D01*
X124297964Y-94570109D01*
X124389564Y-94668830D01*
X124420882Y-94730476D01*
X124414954Y-94799366D01*
X124373564Y-94854754D01*
X124309178Y-94879961D01*
X124206032Y-94889811D01*
X123999788Y-94950370D01*
X123808739Y-95048861D01*
X123639785Y-95181729D01*
X123499023Y-95344176D01*
X123391552Y-95530322D01*
X123321250Y-95733443D01*
X123290660Y-95946207D01*
X121775500Y-95946207D01*
X121775500Y-91053055D01*
X130264500Y-91053055D01*
X130304161Y-91316194D01*
X130304162Y-91316196D01*
X130382598Y-91570482D01*
X130498060Y-91810239D01*
X130647964Y-92030109D01*
X130828967Y-92225183D01*
X131037018Y-92391100D01*
X131037020Y-92391101D01*
X131267479Y-92524156D01*
X131515195Y-92621377D01*
X131774633Y-92680593D01*
X131973558Y-92695500D01*
X132106437Y-92695500D01*
X132106442Y-92695500D01*
X132305367Y-92680593D01*
X132564805Y-92621377D01*
X132812521Y-92524156D01*
X133042980Y-92391101D01*
X133251033Y-92225183D01*
X133432035Y-92030110D01*
X133581940Y-91810240D01*
X133697401Y-91570482D01*
X133775839Y-91316194D01*
X133815500Y-91053055D01*
X133815500Y-90786945D01*
X133775839Y-90523806D01*
X133712737Y-90319236D01*
X133697401Y-90269517D01*
X133641797Y-90154055D01*
X133581940Y-90029761D01*
X133432035Y-89809890D01*
X133251033Y-89614817D01*
X133251032Y-89614816D01*
X133042981Y-89448899D01*
X132812521Y-89315844D01*
X132564805Y-89218623D01*
X132305367Y-89159407D01*
X132305366Y-89159406D01*
X132106442Y-89144500D01*
X131973558Y-89144500D01*
X131807787Y-89156922D01*
X131774632Y-89159407D01*
X131515194Y-89218623D01*
X131267478Y-89315844D01*
X131037018Y-89448899D01*
X130828967Y-89614816D01*
X130647964Y-89809890D01*
X130498060Y-90029759D01*
X130382598Y-90269517D01*
X130308393Y-90510084D01*
X130304161Y-90523806D01*
X130264500Y-90786945D01*
X130264500Y-91053055D01*
X121775500Y-91053055D01*
X121775500Y-89769860D01*
X121785091Y-89721642D01*
X121812405Y-89680765D01*
X123180765Y-88312405D01*
X123221642Y-88285091D01*
X123269860Y-88275500D01*
X131438851Y-88275500D01*
X131443152Y-88275573D01*
X131445116Y-88275640D01*
X131504245Y-88277660D01*
X131541979Y-88268463D01*
X131554621Y-88266060D01*
X131593111Y-88260771D01*
X131608227Y-88254204D01*
X131628589Y-88247356D01*
X131644594Y-88243457D01*
X131678450Y-88224419D01*
X131689979Y-88218694D01*
X131725609Y-88203219D01*
X131738395Y-88192816D01*
X131756142Y-88180737D01*
X131770512Y-88172658D01*
X131797975Y-88145193D01*
X131807547Y-88136556D01*
X131837665Y-88112054D01*
X131847170Y-88098586D01*
X131861004Y-88082164D01*
X135273437Y-84669730D01*
X135325634Y-84638350D01*
X135386456Y-84635119D01*
X135441686Y-84660795D01*
X135594917Y-84784521D01*
X135594918Y-84784521D01*
X135594920Y-84784523D01*
X135803046Y-84900790D01*
X136027829Y-84980211D01*
X136251797Y-85018613D01*
X136305423Y-85041496D01*
X136343009Y-85086074D01*
X136356500Y-85142800D01*
X136356500Y-91098140D01*
X136346909Y-91146358D01*
X136319597Y-91187232D01*
X135964451Y-91542379D01*
X135736303Y-91770527D01*
X135733211Y-91773515D01*
X135688532Y-91815242D01*
X135668356Y-91848421D01*
X135661099Y-91859082D01*
X135637635Y-91890024D01*
X135631590Y-91905354D01*
X135622037Y-91924588D01*
X135613473Y-91938672D01*
X135602999Y-91976054D01*
X135598888Y-91988280D01*
X135584640Y-92024411D01*
X135582955Y-92040802D01*
X135578946Y-92061899D01*
X135574500Y-92077771D01*
X135574500Y-92116606D01*
X135573839Y-92129491D01*
X135569868Y-92168109D01*
X135572668Y-92184345D01*
X135574500Y-92205752D01*
X135574500Y-95098886D01*
X135561038Y-95155554D01*
X135523528Y-95200112D01*
X135469986Y-95223041D01*
X135411853Y-95219439D01*
X135361552Y-95190078D01*
X135278903Y-95111273D01*
X135181788Y-95048861D01*
X135098076Y-94995062D01*
X134898534Y-94915178D01*
X134687472Y-94874500D01*
X134526382Y-94874500D01*
X134526377Y-94874500D01*
X134366032Y-94889811D01*
X134159788Y-94950370D01*
X133968739Y-95048861D01*
X133799785Y-95181729D01*
X133659023Y-95344176D01*
X133551552Y-95530322D01*
X133481250Y-95733443D01*
X133450660Y-95946207D01*
X133460887Y-96160904D01*
X133511561Y-96369787D01*
X133600853Y-96565309D01*
X133725535Y-96740401D01*
X133807201Y-96818268D01*
X133881097Y-96888727D01*
X134045369Y-96994298D01*
X134061923Y-97004937D01*
X134261465Y-97084821D01*
X134261468Y-97084822D01*
X134472528Y-97125500D01*
X134633618Y-97125500D01*
X134633623Y-97125500D01*
X134722702Y-97116993D01*
X134793971Y-97110188D01*
X135000209Y-97049631D01*
X135124911Y-96985342D01*
X135191260Y-96951138D01*
X135369674Y-96810831D01*
X135371641Y-96813333D01*
X135402765Y-96791383D01*
X135462846Y-96783609D01*
X135519611Y-96804774D01*
X135559936Y-96849985D01*
X135574500Y-96908790D01*
X135574500Y-98630140D01*
X135564909Y-98678359D01*
X135537594Y-98719236D01*
X135448981Y-98807847D01*
X135401507Y-98837678D01*
X135364001Y-98841906D01*
X135364107Y-98842846D01*
X135350001Y-98844435D01*
X135252402Y-98855431D01*
X135170742Y-98864632D01*
X135000478Y-98924210D01*
X134847736Y-99020184D01*
X134720184Y-99147736D01*
X134624210Y-99300478D01*
X134564632Y-99470742D01*
X134544435Y-99650000D01*
X134564632Y-99829257D01*
X134624210Y-99999521D01*
X134720184Y-100152263D01*
X134847736Y-100279815D01*
X135000477Y-100375788D01*
X135000478Y-100375789D01*
X135170745Y-100435368D01*
X135350000Y-100455565D01*
X135529255Y-100435368D01*
X135699522Y-100375789D01*
X135852262Y-100279816D01*
X135852262Y-100279815D01*
X135931748Y-100200331D01*
X135981907Y-100169593D01*
X136040554Y-100164977D01*
X136094904Y-100187490D01*
X136133110Y-100232223D01*
X136146843Y-100289426D01*
X136146843Y-119498586D01*
X136127530Y-119565622D01*
X136074210Y-119650478D01*
X136014632Y-119820742D01*
X135994435Y-119999999D01*
X136014632Y-120179257D01*
X136074210Y-120349521D01*
X136170184Y-120502263D01*
X136297736Y-120629815D01*
X136297738Y-120629816D01*
X136450478Y-120725789D01*
X136620745Y-120785368D01*
X136800000Y-120805565D01*
X136979255Y-120785368D01*
X137149522Y-120725789D01*
X137302262Y-120629816D01*
X137429816Y-120502262D01*
X137525789Y-120349522D01*
X137585368Y-120179255D01*
X137605565Y-120000000D01*
X137585368Y-119820745D01*
X137525789Y-119650478D01*
X137429815Y-119497736D01*
X137302265Y-119370186D01*
X137256806Y-119341622D01*
X137213565Y-119295883D01*
X137197843Y-119234935D01*
X137197843Y-97419817D01*
X137214752Y-97356768D01*
X137260940Y-97310642D01*
X137324012Y-97293817D01*
X137387038Y-97310810D01*
X137433102Y-97357060D01*
X137525762Y-97518382D01*
X137649552Y-97696156D01*
X137759315Y-97853786D01*
X138021093Y-98167653D01*
X138021094Y-98167654D01*
X138309126Y-98457621D01*
X138513180Y-98630140D01*
X138621240Y-98721500D01*
X138782015Y-98835014D01*
X138793780Y-98844423D01*
X138865341Y-98909034D01*
X138885077Y-98931676D01*
X138935050Y-99005124D01*
X138948862Y-99031788D01*
X138980032Y-99114981D01*
X138987141Y-99144157D01*
X138998601Y-99239575D01*
X138999500Y-99254600D01*
X138999500Y-122995499D01*
X138999179Y-123004488D01*
X138984880Y-123204409D01*
X138982322Y-123222203D01*
X138940675Y-123413651D01*
X138935610Y-123430901D01*
X138867141Y-123614473D01*
X138859673Y-123630825D01*
X138765777Y-123802783D01*
X138756057Y-123817907D01*
X138638644Y-123974752D01*
X138626871Y-123988338D01*
X138488338Y-124126871D01*
X138474752Y-124138644D01*
X138317907Y-124256057D01*
X138302783Y-124265777D01*
X138130825Y-124359673D01*
X138114473Y-124367141D01*
X137930901Y-124435610D01*
X137913651Y-124440675D01*
X137722203Y-124482322D01*
X137704409Y-124484880D01*
X137504488Y-124499179D01*
X137495499Y-124499500D01*
X102504501Y-124499500D01*
X102495512Y-124499179D01*
X102295590Y-124484880D01*
X102277796Y-124482322D01*
X102086348Y-124440675D01*
X102069098Y-124435610D01*
X101885526Y-124367141D01*
X101869174Y-124359673D01*
X101697216Y-124265777D01*
X101682092Y-124256057D01*
X101525247Y-124138644D01*
X101511661Y-124126871D01*
X101373128Y-123988338D01*
X101361355Y-123974752D01*
X101243942Y-123817907D01*
X101234222Y-123802783D01*
X101145384Y-123640088D01*
X101140325Y-123630823D01*
X101132858Y-123614473D01*
X101116561Y-123570780D01*
X101064388Y-123430899D01*
X101059324Y-123413651D01*
X101059178Y-123412980D01*
X101017675Y-123222193D01*
X101015120Y-123204419D01*
X101000821Y-123004487D01*
X101000500Y-122995499D01*
X101000500Y-104952267D01*
X101619624Y-104952267D01*
X101624801Y-105047732D01*
X101629947Y-105142638D01*
X101680951Y-105326339D01*
X101770253Y-105494781D01*
X101887089Y-105632331D01*
X101893678Y-105640088D01*
X102045453Y-105755464D01*
X102218482Y-105835515D01*
X102404675Y-105876500D01*
X102547519Y-105876500D01*
X102547523Y-105876500D01*
X102661130Y-105864143D01*
X102689533Y-105861055D01*
X102781340Y-105830121D01*
X102870201Y-105800181D01*
X102870203Y-105800180D01*
X103033563Y-105701890D01*
X103171974Y-105570780D01*
X103278964Y-105412981D01*
X103349531Y-105235871D01*
X103380375Y-105047733D01*
X103370053Y-104857362D01*
X103319049Y-104673661D01*
X103229747Y-104505219D01*
X103106323Y-104359913D01*
X103106322Y-104359912D01*
X103106321Y-104359911D01*
X102954546Y-104244535D01*
X102857890Y-104199818D01*
X102781518Y-104164485D01*
X102595325Y-104123500D01*
X102452481Y-104123500D01*
X102452477Y-104123500D01*
X102310467Y-104138944D01*
X102129798Y-104199818D01*
X101966437Y-104298109D01*
X101828024Y-104429221D01*
X101721035Y-104587019D01*
X101650469Y-104764128D01*
X101619624Y-104952267D01*
X101000500Y-104952267D01*
X101000500Y-101856152D01*
X109399500Y-101856152D01*
X109414623Y-102024190D01*
X109474507Y-102241170D01*
X109572170Y-102443972D01*
X109640482Y-102537996D01*
X109704478Y-102626078D01*
X109867175Y-102781632D01*
X110055032Y-102905635D01*
X110262012Y-102994103D01*
X110481463Y-103044191D01*
X110680644Y-103053136D01*
X110706327Y-103054290D01*
X110706327Y-103054289D01*
X110706330Y-103054290D01*
X110929387Y-103024075D01*
X111143464Y-102954517D01*
X111341681Y-102847852D01*
X111517666Y-102707508D01*
X111665765Y-102537996D01*
X111781215Y-102344764D01*
X111860307Y-102134024D01*
X111900500Y-101912547D01*
X111900500Y-100143845D01*
X111885377Y-99975812D01*
X111825493Y-99758830D01*
X111727829Y-99556027D01*
X111595522Y-99373922D01*
X111470721Y-99254600D01*
X111432824Y-99218367D01*
X111320400Y-99144157D01*
X111244968Y-99094365D01*
X111244966Y-99094364D01*
X111037992Y-99005898D01*
X111034601Y-99005124D01*
X110818537Y-98955809D01*
X110801413Y-98955039D01*
X110593672Y-98945709D01*
X110456690Y-98964265D01*
X110370613Y-98975925D01*
X110370610Y-98975925D01*
X110370609Y-98975926D01*
X110156535Y-99045482D01*
X109958321Y-99152146D01*
X109782331Y-99292494D01*
X109634236Y-99462002D01*
X109518785Y-99655235D01*
X109439692Y-99865977D01*
X109399500Y-100087454D01*
X109399500Y-101856152D01*
X101000500Y-101856152D01*
X101000500Y-99254916D01*
X101001399Y-99239892D01*
X101011937Y-99152146D01*
X101012897Y-99144157D01*
X101020004Y-99114991D01*
X101051170Y-99031806D01*
X101064979Y-99005148D01*
X101114949Y-98931703D01*
X101134684Y-98909062D01*
X101134715Y-98909034D01*
X101206498Y-98844222D01*
X101218232Y-98834838D01*
X101378765Y-98721496D01*
X101690874Y-98457621D01*
X101978906Y-98167654D01*
X102240685Y-97853785D01*
X102474238Y-97518382D01*
X102677802Y-97163975D01*
X102849840Y-96793239D01*
X102989055Y-96408972D01*
X103094396Y-96014072D01*
X103106310Y-95946207D01*
X104290660Y-95946207D01*
X104300887Y-96160904D01*
X104351561Y-96369787D01*
X104440853Y-96565309D01*
X104565535Y-96740401D01*
X104647201Y-96818268D01*
X104721097Y-96888727D01*
X104885369Y-96994298D01*
X104901923Y-97004937D01*
X105101465Y-97084821D01*
X105101468Y-97084822D01*
X105312528Y-97125500D01*
X105473618Y-97125500D01*
X105473623Y-97125500D01*
X105562702Y-97116993D01*
X105633971Y-97110188D01*
X105840209Y-97049631D01*
X105964911Y-96985342D01*
X106031260Y-96951138D01*
X106147236Y-96859932D01*
X106200217Y-96818268D01*
X106340976Y-96655824D01*
X106448448Y-96469677D01*
X106518750Y-96266554D01*
X106546237Y-96075373D01*
X108245723Y-96075373D01*
X108275881Y-96375157D01*
X108345731Y-96668262D01*
X108393151Y-96791383D01*
X108454023Y-96949434D01*
X108571594Y-97163975D01*
X108598826Y-97213667D01*
X108777552Y-97456236D01*
X108777554Y-97456238D01*
X108987020Y-97672824D01*
X109138038Y-97792081D01*
X109216174Y-97853785D01*
X109223485Y-97859558D01*
X109482730Y-98013109D01*
X109592749Y-98059761D01*
X109760128Y-98130736D01*
X110050726Y-98210340D01*
X110237157Y-98235412D01*
X110349347Y-98250500D01*
X110575239Y-98250500D01*
X110575244Y-98250500D01*
X110800634Y-98235412D01*
X111095903Y-98175396D01*
X111380537Y-98076560D01*
X111649459Y-97940668D01*
X111897869Y-97770144D01*
X112121333Y-97568032D01*
X112315865Y-97337939D01*
X112315867Y-97337937D01*
X112477449Y-97084822D01*
X112477993Y-97083970D01*
X112604823Y-96810658D01*
X112694093Y-96522879D01*
X112744209Y-96225770D01*
X112753556Y-95946207D01*
X114450660Y-95946207D01*
X114460887Y-96160904D01*
X114511561Y-96369787D01*
X114600853Y-96565309D01*
X114725535Y-96740401D01*
X114807201Y-96818268D01*
X114881097Y-96888727D01*
X115045369Y-96994298D01*
X115061923Y-97004937D01*
X115261465Y-97084821D01*
X115261468Y-97084822D01*
X115472528Y-97125500D01*
X115633618Y-97125500D01*
X115633623Y-97125500D01*
X115722702Y-97116993D01*
X115793971Y-97110188D01*
X116000209Y-97049631D01*
X116124911Y-96985342D01*
X116191260Y-96951138D01*
X116307236Y-96859932D01*
X116360217Y-96818268D01*
X116500976Y-96655824D01*
X116608448Y-96469677D01*
X116678750Y-96266554D01*
X116709339Y-96053797D01*
X116699112Y-95839096D01*
X116673481Y-95733443D01*
X116648438Y-95630212D01*
X116559146Y-95434690D01*
X116434464Y-95259598D01*
X116278904Y-95111274D01*
X116278903Y-95111273D01*
X116181788Y-95048861D01*
X116098076Y-94995062D01*
X115898534Y-94915178D01*
X115687472Y-94874500D01*
X115526382Y-94874500D01*
X115526377Y-94874500D01*
X115366032Y-94889811D01*
X115159788Y-94950370D01*
X114968739Y-95048861D01*
X114799785Y-95181729D01*
X114659023Y-95344176D01*
X114551552Y-95530322D01*
X114481250Y-95733443D01*
X114450660Y-95946207D01*
X112753556Y-95946207D01*
X112754277Y-95924631D01*
X112724118Y-95624838D01*
X112654269Y-95331739D01*
X112545977Y-95050566D01*
X112401175Y-94786335D01*
X112309610Y-94662062D01*
X112222447Y-94543763D01*
X112215780Y-94536869D01*
X112012980Y-94327176D01*
X111776515Y-94140442D01*
X111517270Y-93986891D01*
X111517267Y-93986890D01*
X111517266Y-93986889D01*
X111239871Y-93869263D01*
X110949273Y-93789659D01*
X110679267Y-93753348D01*
X110650653Y-93749500D01*
X110424756Y-93749500D01*
X110312061Y-93757043D01*
X110199361Y-93764588D01*
X109904096Y-93824603D01*
X109619462Y-93923439D01*
X109350545Y-94059329D01*
X109102130Y-94229856D01*
X108878665Y-94431969D01*
X108684132Y-94662062D01*
X108522007Y-94916028D01*
X108395178Y-95189338D01*
X108305906Y-95477121D01*
X108255791Y-95774227D01*
X108255790Y-95774230D01*
X108255791Y-95774230D01*
X108246445Y-96053792D01*
X108245723Y-96075373D01*
X106546237Y-96075373D01*
X106549339Y-96053797D01*
X106539112Y-95839096D01*
X106513481Y-95733443D01*
X106488438Y-95630212D01*
X106442820Y-95530323D01*
X106399146Y-95434690D01*
X106392469Y-95425314D01*
X106369281Y-95358864D01*
X106385350Y-95290343D01*
X106435663Y-95241130D01*
X106504519Y-95226579D01*
X106623558Y-95235500D01*
X106756437Y-95235500D01*
X106756442Y-95235500D01*
X106955367Y-95220593D01*
X107214805Y-95161377D01*
X107462521Y-95064156D01*
X107692980Y-94931101D01*
X107901033Y-94765183D01*
X108082035Y-94570110D01*
X108231940Y-94350240D01*
X108347401Y-94110482D01*
X108425839Y-93856194D01*
X108465500Y-93593055D01*
X108465500Y-93326945D01*
X108425839Y-93063806D01*
X108358447Y-92845327D01*
X108347401Y-92809517D01*
X108256796Y-92621376D01*
X108231940Y-92569761D01*
X108082035Y-92349890D01*
X107901033Y-92154817D01*
X107890244Y-92146213D01*
X107692981Y-91988899D01*
X107462521Y-91855844D01*
X107214805Y-91758623D01*
X106955367Y-91699407D01*
X106955366Y-91699406D01*
X106756442Y-91684500D01*
X106623558Y-91684500D01*
X106457787Y-91696922D01*
X106424632Y-91699407D01*
X106165194Y-91758623D01*
X105917478Y-91855844D01*
X105687018Y-91988899D01*
X105478967Y-92154816D01*
X105297964Y-92349890D01*
X105148060Y-92569759D01*
X105032598Y-92809517D01*
X104958393Y-93050084D01*
X104954161Y-93063806D01*
X104914500Y-93326945D01*
X104914500Y-93593055D01*
X104954161Y-93856194D01*
X104958193Y-93869264D01*
X105032598Y-94110482D01*
X105148060Y-94350239D01*
X105297964Y-94570109D01*
X105389564Y-94668830D01*
X105420882Y-94730476D01*
X105414954Y-94799366D01*
X105373564Y-94854754D01*
X105309178Y-94879961D01*
X105206032Y-94889811D01*
X104999788Y-94950370D01*
X104808739Y-95048861D01*
X104639785Y-95181729D01*
X104499023Y-95344176D01*
X104391552Y-95530322D01*
X104321250Y-95733443D01*
X104290660Y-95946207D01*
X103106310Y-95946207D01*
X103165068Y-95611520D01*
X103200538Y-95204354D01*
X103200538Y-94795646D01*
X103165068Y-94388480D01*
X103094396Y-93985928D01*
X103063275Y-93869264D01*
X102989054Y-93591024D01*
X102913195Y-93381636D01*
X102849840Y-93206761D01*
X102677802Y-92836025D01*
X102677800Y-92836022D01*
X102677798Y-92836017D01*
X102474243Y-92481626D01*
X102474240Y-92481622D01*
X102474238Y-92481618D01*
X102274635Y-92194970D01*
X102240684Y-92146213D01*
X101978906Y-91832346D01*
X101690877Y-91542382D01*
X101690876Y-91542381D01*
X101690874Y-91542379D01*
X101378765Y-91278504D01*
X101378764Y-91278503D01*
X101378759Y-91278499D01*
X101217982Y-91164984D01*
X101206216Y-91155574D01*
X101134657Y-91090964D01*
X101114922Y-91068323D01*
X101104534Y-91053055D01*
X111264500Y-91053055D01*
X111304161Y-91316194D01*
X111304162Y-91316196D01*
X111382598Y-91570482D01*
X111498060Y-91810239D01*
X111647964Y-92030109D01*
X111828967Y-92225183D01*
X112037018Y-92391100D01*
X112037020Y-92391101D01*
X112267479Y-92524156D01*
X112515195Y-92621377D01*
X112774633Y-92680593D01*
X112973558Y-92695500D01*
X113106437Y-92695500D01*
X113106442Y-92695500D01*
X113305367Y-92680593D01*
X113564805Y-92621377D01*
X113812521Y-92524156D01*
X114042980Y-92391101D01*
X114251033Y-92225183D01*
X114432035Y-92030110D01*
X114581940Y-91810240D01*
X114697401Y-91570482D01*
X114775839Y-91316194D01*
X114815500Y-91053055D01*
X114815500Y-90786945D01*
X114775839Y-90523806D01*
X114712737Y-90319236D01*
X114697401Y-90269517D01*
X114641797Y-90154055D01*
X114581940Y-90029761D01*
X114432035Y-89809890D01*
X114251033Y-89614817D01*
X114251032Y-89614816D01*
X114042981Y-89448899D01*
X113812521Y-89315844D01*
X113564805Y-89218623D01*
X113305367Y-89159407D01*
X113305366Y-89159406D01*
X113106442Y-89144500D01*
X112973558Y-89144500D01*
X112807787Y-89156922D01*
X112774632Y-89159407D01*
X112515194Y-89218623D01*
X112267478Y-89315844D01*
X112037018Y-89448899D01*
X111828967Y-89614816D01*
X111647964Y-89809890D01*
X111498060Y-90029759D01*
X111382598Y-90269517D01*
X111308393Y-90510084D01*
X111304161Y-90523806D01*
X111264500Y-90786945D01*
X111264500Y-91053055D01*
X101104534Y-91053055D01*
X101064949Y-90994875D01*
X101051138Y-90968215D01*
X101019965Y-90885012D01*
X101012858Y-90855841D01*
X101012790Y-90855278D01*
X101001399Y-90760424D01*
X101000500Y-90745400D01*
X101000500Y-75950000D01*
X103094451Y-75950000D01*
X103114617Y-76219105D01*
X103174665Y-76482193D01*
X103174666Y-76482195D01*
X103273257Y-76733398D01*
X103408185Y-76967102D01*
X103576439Y-77178085D01*
X103629240Y-77227077D01*
X103774258Y-77361635D01*
X103898617Y-77446421D01*
X103997226Y-77513651D01*
X104123270Y-77574351D01*
X104240358Y-77630738D01*
X104297868Y-77648477D01*
X104498228Y-77710280D01*
X104765071Y-77750500D01*
X105034927Y-77750500D01*
X105034929Y-77750500D01*
X105301772Y-77710280D01*
X105559641Y-77630738D01*
X105802775Y-77513651D01*
X106025741Y-77361635D01*
X106223561Y-77178085D01*
X106391815Y-76967102D01*
X106526743Y-76733398D01*
X106625334Y-76482195D01*
X106685383Y-76219103D01*
X106705549Y-75950000D01*
X114294451Y-75950000D01*
X114314617Y-76219105D01*
X114374665Y-76482193D01*
X114374666Y-76482195D01*
X114473257Y-76733398D01*
X114608185Y-76967102D01*
X114776439Y-77178085D01*
X114829240Y-77227077D01*
X114974258Y-77361635D01*
X115098617Y-77446421D01*
X115197226Y-77513651D01*
X115323270Y-77574351D01*
X115440358Y-77630738D01*
X115497868Y-77648477D01*
X115698228Y-77710280D01*
X115965071Y-77750500D01*
X116234927Y-77750500D01*
X116234929Y-77750500D01*
X116501772Y-77710280D01*
X116759641Y-77630738D01*
X117002775Y-77513651D01*
X117225741Y-77361635D01*
X117423561Y-77178085D01*
X117591815Y-76967102D01*
X117726743Y-76733398D01*
X117825334Y-76482195D01*
X117885383Y-76219103D01*
X117905549Y-75950000D01*
X117885383Y-75680897D01*
X117825334Y-75417805D01*
X117726743Y-75166602D01*
X117591815Y-74932898D01*
X117423561Y-74721915D01*
X117225741Y-74538365D01*
X117132442Y-74474755D01*
X117002775Y-74386349D01*
X116759641Y-74269261D01*
X116525201Y-74196947D01*
X116501772Y-74189720D01*
X116234929Y-74149500D01*
X115965071Y-74149500D01*
X115698228Y-74189720D01*
X115698224Y-74189721D01*
X115698225Y-74189721D01*
X115440358Y-74269261D01*
X115197225Y-74386349D01*
X114974258Y-74538364D01*
X114813985Y-74687077D01*
X114776439Y-74721915D01*
X114629300Y-74906421D01*
X114608183Y-74932901D01*
X114473258Y-75166599D01*
X114374665Y-75417806D01*
X114314617Y-75680894D01*
X114294451Y-75950000D01*
X106705549Y-75950000D01*
X106685383Y-75680897D01*
X106625334Y-75417805D01*
X106526743Y-75166602D01*
X106391815Y-74932898D01*
X106223561Y-74721915D01*
X106025741Y-74538365D01*
X105932442Y-74474755D01*
X105802775Y-74386349D01*
X105559641Y-74269261D01*
X105325201Y-74196947D01*
X105301772Y-74189720D01*
X105034929Y-74149500D01*
X104765071Y-74149500D01*
X104498228Y-74189720D01*
X104498224Y-74189721D01*
X104498225Y-74189721D01*
X104240358Y-74269261D01*
X103997225Y-74386349D01*
X103774258Y-74538364D01*
X103613985Y-74687077D01*
X103576439Y-74721915D01*
X103429300Y-74906421D01*
X103408183Y-74932901D01*
X103273258Y-75166599D01*
X103174665Y-75417806D01*
X103114617Y-75680894D01*
X103094451Y-75950000D01*
X101000500Y-75950000D01*
X101000500Y-67004501D01*
X101000821Y-66995513D01*
X101003914Y-66952267D01*
X101619624Y-66952267D01*
X101629947Y-67142639D01*
X101669868Y-67286421D01*
X101680951Y-67326339D01*
X101770253Y-67494781D01*
X101893677Y-67640087D01*
X101893678Y-67640088D01*
X102009982Y-67728500D01*
X102045453Y-67755464D01*
X102218482Y-67835515D01*
X102404675Y-67876500D01*
X102547519Y-67876500D01*
X102547523Y-67876500D01*
X102661130Y-67864144D01*
X102689533Y-67861055D01*
X102781340Y-67830121D01*
X102870201Y-67800181D01*
X102884629Y-67791500D01*
X103033563Y-67701890D01*
X103171974Y-67570780D01*
X103278964Y-67412981D01*
X103349531Y-67235871D01*
X103380375Y-67047733D01*
X103370053Y-66857362D01*
X103319049Y-66673661D01*
X103229747Y-66505219D01*
X103106323Y-66359913D01*
X103106322Y-66359912D01*
X103106321Y-66359911D01*
X102954546Y-66244535D01*
X102857890Y-66199818D01*
X102781518Y-66164485D01*
X102595325Y-66123500D01*
X102452481Y-66123500D01*
X102452477Y-66123500D01*
X102310467Y-66138944D01*
X102129798Y-66199818D01*
X101966437Y-66298109D01*
X101828024Y-66429221D01*
X101721035Y-66587019D01*
X101650469Y-66764128D01*
X101619624Y-66952267D01*
X101003914Y-66952267D01*
X101004982Y-66937337D01*
X101015120Y-66795578D01*
X101017675Y-66777808D01*
X101059325Y-66586342D01*
X101064389Y-66569098D01*
X101116561Y-66429221D01*
X101132861Y-66385518D01*
X101140322Y-66369181D01*
X101234225Y-66197211D01*
X101243938Y-66182097D01*
X101361361Y-66025239D01*
X101373121Y-66011668D01*
X101511668Y-65873121D01*
X101525239Y-65861361D01*
X101682097Y-65743938D01*
X101697211Y-65734225D01*
X101869181Y-65640322D01*
X101885518Y-65632861D01*
X102069103Y-65564387D01*
X102086342Y-65559325D01*
X102277808Y-65517675D01*
X102295578Y-65515120D01*
X102479043Y-65501998D01*
X102495513Y-65500821D01*
X102504501Y-65500500D01*
X102565892Y-65500500D01*
X122974000Y-65500500D01*
X123037000Y-65517381D01*
G37*
%TD.AperFunction*%
%TA.AperFunction,Conductor*%
G36*
X138207601Y-84833122D02*
G01*
X138256488Y-84879481D01*
X138274500Y-84944401D01*
X138274500Y-90230141D01*
X138264909Y-90278359D01*
X138237595Y-90319236D01*
X137622595Y-90934236D01*
X137572436Y-90964974D01*
X137513789Y-90969590D01*
X137459439Y-90947077D01*
X137421233Y-90902344D01*
X137407500Y-90845141D01*
X137407500Y-85139125D01*
X137422642Y-85079238D01*
X137464428Y-85033745D01*
X137522815Y-85013579D01*
X137619542Y-85005346D01*
X137726377Y-84977528D01*
X137850249Y-84945275D01*
X138067486Y-84847077D01*
X138077943Y-84840008D01*
X138141816Y-84818578D01*
X138207601Y-84833122D01*
G37*
%TD.AperFunction*%
%TA.AperFunction,Conductor*%
G36*
X135057337Y-74020262D02*
G01*
X135098430Y-74048036D01*
X135125620Y-74089516D01*
X135126936Y-74092790D01*
X135251932Y-74295797D01*
X135409434Y-74474753D01*
X135603264Y-74631261D01*
X135602177Y-74632607D01*
X135637941Y-74666884D01*
X135656535Y-74727599D01*
X135643158Y-74789672D01*
X135601206Y-74837339D01*
X135498998Y-74906419D01*
X135326882Y-75071378D01*
X135185121Y-75263053D01*
X135077791Y-75475929D01*
X135007983Y-75703877D01*
X134977701Y-75940346D01*
X134987819Y-76178529D01*
X135038044Y-76411578D01*
X135126937Y-76632792D01*
X135251932Y-76835797D01*
X135409434Y-77014753D01*
X135603264Y-77171261D01*
X135602177Y-77172607D01*
X135637941Y-77206884D01*
X135656535Y-77267599D01*
X135643158Y-77329672D01*
X135601206Y-77377339D01*
X135498998Y-77446419D01*
X135326882Y-77611378D01*
X135185121Y-77803053D01*
X135077791Y-78015929D01*
X135007983Y-78243877D01*
X134977701Y-78480346D01*
X134987819Y-78718529D01*
X135038044Y-78951578D01*
X135083248Y-79064070D01*
X135126936Y-79172790D01*
X135219214Y-79322659D01*
X135237211Y-79375371D01*
X135230723Y-79430695D01*
X135201015Y-79477814D01*
X134086303Y-80592526D01*
X134083211Y-80595515D01*
X134038532Y-80637242D01*
X134018356Y-80670421D01*
X134011099Y-80681082D01*
X133987635Y-80712024D01*
X133981590Y-80727354D01*
X133972037Y-80746588D01*
X133963473Y-80760672D01*
X133952999Y-80798054D01*
X133948888Y-80810280D01*
X133934640Y-80846411D01*
X133932955Y-80862802D01*
X133928946Y-80883899D01*
X133924500Y-80899771D01*
X133924500Y-80938606D01*
X133923839Y-80951491D01*
X133919868Y-80990109D01*
X133922668Y-81006345D01*
X133924500Y-81027752D01*
X133924500Y-83630141D01*
X133914909Y-83678359D01*
X133887595Y-83719236D01*
X131019236Y-86587595D01*
X130978359Y-86614909D01*
X130930141Y-86624500D01*
X122211149Y-86624500D01*
X122206848Y-86624427D01*
X122195564Y-86624041D01*
X122145754Y-86622340D01*
X122145751Y-86622340D01*
X122133678Y-86625282D01*
X122069024Y-86623956D01*
X122013544Y-86590733D01*
X121981850Y-86534364D01*
X121982292Y-86469698D01*
X122014752Y-86413771D01*
X125228523Y-83200000D01*
X126300000Y-83200000D01*
X126300000Y-86000000D01*
X130700000Y-86000000D01*
X130700000Y-83200000D01*
X126300000Y-83200000D01*
X125228523Y-83200000D01*
X134128351Y-74300171D01*
X134162774Y-74275747D01*
X134203327Y-74264063D01*
X134369255Y-74245368D01*
X134539522Y-74185789D01*
X134692262Y-74089816D01*
X134734675Y-74047402D01*
X134775549Y-74020091D01*
X134823768Y-74010500D01*
X135008708Y-74010500D01*
X135057337Y-74020262D01*
G37*
%TD.AperFunction*%
%TA.AperFunction,Conductor*%
G36*
X138929342Y-71482235D02*
G01*
X138980533Y-71528702D01*
X138999500Y-71595185D01*
X138999500Y-73134969D01*
X138984779Y-73194070D01*
X138944057Y-73239361D01*
X138886848Y-73260260D01*
X138826520Y-73251883D01*
X138777170Y-73216187D01*
X138750328Y-73161514D01*
X138725955Y-73048421D01*
X138642294Y-72840226D01*
X138637064Y-72827210D01*
X138512069Y-72624205D01*
X138512068Y-72624204D01*
X138512067Y-72624202D01*
X138354565Y-72445246D01*
X138256940Y-72366419D01*
X138244139Y-72356083D01*
X138208089Y-72309074D01*
X138197506Y-72250784D01*
X138214731Y-72194101D01*
X138255957Y-72151556D01*
X138290866Y-72129482D01*
X138473113Y-71968025D01*
X138627096Y-71779429D01*
X138748836Y-71568572D01*
X138755688Y-71550505D01*
X138796998Y-71495068D01*
X138861339Y-71469773D01*
X138929342Y-71482235D01*
G37*
%TD.AperFunction*%
%TA.AperFunction,Conductor*%
G36*
X118283291Y-68915262D02*
G01*
X118324385Y-68943036D01*
X118351575Y-68984519D01*
X118362934Y-69012787D01*
X118487932Y-69215797D01*
X118645434Y-69394753D01*
X118839264Y-69551261D01*
X118838177Y-69552607D01*
X118873941Y-69586884D01*
X118892535Y-69647599D01*
X118879158Y-69709672D01*
X118837206Y-69757339D01*
X118734998Y-69826419D01*
X118562882Y-69991378D01*
X118421121Y-70183053D01*
X118349439Y-70325226D01*
X118302993Y-70375793D01*
X118236930Y-70394500D01*
X116152228Y-70394500D01*
X110739859Y-70394500D01*
X110691641Y-70384909D01*
X110650764Y-70357595D01*
X110466909Y-70173740D01*
X110432931Y-70111648D01*
X110437792Y-70041034D01*
X110479956Y-69984182D01*
X110546119Y-69959033D01*
X110736633Y-69944040D01*
X110967440Y-69888627D01*
X111186738Y-69797791D01*
X111389120Y-69673770D01*
X111459480Y-69613677D01*
X111509496Y-69587570D01*
X111565892Y-69585908D01*
X111617359Y-69609025D01*
X111653578Y-69652285D01*
X111671950Y-69688343D01*
X111761655Y-69778048D01*
X111761657Y-69778049D01*
X111761658Y-69778050D01*
X111874696Y-69835646D01*
X111968481Y-69850500D01*
X114031518Y-69850499D01*
X114125304Y-69835646D01*
X114238342Y-69778050D01*
X114328050Y-69688342D01*
X114385646Y-69575304D01*
X114400500Y-69481519D01*
X114400500Y-69031500D01*
X114417381Y-68968500D01*
X114463500Y-68922381D01*
X114526500Y-68905500D01*
X118234662Y-68905500D01*
X118283291Y-68915262D01*
G37*
%TD.AperFunction*%
%TA.AperFunction,Conductor*%
G36*
X138926372Y-68608422D02*
G01*
X138979655Y-68654917D01*
X138999500Y-68722792D01*
X138999500Y-70251680D01*
X138981590Y-70316430D01*
X138932952Y-70362772D01*
X138867413Y-70377533D01*
X138803604Y-70356516D01*
X138759665Y-70305695D01*
X138692214Y-70163546D01*
X138553902Y-69963167D01*
X138385246Y-69787578D01*
X138249595Y-69685642D01*
X138211868Y-69639792D01*
X138199329Y-69581755D01*
X138214760Y-69524419D01*
X138254735Y-69480518D01*
X138265003Y-69473579D01*
X138437118Y-69308621D01*
X138578879Y-69116947D01*
X138686207Y-68904074D01*
X138718200Y-68799605D01*
X138753023Y-68685897D01*
X138791873Y-68626807D01*
X138856435Y-68597953D01*
X138926372Y-68608422D01*
G37*
%TD.AperFunction*%
%TD*%
D17*
X102500000Y-65000000D02*
G75*
G03*
X100500000Y-67000000I0J-2000000D01*
G01*
X139499998Y-99247352D02*
G75*
G03*
X139076923Y-98430554I-1000016J-8D01*
G01*
X100923077Y-98430554D02*
G75*
G03*
X100923077Y-91569446I-2423077J3430554D01*
G01*
X100923078Y-98430555D02*
G75*
G03*
X100500000Y-99247352I576940J-816808D01*
G01*
X139076923Y-91569446D02*
G75*
G03*
X139076923Y-98430554I2423077J-3430554D01*
G01*
X100500000Y-67000000D02*
X100500000Y-90752648D01*
X102500000Y-125000000D02*
X137500000Y-125000000D01*
X139500000Y-67000000D02*
G75*
G03*
X137500000Y-65000000I-2000000J0D01*
G01*
X100500002Y-90752648D02*
G75*
G03*
X100923078Y-91569445I1000017J9D01*
G01*
X139500000Y-90752648D02*
X139500000Y-67000000D01*
X137500000Y-65000000D02*
X102500000Y-65000000D01*
X137500000Y-125000000D02*
G75*
G03*
X139500000Y-123000000I0J2000000D01*
G01*
X100500000Y-99247352D02*
X100500000Y-123000000D01*
X100500000Y-123000000D02*
G75*
G03*
X102500000Y-125000000I2000000J0D01*
G01*
X139500000Y-123000000D02*
X139500000Y-99247352D01*
X139076922Y-91569445D02*
G75*
G03*
X139500000Y-90752648I-577098J816890D01*
G01*
M02*
