%TF.GenerationSoftware,KiCad,Pcbnew,(6.0.9)*%
%TF.CreationDate,2023-03-08T23:19:46-05:00*%
%TF.ProjectId,Fluxpad,466c7578-7061-4642-9e6b-696361645f70,rev?*%
%TF.SameCoordinates,Original*%
%TF.FileFunction,Copper,L2,Bot*%
%TF.FilePolarity,Positive*%
%FSLAX46Y46*%
G04 Gerber Fmt 4.6, Leading zero omitted, Abs format (unit mm)*
G04 Created by KiCad (PCBNEW (6.0.9)) date 2023-03-08 23:19:46*
%MOMM*%
%LPD*%
G01*
G04 APERTURE LIST*
G04 Aperture macros list*
%AMRoundRect*
0 Rectangle with rounded corners*
0 $1 Rounding radius*
0 $2 $3 $4 $5 $6 $7 $8 $9 X,Y pos of 4 corners*
0 Add a 4 corners polygon primitive as box body*
4,1,4,$2,$3,$4,$5,$6,$7,$8,$9,$2,$3,0*
0 Add four circle primitives for the rounded corners*
1,1,$1+$1,$2,$3*
1,1,$1+$1,$4,$5*
1,1,$1+$1,$6,$7*
1,1,$1+$1,$8,$9*
0 Add four rect primitives between the rounded corners*
20,1,$1+$1,$2,$3,$4,$5,0*
20,1,$1+$1,$4,$5,$6,$7,0*
20,1,$1+$1,$6,$7,$8,$9,0*
20,1,$1+$1,$8,$9,$2,$3,0*%
G04 Aperture macros list end*
%TA.AperFunction,Profile*%
%ADD10C,0.250000*%
%TD*%
%TA.AperFunction,ComponentPad*%
%ADD11R,2.000000X2.000000*%
%TD*%
%TA.AperFunction,ComponentPad*%
%ADD12C,2.000000*%
%TD*%
%TA.AperFunction,ComponentPad*%
%ADD13C,2.800000*%
%TD*%
%TA.AperFunction,SMDPad,CuDef*%
%ADD14RoundRect,0.250000X-1.025000X-1.000000X1.025000X-1.000000X1.025000X1.000000X-1.025000X1.000000X0*%
%TD*%
%TA.AperFunction,SMDPad,CuDef*%
%ADD15R,1.000000X1.000000*%
%TD*%
%TA.AperFunction,SMDPad,CuDef*%
%ADD16RoundRect,0.200000X-0.200000X-0.275000X0.200000X-0.275000X0.200000X0.275000X-0.200000X0.275000X0*%
%TD*%
%TA.AperFunction,SMDPad,CuDef*%
%ADD17RoundRect,0.225000X0.250000X-0.225000X0.250000X0.225000X-0.250000X0.225000X-0.250000X-0.225000X0*%
%TD*%
%TA.AperFunction,SMDPad,CuDef*%
%ADD18RoundRect,0.200000X0.275000X-0.200000X0.275000X0.200000X-0.275000X0.200000X-0.275000X-0.200000X0*%
%TD*%
%TA.AperFunction,SMDPad,CuDef*%
%ADD19RoundRect,0.150000X-0.150000X0.587500X-0.150000X-0.587500X0.150000X-0.587500X0.150000X0.587500X0*%
%TD*%
%TA.AperFunction,SMDPad,CuDef*%
%ADD20RoundRect,0.225000X-0.250000X0.225000X-0.250000X-0.225000X0.250000X-0.225000X0.250000X0.225000X0*%
%TD*%
%TA.AperFunction,ViaPad*%
%ADD21C,0.800000*%
%TD*%
%TA.AperFunction,Conductor*%
%ADD22C,0.250000*%
%TD*%
%TA.AperFunction,Conductor*%
%ADD23C,0.300000*%
%TD*%
G04 APERTURE END LIST*
D10*
X102500000Y-65000000D02*
G75*
G03*
X100500000Y-67000000I0J-2000000D01*
G01*
X139500039Y-99247352D02*
G75*
G03*
X139076923Y-98430554I-1000039J-48D01*
G01*
X100923077Y-98430554D02*
G75*
G03*
X100923077Y-91569446I-2423077J3430554D01*
G01*
X100923099Y-98430586D02*
G75*
G03*
X100500000Y-99247352I576901J-816814D01*
G01*
X139076923Y-91569446D02*
G75*
G03*
X139076923Y-98430554I2423077J-3430554D01*
G01*
X100500000Y-67000000D02*
X100500000Y-90752648D01*
X102500000Y-125000000D02*
X137500000Y-125000000D01*
X139500000Y-67000000D02*
G75*
G03*
X137500000Y-65000000I-2000000J0D01*
G01*
X100499961Y-90752648D02*
G75*
G03*
X100923077Y-91569446I1000039J48D01*
G01*
X139500000Y-90752648D02*
X139500000Y-67000000D01*
X137500000Y-65000000D02*
X102500000Y-65000000D01*
X137500000Y-125000000D02*
G75*
G03*
X139500000Y-123000000I0J2000000D01*
G01*
X100500000Y-99247352D02*
X100500000Y-123000000D01*
X100500000Y-123000000D02*
G75*
G03*
X102500000Y-125000000I2000000J0D01*
G01*
X139500000Y-123000000D02*
X139500000Y-99247352D01*
X139076949Y-91569483D02*
G75*
G03*
X139500000Y-90752648I-577149J816883D01*
G01*
D11*
%TO.P,SW3,A,A*%
%TO.N,ENCA*%
X113000000Y-68450000D03*
D12*
%TO.P,SW3,B,B*%
%TO.N,ENCB*%
X108000000Y-68450000D03*
%TO.P,SW3,C,C*%
%TO.N,GND*%
X110500000Y-68450000D03*
D13*
%TO.P,SW3,MP*%
%TO.N,N/C*%
X104900000Y-75950000D03*
X116100000Y-75950000D03*
%TD*%
D14*
%TO.P,SW1,1,A*%
%TO.N,SW1*%
X103415000Y-93460000D03*
%TO.P,SW1,2,B*%
%TO.N,GND*%
X116342000Y-90920000D03*
%TD*%
%TO.P,SW2,1,A*%
%TO.N,SW2*%
X122415000Y-93460000D03*
%TO.P,SW2,2,B*%
%TO.N,GND*%
X135342000Y-90920000D03*
%TD*%
D15*
%TO.P,TP_SW4,1,1*%
%TO.N,SW4*%
X131500000Y-107800000D03*
%TD*%
%TO.P,TP_SW1,1,1*%
%TO.N,SW1*%
X104000000Y-100000000D03*
%TD*%
D16*
%TO.P,R1,1*%
%TO.N,Net-(D1-Pad2)*%
X114675000Y-101000000D03*
%TO.P,R1,2*%
%TO.N,LED1*%
X116325000Y-101000000D03*
%TD*%
D17*
%TO.P,C2,1*%
%TO.N,+3V3*%
X127500000Y-111275000D03*
%TO.P,C2,2*%
%TO.N,GND*%
X127500000Y-109725000D03*
%TD*%
D16*
%TO.P,R2,1*%
%TO.N,Net-(D2-Pad2)*%
X133675000Y-101000000D03*
%TO.P,R2,2*%
%TO.N,LED2*%
X135325000Y-101000000D03*
%TD*%
D18*
%TO.P,R5,1*%
%TO.N,Net-(R5-Pad1)*%
X110500000Y-111325000D03*
%TO.P,R5,2*%
%TO.N,SW3*%
X110500000Y-109675000D03*
%TD*%
D19*
%TO.P,U2,1,VCC*%
%TO.N,+3V3*%
X109550000Y-114262500D03*
%TO.P,U2,2,OUT*%
%TO.N,Net-(R5-Pad1)*%
X111450000Y-114262500D03*
%TO.P,U2,3,GND*%
%TO.N,GND*%
X110500000Y-116137500D03*
%TD*%
D15*
%TO.P,TP_SW3,1,1*%
%TO.N,SW3*%
X112500000Y-107800000D03*
%TD*%
D18*
%TO.P,R6,1*%
%TO.N,Net-(R6-Pad1)*%
X129500000Y-111325000D03*
%TO.P,R6,2*%
%TO.N,SW4*%
X129500000Y-109675000D03*
%TD*%
D20*
%TO.P,C4,1*%
%TO.N,SW4*%
X131500000Y-109725000D03*
%TO.P,C4,2*%
%TO.N,GND*%
X131500000Y-111275000D03*
%TD*%
D15*
%TO.P,TP_SW2,1,1*%
%TO.N,SW2*%
X123000000Y-100000000D03*
%TD*%
D20*
%TO.P,C3,1*%
%TO.N,SW3*%
X112500000Y-109725000D03*
%TO.P,C3,2*%
%TO.N,GND*%
X112500000Y-111275000D03*
%TD*%
D16*
%TO.P,R3,1*%
%TO.N,Net-(D3-Pad2)*%
X114675000Y-120000000D03*
%TO.P,R3,2*%
%TO.N,LED3*%
X116325000Y-120000000D03*
%TD*%
D17*
%TO.P,C1,1*%
%TO.N,+3V3*%
X108500000Y-111275000D03*
%TO.P,C1,2*%
%TO.N,GND*%
X108500000Y-109725000D03*
%TD*%
D15*
%TO.P,GND1,1,1*%
%TO.N,GND*%
X131600000Y-77450000D03*
%TD*%
D19*
%TO.P,U3,1,VCC*%
%TO.N,+3V3*%
X128550000Y-114262500D03*
%TO.P,U3,2,OUT*%
%TO.N,Net-(R6-Pad1)*%
X130450000Y-114262500D03*
%TO.P,U3,3,GND*%
%TO.N,GND*%
X129500000Y-116137500D03*
%TD*%
D15*
%TO.P,3V3,1,1*%
%TO.N,+3V3*%
X131600000Y-73500000D03*
%TD*%
D16*
%TO.P,R4,1*%
%TO.N,Net-(D4-Pad2)*%
X133675000Y-120000000D03*
%TO.P,R4,2*%
%TO.N,LED4*%
X135325000Y-120000000D03*
%TD*%
D21*
%TO.N,Net-(D1-Pad2)*%
X113000000Y-101000000D03*
%TO.N,Net-(D2-Pad2)*%
X132000000Y-101000000D03*
%TO.N,Net-(D3-Pad2)*%
X113000000Y-120000000D03*
%TO.N,Net-(D4-Pad2)*%
X132000000Y-120000000D03*
%TO.N,LED3*%
X118300000Y-120000000D03*
%TO.N,LED1*%
X122450000Y-76000000D03*
X118000000Y-79850000D03*
X116300000Y-99600000D03*
%TO.N,LED4*%
X136800000Y-120000000D03*
%TO.N,LED2*%
X135350000Y-99650000D03*
%TO.N,+3V3*%
X107125000Y-111275000D03*
X125800000Y-111300000D03*
X134190000Y-73460000D03*
%TO.N,SW1*%
X102550000Y-89000000D03*
%TO.N,SW2*%
X121600000Y-87750000D03*
%TO.N,SW3*%
X119200000Y-106000000D03*
%TO.N,SW4*%
X129500000Y-106650000D03*
%TO.N,GND*%
X138600000Y-72100000D03*
X108000000Y-101000000D03*
X127000000Y-120000000D03*
X135200000Y-69700000D03*
X135100000Y-72100000D03*
X138500000Y-69700000D03*
X127000000Y-101000000D03*
X108000000Y-120000000D03*
%TD*%
D22*
%TO.N,SW3*%
X118025000Y-109725000D02*
X112500000Y-109725000D01*
X119200000Y-108550000D02*
X118025000Y-109725000D01*
X119200000Y-106000000D02*
X119200000Y-108550000D01*
%TO.N,Net-(D1-Pad2)*%
X114587500Y-101000000D02*
X113000000Y-101000000D01*
%TO.N,Net-(D2-Pad2)*%
X132000000Y-101000000D02*
X133587500Y-101000000D01*
%TO.N,Net-(D3-Pad2)*%
X113000000Y-120000000D02*
X114587500Y-120000000D01*
%TO.N,Net-(D4-Pad2)*%
X133587500Y-120000000D02*
X132000000Y-120000000D01*
%TO.N,LED3*%
X118300000Y-120000000D02*
X116412500Y-120000000D01*
%TO.N,LED1*%
X121850000Y-76000000D02*
X118000000Y-79850000D01*
X116325000Y-99625000D02*
X116325000Y-101000000D01*
X116300000Y-99600000D02*
X116325000Y-99625000D01*
X122450000Y-76000000D02*
X121850000Y-76000000D01*
%TO.N,LED4*%
X135412500Y-120000000D02*
X136800000Y-120000000D01*
%TO.N,LED2*%
X135350000Y-99650000D02*
X135325000Y-99675000D01*
X135325000Y-99675000D02*
X135325000Y-101000000D01*
%TO.N,+3V3*%
X128550000Y-114262500D02*
X128550000Y-112325000D01*
D23*
X107125000Y-111275000D02*
X108500000Y-111275000D01*
D22*
X108500000Y-111275000D02*
X109550000Y-112325000D01*
D23*
X125800000Y-111300000D02*
X127475000Y-111300000D01*
X131600000Y-73500000D02*
X131640000Y-73460000D01*
X131640000Y-73460000D02*
X134190000Y-73460000D01*
D22*
X128550000Y-112325000D02*
X127500000Y-111275000D01*
X109550000Y-112325000D02*
X109550000Y-114262500D01*
%TO.N,SW1*%
X102550000Y-90450000D02*
X103415000Y-91315000D01*
X103415000Y-99415000D02*
X104000000Y-100000000D01*
X103415000Y-91315000D02*
X103415000Y-93460000D01*
X103415000Y-93460000D02*
X103415000Y-99415000D01*
X102550000Y-89000000D02*
X102550000Y-90450000D01*
%TO.N,SW2*%
X121600000Y-87750000D02*
X121600000Y-90920000D01*
X122415000Y-93460000D02*
X122415000Y-99415000D01*
X122415000Y-91735000D02*
X122415000Y-93460000D01*
X121600000Y-90920000D02*
X122415000Y-91735000D01*
X122415000Y-99415000D02*
X123000000Y-100000000D01*
%TO.N,SW3*%
X112450000Y-109675000D02*
X112500000Y-109725000D01*
X112500000Y-109725000D02*
X112500000Y-107800000D01*
X110500000Y-109675000D02*
X112450000Y-109675000D01*
%TO.N,SW4*%
X131500000Y-109725000D02*
X131500000Y-107800000D01*
X129500000Y-106650000D02*
X129500000Y-109675000D01*
X129500000Y-109675000D02*
X131450000Y-109675000D01*
X131450000Y-109675000D02*
X131500000Y-109725000D01*
D23*
%TO.N,GND*%
X110500000Y-116137500D02*
X110500000Y-118600000D01*
X129500000Y-116137500D02*
X129500000Y-118700000D01*
D22*
%TO.N,Net-(R5-Pad1)*%
X111450000Y-111950000D02*
X110825000Y-111325000D01*
X110825000Y-111325000D02*
X110500000Y-111325000D01*
X111450000Y-114262500D02*
X111450000Y-111950000D01*
%TO.N,Net-(R6-Pad1)*%
X130450000Y-114262500D02*
X130450000Y-112000000D01*
X130450000Y-112000000D02*
X129775000Y-111325000D01*
X129775000Y-111325000D02*
X129500000Y-111325000D01*
%TD*%
%TA.AperFunction,Conductor*%
%TO.N,GND*%
G36*
X137470018Y-65510000D02*
G01*
X137484851Y-65512310D01*
X137484855Y-65512310D01*
X137493724Y-65513691D01*
X137508981Y-65511696D01*
X137534302Y-65510953D01*
X137703285Y-65523039D01*
X137721064Y-65525596D01*
X137911392Y-65566999D01*
X137928641Y-65572063D01*
X138111150Y-65640136D01*
X138127502Y-65647604D01*
X138298458Y-65740952D01*
X138313582Y-65750672D01*
X138469514Y-65867402D01*
X138483100Y-65879175D01*
X138620825Y-66016900D01*
X138632598Y-66030486D01*
X138749328Y-66186418D01*
X138759048Y-66201542D01*
X138852396Y-66372498D01*
X138859864Y-66388850D01*
X138927937Y-66571359D01*
X138933001Y-66588607D01*
X138974404Y-66778936D01*
X138976961Y-66796715D01*
X138988540Y-66958601D01*
X138987793Y-66976565D01*
X138987692Y-66984845D01*
X138986309Y-66993724D01*
X138989398Y-67017344D01*
X138990436Y-67025283D01*
X138991500Y-67041621D01*
X138991500Y-90703265D01*
X138989999Y-90722656D01*
X138986309Y-90746347D01*
X138987473Y-90755253D01*
X138987397Y-90761450D01*
X138987524Y-90785733D01*
X138986605Y-90793387D01*
X138979331Y-90853966D01*
X138972223Y-90883144D01*
X138941722Y-90964567D01*
X138927911Y-90991234D01*
X138879049Y-91063067D01*
X138879008Y-91063127D01*
X138859276Y-91085770D01*
X138814266Y-91126419D01*
X138793923Y-91141253D01*
X138790882Y-91142716D01*
X138785873Y-91146164D01*
X138785632Y-91146283D01*
X138785435Y-91146465D01*
X138780541Y-91149833D01*
X138777006Y-91153174D01*
X138773221Y-91156234D01*
X138773196Y-91156202D01*
X138770147Y-91158811D01*
X138457144Y-91400936D01*
X138156279Y-91678590D01*
X138154438Y-91680612D01*
X138154437Y-91680613D01*
X137882489Y-91979281D01*
X137882481Y-91979291D01*
X137880645Y-91981307D01*
X137820689Y-92059896D01*
X137636263Y-92301639D01*
X137632323Y-92306803D01*
X137413186Y-92652621D01*
X137224887Y-93016153D01*
X137223840Y-93018693D01*
X137223838Y-93018697D01*
X137206864Y-93059871D01*
X137068849Y-93394655D01*
X137068035Y-93397247D01*
X137068034Y-93397251D01*
X137033555Y-93507103D01*
X136946247Y-93785270D01*
X136858007Y-94185051D01*
X136857653Y-94187751D01*
X136857652Y-94187757D01*
X136830111Y-94397860D01*
X136804796Y-94590983D01*
X136804678Y-94593702D01*
X136804677Y-94593711D01*
X136793402Y-94853058D01*
X136787014Y-95000000D01*
X136787133Y-95002737D01*
X136803865Y-95387592D01*
X136804796Y-95409017D01*
X136805151Y-95411722D01*
X136805151Y-95411727D01*
X136843874Y-95707129D01*
X136858007Y-95814949D01*
X136909155Y-96046681D01*
X136943199Y-96200919D01*
X136946247Y-96214730D01*
X137068849Y-96605345D01*
X137118970Y-96726924D01*
X137196823Y-96915771D01*
X137224887Y-96983847D01*
X137413186Y-97347379D01*
X137632323Y-97693197D01*
X137880645Y-98018693D01*
X137882481Y-98020709D01*
X137882489Y-98020719D01*
X137993456Y-98142589D01*
X138156279Y-98321410D01*
X138457144Y-98599064D01*
X138757678Y-98831543D01*
X138763117Y-98836315D01*
X138763204Y-98836213D01*
X138766924Y-98839374D01*
X138770377Y-98842801D01*
X138775251Y-98846333D01*
X138775448Y-98846524D01*
X138775690Y-98846652D01*
X138780541Y-98850167D01*
X138784873Y-98852382D01*
X138789014Y-98854920D01*
X138788784Y-98855295D01*
X138810715Y-98870414D01*
X138859317Y-98914296D01*
X138879046Y-98936932D01*
X138920189Y-98997402D01*
X138927947Y-99008805D01*
X138941761Y-99035473D01*
X138972259Y-99116871D01*
X138979370Y-99146057D01*
X138986885Y-99208639D01*
X138987775Y-99225194D01*
X138987689Y-99232232D01*
X138986309Y-99241101D01*
X138987473Y-99249999D01*
X138987473Y-99250000D01*
X138990436Y-99272648D01*
X138991500Y-99288992D01*
X138991500Y-122950633D01*
X138990000Y-122970018D01*
X138987690Y-122984851D01*
X138987690Y-122984855D01*
X138986309Y-122993724D01*
X138988136Y-123007693D01*
X138988304Y-123008976D01*
X138989047Y-123034305D01*
X138976962Y-123203279D01*
X138974404Y-123221064D01*
X138956598Y-123302919D01*
X138933001Y-123411392D01*
X138927937Y-123428641D01*
X138859864Y-123611150D01*
X138852396Y-123627502D01*
X138759048Y-123798458D01*
X138749328Y-123813582D01*
X138632598Y-123969514D01*
X138620825Y-123983100D01*
X138483100Y-124120825D01*
X138469514Y-124132598D01*
X138313582Y-124249328D01*
X138298458Y-124259048D01*
X138127502Y-124352396D01*
X138111150Y-124359864D01*
X137928641Y-124427937D01*
X137911393Y-124433001D01*
X137721064Y-124474404D01*
X137703285Y-124476961D01*
X137541395Y-124488540D01*
X137523435Y-124487793D01*
X137515155Y-124487692D01*
X137506276Y-124486309D01*
X137474714Y-124490436D01*
X137458379Y-124491500D01*
X102549367Y-124491500D01*
X102529982Y-124490000D01*
X102515149Y-124487690D01*
X102515145Y-124487690D01*
X102506276Y-124486309D01*
X102491019Y-124488304D01*
X102465698Y-124489047D01*
X102296715Y-124476961D01*
X102278936Y-124474404D01*
X102088607Y-124433001D01*
X102071359Y-124427937D01*
X101888850Y-124359864D01*
X101872498Y-124352396D01*
X101701542Y-124259048D01*
X101686418Y-124249328D01*
X101530486Y-124132598D01*
X101516900Y-124120825D01*
X101379175Y-123983100D01*
X101367402Y-123969514D01*
X101250672Y-123813582D01*
X101240952Y-123798458D01*
X101147604Y-123627502D01*
X101140136Y-123611150D01*
X101072063Y-123428641D01*
X101066999Y-123411392D01*
X101043402Y-123302919D01*
X101025596Y-123221064D01*
X101023038Y-123203278D01*
X101011719Y-123045012D01*
X101012805Y-123022245D01*
X101012334Y-123022203D01*
X101012770Y-123017345D01*
X101013576Y-123012552D01*
X101013729Y-123000000D01*
X101009773Y-122972376D01*
X101008500Y-122954514D01*
X101008500Y-120000000D01*
X112086496Y-120000000D01*
X112106458Y-120189928D01*
X112165473Y-120371556D01*
X112260960Y-120536944D01*
X112388747Y-120678866D01*
X112543248Y-120791118D01*
X112549276Y-120793802D01*
X112549278Y-120793803D01*
X112645490Y-120836639D01*
X112717712Y-120868794D01*
X112811113Y-120888647D01*
X112898056Y-120907128D01*
X112898061Y-120907128D01*
X112904513Y-120908500D01*
X113095487Y-120908500D01*
X113101939Y-120907128D01*
X113101944Y-120907128D01*
X113188887Y-120888647D01*
X113282288Y-120868794D01*
X113354510Y-120836639D01*
X113450722Y-120793803D01*
X113450724Y-120793802D01*
X113456752Y-120791118D01*
X113611253Y-120678866D01*
X113615668Y-120673963D01*
X113620580Y-120669540D01*
X113621705Y-120670789D01*
X113675014Y-120637949D01*
X113708200Y-120633500D01*
X113792775Y-120633500D01*
X113860896Y-120653502D01*
X113900551Y-120694229D01*
X113913361Y-120715381D01*
X114034619Y-120836639D01*
X114181301Y-120925472D01*
X114188548Y-120927743D01*
X114188550Y-120927744D01*
X114254836Y-120948517D01*
X114344938Y-120976753D01*
X114418365Y-120983500D01*
X114421263Y-120983500D01*
X114675665Y-120983499D01*
X114931634Y-120983499D01*
X114934492Y-120983236D01*
X114934501Y-120983236D01*
X114970004Y-120979974D01*
X115005062Y-120976753D01*
X115011447Y-120974752D01*
X115161450Y-120927744D01*
X115161452Y-120927743D01*
X115168699Y-120925472D01*
X115315381Y-120836639D01*
X115410905Y-120741115D01*
X115473217Y-120707089D01*
X115544032Y-120712154D01*
X115589095Y-120741115D01*
X115684619Y-120836639D01*
X115831301Y-120925472D01*
X115838548Y-120927743D01*
X115838550Y-120927744D01*
X115904836Y-120948517D01*
X115994938Y-120976753D01*
X116068365Y-120983500D01*
X116071263Y-120983500D01*
X116325665Y-120983499D01*
X116581634Y-120983499D01*
X116584492Y-120983236D01*
X116584501Y-120983236D01*
X116620004Y-120979974D01*
X116655062Y-120976753D01*
X116661447Y-120974752D01*
X116811450Y-120927744D01*
X116811452Y-120927743D01*
X116818699Y-120925472D01*
X116965381Y-120836639D01*
X117086639Y-120715381D01*
X117099449Y-120694229D01*
X117151846Y-120646322D01*
X117207225Y-120633500D01*
X117591800Y-120633500D01*
X117659921Y-120653502D01*
X117679147Y-120669843D01*
X117679420Y-120669540D01*
X117684332Y-120673963D01*
X117688747Y-120678866D01*
X117843248Y-120791118D01*
X117849276Y-120793802D01*
X117849278Y-120793803D01*
X117945490Y-120836639D01*
X118017712Y-120868794D01*
X118111113Y-120888647D01*
X118198056Y-120907128D01*
X118198061Y-120907128D01*
X118204513Y-120908500D01*
X118395487Y-120908500D01*
X118401939Y-120907128D01*
X118401944Y-120907128D01*
X118488887Y-120888647D01*
X118582288Y-120868794D01*
X118654510Y-120836639D01*
X118750722Y-120793803D01*
X118750724Y-120793802D01*
X118756752Y-120791118D01*
X118911253Y-120678866D01*
X119039040Y-120536944D01*
X119134527Y-120371556D01*
X119193542Y-120189928D01*
X119213504Y-120000000D01*
X131086496Y-120000000D01*
X131106458Y-120189928D01*
X131165473Y-120371556D01*
X131260960Y-120536944D01*
X131388747Y-120678866D01*
X131543248Y-120791118D01*
X131549276Y-120793802D01*
X131549278Y-120793803D01*
X131645490Y-120836639D01*
X131717712Y-120868794D01*
X131811113Y-120888647D01*
X131898056Y-120907128D01*
X131898061Y-120907128D01*
X131904513Y-120908500D01*
X132095487Y-120908500D01*
X132101939Y-120907128D01*
X132101944Y-120907128D01*
X132188887Y-120888647D01*
X132282288Y-120868794D01*
X132354510Y-120836639D01*
X132450722Y-120793803D01*
X132450724Y-120793802D01*
X132456752Y-120791118D01*
X132611253Y-120678866D01*
X132615668Y-120673963D01*
X132620580Y-120669540D01*
X132621705Y-120670789D01*
X132675014Y-120637949D01*
X132708200Y-120633500D01*
X132792775Y-120633500D01*
X132860896Y-120653502D01*
X132900551Y-120694229D01*
X132913361Y-120715381D01*
X133034619Y-120836639D01*
X133181301Y-120925472D01*
X133188548Y-120927743D01*
X133188550Y-120927744D01*
X133254836Y-120948517D01*
X133344938Y-120976753D01*
X133418365Y-120983500D01*
X133421263Y-120983500D01*
X133675665Y-120983499D01*
X133931634Y-120983499D01*
X133934492Y-120983236D01*
X133934501Y-120983236D01*
X133970004Y-120979974D01*
X134005062Y-120976753D01*
X134011447Y-120974752D01*
X134161450Y-120927744D01*
X134161452Y-120927743D01*
X134168699Y-120925472D01*
X134315381Y-120836639D01*
X134410905Y-120741115D01*
X134473217Y-120707089D01*
X134544032Y-120712154D01*
X134589095Y-120741115D01*
X134684619Y-120836639D01*
X134831301Y-120925472D01*
X134838548Y-120927743D01*
X134838550Y-120927744D01*
X134904836Y-120948517D01*
X134994938Y-120976753D01*
X135068365Y-120983500D01*
X135071263Y-120983500D01*
X135325665Y-120983499D01*
X135581634Y-120983499D01*
X135584492Y-120983236D01*
X135584501Y-120983236D01*
X135620004Y-120979974D01*
X135655062Y-120976753D01*
X135661447Y-120974752D01*
X135811450Y-120927744D01*
X135811452Y-120927743D01*
X135818699Y-120925472D01*
X135965381Y-120836639D01*
X136074661Y-120727359D01*
X136136973Y-120693333D01*
X136207788Y-120698398D01*
X136237817Y-120714518D01*
X136274425Y-120741115D01*
X136343248Y-120791118D01*
X136349276Y-120793802D01*
X136349278Y-120793803D01*
X136445490Y-120836639D01*
X136517712Y-120868794D01*
X136611113Y-120888647D01*
X136698056Y-120907128D01*
X136698061Y-120907128D01*
X136704513Y-120908500D01*
X136895487Y-120908500D01*
X136901939Y-120907128D01*
X136901944Y-120907128D01*
X136988887Y-120888647D01*
X137082288Y-120868794D01*
X137154510Y-120836639D01*
X137250722Y-120793803D01*
X137250724Y-120793802D01*
X137256752Y-120791118D01*
X137411253Y-120678866D01*
X137539040Y-120536944D01*
X137634527Y-120371556D01*
X137693542Y-120189928D01*
X137713504Y-120000000D01*
X137693542Y-119810072D01*
X137634527Y-119628444D01*
X137539040Y-119463056D01*
X137411253Y-119321134D01*
X137256752Y-119208882D01*
X137250724Y-119206198D01*
X137250722Y-119206197D01*
X137088319Y-119133891D01*
X137088318Y-119133891D01*
X137082288Y-119131206D01*
X136988888Y-119111353D01*
X136901944Y-119092872D01*
X136901939Y-119092872D01*
X136895487Y-119091500D01*
X136704513Y-119091500D01*
X136698061Y-119092872D01*
X136698056Y-119092872D01*
X136611112Y-119111353D01*
X136517712Y-119131206D01*
X136511682Y-119133891D01*
X136511681Y-119133891D01*
X136349278Y-119206197D01*
X136349276Y-119206198D01*
X136343248Y-119208882D01*
X136337907Y-119212762D01*
X136337906Y-119212763D01*
X136237817Y-119285482D01*
X136170949Y-119309341D01*
X136101798Y-119293260D01*
X136074661Y-119272641D01*
X135965381Y-119163361D01*
X135818699Y-119074528D01*
X135811452Y-119072257D01*
X135811450Y-119072256D01*
X135745164Y-119051483D01*
X135655062Y-119023247D01*
X135581635Y-119016500D01*
X135578737Y-119016500D01*
X135324335Y-119016501D01*
X135068366Y-119016501D01*
X135065508Y-119016764D01*
X135065499Y-119016764D01*
X135029996Y-119020026D01*
X134994938Y-119023247D01*
X134988560Y-119025246D01*
X134988559Y-119025246D01*
X134838550Y-119072256D01*
X134838548Y-119072257D01*
X134831301Y-119074528D01*
X134684619Y-119163361D01*
X134589095Y-119258885D01*
X134526783Y-119292911D01*
X134455968Y-119287846D01*
X134410905Y-119258885D01*
X134315381Y-119163361D01*
X134168699Y-119074528D01*
X134161452Y-119072257D01*
X134161450Y-119072256D01*
X134095164Y-119051483D01*
X134005062Y-119023247D01*
X133931635Y-119016500D01*
X133928737Y-119016500D01*
X133674335Y-119016501D01*
X133418366Y-119016501D01*
X133415508Y-119016764D01*
X133415499Y-119016764D01*
X133379996Y-119020026D01*
X133344938Y-119023247D01*
X133338560Y-119025246D01*
X133338559Y-119025246D01*
X133188550Y-119072256D01*
X133188548Y-119072257D01*
X133181301Y-119074528D01*
X133034619Y-119163361D01*
X132913361Y-119284619D01*
X132909424Y-119291120D01*
X132900551Y-119305771D01*
X132848154Y-119353678D01*
X132792775Y-119366500D01*
X132708200Y-119366500D01*
X132640079Y-119346498D01*
X132620853Y-119330157D01*
X132620580Y-119330460D01*
X132615668Y-119326037D01*
X132611253Y-119321134D01*
X132456752Y-119208882D01*
X132450724Y-119206198D01*
X132450722Y-119206197D01*
X132288319Y-119133891D01*
X132288318Y-119133891D01*
X132282288Y-119131206D01*
X132188888Y-119111353D01*
X132101944Y-119092872D01*
X132101939Y-119092872D01*
X132095487Y-119091500D01*
X131904513Y-119091500D01*
X131898061Y-119092872D01*
X131898056Y-119092872D01*
X131811112Y-119111353D01*
X131717712Y-119131206D01*
X131711682Y-119133891D01*
X131711681Y-119133891D01*
X131549278Y-119206197D01*
X131549276Y-119206198D01*
X131543248Y-119208882D01*
X131388747Y-119321134D01*
X131260960Y-119463056D01*
X131165473Y-119628444D01*
X131106458Y-119810072D01*
X131086496Y-120000000D01*
X119213504Y-120000000D01*
X119193542Y-119810072D01*
X119134527Y-119628444D01*
X119039040Y-119463056D01*
X118911253Y-119321134D01*
X118756752Y-119208882D01*
X118750724Y-119206198D01*
X118750722Y-119206197D01*
X118588319Y-119133891D01*
X118588318Y-119133891D01*
X118582288Y-119131206D01*
X118488888Y-119111353D01*
X118401944Y-119092872D01*
X118401939Y-119092872D01*
X118395487Y-119091500D01*
X118204513Y-119091500D01*
X118198061Y-119092872D01*
X118198056Y-119092872D01*
X118111112Y-119111353D01*
X118017712Y-119131206D01*
X118011682Y-119133891D01*
X118011681Y-119133891D01*
X117849278Y-119206197D01*
X117849276Y-119206198D01*
X117843248Y-119208882D01*
X117688747Y-119321134D01*
X117684332Y-119326037D01*
X117679420Y-119330460D01*
X117678295Y-119329211D01*
X117624986Y-119362051D01*
X117591800Y-119366500D01*
X117207225Y-119366500D01*
X117139104Y-119346498D01*
X117099449Y-119305771D01*
X117090576Y-119291120D01*
X117086639Y-119284619D01*
X116965381Y-119163361D01*
X116818699Y-119074528D01*
X116811452Y-119072257D01*
X116811450Y-119072256D01*
X116745164Y-119051483D01*
X116655062Y-119023247D01*
X116581635Y-119016500D01*
X116578737Y-119016500D01*
X116324335Y-119016501D01*
X116068366Y-119016501D01*
X116065508Y-119016764D01*
X116065499Y-119016764D01*
X116029996Y-119020026D01*
X115994938Y-119023247D01*
X115988560Y-119025246D01*
X115988559Y-119025246D01*
X115838550Y-119072256D01*
X115838548Y-119072257D01*
X115831301Y-119074528D01*
X115684619Y-119163361D01*
X115589095Y-119258885D01*
X115526783Y-119292911D01*
X115455968Y-119287846D01*
X115410905Y-119258885D01*
X115315381Y-119163361D01*
X115168699Y-119074528D01*
X115161452Y-119072257D01*
X115161450Y-119072256D01*
X115095164Y-119051483D01*
X115005062Y-119023247D01*
X114931635Y-119016500D01*
X114928737Y-119016500D01*
X114674335Y-119016501D01*
X114418366Y-119016501D01*
X114415508Y-119016764D01*
X114415499Y-119016764D01*
X114379996Y-119020026D01*
X114344938Y-119023247D01*
X114338560Y-119025246D01*
X114338559Y-119025246D01*
X114188550Y-119072256D01*
X114188548Y-119072257D01*
X114181301Y-119074528D01*
X114034619Y-119163361D01*
X113913361Y-119284619D01*
X113909424Y-119291120D01*
X113900551Y-119305771D01*
X113848154Y-119353678D01*
X113792775Y-119366500D01*
X113708200Y-119366500D01*
X113640079Y-119346498D01*
X113620853Y-119330157D01*
X113620580Y-119330460D01*
X113615668Y-119326037D01*
X113611253Y-119321134D01*
X113456752Y-119208882D01*
X113450724Y-119206198D01*
X113450722Y-119206197D01*
X113288319Y-119133891D01*
X113288318Y-119133891D01*
X113282288Y-119131206D01*
X113188888Y-119111353D01*
X113101944Y-119092872D01*
X113101939Y-119092872D01*
X113095487Y-119091500D01*
X112904513Y-119091500D01*
X112898061Y-119092872D01*
X112898056Y-119092872D01*
X112811112Y-119111353D01*
X112717712Y-119131206D01*
X112711682Y-119133891D01*
X112711681Y-119133891D01*
X112549278Y-119206197D01*
X112549276Y-119206198D01*
X112543248Y-119208882D01*
X112388747Y-119321134D01*
X112260960Y-119463056D01*
X112165473Y-119628444D01*
X112106458Y-119810072D01*
X112086496Y-120000000D01*
X101008500Y-120000000D01*
X101008500Y-114934593D01*
X104033039Y-114934593D01*
X104041848Y-115169216D01*
X104042943Y-115174434D01*
X104088668Y-115392356D01*
X104090062Y-115399001D01*
X104176302Y-115617377D01*
X104298104Y-115818100D01*
X104451985Y-115995432D01*
X104456117Y-115998820D01*
X104629416Y-116140917D01*
X104629422Y-116140921D01*
X104633544Y-116144301D01*
X104638180Y-116146940D01*
X104638183Y-116146942D01*
X104749408Y-116210255D01*
X104837590Y-116260451D01*
X105058289Y-116340561D01*
X105063538Y-116341510D01*
X105063541Y-116341511D01*
X105144615Y-116356171D01*
X105289330Y-116382340D01*
X105293469Y-116382535D01*
X105293476Y-116382536D01*
X105312440Y-116383430D01*
X105312449Y-116383430D01*
X105313929Y-116383500D01*
X105478950Y-116383500D01*
X105560299Y-116376597D01*
X105648637Y-116369102D01*
X105648641Y-116369101D01*
X105653948Y-116368651D01*
X105659103Y-116367313D01*
X105659109Y-116367312D01*
X105876035Y-116311009D01*
X105876034Y-116311009D01*
X105881206Y-116309667D01*
X105886072Y-116307475D01*
X105886075Y-116307474D01*
X106090417Y-116215424D01*
X106090420Y-116215423D01*
X106095278Y-116213234D01*
X106290041Y-116082112D01*
X106459927Y-115920049D01*
X106600078Y-115731679D01*
X106660719Y-115612408D01*
X106704069Y-115527144D01*
X106704069Y-115527143D01*
X106706487Y-115522388D01*
X106753667Y-115370442D01*
X106792970Y-115311317D01*
X106857999Y-115282826D01*
X106928109Y-115294016D01*
X106981039Y-115341333D01*
X107000000Y-115407806D01*
X107000000Y-117000000D01*
X108500000Y-118500000D01*
X112500000Y-118500000D01*
X114000000Y-117000000D01*
X114000000Y-115421315D01*
X114020002Y-115353194D01*
X114073658Y-115306701D01*
X114143932Y-115296597D01*
X114208512Y-115326091D01*
X114246896Y-115385817D01*
X114248540Y-115392356D01*
X114248965Y-115393772D01*
X114250062Y-115399001D01*
X114336302Y-115617377D01*
X114458104Y-115818100D01*
X114611985Y-115995432D01*
X114616117Y-115998820D01*
X114789416Y-116140917D01*
X114789422Y-116140921D01*
X114793544Y-116144301D01*
X114798180Y-116146940D01*
X114798183Y-116146942D01*
X114909408Y-116210255D01*
X114997590Y-116260451D01*
X115218289Y-116340561D01*
X115223538Y-116341510D01*
X115223541Y-116341511D01*
X115304615Y-116356171D01*
X115449330Y-116382340D01*
X115453469Y-116382535D01*
X115453476Y-116382536D01*
X115472440Y-116383430D01*
X115472449Y-116383430D01*
X115473929Y-116383500D01*
X115638950Y-116383500D01*
X115720299Y-116376597D01*
X115808637Y-116369102D01*
X115808641Y-116369101D01*
X115813948Y-116368651D01*
X115819103Y-116367313D01*
X115819109Y-116367312D01*
X116036035Y-116311009D01*
X116036034Y-116311009D01*
X116041206Y-116309667D01*
X116046072Y-116307475D01*
X116046075Y-116307474D01*
X116250417Y-116215424D01*
X116250420Y-116215423D01*
X116255278Y-116213234D01*
X116450041Y-116082112D01*
X116619927Y-115920049D01*
X116760078Y-115731679D01*
X116820719Y-115612408D01*
X116864069Y-115527144D01*
X116864069Y-115527143D01*
X116866487Y-115522388D01*
X116936111Y-115298160D01*
X116953202Y-115169216D01*
X116966261Y-115070690D01*
X116966261Y-115070687D01*
X116966961Y-115065407D01*
X116962050Y-114934593D01*
X123033039Y-114934593D01*
X123041848Y-115169216D01*
X123042943Y-115174434D01*
X123088668Y-115392356D01*
X123090062Y-115399001D01*
X123176302Y-115617377D01*
X123298104Y-115818100D01*
X123451985Y-115995432D01*
X123456117Y-115998820D01*
X123629416Y-116140917D01*
X123629422Y-116140921D01*
X123633544Y-116144301D01*
X123638180Y-116146940D01*
X123638183Y-116146942D01*
X123749408Y-116210255D01*
X123837590Y-116260451D01*
X124058289Y-116340561D01*
X124063538Y-116341510D01*
X124063541Y-116341511D01*
X124144615Y-116356171D01*
X124289330Y-116382340D01*
X124293469Y-116382535D01*
X124293476Y-116382536D01*
X124312440Y-116383430D01*
X124312449Y-116383430D01*
X124313929Y-116383500D01*
X124478950Y-116383500D01*
X124560299Y-116376597D01*
X124648637Y-116369102D01*
X124648641Y-116369101D01*
X124653948Y-116368651D01*
X124659103Y-116367313D01*
X124659109Y-116367312D01*
X124876035Y-116311009D01*
X124876034Y-116311009D01*
X124881206Y-116309667D01*
X124886072Y-116307475D01*
X124886075Y-116307474D01*
X125090417Y-116215424D01*
X125090420Y-116215423D01*
X125095278Y-116213234D01*
X125290041Y-116082112D01*
X125459927Y-115920049D01*
X125600078Y-115731679D01*
X125660719Y-115612408D01*
X125704069Y-115527144D01*
X125704069Y-115527143D01*
X125706487Y-115522388D01*
X125753667Y-115370442D01*
X125792970Y-115311317D01*
X125857999Y-115282826D01*
X125928109Y-115294016D01*
X125981039Y-115341333D01*
X126000000Y-115407806D01*
X126000000Y-117000000D01*
X127500000Y-118500000D01*
X131500000Y-118500000D01*
X133000000Y-117000000D01*
X133000000Y-115421315D01*
X133020002Y-115353194D01*
X133073658Y-115306701D01*
X133143932Y-115296597D01*
X133208512Y-115326091D01*
X133246896Y-115385817D01*
X133248540Y-115392356D01*
X133248965Y-115393772D01*
X133250062Y-115399001D01*
X133336302Y-115617377D01*
X133458104Y-115818100D01*
X133611985Y-115995432D01*
X133616117Y-115998820D01*
X133789416Y-116140917D01*
X133789422Y-116140921D01*
X133793544Y-116144301D01*
X133798180Y-116146940D01*
X133798183Y-116146942D01*
X133909408Y-116210255D01*
X133997590Y-116260451D01*
X134218289Y-116340561D01*
X134223538Y-116341510D01*
X134223541Y-116341511D01*
X134304615Y-116356171D01*
X134449330Y-116382340D01*
X134453469Y-116382535D01*
X134453476Y-116382536D01*
X134472440Y-116383430D01*
X134472449Y-116383430D01*
X134473929Y-116383500D01*
X134638950Y-116383500D01*
X134720299Y-116376597D01*
X134808637Y-116369102D01*
X134808641Y-116369101D01*
X134813948Y-116368651D01*
X134819103Y-116367313D01*
X134819109Y-116367312D01*
X135036035Y-116311009D01*
X135036034Y-116311009D01*
X135041206Y-116309667D01*
X135046072Y-116307475D01*
X135046075Y-116307474D01*
X135250417Y-116215424D01*
X135250420Y-116215423D01*
X135255278Y-116213234D01*
X135450041Y-116082112D01*
X135619927Y-115920049D01*
X135760078Y-115731679D01*
X135820719Y-115612408D01*
X135864069Y-115527144D01*
X135864069Y-115527143D01*
X135866487Y-115522388D01*
X135936111Y-115298160D01*
X135953202Y-115169216D01*
X135966261Y-115070690D01*
X135966261Y-115070687D01*
X135966961Y-115065407D01*
X135958152Y-114830784D01*
X135934314Y-114717174D01*
X135911035Y-114606226D01*
X135911034Y-114606223D01*
X135909938Y-114600999D01*
X135823698Y-114382623D01*
X135701896Y-114181900D01*
X135548015Y-114004568D01*
X135537938Y-113996306D01*
X135370584Y-113859083D01*
X135370578Y-113859079D01*
X135366456Y-113855699D01*
X135361820Y-113853060D01*
X135361817Y-113853058D01*
X135167053Y-113742192D01*
X135162410Y-113739549D01*
X134941711Y-113659439D01*
X134936462Y-113658490D01*
X134936459Y-113658489D01*
X134855385Y-113643829D01*
X134710670Y-113617660D01*
X134706531Y-113617465D01*
X134706524Y-113617464D01*
X134687560Y-113616570D01*
X134687551Y-113616570D01*
X134686071Y-113616500D01*
X134521050Y-113616500D01*
X134439701Y-113623403D01*
X134351363Y-113630898D01*
X134351359Y-113630899D01*
X134346052Y-113631349D01*
X134340897Y-113632687D01*
X134340891Y-113632688D01*
X134163177Y-113678814D01*
X134118794Y-113690333D01*
X134113928Y-113692525D01*
X134113925Y-113692526D01*
X133909583Y-113784576D01*
X133909580Y-113784577D01*
X133904722Y-113786766D01*
X133709959Y-113917888D01*
X133540073Y-114079951D01*
X133399922Y-114268321D01*
X133397506Y-114273072D01*
X133397504Y-114273076D01*
X133295931Y-114472856D01*
X133293513Y-114477612D01*
X133291931Y-114482707D01*
X133246333Y-114629558D01*
X133207030Y-114688683D01*
X133142001Y-114717174D01*
X133071891Y-114705984D01*
X133018961Y-114658667D01*
X133000000Y-114592194D01*
X133000000Y-113500000D01*
X131911171Y-112411171D01*
X131877145Y-112348859D01*
X131882210Y-112278044D01*
X131924757Y-112221208D01*
X131960391Y-112202552D01*
X132056105Y-112170620D01*
X132069286Y-112164445D01*
X132202173Y-112082212D01*
X132213574Y-112073176D01*
X132323986Y-111962571D01*
X132332998Y-111951160D01*
X132415004Y-111818120D01*
X132421151Y-111804939D01*
X132470491Y-111656186D01*
X132473358Y-111642810D01*
X132482672Y-111551903D01*
X132482929Y-111546874D01*
X132478525Y-111531876D01*
X132477135Y-111530671D01*
X132469452Y-111529000D01*
X131372000Y-111529000D01*
X131303879Y-111508998D01*
X131257386Y-111455342D01*
X131246000Y-111403000D01*
X131246000Y-111147000D01*
X131266002Y-111078879D01*
X131319658Y-111032386D01*
X131372000Y-111021000D01*
X132464885Y-111021000D01*
X132480124Y-111016525D01*
X132481329Y-111015135D01*
X132483000Y-111007452D01*
X132483000Y-111004562D01*
X132482663Y-110998047D01*
X132473106Y-110905943D01*
X132470212Y-110892544D01*
X132420619Y-110743893D01*
X132414445Y-110730714D01*
X132332212Y-110597827D01*
X132318629Y-110580689D01*
X132320559Y-110579159D01*
X132292097Y-110527120D01*
X132297113Y-110456301D01*
X132320799Y-110419383D01*
X132319843Y-110418628D01*
X132324381Y-110412882D01*
X132329552Y-110407702D01*
X132333585Y-110401160D01*
X132415462Y-110268331D01*
X132415463Y-110268329D01*
X132419302Y-110262101D01*
X132473149Y-110099757D01*
X132483500Y-109998732D01*
X132483500Y-109451268D01*
X132472887Y-109348981D01*
X132418756Y-109186732D01*
X132407051Y-109167816D01*
X132332606Y-109047515D01*
X132328752Y-109041287D01*
X132316687Y-109029243D01*
X132229798Y-108942505D01*
X132195719Y-108880222D01*
X132200722Y-108809402D01*
X132243219Y-108752530D01*
X132245478Y-108751075D01*
X132246705Y-108750615D01*
X132251884Y-108746734D01*
X132334954Y-108684476D01*
X132363261Y-108663261D01*
X132450615Y-108546705D01*
X132501745Y-108410316D01*
X132508500Y-108348134D01*
X132508500Y-107251866D01*
X132501745Y-107189684D01*
X132450615Y-107053295D01*
X132363261Y-106936739D01*
X132246705Y-106849385D01*
X132110316Y-106798255D01*
X132048134Y-106791500D01*
X130951866Y-106791500D01*
X130889684Y-106798255D01*
X130753295Y-106849385D01*
X130636739Y-106936739D01*
X130631358Y-106943919D01*
X130631356Y-106943921D01*
X130607097Y-106976289D01*
X130550238Y-107018804D01*
X130479419Y-107023828D01*
X130417126Y-106989768D01*
X130383136Y-106927436D01*
X130386440Y-106861784D01*
X130391503Y-106846204D01*
X130391503Y-106846202D01*
X130393542Y-106839928D01*
X130397631Y-106801029D01*
X130412814Y-106656565D01*
X130413504Y-106650000D01*
X130402137Y-106541847D01*
X130394232Y-106466635D01*
X130394232Y-106466633D01*
X130393542Y-106460072D01*
X130334527Y-106278444D01*
X130239040Y-106113056D01*
X130111253Y-105971134D01*
X129956752Y-105858882D01*
X129950724Y-105856198D01*
X129950722Y-105856197D01*
X129788319Y-105783891D01*
X129788318Y-105783891D01*
X129782288Y-105781206D01*
X129688888Y-105761353D01*
X129601944Y-105742872D01*
X129601939Y-105742872D01*
X129595487Y-105741500D01*
X129404513Y-105741500D01*
X129398061Y-105742872D01*
X129398056Y-105742872D01*
X129311112Y-105761353D01*
X129217712Y-105781206D01*
X129211682Y-105783891D01*
X129211681Y-105783891D01*
X129049278Y-105856197D01*
X129049276Y-105856198D01*
X129043248Y-105858882D01*
X128888747Y-105971134D01*
X128760960Y-106113056D01*
X128665473Y-106278444D01*
X128606458Y-106460072D01*
X128605768Y-106466633D01*
X128605768Y-106466635D01*
X128597863Y-106541847D01*
X128586496Y-106650000D01*
X128587186Y-106656565D01*
X128602370Y-106801029D01*
X128606458Y-106839928D01*
X128665473Y-107021556D01*
X128668776Y-107027278D01*
X128668777Y-107027279D01*
X128688652Y-107061703D01*
X128760960Y-107186944D01*
X128834137Y-107268215D01*
X128864853Y-107332221D01*
X128866500Y-107352524D01*
X128866500Y-108792775D01*
X128846498Y-108860896D01*
X128805771Y-108900551D01*
X128784619Y-108913361D01*
X128663361Y-109034619D01*
X128659424Y-109041120D01*
X128602146Y-109135697D01*
X128549748Y-109183604D01*
X128479769Y-109195577D01*
X128414425Y-109167816D01*
X128387226Y-109136729D01*
X128332212Y-109047827D01*
X128323176Y-109036426D01*
X128212571Y-108926014D01*
X128201160Y-108917002D01*
X128068120Y-108834996D01*
X128054939Y-108828849D01*
X127906186Y-108779509D01*
X127892810Y-108776642D01*
X127801903Y-108767328D01*
X127795486Y-108767000D01*
X127772115Y-108767000D01*
X127756876Y-108771475D01*
X127755671Y-108772865D01*
X127754000Y-108780548D01*
X127754000Y-109853000D01*
X127733998Y-109921121D01*
X127680342Y-109967614D01*
X127628000Y-109979000D01*
X126535115Y-109979000D01*
X126519876Y-109983475D01*
X126518671Y-109984865D01*
X126517000Y-109992548D01*
X126517000Y-109995438D01*
X126517337Y-110001953D01*
X126526894Y-110094057D01*
X126529788Y-110107456D01*
X126579381Y-110256107D01*
X126585555Y-110269286D01*
X126667788Y-110402173D01*
X126681371Y-110419311D01*
X126679441Y-110420841D01*
X126707903Y-110472880D01*
X126702887Y-110543699D01*
X126679201Y-110580618D01*
X126680156Y-110581373D01*
X126675618Y-110587119D01*
X126670448Y-110592298D01*
X126668986Y-110594670D01*
X126612588Y-110634655D01*
X126571624Y-110641500D01*
X126480224Y-110641500D01*
X126412103Y-110621498D01*
X126406163Y-110617436D01*
X126405909Y-110617251D01*
X126284101Y-110528752D01*
X126262094Y-110512763D01*
X126262093Y-110512762D01*
X126256752Y-110508882D01*
X126250724Y-110506198D01*
X126250722Y-110506197D01*
X126088319Y-110433891D01*
X126088318Y-110433891D01*
X126082288Y-110431206D01*
X125977305Y-110408891D01*
X125901944Y-110392872D01*
X125901939Y-110392872D01*
X125895487Y-110391500D01*
X125704513Y-110391500D01*
X125698061Y-110392872D01*
X125698056Y-110392872D01*
X125622695Y-110408891D01*
X125517712Y-110431206D01*
X125511682Y-110433891D01*
X125511681Y-110433891D01*
X125349278Y-110506197D01*
X125349276Y-110506198D01*
X125343248Y-110508882D01*
X125337907Y-110512762D01*
X125337906Y-110512763D01*
X125315899Y-110528752D01*
X125188747Y-110621134D01*
X125184326Y-110626044D01*
X125184325Y-110626045D01*
X125078322Y-110743774D01*
X125060960Y-110763056D01*
X125049078Y-110783637D01*
X124982484Y-110898981D01*
X124965473Y-110928444D01*
X124906458Y-111110072D01*
X124886496Y-111300000D01*
X124887186Y-111306565D01*
X124903141Y-111458365D01*
X124906458Y-111489928D01*
X124965473Y-111671556D01*
X124968776Y-111677278D01*
X124968777Y-111677279D01*
X125002686Y-111736010D01*
X125060960Y-111836944D01*
X125065378Y-111841851D01*
X125065379Y-111841852D01*
X125153806Y-111940060D01*
X125188747Y-111978866D01*
X125248918Y-112022583D01*
X125320212Y-112074381D01*
X125343248Y-112091118D01*
X125349276Y-112093802D01*
X125349278Y-112093803D01*
X125464642Y-112145166D01*
X125517712Y-112168794D01*
X125611113Y-112188647D01*
X125698056Y-112207128D01*
X125698061Y-112207128D01*
X125704513Y-112208500D01*
X125895487Y-112208500D01*
X125901939Y-112207128D01*
X125901944Y-112207128D01*
X125988887Y-112188647D01*
X126082288Y-112168794D01*
X126135358Y-112145166D01*
X126250722Y-112093803D01*
X126250724Y-112093802D01*
X126256752Y-112091118D01*
X126279789Y-112074381D01*
X126388596Y-111995327D01*
X126406163Y-111982564D01*
X126473031Y-111958706D01*
X126480224Y-111958500D01*
X126618908Y-111958500D01*
X126687029Y-111978502D01*
X126707926Y-111995327D01*
X126792298Y-112079552D01*
X126798528Y-112083392D01*
X126798529Y-112083393D01*
X126930020Y-112164445D01*
X126937899Y-112169302D01*
X127026306Y-112198625D01*
X127039037Y-112202848D01*
X127097396Y-112243279D01*
X127124633Y-112308843D01*
X127112099Y-112378725D01*
X127088464Y-112411536D01*
X126000000Y-113500000D01*
X126000000Y-114578685D01*
X125979998Y-114646806D01*
X125926342Y-114693299D01*
X125856068Y-114703403D01*
X125791488Y-114673909D01*
X125753104Y-114614183D01*
X125751460Y-114607644D01*
X125751035Y-114606226D01*
X125749938Y-114600999D01*
X125663698Y-114382623D01*
X125541896Y-114181900D01*
X125388015Y-114004568D01*
X125377938Y-113996306D01*
X125210584Y-113859083D01*
X125210578Y-113859079D01*
X125206456Y-113855699D01*
X125201820Y-113853060D01*
X125201817Y-113853058D01*
X125007053Y-113742192D01*
X125002410Y-113739549D01*
X124781711Y-113659439D01*
X124776462Y-113658490D01*
X124776459Y-113658489D01*
X124695385Y-113643829D01*
X124550670Y-113617660D01*
X124546531Y-113617465D01*
X124546524Y-113617464D01*
X124527560Y-113616570D01*
X124527551Y-113616570D01*
X124526071Y-113616500D01*
X124361050Y-113616500D01*
X124279701Y-113623403D01*
X124191363Y-113630898D01*
X124191359Y-113630899D01*
X124186052Y-113631349D01*
X124180897Y-113632687D01*
X124180891Y-113632688D01*
X124003177Y-113678814D01*
X123958794Y-113690333D01*
X123953928Y-113692525D01*
X123953925Y-113692526D01*
X123749583Y-113784576D01*
X123749580Y-113784577D01*
X123744722Y-113786766D01*
X123549959Y-113917888D01*
X123380073Y-114079951D01*
X123239922Y-114268321D01*
X123237506Y-114273072D01*
X123237504Y-114273076D01*
X123135931Y-114472856D01*
X123133513Y-114477612D01*
X123063889Y-114701840D01*
X123063188Y-114707129D01*
X123046092Y-114836116D01*
X123033039Y-114934593D01*
X116962050Y-114934593D01*
X116958152Y-114830784D01*
X116934314Y-114717174D01*
X116911035Y-114606226D01*
X116911034Y-114606223D01*
X116909938Y-114600999D01*
X116823698Y-114382623D01*
X116701896Y-114181900D01*
X116548015Y-114004568D01*
X116537938Y-113996306D01*
X116370584Y-113859083D01*
X116370578Y-113859079D01*
X116366456Y-113855699D01*
X116361820Y-113853060D01*
X116361817Y-113853058D01*
X116167053Y-113742192D01*
X116162410Y-113739549D01*
X115941711Y-113659439D01*
X115936462Y-113658490D01*
X115936459Y-113658489D01*
X115855385Y-113643829D01*
X115710670Y-113617660D01*
X115706531Y-113617465D01*
X115706524Y-113617464D01*
X115687560Y-113616570D01*
X115687551Y-113616570D01*
X115686071Y-113616500D01*
X115521050Y-113616500D01*
X115439701Y-113623403D01*
X115351363Y-113630898D01*
X115351359Y-113630899D01*
X115346052Y-113631349D01*
X115340897Y-113632687D01*
X115340891Y-113632688D01*
X115163177Y-113678814D01*
X115118794Y-113690333D01*
X115113928Y-113692525D01*
X115113925Y-113692526D01*
X114909583Y-113784576D01*
X114909580Y-113784577D01*
X114904722Y-113786766D01*
X114709959Y-113917888D01*
X114540073Y-114079951D01*
X114399922Y-114268321D01*
X114397506Y-114273072D01*
X114397504Y-114273076D01*
X114295931Y-114472856D01*
X114293513Y-114477612D01*
X114291931Y-114482707D01*
X114246333Y-114629558D01*
X114207030Y-114688683D01*
X114142001Y-114717174D01*
X114071891Y-114705984D01*
X114018961Y-114658667D01*
X114000000Y-114592194D01*
X114000000Y-113500000D01*
X112911171Y-112411171D01*
X112877145Y-112348859D01*
X112882210Y-112278044D01*
X112924757Y-112221208D01*
X112960391Y-112202552D01*
X113056105Y-112170620D01*
X113069286Y-112164445D01*
X113202173Y-112082212D01*
X113213574Y-112073176D01*
X113323986Y-111962571D01*
X113332998Y-111951160D01*
X113415004Y-111818120D01*
X113421151Y-111804939D01*
X113470491Y-111656186D01*
X113473358Y-111642810D01*
X113482672Y-111551903D01*
X113482929Y-111546874D01*
X113478525Y-111531876D01*
X113477135Y-111530671D01*
X113469452Y-111529000D01*
X112372000Y-111529000D01*
X112303879Y-111508998D01*
X112257386Y-111455342D01*
X112246000Y-111403000D01*
X112246000Y-111147000D01*
X112266002Y-111078879D01*
X112319658Y-111032386D01*
X112372000Y-111021000D01*
X113464885Y-111021000D01*
X113480124Y-111016525D01*
X113481329Y-111015135D01*
X113483000Y-111007452D01*
X113483000Y-111004562D01*
X113482663Y-110998047D01*
X113473106Y-110905943D01*
X113470212Y-110892544D01*
X113420619Y-110743893D01*
X113414445Y-110730714D01*
X113332212Y-110597827D01*
X113318629Y-110580689D01*
X113320559Y-110579159D01*
X113292097Y-110527120D01*
X113297113Y-110456301D01*
X113320799Y-110419382D01*
X113319844Y-110418627D01*
X113324382Y-110412881D01*
X113329552Y-110407702D01*
X113331014Y-110405330D01*
X113387412Y-110365345D01*
X113428376Y-110358500D01*
X117946233Y-110358500D01*
X117957416Y-110359027D01*
X117964909Y-110360702D01*
X117972835Y-110360453D01*
X117972836Y-110360453D01*
X118032986Y-110358562D01*
X118036945Y-110358500D01*
X118064856Y-110358500D01*
X118068791Y-110358003D01*
X118068856Y-110357995D01*
X118080693Y-110357062D01*
X118112951Y-110356048D01*
X118116970Y-110355922D01*
X118124889Y-110355673D01*
X118144343Y-110350021D01*
X118163700Y-110346013D01*
X118175930Y-110344468D01*
X118175931Y-110344468D01*
X118183797Y-110343474D01*
X118191168Y-110340555D01*
X118191170Y-110340555D01*
X118224912Y-110327196D01*
X118236142Y-110323351D01*
X118270983Y-110313229D01*
X118270984Y-110313229D01*
X118278593Y-110311018D01*
X118285412Y-110306985D01*
X118285417Y-110306983D01*
X118296028Y-110300707D01*
X118313776Y-110292012D01*
X118332617Y-110284552D01*
X118368387Y-110258564D01*
X118378307Y-110252048D01*
X118409535Y-110233580D01*
X118409538Y-110233578D01*
X118416362Y-110229542D01*
X118430683Y-110215221D01*
X118445717Y-110202380D01*
X118455694Y-110195131D01*
X118462107Y-110190472D01*
X118490298Y-110156395D01*
X118498288Y-110147616D01*
X119192779Y-109453126D01*
X126517071Y-109453126D01*
X126521475Y-109468124D01*
X126522865Y-109469329D01*
X126530548Y-109471000D01*
X127227885Y-109471000D01*
X127243124Y-109466525D01*
X127244329Y-109465135D01*
X127246000Y-109457452D01*
X127246000Y-108785115D01*
X127241525Y-108769876D01*
X127240135Y-108768671D01*
X127232452Y-108767000D01*
X127204562Y-108767000D01*
X127198047Y-108767337D01*
X127105943Y-108776894D01*
X127092544Y-108779788D01*
X126943893Y-108829381D01*
X126930714Y-108835555D01*
X126797827Y-108917788D01*
X126786426Y-108926824D01*
X126676014Y-109037429D01*
X126667002Y-109048840D01*
X126584996Y-109181880D01*
X126578849Y-109195061D01*
X126529509Y-109343814D01*
X126526642Y-109357190D01*
X126517328Y-109448097D01*
X126517071Y-109453126D01*
X119192779Y-109453126D01*
X119592253Y-109053652D01*
X119600539Y-109046112D01*
X119607018Y-109042000D01*
X119653644Y-108992348D01*
X119656398Y-108989507D01*
X119676135Y-108969770D01*
X119678615Y-108966573D01*
X119686320Y-108957551D01*
X119711159Y-108931100D01*
X119716586Y-108925321D01*
X119720405Y-108918375D01*
X119720407Y-108918372D01*
X119726348Y-108907566D01*
X119737199Y-108891047D01*
X119744758Y-108881301D01*
X119749614Y-108875041D01*
X119752759Y-108867772D01*
X119752762Y-108867768D01*
X119767174Y-108834463D01*
X119772391Y-108823813D01*
X119793695Y-108785060D01*
X119795857Y-108776642D01*
X119797903Y-108768671D01*
X119798733Y-108765437D01*
X119805137Y-108746734D01*
X119810033Y-108735420D01*
X119810033Y-108735419D01*
X119813181Y-108728145D01*
X119814420Y-108720322D01*
X119814423Y-108720312D01*
X119820099Y-108684476D01*
X119822505Y-108672856D01*
X119831528Y-108637711D01*
X119831528Y-108637710D01*
X119833500Y-108630030D01*
X119833500Y-108609776D01*
X119835051Y-108590065D01*
X119836980Y-108577886D01*
X119838220Y-108570057D01*
X119834059Y-108526038D01*
X119833500Y-108514181D01*
X119833500Y-106702524D01*
X119853502Y-106634403D01*
X119865858Y-106618221D01*
X119939040Y-106536944D01*
X120034527Y-106371556D01*
X120093542Y-106189928D01*
X120101021Y-106118774D01*
X120112814Y-106006565D01*
X120113504Y-106000000D01*
X120093542Y-105810072D01*
X120034527Y-105628444D01*
X119939040Y-105463056D01*
X119811253Y-105321134D01*
X119656752Y-105208882D01*
X119650724Y-105206198D01*
X119650722Y-105206197D01*
X119488319Y-105133891D01*
X119488318Y-105133891D01*
X119482288Y-105131206D01*
X119388888Y-105111353D01*
X119301944Y-105092872D01*
X119301939Y-105092872D01*
X119295487Y-105091500D01*
X119104513Y-105091500D01*
X119098061Y-105092872D01*
X119098056Y-105092872D01*
X119011112Y-105111353D01*
X118917712Y-105131206D01*
X118911682Y-105133891D01*
X118911681Y-105133891D01*
X118749278Y-105206197D01*
X118749276Y-105206198D01*
X118743248Y-105208882D01*
X118588747Y-105321134D01*
X118460960Y-105463056D01*
X118365473Y-105628444D01*
X118306458Y-105810072D01*
X118286496Y-106000000D01*
X118287186Y-106006565D01*
X118298980Y-106118774D01*
X118306458Y-106189928D01*
X118365473Y-106371556D01*
X118460960Y-106536944D01*
X118534137Y-106618215D01*
X118564853Y-106682221D01*
X118566500Y-106702524D01*
X118566500Y-108235405D01*
X118546498Y-108303526D01*
X118529595Y-108324501D01*
X117799499Y-109054596D01*
X117737187Y-109088621D01*
X117710404Y-109091500D01*
X113428379Y-109091500D01*
X113360258Y-109071498D01*
X113331116Y-109045106D01*
X113328752Y-109041287D01*
X113316687Y-109029243D01*
X113229798Y-108942505D01*
X113195719Y-108880222D01*
X113200722Y-108809402D01*
X113243219Y-108752530D01*
X113245478Y-108751075D01*
X113246705Y-108750615D01*
X113251884Y-108746734D01*
X113334954Y-108684476D01*
X113363261Y-108663261D01*
X113450615Y-108546705D01*
X113501745Y-108410316D01*
X113508500Y-108348134D01*
X113508500Y-107251866D01*
X113501745Y-107189684D01*
X113450615Y-107053295D01*
X113363261Y-106936739D01*
X113246705Y-106849385D01*
X113110316Y-106798255D01*
X113048134Y-106791500D01*
X111951866Y-106791500D01*
X111889684Y-106798255D01*
X111753295Y-106849385D01*
X111636739Y-106936739D01*
X111549385Y-107053295D01*
X111498255Y-107189684D01*
X111491500Y-107251866D01*
X111491500Y-108348134D01*
X111498255Y-108410316D01*
X111549385Y-108546705D01*
X111636739Y-108663261D01*
X111665046Y-108684476D01*
X111753295Y-108750615D01*
X111751640Y-108752823D01*
X111791746Y-108793012D01*
X111806767Y-108862401D01*
X111781888Y-108928896D01*
X111770270Y-108942302D01*
X111708162Y-109004518D01*
X111645879Y-109038597D01*
X111618989Y-109041500D01*
X111395710Y-109041500D01*
X111327589Y-109021498D01*
X111306615Y-109004595D01*
X111215381Y-108913361D01*
X111068699Y-108824528D01*
X111061452Y-108822257D01*
X111061450Y-108822256D01*
X110968266Y-108793054D01*
X110905062Y-108773247D01*
X110831635Y-108766500D01*
X110828737Y-108766500D01*
X110499140Y-108766501D01*
X110168366Y-108766501D01*
X110165508Y-108766764D01*
X110165499Y-108766764D01*
X110131630Y-108769876D01*
X110094938Y-108773247D01*
X110088560Y-108775246D01*
X110088559Y-108775246D01*
X109938550Y-108822256D01*
X109938548Y-108822257D01*
X109931301Y-108824528D01*
X109784619Y-108913361D01*
X109663361Y-109034619D01*
X109659424Y-109041120D01*
X109602146Y-109135697D01*
X109549748Y-109183604D01*
X109479769Y-109195577D01*
X109414425Y-109167816D01*
X109387226Y-109136729D01*
X109332212Y-109047827D01*
X109323176Y-109036426D01*
X109212571Y-108926014D01*
X109201160Y-108917002D01*
X109068120Y-108834996D01*
X109054939Y-108828849D01*
X108906186Y-108779509D01*
X108892810Y-108776642D01*
X108801903Y-108767328D01*
X108795486Y-108767000D01*
X108772115Y-108767000D01*
X108756876Y-108771475D01*
X108755671Y-108772865D01*
X108754000Y-108780548D01*
X108754000Y-109853000D01*
X108733998Y-109921121D01*
X108680342Y-109967614D01*
X108628000Y-109979000D01*
X107535115Y-109979000D01*
X107519876Y-109983475D01*
X107518671Y-109984865D01*
X107517000Y-109992548D01*
X107517000Y-109995438D01*
X107517337Y-110001953D01*
X107526894Y-110094057D01*
X107529788Y-110107456D01*
X107577714Y-110251110D01*
X107580298Y-110322060D01*
X107544114Y-110383144D01*
X107480650Y-110414968D01*
X107419254Y-110410819D01*
X107413314Y-110408889D01*
X107407288Y-110406206D01*
X107400838Y-110404835D01*
X107400835Y-110404834D01*
X107226944Y-110367872D01*
X107226939Y-110367872D01*
X107220487Y-110366500D01*
X107029513Y-110366500D01*
X107023061Y-110367872D01*
X107023056Y-110367872D01*
X106936113Y-110386353D01*
X106842712Y-110406206D01*
X106836682Y-110408891D01*
X106836681Y-110408891D01*
X106674278Y-110481197D01*
X106674276Y-110481198D01*
X106668248Y-110483882D01*
X106662907Y-110487762D01*
X106662906Y-110487763D01*
X106628497Y-110512763D01*
X106513747Y-110596134D01*
X106509326Y-110601044D01*
X106509325Y-110601045D01*
X106479063Y-110634655D01*
X106385960Y-110738056D01*
X106290473Y-110903444D01*
X106231458Y-111085072D01*
X106230768Y-111091633D01*
X106230768Y-111091635D01*
X106225938Y-111137595D01*
X106211496Y-111275000D01*
X106231458Y-111464928D01*
X106290473Y-111646556D01*
X106385960Y-111811944D01*
X106390378Y-111816851D01*
X106390379Y-111816852D01*
X106501316Y-111940060D01*
X106513747Y-111953866D01*
X106563539Y-111990042D01*
X106630460Y-112038663D01*
X106668248Y-112066118D01*
X106674276Y-112068802D01*
X106674278Y-112068803D01*
X106836681Y-112141109D01*
X106842712Y-112143794D01*
X106936113Y-112163647D01*
X107023056Y-112182128D01*
X107023061Y-112182128D01*
X107029513Y-112183500D01*
X107220487Y-112183500D01*
X107226939Y-112182128D01*
X107226944Y-112182128D01*
X107313888Y-112163647D01*
X107407288Y-112143794D01*
X107413319Y-112141109D01*
X107575722Y-112068803D01*
X107575724Y-112068802D01*
X107581752Y-112066118D01*
X107608835Y-112046441D01*
X107675703Y-112022583D01*
X107744854Y-112038663D01*
X107771913Y-112059203D01*
X107781530Y-112068803D01*
X107792298Y-112079552D01*
X107798528Y-112083392D01*
X107798529Y-112083393D01*
X107930020Y-112164445D01*
X107937899Y-112169302D01*
X108026306Y-112198625D01*
X108039037Y-112202848D01*
X108097396Y-112243279D01*
X108124633Y-112308843D01*
X108112099Y-112378725D01*
X108088464Y-112411536D01*
X107000000Y-113500000D01*
X107000000Y-114578685D01*
X106979998Y-114646806D01*
X106926342Y-114693299D01*
X106856068Y-114703403D01*
X106791488Y-114673909D01*
X106753104Y-114614183D01*
X106751460Y-114607644D01*
X106751035Y-114606226D01*
X106749938Y-114600999D01*
X106663698Y-114382623D01*
X106541896Y-114181900D01*
X106388015Y-114004568D01*
X106377938Y-113996306D01*
X106210584Y-113859083D01*
X106210578Y-113859079D01*
X106206456Y-113855699D01*
X106201820Y-113853060D01*
X106201817Y-113853058D01*
X106007053Y-113742192D01*
X106002410Y-113739549D01*
X105781711Y-113659439D01*
X105776462Y-113658490D01*
X105776459Y-113658489D01*
X105695385Y-113643829D01*
X105550670Y-113617660D01*
X105546531Y-113617465D01*
X105546524Y-113617464D01*
X105527560Y-113616570D01*
X105527551Y-113616570D01*
X105526071Y-113616500D01*
X105361050Y-113616500D01*
X105279701Y-113623403D01*
X105191363Y-113630898D01*
X105191359Y-113630899D01*
X105186052Y-113631349D01*
X105180897Y-113632687D01*
X105180891Y-113632688D01*
X105003177Y-113678814D01*
X104958794Y-113690333D01*
X104953928Y-113692525D01*
X104953925Y-113692526D01*
X104749583Y-113784576D01*
X104749580Y-113784577D01*
X104744722Y-113786766D01*
X104549959Y-113917888D01*
X104380073Y-114079951D01*
X104239922Y-114268321D01*
X104237506Y-114273072D01*
X104237504Y-114273076D01*
X104135931Y-114472856D01*
X104133513Y-114477612D01*
X104063889Y-114701840D01*
X104063188Y-114707129D01*
X104046092Y-114836116D01*
X104033039Y-114934593D01*
X101008500Y-114934593D01*
X101008500Y-109453126D01*
X107517071Y-109453126D01*
X107521475Y-109468124D01*
X107522865Y-109469329D01*
X107530548Y-109471000D01*
X108227885Y-109471000D01*
X108243124Y-109466525D01*
X108244329Y-109465135D01*
X108246000Y-109457452D01*
X108246000Y-108785115D01*
X108241525Y-108769876D01*
X108240135Y-108768671D01*
X108232452Y-108767000D01*
X108204562Y-108767000D01*
X108198047Y-108767337D01*
X108105943Y-108776894D01*
X108092544Y-108779788D01*
X107943893Y-108829381D01*
X107930714Y-108835555D01*
X107797827Y-108917788D01*
X107786426Y-108926824D01*
X107676014Y-109037429D01*
X107667002Y-109048840D01*
X107584996Y-109181880D01*
X107578849Y-109195061D01*
X107529509Y-109343814D01*
X107526642Y-109357190D01*
X107517328Y-109448097D01*
X107517071Y-109453126D01*
X101008500Y-109453126D01*
X101008500Y-99296735D01*
X101010001Y-99277344D01*
X101012309Y-99262526D01*
X101013691Y-99253653D01*
X101012527Y-99244749D01*
X101012604Y-99238492D01*
X101012477Y-99214265D01*
X101020668Y-99146062D01*
X101027777Y-99116883D01*
X101058273Y-99035489D01*
X101072087Y-99008823D01*
X101120981Y-98936960D01*
X101140717Y-98914317D01*
X101186029Y-98873406D01*
X101206253Y-98858662D01*
X101209118Y-98857284D01*
X101214056Y-98853886D01*
X101214299Y-98853765D01*
X101214499Y-98853581D01*
X101219459Y-98850167D01*
X101222994Y-98846826D01*
X101226778Y-98843767D01*
X101226803Y-98843798D01*
X101229856Y-98841186D01*
X101242330Y-98831537D01*
X101542856Y-98599064D01*
X101843721Y-98321410D01*
X102006544Y-98142589D01*
X102117511Y-98020719D01*
X102117519Y-98020709D01*
X102119355Y-98018693D01*
X102367677Y-97693197D01*
X102549069Y-97406944D01*
X102602427Y-97360110D01*
X102672635Y-97349558D01*
X102737403Y-97378638D01*
X102776167Y-97438118D01*
X102781500Y-97474387D01*
X102781500Y-99336233D01*
X102780973Y-99347416D01*
X102779298Y-99354909D01*
X102779547Y-99362835D01*
X102779547Y-99362836D01*
X102781438Y-99422986D01*
X102781500Y-99426945D01*
X102781500Y-99454856D01*
X102781997Y-99458790D01*
X102781997Y-99458791D01*
X102782005Y-99458856D01*
X102782938Y-99470693D01*
X102784327Y-99514889D01*
X102789978Y-99534339D01*
X102793987Y-99553700D01*
X102796526Y-99573797D01*
X102799445Y-99581168D01*
X102799445Y-99581170D01*
X102812804Y-99614912D01*
X102816649Y-99626142D01*
X102826771Y-99660983D01*
X102828982Y-99668593D01*
X102833015Y-99675412D01*
X102833017Y-99675417D01*
X102839293Y-99686028D01*
X102847988Y-99703776D01*
X102855448Y-99722617D01*
X102860110Y-99729033D01*
X102860110Y-99729034D01*
X102881436Y-99758387D01*
X102887952Y-99768307D01*
X102904452Y-99796206D01*
X102910458Y-99806362D01*
X102924779Y-99820683D01*
X102937619Y-99835716D01*
X102949528Y-99852107D01*
X102955637Y-99857161D01*
X102957350Y-99858985D01*
X102989401Y-99922335D01*
X102991500Y-99945238D01*
X102991500Y-100548134D01*
X102998255Y-100610316D01*
X103049385Y-100746705D01*
X103136739Y-100863261D01*
X103253295Y-100950615D01*
X103389684Y-101001745D01*
X103451866Y-101008500D01*
X104548134Y-101008500D01*
X104610316Y-101001745D01*
X104614971Y-101000000D01*
X112086496Y-101000000D01*
X112106458Y-101189928D01*
X112165473Y-101371556D01*
X112168776Y-101377278D01*
X112168777Y-101377279D01*
X112202686Y-101436010D01*
X112260960Y-101536944D01*
X112388747Y-101678866D01*
X112543248Y-101791118D01*
X112549276Y-101793802D01*
X112549278Y-101793803D01*
X112645490Y-101836639D01*
X112717712Y-101868794D01*
X112811112Y-101888647D01*
X112898056Y-101907128D01*
X112898061Y-101907128D01*
X112904513Y-101908500D01*
X113095487Y-101908500D01*
X113101939Y-101907128D01*
X113101944Y-101907128D01*
X113188888Y-101888647D01*
X113282288Y-101868794D01*
X113354510Y-101836639D01*
X113450722Y-101793803D01*
X113450724Y-101793802D01*
X113456752Y-101791118D01*
X113611253Y-101678866D01*
X113615668Y-101673963D01*
X113620580Y-101669540D01*
X113621705Y-101670789D01*
X113675014Y-101637949D01*
X113708200Y-101633500D01*
X113792775Y-101633500D01*
X113860896Y-101653502D01*
X113900551Y-101694229D01*
X113913361Y-101715381D01*
X114034619Y-101836639D01*
X114181301Y-101925472D01*
X114188548Y-101927743D01*
X114188550Y-101927744D01*
X114254836Y-101948517D01*
X114344938Y-101976753D01*
X114418365Y-101983500D01*
X114421263Y-101983500D01*
X114675665Y-101983499D01*
X114931634Y-101983499D01*
X114934492Y-101983236D01*
X114934501Y-101983236D01*
X114970004Y-101979974D01*
X115005062Y-101976753D01*
X115011447Y-101974752D01*
X115161450Y-101927744D01*
X115161452Y-101927743D01*
X115168699Y-101925472D01*
X115315381Y-101836639D01*
X115410905Y-101741115D01*
X115473217Y-101707089D01*
X115544032Y-101712154D01*
X115589095Y-101741115D01*
X115684619Y-101836639D01*
X115831301Y-101925472D01*
X115838548Y-101927743D01*
X115838550Y-101927744D01*
X115904836Y-101948517D01*
X115994938Y-101976753D01*
X116068365Y-101983500D01*
X116071263Y-101983500D01*
X116325665Y-101983499D01*
X116581634Y-101983499D01*
X116584492Y-101983236D01*
X116584501Y-101983236D01*
X116620004Y-101979974D01*
X116655062Y-101976753D01*
X116661447Y-101974752D01*
X116811450Y-101927744D01*
X116811452Y-101927743D01*
X116818699Y-101925472D01*
X116965381Y-101836639D01*
X117086639Y-101715381D01*
X117175472Y-101568699D01*
X117183886Y-101541852D01*
X117224752Y-101411446D01*
X117226753Y-101405062D01*
X117233500Y-101331635D01*
X117233500Y-101000000D01*
X117233499Y-100671249D01*
X117233499Y-100668366D01*
X117226753Y-100594938D01*
X117213150Y-100551531D01*
X117177744Y-100438550D01*
X117177743Y-100438548D01*
X117175472Y-100431301D01*
X117086639Y-100284619D01*
X117070775Y-100268755D01*
X117036749Y-100206443D01*
X117041814Y-100135628D01*
X117050751Y-100116660D01*
X117131223Y-99977279D01*
X117131224Y-99977278D01*
X117134527Y-99971556D01*
X117193542Y-99789928D01*
X117195815Y-99768307D01*
X117212814Y-99606565D01*
X117213504Y-99600000D01*
X117198797Y-99460072D01*
X117194232Y-99416635D01*
X117194232Y-99416633D01*
X117193542Y-99410072D01*
X117134527Y-99228444D01*
X117039040Y-99063056D01*
X116990209Y-99008823D01*
X116915675Y-98926045D01*
X116915674Y-98926044D01*
X116911253Y-98921134D01*
X116803437Y-98842801D01*
X116762094Y-98812763D01*
X116762093Y-98812762D01*
X116756752Y-98808882D01*
X116750724Y-98806198D01*
X116750722Y-98806197D01*
X116588319Y-98733891D01*
X116588318Y-98733891D01*
X116582288Y-98731206D01*
X116488888Y-98711353D01*
X116401944Y-98692872D01*
X116401939Y-98692872D01*
X116395487Y-98691500D01*
X116204513Y-98691500D01*
X116198061Y-98692872D01*
X116198056Y-98692872D01*
X116111113Y-98711353D01*
X116017712Y-98731206D01*
X116011682Y-98733891D01*
X116011681Y-98733891D01*
X115849278Y-98806197D01*
X115849276Y-98806198D01*
X115843248Y-98808882D01*
X115837907Y-98812762D01*
X115837906Y-98812763D01*
X115796563Y-98842801D01*
X115688747Y-98921134D01*
X115684326Y-98926044D01*
X115684325Y-98926045D01*
X115609792Y-99008823D01*
X115560960Y-99063056D01*
X115465473Y-99228444D01*
X115406458Y-99410072D01*
X115405768Y-99416633D01*
X115405768Y-99416635D01*
X115401203Y-99460072D01*
X115386496Y-99600000D01*
X115387186Y-99606565D01*
X115404186Y-99768307D01*
X115406458Y-99789928D01*
X115465473Y-99971556D01*
X115471078Y-99981265D01*
X115487816Y-100050259D01*
X115464596Y-100117351D01*
X115408789Y-100161238D01*
X115338114Y-100167987D01*
X115296688Y-100152040D01*
X115175197Y-100078463D01*
X115175195Y-100078462D01*
X115168699Y-100074528D01*
X115161452Y-100072257D01*
X115161450Y-100072256D01*
X115091257Y-100050259D01*
X115005062Y-100023247D01*
X114931635Y-100016500D01*
X114928737Y-100016500D01*
X114674335Y-100016501D01*
X114418366Y-100016501D01*
X114415508Y-100016764D01*
X114415499Y-100016764D01*
X114382947Y-100019755D01*
X114344938Y-100023247D01*
X114338560Y-100025246D01*
X114338559Y-100025246D01*
X114188550Y-100072256D01*
X114188548Y-100072257D01*
X114181301Y-100074528D01*
X114034619Y-100163361D01*
X113913361Y-100284619D01*
X113909424Y-100291120D01*
X113900551Y-100305771D01*
X113848154Y-100353678D01*
X113792775Y-100366500D01*
X113708200Y-100366500D01*
X113640079Y-100346498D01*
X113620853Y-100330157D01*
X113620580Y-100330460D01*
X113615668Y-100326037D01*
X113611253Y-100321134D01*
X113456752Y-100208882D01*
X113450724Y-100206198D01*
X113450722Y-100206197D01*
X113288319Y-100133891D01*
X113288318Y-100133891D01*
X113282288Y-100131206D01*
X113188887Y-100111353D01*
X113101944Y-100092872D01*
X113101939Y-100092872D01*
X113095487Y-100091500D01*
X112904513Y-100091500D01*
X112898061Y-100092872D01*
X112898056Y-100092872D01*
X112811113Y-100111353D01*
X112717712Y-100131206D01*
X112711682Y-100133891D01*
X112711681Y-100133891D01*
X112549278Y-100206197D01*
X112549276Y-100206198D01*
X112543248Y-100208882D01*
X112388747Y-100321134D01*
X112260960Y-100463056D01*
X112165473Y-100628444D01*
X112106458Y-100810072D01*
X112105768Y-100816633D01*
X112105768Y-100816635D01*
X112091355Y-100953767D01*
X112086496Y-101000000D01*
X104614971Y-101000000D01*
X104746705Y-100950615D01*
X104863261Y-100863261D01*
X104950615Y-100746705D01*
X105001745Y-100610316D01*
X105008500Y-100548134D01*
X105008500Y-99451866D01*
X105001745Y-99389684D01*
X104950615Y-99253295D01*
X104863261Y-99136739D01*
X104746705Y-99049385D01*
X104610316Y-98998255D01*
X104548134Y-98991500D01*
X104174500Y-98991500D01*
X104106379Y-98971498D01*
X104059886Y-98917842D01*
X104048500Y-98865500D01*
X104048500Y-96857288D01*
X104068502Y-96789167D01*
X104122158Y-96742674D01*
X104192432Y-96732570D01*
X104257012Y-96762064D01*
X104282219Y-96791923D01*
X104298104Y-96818100D01*
X104451985Y-96995432D01*
X104456117Y-96998820D01*
X104629416Y-97140917D01*
X104629422Y-97140921D01*
X104633544Y-97144301D01*
X104638180Y-97146940D01*
X104638183Y-97146942D01*
X104749408Y-97210255D01*
X104837590Y-97260451D01*
X105058289Y-97340561D01*
X105063538Y-97341510D01*
X105063541Y-97341511D01*
X105110382Y-97349981D01*
X105289330Y-97382340D01*
X105293469Y-97382535D01*
X105293476Y-97382536D01*
X105312440Y-97383430D01*
X105312449Y-97383430D01*
X105313929Y-97383500D01*
X105478950Y-97383500D01*
X105560299Y-97376597D01*
X105648637Y-97369102D01*
X105648641Y-97369101D01*
X105653948Y-97368651D01*
X105659103Y-97367313D01*
X105659109Y-97367312D01*
X105876035Y-97311009D01*
X105876034Y-97311009D01*
X105881206Y-97309667D01*
X105886072Y-97307475D01*
X105886075Y-97307474D01*
X106090417Y-97215424D01*
X106090420Y-97215423D01*
X106095278Y-97213234D01*
X106290041Y-97082112D01*
X106306402Y-97066505D01*
X106409290Y-96968354D01*
X106459927Y-96920049D01*
X106600078Y-96731679D01*
X106660719Y-96612408D01*
X106704069Y-96527144D01*
X106704069Y-96527143D01*
X106706487Y-96522388D01*
X106776111Y-96298160D01*
X106793202Y-96169216D01*
X106806261Y-96070690D01*
X106806261Y-96070687D01*
X106806961Y-96065407D01*
X106798152Y-95830784D01*
X106757555Y-95637301D01*
X106763142Y-95566525D01*
X106806107Y-95510004D01*
X106872081Y-95485734D01*
X106969315Y-95478935D01*
X106969320Y-95478934D01*
X106973700Y-95478628D01*
X107251877Y-95419499D01*
X107256006Y-95417996D01*
X107256010Y-95417995D01*
X107514974Y-95323740D01*
X107514978Y-95323738D01*
X107519119Y-95322231D01*
X107523009Y-95320163D01*
X107523015Y-95320160D01*
X107766330Y-95190787D01*
X107766336Y-95190783D01*
X107770222Y-95188717D01*
X107773788Y-95186126D01*
X107773793Y-95186123D01*
X107915741Y-95082993D01*
X107982608Y-95059134D01*
X108051760Y-95075215D01*
X108101240Y-95126129D01*
X108115339Y-95195712D01*
X108109949Y-95222307D01*
X108109557Y-95223298D01*
X108031060Y-95529025D01*
X107991500Y-95842179D01*
X107991500Y-96157821D01*
X108031060Y-96470975D01*
X108109557Y-96776702D01*
X108111010Y-96780371D01*
X108111010Y-96780372D01*
X108196159Y-96995432D01*
X108225753Y-97070179D01*
X108227659Y-97073647D01*
X108227660Y-97073648D01*
X108374398Y-97340561D01*
X108377816Y-97346779D01*
X108563346Y-97602140D01*
X108779418Y-97832233D01*
X109022625Y-98033432D01*
X109289131Y-98202562D01*
X109292710Y-98204246D01*
X109292717Y-98204250D01*
X109571144Y-98335267D01*
X109571148Y-98335269D01*
X109574734Y-98336956D01*
X109874928Y-98434495D01*
X110184980Y-98493641D01*
X110421162Y-98508500D01*
X110578838Y-98508500D01*
X110815020Y-98493641D01*
X111125072Y-98434495D01*
X111425266Y-98336956D01*
X111428852Y-98335269D01*
X111428856Y-98335267D01*
X111707283Y-98204250D01*
X111707290Y-98204246D01*
X111710869Y-98202562D01*
X111977375Y-98033432D01*
X112220582Y-97832233D01*
X112436654Y-97602140D01*
X112622184Y-97346779D01*
X112625603Y-97340561D01*
X112772340Y-97073648D01*
X112772341Y-97073647D01*
X112774247Y-97070179D01*
X112803842Y-96995432D01*
X112888990Y-96780372D01*
X112888990Y-96780371D01*
X112890443Y-96776702D01*
X112968940Y-96470975D01*
X113008500Y-96157821D01*
X113008500Y-95934593D01*
X114193039Y-95934593D01*
X114201848Y-96169216D01*
X114202943Y-96174434D01*
X114227794Y-96292871D01*
X114250062Y-96399001D01*
X114336302Y-96617377D01*
X114458104Y-96818100D01*
X114611985Y-96995432D01*
X114616117Y-96998820D01*
X114789416Y-97140917D01*
X114789422Y-97140921D01*
X114793544Y-97144301D01*
X114798180Y-97146940D01*
X114798183Y-97146942D01*
X114909408Y-97210255D01*
X114997590Y-97260451D01*
X115218289Y-97340561D01*
X115223538Y-97341510D01*
X115223541Y-97341511D01*
X115270382Y-97349981D01*
X115449330Y-97382340D01*
X115453469Y-97382535D01*
X115453476Y-97382536D01*
X115472440Y-97383430D01*
X115472449Y-97383430D01*
X115473929Y-97383500D01*
X115638950Y-97383500D01*
X115720299Y-97376597D01*
X115808637Y-97369102D01*
X115808641Y-97369101D01*
X115813948Y-97368651D01*
X115819103Y-97367313D01*
X115819109Y-97367312D01*
X116036035Y-97311009D01*
X116036034Y-97311009D01*
X116041206Y-97309667D01*
X116046072Y-97307475D01*
X116046075Y-97307474D01*
X116250417Y-97215424D01*
X116250420Y-97215423D01*
X116255278Y-97213234D01*
X116450041Y-97082112D01*
X116466402Y-97066505D01*
X116569290Y-96968354D01*
X116619927Y-96920049D01*
X116760078Y-96731679D01*
X116820719Y-96612408D01*
X116864069Y-96527144D01*
X116864069Y-96527143D01*
X116866487Y-96522388D01*
X116936111Y-96298160D01*
X116953202Y-96169216D01*
X116966261Y-96070690D01*
X116966261Y-96070687D01*
X116966961Y-96065407D01*
X116958152Y-95830784D01*
X116940358Y-95745978D01*
X116911035Y-95606226D01*
X116911034Y-95606223D01*
X116909938Y-95600999D01*
X116823698Y-95382623D01*
X116724790Y-95219628D01*
X116704664Y-95186461D01*
X116704662Y-95186458D01*
X116701896Y-95181900D01*
X116548015Y-95004568D01*
X116537938Y-94996306D01*
X116370584Y-94859083D01*
X116370578Y-94859079D01*
X116366456Y-94855699D01*
X116361820Y-94853060D01*
X116361817Y-94853058D01*
X116167053Y-94742192D01*
X116162410Y-94739549D01*
X115941711Y-94659439D01*
X115936462Y-94658490D01*
X115936459Y-94658489D01*
X115855385Y-94643829D01*
X115710670Y-94617660D01*
X115706531Y-94617465D01*
X115706524Y-94617464D01*
X115687560Y-94616570D01*
X115687551Y-94616570D01*
X115686071Y-94616500D01*
X115521050Y-94616500D01*
X115447935Y-94622704D01*
X115351363Y-94630898D01*
X115351359Y-94630899D01*
X115346052Y-94631349D01*
X115340897Y-94632687D01*
X115340891Y-94632688D01*
X115163177Y-94678814D01*
X115118794Y-94690333D01*
X115113928Y-94692525D01*
X115113925Y-94692526D01*
X114909583Y-94784576D01*
X114909580Y-94784577D01*
X114904722Y-94786766D01*
X114709959Y-94917888D01*
X114706102Y-94921567D01*
X114706100Y-94921569D01*
X114692704Y-94934348D01*
X114540073Y-95079951D01*
X114399922Y-95268321D01*
X114397506Y-95273072D01*
X114397504Y-95273076D01*
X114323824Y-95417995D01*
X114293513Y-95477612D01*
X114223889Y-95701840D01*
X114223188Y-95707129D01*
X114206092Y-95836116D01*
X114193039Y-95934593D01*
X113008500Y-95934593D01*
X113008500Y-95842179D01*
X112968940Y-95529025D01*
X112890443Y-95223298D01*
X112888543Y-95218500D01*
X112775702Y-94933495D01*
X112775700Y-94933490D01*
X112774247Y-94929821D01*
X112772340Y-94926352D01*
X112624093Y-94656693D01*
X112624091Y-94656690D01*
X112622184Y-94653221D01*
X112518419Y-94510400D01*
X120631500Y-94510400D01*
X120631837Y-94513646D01*
X120631837Y-94513650D01*
X120640786Y-94599896D01*
X120642474Y-94616166D01*
X120644655Y-94622702D01*
X120644655Y-94622704D01*
X120666770Y-94688991D01*
X120698450Y-94783946D01*
X120791522Y-94934348D01*
X120916697Y-95059305D01*
X120922927Y-95063145D01*
X120922928Y-95063146D01*
X120942508Y-95075215D01*
X121067262Y-95152115D01*
X121144899Y-95177866D01*
X121228611Y-95205632D01*
X121228613Y-95205632D01*
X121235139Y-95207797D01*
X121241975Y-95208497D01*
X121241978Y-95208498D01*
X121285031Y-95212909D01*
X121339600Y-95218500D01*
X121655500Y-95218500D01*
X121723621Y-95238502D01*
X121770114Y-95292158D01*
X121781500Y-95344500D01*
X121781500Y-99336233D01*
X121780973Y-99347416D01*
X121779298Y-99354909D01*
X121779547Y-99362835D01*
X121779547Y-99362836D01*
X121781438Y-99422986D01*
X121781500Y-99426945D01*
X121781500Y-99454856D01*
X121781997Y-99458790D01*
X121781997Y-99458791D01*
X121782005Y-99458856D01*
X121782938Y-99470693D01*
X121784327Y-99514889D01*
X121789978Y-99534339D01*
X121793987Y-99553700D01*
X121796526Y-99573797D01*
X121799445Y-99581168D01*
X121799445Y-99581170D01*
X121812804Y-99614912D01*
X121816649Y-99626142D01*
X121826771Y-99660983D01*
X121828982Y-99668593D01*
X121833015Y-99675412D01*
X121833017Y-99675417D01*
X121839293Y-99686028D01*
X121847988Y-99703776D01*
X121855448Y-99722617D01*
X121860110Y-99729033D01*
X121860110Y-99729034D01*
X121881436Y-99758387D01*
X121887952Y-99768307D01*
X121904452Y-99796206D01*
X121910458Y-99806362D01*
X121924779Y-99820683D01*
X121937619Y-99835716D01*
X121949528Y-99852107D01*
X121955637Y-99857161D01*
X121957350Y-99858985D01*
X121989401Y-99922335D01*
X121991500Y-99945238D01*
X121991500Y-100548134D01*
X121998255Y-100610316D01*
X122049385Y-100746705D01*
X122136739Y-100863261D01*
X122253295Y-100950615D01*
X122389684Y-101001745D01*
X122451866Y-101008500D01*
X123548134Y-101008500D01*
X123610316Y-101001745D01*
X123614971Y-101000000D01*
X131086496Y-101000000D01*
X131106458Y-101189928D01*
X131165473Y-101371556D01*
X131168776Y-101377278D01*
X131168777Y-101377279D01*
X131202686Y-101436010D01*
X131260960Y-101536944D01*
X131388747Y-101678866D01*
X131543248Y-101791118D01*
X131549276Y-101793802D01*
X131549278Y-101793803D01*
X131645490Y-101836639D01*
X131717712Y-101868794D01*
X131811112Y-101888647D01*
X131898056Y-101907128D01*
X131898061Y-101907128D01*
X131904513Y-101908500D01*
X132095487Y-101908500D01*
X132101939Y-101907128D01*
X132101944Y-101907128D01*
X132188888Y-101888647D01*
X132282288Y-101868794D01*
X132354510Y-101836639D01*
X132450722Y-101793803D01*
X132450724Y-101793802D01*
X132456752Y-101791118D01*
X132611253Y-101678866D01*
X132615668Y-101673963D01*
X132620580Y-101669540D01*
X132621705Y-101670789D01*
X132675014Y-101637949D01*
X132708200Y-101633500D01*
X132792775Y-101633500D01*
X132860896Y-101653502D01*
X132900551Y-101694229D01*
X132913361Y-101715381D01*
X133034619Y-101836639D01*
X133181301Y-101925472D01*
X133188548Y-101927743D01*
X133188550Y-101927744D01*
X133254836Y-101948517D01*
X133344938Y-101976753D01*
X133418365Y-101983500D01*
X133421263Y-101983500D01*
X133675665Y-101983499D01*
X133931634Y-101983499D01*
X133934492Y-101983236D01*
X133934501Y-101983236D01*
X133970004Y-101979974D01*
X134005062Y-101976753D01*
X134011447Y-101974752D01*
X134161450Y-101927744D01*
X134161452Y-101927743D01*
X134168699Y-101925472D01*
X134315381Y-101836639D01*
X134410905Y-101741115D01*
X134473217Y-101707089D01*
X134544032Y-101712154D01*
X134589095Y-101741115D01*
X134684619Y-101836639D01*
X134831301Y-101925472D01*
X134838548Y-101927743D01*
X134838550Y-101927744D01*
X134904836Y-101948517D01*
X134994938Y-101976753D01*
X135068365Y-101983500D01*
X135071263Y-101983500D01*
X135325665Y-101983499D01*
X135581634Y-101983499D01*
X135584492Y-101983236D01*
X135584501Y-101983236D01*
X135620004Y-101979974D01*
X135655062Y-101976753D01*
X135661447Y-101974752D01*
X135811450Y-101927744D01*
X135811452Y-101927743D01*
X135818699Y-101925472D01*
X135965381Y-101836639D01*
X136086639Y-101715381D01*
X136175472Y-101568699D01*
X136183886Y-101541852D01*
X136224752Y-101411446D01*
X136226753Y-101405062D01*
X136233500Y-101331635D01*
X136233500Y-101000000D01*
X136233499Y-100671249D01*
X136233499Y-100668366D01*
X136226753Y-100594938D01*
X136213150Y-100551531D01*
X136177744Y-100438550D01*
X136177743Y-100438548D01*
X136175472Y-100431301D01*
X136136228Y-100366500D01*
X136097599Y-100302716D01*
X136079420Y-100234086D01*
X136096256Y-100174445D01*
X136098729Y-100170163D01*
X136184527Y-100021556D01*
X136243542Y-99839928D01*
X136247788Y-99799535D01*
X136262814Y-99656565D01*
X136263504Y-99650000D01*
X136253383Y-99553700D01*
X136244232Y-99466635D01*
X136244232Y-99466633D01*
X136243542Y-99460072D01*
X136184527Y-99278444D01*
X136173809Y-99259879D01*
X136102713Y-99136739D01*
X136089040Y-99113056D01*
X136049169Y-99068774D01*
X135965675Y-98976045D01*
X135965674Y-98976044D01*
X135961253Y-98971134D01*
X135862157Y-98899136D01*
X135812094Y-98862763D01*
X135812093Y-98862762D01*
X135806752Y-98858882D01*
X135800724Y-98856198D01*
X135800722Y-98856197D01*
X135638319Y-98783891D01*
X135638318Y-98783891D01*
X135632288Y-98781206D01*
X135538888Y-98761353D01*
X135451944Y-98742872D01*
X135451939Y-98742872D01*
X135445487Y-98741500D01*
X135254513Y-98741500D01*
X135248061Y-98742872D01*
X135248056Y-98742872D01*
X135161113Y-98761353D01*
X135067712Y-98781206D01*
X135061682Y-98783891D01*
X135061681Y-98783891D01*
X134899278Y-98856197D01*
X134899276Y-98856198D01*
X134893248Y-98858882D01*
X134887907Y-98862762D01*
X134887906Y-98862763D01*
X134837843Y-98899136D01*
X134738747Y-98971134D01*
X134734326Y-98976044D01*
X134734325Y-98976045D01*
X134650832Y-99068774D01*
X134610960Y-99113056D01*
X134597287Y-99136739D01*
X134526192Y-99259879D01*
X134515473Y-99278444D01*
X134456458Y-99460072D01*
X134455768Y-99466633D01*
X134455768Y-99466635D01*
X134446617Y-99553700D01*
X134436496Y-99650000D01*
X134437186Y-99656565D01*
X134452213Y-99799535D01*
X134456458Y-99839928D01*
X134458498Y-99846206D01*
X134513429Y-100015267D01*
X134513431Y-100015271D01*
X134515473Y-100021556D01*
X134515729Y-100021999D01*
X134524865Y-100090122D01*
X134494761Y-100154420D01*
X134434674Y-100192236D01*
X134363680Y-100191563D01*
X134322577Y-100170163D01*
X134320752Y-100168732D01*
X134315381Y-100163361D01*
X134308886Y-100159427D01*
X134308884Y-100159426D01*
X134238268Y-100116660D01*
X134168699Y-100074528D01*
X134161452Y-100072257D01*
X134161450Y-100072256D01*
X134091257Y-100050259D01*
X134005062Y-100023247D01*
X133931635Y-100016500D01*
X133928737Y-100016500D01*
X133674335Y-100016501D01*
X133418366Y-100016501D01*
X133415508Y-100016764D01*
X133415499Y-100016764D01*
X133382947Y-100019755D01*
X133344938Y-100023247D01*
X133338560Y-100025246D01*
X133338559Y-100025246D01*
X133188550Y-100072256D01*
X133188548Y-100072257D01*
X133181301Y-100074528D01*
X133034619Y-100163361D01*
X132913361Y-100284619D01*
X132909424Y-100291120D01*
X132900551Y-100305771D01*
X132848154Y-100353678D01*
X132792775Y-100366500D01*
X132708200Y-100366500D01*
X132640079Y-100346498D01*
X132620853Y-100330157D01*
X132620580Y-100330460D01*
X132615668Y-100326037D01*
X132611253Y-100321134D01*
X132456752Y-100208882D01*
X132450724Y-100206198D01*
X132450722Y-100206197D01*
X132288319Y-100133891D01*
X132288318Y-100133891D01*
X132282288Y-100131206D01*
X132188887Y-100111353D01*
X132101944Y-100092872D01*
X132101939Y-100092872D01*
X132095487Y-100091500D01*
X131904513Y-100091500D01*
X131898061Y-100092872D01*
X131898056Y-100092872D01*
X131811113Y-100111353D01*
X131717712Y-100131206D01*
X131711682Y-100133891D01*
X131711681Y-100133891D01*
X131549278Y-100206197D01*
X131549276Y-100206198D01*
X131543248Y-100208882D01*
X131388747Y-100321134D01*
X131260960Y-100463056D01*
X131165473Y-100628444D01*
X131106458Y-100810072D01*
X131105768Y-100816633D01*
X131105768Y-100816635D01*
X131091355Y-100953767D01*
X131086496Y-101000000D01*
X123614971Y-101000000D01*
X123746705Y-100950615D01*
X123863261Y-100863261D01*
X123950615Y-100746705D01*
X124001745Y-100610316D01*
X124008500Y-100548134D01*
X124008500Y-99451866D01*
X124001745Y-99389684D01*
X123950615Y-99253295D01*
X123863261Y-99136739D01*
X123746705Y-99049385D01*
X123610316Y-98998255D01*
X123548134Y-98991500D01*
X123174500Y-98991500D01*
X123106379Y-98971498D01*
X123059886Y-98917842D01*
X123048500Y-98865500D01*
X123048500Y-96857288D01*
X123068502Y-96789167D01*
X123122158Y-96742674D01*
X123192432Y-96732570D01*
X123257012Y-96762064D01*
X123282219Y-96791923D01*
X123298104Y-96818100D01*
X123451985Y-96995432D01*
X123456117Y-96998820D01*
X123629416Y-97140917D01*
X123629422Y-97140921D01*
X123633544Y-97144301D01*
X123638180Y-97146940D01*
X123638183Y-97146942D01*
X123749408Y-97210255D01*
X123837590Y-97260451D01*
X124058289Y-97340561D01*
X124063538Y-97341510D01*
X124063541Y-97341511D01*
X124110382Y-97349981D01*
X124289330Y-97382340D01*
X124293469Y-97382535D01*
X124293476Y-97382536D01*
X124312440Y-97383430D01*
X124312449Y-97383430D01*
X124313929Y-97383500D01*
X124478950Y-97383500D01*
X124560299Y-97376597D01*
X124648637Y-97369102D01*
X124648641Y-97369101D01*
X124653948Y-97368651D01*
X124659103Y-97367313D01*
X124659109Y-97367312D01*
X124876035Y-97311009D01*
X124876034Y-97311009D01*
X124881206Y-97309667D01*
X124886072Y-97307475D01*
X124886075Y-97307474D01*
X125090417Y-97215424D01*
X125090420Y-97215423D01*
X125095278Y-97213234D01*
X125290041Y-97082112D01*
X125306402Y-97066505D01*
X125409290Y-96968354D01*
X125459927Y-96920049D01*
X125600078Y-96731679D01*
X125660719Y-96612408D01*
X125704069Y-96527144D01*
X125704069Y-96527143D01*
X125706487Y-96522388D01*
X125776111Y-96298160D01*
X125793202Y-96169216D01*
X125806261Y-96070690D01*
X125806261Y-96070687D01*
X125806961Y-96065407D01*
X125798152Y-95830784D01*
X125757555Y-95637301D01*
X125763142Y-95566525D01*
X125806107Y-95510004D01*
X125872081Y-95485734D01*
X125969315Y-95478935D01*
X125969320Y-95478934D01*
X125973700Y-95478628D01*
X126251877Y-95419499D01*
X126256006Y-95417996D01*
X126256010Y-95417995D01*
X126514974Y-95323740D01*
X126514978Y-95323738D01*
X126519119Y-95322231D01*
X126523009Y-95320163D01*
X126523015Y-95320160D01*
X126766330Y-95190787D01*
X126766336Y-95190783D01*
X126770222Y-95188717D01*
X126773788Y-95186126D01*
X126773793Y-95186123D01*
X126915741Y-95082993D01*
X126982608Y-95059134D01*
X127051760Y-95075215D01*
X127101240Y-95126129D01*
X127115339Y-95195712D01*
X127109949Y-95222307D01*
X127109557Y-95223298D01*
X127031060Y-95529025D01*
X126991500Y-95842179D01*
X126991500Y-96157821D01*
X127031060Y-96470975D01*
X127109557Y-96776702D01*
X127111010Y-96780371D01*
X127111010Y-96780372D01*
X127196159Y-96995432D01*
X127225753Y-97070179D01*
X127227659Y-97073647D01*
X127227660Y-97073648D01*
X127374398Y-97340561D01*
X127377816Y-97346779D01*
X127563346Y-97602140D01*
X127779418Y-97832233D01*
X128022625Y-98033432D01*
X128289131Y-98202562D01*
X128292710Y-98204246D01*
X128292717Y-98204250D01*
X128571144Y-98335267D01*
X128571148Y-98335269D01*
X128574734Y-98336956D01*
X128874928Y-98434495D01*
X129184980Y-98493641D01*
X129421162Y-98508500D01*
X129578838Y-98508500D01*
X129815020Y-98493641D01*
X130125072Y-98434495D01*
X130425266Y-98336956D01*
X130428852Y-98335269D01*
X130428856Y-98335267D01*
X130707283Y-98204250D01*
X130707290Y-98204246D01*
X130710869Y-98202562D01*
X130977375Y-98033432D01*
X131220582Y-97832233D01*
X131436654Y-97602140D01*
X131622184Y-97346779D01*
X131625603Y-97340561D01*
X131772340Y-97073648D01*
X131772341Y-97073647D01*
X131774247Y-97070179D01*
X131803842Y-96995432D01*
X131888990Y-96780372D01*
X131888990Y-96780371D01*
X131890443Y-96776702D01*
X131968940Y-96470975D01*
X132008500Y-96157821D01*
X132008500Y-95934593D01*
X133193039Y-95934593D01*
X133201848Y-96169216D01*
X133202943Y-96174434D01*
X133227794Y-96292871D01*
X133250062Y-96399001D01*
X133336302Y-96617377D01*
X133458104Y-96818100D01*
X133611985Y-96995432D01*
X133616117Y-96998820D01*
X133789416Y-97140917D01*
X133789422Y-97140921D01*
X133793544Y-97144301D01*
X133798180Y-97146940D01*
X133798183Y-97146942D01*
X133909408Y-97210255D01*
X133997590Y-97260451D01*
X134218289Y-97340561D01*
X134223538Y-97341510D01*
X134223541Y-97341511D01*
X134270382Y-97349981D01*
X134449330Y-97382340D01*
X134453469Y-97382535D01*
X134453476Y-97382536D01*
X134472440Y-97383430D01*
X134472449Y-97383430D01*
X134473929Y-97383500D01*
X134638950Y-97383500D01*
X134720299Y-97376597D01*
X134808637Y-97369102D01*
X134808641Y-97369101D01*
X134813948Y-97368651D01*
X134819103Y-97367313D01*
X134819109Y-97367312D01*
X135036035Y-97311009D01*
X135036034Y-97311009D01*
X135041206Y-97309667D01*
X135046072Y-97307475D01*
X135046075Y-97307474D01*
X135250417Y-97215424D01*
X135250420Y-97215423D01*
X135255278Y-97213234D01*
X135450041Y-97082112D01*
X135466402Y-97066505D01*
X135569290Y-96968354D01*
X135619927Y-96920049D01*
X135760078Y-96731679D01*
X135820719Y-96612408D01*
X135864069Y-96527144D01*
X135864069Y-96527143D01*
X135866487Y-96522388D01*
X135936111Y-96298160D01*
X135953202Y-96169216D01*
X135966261Y-96070690D01*
X135966261Y-96070687D01*
X135966961Y-96065407D01*
X135958152Y-95830784D01*
X135940358Y-95745978D01*
X135911035Y-95606226D01*
X135911034Y-95606223D01*
X135909938Y-95600999D01*
X135823698Y-95382623D01*
X135724790Y-95219628D01*
X135704664Y-95186461D01*
X135704662Y-95186458D01*
X135701896Y-95181900D01*
X135548015Y-95004568D01*
X135537938Y-94996306D01*
X135370584Y-94859083D01*
X135370578Y-94859079D01*
X135366456Y-94855699D01*
X135361820Y-94853060D01*
X135361817Y-94853058D01*
X135167053Y-94742192D01*
X135162410Y-94739549D01*
X134941711Y-94659439D01*
X134936462Y-94658490D01*
X134936459Y-94658489D01*
X134855385Y-94643829D01*
X134710670Y-94617660D01*
X134706531Y-94617465D01*
X134706524Y-94617464D01*
X134687560Y-94616570D01*
X134687551Y-94616570D01*
X134686071Y-94616500D01*
X134521050Y-94616500D01*
X134447935Y-94622704D01*
X134351363Y-94630898D01*
X134351359Y-94630899D01*
X134346052Y-94631349D01*
X134340897Y-94632687D01*
X134340891Y-94632688D01*
X134163177Y-94678814D01*
X134118794Y-94690333D01*
X134113928Y-94692525D01*
X134113925Y-94692526D01*
X133909583Y-94784576D01*
X133909580Y-94784577D01*
X133904722Y-94786766D01*
X133709959Y-94917888D01*
X133706102Y-94921567D01*
X133706100Y-94921569D01*
X133692704Y-94934348D01*
X133540073Y-95079951D01*
X133399922Y-95268321D01*
X133397506Y-95273072D01*
X133397504Y-95273076D01*
X133323824Y-95417995D01*
X133293513Y-95477612D01*
X133223889Y-95701840D01*
X133223188Y-95707129D01*
X133206092Y-95836116D01*
X133193039Y-95934593D01*
X132008500Y-95934593D01*
X132008500Y-95842179D01*
X131968940Y-95529025D01*
X131890443Y-95223298D01*
X131888543Y-95218500D01*
X131775702Y-94933495D01*
X131775700Y-94933490D01*
X131774247Y-94929821D01*
X131772340Y-94926352D01*
X131624093Y-94656693D01*
X131624091Y-94656690D01*
X131622184Y-94653221D01*
X131477174Y-94453631D01*
X131438982Y-94401064D01*
X131438981Y-94401062D01*
X131436654Y-94397860D01*
X131220582Y-94167767D01*
X130977375Y-93966568D01*
X130710869Y-93797438D01*
X130707290Y-93795754D01*
X130707283Y-93795750D01*
X130428856Y-93664733D01*
X130428852Y-93664731D01*
X130425266Y-93663044D01*
X130125072Y-93565505D01*
X129815020Y-93506359D01*
X129578838Y-93491500D01*
X129421162Y-93491500D01*
X129184980Y-93506359D01*
X128874928Y-93565505D01*
X128574734Y-93663044D01*
X128571148Y-93664731D01*
X128571144Y-93664733D01*
X128292717Y-93795750D01*
X128292710Y-93795754D01*
X128289131Y-93797438D01*
X128022625Y-93966568D01*
X128019573Y-93969093D01*
X127860362Y-94100804D01*
X127795124Y-94128814D01*
X127725099Y-94117107D01*
X127672520Y-94069400D01*
X127654079Y-94000841D01*
X127657789Y-93973237D01*
X127696432Y-93818247D01*
X127697497Y-93813976D01*
X127699236Y-93797438D01*
X127726765Y-93535510D01*
X127726765Y-93535507D01*
X127727224Y-93531141D01*
X127726350Y-93506110D01*
X127717453Y-93251319D01*
X127717452Y-93251313D01*
X127717299Y-93246922D01*
X127667915Y-92966850D01*
X127666560Y-92962679D01*
X127666558Y-92962672D01*
X127581394Y-92700566D01*
X127580033Y-92696377D01*
X127571070Y-92677999D01*
X127470257Y-92471305D01*
X127455363Y-92440767D01*
X127452908Y-92437128D01*
X127452905Y-92437122D01*
X127298792Y-92208641D01*
X127296333Y-92204995D01*
X127106037Y-91993650D01*
X126888180Y-91810846D01*
X126647002Y-91660141D01*
X126387196Y-91544469D01*
X126113821Y-91466079D01*
X126109467Y-91465467D01*
X126109462Y-91465466D01*
X125890927Y-91434754D01*
X125832196Y-91426500D01*
X125618982Y-91426500D01*
X125616796Y-91426653D01*
X125616792Y-91426653D01*
X125410685Y-91441065D01*
X125410680Y-91441066D01*
X125406300Y-91441372D01*
X125128123Y-91500501D01*
X125123994Y-91502004D01*
X125123990Y-91502005D01*
X124865026Y-91596260D01*
X124865022Y-91596262D01*
X124860881Y-91597769D01*
X124856991Y-91599837D01*
X124856985Y-91599840D01*
X124613670Y-91729213D01*
X124613664Y-91729217D01*
X124609778Y-91731283D01*
X124606218Y-91733870D01*
X124606214Y-91733872D01*
X124383262Y-91895855D01*
X124379699Y-91898444D01*
X124376535Y-91901500D01*
X124376532Y-91901502D01*
X124244762Y-92028752D01*
X124181866Y-92061684D01*
X124111149Y-92055384D01*
X124055065Y-92011852D01*
X124050091Y-92004419D01*
X124042981Y-91992928D01*
X124038478Y-91985652D01*
X123913303Y-91860695D01*
X123907072Y-91856854D01*
X123768968Y-91771725D01*
X123768966Y-91771724D01*
X123762738Y-91767885D01*
X123682995Y-91741436D01*
X123601389Y-91714368D01*
X123601387Y-91714368D01*
X123594861Y-91712203D01*
X123588025Y-91711503D01*
X123588022Y-91711502D01*
X123540176Y-91706600D01*
X123490400Y-91701500D01*
X123160386Y-91701500D01*
X123092265Y-91681498D01*
X123045772Y-91627842D01*
X123035381Y-91591295D01*
X123033474Y-91576203D01*
X123029156Y-91565296D01*
X123017196Y-91535088D01*
X123013351Y-91523858D01*
X123003229Y-91489017D01*
X123003229Y-91489016D01*
X123001018Y-91481407D01*
X122996985Y-91474588D01*
X122996983Y-91474583D01*
X122990707Y-91463972D01*
X122982012Y-91446224D01*
X122974552Y-91427383D01*
X122961071Y-91408827D01*
X122948564Y-91391613D01*
X122942048Y-91381693D01*
X122923580Y-91350465D01*
X122923578Y-91350462D01*
X122919542Y-91343638D01*
X122905221Y-91329317D01*
X122892380Y-91314283D01*
X122887090Y-91307002D01*
X122880472Y-91297893D01*
X122874367Y-91292842D01*
X122874362Y-91292837D01*
X122846396Y-91269701D01*
X122837618Y-91261713D01*
X122424764Y-90848859D01*
X130002776Y-90848859D01*
X130002929Y-90853247D01*
X130002929Y-90853253D01*
X130012073Y-91115092D01*
X130012701Y-91133078D01*
X130013463Y-91137401D01*
X130013464Y-91137408D01*
X130030502Y-91234034D01*
X130062085Y-91413150D01*
X130063440Y-91417321D01*
X130063442Y-91417328D01*
X130111520Y-91565296D01*
X130149967Y-91683623D01*
X130151895Y-91687576D01*
X130151897Y-91687581D01*
X130191340Y-91768450D01*
X130274637Y-91939233D01*
X130277092Y-91942872D01*
X130277095Y-91942878D01*
X130380378Y-92096000D01*
X130433667Y-92175005D01*
X130623963Y-92386350D01*
X130841820Y-92569154D01*
X131082998Y-92719859D01*
X131342804Y-92835531D01*
X131616179Y-92913921D01*
X131620533Y-92914533D01*
X131620538Y-92914534D01*
X131790770Y-92938458D01*
X131897804Y-92953500D01*
X132111018Y-92953500D01*
X132113204Y-92953347D01*
X132113208Y-92953347D01*
X132319315Y-92938935D01*
X132319320Y-92938934D01*
X132323700Y-92938628D01*
X132601877Y-92879499D01*
X132606006Y-92877996D01*
X132606010Y-92877995D01*
X132864974Y-92783740D01*
X132864978Y-92783738D01*
X132869119Y-92782231D01*
X132873009Y-92780163D01*
X132873015Y-92780160D01*
X133116330Y-92650787D01*
X133116336Y-92650783D01*
X133120222Y-92648717D01*
X133123782Y-92646130D01*
X133123786Y-92646128D01*
X133346738Y-92484145D01*
X133346741Y-92484142D01*
X133350301Y-92481556D01*
X133392539Y-92440767D01*
X133502507Y-92334572D01*
X133565403Y-92301639D01*
X133636120Y-92307939D01*
X133692204Y-92351470D01*
X133697179Y-92358905D01*
X133715068Y-92387813D01*
X133724099Y-92399208D01*
X133838829Y-92513739D01*
X133850240Y-92522751D01*
X133988243Y-92607816D01*
X134001424Y-92613963D01*
X134155710Y-92665138D01*
X134169086Y-92668005D01*
X134263438Y-92677672D01*
X134269854Y-92678000D01*
X135069885Y-92678000D01*
X135085124Y-92673525D01*
X135086329Y-92672135D01*
X135088000Y-92664452D01*
X135088000Y-92659884D01*
X135596000Y-92659884D01*
X135600475Y-92675123D01*
X135601865Y-92676328D01*
X135609548Y-92677999D01*
X136414095Y-92677999D01*
X136420614Y-92677662D01*
X136516206Y-92667743D01*
X136529600Y-92664851D01*
X136683784Y-92613412D01*
X136696962Y-92607239D01*
X136834807Y-92521937D01*
X136846208Y-92512901D01*
X136960739Y-92398171D01*
X136969751Y-92386760D01*
X137054816Y-92248757D01*
X137060963Y-92235576D01*
X137112138Y-92081290D01*
X137115005Y-92067914D01*
X137124672Y-91973562D01*
X137125000Y-91967146D01*
X137125000Y-91192115D01*
X137120525Y-91176876D01*
X137119135Y-91175671D01*
X137111452Y-91174000D01*
X135614115Y-91174000D01*
X135598876Y-91178475D01*
X135597671Y-91179865D01*
X135596000Y-91187548D01*
X135596000Y-92659884D01*
X135088000Y-92659884D01*
X135088000Y-90647885D01*
X135596000Y-90647885D01*
X135600475Y-90663124D01*
X135601865Y-90664329D01*
X135609548Y-90666000D01*
X137106884Y-90666000D01*
X137122123Y-90661525D01*
X137123328Y-90660135D01*
X137124999Y-90652452D01*
X137124999Y-89872905D01*
X137124662Y-89866386D01*
X137114743Y-89770794D01*
X137111851Y-89757400D01*
X137060412Y-89603216D01*
X137054239Y-89590038D01*
X136968937Y-89452193D01*
X136959901Y-89440792D01*
X136845171Y-89326261D01*
X136833760Y-89317249D01*
X136695757Y-89232184D01*
X136682576Y-89226037D01*
X136528290Y-89174862D01*
X136514914Y-89171995D01*
X136420562Y-89162328D01*
X136414145Y-89162000D01*
X135614115Y-89162000D01*
X135598876Y-89166475D01*
X135597671Y-89167865D01*
X135596000Y-89175548D01*
X135596000Y-90647885D01*
X135088000Y-90647885D01*
X135088000Y-89180116D01*
X135083525Y-89164877D01*
X135082135Y-89163672D01*
X135074452Y-89162001D01*
X134269905Y-89162001D01*
X134263386Y-89162338D01*
X134167794Y-89172257D01*
X134154400Y-89175149D01*
X134000216Y-89226588D01*
X133987038Y-89232761D01*
X133849193Y-89318063D01*
X133837792Y-89327099D01*
X133723261Y-89441829D01*
X133714247Y-89453243D01*
X133697463Y-89480471D01*
X133644691Y-89527964D01*
X133574619Y-89539386D01*
X133509496Y-89511112D01*
X133496573Y-89498670D01*
X133456037Y-89453650D01*
X133238180Y-89270846D01*
X132997002Y-89120141D01*
X132737196Y-89004469D01*
X132463821Y-88926079D01*
X132459467Y-88925467D01*
X132459462Y-88925466D01*
X132285833Y-88901065D01*
X132182196Y-88886500D01*
X131968982Y-88886500D01*
X131966796Y-88886653D01*
X131966792Y-88886653D01*
X131760685Y-88901065D01*
X131760680Y-88901066D01*
X131756300Y-88901372D01*
X131478123Y-88960501D01*
X131473994Y-88962004D01*
X131473990Y-88962005D01*
X131215026Y-89056260D01*
X131215022Y-89056262D01*
X131210881Y-89057769D01*
X131206991Y-89059837D01*
X131206985Y-89059840D01*
X130963670Y-89189213D01*
X130963664Y-89189217D01*
X130959778Y-89191283D01*
X130956218Y-89193870D01*
X130956214Y-89193872D01*
X130786399Y-89317249D01*
X130729699Y-89358444D01*
X130726535Y-89361500D01*
X130726532Y-89361502D01*
X130528290Y-89552943D01*
X130528286Y-89552947D01*
X130525125Y-89556000D01*
X130522418Y-89559465D01*
X130522416Y-89559467D01*
X130448435Y-89654158D01*
X130350035Y-89780104D01*
X130207839Y-90026395D01*
X130206189Y-90030479D01*
X130206186Y-90030485D01*
X130163796Y-90135405D01*
X130101304Y-90290079D01*
X130100240Y-90294348D01*
X130100239Y-90294350D01*
X130074437Y-90397836D01*
X130032503Y-90566024D01*
X130032044Y-90570392D01*
X130032043Y-90570397D01*
X130003564Y-90841362D01*
X130002776Y-90848859D01*
X122424764Y-90848859D01*
X122270405Y-90694500D01*
X122236379Y-90632188D01*
X122233500Y-90605405D01*
X122233500Y-88452524D01*
X122253502Y-88384403D01*
X122265858Y-88368221D01*
X122339040Y-88286944D01*
X122397314Y-88186010D01*
X122431223Y-88127279D01*
X122431224Y-88127278D01*
X122434527Y-88121556D01*
X122493542Y-87939928D01*
X122513504Y-87750000D01*
X122493542Y-87560072D01*
X122434527Y-87378444D01*
X122339040Y-87213056D01*
X122211253Y-87071134D01*
X122056752Y-86958882D01*
X122050724Y-86956198D01*
X122050722Y-86956197D01*
X121888319Y-86883891D01*
X121888318Y-86883891D01*
X121882288Y-86881206D01*
X121788887Y-86861353D01*
X121701944Y-86842872D01*
X121701939Y-86842872D01*
X121695487Y-86841500D01*
X121504513Y-86841500D01*
X121498061Y-86842872D01*
X121498056Y-86842872D01*
X121411113Y-86861353D01*
X121317712Y-86881206D01*
X121311682Y-86883891D01*
X121311681Y-86883891D01*
X121149278Y-86956197D01*
X121149276Y-86956198D01*
X121143248Y-86958882D01*
X120988747Y-87071134D01*
X120860960Y-87213056D01*
X120765473Y-87378444D01*
X120706458Y-87560072D01*
X120686496Y-87750000D01*
X120706458Y-87939928D01*
X120765473Y-88121556D01*
X120768776Y-88127278D01*
X120768777Y-88127279D01*
X120802686Y-88186010D01*
X120860960Y-88286944D01*
X120934137Y-88368215D01*
X120964853Y-88432221D01*
X120966500Y-88452524D01*
X120966500Y-90841233D01*
X120965973Y-90852416D01*
X120964298Y-90859909D01*
X120964547Y-90867835D01*
X120964547Y-90867836D01*
X120966438Y-90927986D01*
X120966500Y-90931945D01*
X120966500Y-90959856D01*
X120966997Y-90963790D01*
X120966997Y-90963791D01*
X120967005Y-90963856D01*
X120967938Y-90975693D01*
X120969327Y-91019889D01*
X120974978Y-91039339D01*
X120978987Y-91058700D01*
X120981526Y-91078797D01*
X120984445Y-91086168D01*
X120984445Y-91086170D01*
X120997804Y-91119912D01*
X121001649Y-91131142D01*
X121011771Y-91165983D01*
X121013982Y-91173593D01*
X121018015Y-91180412D01*
X121018017Y-91180417D01*
X121024293Y-91191028D01*
X121032988Y-91208776D01*
X121040448Y-91227617D01*
X121045110Y-91234033D01*
X121045110Y-91234034D01*
X121066436Y-91263387D01*
X121072952Y-91273307D01*
X121090539Y-91303044D01*
X121095458Y-91311362D01*
X121109779Y-91325683D01*
X121122619Y-91340716D01*
X121134528Y-91357107D01*
X121140633Y-91362158D01*
X121140638Y-91362163D01*
X121168598Y-91385294D01*
X121177376Y-91393281D01*
X121287081Y-91502985D01*
X121321105Y-91565296D01*
X121316041Y-91636112D01*
X121273494Y-91692948D01*
X121233415Y-91711217D01*
X121233834Y-91712474D01*
X121066054Y-91768450D01*
X120915652Y-91861522D01*
X120790695Y-91986697D01*
X120786855Y-91992927D01*
X120786854Y-91992928D01*
X120748356Y-92055384D01*
X120697885Y-92137262D01*
X120642203Y-92305139D01*
X120631500Y-92409600D01*
X120631500Y-94510400D01*
X112518419Y-94510400D01*
X112477174Y-94453631D01*
X112438982Y-94401064D01*
X112438981Y-94401062D01*
X112436654Y-94397860D01*
X112220582Y-94167767D01*
X111977375Y-93966568D01*
X111710869Y-93797438D01*
X111707290Y-93795754D01*
X111707283Y-93795750D01*
X111428856Y-93664733D01*
X111428852Y-93664731D01*
X111425266Y-93663044D01*
X111125072Y-93565505D01*
X110815020Y-93506359D01*
X110578838Y-93491500D01*
X110421162Y-93491500D01*
X110184980Y-93506359D01*
X109874928Y-93565505D01*
X109574734Y-93663044D01*
X109571148Y-93664731D01*
X109571144Y-93664733D01*
X109292717Y-93795750D01*
X109292710Y-93795754D01*
X109289131Y-93797438D01*
X109022625Y-93966568D01*
X109019573Y-93969093D01*
X108860362Y-94100804D01*
X108795124Y-94128814D01*
X108725099Y-94117107D01*
X108672520Y-94069400D01*
X108654079Y-94000841D01*
X108657789Y-93973237D01*
X108696432Y-93818247D01*
X108697497Y-93813976D01*
X108699236Y-93797438D01*
X108726765Y-93535510D01*
X108726765Y-93535507D01*
X108727224Y-93531141D01*
X108726350Y-93506110D01*
X108717453Y-93251319D01*
X108717452Y-93251313D01*
X108717299Y-93246922D01*
X108667915Y-92966850D01*
X108666560Y-92962679D01*
X108666558Y-92962672D01*
X108581394Y-92700566D01*
X108580033Y-92696377D01*
X108571070Y-92677999D01*
X108470257Y-92471305D01*
X108455363Y-92440767D01*
X108452908Y-92437128D01*
X108452905Y-92437122D01*
X108298792Y-92208641D01*
X108296333Y-92204995D01*
X108106037Y-91993650D01*
X107888180Y-91810846D01*
X107647002Y-91660141D01*
X107387196Y-91544469D01*
X107113821Y-91466079D01*
X107109467Y-91465467D01*
X107109462Y-91465466D01*
X106890927Y-91434754D01*
X106832196Y-91426500D01*
X106618982Y-91426500D01*
X106616796Y-91426653D01*
X106616792Y-91426653D01*
X106410685Y-91441065D01*
X106410680Y-91441066D01*
X106406300Y-91441372D01*
X106128123Y-91500501D01*
X106123994Y-91502004D01*
X106123990Y-91502005D01*
X105865026Y-91596260D01*
X105865022Y-91596262D01*
X105860881Y-91597769D01*
X105856991Y-91599837D01*
X105856985Y-91599840D01*
X105613670Y-91729213D01*
X105613664Y-91729217D01*
X105609778Y-91731283D01*
X105606218Y-91733870D01*
X105606214Y-91733872D01*
X105383262Y-91895855D01*
X105379699Y-91898444D01*
X105376535Y-91901500D01*
X105376532Y-91901502D01*
X105244762Y-92028752D01*
X105181866Y-92061684D01*
X105111149Y-92055384D01*
X105055065Y-92011852D01*
X105050091Y-92004419D01*
X105042981Y-91992928D01*
X105038478Y-91985652D01*
X104913303Y-91860695D01*
X104907072Y-91856854D01*
X104768968Y-91771725D01*
X104768966Y-91771724D01*
X104762738Y-91767885D01*
X104682995Y-91741436D01*
X104601389Y-91714368D01*
X104601387Y-91714368D01*
X104594861Y-91712203D01*
X104588025Y-91711503D01*
X104588022Y-91711502D01*
X104540176Y-91706600D01*
X104490400Y-91701500D01*
X104174500Y-91701500D01*
X104106379Y-91681498D01*
X104059886Y-91627842D01*
X104048500Y-91575500D01*
X104048500Y-91393768D01*
X104049027Y-91382585D01*
X104050702Y-91375092D01*
X104049714Y-91343638D01*
X104048562Y-91307002D01*
X104048500Y-91303044D01*
X104048500Y-91275144D01*
X104047996Y-91271153D01*
X104047063Y-91259311D01*
X104045923Y-91223036D01*
X104045674Y-91215111D01*
X104043462Y-91207497D01*
X104043461Y-91207492D01*
X104040023Y-91195659D01*
X104036012Y-91176295D01*
X104034467Y-91164064D01*
X104033474Y-91156203D01*
X104030557Y-91148836D01*
X104030556Y-91148831D01*
X104017198Y-91115092D01*
X104013354Y-91103865D01*
X104008079Y-91085710D01*
X104001018Y-91061407D01*
X103990707Y-91043972D01*
X103982012Y-91026224D01*
X103974552Y-91007383D01*
X103948564Y-90971613D01*
X103942048Y-90961693D01*
X103923580Y-90930465D01*
X103923578Y-90930462D01*
X103919542Y-90923638D01*
X103905221Y-90909317D01*
X103892380Y-90894283D01*
X103885131Y-90884306D01*
X103880472Y-90877893D01*
X103874367Y-90872842D01*
X103874362Y-90872837D01*
X103846396Y-90849701D01*
X103845471Y-90848859D01*
X111002776Y-90848859D01*
X111002929Y-90853247D01*
X111002929Y-90853253D01*
X111012073Y-91115092D01*
X111012701Y-91133078D01*
X111013463Y-91137401D01*
X111013464Y-91137408D01*
X111030502Y-91234034D01*
X111062085Y-91413150D01*
X111063440Y-91417321D01*
X111063442Y-91417328D01*
X111111520Y-91565296D01*
X111149967Y-91683623D01*
X111151895Y-91687576D01*
X111151897Y-91687581D01*
X111191340Y-91768450D01*
X111274637Y-91939233D01*
X111277092Y-91942872D01*
X111277095Y-91942878D01*
X111380378Y-92096000D01*
X111433667Y-92175005D01*
X111623963Y-92386350D01*
X111841820Y-92569154D01*
X112082998Y-92719859D01*
X112342804Y-92835531D01*
X112616179Y-92913921D01*
X112620533Y-92914533D01*
X112620538Y-92914534D01*
X112790770Y-92938458D01*
X112897804Y-92953500D01*
X113111018Y-92953500D01*
X113113204Y-92953347D01*
X113113208Y-92953347D01*
X113319315Y-92938935D01*
X113319320Y-92938934D01*
X113323700Y-92938628D01*
X113601877Y-92879499D01*
X113606006Y-92877996D01*
X113606010Y-92877995D01*
X113864974Y-92783740D01*
X113864978Y-92783738D01*
X113869119Y-92782231D01*
X113873009Y-92780163D01*
X113873015Y-92780160D01*
X114116330Y-92650787D01*
X114116336Y-92650783D01*
X114120222Y-92648717D01*
X114123782Y-92646130D01*
X114123786Y-92646128D01*
X114346738Y-92484145D01*
X114346741Y-92484142D01*
X114350301Y-92481556D01*
X114392539Y-92440767D01*
X114502507Y-92334572D01*
X114565403Y-92301639D01*
X114636120Y-92307939D01*
X114692204Y-92351470D01*
X114697179Y-92358905D01*
X114715068Y-92387813D01*
X114724099Y-92399208D01*
X114838829Y-92513739D01*
X114850240Y-92522751D01*
X114988243Y-92607816D01*
X115001424Y-92613963D01*
X115155710Y-92665138D01*
X115169086Y-92668005D01*
X115263438Y-92677672D01*
X115269854Y-92678000D01*
X116069885Y-92678000D01*
X116085124Y-92673525D01*
X116086329Y-92672135D01*
X116088000Y-92664452D01*
X116088000Y-92659884D01*
X116596000Y-92659884D01*
X116600475Y-92675123D01*
X116601865Y-92676328D01*
X116609548Y-92677999D01*
X117414095Y-92677999D01*
X117420614Y-92677662D01*
X117516206Y-92667743D01*
X117529600Y-92664851D01*
X117683784Y-92613412D01*
X117696962Y-92607239D01*
X117834807Y-92521937D01*
X117846208Y-92512901D01*
X117960739Y-92398171D01*
X117969751Y-92386760D01*
X118054816Y-92248757D01*
X118060963Y-92235576D01*
X118112138Y-92081290D01*
X118115005Y-92067914D01*
X118124672Y-91973562D01*
X118125000Y-91967146D01*
X118125000Y-91192115D01*
X118120525Y-91176876D01*
X118119135Y-91175671D01*
X118111452Y-91174000D01*
X116614115Y-91174000D01*
X116598876Y-91178475D01*
X116597671Y-91179865D01*
X116596000Y-91187548D01*
X116596000Y-92659884D01*
X116088000Y-92659884D01*
X116088000Y-90647885D01*
X116596000Y-90647885D01*
X116600475Y-90663124D01*
X116601865Y-90664329D01*
X116609548Y-90666000D01*
X118106884Y-90666000D01*
X118122123Y-90661525D01*
X118123328Y-90660135D01*
X118124999Y-90652452D01*
X118124999Y-89872905D01*
X118124662Y-89866386D01*
X118114743Y-89770794D01*
X118111851Y-89757400D01*
X118060412Y-89603216D01*
X118054239Y-89590038D01*
X117968937Y-89452193D01*
X117959901Y-89440792D01*
X117845171Y-89326261D01*
X117833760Y-89317249D01*
X117695757Y-89232184D01*
X117682576Y-89226037D01*
X117528290Y-89174862D01*
X117514914Y-89171995D01*
X117420562Y-89162328D01*
X117414145Y-89162000D01*
X116614115Y-89162000D01*
X116598876Y-89166475D01*
X116597671Y-89167865D01*
X116596000Y-89175548D01*
X116596000Y-90647885D01*
X116088000Y-90647885D01*
X116088000Y-89180116D01*
X116083525Y-89164877D01*
X116082135Y-89163672D01*
X116074452Y-89162001D01*
X115269905Y-89162001D01*
X115263386Y-89162338D01*
X115167794Y-89172257D01*
X115154400Y-89175149D01*
X115000216Y-89226588D01*
X114987038Y-89232761D01*
X114849193Y-89318063D01*
X114837792Y-89327099D01*
X114723261Y-89441829D01*
X114714247Y-89453243D01*
X114697463Y-89480471D01*
X114644691Y-89527964D01*
X114574619Y-89539386D01*
X114509496Y-89511112D01*
X114496573Y-89498670D01*
X114456037Y-89453650D01*
X114238180Y-89270846D01*
X113997002Y-89120141D01*
X113737196Y-89004469D01*
X113463821Y-88926079D01*
X113459467Y-88925467D01*
X113459462Y-88925466D01*
X113285833Y-88901065D01*
X113182196Y-88886500D01*
X112968982Y-88886500D01*
X112966796Y-88886653D01*
X112966792Y-88886653D01*
X112760685Y-88901065D01*
X112760680Y-88901066D01*
X112756300Y-88901372D01*
X112478123Y-88960501D01*
X112473994Y-88962004D01*
X112473990Y-88962005D01*
X112215026Y-89056260D01*
X112215022Y-89056262D01*
X112210881Y-89057769D01*
X112206991Y-89059837D01*
X112206985Y-89059840D01*
X111963670Y-89189213D01*
X111963664Y-89189217D01*
X111959778Y-89191283D01*
X111956218Y-89193870D01*
X111956214Y-89193872D01*
X111786399Y-89317249D01*
X111729699Y-89358444D01*
X111726535Y-89361500D01*
X111726532Y-89361502D01*
X111528290Y-89552943D01*
X111528286Y-89552947D01*
X111525125Y-89556000D01*
X111522418Y-89559465D01*
X111522416Y-89559467D01*
X111448435Y-89654158D01*
X111350035Y-89780104D01*
X111207839Y-90026395D01*
X111206189Y-90030479D01*
X111206186Y-90030485D01*
X111163796Y-90135405D01*
X111101304Y-90290079D01*
X111100240Y-90294348D01*
X111100239Y-90294350D01*
X111074437Y-90397836D01*
X111032503Y-90566024D01*
X111032044Y-90570392D01*
X111032043Y-90570397D01*
X111003564Y-90841362D01*
X111002776Y-90848859D01*
X103845471Y-90848859D01*
X103837618Y-90841713D01*
X103220405Y-90224500D01*
X103186379Y-90162188D01*
X103183500Y-90135405D01*
X103183500Y-89702524D01*
X103203502Y-89634403D01*
X103215858Y-89618221D01*
X103289040Y-89536944D01*
X103384527Y-89371556D01*
X103443542Y-89189928D01*
X103445054Y-89175548D01*
X103462814Y-89006565D01*
X103463504Y-89000000D01*
X103443542Y-88810072D01*
X103384527Y-88628444D01*
X103289040Y-88463056D01*
X103161253Y-88321134D01*
X103006752Y-88208882D01*
X103000724Y-88206198D01*
X103000722Y-88206197D01*
X102838319Y-88133891D01*
X102838318Y-88133891D01*
X102832288Y-88131206D01*
X102738888Y-88111353D01*
X102651944Y-88092872D01*
X102651939Y-88092872D01*
X102645487Y-88091500D01*
X102454513Y-88091500D01*
X102448061Y-88092872D01*
X102448056Y-88092872D01*
X102361112Y-88111353D01*
X102267712Y-88131206D01*
X102261682Y-88133891D01*
X102261681Y-88133891D01*
X102099278Y-88206197D01*
X102099276Y-88206198D01*
X102093248Y-88208882D01*
X101938747Y-88321134D01*
X101810960Y-88463056D01*
X101715473Y-88628444D01*
X101656458Y-88810072D01*
X101636496Y-89000000D01*
X101637186Y-89006565D01*
X101654947Y-89175548D01*
X101656458Y-89189928D01*
X101715473Y-89371556D01*
X101810960Y-89536944D01*
X101884137Y-89618215D01*
X101914853Y-89682221D01*
X101916500Y-89702524D01*
X101916500Y-90371233D01*
X101915973Y-90382416D01*
X101914298Y-90389909D01*
X101914547Y-90397835D01*
X101914547Y-90397836D01*
X101916438Y-90457986D01*
X101916500Y-90461945D01*
X101916500Y-90489856D01*
X101916997Y-90493790D01*
X101916997Y-90493791D01*
X101917005Y-90493856D01*
X101917938Y-90505693D01*
X101919327Y-90549889D01*
X101922774Y-90561753D01*
X101924978Y-90569339D01*
X101928987Y-90588700D01*
X101931526Y-90608797D01*
X101934445Y-90616168D01*
X101934445Y-90616170D01*
X101947804Y-90649912D01*
X101951649Y-90661142D01*
X101961340Y-90694500D01*
X101963982Y-90703593D01*
X101968015Y-90710412D01*
X101968017Y-90710417D01*
X101974293Y-90721028D01*
X101982988Y-90738776D01*
X101990448Y-90757617D01*
X101995110Y-90764033D01*
X101995110Y-90764034D01*
X102016436Y-90793387D01*
X102022952Y-90803307D01*
X102045458Y-90841362D01*
X102059779Y-90855683D01*
X102072619Y-90870716D01*
X102084528Y-90887107D01*
X102090633Y-90892158D01*
X102090638Y-90892163D01*
X102118604Y-90915299D01*
X102127382Y-90923287D01*
X102690500Y-91486405D01*
X102724526Y-91548717D01*
X102719461Y-91619532D01*
X102676914Y-91676368D01*
X102610394Y-91701179D01*
X102601405Y-91701500D01*
X102339600Y-91701500D01*
X102336354Y-91701837D01*
X102336350Y-91701837D01*
X102240692Y-91711762D01*
X102240688Y-91711763D01*
X102233834Y-91712474D01*
X102227298Y-91714655D01*
X102227296Y-91714655D01*
X102131318Y-91746676D01*
X102066054Y-91768450D01*
X102059823Y-91772306D01*
X102053203Y-91775407D01*
X102051908Y-91772643D01*
X101996732Y-91787827D01*
X101928962Y-91766666D01*
X101905718Y-91746679D01*
X101843721Y-91678590D01*
X101841314Y-91676368D01*
X101544865Y-91402790D01*
X101542856Y-91400936D01*
X101242322Y-91168457D01*
X101236883Y-91163685D01*
X101236796Y-91163787D01*
X101233076Y-91160626D01*
X101229623Y-91157199D01*
X101224749Y-91153667D01*
X101224552Y-91153476D01*
X101224310Y-91153348D01*
X101219459Y-91149833D01*
X101215127Y-91147618D01*
X101210986Y-91145080D01*
X101211216Y-91144705D01*
X101189285Y-91129586D01*
X101140683Y-91085704D01*
X101120953Y-91063067D01*
X101117982Y-91058700D01*
X101072052Y-90991193D01*
X101058238Y-90964525D01*
X101057988Y-90963856D01*
X101027740Y-90883127D01*
X101020630Y-90853943D01*
X101020164Y-90850058D01*
X101018299Y-90834535D01*
X101013115Y-90791361D01*
X101012225Y-90774806D01*
X101012311Y-90767768D01*
X101013691Y-90758899D01*
X101009564Y-90727349D01*
X101008500Y-90711008D01*
X101008500Y-79850000D01*
X117086496Y-79850000D01*
X117106458Y-80039928D01*
X117165473Y-80221556D01*
X117260960Y-80386944D01*
X117388747Y-80528866D01*
X117543248Y-80641118D01*
X117549276Y-80643802D01*
X117549278Y-80643803D01*
X117711681Y-80716109D01*
X117717712Y-80718794D01*
X117811112Y-80738647D01*
X117898056Y-80757128D01*
X117898061Y-80757128D01*
X117904513Y-80758500D01*
X118095487Y-80758500D01*
X118101939Y-80757128D01*
X118101944Y-80757128D01*
X118188888Y-80738647D01*
X118282288Y-80718794D01*
X118288319Y-80716109D01*
X118450722Y-80643803D01*
X118450724Y-80643802D01*
X118456752Y-80641118D01*
X118611253Y-80528866D01*
X118739040Y-80386944D01*
X118834527Y-80221556D01*
X118893542Y-80039928D01*
X118910907Y-79874706D01*
X118937920Y-79809050D01*
X118947122Y-79798782D01*
X120751235Y-77994669D01*
X130592001Y-77994669D01*
X130592371Y-78001490D01*
X130597895Y-78052352D01*
X130601521Y-78067604D01*
X130646676Y-78188054D01*
X130655214Y-78203649D01*
X130731715Y-78305724D01*
X130744276Y-78318285D01*
X130846351Y-78394786D01*
X130861946Y-78403324D01*
X130982394Y-78448478D01*
X130997649Y-78452105D01*
X131048514Y-78457631D01*
X131055328Y-78458000D01*
X131327885Y-78458000D01*
X131343124Y-78453525D01*
X131344329Y-78452135D01*
X131346000Y-78444452D01*
X131346000Y-78439884D01*
X131854000Y-78439884D01*
X131858475Y-78455123D01*
X131859865Y-78456328D01*
X131867548Y-78457999D01*
X132144669Y-78457999D01*
X132151490Y-78457629D01*
X132202352Y-78452105D01*
X132217604Y-78448479D01*
X132338054Y-78403324D01*
X132353649Y-78394786D01*
X132455724Y-78318285D01*
X132468285Y-78305724D01*
X132544786Y-78203649D01*
X132553324Y-78188054D01*
X132598478Y-78067606D01*
X132602105Y-78052351D01*
X132607631Y-78001486D01*
X132608000Y-77994672D01*
X132608000Y-77722115D01*
X132603525Y-77706876D01*
X132602135Y-77705671D01*
X132594452Y-77704000D01*
X131872115Y-77704000D01*
X131856876Y-77708475D01*
X131855671Y-77709865D01*
X131854000Y-77717548D01*
X131854000Y-78439884D01*
X131346000Y-78439884D01*
X131346000Y-77722115D01*
X131341525Y-77706876D01*
X131340135Y-77705671D01*
X131332452Y-77704000D01*
X130610116Y-77704000D01*
X130594877Y-77708475D01*
X130593672Y-77709865D01*
X130592001Y-77717548D01*
X130592001Y-77994669D01*
X120751235Y-77994669D01*
X121568019Y-77177885D01*
X130592000Y-77177885D01*
X130596475Y-77193124D01*
X130597865Y-77194329D01*
X130605548Y-77196000D01*
X131327885Y-77196000D01*
X131343124Y-77191525D01*
X131344329Y-77190135D01*
X131346000Y-77182452D01*
X131346000Y-77177885D01*
X131854000Y-77177885D01*
X131858475Y-77193124D01*
X131859865Y-77194329D01*
X131867548Y-77196000D01*
X132589884Y-77196000D01*
X132605123Y-77191525D01*
X132606328Y-77190135D01*
X132607999Y-77182452D01*
X132607999Y-76905331D01*
X132607629Y-76898510D01*
X132602105Y-76847648D01*
X132598479Y-76832396D01*
X132553324Y-76711946D01*
X132544786Y-76696351D01*
X132468285Y-76594276D01*
X132455724Y-76581715D01*
X132353649Y-76505214D01*
X132338054Y-76496676D01*
X132217606Y-76451522D01*
X132202351Y-76447895D01*
X132151486Y-76442369D01*
X132144672Y-76442000D01*
X131872115Y-76442000D01*
X131856876Y-76446475D01*
X131855671Y-76447865D01*
X131854000Y-76455548D01*
X131854000Y-77177885D01*
X131346000Y-77177885D01*
X131346000Y-76460116D01*
X131341525Y-76444877D01*
X131340135Y-76443672D01*
X131332452Y-76442001D01*
X131055331Y-76442001D01*
X131048510Y-76442371D01*
X130997648Y-76447895D01*
X130982396Y-76451521D01*
X130861946Y-76496676D01*
X130846351Y-76505214D01*
X130744276Y-76581715D01*
X130731715Y-76594276D01*
X130655214Y-76696351D01*
X130646676Y-76711946D01*
X130601522Y-76832394D01*
X130597895Y-76847649D01*
X130592369Y-76898514D01*
X130592000Y-76905328D01*
X130592000Y-77177885D01*
X121568019Y-77177885D01*
X121905401Y-76840503D01*
X121967713Y-76806477D01*
X122038528Y-76811542D01*
X122045745Y-76814491D01*
X122115000Y-76845325D01*
X122167712Y-76868794D01*
X122261112Y-76888647D01*
X122348056Y-76907128D01*
X122348061Y-76907128D01*
X122354513Y-76908500D01*
X122545487Y-76908500D01*
X122551939Y-76907128D01*
X122551944Y-76907128D01*
X122638888Y-76888647D01*
X122732288Y-76868794D01*
X122779783Y-76847648D01*
X122900722Y-76793803D01*
X122900724Y-76793802D01*
X122906752Y-76791118D01*
X123061253Y-76678866D01*
X123189040Y-76536944D01*
X123284527Y-76371556D01*
X123343542Y-76189928D01*
X123346692Y-76159963D01*
X123362814Y-76006565D01*
X123363504Y-76000000D01*
X123362814Y-75993435D01*
X123344232Y-75816635D01*
X123344232Y-75816633D01*
X123343542Y-75810072D01*
X123284527Y-75628444D01*
X123280250Y-75621035D01*
X123247314Y-75563990D01*
X123189040Y-75463056D01*
X123172881Y-75445109D01*
X123065675Y-75326045D01*
X123065674Y-75326044D01*
X123061253Y-75321134D01*
X122906752Y-75208882D01*
X122900724Y-75206198D01*
X122900722Y-75206197D01*
X122738319Y-75133891D01*
X122738318Y-75133891D01*
X122732288Y-75131206D01*
X122624200Y-75108231D01*
X122551944Y-75092872D01*
X122551939Y-75092872D01*
X122545487Y-75091500D01*
X122354513Y-75091500D01*
X122348061Y-75092872D01*
X122348056Y-75092872D01*
X122275800Y-75108231D01*
X122167712Y-75131206D01*
X122161682Y-75133891D01*
X122161681Y-75133891D01*
X121999278Y-75206197D01*
X121999276Y-75206198D01*
X121993248Y-75208882D01*
X121838747Y-75321134D01*
X121831679Y-75328984D01*
X121829723Y-75330189D01*
X121829423Y-75330459D01*
X121829374Y-75330404D01*
X121771236Y-75366222D01*
X121757946Y-75369081D01*
X121750110Y-75369327D01*
X121732454Y-75374456D01*
X121730658Y-75374978D01*
X121711306Y-75378986D01*
X121704235Y-75379880D01*
X121691203Y-75381526D01*
X121683834Y-75384443D01*
X121683832Y-75384444D01*
X121650097Y-75397800D01*
X121638869Y-75401645D01*
X121596407Y-75413982D01*
X121589585Y-75418016D01*
X121589579Y-75418019D01*
X121578968Y-75424294D01*
X121561218Y-75432990D01*
X121549756Y-75437528D01*
X121549751Y-75437531D01*
X121542383Y-75440448D01*
X121535968Y-75445109D01*
X121506625Y-75466427D01*
X121496707Y-75472943D01*
X121478019Y-75483995D01*
X121458637Y-75495458D01*
X121444313Y-75509782D01*
X121429281Y-75522621D01*
X121412893Y-75534528D01*
X121384712Y-75568593D01*
X121376722Y-75577373D01*
X118049500Y-78904595D01*
X117987188Y-78938621D01*
X117960405Y-78941500D01*
X117904513Y-78941500D01*
X117898061Y-78942872D01*
X117898056Y-78942872D01*
X117811113Y-78961353D01*
X117717712Y-78981206D01*
X117711682Y-78983891D01*
X117711681Y-78983891D01*
X117549278Y-79056197D01*
X117549276Y-79056198D01*
X117543248Y-79058882D01*
X117388747Y-79171134D01*
X117260960Y-79313056D01*
X117165473Y-79478444D01*
X117106458Y-79660072D01*
X117086496Y-79850000D01*
X101008500Y-79850000D01*
X101008500Y-75889899D01*
X102987569Y-75889899D01*
X102998180Y-76159963D01*
X103046737Y-76425837D01*
X103083805Y-76536944D01*
X103129516Y-76673955D01*
X103132272Y-76682217D01*
X103147127Y-76711946D01*
X103245340Y-76908500D01*
X103253078Y-76923987D01*
X103255607Y-76927646D01*
X103359563Y-77078058D01*
X103406744Y-77146324D01*
X103590205Y-77344790D01*
X103799799Y-77515427D01*
X104031346Y-77654830D01*
X104035441Y-77656564D01*
X104035443Y-77656565D01*
X104276124Y-77758480D01*
X104276131Y-77758482D01*
X104280225Y-77760216D01*
X104376358Y-77785705D01*
X104537172Y-77828345D01*
X104537177Y-77828346D01*
X104541469Y-77829484D01*
X104545878Y-77830006D01*
X104545884Y-77830007D01*
X104695210Y-77847680D01*
X104809868Y-77861251D01*
X105080064Y-77854883D01*
X105084459Y-77854151D01*
X105084464Y-77854151D01*
X105342267Y-77811241D01*
X105342271Y-77811240D01*
X105346669Y-77810508D01*
X105514959Y-77757285D01*
X105600114Y-77730354D01*
X105600116Y-77730353D01*
X105604360Y-77729011D01*
X105608371Y-77727085D01*
X105608376Y-77727083D01*
X105843979Y-77613948D01*
X105843980Y-77613947D01*
X105847998Y-77612018D01*
X105996768Y-77512613D01*
X106069013Y-77464341D01*
X106069017Y-77464338D01*
X106072721Y-77461863D01*
X106076038Y-77458892D01*
X106076042Y-77458889D01*
X106270729Y-77284512D01*
X106274045Y-77281542D01*
X106447953Y-77074654D01*
X106557804Y-76898514D01*
X106588614Y-76849111D01*
X106588615Y-76849109D01*
X106590975Y-76845325D01*
X106700258Y-76598133D01*
X106773620Y-76338008D01*
X106775093Y-76327042D01*
X106809172Y-76073324D01*
X106809173Y-76073316D01*
X106809599Y-76070142D01*
X106813375Y-75950000D01*
X106809120Y-75889899D01*
X114187569Y-75889899D01*
X114198180Y-76159963D01*
X114246737Y-76425837D01*
X114283805Y-76536944D01*
X114329516Y-76673955D01*
X114332272Y-76682217D01*
X114347127Y-76711946D01*
X114445340Y-76908500D01*
X114453078Y-76923987D01*
X114455607Y-76927646D01*
X114559563Y-77078058D01*
X114606744Y-77146324D01*
X114790205Y-77344790D01*
X114999799Y-77515427D01*
X115231346Y-77654830D01*
X115235441Y-77656564D01*
X115235443Y-77656565D01*
X115476124Y-77758480D01*
X115476131Y-77758482D01*
X115480225Y-77760216D01*
X115576358Y-77785705D01*
X115737172Y-77828345D01*
X115737177Y-77828346D01*
X115741469Y-77829484D01*
X115745878Y-77830006D01*
X115745884Y-77830007D01*
X115895210Y-77847680D01*
X116009868Y-77861251D01*
X116280064Y-77854883D01*
X116284459Y-77854151D01*
X116284464Y-77854151D01*
X116542267Y-77811241D01*
X116542271Y-77811240D01*
X116546669Y-77810508D01*
X116714959Y-77757285D01*
X116800114Y-77730354D01*
X116800116Y-77730353D01*
X116804360Y-77729011D01*
X116808371Y-77727085D01*
X116808376Y-77727083D01*
X117043979Y-77613948D01*
X117043980Y-77613947D01*
X117047998Y-77612018D01*
X117196768Y-77512613D01*
X117269013Y-77464341D01*
X117269017Y-77464338D01*
X117272721Y-77461863D01*
X117276038Y-77458892D01*
X117276042Y-77458889D01*
X117470729Y-77284512D01*
X117474045Y-77281542D01*
X117647953Y-77074654D01*
X117757804Y-76898514D01*
X117788614Y-76849111D01*
X117788615Y-76849109D01*
X117790975Y-76845325D01*
X117900258Y-76598133D01*
X117973620Y-76338008D01*
X117975093Y-76327042D01*
X118009172Y-76073324D01*
X118009173Y-76073316D01*
X118009599Y-76070142D01*
X118013375Y-75950000D01*
X118003933Y-75816635D01*
X117994602Y-75684852D01*
X117994287Y-75680403D01*
X117937402Y-75416185D01*
X117930620Y-75397800D01*
X117845397Y-75166796D01*
X117843856Y-75162619D01*
X117814510Y-75108231D01*
X117717629Y-74928678D01*
X117717629Y-74928677D01*
X117715516Y-74924762D01*
X117554942Y-74707362D01*
X117365338Y-74514756D01*
X117157424Y-74356081D01*
X117154028Y-74353489D01*
X117154024Y-74353487D01*
X117150487Y-74350787D01*
X116914675Y-74218727D01*
X116662609Y-74121210D01*
X116658284Y-74120207D01*
X116658279Y-74120206D01*
X116552748Y-74095746D01*
X116399318Y-74060182D01*
X116260212Y-74048134D01*
X130591500Y-74048134D01*
X130598255Y-74110316D01*
X130649385Y-74246705D01*
X130736739Y-74363261D01*
X130853295Y-74450615D01*
X130989684Y-74501745D01*
X131051866Y-74508500D01*
X132148134Y-74508500D01*
X132210316Y-74501745D01*
X132346705Y-74450615D01*
X132463261Y-74363261D01*
X132550615Y-74246705D01*
X132568023Y-74200270D01*
X132610665Y-74143505D01*
X132677227Y-74118806D01*
X132686005Y-74118500D01*
X133509776Y-74118500D01*
X133577897Y-74138502D01*
X133583834Y-74142562D01*
X133585132Y-74143505D01*
X133691657Y-74220900D01*
X133733248Y-74251118D01*
X133739276Y-74253802D01*
X133739278Y-74253803D01*
X133890581Y-74321167D01*
X133907712Y-74328794D01*
X134000948Y-74348612D01*
X134088056Y-74367128D01*
X134088061Y-74367128D01*
X134094513Y-74368500D01*
X134285487Y-74368500D01*
X134291939Y-74367128D01*
X134291944Y-74367128D01*
X134379052Y-74348612D01*
X134472288Y-74328794D01*
X134489419Y-74321167D01*
X134640722Y-74253803D01*
X134640724Y-74253802D01*
X134646752Y-74251118D01*
X134801253Y-74138866D01*
X134819591Y-74118500D01*
X134924621Y-74001852D01*
X134924622Y-74001851D01*
X134929040Y-73996944D01*
X135024527Y-73831556D01*
X135083542Y-73649928D01*
X135103504Y-73460000D01*
X135083542Y-73270072D01*
X135024527Y-73088444D01*
X134929040Y-72923056D01*
X134801253Y-72781134D01*
X134646752Y-72668882D01*
X134640724Y-72666198D01*
X134640722Y-72666197D01*
X134478319Y-72593891D01*
X134478318Y-72593891D01*
X134472288Y-72591206D01*
X134378887Y-72571353D01*
X134291944Y-72552872D01*
X134291939Y-72552872D01*
X134285487Y-72551500D01*
X134094513Y-72551500D01*
X134088061Y-72552872D01*
X134088056Y-72552872D01*
X134001113Y-72571353D01*
X133907712Y-72591206D01*
X133901682Y-72593891D01*
X133901681Y-72593891D01*
X133739278Y-72666197D01*
X133739276Y-72666198D01*
X133733248Y-72668882D01*
X133584092Y-72777251D01*
X133583837Y-72777436D01*
X133516969Y-72801294D01*
X133509776Y-72801500D01*
X132649770Y-72801500D01*
X132581649Y-72781498D01*
X132548944Y-72751065D01*
X132468643Y-72643920D01*
X132468642Y-72643919D01*
X132463261Y-72636739D01*
X132346705Y-72549385D01*
X132210316Y-72498255D01*
X132148134Y-72491500D01*
X131051866Y-72491500D01*
X130989684Y-72498255D01*
X130853295Y-72549385D01*
X130736739Y-72636739D01*
X130649385Y-72753295D01*
X130598255Y-72889684D01*
X130591500Y-72951866D01*
X130591500Y-74048134D01*
X116260212Y-74048134D01*
X116130054Y-74036861D01*
X116125619Y-74037105D01*
X116125615Y-74037105D01*
X115864634Y-74051468D01*
X115864627Y-74051469D01*
X115860191Y-74051713D01*
X115728622Y-74077883D01*
X115599484Y-74103570D01*
X115599479Y-74103571D01*
X115595112Y-74104440D01*
X115590909Y-74105916D01*
X115344315Y-74192513D01*
X115344312Y-74192514D01*
X115340107Y-74193991D01*
X115336154Y-74196044D01*
X115336148Y-74196047D01*
X115230133Y-74251118D01*
X115100264Y-74318580D01*
X115096649Y-74321163D01*
X115096643Y-74321167D01*
X114883990Y-74473131D01*
X114883986Y-74473134D01*
X114880369Y-74475719D01*
X114684808Y-74662275D01*
X114517485Y-74874524D01*
X114515253Y-74878366D01*
X114515250Y-74878371D01*
X114383974Y-75104377D01*
X114383971Y-75104384D01*
X114381736Y-75108231D01*
X114380062Y-75112364D01*
X114297075Y-75317251D01*
X114280272Y-75358735D01*
X114279201Y-75363048D01*
X114279199Y-75363053D01*
X114216189Y-75616714D01*
X114215116Y-75621035D01*
X114214662Y-75625463D01*
X114214662Y-75625465D01*
X114196391Y-75803794D01*
X114187569Y-75889899D01*
X106809120Y-75889899D01*
X106803933Y-75816635D01*
X106794602Y-75684852D01*
X106794287Y-75680403D01*
X106737402Y-75416185D01*
X106730620Y-75397800D01*
X106645397Y-75166796D01*
X106643856Y-75162619D01*
X106614510Y-75108231D01*
X106517629Y-74928678D01*
X106517629Y-74928677D01*
X106515516Y-74924762D01*
X106354942Y-74707362D01*
X106165338Y-74514756D01*
X105957424Y-74356081D01*
X105954028Y-74353489D01*
X105954024Y-74353487D01*
X105950487Y-74350787D01*
X105714675Y-74218727D01*
X105462609Y-74121210D01*
X105458284Y-74120207D01*
X105458279Y-74120206D01*
X105352748Y-74095746D01*
X105199318Y-74060182D01*
X104930054Y-74036861D01*
X104925619Y-74037105D01*
X104925615Y-74037105D01*
X104664634Y-74051468D01*
X104664627Y-74051469D01*
X104660191Y-74051713D01*
X104528622Y-74077883D01*
X104399484Y-74103570D01*
X104399479Y-74103571D01*
X104395112Y-74104440D01*
X104390909Y-74105916D01*
X104144315Y-74192513D01*
X104144312Y-74192514D01*
X104140107Y-74193991D01*
X104136154Y-74196044D01*
X104136148Y-74196047D01*
X104030133Y-74251118D01*
X103900264Y-74318580D01*
X103896649Y-74321163D01*
X103896643Y-74321167D01*
X103683990Y-74473131D01*
X103683986Y-74473134D01*
X103680369Y-74475719D01*
X103484808Y-74662275D01*
X103317485Y-74874524D01*
X103315253Y-74878366D01*
X103315250Y-74878371D01*
X103183974Y-75104377D01*
X103183971Y-75104384D01*
X103181736Y-75108231D01*
X103180062Y-75112364D01*
X103097075Y-75317251D01*
X103080272Y-75358735D01*
X103079201Y-75363048D01*
X103079199Y-75363053D01*
X103016189Y-75616714D01*
X103015116Y-75621035D01*
X103014662Y-75625463D01*
X103014662Y-75625465D01*
X102996391Y-75803794D01*
X102987569Y-75889899D01*
X101008500Y-75889899D01*
X101008500Y-68450000D01*
X106486835Y-68450000D01*
X106505465Y-68686711D01*
X106560895Y-68917594D01*
X106651760Y-69136963D01*
X106654346Y-69141183D01*
X106773241Y-69335202D01*
X106773245Y-69335208D01*
X106775824Y-69339416D01*
X106930031Y-69519969D01*
X107110584Y-69674176D01*
X107114792Y-69676755D01*
X107114798Y-69676759D01*
X107308084Y-69795205D01*
X107313037Y-69798240D01*
X107317607Y-69800133D01*
X107317611Y-69800135D01*
X107527833Y-69887211D01*
X107532406Y-69889105D01*
X107580349Y-69900615D01*
X107758476Y-69943380D01*
X107758482Y-69943381D01*
X107763289Y-69944535D01*
X108000000Y-69963165D01*
X108236711Y-69944535D01*
X108241518Y-69943381D01*
X108241524Y-69943380D01*
X108419651Y-69900615D01*
X108467594Y-69889105D01*
X108472167Y-69887211D01*
X108682389Y-69800135D01*
X108682393Y-69800133D01*
X108686963Y-69798240D01*
X108691916Y-69795205D01*
X108885202Y-69676759D01*
X108885208Y-69676755D01*
X108889416Y-69674176D01*
X109069969Y-69519969D01*
X109208753Y-69357474D01*
X109254686Y-69323598D01*
X109276668Y-69314122D01*
X110127978Y-68462812D01*
X110135592Y-68448868D01*
X110135461Y-68447035D01*
X110131210Y-68440420D01*
X109279710Y-67588920D01*
X109241352Y-67567974D01*
X109205928Y-67539218D01*
X109073177Y-67383787D01*
X109069969Y-67380031D01*
X108889416Y-67225824D01*
X108885208Y-67223245D01*
X108885202Y-67223241D01*
X108876470Y-67217890D01*
X109632093Y-67217890D01*
X109635876Y-67226666D01*
X110770115Y-68360905D01*
X110804141Y-68423217D01*
X110799076Y-68494032D01*
X110770115Y-68539095D01*
X109638920Y-69670290D01*
X109632160Y-69682670D01*
X109637887Y-69690320D01*
X109809042Y-69795205D01*
X109817837Y-69799687D01*
X110027988Y-69886734D01*
X110037373Y-69889783D01*
X110258554Y-69942885D01*
X110268301Y-69944428D01*
X110495070Y-69962275D01*
X110504930Y-69962275D01*
X110731699Y-69944428D01*
X110741446Y-69942885D01*
X110962627Y-69889783D01*
X110972012Y-69886734D01*
X111182163Y-69799687D01*
X111190958Y-69795205D01*
X111389121Y-69673770D01*
X111390396Y-69675851D01*
X111447739Y-69655280D01*
X111516918Y-69671242D01*
X111555974Y-69705497D01*
X111631357Y-69806080D01*
X111636739Y-69813261D01*
X111753295Y-69900615D01*
X111889684Y-69951745D01*
X111951866Y-69958500D01*
X114048134Y-69958500D01*
X114110316Y-69951745D01*
X114246705Y-69900615D01*
X114363261Y-69813261D01*
X114450615Y-69696705D01*
X114501745Y-69560316D01*
X114508500Y-69498134D01*
X114508500Y-67401866D01*
X114501745Y-67339684D01*
X114450615Y-67203295D01*
X114363261Y-67086739D01*
X114246705Y-66999385D01*
X114110316Y-66948255D01*
X114048134Y-66941500D01*
X111951866Y-66941500D01*
X111889684Y-66948255D01*
X111753295Y-66999385D01*
X111636739Y-67086739D01*
X111631358Y-67093919D01*
X111631357Y-67093920D01*
X111555974Y-67194503D01*
X111499115Y-67237018D01*
X111428296Y-67242044D01*
X111389983Y-67224824D01*
X111389121Y-67226230D01*
X111190958Y-67104795D01*
X111182163Y-67100313D01*
X110972012Y-67013266D01*
X110962627Y-67010217D01*
X110741446Y-66957115D01*
X110731699Y-66955572D01*
X110504930Y-66937725D01*
X110495070Y-66937725D01*
X110268301Y-66955572D01*
X110258554Y-66957115D01*
X110037373Y-67010217D01*
X110027988Y-67013266D01*
X109817837Y-67100313D01*
X109809042Y-67104795D01*
X109641555Y-67207432D01*
X109632093Y-67217890D01*
X108876470Y-67217890D01*
X108691183Y-67104346D01*
X108686963Y-67101760D01*
X108682393Y-67099867D01*
X108682389Y-67099865D01*
X108472167Y-67012789D01*
X108472165Y-67012788D01*
X108467594Y-67010895D01*
X108387391Y-66991640D01*
X108241524Y-66956620D01*
X108241518Y-66956619D01*
X108236711Y-66955465D01*
X108000000Y-66936835D01*
X107763289Y-66955465D01*
X107758482Y-66956619D01*
X107758476Y-66956620D01*
X107612609Y-66991640D01*
X107532406Y-67010895D01*
X107527835Y-67012788D01*
X107527833Y-67012789D01*
X107317611Y-67099865D01*
X107317607Y-67099867D01*
X107313037Y-67101760D01*
X107308817Y-67104346D01*
X107114798Y-67223241D01*
X107114792Y-67223245D01*
X107110584Y-67225824D01*
X106930031Y-67380031D01*
X106775824Y-67560584D01*
X106773245Y-67564792D01*
X106773241Y-67564798D01*
X106654346Y-67758817D01*
X106651760Y-67763037D01*
X106560895Y-67982406D01*
X106505465Y-68213289D01*
X106486835Y-68450000D01*
X101008500Y-68450000D01*
X101008500Y-67053250D01*
X101010246Y-67032345D01*
X101012770Y-67017344D01*
X101012770Y-67017341D01*
X101013576Y-67012552D01*
X101013729Y-67000000D01*
X101013040Y-66995186D01*
X101013039Y-66995176D01*
X101012157Y-66989017D01*
X101011206Y-66962172D01*
X101023038Y-66796723D01*
X101025596Y-66778934D01*
X101066999Y-66588607D01*
X101072063Y-66571359D01*
X101140136Y-66388850D01*
X101147604Y-66372498D01*
X101240952Y-66201542D01*
X101250672Y-66186418D01*
X101367402Y-66030486D01*
X101379175Y-66016900D01*
X101516900Y-65879175D01*
X101530486Y-65867402D01*
X101686418Y-65750672D01*
X101701542Y-65740952D01*
X101872498Y-65647604D01*
X101888850Y-65640136D01*
X102071359Y-65572063D01*
X102088608Y-65566999D01*
X102278936Y-65525596D01*
X102296715Y-65523039D01*
X102458605Y-65511460D01*
X102476565Y-65512207D01*
X102484845Y-65512308D01*
X102493724Y-65513691D01*
X102525286Y-65509564D01*
X102541621Y-65508500D01*
X137450633Y-65508500D01*
X137470018Y-65510000D01*
G37*
%TD.AperFunction*%
%TD*%
M02*
