%TF.GenerationSoftware,KiCad,Pcbnew,(6.0.9)*%
%TF.CreationDate,2023-03-08T23:19:48-05:00*%
%TF.ProjectId,Fluxpad,466c7578-7061-4642-9e6b-696361645f70,rev?*%
%TF.SameCoordinates,Original*%
%TF.FileFunction,Drillmap*%
%TF.FilePolarity,Positive*%
%FSLAX45Y45*%
G04 Gerber Fmt 4.5, Leading zero omitted, Abs format (unit mm)*
G04 Created by KiCad (PCBNEW (6.0.9)) date 2023-03-08 23:19:48*
%MOMM*%
%LPD*%
G01*
G04 APERTURE LIST*
%ADD10C,0.250000*%
%ADD11C,0.200000*%
%ADD12C,0.040000*%
%ADD13C,0.100000*%
%ADD14C,0.220000*%
%ADD15C,0.175000*%
%ADD16C,0.305000*%
%ADD17C,0.400000*%
G04 APERTURE END LIST*
D10*
X10250000Y-6500000D02*
G75*
G03*
X10050000Y-6700000I0J-200000D01*
G01*
X13950004Y-9924735D02*
G75*
G03*
X13907692Y-9843055I-100004J-5D01*
G01*
X10092308Y-9843055D02*
G75*
G03*
X10092308Y-9156945I-242308J343055D01*
G01*
X10092310Y-9843059D02*
G75*
G03*
X10050000Y-9924735I57690J-81681D01*
G01*
X13907692Y-9156945D02*
G75*
G03*
X13907692Y-9843055I242308J-343055D01*
G01*
X10050000Y-6700000D02*
X10050000Y-9075265D01*
X10250000Y-12500000D02*
X13750000Y-12500000D01*
X13950000Y-6700000D02*
G75*
G03*
X13750000Y-6500000I-200000J0D01*
G01*
X10049996Y-9075265D02*
G75*
G03*
X10092308Y-9156945I100004J5D01*
G01*
X13950000Y-9075265D02*
X13950000Y-6700000D01*
X13750000Y-6500000D02*
X10250000Y-6500000D01*
X13750000Y-12500000D02*
G75*
G03*
X13950000Y-12300000I0J200000D01*
G01*
X10050000Y-9924735D02*
X10050000Y-12300000D01*
X10050000Y-12300000D02*
G75*
G03*
X10250000Y-12500000I200000J0D01*
G01*
X13950000Y-12300000D02*
X13950000Y-9924735D01*
X13907695Y-9156948D02*
G75*
G03*
X13950000Y-9075265I-57715J81688D01*
G01*
D11*
D12*
X10235000Y-8880000D02*
X10275000Y-8920000D01*
X10275000Y-8880000D02*
X10235000Y-8920000D01*
X10692500Y-11107500D02*
X10732500Y-11147500D01*
X10732500Y-11107500D02*
X10692500Y-11147500D01*
X10780000Y-10080000D02*
X10820000Y-10120000D01*
X10820000Y-10080000D02*
X10780000Y-10120000D01*
X10780000Y-11980000D02*
X10820000Y-12020000D01*
X10820000Y-11980000D02*
X10780000Y-12020000D01*
X11280000Y-10080000D02*
X11320000Y-10120000D01*
X11320000Y-10080000D02*
X11280000Y-10120000D01*
X11280000Y-11980000D02*
X11320000Y-12020000D01*
X11320000Y-11980000D02*
X11280000Y-12020000D01*
X11610000Y-9940000D02*
X11650000Y-9980000D01*
X11650000Y-9940000D02*
X11610000Y-9980000D01*
X11780000Y-7965000D02*
X11820000Y-8005000D01*
X11820000Y-7965000D02*
X11780000Y-8005000D01*
X11810000Y-11980000D02*
X11850000Y-12020000D01*
X11850000Y-11980000D02*
X11810000Y-12020000D01*
X11900000Y-10580000D02*
X11940000Y-10620000D01*
X11940000Y-10580000D02*
X11900000Y-10620000D01*
X12140000Y-8755000D02*
X12180000Y-8795000D01*
X12180000Y-8755000D02*
X12140000Y-8795000D01*
X12225000Y-7580000D02*
X12265000Y-7620000D01*
X12265000Y-7580000D02*
X12225000Y-7620000D01*
X12560000Y-11110000D02*
X12600000Y-11150000D01*
X12600000Y-11110000D02*
X12560000Y-11150000D01*
X12680000Y-10080000D02*
X12720000Y-10120000D01*
X12720000Y-10080000D02*
X12680000Y-10120000D01*
X12680000Y-11980000D02*
X12720000Y-12020000D01*
X12720000Y-11980000D02*
X12680000Y-12020000D01*
X12930000Y-10645000D02*
X12970000Y-10685000D01*
X12970000Y-10645000D02*
X12930000Y-10685000D01*
X13180000Y-10080000D02*
X13220000Y-10120000D01*
X13220000Y-10080000D02*
X13180000Y-10120000D01*
X13180000Y-11980000D02*
X13220000Y-12020000D01*
X13220000Y-11980000D02*
X13180000Y-12020000D01*
X13399000Y-7326000D02*
X13439000Y-7366000D01*
X13439000Y-7326000D02*
X13399000Y-7366000D01*
X13490000Y-7190000D02*
X13530000Y-7230000D01*
X13530000Y-7190000D02*
X13490000Y-7230000D01*
X13500000Y-6950000D02*
X13540000Y-6990000D01*
X13540000Y-6950000D02*
X13500000Y-6990000D01*
X13515000Y-9945000D02*
X13555000Y-9985000D01*
X13555000Y-9945000D02*
X13515000Y-9985000D01*
X13660000Y-11980000D02*
X13700000Y-12020000D01*
X13700000Y-11980000D02*
X13660000Y-12020000D01*
X13830000Y-6950000D02*
X13870000Y-6990000D01*
X13870000Y-6950000D02*
X13830000Y-6990000D01*
X13840000Y-7190000D02*
X13880000Y-7230000D01*
X13880000Y-7190000D02*
X13840000Y-7230000D01*
D13*
X10850000Y-6845000D02*
G75*
G03*
X10850000Y-6845000I-50000J0D01*
G01*
X11100000Y-6845000D02*
G75*
G03*
X11100000Y-6845000I-50000J0D01*
G01*
X11350000Y-6845000D02*
G75*
G03*
X11350000Y-6845000I-50000J0D01*
G01*
D14*
X10490000Y-7485000D02*
X10490000Y-7705000D01*
X10380000Y-7595000D02*
X10600000Y-7595000D01*
X11610000Y-7485000D02*
X11610000Y-7705000D01*
X11500000Y-7595000D02*
X11720000Y-7595000D01*
D15*
X10603872Y-9661872D02*
X10603872Y-9538128D01*
X10480128Y-9538128D01*
X10480128Y-9661872D01*
X10603872Y-9661872D01*
X10603872Y-11561872D02*
X10603872Y-11438128D01*
X10480128Y-11438128D01*
X10480128Y-11561872D01*
X10603872Y-11561872D01*
X11619872Y-9661872D02*
X11619872Y-9538128D01*
X11496128Y-9538128D01*
X11496128Y-9661872D01*
X11619872Y-9661872D01*
X11619872Y-11561872D02*
X11619872Y-11438128D01*
X11496128Y-11438128D01*
X11496128Y-11561872D01*
X11619872Y-11561872D01*
X12503872Y-9661872D02*
X12503872Y-9538128D01*
X12380128Y-9538128D01*
X12380128Y-9661872D01*
X12503872Y-9661872D01*
X12503872Y-11561872D02*
X12503872Y-11438128D01*
X12380128Y-11438128D01*
X12380128Y-11561872D01*
X12503872Y-11561872D01*
X13519872Y-9661872D02*
X13519872Y-9538128D01*
X13396128Y-9538128D01*
X13396128Y-9661872D01*
X13519872Y-9661872D01*
X13519872Y-11561872D02*
X13519872Y-11438128D01*
X13396128Y-11438128D01*
X13396128Y-11561872D01*
X13519872Y-11561872D01*
D16*
X10669000Y-9498500D02*
X10821500Y-9346000D01*
X10669000Y-9193500D01*
X10516500Y-9346000D01*
X10669000Y-9498500D01*
X11304000Y-9244500D02*
X11456500Y-9092000D01*
X11304000Y-8939500D01*
X11151500Y-9092000D01*
X11304000Y-9244500D01*
X12569000Y-9498500D02*
X12721500Y-9346000D01*
X12569000Y-9193500D01*
X12416500Y-9346000D01*
X12569000Y-9498500D01*
X13204000Y-9244500D02*
X13356500Y-9092000D01*
X13204000Y-8939500D01*
X13051500Y-9092000D01*
X13204000Y-9244500D01*
D17*
X10850000Y-9400000D02*
X11250000Y-9800000D01*
X11250000Y-9400000D02*
X10850000Y-9800000D01*
X11250000Y-9600000D02*
G75*
G03*
X11250000Y-9600000I-200000J0D01*
G01*
X12750000Y-9400000D02*
X13150000Y-9800000D01*
X13150000Y-9400000D02*
X12750000Y-9800000D01*
X13150000Y-9600000D02*
G75*
G03*
X13150000Y-9600000I-200000J0D01*
G01*
D11*
X10295119Y-12822976D02*
X10295119Y-12622976D01*
X10342738Y-12622976D01*
X10371310Y-12632500D01*
X10390357Y-12651548D01*
X10399881Y-12670595D01*
X10409405Y-12708690D01*
X10409405Y-12737262D01*
X10399881Y-12775357D01*
X10390357Y-12794405D01*
X10371310Y-12813452D01*
X10342738Y-12822976D01*
X10295119Y-12822976D01*
X10495119Y-12822976D02*
X10495119Y-12689643D01*
X10495119Y-12727738D02*
X10504643Y-12708690D01*
X10514167Y-12699167D01*
X10533214Y-12689643D01*
X10552262Y-12689643D01*
X10618929Y-12822976D02*
X10618929Y-12689643D01*
X10618929Y-12622976D02*
X10609405Y-12632500D01*
X10618929Y-12642024D01*
X10628452Y-12632500D01*
X10618929Y-12622976D01*
X10618929Y-12642024D01*
X10742738Y-12822976D02*
X10723690Y-12813452D01*
X10714167Y-12794405D01*
X10714167Y-12622976D01*
X10847500Y-12822976D02*
X10828452Y-12813452D01*
X10818929Y-12794405D01*
X10818929Y-12622976D01*
X11076071Y-12822976D02*
X11076071Y-12622976D01*
X11142738Y-12765833D01*
X11209405Y-12622976D01*
X11209405Y-12822976D01*
X11390357Y-12822976D02*
X11390357Y-12718214D01*
X11380833Y-12699167D01*
X11361786Y-12689643D01*
X11323690Y-12689643D01*
X11304643Y-12699167D01*
X11390357Y-12813452D02*
X11371309Y-12822976D01*
X11323690Y-12822976D01*
X11304643Y-12813452D01*
X11295119Y-12794405D01*
X11295119Y-12775357D01*
X11304643Y-12756309D01*
X11323690Y-12746786D01*
X11371309Y-12746786D01*
X11390357Y-12737262D01*
X11485595Y-12689643D02*
X11485595Y-12889643D01*
X11485595Y-12699167D02*
X11504643Y-12689643D01*
X11542738Y-12689643D01*
X11561786Y-12699167D01*
X11571309Y-12708690D01*
X11580833Y-12727738D01*
X11580833Y-12784881D01*
X11571309Y-12803928D01*
X11561786Y-12813452D01*
X11542738Y-12822976D01*
X11504643Y-12822976D01*
X11485595Y-12813452D01*
X11666548Y-12803928D02*
X11676071Y-12813452D01*
X11666548Y-12822976D01*
X11657024Y-12813452D01*
X11666548Y-12803928D01*
X11666548Y-12822976D01*
X11666548Y-12699167D02*
X11676071Y-12708690D01*
X11666548Y-12718214D01*
X11657024Y-12708690D01*
X11666548Y-12699167D01*
X11666548Y-12718214D01*
D12*
X9997500Y-13132500D02*
X10037500Y-13172500D01*
X10037500Y-13132500D02*
X9997500Y-13172500D01*
D11*
X10333214Y-13042976D02*
X10352262Y-13042976D01*
X10371310Y-13052500D01*
X10380833Y-13062024D01*
X10390357Y-13081071D01*
X10399881Y-13119167D01*
X10399881Y-13166786D01*
X10390357Y-13204881D01*
X10380833Y-13223928D01*
X10371310Y-13233452D01*
X10352262Y-13242976D01*
X10333214Y-13242976D01*
X10314167Y-13233452D01*
X10304643Y-13223928D01*
X10295119Y-13204881D01*
X10285595Y-13166786D01*
X10285595Y-13119167D01*
X10295119Y-13081071D01*
X10304643Y-13062024D01*
X10314167Y-13052500D01*
X10333214Y-13042976D01*
X10485595Y-13223928D02*
X10495119Y-13233452D01*
X10485595Y-13242976D01*
X10476071Y-13233452D01*
X10485595Y-13223928D01*
X10485595Y-13242976D01*
X10666548Y-13109643D02*
X10666548Y-13242976D01*
X10618929Y-13033452D02*
X10571310Y-13176309D01*
X10695119Y-13176309D01*
X10809405Y-13042976D02*
X10828452Y-13042976D01*
X10847500Y-13052500D01*
X10857024Y-13062024D01*
X10866548Y-13081071D01*
X10876071Y-13119167D01*
X10876071Y-13166786D01*
X10866548Y-13204881D01*
X10857024Y-13223928D01*
X10847500Y-13233452D01*
X10828452Y-13242976D01*
X10809405Y-13242976D01*
X10790357Y-13233452D01*
X10780833Y-13223928D01*
X10771310Y-13204881D01*
X10761786Y-13166786D01*
X10761786Y-13119167D01*
X10771310Y-13081071D01*
X10780833Y-13062024D01*
X10790357Y-13052500D01*
X10809405Y-13042976D01*
X10999881Y-13042976D02*
X11018929Y-13042976D01*
X11037976Y-13052500D01*
X11047500Y-13062024D01*
X11057024Y-13081071D01*
X11066548Y-13119167D01*
X11066548Y-13166786D01*
X11057024Y-13204881D01*
X11047500Y-13223928D01*
X11037976Y-13233452D01*
X11018929Y-13242976D01*
X10999881Y-13242976D01*
X10980833Y-13233452D01*
X10971310Y-13223928D01*
X10961786Y-13204881D01*
X10952262Y-13166786D01*
X10952262Y-13119167D01*
X10961786Y-13081071D01*
X10971310Y-13062024D01*
X10980833Y-13052500D01*
X10999881Y-13042976D01*
X11152262Y-13242976D02*
X11152262Y-13109643D01*
X11152262Y-13128690D02*
X11161786Y-13119167D01*
X11180833Y-13109643D01*
X11209405Y-13109643D01*
X11228452Y-13119167D01*
X11237976Y-13138214D01*
X11237976Y-13242976D01*
X11237976Y-13138214D02*
X11247500Y-13119167D01*
X11266548Y-13109643D01*
X11295119Y-13109643D01*
X11314167Y-13119167D01*
X11323690Y-13138214D01*
X11323690Y-13242976D01*
X11418928Y-13242976D02*
X11418928Y-13109643D01*
X11418928Y-13128690D02*
X11428452Y-13119167D01*
X11447500Y-13109643D01*
X11476071Y-13109643D01*
X11495119Y-13119167D01*
X11504643Y-13138214D01*
X11504643Y-13242976D01*
X11504643Y-13138214D02*
X11514167Y-13119167D01*
X11533214Y-13109643D01*
X11561786Y-13109643D01*
X11580833Y-13119167D01*
X11590357Y-13138214D01*
X11590357Y-13242976D01*
X11980833Y-13033452D02*
X11809405Y-13290595D01*
X12237976Y-13042976D02*
X12257024Y-13042976D01*
X12276071Y-13052500D01*
X12285595Y-13062024D01*
X12295119Y-13081071D01*
X12304643Y-13119167D01*
X12304643Y-13166786D01*
X12295119Y-13204881D01*
X12285595Y-13223928D01*
X12276071Y-13233452D01*
X12257024Y-13242976D01*
X12237976Y-13242976D01*
X12218928Y-13233452D01*
X12209405Y-13223928D01*
X12199881Y-13204881D01*
X12190357Y-13166786D01*
X12190357Y-13119167D01*
X12199881Y-13081071D01*
X12209405Y-13062024D01*
X12218928Y-13052500D01*
X12237976Y-13042976D01*
X12390357Y-13223928D02*
X12399881Y-13233452D01*
X12390357Y-13242976D01*
X12380833Y-13233452D01*
X12390357Y-13223928D01*
X12390357Y-13242976D01*
X12523690Y-13042976D02*
X12542738Y-13042976D01*
X12561786Y-13052500D01*
X12571309Y-13062024D01*
X12580833Y-13081071D01*
X12590357Y-13119167D01*
X12590357Y-13166786D01*
X12580833Y-13204881D01*
X12571309Y-13223928D01*
X12561786Y-13233452D01*
X12542738Y-13242976D01*
X12523690Y-13242976D01*
X12504643Y-13233452D01*
X12495119Y-13223928D01*
X12485595Y-13204881D01*
X12476071Y-13166786D01*
X12476071Y-13119167D01*
X12485595Y-13081071D01*
X12495119Y-13062024D01*
X12504643Y-13052500D01*
X12523690Y-13042976D01*
X12780833Y-13242976D02*
X12666548Y-13242976D01*
X12723690Y-13242976D02*
X12723690Y-13042976D01*
X12704643Y-13071548D01*
X12685595Y-13090595D01*
X12666548Y-13100119D01*
X12961786Y-13042976D02*
X12866548Y-13042976D01*
X12857024Y-13138214D01*
X12866548Y-13128690D01*
X12885595Y-13119167D01*
X12933214Y-13119167D01*
X12952262Y-13128690D01*
X12961786Y-13138214D01*
X12971309Y-13157262D01*
X12971309Y-13204881D01*
X12961786Y-13223928D01*
X12952262Y-13233452D01*
X12933214Y-13242976D01*
X12885595Y-13242976D01*
X12866548Y-13233452D01*
X12857024Y-13223928D01*
X13037976Y-13042976D02*
X13171309Y-13042976D01*
X13085595Y-13242976D01*
X13237976Y-13042976D02*
X13237976Y-13081071D01*
X13314167Y-13042976D02*
X13314167Y-13081071D01*
X13609405Y-13319167D02*
X13599881Y-13309643D01*
X13580833Y-13281071D01*
X13571309Y-13262024D01*
X13561786Y-13233452D01*
X13552262Y-13185833D01*
X13552262Y-13147738D01*
X13561786Y-13100119D01*
X13571309Y-13071548D01*
X13580833Y-13052500D01*
X13599881Y-13023928D01*
X13609405Y-13014405D01*
X13676071Y-13062024D02*
X13685595Y-13052500D01*
X13704643Y-13042976D01*
X13752262Y-13042976D01*
X13771309Y-13052500D01*
X13780833Y-13062024D01*
X13790357Y-13081071D01*
X13790357Y-13100119D01*
X13780833Y-13128690D01*
X13666548Y-13242976D01*
X13790357Y-13242976D01*
X13971309Y-13042976D02*
X13876071Y-13042976D01*
X13866548Y-13138214D01*
X13876071Y-13128690D01*
X13895119Y-13119167D01*
X13942738Y-13119167D01*
X13961786Y-13128690D01*
X13971309Y-13138214D01*
X13980833Y-13157262D01*
X13980833Y-13204881D01*
X13971309Y-13223928D01*
X13961786Y-13233452D01*
X13942738Y-13242976D01*
X13895119Y-13242976D01*
X13876071Y-13233452D01*
X13866548Y-13223928D01*
X14218928Y-13242976D02*
X14218928Y-13042976D01*
X14304643Y-13242976D02*
X14304643Y-13138214D01*
X14295119Y-13119167D01*
X14276071Y-13109643D01*
X14247500Y-13109643D01*
X14228452Y-13119167D01*
X14218928Y-13128690D01*
X14428452Y-13242976D02*
X14409405Y-13233452D01*
X14399881Y-13223928D01*
X14390357Y-13204881D01*
X14390357Y-13147738D01*
X14399881Y-13128690D01*
X14409405Y-13119167D01*
X14428452Y-13109643D01*
X14457024Y-13109643D01*
X14476071Y-13119167D01*
X14485595Y-13128690D01*
X14495119Y-13147738D01*
X14495119Y-13204881D01*
X14485595Y-13223928D01*
X14476071Y-13233452D01*
X14457024Y-13242976D01*
X14428452Y-13242976D01*
X14609405Y-13242976D02*
X14590357Y-13233452D01*
X14580833Y-13214405D01*
X14580833Y-13042976D01*
X14761786Y-13233452D02*
X14742738Y-13242976D01*
X14704643Y-13242976D01*
X14685595Y-13233452D01*
X14676071Y-13214405D01*
X14676071Y-13138214D01*
X14685595Y-13119167D01*
X14704643Y-13109643D01*
X14742738Y-13109643D01*
X14761786Y-13119167D01*
X14771309Y-13138214D01*
X14771309Y-13157262D01*
X14676071Y-13176309D01*
X14847500Y-13233452D02*
X14866548Y-13242976D01*
X14904643Y-13242976D01*
X14923690Y-13233452D01*
X14933214Y-13214405D01*
X14933214Y-13204881D01*
X14923690Y-13185833D01*
X14904643Y-13176309D01*
X14876071Y-13176309D01*
X14857024Y-13166786D01*
X14847500Y-13147738D01*
X14847500Y-13138214D01*
X14857024Y-13119167D01*
X14876071Y-13109643D01*
X14904643Y-13109643D01*
X14923690Y-13119167D01*
X14999881Y-13319167D02*
X15009405Y-13309643D01*
X15028452Y-13281071D01*
X15037976Y-13262024D01*
X15047500Y-13233452D01*
X15057024Y-13185833D01*
X15057024Y-13147738D01*
X15047500Y-13100119D01*
X15037976Y-13071548D01*
X15028452Y-13052500D01*
X15009405Y-13023928D01*
X14999881Y-13014405D01*
D13*
X10037500Y-13416500D02*
G75*
G03*
X10037500Y-13416500I-50000J0D01*
G01*
D11*
X10399881Y-13506976D02*
X10285595Y-13506976D01*
X10342738Y-13506976D02*
X10342738Y-13306976D01*
X10323690Y-13335548D01*
X10304643Y-13354595D01*
X10285595Y-13364119D01*
X10485595Y-13487928D02*
X10495119Y-13497452D01*
X10485595Y-13506976D01*
X10476071Y-13497452D01*
X10485595Y-13487928D01*
X10485595Y-13506976D01*
X10618929Y-13306976D02*
X10637976Y-13306976D01*
X10657024Y-13316500D01*
X10666548Y-13326024D01*
X10676071Y-13345071D01*
X10685595Y-13383167D01*
X10685595Y-13430786D01*
X10676071Y-13468881D01*
X10666548Y-13487928D01*
X10657024Y-13497452D01*
X10637976Y-13506976D01*
X10618929Y-13506976D01*
X10599881Y-13497452D01*
X10590357Y-13487928D01*
X10580833Y-13468881D01*
X10571310Y-13430786D01*
X10571310Y-13383167D01*
X10580833Y-13345071D01*
X10590357Y-13326024D01*
X10599881Y-13316500D01*
X10618929Y-13306976D01*
X10809405Y-13306976D02*
X10828452Y-13306976D01*
X10847500Y-13316500D01*
X10857024Y-13326024D01*
X10866548Y-13345071D01*
X10876071Y-13383167D01*
X10876071Y-13430786D01*
X10866548Y-13468881D01*
X10857024Y-13487928D01*
X10847500Y-13497452D01*
X10828452Y-13506976D01*
X10809405Y-13506976D01*
X10790357Y-13497452D01*
X10780833Y-13487928D01*
X10771310Y-13468881D01*
X10761786Y-13430786D01*
X10761786Y-13383167D01*
X10771310Y-13345071D01*
X10780833Y-13326024D01*
X10790357Y-13316500D01*
X10809405Y-13306976D01*
X10999881Y-13306976D02*
X11018929Y-13306976D01*
X11037976Y-13316500D01*
X11047500Y-13326024D01*
X11057024Y-13345071D01*
X11066548Y-13383167D01*
X11066548Y-13430786D01*
X11057024Y-13468881D01*
X11047500Y-13487928D01*
X11037976Y-13497452D01*
X11018929Y-13506976D01*
X10999881Y-13506976D01*
X10980833Y-13497452D01*
X10971310Y-13487928D01*
X10961786Y-13468881D01*
X10952262Y-13430786D01*
X10952262Y-13383167D01*
X10961786Y-13345071D01*
X10971310Y-13326024D01*
X10980833Y-13316500D01*
X10999881Y-13306976D01*
X11152262Y-13506976D02*
X11152262Y-13373643D01*
X11152262Y-13392690D02*
X11161786Y-13383167D01*
X11180833Y-13373643D01*
X11209405Y-13373643D01*
X11228452Y-13383167D01*
X11237976Y-13402214D01*
X11237976Y-13506976D01*
X11237976Y-13402214D02*
X11247500Y-13383167D01*
X11266548Y-13373643D01*
X11295119Y-13373643D01*
X11314167Y-13383167D01*
X11323690Y-13402214D01*
X11323690Y-13506976D01*
X11418928Y-13506976D02*
X11418928Y-13373643D01*
X11418928Y-13392690D02*
X11428452Y-13383167D01*
X11447500Y-13373643D01*
X11476071Y-13373643D01*
X11495119Y-13383167D01*
X11504643Y-13402214D01*
X11504643Y-13506976D01*
X11504643Y-13402214D02*
X11514167Y-13383167D01*
X11533214Y-13373643D01*
X11561786Y-13373643D01*
X11580833Y-13383167D01*
X11590357Y-13402214D01*
X11590357Y-13506976D01*
X11980833Y-13297452D02*
X11809405Y-13554595D01*
X12237976Y-13306976D02*
X12257024Y-13306976D01*
X12276071Y-13316500D01*
X12285595Y-13326024D01*
X12295119Y-13345071D01*
X12304643Y-13383167D01*
X12304643Y-13430786D01*
X12295119Y-13468881D01*
X12285595Y-13487928D01*
X12276071Y-13497452D01*
X12257024Y-13506976D01*
X12237976Y-13506976D01*
X12218928Y-13497452D01*
X12209405Y-13487928D01*
X12199881Y-13468881D01*
X12190357Y-13430786D01*
X12190357Y-13383167D01*
X12199881Y-13345071D01*
X12209405Y-13326024D01*
X12218928Y-13316500D01*
X12237976Y-13306976D01*
X12390357Y-13487928D02*
X12399881Y-13497452D01*
X12390357Y-13506976D01*
X12380833Y-13497452D01*
X12390357Y-13487928D01*
X12390357Y-13506976D01*
X12523690Y-13306976D02*
X12542738Y-13306976D01*
X12561786Y-13316500D01*
X12571309Y-13326024D01*
X12580833Y-13345071D01*
X12590357Y-13383167D01*
X12590357Y-13430786D01*
X12580833Y-13468881D01*
X12571309Y-13487928D01*
X12561786Y-13497452D01*
X12542738Y-13506976D01*
X12523690Y-13506976D01*
X12504643Y-13497452D01*
X12495119Y-13487928D01*
X12485595Y-13468881D01*
X12476071Y-13430786D01*
X12476071Y-13383167D01*
X12485595Y-13345071D01*
X12495119Y-13326024D01*
X12504643Y-13316500D01*
X12523690Y-13306976D01*
X12657024Y-13306976D02*
X12780833Y-13306976D01*
X12714167Y-13383167D01*
X12742738Y-13383167D01*
X12761786Y-13392690D01*
X12771309Y-13402214D01*
X12780833Y-13421262D01*
X12780833Y-13468881D01*
X12771309Y-13487928D01*
X12761786Y-13497452D01*
X12742738Y-13506976D01*
X12685595Y-13506976D01*
X12666548Y-13497452D01*
X12657024Y-13487928D01*
X12876071Y-13506976D02*
X12914167Y-13506976D01*
X12933214Y-13497452D01*
X12942738Y-13487928D01*
X12961786Y-13459357D01*
X12971309Y-13421262D01*
X12971309Y-13345071D01*
X12961786Y-13326024D01*
X12952262Y-13316500D01*
X12933214Y-13306976D01*
X12895119Y-13306976D01*
X12876071Y-13316500D01*
X12866548Y-13326024D01*
X12857024Y-13345071D01*
X12857024Y-13392690D01*
X12866548Y-13411738D01*
X12876071Y-13421262D01*
X12895119Y-13430786D01*
X12933214Y-13430786D01*
X12952262Y-13421262D01*
X12961786Y-13411738D01*
X12971309Y-13392690D01*
X13142738Y-13373643D02*
X13142738Y-13506976D01*
X13095119Y-13297452D02*
X13047500Y-13440309D01*
X13171309Y-13440309D01*
X13237976Y-13306976D02*
X13237976Y-13345071D01*
X13314167Y-13306976D02*
X13314167Y-13345071D01*
X13609405Y-13583167D02*
X13599881Y-13573643D01*
X13580833Y-13545071D01*
X13571309Y-13526024D01*
X13561786Y-13497452D01*
X13552262Y-13449833D01*
X13552262Y-13411738D01*
X13561786Y-13364119D01*
X13571309Y-13335548D01*
X13580833Y-13316500D01*
X13599881Y-13287928D01*
X13609405Y-13278405D01*
X13666548Y-13306976D02*
X13790357Y-13306976D01*
X13723690Y-13383167D01*
X13752262Y-13383167D01*
X13771309Y-13392690D01*
X13780833Y-13402214D01*
X13790357Y-13421262D01*
X13790357Y-13468881D01*
X13780833Y-13487928D01*
X13771309Y-13497452D01*
X13752262Y-13506976D01*
X13695119Y-13506976D01*
X13676071Y-13497452D01*
X13666548Y-13487928D01*
X14028452Y-13506976D02*
X14028452Y-13306976D01*
X14114167Y-13506976D02*
X14114167Y-13402214D01*
X14104643Y-13383167D01*
X14085595Y-13373643D01*
X14057024Y-13373643D01*
X14037976Y-13383167D01*
X14028452Y-13392690D01*
X14237976Y-13506976D02*
X14218928Y-13497452D01*
X14209405Y-13487928D01*
X14199881Y-13468881D01*
X14199881Y-13411738D01*
X14209405Y-13392690D01*
X14218928Y-13383167D01*
X14237976Y-13373643D01*
X14266548Y-13373643D01*
X14285595Y-13383167D01*
X14295119Y-13392690D01*
X14304643Y-13411738D01*
X14304643Y-13468881D01*
X14295119Y-13487928D01*
X14285595Y-13497452D01*
X14266548Y-13506976D01*
X14237976Y-13506976D01*
X14418928Y-13506976D02*
X14399881Y-13497452D01*
X14390357Y-13478405D01*
X14390357Y-13306976D01*
X14571309Y-13497452D02*
X14552262Y-13506976D01*
X14514167Y-13506976D01*
X14495119Y-13497452D01*
X14485595Y-13478405D01*
X14485595Y-13402214D01*
X14495119Y-13383167D01*
X14514167Y-13373643D01*
X14552262Y-13373643D01*
X14571309Y-13383167D01*
X14580833Y-13402214D01*
X14580833Y-13421262D01*
X14485595Y-13440309D01*
X14657024Y-13497452D02*
X14676071Y-13506976D01*
X14714167Y-13506976D01*
X14733214Y-13497452D01*
X14742738Y-13478405D01*
X14742738Y-13468881D01*
X14733214Y-13449833D01*
X14714167Y-13440309D01*
X14685595Y-13440309D01*
X14666548Y-13430786D01*
X14657024Y-13411738D01*
X14657024Y-13402214D01*
X14666548Y-13383167D01*
X14685595Y-13373643D01*
X14714167Y-13373643D01*
X14733214Y-13383167D01*
X14809405Y-13583167D02*
X14818928Y-13573643D01*
X14837976Y-13545071D01*
X14847500Y-13526024D01*
X14857024Y-13497452D01*
X14866548Y-13449833D01*
X14866548Y-13411738D01*
X14857024Y-13364119D01*
X14847500Y-13335548D01*
X14837976Y-13316500D01*
X14818928Y-13287928D01*
X14809405Y-13278405D01*
X9937500Y-13580500D02*
X9937500Y-13780500D01*
X9837500Y-13680500D02*
X10037500Y-13680500D01*
X10285595Y-13590024D02*
X10295119Y-13580500D01*
X10314167Y-13570976D01*
X10361786Y-13570976D01*
X10380833Y-13580500D01*
X10390357Y-13590024D01*
X10399881Y-13609071D01*
X10399881Y-13628119D01*
X10390357Y-13656690D01*
X10276071Y-13770976D01*
X10399881Y-13770976D01*
X10485595Y-13751928D02*
X10495119Y-13761452D01*
X10485595Y-13770976D01*
X10476071Y-13761452D01*
X10485595Y-13751928D01*
X10485595Y-13770976D01*
X10571310Y-13590024D02*
X10580833Y-13580500D01*
X10599881Y-13570976D01*
X10647500Y-13570976D01*
X10666548Y-13580500D01*
X10676071Y-13590024D01*
X10685595Y-13609071D01*
X10685595Y-13628119D01*
X10676071Y-13656690D01*
X10561786Y-13770976D01*
X10685595Y-13770976D01*
X10809405Y-13570976D02*
X10828452Y-13570976D01*
X10847500Y-13580500D01*
X10857024Y-13590024D01*
X10866548Y-13609071D01*
X10876071Y-13647167D01*
X10876071Y-13694786D01*
X10866548Y-13732881D01*
X10857024Y-13751928D01*
X10847500Y-13761452D01*
X10828452Y-13770976D01*
X10809405Y-13770976D01*
X10790357Y-13761452D01*
X10780833Y-13751928D01*
X10771310Y-13732881D01*
X10761786Y-13694786D01*
X10761786Y-13647167D01*
X10771310Y-13609071D01*
X10780833Y-13590024D01*
X10790357Y-13580500D01*
X10809405Y-13570976D01*
X10999881Y-13570976D02*
X11018929Y-13570976D01*
X11037976Y-13580500D01*
X11047500Y-13590024D01*
X11057024Y-13609071D01*
X11066548Y-13647167D01*
X11066548Y-13694786D01*
X11057024Y-13732881D01*
X11047500Y-13751928D01*
X11037976Y-13761452D01*
X11018929Y-13770976D01*
X10999881Y-13770976D01*
X10980833Y-13761452D01*
X10971310Y-13751928D01*
X10961786Y-13732881D01*
X10952262Y-13694786D01*
X10952262Y-13647167D01*
X10961786Y-13609071D01*
X10971310Y-13590024D01*
X10980833Y-13580500D01*
X10999881Y-13570976D01*
X11152262Y-13770976D02*
X11152262Y-13637643D01*
X11152262Y-13656690D02*
X11161786Y-13647167D01*
X11180833Y-13637643D01*
X11209405Y-13637643D01*
X11228452Y-13647167D01*
X11237976Y-13666214D01*
X11237976Y-13770976D01*
X11237976Y-13666214D02*
X11247500Y-13647167D01*
X11266548Y-13637643D01*
X11295119Y-13637643D01*
X11314167Y-13647167D01*
X11323690Y-13666214D01*
X11323690Y-13770976D01*
X11418928Y-13770976D02*
X11418928Y-13637643D01*
X11418928Y-13656690D02*
X11428452Y-13647167D01*
X11447500Y-13637643D01*
X11476071Y-13637643D01*
X11495119Y-13647167D01*
X11504643Y-13666214D01*
X11504643Y-13770976D01*
X11504643Y-13666214D02*
X11514167Y-13647167D01*
X11533214Y-13637643D01*
X11561786Y-13637643D01*
X11580833Y-13647167D01*
X11590357Y-13666214D01*
X11590357Y-13770976D01*
X11980833Y-13561452D02*
X11809405Y-13818595D01*
X12237976Y-13570976D02*
X12257024Y-13570976D01*
X12276071Y-13580500D01*
X12285595Y-13590024D01*
X12295119Y-13609071D01*
X12304643Y-13647167D01*
X12304643Y-13694786D01*
X12295119Y-13732881D01*
X12285595Y-13751928D01*
X12276071Y-13761452D01*
X12257024Y-13770976D01*
X12237976Y-13770976D01*
X12218928Y-13761452D01*
X12209405Y-13751928D01*
X12199881Y-13732881D01*
X12190357Y-13694786D01*
X12190357Y-13647167D01*
X12199881Y-13609071D01*
X12209405Y-13590024D01*
X12218928Y-13580500D01*
X12237976Y-13570976D01*
X12390357Y-13751928D02*
X12399881Y-13761452D01*
X12390357Y-13770976D01*
X12380833Y-13761452D01*
X12390357Y-13751928D01*
X12390357Y-13770976D01*
X12523690Y-13570976D02*
X12542738Y-13570976D01*
X12561786Y-13580500D01*
X12571309Y-13590024D01*
X12580833Y-13609071D01*
X12590357Y-13647167D01*
X12590357Y-13694786D01*
X12580833Y-13732881D01*
X12571309Y-13751928D01*
X12561786Y-13761452D01*
X12542738Y-13770976D01*
X12523690Y-13770976D01*
X12504643Y-13761452D01*
X12495119Y-13751928D01*
X12485595Y-13732881D01*
X12476071Y-13694786D01*
X12476071Y-13647167D01*
X12485595Y-13609071D01*
X12495119Y-13590024D01*
X12504643Y-13580500D01*
X12523690Y-13570976D01*
X12704643Y-13656690D02*
X12685595Y-13647167D01*
X12676071Y-13637643D01*
X12666548Y-13618595D01*
X12666548Y-13609071D01*
X12676071Y-13590024D01*
X12685595Y-13580500D01*
X12704643Y-13570976D01*
X12742738Y-13570976D01*
X12761786Y-13580500D01*
X12771309Y-13590024D01*
X12780833Y-13609071D01*
X12780833Y-13618595D01*
X12771309Y-13637643D01*
X12761786Y-13647167D01*
X12742738Y-13656690D01*
X12704643Y-13656690D01*
X12685595Y-13666214D01*
X12676071Y-13675738D01*
X12666548Y-13694786D01*
X12666548Y-13732881D01*
X12676071Y-13751928D01*
X12685595Y-13761452D01*
X12704643Y-13770976D01*
X12742738Y-13770976D01*
X12761786Y-13761452D01*
X12771309Y-13751928D01*
X12780833Y-13732881D01*
X12780833Y-13694786D01*
X12771309Y-13675738D01*
X12761786Y-13666214D01*
X12742738Y-13656690D01*
X12952262Y-13570976D02*
X12914167Y-13570976D01*
X12895119Y-13580500D01*
X12885595Y-13590024D01*
X12866548Y-13618595D01*
X12857024Y-13656690D01*
X12857024Y-13732881D01*
X12866548Y-13751928D01*
X12876071Y-13761452D01*
X12895119Y-13770976D01*
X12933214Y-13770976D01*
X12952262Y-13761452D01*
X12961786Y-13751928D01*
X12971309Y-13732881D01*
X12971309Y-13685262D01*
X12961786Y-13666214D01*
X12952262Y-13656690D01*
X12933214Y-13647167D01*
X12895119Y-13647167D01*
X12876071Y-13656690D01*
X12866548Y-13666214D01*
X12857024Y-13685262D01*
X13142738Y-13570976D02*
X13104643Y-13570976D01*
X13085595Y-13580500D01*
X13076071Y-13590024D01*
X13057024Y-13618595D01*
X13047500Y-13656690D01*
X13047500Y-13732881D01*
X13057024Y-13751928D01*
X13066548Y-13761452D01*
X13085595Y-13770976D01*
X13123690Y-13770976D01*
X13142738Y-13761452D01*
X13152262Y-13751928D01*
X13161786Y-13732881D01*
X13161786Y-13685262D01*
X13152262Y-13666214D01*
X13142738Y-13656690D01*
X13123690Y-13647167D01*
X13085595Y-13647167D01*
X13066548Y-13656690D01*
X13057024Y-13666214D01*
X13047500Y-13685262D01*
X13237976Y-13570976D02*
X13237976Y-13609071D01*
X13314167Y-13570976D02*
X13314167Y-13609071D01*
X13609405Y-13847167D02*
X13599881Y-13837643D01*
X13580833Y-13809071D01*
X13571309Y-13790024D01*
X13561786Y-13761452D01*
X13552262Y-13713833D01*
X13552262Y-13675738D01*
X13561786Y-13628119D01*
X13571309Y-13599548D01*
X13580833Y-13580500D01*
X13599881Y-13551928D01*
X13609405Y-13542405D01*
X13676071Y-13590024D02*
X13685595Y-13580500D01*
X13704643Y-13570976D01*
X13752262Y-13570976D01*
X13771309Y-13580500D01*
X13780833Y-13590024D01*
X13790357Y-13609071D01*
X13790357Y-13628119D01*
X13780833Y-13656690D01*
X13666548Y-13770976D01*
X13790357Y-13770976D01*
X14028452Y-13770976D02*
X14028452Y-13570976D01*
X14114167Y-13770976D02*
X14114167Y-13666214D01*
X14104643Y-13647167D01*
X14085595Y-13637643D01*
X14057024Y-13637643D01*
X14037976Y-13647167D01*
X14028452Y-13656690D01*
X14237976Y-13770976D02*
X14218928Y-13761452D01*
X14209405Y-13751928D01*
X14199881Y-13732881D01*
X14199881Y-13675738D01*
X14209405Y-13656690D01*
X14218928Y-13647167D01*
X14237976Y-13637643D01*
X14266548Y-13637643D01*
X14285595Y-13647167D01*
X14295119Y-13656690D01*
X14304643Y-13675738D01*
X14304643Y-13732881D01*
X14295119Y-13751928D01*
X14285595Y-13761452D01*
X14266548Y-13770976D01*
X14237976Y-13770976D01*
X14418928Y-13770976D02*
X14399881Y-13761452D01*
X14390357Y-13742405D01*
X14390357Y-13570976D01*
X14571309Y-13761452D02*
X14552262Y-13770976D01*
X14514167Y-13770976D01*
X14495119Y-13761452D01*
X14485595Y-13742405D01*
X14485595Y-13666214D01*
X14495119Y-13647167D01*
X14514167Y-13637643D01*
X14552262Y-13637643D01*
X14571309Y-13647167D01*
X14580833Y-13666214D01*
X14580833Y-13685262D01*
X14485595Y-13704309D01*
X14657024Y-13761452D02*
X14676071Y-13770976D01*
X14714167Y-13770976D01*
X14733214Y-13761452D01*
X14742738Y-13742405D01*
X14742738Y-13732881D01*
X14733214Y-13713833D01*
X14714167Y-13704309D01*
X14685595Y-13704309D01*
X14666548Y-13694786D01*
X14657024Y-13675738D01*
X14657024Y-13666214D01*
X14666548Y-13647167D01*
X14685595Y-13637643D01*
X14714167Y-13637643D01*
X14733214Y-13647167D01*
X14809405Y-13847167D02*
X14818928Y-13837643D01*
X14837976Y-13809071D01*
X14847500Y-13790024D01*
X14857024Y-13761452D01*
X14866548Y-13713833D01*
X14866548Y-13675738D01*
X14857024Y-13628119D01*
X14847500Y-13599548D01*
X14837976Y-13580500D01*
X14818928Y-13551928D01*
X14809405Y-13542405D01*
D15*
X10011872Y-14062372D02*
X10011872Y-13938628D01*
X9888128Y-13938628D01*
X9888128Y-14062372D01*
X10011872Y-14062372D01*
D11*
X10399881Y-14090976D02*
X10285595Y-14090976D01*
X10342738Y-14090976D02*
X10342738Y-13890976D01*
X10323690Y-13919548D01*
X10304643Y-13938595D01*
X10285595Y-13948119D01*
X10485595Y-14071928D02*
X10495119Y-14081452D01*
X10485595Y-14090976D01*
X10476071Y-14081452D01*
X10485595Y-14071928D01*
X10485595Y-14090976D01*
X10561786Y-13890976D02*
X10695119Y-13890976D01*
X10609405Y-14090976D01*
X10866548Y-13890976D02*
X10771310Y-13890976D01*
X10761786Y-13986214D01*
X10771310Y-13976690D01*
X10790357Y-13967167D01*
X10837976Y-13967167D01*
X10857024Y-13976690D01*
X10866548Y-13986214D01*
X10876071Y-14005262D01*
X10876071Y-14052881D01*
X10866548Y-14071928D01*
X10857024Y-14081452D01*
X10837976Y-14090976D01*
X10790357Y-14090976D01*
X10771310Y-14081452D01*
X10761786Y-14071928D01*
X10999881Y-13890976D02*
X11018929Y-13890976D01*
X11037976Y-13900500D01*
X11047500Y-13910024D01*
X11057024Y-13929071D01*
X11066548Y-13967167D01*
X11066548Y-14014786D01*
X11057024Y-14052881D01*
X11047500Y-14071928D01*
X11037976Y-14081452D01*
X11018929Y-14090976D01*
X10999881Y-14090976D01*
X10980833Y-14081452D01*
X10971310Y-14071928D01*
X10961786Y-14052881D01*
X10952262Y-14014786D01*
X10952262Y-13967167D01*
X10961786Y-13929071D01*
X10971310Y-13910024D01*
X10980833Y-13900500D01*
X10999881Y-13890976D01*
X11152262Y-14090976D02*
X11152262Y-13957643D01*
X11152262Y-13976690D02*
X11161786Y-13967167D01*
X11180833Y-13957643D01*
X11209405Y-13957643D01*
X11228452Y-13967167D01*
X11237976Y-13986214D01*
X11237976Y-14090976D01*
X11237976Y-13986214D02*
X11247500Y-13967167D01*
X11266548Y-13957643D01*
X11295119Y-13957643D01*
X11314167Y-13967167D01*
X11323690Y-13986214D01*
X11323690Y-14090976D01*
X11418928Y-14090976D02*
X11418928Y-13957643D01*
X11418928Y-13976690D02*
X11428452Y-13967167D01*
X11447500Y-13957643D01*
X11476071Y-13957643D01*
X11495119Y-13967167D01*
X11504643Y-13986214D01*
X11504643Y-14090976D01*
X11504643Y-13986214D02*
X11514167Y-13967167D01*
X11533214Y-13957643D01*
X11561786Y-13957643D01*
X11580833Y-13967167D01*
X11590357Y-13986214D01*
X11590357Y-14090976D01*
X11980833Y-13881452D02*
X11809405Y-14138595D01*
X12237976Y-13890976D02*
X12257024Y-13890976D01*
X12276071Y-13900500D01*
X12285595Y-13910024D01*
X12295119Y-13929071D01*
X12304643Y-13967167D01*
X12304643Y-14014786D01*
X12295119Y-14052881D01*
X12285595Y-14071928D01*
X12276071Y-14081452D01*
X12257024Y-14090976D01*
X12237976Y-14090976D01*
X12218928Y-14081452D01*
X12209405Y-14071928D01*
X12199881Y-14052881D01*
X12190357Y-14014786D01*
X12190357Y-13967167D01*
X12199881Y-13929071D01*
X12209405Y-13910024D01*
X12218928Y-13900500D01*
X12237976Y-13890976D01*
X12390357Y-14071928D02*
X12399881Y-14081452D01*
X12390357Y-14090976D01*
X12380833Y-14081452D01*
X12390357Y-14071928D01*
X12390357Y-14090976D01*
X12523690Y-13890976D02*
X12542738Y-13890976D01*
X12561786Y-13900500D01*
X12571309Y-13910024D01*
X12580833Y-13929071D01*
X12590357Y-13967167D01*
X12590357Y-14014786D01*
X12580833Y-14052881D01*
X12571309Y-14071928D01*
X12561786Y-14081452D01*
X12542738Y-14090976D01*
X12523690Y-14090976D01*
X12504643Y-14081452D01*
X12495119Y-14071928D01*
X12485595Y-14052881D01*
X12476071Y-14014786D01*
X12476071Y-13967167D01*
X12485595Y-13929071D01*
X12495119Y-13910024D01*
X12504643Y-13900500D01*
X12523690Y-13890976D01*
X12761786Y-13890976D02*
X12723690Y-13890976D01*
X12704643Y-13900500D01*
X12695119Y-13910024D01*
X12676071Y-13938595D01*
X12666548Y-13976690D01*
X12666548Y-14052881D01*
X12676071Y-14071928D01*
X12685595Y-14081452D01*
X12704643Y-14090976D01*
X12742738Y-14090976D01*
X12761786Y-14081452D01*
X12771309Y-14071928D01*
X12780833Y-14052881D01*
X12780833Y-14005262D01*
X12771309Y-13986214D01*
X12761786Y-13976690D01*
X12742738Y-13967167D01*
X12704643Y-13967167D01*
X12685595Y-13976690D01*
X12676071Y-13986214D01*
X12666548Y-14005262D01*
X12895119Y-13976690D02*
X12876071Y-13967167D01*
X12866548Y-13957643D01*
X12857024Y-13938595D01*
X12857024Y-13929071D01*
X12866548Y-13910024D01*
X12876071Y-13900500D01*
X12895119Y-13890976D01*
X12933214Y-13890976D01*
X12952262Y-13900500D01*
X12961786Y-13910024D01*
X12971309Y-13929071D01*
X12971309Y-13938595D01*
X12961786Y-13957643D01*
X12952262Y-13967167D01*
X12933214Y-13976690D01*
X12895119Y-13976690D01*
X12876071Y-13986214D01*
X12866548Y-13995738D01*
X12857024Y-14014786D01*
X12857024Y-14052881D01*
X12866548Y-14071928D01*
X12876071Y-14081452D01*
X12895119Y-14090976D01*
X12933214Y-14090976D01*
X12952262Y-14081452D01*
X12961786Y-14071928D01*
X12971309Y-14052881D01*
X12971309Y-14014786D01*
X12961786Y-13995738D01*
X12952262Y-13986214D01*
X12933214Y-13976690D01*
X13066548Y-14090976D02*
X13104643Y-14090976D01*
X13123690Y-14081452D01*
X13133214Y-14071928D01*
X13152262Y-14043357D01*
X13161786Y-14005262D01*
X13161786Y-13929071D01*
X13152262Y-13910024D01*
X13142738Y-13900500D01*
X13123690Y-13890976D01*
X13085595Y-13890976D01*
X13066548Y-13900500D01*
X13057024Y-13910024D01*
X13047500Y-13929071D01*
X13047500Y-13976690D01*
X13057024Y-13995738D01*
X13066548Y-14005262D01*
X13085595Y-14014786D01*
X13123690Y-14014786D01*
X13142738Y-14005262D01*
X13152262Y-13995738D01*
X13161786Y-13976690D01*
X13237976Y-13890976D02*
X13237976Y-13929071D01*
X13314167Y-13890976D02*
X13314167Y-13929071D01*
X13609405Y-14167167D02*
X13599881Y-14157643D01*
X13580833Y-14129071D01*
X13571309Y-14110024D01*
X13561786Y-14081452D01*
X13552262Y-14033833D01*
X13552262Y-13995738D01*
X13561786Y-13948119D01*
X13571309Y-13919548D01*
X13580833Y-13900500D01*
X13599881Y-13871928D01*
X13609405Y-13862405D01*
X13714167Y-13976690D02*
X13695119Y-13967167D01*
X13685595Y-13957643D01*
X13676071Y-13938595D01*
X13676071Y-13929071D01*
X13685595Y-13910024D01*
X13695119Y-13900500D01*
X13714167Y-13890976D01*
X13752262Y-13890976D01*
X13771309Y-13900500D01*
X13780833Y-13910024D01*
X13790357Y-13929071D01*
X13790357Y-13938595D01*
X13780833Y-13957643D01*
X13771309Y-13967167D01*
X13752262Y-13976690D01*
X13714167Y-13976690D01*
X13695119Y-13986214D01*
X13685595Y-13995738D01*
X13676071Y-14014786D01*
X13676071Y-14052881D01*
X13685595Y-14071928D01*
X13695119Y-14081452D01*
X13714167Y-14090976D01*
X13752262Y-14090976D01*
X13771309Y-14081452D01*
X13780833Y-14071928D01*
X13790357Y-14052881D01*
X13790357Y-14014786D01*
X13780833Y-13995738D01*
X13771309Y-13986214D01*
X13752262Y-13976690D01*
X14028452Y-14090976D02*
X14028452Y-13890976D01*
X14114167Y-14090976D02*
X14114167Y-13986214D01*
X14104643Y-13967167D01*
X14085595Y-13957643D01*
X14057024Y-13957643D01*
X14037976Y-13967167D01*
X14028452Y-13976690D01*
X14237976Y-14090976D02*
X14218928Y-14081452D01*
X14209405Y-14071928D01*
X14199881Y-14052881D01*
X14199881Y-13995738D01*
X14209405Y-13976690D01*
X14218928Y-13967167D01*
X14237976Y-13957643D01*
X14266548Y-13957643D01*
X14285595Y-13967167D01*
X14295119Y-13976690D01*
X14304643Y-13995738D01*
X14304643Y-14052881D01*
X14295119Y-14071928D01*
X14285595Y-14081452D01*
X14266548Y-14090976D01*
X14237976Y-14090976D01*
X14418928Y-14090976D02*
X14399881Y-14081452D01*
X14390357Y-14062405D01*
X14390357Y-13890976D01*
X14571309Y-14081452D02*
X14552262Y-14090976D01*
X14514167Y-14090976D01*
X14495119Y-14081452D01*
X14485595Y-14062405D01*
X14485595Y-13986214D01*
X14495119Y-13967167D01*
X14514167Y-13957643D01*
X14552262Y-13957643D01*
X14571309Y-13967167D01*
X14580833Y-13986214D01*
X14580833Y-14005262D01*
X14485595Y-14024309D01*
X14657024Y-14081452D02*
X14676071Y-14090976D01*
X14714167Y-14090976D01*
X14733214Y-14081452D01*
X14742738Y-14062405D01*
X14742738Y-14052881D01*
X14733214Y-14033833D01*
X14714167Y-14024309D01*
X14685595Y-14024309D01*
X14666548Y-14014786D01*
X14657024Y-13995738D01*
X14657024Y-13986214D01*
X14666548Y-13967167D01*
X14685595Y-13957643D01*
X14714167Y-13957643D01*
X14733214Y-13967167D01*
X14809405Y-14167167D02*
X14818928Y-14157643D01*
X14837976Y-14129071D01*
X14847500Y-14110024D01*
X14857024Y-14081452D01*
X14866548Y-14033833D01*
X14866548Y-13995738D01*
X14857024Y-13948119D01*
X14847500Y-13919548D01*
X14837976Y-13900500D01*
X14818928Y-13871928D01*
X14809405Y-13862405D01*
X15171309Y-14167167D02*
X15161786Y-14157643D01*
X15142738Y-14129071D01*
X15133214Y-14110024D01*
X15123690Y-14081452D01*
X15114167Y-14033833D01*
X15114167Y-13995738D01*
X15123690Y-13948119D01*
X15133214Y-13919548D01*
X15142738Y-13900500D01*
X15161786Y-13871928D01*
X15171309Y-13862405D01*
X15247500Y-13957643D02*
X15247500Y-14090976D01*
X15247500Y-13976690D02*
X15257024Y-13967167D01*
X15276071Y-13957643D01*
X15304643Y-13957643D01*
X15323690Y-13967167D01*
X15333214Y-13986214D01*
X15333214Y-14090976D01*
X15457024Y-14090976D02*
X15437976Y-14081452D01*
X15428452Y-14071928D01*
X15418928Y-14052881D01*
X15418928Y-13995738D01*
X15428452Y-13976690D01*
X15437976Y-13967167D01*
X15457024Y-13957643D01*
X15485595Y-13957643D01*
X15504643Y-13967167D01*
X15514167Y-13976690D01*
X15523690Y-13995738D01*
X15523690Y-14052881D01*
X15514167Y-14071928D01*
X15504643Y-14081452D01*
X15485595Y-14090976D01*
X15457024Y-14090976D01*
X15580833Y-13957643D02*
X15657024Y-13957643D01*
X15609405Y-13890976D02*
X15609405Y-14062405D01*
X15618928Y-14081452D01*
X15637976Y-14090976D01*
X15657024Y-14090976D01*
X15876071Y-13957643D02*
X15876071Y-14157643D01*
X15876071Y-13967167D02*
X15895119Y-13957643D01*
X15933214Y-13957643D01*
X15952262Y-13967167D01*
X15961786Y-13976690D01*
X15971309Y-13995738D01*
X15971309Y-14052881D01*
X15961786Y-14071928D01*
X15952262Y-14081452D01*
X15933214Y-14090976D01*
X15895119Y-14090976D01*
X15876071Y-14081452D01*
X16085595Y-14090976D02*
X16066548Y-14081452D01*
X16057024Y-14062405D01*
X16057024Y-13890976D01*
X16247500Y-14090976D02*
X16247500Y-13986214D01*
X16237976Y-13967167D01*
X16218928Y-13957643D01*
X16180833Y-13957643D01*
X16161786Y-13967167D01*
X16247500Y-14081452D02*
X16228452Y-14090976D01*
X16180833Y-14090976D01*
X16161786Y-14081452D01*
X16152262Y-14062405D01*
X16152262Y-14043357D01*
X16161786Y-14024309D01*
X16180833Y-14014786D01*
X16228452Y-14014786D01*
X16247500Y-14005262D01*
X16314167Y-13957643D02*
X16390357Y-13957643D01*
X16342738Y-13890976D02*
X16342738Y-14062405D01*
X16352262Y-14081452D01*
X16371309Y-14090976D01*
X16390357Y-14090976D01*
X16533214Y-14081452D02*
X16514167Y-14090976D01*
X16476071Y-14090976D01*
X16457024Y-14081452D01*
X16447500Y-14062405D01*
X16447500Y-13986214D01*
X16457024Y-13967167D01*
X16476071Y-13957643D01*
X16514167Y-13957643D01*
X16533214Y-13967167D01*
X16542738Y-13986214D01*
X16542738Y-14005262D01*
X16447500Y-14024309D01*
X16714167Y-14090976D02*
X16714167Y-13890976D01*
X16714167Y-14081452D02*
X16695119Y-14090976D01*
X16657024Y-14090976D01*
X16637976Y-14081452D01*
X16628452Y-14071928D01*
X16618928Y-14052881D01*
X16618928Y-13995738D01*
X16628452Y-13976690D01*
X16637976Y-13967167D01*
X16657024Y-13957643D01*
X16695119Y-13957643D01*
X16714167Y-13967167D01*
X16790357Y-14167167D02*
X16799881Y-14157643D01*
X16818929Y-14129071D01*
X16828452Y-14110024D01*
X16837976Y-14081452D01*
X16847500Y-14033833D01*
X16847500Y-13995738D01*
X16837976Y-13948119D01*
X16828452Y-13919548D01*
X16818929Y-13900500D01*
X16799881Y-13871928D01*
X16790357Y-13862405D01*
X9937500Y-14395500D02*
X10037500Y-14295500D01*
X9937500Y-14195500D01*
X9837500Y-14295500D01*
X9937500Y-14395500D01*
X10276071Y-14185976D02*
X10399881Y-14185976D01*
X10333214Y-14262167D01*
X10361786Y-14262167D01*
X10380833Y-14271690D01*
X10390357Y-14281214D01*
X10399881Y-14300262D01*
X10399881Y-14347881D01*
X10390357Y-14366928D01*
X10380833Y-14376452D01*
X10361786Y-14385976D01*
X10304643Y-14385976D01*
X10285595Y-14376452D01*
X10276071Y-14366928D01*
X10485595Y-14366928D02*
X10495119Y-14376452D01*
X10485595Y-14385976D01*
X10476071Y-14376452D01*
X10485595Y-14366928D01*
X10485595Y-14385976D01*
X10618929Y-14185976D02*
X10637976Y-14185976D01*
X10657024Y-14195500D01*
X10666548Y-14205024D01*
X10676071Y-14224071D01*
X10685595Y-14262167D01*
X10685595Y-14309786D01*
X10676071Y-14347881D01*
X10666548Y-14366928D01*
X10657024Y-14376452D01*
X10637976Y-14385976D01*
X10618929Y-14385976D01*
X10599881Y-14376452D01*
X10590357Y-14366928D01*
X10580833Y-14347881D01*
X10571310Y-14309786D01*
X10571310Y-14262167D01*
X10580833Y-14224071D01*
X10590357Y-14205024D01*
X10599881Y-14195500D01*
X10618929Y-14185976D01*
X10866548Y-14185976D02*
X10771310Y-14185976D01*
X10761786Y-14281214D01*
X10771310Y-14271690D01*
X10790357Y-14262167D01*
X10837976Y-14262167D01*
X10857024Y-14271690D01*
X10866548Y-14281214D01*
X10876071Y-14300262D01*
X10876071Y-14347881D01*
X10866548Y-14366928D01*
X10857024Y-14376452D01*
X10837976Y-14385976D01*
X10790357Y-14385976D01*
X10771310Y-14376452D01*
X10761786Y-14366928D01*
X10999881Y-14185976D02*
X11018929Y-14185976D01*
X11037976Y-14195500D01*
X11047500Y-14205024D01*
X11057024Y-14224071D01*
X11066548Y-14262167D01*
X11066548Y-14309786D01*
X11057024Y-14347881D01*
X11047500Y-14366928D01*
X11037976Y-14376452D01*
X11018929Y-14385976D01*
X10999881Y-14385976D01*
X10980833Y-14376452D01*
X10971310Y-14366928D01*
X10961786Y-14347881D01*
X10952262Y-14309786D01*
X10952262Y-14262167D01*
X10961786Y-14224071D01*
X10971310Y-14205024D01*
X10980833Y-14195500D01*
X10999881Y-14185976D01*
X11152262Y-14385976D02*
X11152262Y-14252643D01*
X11152262Y-14271690D02*
X11161786Y-14262167D01*
X11180833Y-14252643D01*
X11209405Y-14252643D01*
X11228452Y-14262167D01*
X11237976Y-14281214D01*
X11237976Y-14385976D01*
X11237976Y-14281214D02*
X11247500Y-14262167D01*
X11266548Y-14252643D01*
X11295119Y-14252643D01*
X11314167Y-14262167D01*
X11323690Y-14281214D01*
X11323690Y-14385976D01*
X11418928Y-14385976D02*
X11418928Y-14252643D01*
X11418928Y-14271690D02*
X11428452Y-14262167D01*
X11447500Y-14252643D01*
X11476071Y-14252643D01*
X11495119Y-14262167D01*
X11504643Y-14281214D01*
X11504643Y-14385976D01*
X11504643Y-14281214D02*
X11514167Y-14262167D01*
X11533214Y-14252643D01*
X11561786Y-14252643D01*
X11580833Y-14262167D01*
X11590357Y-14281214D01*
X11590357Y-14385976D01*
X11980833Y-14176452D02*
X11809405Y-14433595D01*
X12237976Y-14185976D02*
X12257024Y-14185976D01*
X12276071Y-14195500D01*
X12285595Y-14205024D01*
X12295119Y-14224071D01*
X12304643Y-14262167D01*
X12304643Y-14309786D01*
X12295119Y-14347881D01*
X12285595Y-14366928D01*
X12276071Y-14376452D01*
X12257024Y-14385976D01*
X12237976Y-14385976D01*
X12218928Y-14376452D01*
X12209405Y-14366928D01*
X12199881Y-14347881D01*
X12190357Y-14309786D01*
X12190357Y-14262167D01*
X12199881Y-14224071D01*
X12209405Y-14205024D01*
X12218928Y-14195500D01*
X12237976Y-14185976D01*
X12390357Y-14366928D02*
X12399881Y-14376452D01*
X12390357Y-14385976D01*
X12380833Y-14376452D01*
X12390357Y-14366928D01*
X12390357Y-14385976D01*
X12590357Y-14385976D02*
X12476071Y-14385976D01*
X12533214Y-14385976D02*
X12533214Y-14185976D01*
X12514167Y-14214548D01*
X12495119Y-14233595D01*
X12476071Y-14243119D01*
X12666548Y-14205024D02*
X12676071Y-14195500D01*
X12695119Y-14185976D01*
X12742738Y-14185976D01*
X12761786Y-14195500D01*
X12771309Y-14205024D01*
X12780833Y-14224071D01*
X12780833Y-14243119D01*
X12771309Y-14271690D01*
X12657024Y-14385976D01*
X12780833Y-14385976D01*
X12904643Y-14185976D02*
X12923690Y-14185976D01*
X12942738Y-14195500D01*
X12952262Y-14205024D01*
X12961786Y-14224071D01*
X12971309Y-14262167D01*
X12971309Y-14309786D01*
X12961786Y-14347881D01*
X12952262Y-14366928D01*
X12942738Y-14376452D01*
X12923690Y-14385976D01*
X12904643Y-14385976D01*
X12885595Y-14376452D01*
X12876071Y-14366928D01*
X12866548Y-14347881D01*
X12857024Y-14309786D01*
X12857024Y-14262167D01*
X12866548Y-14224071D01*
X12876071Y-14205024D01*
X12885595Y-14195500D01*
X12904643Y-14185976D01*
X13161786Y-14385976D02*
X13047500Y-14385976D01*
X13104643Y-14385976D02*
X13104643Y-14185976D01*
X13085595Y-14214548D01*
X13066548Y-14233595D01*
X13047500Y-14243119D01*
X13237976Y-14185976D02*
X13237976Y-14224071D01*
X13314167Y-14185976D02*
X13314167Y-14224071D01*
X13609405Y-14462167D02*
X13599881Y-14452643D01*
X13580833Y-14424071D01*
X13571309Y-14405024D01*
X13561786Y-14376452D01*
X13552262Y-14328833D01*
X13552262Y-14290738D01*
X13561786Y-14243119D01*
X13571309Y-14214548D01*
X13580833Y-14195500D01*
X13599881Y-14166928D01*
X13609405Y-14157405D01*
X13771309Y-14252643D02*
X13771309Y-14385976D01*
X13723690Y-14176452D02*
X13676071Y-14319309D01*
X13799881Y-14319309D01*
X14028452Y-14385976D02*
X14028452Y-14185976D01*
X14114167Y-14385976D02*
X14114167Y-14281214D01*
X14104643Y-14262167D01*
X14085595Y-14252643D01*
X14057024Y-14252643D01*
X14037976Y-14262167D01*
X14028452Y-14271690D01*
X14237976Y-14385976D02*
X14218928Y-14376452D01*
X14209405Y-14366928D01*
X14199881Y-14347881D01*
X14199881Y-14290738D01*
X14209405Y-14271690D01*
X14218928Y-14262167D01*
X14237976Y-14252643D01*
X14266548Y-14252643D01*
X14285595Y-14262167D01*
X14295119Y-14271690D01*
X14304643Y-14290738D01*
X14304643Y-14347881D01*
X14295119Y-14366928D01*
X14285595Y-14376452D01*
X14266548Y-14385976D01*
X14237976Y-14385976D01*
X14418928Y-14385976D02*
X14399881Y-14376452D01*
X14390357Y-14357405D01*
X14390357Y-14185976D01*
X14571309Y-14376452D02*
X14552262Y-14385976D01*
X14514167Y-14385976D01*
X14495119Y-14376452D01*
X14485595Y-14357405D01*
X14485595Y-14281214D01*
X14495119Y-14262167D01*
X14514167Y-14252643D01*
X14552262Y-14252643D01*
X14571309Y-14262167D01*
X14580833Y-14281214D01*
X14580833Y-14300262D01*
X14485595Y-14319309D01*
X14657024Y-14376452D02*
X14676071Y-14385976D01*
X14714167Y-14385976D01*
X14733214Y-14376452D01*
X14742738Y-14357405D01*
X14742738Y-14347881D01*
X14733214Y-14328833D01*
X14714167Y-14319309D01*
X14685595Y-14319309D01*
X14666548Y-14309786D01*
X14657024Y-14290738D01*
X14657024Y-14281214D01*
X14666548Y-14262167D01*
X14685595Y-14252643D01*
X14714167Y-14252643D01*
X14733214Y-14262167D01*
X14809405Y-14462167D02*
X14818928Y-14452643D01*
X14837976Y-14424071D01*
X14847500Y-14405024D01*
X14857024Y-14376452D01*
X14866548Y-14328833D01*
X14866548Y-14290738D01*
X14857024Y-14243119D01*
X14847500Y-14214548D01*
X14837976Y-14195500D01*
X14818928Y-14166928D01*
X14809405Y-14157405D01*
X15171309Y-14462167D02*
X15161786Y-14452643D01*
X15142738Y-14424071D01*
X15133214Y-14405024D01*
X15123690Y-14376452D01*
X15114167Y-14328833D01*
X15114167Y-14290738D01*
X15123690Y-14243119D01*
X15133214Y-14214548D01*
X15142738Y-14195500D01*
X15161786Y-14166928D01*
X15171309Y-14157405D01*
X15247500Y-14252643D02*
X15247500Y-14385976D01*
X15247500Y-14271690D02*
X15257024Y-14262167D01*
X15276071Y-14252643D01*
X15304643Y-14252643D01*
X15323690Y-14262167D01*
X15333214Y-14281214D01*
X15333214Y-14385976D01*
X15457024Y-14385976D02*
X15437976Y-14376452D01*
X15428452Y-14366928D01*
X15418928Y-14347881D01*
X15418928Y-14290738D01*
X15428452Y-14271690D01*
X15437976Y-14262167D01*
X15457024Y-14252643D01*
X15485595Y-14252643D01*
X15504643Y-14262167D01*
X15514167Y-14271690D01*
X15523690Y-14290738D01*
X15523690Y-14347881D01*
X15514167Y-14366928D01*
X15504643Y-14376452D01*
X15485595Y-14385976D01*
X15457024Y-14385976D01*
X15580833Y-14252643D02*
X15657024Y-14252643D01*
X15609405Y-14185976D02*
X15609405Y-14357405D01*
X15618928Y-14376452D01*
X15637976Y-14385976D01*
X15657024Y-14385976D01*
X15876071Y-14252643D02*
X15876071Y-14452643D01*
X15876071Y-14262167D02*
X15895119Y-14252643D01*
X15933214Y-14252643D01*
X15952262Y-14262167D01*
X15961786Y-14271690D01*
X15971309Y-14290738D01*
X15971309Y-14347881D01*
X15961786Y-14366928D01*
X15952262Y-14376452D01*
X15933214Y-14385976D01*
X15895119Y-14385976D01*
X15876071Y-14376452D01*
X16085595Y-14385976D02*
X16066548Y-14376452D01*
X16057024Y-14357405D01*
X16057024Y-14185976D01*
X16247500Y-14385976D02*
X16247500Y-14281214D01*
X16237976Y-14262167D01*
X16218928Y-14252643D01*
X16180833Y-14252643D01*
X16161786Y-14262167D01*
X16247500Y-14376452D02*
X16228452Y-14385976D01*
X16180833Y-14385976D01*
X16161786Y-14376452D01*
X16152262Y-14357405D01*
X16152262Y-14338357D01*
X16161786Y-14319309D01*
X16180833Y-14309786D01*
X16228452Y-14309786D01*
X16247500Y-14300262D01*
X16314167Y-14252643D02*
X16390357Y-14252643D01*
X16342738Y-14185976D02*
X16342738Y-14357405D01*
X16352262Y-14376452D01*
X16371309Y-14385976D01*
X16390357Y-14385976D01*
X16533214Y-14376452D02*
X16514167Y-14385976D01*
X16476071Y-14385976D01*
X16457024Y-14376452D01*
X16447500Y-14357405D01*
X16447500Y-14281214D01*
X16457024Y-14262167D01*
X16476071Y-14252643D01*
X16514167Y-14252643D01*
X16533214Y-14262167D01*
X16542738Y-14281214D01*
X16542738Y-14300262D01*
X16447500Y-14319309D01*
X16714167Y-14385976D02*
X16714167Y-14185976D01*
X16714167Y-14376452D02*
X16695119Y-14385976D01*
X16657024Y-14385976D01*
X16637976Y-14376452D01*
X16628452Y-14366928D01*
X16618928Y-14347881D01*
X16618928Y-14290738D01*
X16628452Y-14271690D01*
X16637976Y-14262167D01*
X16657024Y-14252643D01*
X16695119Y-14252643D01*
X16714167Y-14262167D01*
X16790357Y-14462167D02*
X16799881Y-14452643D01*
X16818929Y-14424071D01*
X16828452Y-14405024D01*
X16837976Y-14376452D01*
X16847500Y-14328833D01*
X16847500Y-14290738D01*
X16837976Y-14243119D01*
X16828452Y-14214548D01*
X16818929Y-14195500D01*
X16799881Y-14166928D01*
X16790357Y-14157405D01*
X9837500Y-14515500D02*
X10037500Y-14715500D01*
X10037500Y-14515500D02*
X9837500Y-14715500D01*
X10037500Y-14615500D02*
G75*
G03*
X10037500Y-14615500I-100000J0D01*
G01*
X10380833Y-14572643D02*
X10380833Y-14705976D01*
X10333214Y-14496452D02*
X10285595Y-14639309D01*
X10409405Y-14639309D01*
X10485595Y-14686928D02*
X10495119Y-14696452D01*
X10485595Y-14705976D01*
X10476071Y-14696452D01*
X10485595Y-14686928D01*
X10485595Y-14705976D01*
X10618929Y-14505976D02*
X10637976Y-14505976D01*
X10657024Y-14515500D01*
X10666548Y-14525024D01*
X10676071Y-14544071D01*
X10685595Y-14582167D01*
X10685595Y-14629786D01*
X10676071Y-14667881D01*
X10666548Y-14686928D01*
X10657024Y-14696452D01*
X10637976Y-14705976D01*
X10618929Y-14705976D01*
X10599881Y-14696452D01*
X10590357Y-14686928D01*
X10580833Y-14667881D01*
X10571310Y-14629786D01*
X10571310Y-14582167D01*
X10580833Y-14544071D01*
X10590357Y-14525024D01*
X10599881Y-14515500D01*
X10618929Y-14505976D01*
X10809405Y-14505976D02*
X10828452Y-14505976D01*
X10847500Y-14515500D01*
X10857024Y-14525024D01*
X10866548Y-14544071D01*
X10876071Y-14582167D01*
X10876071Y-14629786D01*
X10866548Y-14667881D01*
X10857024Y-14686928D01*
X10847500Y-14696452D01*
X10828452Y-14705976D01*
X10809405Y-14705976D01*
X10790357Y-14696452D01*
X10780833Y-14686928D01*
X10771310Y-14667881D01*
X10761786Y-14629786D01*
X10761786Y-14582167D01*
X10771310Y-14544071D01*
X10780833Y-14525024D01*
X10790357Y-14515500D01*
X10809405Y-14505976D01*
X10999881Y-14505976D02*
X11018929Y-14505976D01*
X11037976Y-14515500D01*
X11047500Y-14525024D01*
X11057024Y-14544071D01*
X11066548Y-14582167D01*
X11066548Y-14629786D01*
X11057024Y-14667881D01*
X11047500Y-14686928D01*
X11037976Y-14696452D01*
X11018929Y-14705976D01*
X10999881Y-14705976D01*
X10980833Y-14696452D01*
X10971310Y-14686928D01*
X10961786Y-14667881D01*
X10952262Y-14629786D01*
X10952262Y-14582167D01*
X10961786Y-14544071D01*
X10971310Y-14525024D01*
X10980833Y-14515500D01*
X10999881Y-14505976D01*
X11152262Y-14705976D02*
X11152262Y-14572643D01*
X11152262Y-14591690D02*
X11161786Y-14582167D01*
X11180833Y-14572643D01*
X11209405Y-14572643D01*
X11228452Y-14582167D01*
X11237976Y-14601214D01*
X11237976Y-14705976D01*
X11237976Y-14601214D02*
X11247500Y-14582167D01*
X11266548Y-14572643D01*
X11295119Y-14572643D01*
X11314167Y-14582167D01*
X11323690Y-14601214D01*
X11323690Y-14705976D01*
X11418928Y-14705976D02*
X11418928Y-14572643D01*
X11418928Y-14591690D02*
X11428452Y-14582167D01*
X11447500Y-14572643D01*
X11476071Y-14572643D01*
X11495119Y-14582167D01*
X11504643Y-14601214D01*
X11504643Y-14705976D01*
X11504643Y-14601214D02*
X11514167Y-14582167D01*
X11533214Y-14572643D01*
X11561786Y-14572643D01*
X11580833Y-14582167D01*
X11590357Y-14601214D01*
X11590357Y-14705976D01*
X11980833Y-14496452D02*
X11809405Y-14753595D01*
X12237976Y-14505976D02*
X12257024Y-14505976D01*
X12276071Y-14515500D01*
X12285595Y-14525024D01*
X12295119Y-14544071D01*
X12304643Y-14582167D01*
X12304643Y-14629786D01*
X12295119Y-14667881D01*
X12285595Y-14686928D01*
X12276071Y-14696452D01*
X12257024Y-14705976D01*
X12237976Y-14705976D01*
X12218928Y-14696452D01*
X12209405Y-14686928D01*
X12199881Y-14667881D01*
X12190357Y-14629786D01*
X12190357Y-14582167D01*
X12199881Y-14544071D01*
X12209405Y-14525024D01*
X12218928Y-14515500D01*
X12237976Y-14505976D01*
X12390357Y-14686928D02*
X12399881Y-14696452D01*
X12390357Y-14705976D01*
X12380833Y-14696452D01*
X12390357Y-14686928D01*
X12390357Y-14705976D01*
X12590357Y-14705976D02*
X12476071Y-14705976D01*
X12533214Y-14705976D02*
X12533214Y-14505976D01*
X12514167Y-14534548D01*
X12495119Y-14553595D01*
X12476071Y-14563119D01*
X12771309Y-14505976D02*
X12676071Y-14505976D01*
X12666548Y-14601214D01*
X12676071Y-14591690D01*
X12695119Y-14582167D01*
X12742738Y-14582167D01*
X12761786Y-14591690D01*
X12771309Y-14601214D01*
X12780833Y-14620262D01*
X12780833Y-14667881D01*
X12771309Y-14686928D01*
X12761786Y-14696452D01*
X12742738Y-14705976D01*
X12695119Y-14705976D01*
X12676071Y-14696452D01*
X12666548Y-14686928D01*
X12847500Y-14505976D02*
X12980833Y-14505976D01*
X12895119Y-14705976D01*
X13152262Y-14505976D02*
X13057024Y-14505976D01*
X13047500Y-14601214D01*
X13057024Y-14591690D01*
X13076071Y-14582167D01*
X13123690Y-14582167D01*
X13142738Y-14591690D01*
X13152262Y-14601214D01*
X13161786Y-14620262D01*
X13161786Y-14667881D01*
X13152262Y-14686928D01*
X13142738Y-14696452D01*
X13123690Y-14705976D01*
X13076071Y-14705976D01*
X13057024Y-14696452D01*
X13047500Y-14686928D01*
X13237976Y-14505976D02*
X13237976Y-14544071D01*
X13314167Y-14505976D02*
X13314167Y-14544071D01*
X13609405Y-14782167D02*
X13599881Y-14772643D01*
X13580833Y-14744071D01*
X13571309Y-14725024D01*
X13561786Y-14696452D01*
X13552262Y-14648833D01*
X13552262Y-14610738D01*
X13561786Y-14563119D01*
X13571309Y-14534548D01*
X13580833Y-14515500D01*
X13599881Y-14486928D01*
X13609405Y-14477405D01*
X13676071Y-14525024D02*
X13685595Y-14515500D01*
X13704643Y-14505976D01*
X13752262Y-14505976D01*
X13771309Y-14515500D01*
X13780833Y-14525024D01*
X13790357Y-14544071D01*
X13790357Y-14563119D01*
X13780833Y-14591690D01*
X13666548Y-14705976D01*
X13790357Y-14705976D01*
X14028452Y-14705976D02*
X14028452Y-14505976D01*
X14114167Y-14705976D02*
X14114167Y-14601214D01*
X14104643Y-14582167D01*
X14085595Y-14572643D01*
X14057024Y-14572643D01*
X14037976Y-14582167D01*
X14028452Y-14591690D01*
X14237976Y-14705976D02*
X14218928Y-14696452D01*
X14209405Y-14686928D01*
X14199881Y-14667881D01*
X14199881Y-14610738D01*
X14209405Y-14591690D01*
X14218928Y-14582167D01*
X14237976Y-14572643D01*
X14266548Y-14572643D01*
X14285595Y-14582167D01*
X14295119Y-14591690D01*
X14304643Y-14610738D01*
X14304643Y-14667881D01*
X14295119Y-14686928D01*
X14285595Y-14696452D01*
X14266548Y-14705976D01*
X14237976Y-14705976D01*
X14418928Y-14705976D02*
X14399881Y-14696452D01*
X14390357Y-14677405D01*
X14390357Y-14505976D01*
X14571309Y-14696452D02*
X14552262Y-14705976D01*
X14514167Y-14705976D01*
X14495119Y-14696452D01*
X14485595Y-14677405D01*
X14485595Y-14601214D01*
X14495119Y-14582167D01*
X14514167Y-14572643D01*
X14552262Y-14572643D01*
X14571309Y-14582167D01*
X14580833Y-14601214D01*
X14580833Y-14620262D01*
X14485595Y-14639309D01*
X14657024Y-14696452D02*
X14676071Y-14705976D01*
X14714167Y-14705976D01*
X14733214Y-14696452D01*
X14742738Y-14677405D01*
X14742738Y-14667881D01*
X14733214Y-14648833D01*
X14714167Y-14639309D01*
X14685595Y-14639309D01*
X14666548Y-14629786D01*
X14657024Y-14610738D01*
X14657024Y-14601214D01*
X14666548Y-14582167D01*
X14685595Y-14572643D01*
X14714167Y-14572643D01*
X14733214Y-14582167D01*
X14809405Y-14782167D02*
X14818928Y-14772643D01*
X14837976Y-14744071D01*
X14847500Y-14725024D01*
X14857024Y-14696452D01*
X14866548Y-14648833D01*
X14866548Y-14610738D01*
X14857024Y-14563119D01*
X14847500Y-14534548D01*
X14837976Y-14515500D01*
X14818928Y-14486928D01*
X14809405Y-14477405D01*
X15171309Y-14782167D02*
X15161786Y-14772643D01*
X15142738Y-14744071D01*
X15133214Y-14725024D01*
X15123690Y-14696452D01*
X15114167Y-14648833D01*
X15114167Y-14610738D01*
X15123690Y-14563119D01*
X15133214Y-14534548D01*
X15142738Y-14515500D01*
X15161786Y-14486928D01*
X15171309Y-14477405D01*
X15247500Y-14572643D02*
X15247500Y-14705976D01*
X15247500Y-14591690D02*
X15257024Y-14582167D01*
X15276071Y-14572643D01*
X15304643Y-14572643D01*
X15323690Y-14582167D01*
X15333214Y-14601214D01*
X15333214Y-14705976D01*
X15457024Y-14705976D02*
X15437976Y-14696452D01*
X15428452Y-14686928D01*
X15418928Y-14667881D01*
X15418928Y-14610738D01*
X15428452Y-14591690D01*
X15437976Y-14582167D01*
X15457024Y-14572643D01*
X15485595Y-14572643D01*
X15504643Y-14582167D01*
X15514167Y-14591690D01*
X15523690Y-14610738D01*
X15523690Y-14667881D01*
X15514167Y-14686928D01*
X15504643Y-14696452D01*
X15485595Y-14705976D01*
X15457024Y-14705976D01*
X15580833Y-14572643D02*
X15657024Y-14572643D01*
X15609405Y-14505976D02*
X15609405Y-14677405D01*
X15618928Y-14696452D01*
X15637976Y-14705976D01*
X15657024Y-14705976D01*
X15876071Y-14572643D02*
X15876071Y-14772643D01*
X15876071Y-14582167D02*
X15895119Y-14572643D01*
X15933214Y-14572643D01*
X15952262Y-14582167D01*
X15961786Y-14591690D01*
X15971309Y-14610738D01*
X15971309Y-14667881D01*
X15961786Y-14686928D01*
X15952262Y-14696452D01*
X15933214Y-14705976D01*
X15895119Y-14705976D01*
X15876071Y-14696452D01*
X16085595Y-14705976D02*
X16066548Y-14696452D01*
X16057024Y-14677405D01*
X16057024Y-14505976D01*
X16247500Y-14705976D02*
X16247500Y-14601214D01*
X16237976Y-14582167D01*
X16218928Y-14572643D01*
X16180833Y-14572643D01*
X16161786Y-14582167D01*
X16247500Y-14696452D02*
X16228452Y-14705976D01*
X16180833Y-14705976D01*
X16161786Y-14696452D01*
X16152262Y-14677405D01*
X16152262Y-14658357D01*
X16161786Y-14639309D01*
X16180833Y-14629786D01*
X16228452Y-14629786D01*
X16247500Y-14620262D01*
X16314167Y-14572643D02*
X16390357Y-14572643D01*
X16342738Y-14505976D02*
X16342738Y-14677405D01*
X16352262Y-14696452D01*
X16371309Y-14705976D01*
X16390357Y-14705976D01*
X16533214Y-14696452D02*
X16514167Y-14705976D01*
X16476071Y-14705976D01*
X16457024Y-14696452D01*
X16447500Y-14677405D01*
X16447500Y-14601214D01*
X16457024Y-14582167D01*
X16476071Y-14572643D01*
X16514167Y-14572643D01*
X16533214Y-14582167D01*
X16542738Y-14601214D01*
X16542738Y-14620262D01*
X16447500Y-14639309D01*
X16714167Y-14705976D02*
X16714167Y-14505976D01*
X16714167Y-14696452D02*
X16695119Y-14705976D01*
X16657024Y-14705976D01*
X16637976Y-14696452D01*
X16628452Y-14686928D01*
X16618928Y-14667881D01*
X16618928Y-14610738D01*
X16628452Y-14591690D01*
X16637976Y-14582167D01*
X16657024Y-14572643D01*
X16695119Y-14572643D01*
X16714167Y-14582167D01*
X16790357Y-14782167D02*
X16799881Y-14772643D01*
X16818929Y-14744071D01*
X16828452Y-14725024D01*
X16837976Y-14696452D01*
X16847500Y-14648833D01*
X16847500Y-14610738D01*
X16837976Y-14563119D01*
X16828452Y-14534548D01*
X16818929Y-14515500D01*
X16799881Y-14486928D01*
X16790357Y-14477405D01*
M02*
