%TF.GenerationSoftware,KiCad,Pcbnew,(6.0.9)*%
%TF.CreationDate,2023-03-08T23:19:46-05:00*%
%TF.ProjectId,Fluxpad,466c7578-7061-4642-9e6b-696361645f70,rev?*%
%TF.SameCoordinates,Original*%
%TF.FileFunction,Paste,Top*%
%TF.FilePolarity,Positive*%
%FSLAX46Y46*%
G04 Gerber Fmt 4.6, Leading zero omitted, Abs format (unit mm)*
G04 Created by KiCad (PCBNEW (6.0.9)) date 2023-03-08 23:19:46*
%MOMM*%
%LPD*%
G01*
G04 APERTURE LIST*
G04 Aperture macros list*
%AMRoundRect*
0 Rectangle with rounded corners*
0 $1 Rounding radius*
0 $2 $3 $4 $5 $6 $7 $8 $9 X,Y pos of 4 corners*
0 Add a 4 corners polygon primitive as box body*
4,1,4,$2,$3,$4,$5,$6,$7,$8,$9,$2,$3,0*
0 Add four circle primitives for the rounded corners*
1,1,$1+$1,$2,$3*
1,1,$1+$1,$4,$5*
1,1,$1+$1,$6,$7*
1,1,$1+$1,$8,$9*
0 Add four rect primitives between the rounded corners*
20,1,$1+$1,$2,$3,$4,$5,0*
20,1,$1+$1,$4,$5,$6,$7,0*
20,1,$1+$1,$6,$7,$8,$9,0*
20,1,$1+$1,$8,$9,$2,$3,0*%
G04 Aperture macros list end*
%TA.AperFunction,Profile*%
%ADD10C,0.250000*%
%TD*%
%ADD11RoundRect,0.218750X-0.218750X-0.256250X0.218750X-0.256250X0.218750X0.256250X-0.218750X0.256250X0*%
%ADD12O,3.000000X2.000000*%
G04 APERTURE END LIST*
D10*
X102500000Y-65000000D02*
G75*
G03*
X100500000Y-67000000I0J-2000000D01*
G01*
X139500039Y-99247352D02*
G75*
G03*
X139076923Y-98430554I-1000039J-48D01*
G01*
X100923077Y-98430554D02*
G75*
G03*
X100923077Y-91569446I-2423077J3430554D01*
G01*
X100923099Y-98430586D02*
G75*
G03*
X100500000Y-99247352I576901J-816814D01*
G01*
X139076923Y-91569446D02*
G75*
G03*
X139076923Y-98430554I2423077J-3430554D01*
G01*
X100500000Y-67000000D02*
X100500000Y-90752648D01*
X102500000Y-125000000D02*
X137500000Y-125000000D01*
X139500000Y-67000000D02*
G75*
G03*
X137500000Y-65000000I-2000000J0D01*
G01*
X100499961Y-90752648D02*
G75*
G03*
X100923077Y-91569446I1000039J48D01*
G01*
X139500000Y-90752648D02*
X139500000Y-67000000D01*
X137500000Y-65000000D02*
X102500000Y-65000000D01*
X137500000Y-125000000D02*
G75*
G03*
X139500000Y-123000000I0J2000000D01*
G01*
X100500000Y-99247352D02*
X100500000Y-123000000D01*
X100500000Y-123000000D02*
G75*
G03*
X102500000Y-125000000I2000000J0D01*
G01*
X139500000Y-123000000D02*
X139500000Y-99247352D01*
X139076949Y-91569483D02*
G75*
G03*
X139500000Y-90752648I-577149J816883D01*
G01*
D11*
%TO.C,D3*%
X109712500Y-120000000D03*
X111287500Y-120000000D03*
%TD*%
%TO.C,D2*%
X128712500Y-101000000D03*
X130287500Y-101000000D03*
%TD*%
%TO.C,D4*%
X128712500Y-120000000D03*
X130287500Y-120000000D03*
%TD*%
%TO.C,D1*%
X109862500Y-101000000D03*
X111437500Y-101000000D03*
%TD*%
D12*
%TO.C,U1*%
X120118000Y-68380000D03*
X120118000Y-70920000D03*
X120118000Y-73460000D03*
X120118000Y-76000000D03*
X120118000Y-78540000D03*
X120118000Y-81080000D03*
X120118000Y-83620000D03*
X136882000Y-83620000D03*
X136882000Y-81080000D03*
X136882000Y-78540000D03*
X136882000Y-76000000D03*
X136882000Y-73460000D03*
X136882000Y-70920000D03*
X136882000Y-68380000D03*
%TD*%
M02*
