%TF.GenerationSoftware,KiCad,Pcbnew,7.0.1*%
%TF.CreationDate,2023-03-19T03:20:39-04:00*%
%TF.ProjectId,Fluxpad,466c7578-7061-4642-9e6b-696361645f70,rev?*%
%TF.SameCoordinates,Original*%
%TF.FileFunction,Drillmap*%
%TF.FilePolarity,Positive*%
%FSLAX45Y45*%
G04 Gerber Fmt 4.5, Leading zero omitted, Abs format (unit mm)*
G04 Created by KiCad (PCBNEW 7.0.1) date 2023-03-19 03:20:39*
%MOMM*%
%LPD*%
G01*
G04 APERTURE LIST*
%ADD10C,0.100000*%
%ADD11C,0.200000*%
%ADD12C,0.115200*%
%ADD13C,0.175000*%
%ADD14C,0.305000*%
%ADD15C,0.400000*%
G04 APERTURE END LIST*
D10*
X10250000Y-6500000D02*
G75*
G03*
X10050000Y-6700000I0J-200000D01*
G01*
X13950000Y-9924735D02*
G75*
G03*
X13907692Y-9843055I-100002J-1D01*
G01*
X10092308Y-9843055D02*
G75*
G03*
X10092308Y-9156945I-242308J343055D01*
G01*
X10092308Y-9843056D02*
G75*
G03*
X10050000Y-9924735I57694J-81681D01*
G01*
X13907692Y-9156945D02*
G75*
G03*
X13907692Y-9843055I242308J-343055D01*
G01*
X10050000Y-6700000D02*
X10050000Y-9075265D01*
X10250000Y-12500000D02*
X13750000Y-12500000D01*
X13950000Y-6700000D02*
G75*
G03*
X13750000Y-6500000I-200000J0D01*
G01*
X10050000Y-9075265D02*
G75*
G03*
X10092308Y-9156945I100002J1D01*
G01*
X13950000Y-9075265D02*
X13950000Y-6700000D01*
X13750000Y-6500000D02*
X10250000Y-6500000D01*
X13750000Y-12500000D02*
G75*
G03*
X13950000Y-12300000I0J200000D01*
G01*
X10050000Y-9924735D02*
X10050000Y-12300000D01*
X10050000Y-12300000D02*
G75*
G03*
X10250000Y-12500000I200000J0D01*
G01*
X13950000Y-12300000D02*
X13950000Y-9924735D01*
X13907692Y-9156945D02*
G75*
G03*
X13950000Y-9075265I-57710J81689D01*
G01*
D11*
D12*
X10192400Y-6642400D02*
X10307600Y-6757600D01*
X10307600Y-6642400D02*
X10192400Y-6757600D01*
X10192400Y-10442400D02*
X10307600Y-10557600D01*
X10307600Y-10442400D02*
X10192400Y-10557600D01*
X13692400Y-12242400D02*
X13807600Y-12357600D01*
X13807600Y-12242400D02*
X13692400Y-12357600D01*
D13*
X10629500Y-9600000D02*
G75*
G03*
X10629500Y-9600000I-87500J0D01*
G01*
X10629500Y-11500000D02*
G75*
G03*
X10629500Y-11500000I-87500J0D01*
G01*
X11645500Y-9600000D02*
G75*
G03*
X11645500Y-9600000I-87500J0D01*
G01*
X11645500Y-11500000D02*
G75*
G03*
X11645500Y-11500000I-87500J0D01*
G01*
X12529500Y-9600000D02*
G75*
G03*
X12529500Y-9600000I-87500J0D01*
G01*
X12529500Y-11500000D02*
G75*
G03*
X12529500Y-11500000I-87500J0D01*
G01*
X13545500Y-9600000D02*
G75*
G03*
X13545500Y-9600000I-87500J0D01*
G01*
X13545500Y-11500000D02*
G75*
G03*
X13545500Y-11500000I-87500J0D01*
G01*
D11*
X11050000Y-11900000D02*
X11050000Y-12100000D01*
X10950000Y-12000000D02*
X11150000Y-12000000D01*
X10950000Y-11920000D02*
X10950000Y-12080000D01*
X10950000Y-12080000D02*
G75*
G03*
X11150000Y-12080000I100000J0D01*
G01*
X11150000Y-12080000D02*
X11150000Y-11920000D01*
X11150000Y-11920000D02*
G75*
G03*
X10950000Y-11920000I-100000J0D01*
G01*
X11065000Y-10000000D02*
X11065000Y-10200000D01*
X10965000Y-10100000D02*
X11165000Y-10100000D01*
X10965000Y-10020000D02*
X10965000Y-10180000D01*
X10965000Y-10180000D02*
G75*
G03*
X11165000Y-10180000I100000J0D01*
G01*
X11165000Y-10180000D02*
X11165000Y-10020000D01*
X11165000Y-10020000D02*
G75*
G03*
X10965000Y-10020000I-100000J0D01*
G01*
X12950000Y-10000000D02*
X12950000Y-10200000D01*
X12850000Y-10100000D02*
X13050000Y-10100000D01*
X12850000Y-10020000D02*
X12850000Y-10180000D01*
X12850000Y-10180000D02*
G75*
G03*
X13050000Y-10180000I100000J0D01*
G01*
X13050000Y-10180000D02*
X13050000Y-10020000D01*
X13050000Y-10020000D02*
G75*
G03*
X12850000Y-10020000I-100000J0D01*
G01*
X12950000Y-11900000D02*
X12950000Y-12100000D01*
X12850000Y-12000000D02*
X13050000Y-12000000D01*
X12850000Y-11920000D02*
X12850000Y-12080000D01*
X12850000Y-12080000D02*
G75*
G03*
X13050000Y-12080000I100000J0D01*
G01*
X13050000Y-12080000D02*
X13050000Y-11920000D01*
X13050000Y-11920000D02*
G75*
G03*
X12850000Y-11920000I-100000J0D01*
G01*
D14*
X10776835Y-9453835D02*
X10776835Y-9238165D01*
X10561165Y-9238165D01*
X10561165Y-9453835D01*
X10776835Y-9453835D01*
X11411835Y-9199835D02*
X11411835Y-8984165D01*
X11196165Y-8984165D01*
X11196165Y-9199835D01*
X11411835Y-9199835D01*
X12676835Y-9453835D02*
X12676835Y-9238165D01*
X12461165Y-9238165D01*
X12461165Y-9453835D01*
X12676835Y-9453835D01*
X13311835Y-9199835D02*
X13311835Y-8984165D01*
X13096165Y-8984165D01*
X13096165Y-9199835D01*
X13311835Y-9199835D01*
D15*
X11050000Y-9800000D02*
X11250000Y-9600000D01*
X11050000Y-9400000D01*
X10850000Y-9600000D01*
X11050000Y-9800000D01*
X12950000Y-9800000D02*
X13150000Y-9600000D01*
X12950000Y-9400000D01*
X12750000Y-9600000D01*
X12950000Y-9800000D01*
D11*
X10292619Y-12817524D02*
X10292619Y-12617524D01*
X10292619Y-12617524D02*
X10340238Y-12617524D01*
X10340238Y-12617524D02*
X10368810Y-12627048D01*
X10368810Y-12627048D02*
X10387857Y-12646095D01*
X10387857Y-12646095D02*
X10397381Y-12665143D01*
X10397381Y-12665143D02*
X10406905Y-12703238D01*
X10406905Y-12703238D02*
X10406905Y-12731809D01*
X10406905Y-12731809D02*
X10397381Y-12769905D01*
X10397381Y-12769905D02*
X10387857Y-12788952D01*
X10387857Y-12788952D02*
X10368810Y-12808000D01*
X10368810Y-12808000D02*
X10340238Y-12817524D01*
X10340238Y-12817524D02*
X10292619Y-12817524D01*
X10492619Y-12817524D02*
X10492619Y-12684190D01*
X10492619Y-12722286D02*
X10502143Y-12703238D01*
X10502143Y-12703238D02*
X10511667Y-12693714D01*
X10511667Y-12693714D02*
X10530714Y-12684190D01*
X10530714Y-12684190D02*
X10549762Y-12684190D01*
X10616429Y-12817524D02*
X10616429Y-12684190D01*
X10616429Y-12617524D02*
X10606905Y-12627048D01*
X10606905Y-12627048D02*
X10616429Y-12636571D01*
X10616429Y-12636571D02*
X10625952Y-12627048D01*
X10625952Y-12627048D02*
X10616429Y-12617524D01*
X10616429Y-12617524D02*
X10616429Y-12636571D01*
X10740238Y-12817524D02*
X10721190Y-12808000D01*
X10721190Y-12808000D02*
X10711667Y-12788952D01*
X10711667Y-12788952D02*
X10711667Y-12617524D01*
X10845000Y-12817524D02*
X10825952Y-12808000D01*
X10825952Y-12808000D02*
X10816429Y-12788952D01*
X10816429Y-12788952D02*
X10816429Y-12617524D01*
X11073571Y-12817524D02*
X11073571Y-12617524D01*
X11073571Y-12617524D02*
X11140238Y-12760381D01*
X11140238Y-12760381D02*
X11206905Y-12617524D01*
X11206905Y-12617524D02*
X11206905Y-12817524D01*
X11387857Y-12817524D02*
X11387857Y-12712762D01*
X11387857Y-12712762D02*
X11378333Y-12693714D01*
X11378333Y-12693714D02*
X11359286Y-12684190D01*
X11359286Y-12684190D02*
X11321190Y-12684190D01*
X11321190Y-12684190D02*
X11302143Y-12693714D01*
X11387857Y-12808000D02*
X11368809Y-12817524D01*
X11368809Y-12817524D02*
X11321190Y-12817524D01*
X11321190Y-12817524D02*
X11302143Y-12808000D01*
X11302143Y-12808000D02*
X11292619Y-12788952D01*
X11292619Y-12788952D02*
X11292619Y-12769905D01*
X11292619Y-12769905D02*
X11302143Y-12750857D01*
X11302143Y-12750857D02*
X11321190Y-12741333D01*
X11321190Y-12741333D02*
X11368809Y-12741333D01*
X11368809Y-12741333D02*
X11387857Y-12731809D01*
X11483095Y-12684190D02*
X11483095Y-12884190D01*
X11483095Y-12693714D02*
X11502143Y-12684190D01*
X11502143Y-12684190D02*
X11540238Y-12684190D01*
X11540238Y-12684190D02*
X11559286Y-12693714D01*
X11559286Y-12693714D02*
X11568809Y-12703238D01*
X11568809Y-12703238D02*
X11578333Y-12722286D01*
X11578333Y-12722286D02*
X11578333Y-12779428D01*
X11578333Y-12779428D02*
X11568809Y-12798476D01*
X11568809Y-12798476D02*
X11559286Y-12808000D01*
X11559286Y-12808000D02*
X11540238Y-12817524D01*
X11540238Y-12817524D02*
X11502143Y-12817524D01*
X11502143Y-12817524D02*
X11483095Y-12808000D01*
X11664048Y-12798476D02*
X11673571Y-12808000D01*
X11673571Y-12808000D02*
X11664048Y-12817524D01*
X11664048Y-12817524D02*
X11654524Y-12808000D01*
X11654524Y-12808000D02*
X11664048Y-12798476D01*
X11664048Y-12798476D02*
X11664048Y-12817524D01*
X11664048Y-12693714D02*
X11673571Y-12703238D01*
X11673571Y-12703238D02*
X11664048Y-12712762D01*
X11664048Y-12712762D02*
X11654524Y-12703238D01*
X11654524Y-12703238D02*
X11664048Y-12693714D01*
X11664048Y-12693714D02*
X11664048Y-12712762D01*
D12*
X9929800Y-13087400D02*
X10045000Y-13202600D01*
X10045000Y-13087400D02*
X9929800Y-13202600D01*
D11*
X10397381Y-13237524D02*
X10283095Y-13237524D01*
X10340238Y-13237524D02*
X10340238Y-13037524D01*
X10340238Y-13037524D02*
X10321190Y-13066095D01*
X10321190Y-13066095D02*
X10302143Y-13085143D01*
X10302143Y-13085143D02*
X10283095Y-13094667D01*
X10483095Y-13218476D02*
X10492619Y-13228000D01*
X10492619Y-13228000D02*
X10483095Y-13237524D01*
X10483095Y-13237524D02*
X10473571Y-13228000D01*
X10473571Y-13228000D02*
X10483095Y-13218476D01*
X10483095Y-13218476D02*
X10483095Y-13237524D01*
X10683095Y-13237524D02*
X10568810Y-13237524D01*
X10625952Y-13237524D02*
X10625952Y-13037524D01*
X10625952Y-13037524D02*
X10606905Y-13066095D01*
X10606905Y-13066095D02*
X10587857Y-13085143D01*
X10587857Y-13085143D02*
X10568810Y-13094667D01*
X10864048Y-13037524D02*
X10768810Y-13037524D01*
X10768810Y-13037524D02*
X10759286Y-13132762D01*
X10759286Y-13132762D02*
X10768810Y-13123238D01*
X10768810Y-13123238D02*
X10787857Y-13113714D01*
X10787857Y-13113714D02*
X10835476Y-13113714D01*
X10835476Y-13113714D02*
X10854524Y-13123238D01*
X10854524Y-13123238D02*
X10864048Y-13132762D01*
X10864048Y-13132762D02*
X10873571Y-13151809D01*
X10873571Y-13151809D02*
X10873571Y-13199428D01*
X10873571Y-13199428D02*
X10864048Y-13218476D01*
X10864048Y-13218476D02*
X10854524Y-13228000D01*
X10854524Y-13228000D02*
X10835476Y-13237524D01*
X10835476Y-13237524D02*
X10787857Y-13237524D01*
X10787857Y-13237524D02*
X10768810Y-13228000D01*
X10768810Y-13228000D02*
X10759286Y-13218476D01*
X10949762Y-13056571D02*
X10959286Y-13047048D01*
X10959286Y-13047048D02*
X10978333Y-13037524D01*
X10978333Y-13037524D02*
X11025952Y-13037524D01*
X11025952Y-13037524D02*
X11045000Y-13047048D01*
X11045000Y-13047048D02*
X11054524Y-13056571D01*
X11054524Y-13056571D02*
X11064048Y-13075619D01*
X11064048Y-13075619D02*
X11064048Y-13094667D01*
X11064048Y-13094667D02*
X11054524Y-13123238D01*
X11054524Y-13123238D02*
X10940238Y-13237524D01*
X10940238Y-13237524D02*
X11064048Y-13237524D01*
X11149762Y-13237524D02*
X11149762Y-13104190D01*
X11149762Y-13123238D02*
X11159286Y-13113714D01*
X11159286Y-13113714D02*
X11178333Y-13104190D01*
X11178333Y-13104190D02*
X11206905Y-13104190D01*
X11206905Y-13104190D02*
X11225952Y-13113714D01*
X11225952Y-13113714D02*
X11235476Y-13132762D01*
X11235476Y-13132762D02*
X11235476Y-13237524D01*
X11235476Y-13132762D02*
X11245000Y-13113714D01*
X11245000Y-13113714D02*
X11264048Y-13104190D01*
X11264048Y-13104190D02*
X11292619Y-13104190D01*
X11292619Y-13104190D02*
X11311667Y-13113714D01*
X11311667Y-13113714D02*
X11321190Y-13132762D01*
X11321190Y-13132762D02*
X11321190Y-13237524D01*
X11416429Y-13237524D02*
X11416429Y-13104190D01*
X11416429Y-13123238D02*
X11425952Y-13113714D01*
X11425952Y-13113714D02*
X11445000Y-13104190D01*
X11445000Y-13104190D02*
X11473571Y-13104190D01*
X11473571Y-13104190D02*
X11492619Y-13113714D01*
X11492619Y-13113714D02*
X11502143Y-13132762D01*
X11502143Y-13132762D02*
X11502143Y-13237524D01*
X11502143Y-13132762D02*
X11511667Y-13113714D01*
X11511667Y-13113714D02*
X11530714Y-13104190D01*
X11530714Y-13104190D02*
X11559286Y-13104190D01*
X11559286Y-13104190D02*
X11578333Y-13113714D01*
X11578333Y-13113714D02*
X11587857Y-13132762D01*
X11587857Y-13132762D02*
X11587857Y-13237524D01*
X11978333Y-13028000D02*
X11806905Y-13285143D01*
X12235476Y-13037524D02*
X12254524Y-13037524D01*
X12254524Y-13037524D02*
X12273572Y-13047048D01*
X12273572Y-13047048D02*
X12283095Y-13056571D01*
X12283095Y-13056571D02*
X12292619Y-13075619D01*
X12292619Y-13075619D02*
X12302143Y-13113714D01*
X12302143Y-13113714D02*
X12302143Y-13161333D01*
X12302143Y-13161333D02*
X12292619Y-13199428D01*
X12292619Y-13199428D02*
X12283095Y-13218476D01*
X12283095Y-13218476D02*
X12273572Y-13228000D01*
X12273572Y-13228000D02*
X12254524Y-13237524D01*
X12254524Y-13237524D02*
X12235476Y-13237524D01*
X12235476Y-13237524D02*
X12216429Y-13228000D01*
X12216429Y-13228000D02*
X12206905Y-13218476D01*
X12206905Y-13218476D02*
X12197381Y-13199428D01*
X12197381Y-13199428D02*
X12187857Y-13161333D01*
X12187857Y-13161333D02*
X12187857Y-13113714D01*
X12187857Y-13113714D02*
X12197381Y-13075619D01*
X12197381Y-13075619D02*
X12206905Y-13056571D01*
X12206905Y-13056571D02*
X12216429Y-13047048D01*
X12216429Y-13047048D02*
X12235476Y-13037524D01*
X12387857Y-13218476D02*
X12397381Y-13228000D01*
X12397381Y-13228000D02*
X12387857Y-13237524D01*
X12387857Y-13237524D02*
X12378333Y-13228000D01*
X12378333Y-13228000D02*
X12387857Y-13218476D01*
X12387857Y-13218476D02*
X12387857Y-13237524D01*
X12521191Y-13037524D02*
X12540238Y-13037524D01*
X12540238Y-13037524D02*
X12559286Y-13047048D01*
X12559286Y-13047048D02*
X12568810Y-13056571D01*
X12568810Y-13056571D02*
X12578333Y-13075619D01*
X12578333Y-13075619D02*
X12587857Y-13113714D01*
X12587857Y-13113714D02*
X12587857Y-13161333D01*
X12587857Y-13161333D02*
X12578333Y-13199428D01*
X12578333Y-13199428D02*
X12568810Y-13218476D01*
X12568810Y-13218476D02*
X12559286Y-13228000D01*
X12559286Y-13228000D02*
X12540238Y-13237524D01*
X12540238Y-13237524D02*
X12521191Y-13237524D01*
X12521191Y-13237524D02*
X12502143Y-13228000D01*
X12502143Y-13228000D02*
X12492619Y-13218476D01*
X12492619Y-13218476D02*
X12483095Y-13199428D01*
X12483095Y-13199428D02*
X12473572Y-13161333D01*
X12473572Y-13161333D02*
X12473572Y-13113714D01*
X12473572Y-13113714D02*
X12483095Y-13075619D01*
X12483095Y-13075619D02*
X12492619Y-13056571D01*
X12492619Y-13056571D02*
X12502143Y-13047048D01*
X12502143Y-13047048D02*
X12521191Y-13037524D01*
X12759286Y-13104190D02*
X12759286Y-13237524D01*
X12711667Y-13028000D02*
X12664048Y-13170857D01*
X12664048Y-13170857D02*
X12787857Y-13170857D01*
X12959286Y-13037524D02*
X12864048Y-13037524D01*
X12864048Y-13037524D02*
X12854524Y-13132762D01*
X12854524Y-13132762D02*
X12864048Y-13123238D01*
X12864048Y-13123238D02*
X12883095Y-13113714D01*
X12883095Y-13113714D02*
X12930714Y-13113714D01*
X12930714Y-13113714D02*
X12949762Y-13123238D01*
X12949762Y-13123238D02*
X12959286Y-13132762D01*
X12959286Y-13132762D02*
X12968810Y-13151809D01*
X12968810Y-13151809D02*
X12968810Y-13199428D01*
X12968810Y-13199428D02*
X12959286Y-13218476D01*
X12959286Y-13218476D02*
X12949762Y-13228000D01*
X12949762Y-13228000D02*
X12930714Y-13237524D01*
X12930714Y-13237524D02*
X12883095Y-13237524D01*
X12883095Y-13237524D02*
X12864048Y-13228000D01*
X12864048Y-13228000D02*
X12854524Y-13218476D01*
X13140238Y-13104190D02*
X13140238Y-13237524D01*
X13092619Y-13028000D02*
X13045000Y-13170857D01*
X13045000Y-13170857D02*
X13168810Y-13170857D01*
X13235476Y-13037524D02*
X13235476Y-13075619D01*
X13311667Y-13037524D02*
X13311667Y-13075619D01*
X13606905Y-13313714D02*
X13597381Y-13304190D01*
X13597381Y-13304190D02*
X13578334Y-13275619D01*
X13578334Y-13275619D02*
X13568810Y-13256571D01*
X13568810Y-13256571D02*
X13559286Y-13228000D01*
X13559286Y-13228000D02*
X13549762Y-13180381D01*
X13549762Y-13180381D02*
X13549762Y-13142286D01*
X13549762Y-13142286D02*
X13559286Y-13094667D01*
X13559286Y-13094667D02*
X13568810Y-13066095D01*
X13568810Y-13066095D02*
X13578334Y-13047048D01*
X13578334Y-13047048D02*
X13597381Y-13018476D01*
X13597381Y-13018476D02*
X13606905Y-13008952D01*
X13664048Y-13037524D02*
X13787857Y-13037524D01*
X13787857Y-13037524D02*
X13721191Y-13113714D01*
X13721191Y-13113714D02*
X13749762Y-13113714D01*
X13749762Y-13113714D02*
X13768810Y-13123238D01*
X13768810Y-13123238D02*
X13778334Y-13132762D01*
X13778334Y-13132762D02*
X13787857Y-13151809D01*
X13787857Y-13151809D02*
X13787857Y-13199428D01*
X13787857Y-13199428D02*
X13778334Y-13218476D01*
X13778334Y-13218476D02*
X13768810Y-13228000D01*
X13768810Y-13228000D02*
X13749762Y-13237524D01*
X13749762Y-13237524D02*
X13692619Y-13237524D01*
X13692619Y-13237524D02*
X13673572Y-13228000D01*
X13673572Y-13228000D02*
X13664048Y-13218476D01*
X14025953Y-13237524D02*
X14025953Y-13037524D01*
X14111667Y-13237524D02*
X14111667Y-13132762D01*
X14111667Y-13132762D02*
X14102143Y-13113714D01*
X14102143Y-13113714D02*
X14083096Y-13104190D01*
X14083096Y-13104190D02*
X14054524Y-13104190D01*
X14054524Y-13104190D02*
X14035476Y-13113714D01*
X14035476Y-13113714D02*
X14025953Y-13123238D01*
X14235476Y-13237524D02*
X14216429Y-13228000D01*
X14216429Y-13228000D02*
X14206905Y-13218476D01*
X14206905Y-13218476D02*
X14197381Y-13199428D01*
X14197381Y-13199428D02*
X14197381Y-13142286D01*
X14197381Y-13142286D02*
X14206905Y-13123238D01*
X14206905Y-13123238D02*
X14216429Y-13113714D01*
X14216429Y-13113714D02*
X14235476Y-13104190D01*
X14235476Y-13104190D02*
X14264048Y-13104190D01*
X14264048Y-13104190D02*
X14283096Y-13113714D01*
X14283096Y-13113714D02*
X14292619Y-13123238D01*
X14292619Y-13123238D02*
X14302143Y-13142286D01*
X14302143Y-13142286D02*
X14302143Y-13199428D01*
X14302143Y-13199428D02*
X14292619Y-13218476D01*
X14292619Y-13218476D02*
X14283096Y-13228000D01*
X14283096Y-13228000D02*
X14264048Y-13237524D01*
X14264048Y-13237524D02*
X14235476Y-13237524D01*
X14416429Y-13237524D02*
X14397381Y-13228000D01*
X14397381Y-13228000D02*
X14387857Y-13208952D01*
X14387857Y-13208952D02*
X14387857Y-13037524D01*
X14568810Y-13228000D02*
X14549762Y-13237524D01*
X14549762Y-13237524D02*
X14511667Y-13237524D01*
X14511667Y-13237524D02*
X14492619Y-13228000D01*
X14492619Y-13228000D02*
X14483096Y-13208952D01*
X14483096Y-13208952D02*
X14483096Y-13132762D01*
X14483096Y-13132762D02*
X14492619Y-13113714D01*
X14492619Y-13113714D02*
X14511667Y-13104190D01*
X14511667Y-13104190D02*
X14549762Y-13104190D01*
X14549762Y-13104190D02*
X14568810Y-13113714D01*
X14568810Y-13113714D02*
X14578334Y-13132762D01*
X14578334Y-13132762D02*
X14578334Y-13151809D01*
X14578334Y-13151809D02*
X14483096Y-13170857D01*
X14654524Y-13228000D02*
X14673572Y-13237524D01*
X14673572Y-13237524D02*
X14711667Y-13237524D01*
X14711667Y-13237524D02*
X14730715Y-13228000D01*
X14730715Y-13228000D02*
X14740238Y-13208952D01*
X14740238Y-13208952D02*
X14740238Y-13199428D01*
X14740238Y-13199428D02*
X14730715Y-13180381D01*
X14730715Y-13180381D02*
X14711667Y-13170857D01*
X14711667Y-13170857D02*
X14683096Y-13170857D01*
X14683096Y-13170857D02*
X14664048Y-13161333D01*
X14664048Y-13161333D02*
X14654524Y-13142286D01*
X14654524Y-13142286D02*
X14654524Y-13132762D01*
X14654524Y-13132762D02*
X14664048Y-13113714D01*
X14664048Y-13113714D02*
X14683096Y-13104190D01*
X14683096Y-13104190D02*
X14711667Y-13104190D01*
X14711667Y-13104190D02*
X14730715Y-13113714D01*
X14806905Y-13313714D02*
X14816429Y-13304190D01*
X14816429Y-13304190D02*
X14835477Y-13275619D01*
X14835477Y-13275619D02*
X14845000Y-13256571D01*
X14845000Y-13256571D02*
X14854524Y-13228000D01*
X14854524Y-13228000D02*
X14864048Y-13180381D01*
X14864048Y-13180381D02*
X14864048Y-13142286D01*
X14864048Y-13142286D02*
X14854524Y-13094667D01*
X14854524Y-13094667D02*
X14845000Y-13066095D01*
X14845000Y-13066095D02*
X14835477Y-13047048D01*
X14835477Y-13047048D02*
X14816429Y-13018476D01*
X14816429Y-13018476D02*
X14806905Y-13008952D01*
X15168810Y-13313714D02*
X15159286Y-13304190D01*
X15159286Y-13304190D02*
X15140238Y-13275619D01*
X15140238Y-13275619D02*
X15130715Y-13256571D01*
X15130715Y-13256571D02*
X15121191Y-13228000D01*
X15121191Y-13228000D02*
X15111667Y-13180381D01*
X15111667Y-13180381D02*
X15111667Y-13142286D01*
X15111667Y-13142286D02*
X15121191Y-13094667D01*
X15121191Y-13094667D02*
X15130715Y-13066095D01*
X15130715Y-13066095D02*
X15140238Y-13047048D01*
X15140238Y-13047048D02*
X15159286Y-13018476D01*
X15159286Y-13018476D02*
X15168810Y-13008952D01*
X15245000Y-13104190D02*
X15245000Y-13237524D01*
X15245000Y-13123238D02*
X15254524Y-13113714D01*
X15254524Y-13113714D02*
X15273572Y-13104190D01*
X15273572Y-13104190D02*
X15302143Y-13104190D01*
X15302143Y-13104190D02*
X15321191Y-13113714D01*
X15321191Y-13113714D02*
X15330715Y-13132762D01*
X15330715Y-13132762D02*
X15330715Y-13237524D01*
X15454524Y-13237524D02*
X15435477Y-13228000D01*
X15435477Y-13228000D02*
X15425953Y-13218476D01*
X15425953Y-13218476D02*
X15416429Y-13199428D01*
X15416429Y-13199428D02*
X15416429Y-13142286D01*
X15416429Y-13142286D02*
X15425953Y-13123238D01*
X15425953Y-13123238D02*
X15435477Y-13113714D01*
X15435477Y-13113714D02*
X15454524Y-13104190D01*
X15454524Y-13104190D02*
X15483096Y-13104190D01*
X15483096Y-13104190D02*
X15502143Y-13113714D01*
X15502143Y-13113714D02*
X15511667Y-13123238D01*
X15511667Y-13123238D02*
X15521191Y-13142286D01*
X15521191Y-13142286D02*
X15521191Y-13199428D01*
X15521191Y-13199428D02*
X15511667Y-13218476D01*
X15511667Y-13218476D02*
X15502143Y-13228000D01*
X15502143Y-13228000D02*
X15483096Y-13237524D01*
X15483096Y-13237524D02*
X15454524Y-13237524D01*
X15578334Y-13104190D02*
X15654524Y-13104190D01*
X15606905Y-13037524D02*
X15606905Y-13208952D01*
X15606905Y-13208952D02*
X15616429Y-13228000D01*
X15616429Y-13228000D02*
X15635477Y-13237524D01*
X15635477Y-13237524D02*
X15654524Y-13237524D01*
X15873572Y-13104190D02*
X15873572Y-13304190D01*
X15873572Y-13113714D02*
X15892619Y-13104190D01*
X15892619Y-13104190D02*
X15930715Y-13104190D01*
X15930715Y-13104190D02*
X15949762Y-13113714D01*
X15949762Y-13113714D02*
X15959286Y-13123238D01*
X15959286Y-13123238D02*
X15968810Y-13142286D01*
X15968810Y-13142286D02*
X15968810Y-13199428D01*
X15968810Y-13199428D02*
X15959286Y-13218476D01*
X15959286Y-13218476D02*
X15949762Y-13228000D01*
X15949762Y-13228000D02*
X15930715Y-13237524D01*
X15930715Y-13237524D02*
X15892619Y-13237524D01*
X15892619Y-13237524D02*
X15873572Y-13228000D01*
X16083096Y-13237524D02*
X16064048Y-13228000D01*
X16064048Y-13228000D02*
X16054524Y-13208952D01*
X16054524Y-13208952D02*
X16054524Y-13037524D01*
X16245000Y-13237524D02*
X16245000Y-13132762D01*
X16245000Y-13132762D02*
X16235477Y-13113714D01*
X16235477Y-13113714D02*
X16216429Y-13104190D01*
X16216429Y-13104190D02*
X16178334Y-13104190D01*
X16178334Y-13104190D02*
X16159286Y-13113714D01*
X16245000Y-13228000D02*
X16225953Y-13237524D01*
X16225953Y-13237524D02*
X16178334Y-13237524D01*
X16178334Y-13237524D02*
X16159286Y-13228000D01*
X16159286Y-13228000D02*
X16149762Y-13208952D01*
X16149762Y-13208952D02*
X16149762Y-13189905D01*
X16149762Y-13189905D02*
X16159286Y-13170857D01*
X16159286Y-13170857D02*
X16178334Y-13161333D01*
X16178334Y-13161333D02*
X16225953Y-13161333D01*
X16225953Y-13161333D02*
X16245000Y-13151809D01*
X16311667Y-13104190D02*
X16387858Y-13104190D01*
X16340239Y-13037524D02*
X16340239Y-13208952D01*
X16340239Y-13208952D02*
X16349762Y-13228000D01*
X16349762Y-13228000D02*
X16368810Y-13237524D01*
X16368810Y-13237524D02*
X16387858Y-13237524D01*
X16530715Y-13228000D02*
X16511667Y-13237524D01*
X16511667Y-13237524D02*
X16473572Y-13237524D01*
X16473572Y-13237524D02*
X16454524Y-13228000D01*
X16454524Y-13228000D02*
X16445000Y-13208952D01*
X16445000Y-13208952D02*
X16445000Y-13132762D01*
X16445000Y-13132762D02*
X16454524Y-13113714D01*
X16454524Y-13113714D02*
X16473572Y-13104190D01*
X16473572Y-13104190D02*
X16511667Y-13104190D01*
X16511667Y-13104190D02*
X16530715Y-13113714D01*
X16530715Y-13113714D02*
X16540239Y-13132762D01*
X16540239Y-13132762D02*
X16540239Y-13151809D01*
X16540239Y-13151809D02*
X16445000Y-13170857D01*
X16711667Y-13237524D02*
X16711667Y-13037524D01*
X16711667Y-13228000D02*
X16692620Y-13237524D01*
X16692620Y-13237524D02*
X16654524Y-13237524D01*
X16654524Y-13237524D02*
X16635477Y-13228000D01*
X16635477Y-13228000D02*
X16625953Y-13218476D01*
X16625953Y-13218476D02*
X16616429Y-13199428D01*
X16616429Y-13199428D02*
X16616429Y-13142286D01*
X16616429Y-13142286D02*
X16625953Y-13123238D01*
X16625953Y-13123238D02*
X16635477Y-13113714D01*
X16635477Y-13113714D02*
X16654524Y-13104190D01*
X16654524Y-13104190D02*
X16692620Y-13104190D01*
X16692620Y-13104190D02*
X16711667Y-13113714D01*
X16787858Y-13313714D02*
X16797382Y-13304190D01*
X16797382Y-13304190D02*
X16816429Y-13275619D01*
X16816429Y-13275619D02*
X16825953Y-13256571D01*
X16825953Y-13256571D02*
X16835477Y-13228000D01*
X16835477Y-13228000D02*
X16845001Y-13180381D01*
X16845001Y-13180381D02*
X16845001Y-13142286D01*
X16845001Y-13142286D02*
X16835477Y-13094667D01*
X16835477Y-13094667D02*
X16825953Y-13066095D01*
X16825953Y-13066095D02*
X16816429Y-13047048D01*
X16816429Y-13047048D02*
X16797382Y-13018476D01*
X16797382Y-13018476D02*
X16787858Y-13008952D01*
D13*
X10045000Y-13409000D02*
G75*
G03*
X10045000Y-13409000I-87500J0D01*
G01*
D11*
X10397381Y-13501524D02*
X10283095Y-13501524D01*
X10340238Y-13501524D02*
X10340238Y-13301524D01*
X10340238Y-13301524D02*
X10321190Y-13330095D01*
X10321190Y-13330095D02*
X10302143Y-13349143D01*
X10302143Y-13349143D02*
X10283095Y-13358667D01*
X10483095Y-13482476D02*
X10492619Y-13492000D01*
X10492619Y-13492000D02*
X10483095Y-13501524D01*
X10483095Y-13501524D02*
X10473571Y-13492000D01*
X10473571Y-13492000D02*
X10483095Y-13482476D01*
X10483095Y-13482476D02*
X10483095Y-13501524D01*
X10559286Y-13301524D02*
X10692619Y-13301524D01*
X10692619Y-13301524D02*
X10606905Y-13501524D01*
X10864048Y-13301524D02*
X10768810Y-13301524D01*
X10768810Y-13301524D02*
X10759286Y-13396762D01*
X10759286Y-13396762D02*
X10768810Y-13387238D01*
X10768810Y-13387238D02*
X10787857Y-13377714D01*
X10787857Y-13377714D02*
X10835476Y-13377714D01*
X10835476Y-13377714D02*
X10854524Y-13387238D01*
X10854524Y-13387238D02*
X10864048Y-13396762D01*
X10864048Y-13396762D02*
X10873571Y-13415809D01*
X10873571Y-13415809D02*
X10873571Y-13463428D01*
X10873571Y-13463428D02*
X10864048Y-13482476D01*
X10864048Y-13482476D02*
X10854524Y-13492000D01*
X10854524Y-13492000D02*
X10835476Y-13501524D01*
X10835476Y-13501524D02*
X10787857Y-13501524D01*
X10787857Y-13501524D02*
X10768810Y-13492000D01*
X10768810Y-13492000D02*
X10759286Y-13482476D01*
X10997381Y-13301524D02*
X11016429Y-13301524D01*
X11016429Y-13301524D02*
X11035476Y-13311048D01*
X11035476Y-13311048D02*
X11045000Y-13320571D01*
X11045000Y-13320571D02*
X11054524Y-13339619D01*
X11054524Y-13339619D02*
X11064048Y-13377714D01*
X11064048Y-13377714D02*
X11064048Y-13425333D01*
X11064048Y-13425333D02*
X11054524Y-13463428D01*
X11054524Y-13463428D02*
X11045000Y-13482476D01*
X11045000Y-13482476D02*
X11035476Y-13492000D01*
X11035476Y-13492000D02*
X11016429Y-13501524D01*
X11016429Y-13501524D02*
X10997381Y-13501524D01*
X10997381Y-13501524D02*
X10978333Y-13492000D01*
X10978333Y-13492000D02*
X10968810Y-13482476D01*
X10968810Y-13482476D02*
X10959286Y-13463428D01*
X10959286Y-13463428D02*
X10949762Y-13425333D01*
X10949762Y-13425333D02*
X10949762Y-13377714D01*
X10949762Y-13377714D02*
X10959286Y-13339619D01*
X10959286Y-13339619D02*
X10968810Y-13320571D01*
X10968810Y-13320571D02*
X10978333Y-13311048D01*
X10978333Y-13311048D02*
X10997381Y-13301524D01*
X11149762Y-13501524D02*
X11149762Y-13368190D01*
X11149762Y-13387238D02*
X11159286Y-13377714D01*
X11159286Y-13377714D02*
X11178333Y-13368190D01*
X11178333Y-13368190D02*
X11206905Y-13368190D01*
X11206905Y-13368190D02*
X11225952Y-13377714D01*
X11225952Y-13377714D02*
X11235476Y-13396762D01*
X11235476Y-13396762D02*
X11235476Y-13501524D01*
X11235476Y-13396762D02*
X11245000Y-13377714D01*
X11245000Y-13377714D02*
X11264048Y-13368190D01*
X11264048Y-13368190D02*
X11292619Y-13368190D01*
X11292619Y-13368190D02*
X11311667Y-13377714D01*
X11311667Y-13377714D02*
X11321190Y-13396762D01*
X11321190Y-13396762D02*
X11321190Y-13501524D01*
X11416429Y-13501524D02*
X11416429Y-13368190D01*
X11416429Y-13387238D02*
X11425952Y-13377714D01*
X11425952Y-13377714D02*
X11445000Y-13368190D01*
X11445000Y-13368190D02*
X11473571Y-13368190D01*
X11473571Y-13368190D02*
X11492619Y-13377714D01*
X11492619Y-13377714D02*
X11502143Y-13396762D01*
X11502143Y-13396762D02*
X11502143Y-13501524D01*
X11502143Y-13396762D02*
X11511667Y-13377714D01*
X11511667Y-13377714D02*
X11530714Y-13368190D01*
X11530714Y-13368190D02*
X11559286Y-13368190D01*
X11559286Y-13368190D02*
X11578333Y-13377714D01*
X11578333Y-13377714D02*
X11587857Y-13396762D01*
X11587857Y-13396762D02*
X11587857Y-13501524D01*
X11978333Y-13292000D02*
X11806905Y-13549143D01*
X12235476Y-13301524D02*
X12254524Y-13301524D01*
X12254524Y-13301524D02*
X12273572Y-13311048D01*
X12273572Y-13311048D02*
X12283095Y-13320571D01*
X12283095Y-13320571D02*
X12292619Y-13339619D01*
X12292619Y-13339619D02*
X12302143Y-13377714D01*
X12302143Y-13377714D02*
X12302143Y-13425333D01*
X12302143Y-13425333D02*
X12292619Y-13463428D01*
X12292619Y-13463428D02*
X12283095Y-13482476D01*
X12283095Y-13482476D02*
X12273572Y-13492000D01*
X12273572Y-13492000D02*
X12254524Y-13501524D01*
X12254524Y-13501524D02*
X12235476Y-13501524D01*
X12235476Y-13501524D02*
X12216429Y-13492000D01*
X12216429Y-13492000D02*
X12206905Y-13482476D01*
X12206905Y-13482476D02*
X12197381Y-13463428D01*
X12197381Y-13463428D02*
X12187857Y-13425333D01*
X12187857Y-13425333D02*
X12187857Y-13377714D01*
X12187857Y-13377714D02*
X12197381Y-13339619D01*
X12197381Y-13339619D02*
X12206905Y-13320571D01*
X12206905Y-13320571D02*
X12216429Y-13311048D01*
X12216429Y-13311048D02*
X12235476Y-13301524D01*
X12387857Y-13482476D02*
X12397381Y-13492000D01*
X12397381Y-13492000D02*
X12387857Y-13501524D01*
X12387857Y-13501524D02*
X12378333Y-13492000D01*
X12378333Y-13492000D02*
X12387857Y-13482476D01*
X12387857Y-13482476D02*
X12387857Y-13501524D01*
X12521191Y-13301524D02*
X12540238Y-13301524D01*
X12540238Y-13301524D02*
X12559286Y-13311048D01*
X12559286Y-13311048D02*
X12568810Y-13320571D01*
X12568810Y-13320571D02*
X12578333Y-13339619D01*
X12578333Y-13339619D02*
X12587857Y-13377714D01*
X12587857Y-13377714D02*
X12587857Y-13425333D01*
X12587857Y-13425333D02*
X12578333Y-13463428D01*
X12578333Y-13463428D02*
X12568810Y-13482476D01*
X12568810Y-13482476D02*
X12559286Y-13492000D01*
X12559286Y-13492000D02*
X12540238Y-13501524D01*
X12540238Y-13501524D02*
X12521191Y-13501524D01*
X12521191Y-13501524D02*
X12502143Y-13492000D01*
X12502143Y-13492000D02*
X12492619Y-13482476D01*
X12492619Y-13482476D02*
X12483095Y-13463428D01*
X12483095Y-13463428D02*
X12473572Y-13425333D01*
X12473572Y-13425333D02*
X12473572Y-13377714D01*
X12473572Y-13377714D02*
X12483095Y-13339619D01*
X12483095Y-13339619D02*
X12492619Y-13320571D01*
X12492619Y-13320571D02*
X12502143Y-13311048D01*
X12502143Y-13311048D02*
X12521191Y-13301524D01*
X12759286Y-13301524D02*
X12721191Y-13301524D01*
X12721191Y-13301524D02*
X12702143Y-13311048D01*
X12702143Y-13311048D02*
X12692619Y-13320571D01*
X12692619Y-13320571D02*
X12673572Y-13349143D01*
X12673572Y-13349143D02*
X12664048Y-13387238D01*
X12664048Y-13387238D02*
X12664048Y-13463428D01*
X12664048Y-13463428D02*
X12673572Y-13482476D01*
X12673572Y-13482476D02*
X12683095Y-13492000D01*
X12683095Y-13492000D02*
X12702143Y-13501524D01*
X12702143Y-13501524D02*
X12740238Y-13501524D01*
X12740238Y-13501524D02*
X12759286Y-13492000D01*
X12759286Y-13492000D02*
X12768810Y-13482476D01*
X12768810Y-13482476D02*
X12778333Y-13463428D01*
X12778333Y-13463428D02*
X12778333Y-13415809D01*
X12778333Y-13415809D02*
X12768810Y-13396762D01*
X12768810Y-13396762D02*
X12759286Y-13387238D01*
X12759286Y-13387238D02*
X12740238Y-13377714D01*
X12740238Y-13377714D02*
X12702143Y-13377714D01*
X12702143Y-13377714D02*
X12683095Y-13387238D01*
X12683095Y-13387238D02*
X12673572Y-13396762D01*
X12673572Y-13396762D02*
X12664048Y-13415809D01*
X12892619Y-13387238D02*
X12873572Y-13377714D01*
X12873572Y-13377714D02*
X12864048Y-13368190D01*
X12864048Y-13368190D02*
X12854524Y-13349143D01*
X12854524Y-13349143D02*
X12854524Y-13339619D01*
X12854524Y-13339619D02*
X12864048Y-13320571D01*
X12864048Y-13320571D02*
X12873572Y-13311048D01*
X12873572Y-13311048D02*
X12892619Y-13301524D01*
X12892619Y-13301524D02*
X12930714Y-13301524D01*
X12930714Y-13301524D02*
X12949762Y-13311048D01*
X12949762Y-13311048D02*
X12959286Y-13320571D01*
X12959286Y-13320571D02*
X12968810Y-13339619D01*
X12968810Y-13339619D02*
X12968810Y-13349143D01*
X12968810Y-13349143D02*
X12959286Y-13368190D01*
X12959286Y-13368190D02*
X12949762Y-13377714D01*
X12949762Y-13377714D02*
X12930714Y-13387238D01*
X12930714Y-13387238D02*
X12892619Y-13387238D01*
X12892619Y-13387238D02*
X12873572Y-13396762D01*
X12873572Y-13396762D02*
X12864048Y-13406286D01*
X12864048Y-13406286D02*
X12854524Y-13425333D01*
X12854524Y-13425333D02*
X12854524Y-13463428D01*
X12854524Y-13463428D02*
X12864048Y-13482476D01*
X12864048Y-13482476D02*
X12873572Y-13492000D01*
X12873572Y-13492000D02*
X12892619Y-13501524D01*
X12892619Y-13501524D02*
X12930714Y-13501524D01*
X12930714Y-13501524D02*
X12949762Y-13492000D01*
X12949762Y-13492000D02*
X12959286Y-13482476D01*
X12959286Y-13482476D02*
X12968810Y-13463428D01*
X12968810Y-13463428D02*
X12968810Y-13425333D01*
X12968810Y-13425333D02*
X12959286Y-13406286D01*
X12959286Y-13406286D02*
X12949762Y-13396762D01*
X12949762Y-13396762D02*
X12930714Y-13387238D01*
X13064048Y-13501524D02*
X13102143Y-13501524D01*
X13102143Y-13501524D02*
X13121191Y-13492000D01*
X13121191Y-13492000D02*
X13130714Y-13482476D01*
X13130714Y-13482476D02*
X13149762Y-13453905D01*
X13149762Y-13453905D02*
X13159286Y-13415809D01*
X13159286Y-13415809D02*
X13159286Y-13339619D01*
X13159286Y-13339619D02*
X13149762Y-13320571D01*
X13149762Y-13320571D02*
X13140238Y-13311048D01*
X13140238Y-13311048D02*
X13121191Y-13301524D01*
X13121191Y-13301524D02*
X13083095Y-13301524D01*
X13083095Y-13301524D02*
X13064048Y-13311048D01*
X13064048Y-13311048D02*
X13054524Y-13320571D01*
X13054524Y-13320571D02*
X13045000Y-13339619D01*
X13045000Y-13339619D02*
X13045000Y-13387238D01*
X13045000Y-13387238D02*
X13054524Y-13406286D01*
X13054524Y-13406286D02*
X13064048Y-13415809D01*
X13064048Y-13415809D02*
X13083095Y-13425333D01*
X13083095Y-13425333D02*
X13121191Y-13425333D01*
X13121191Y-13425333D02*
X13140238Y-13415809D01*
X13140238Y-13415809D02*
X13149762Y-13406286D01*
X13149762Y-13406286D02*
X13159286Y-13387238D01*
X13235476Y-13301524D02*
X13235476Y-13339619D01*
X13311667Y-13301524D02*
X13311667Y-13339619D01*
X13606905Y-13577714D02*
X13597381Y-13568190D01*
X13597381Y-13568190D02*
X13578334Y-13539619D01*
X13578334Y-13539619D02*
X13568810Y-13520571D01*
X13568810Y-13520571D02*
X13559286Y-13492000D01*
X13559286Y-13492000D02*
X13549762Y-13444381D01*
X13549762Y-13444381D02*
X13549762Y-13406286D01*
X13549762Y-13406286D02*
X13559286Y-13358667D01*
X13559286Y-13358667D02*
X13568810Y-13330095D01*
X13568810Y-13330095D02*
X13578334Y-13311048D01*
X13578334Y-13311048D02*
X13597381Y-13282476D01*
X13597381Y-13282476D02*
X13606905Y-13272952D01*
X13711667Y-13387238D02*
X13692619Y-13377714D01*
X13692619Y-13377714D02*
X13683095Y-13368190D01*
X13683095Y-13368190D02*
X13673572Y-13349143D01*
X13673572Y-13349143D02*
X13673572Y-13339619D01*
X13673572Y-13339619D02*
X13683095Y-13320571D01*
X13683095Y-13320571D02*
X13692619Y-13311048D01*
X13692619Y-13311048D02*
X13711667Y-13301524D01*
X13711667Y-13301524D02*
X13749762Y-13301524D01*
X13749762Y-13301524D02*
X13768810Y-13311048D01*
X13768810Y-13311048D02*
X13778334Y-13320571D01*
X13778334Y-13320571D02*
X13787857Y-13339619D01*
X13787857Y-13339619D02*
X13787857Y-13349143D01*
X13787857Y-13349143D02*
X13778334Y-13368190D01*
X13778334Y-13368190D02*
X13768810Y-13377714D01*
X13768810Y-13377714D02*
X13749762Y-13387238D01*
X13749762Y-13387238D02*
X13711667Y-13387238D01*
X13711667Y-13387238D02*
X13692619Y-13396762D01*
X13692619Y-13396762D02*
X13683095Y-13406286D01*
X13683095Y-13406286D02*
X13673572Y-13425333D01*
X13673572Y-13425333D02*
X13673572Y-13463428D01*
X13673572Y-13463428D02*
X13683095Y-13482476D01*
X13683095Y-13482476D02*
X13692619Y-13492000D01*
X13692619Y-13492000D02*
X13711667Y-13501524D01*
X13711667Y-13501524D02*
X13749762Y-13501524D01*
X13749762Y-13501524D02*
X13768810Y-13492000D01*
X13768810Y-13492000D02*
X13778334Y-13482476D01*
X13778334Y-13482476D02*
X13787857Y-13463428D01*
X13787857Y-13463428D02*
X13787857Y-13425333D01*
X13787857Y-13425333D02*
X13778334Y-13406286D01*
X13778334Y-13406286D02*
X13768810Y-13396762D01*
X13768810Y-13396762D02*
X13749762Y-13387238D01*
X14025953Y-13501524D02*
X14025953Y-13301524D01*
X14111667Y-13501524D02*
X14111667Y-13396762D01*
X14111667Y-13396762D02*
X14102143Y-13377714D01*
X14102143Y-13377714D02*
X14083096Y-13368190D01*
X14083096Y-13368190D02*
X14054524Y-13368190D01*
X14054524Y-13368190D02*
X14035476Y-13377714D01*
X14035476Y-13377714D02*
X14025953Y-13387238D01*
X14235476Y-13501524D02*
X14216429Y-13492000D01*
X14216429Y-13492000D02*
X14206905Y-13482476D01*
X14206905Y-13482476D02*
X14197381Y-13463428D01*
X14197381Y-13463428D02*
X14197381Y-13406286D01*
X14197381Y-13406286D02*
X14206905Y-13387238D01*
X14206905Y-13387238D02*
X14216429Y-13377714D01*
X14216429Y-13377714D02*
X14235476Y-13368190D01*
X14235476Y-13368190D02*
X14264048Y-13368190D01*
X14264048Y-13368190D02*
X14283096Y-13377714D01*
X14283096Y-13377714D02*
X14292619Y-13387238D01*
X14292619Y-13387238D02*
X14302143Y-13406286D01*
X14302143Y-13406286D02*
X14302143Y-13463428D01*
X14302143Y-13463428D02*
X14292619Y-13482476D01*
X14292619Y-13482476D02*
X14283096Y-13492000D01*
X14283096Y-13492000D02*
X14264048Y-13501524D01*
X14264048Y-13501524D02*
X14235476Y-13501524D01*
X14416429Y-13501524D02*
X14397381Y-13492000D01*
X14397381Y-13492000D02*
X14387857Y-13472952D01*
X14387857Y-13472952D02*
X14387857Y-13301524D01*
X14568810Y-13492000D02*
X14549762Y-13501524D01*
X14549762Y-13501524D02*
X14511667Y-13501524D01*
X14511667Y-13501524D02*
X14492619Y-13492000D01*
X14492619Y-13492000D02*
X14483096Y-13472952D01*
X14483096Y-13472952D02*
X14483096Y-13396762D01*
X14483096Y-13396762D02*
X14492619Y-13377714D01*
X14492619Y-13377714D02*
X14511667Y-13368190D01*
X14511667Y-13368190D02*
X14549762Y-13368190D01*
X14549762Y-13368190D02*
X14568810Y-13377714D01*
X14568810Y-13377714D02*
X14578334Y-13396762D01*
X14578334Y-13396762D02*
X14578334Y-13415809D01*
X14578334Y-13415809D02*
X14483096Y-13434857D01*
X14654524Y-13492000D02*
X14673572Y-13501524D01*
X14673572Y-13501524D02*
X14711667Y-13501524D01*
X14711667Y-13501524D02*
X14730715Y-13492000D01*
X14730715Y-13492000D02*
X14740238Y-13472952D01*
X14740238Y-13472952D02*
X14740238Y-13463428D01*
X14740238Y-13463428D02*
X14730715Y-13444381D01*
X14730715Y-13444381D02*
X14711667Y-13434857D01*
X14711667Y-13434857D02*
X14683096Y-13434857D01*
X14683096Y-13434857D02*
X14664048Y-13425333D01*
X14664048Y-13425333D02*
X14654524Y-13406286D01*
X14654524Y-13406286D02*
X14654524Y-13396762D01*
X14654524Y-13396762D02*
X14664048Y-13377714D01*
X14664048Y-13377714D02*
X14683096Y-13368190D01*
X14683096Y-13368190D02*
X14711667Y-13368190D01*
X14711667Y-13368190D02*
X14730715Y-13377714D01*
X14806905Y-13577714D02*
X14816429Y-13568190D01*
X14816429Y-13568190D02*
X14835477Y-13539619D01*
X14835477Y-13539619D02*
X14845000Y-13520571D01*
X14845000Y-13520571D02*
X14854524Y-13492000D01*
X14854524Y-13492000D02*
X14864048Y-13444381D01*
X14864048Y-13444381D02*
X14864048Y-13406286D01*
X14864048Y-13406286D02*
X14854524Y-13358667D01*
X14854524Y-13358667D02*
X14845000Y-13330095D01*
X14845000Y-13330095D02*
X14835477Y-13311048D01*
X14835477Y-13311048D02*
X14816429Y-13282476D01*
X14816429Y-13282476D02*
X14806905Y-13272952D01*
X15168810Y-13577714D02*
X15159286Y-13568190D01*
X15159286Y-13568190D02*
X15140238Y-13539619D01*
X15140238Y-13539619D02*
X15130715Y-13520571D01*
X15130715Y-13520571D02*
X15121191Y-13492000D01*
X15121191Y-13492000D02*
X15111667Y-13444381D01*
X15111667Y-13444381D02*
X15111667Y-13406286D01*
X15111667Y-13406286D02*
X15121191Y-13358667D01*
X15121191Y-13358667D02*
X15130715Y-13330095D01*
X15130715Y-13330095D02*
X15140238Y-13311048D01*
X15140238Y-13311048D02*
X15159286Y-13282476D01*
X15159286Y-13282476D02*
X15168810Y-13272952D01*
X15245000Y-13368190D02*
X15245000Y-13501524D01*
X15245000Y-13387238D02*
X15254524Y-13377714D01*
X15254524Y-13377714D02*
X15273572Y-13368190D01*
X15273572Y-13368190D02*
X15302143Y-13368190D01*
X15302143Y-13368190D02*
X15321191Y-13377714D01*
X15321191Y-13377714D02*
X15330715Y-13396762D01*
X15330715Y-13396762D02*
X15330715Y-13501524D01*
X15454524Y-13501524D02*
X15435477Y-13492000D01*
X15435477Y-13492000D02*
X15425953Y-13482476D01*
X15425953Y-13482476D02*
X15416429Y-13463428D01*
X15416429Y-13463428D02*
X15416429Y-13406286D01*
X15416429Y-13406286D02*
X15425953Y-13387238D01*
X15425953Y-13387238D02*
X15435477Y-13377714D01*
X15435477Y-13377714D02*
X15454524Y-13368190D01*
X15454524Y-13368190D02*
X15483096Y-13368190D01*
X15483096Y-13368190D02*
X15502143Y-13377714D01*
X15502143Y-13377714D02*
X15511667Y-13387238D01*
X15511667Y-13387238D02*
X15521191Y-13406286D01*
X15521191Y-13406286D02*
X15521191Y-13463428D01*
X15521191Y-13463428D02*
X15511667Y-13482476D01*
X15511667Y-13482476D02*
X15502143Y-13492000D01*
X15502143Y-13492000D02*
X15483096Y-13501524D01*
X15483096Y-13501524D02*
X15454524Y-13501524D01*
X15578334Y-13368190D02*
X15654524Y-13368190D01*
X15606905Y-13301524D02*
X15606905Y-13472952D01*
X15606905Y-13472952D02*
X15616429Y-13492000D01*
X15616429Y-13492000D02*
X15635477Y-13501524D01*
X15635477Y-13501524D02*
X15654524Y-13501524D01*
X15873572Y-13368190D02*
X15873572Y-13568190D01*
X15873572Y-13377714D02*
X15892619Y-13368190D01*
X15892619Y-13368190D02*
X15930715Y-13368190D01*
X15930715Y-13368190D02*
X15949762Y-13377714D01*
X15949762Y-13377714D02*
X15959286Y-13387238D01*
X15959286Y-13387238D02*
X15968810Y-13406286D01*
X15968810Y-13406286D02*
X15968810Y-13463428D01*
X15968810Y-13463428D02*
X15959286Y-13482476D01*
X15959286Y-13482476D02*
X15949762Y-13492000D01*
X15949762Y-13492000D02*
X15930715Y-13501524D01*
X15930715Y-13501524D02*
X15892619Y-13501524D01*
X15892619Y-13501524D02*
X15873572Y-13492000D01*
X16083096Y-13501524D02*
X16064048Y-13492000D01*
X16064048Y-13492000D02*
X16054524Y-13472952D01*
X16054524Y-13472952D02*
X16054524Y-13301524D01*
X16245000Y-13501524D02*
X16245000Y-13396762D01*
X16245000Y-13396762D02*
X16235477Y-13377714D01*
X16235477Y-13377714D02*
X16216429Y-13368190D01*
X16216429Y-13368190D02*
X16178334Y-13368190D01*
X16178334Y-13368190D02*
X16159286Y-13377714D01*
X16245000Y-13492000D02*
X16225953Y-13501524D01*
X16225953Y-13501524D02*
X16178334Y-13501524D01*
X16178334Y-13501524D02*
X16159286Y-13492000D01*
X16159286Y-13492000D02*
X16149762Y-13472952D01*
X16149762Y-13472952D02*
X16149762Y-13453905D01*
X16149762Y-13453905D02*
X16159286Y-13434857D01*
X16159286Y-13434857D02*
X16178334Y-13425333D01*
X16178334Y-13425333D02*
X16225953Y-13425333D01*
X16225953Y-13425333D02*
X16245000Y-13415809D01*
X16311667Y-13368190D02*
X16387858Y-13368190D01*
X16340239Y-13301524D02*
X16340239Y-13472952D01*
X16340239Y-13472952D02*
X16349762Y-13492000D01*
X16349762Y-13492000D02*
X16368810Y-13501524D01*
X16368810Y-13501524D02*
X16387858Y-13501524D01*
X16530715Y-13492000D02*
X16511667Y-13501524D01*
X16511667Y-13501524D02*
X16473572Y-13501524D01*
X16473572Y-13501524D02*
X16454524Y-13492000D01*
X16454524Y-13492000D02*
X16445000Y-13472952D01*
X16445000Y-13472952D02*
X16445000Y-13396762D01*
X16445000Y-13396762D02*
X16454524Y-13377714D01*
X16454524Y-13377714D02*
X16473572Y-13368190D01*
X16473572Y-13368190D02*
X16511667Y-13368190D01*
X16511667Y-13368190D02*
X16530715Y-13377714D01*
X16530715Y-13377714D02*
X16540239Y-13396762D01*
X16540239Y-13396762D02*
X16540239Y-13415809D01*
X16540239Y-13415809D02*
X16445000Y-13434857D01*
X16711667Y-13501524D02*
X16711667Y-13301524D01*
X16711667Y-13492000D02*
X16692620Y-13501524D01*
X16692620Y-13501524D02*
X16654524Y-13501524D01*
X16654524Y-13501524D02*
X16635477Y-13492000D01*
X16635477Y-13492000D02*
X16625953Y-13482476D01*
X16625953Y-13482476D02*
X16616429Y-13463428D01*
X16616429Y-13463428D02*
X16616429Y-13406286D01*
X16616429Y-13406286D02*
X16625953Y-13387238D01*
X16625953Y-13387238D02*
X16635477Y-13377714D01*
X16635477Y-13377714D02*
X16654524Y-13368190D01*
X16654524Y-13368190D02*
X16692620Y-13368190D01*
X16692620Y-13368190D02*
X16711667Y-13377714D01*
X16787858Y-13577714D02*
X16797382Y-13568190D01*
X16797382Y-13568190D02*
X16816429Y-13539619D01*
X16816429Y-13539619D02*
X16825953Y-13520571D01*
X16825953Y-13520571D02*
X16835477Y-13492000D01*
X16835477Y-13492000D02*
X16845001Y-13444381D01*
X16845001Y-13444381D02*
X16845001Y-13406286D01*
X16845001Y-13406286D02*
X16835477Y-13358667D01*
X16835477Y-13358667D02*
X16825953Y-13330095D01*
X16825953Y-13330095D02*
X16816429Y-13311048D01*
X16816429Y-13311048D02*
X16797382Y-13282476D01*
X16797382Y-13282476D02*
X16787858Y-13272952D01*
X9945000Y-13604000D02*
X9945000Y-13804000D01*
X9845000Y-13704000D02*
X10045000Y-13704000D01*
X10283095Y-13615571D02*
X10292619Y-13606048D01*
X10292619Y-13606048D02*
X10311667Y-13596524D01*
X10311667Y-13596524D02*
X10359286Y-13596524D01*
X10359286Y-13596524D02*
X10378333Y-13606048D01*
X10378333Y-13606048D02*
X10387857Y-13615571D01*
X10387857Y-13615571D02*
X10397381Y-13634619D01*
X10397381Y-13634619D02*
X10397381Y-13653667D01*
X10397381Y-13653667D02*
X10387857Y-13682238D01*
X10387857Y-13682238D02*
X10273571Y-13796524D01*
X10273571Y-13796524D02*
X10397381Y-13796524D01*
X10483095Y-13777476D02*
X10492619Y-13787000D01*
X10492619Y-13787000D02*
X10483095Y-13796524D01*
X10483095Y-13796524D02*
X10473571Y-13787000D01*
X10473571Y-13787000D02*
X10483095Y-13777476D01*
X10483095Y-13777476D02*
X10483095Y-13796524D01*
X10616429Y-13596524D02*
X10635476Y-13596524D01*
X10635476Y-13596524D02*
X10654524Y-13606048D01*
X10654524Y-13606048D02*
X10664048Y-13615571D01*
X10664048Y-13615571D02*
X10673571Y-13634619D01*
X10673571Y-13634619D02*
X10683095Y-13672714D01*
X10683095Y-13672714D02*
X10683095Y-13720333D01*
X10683095Y-13720333D02*
X10673571Y-13758428D01*
X10673571Y-13758428D02*
X10664048Y-13777476D01*
X10664048Y-13777476D02*
X10654524Y-13787000D01*
X10654524Y-13787000D02*
X10635476Y-13796524D01*
X10635476Y-13796524D02*
X10616429Y-13796524D01*
X10616429Y-13796524D02*
X10597381Y-13787000D01*
X10597381Y-13787000D02*
X10587857Y-13777476D01*
X10587857Y-13777476D02*
X10578333Y-13758428D01*
X10578333Y-13758428D02*
X10568810Y-13720333D01*
X10568810Y-13720333D02*
X10568810Y-13672714D01*
X10568810Y-13672714D02*
X10578333Y-13634619D01*
X10578333Y-13634619D02*
X10587857Y-13615571D01*
X10587857Y-13615571D02*
X10597381Y-13606048D01*
X10597381Y-13606048D02*
X10616429Y-13596524D01*
X10806905Y-13596524D02*
X10825952Y-13596524D01*
X10825952Y-13596524D02*
X10845000Y-13606048D01*
X10845000Y-13606048D02*
X10854524Y-13615571D01*
X10854524Y-13615571D02*
X10864048Y-13634619D01*
X10864048Y-13634619D02*
X10873571Y-13672714D01*
X10873571Y-13672714D02*
X10873571Y-13720333D01*
X10873571Y-13720333D02*
X10864048Y-13758428D01*
X10864048Y-13758428D02*
X10854524Y-13777476D01*
X10854524Y-13777476D02*
X10845000Y-13787000D01*
X10845000Y-13787000D02*
X10825952Y-13796524D01*
X10825952Y-13796524D02*
X10806905Y-13796524D01*
X10806905Y-13796524D02*
X10787857Y-13787000D01*
X10787857Y-13787000D02*
X10778333Y-13777476D01*
X10778333Y-13777476D02*
X10768810Y-13758428D01*
X10768810Y-13758428D02*
X10759286Y-13720333D01*
X10759286Y-13720333D02*
X10759286Y-13672714D01*
X10759286Y-13672714D02*
X10768810Y-13634619D01*
X10768810Y-13634619D02*
X10778333Y-13615571D01*
X10778333Y-13615571D02*
X10787857Y-13606048D01*
X10787857Y-13606048D02*
X10806905Y-13596524D01*
X10997381Y-13596524D02*
X11016429Y-13596524D01*
X11016429Y-13596524D02*
X11035476Y-13606048D01*
X11035476Y-13606048D02*
X11045000Y-13615571D01*
X11045000Y-13615571D02*
X11054524Y-13634619D01*
X11054524Y-13634619D02*
X11064048Y-13672714D01*
X11064048Y-13672714D02*
X11064048Y-13720333D01*
X11064048Y-13720333D02*
X11054524Y-13758428D01*
X11054524Y-13758428D02*
X11045000Y-13777476D01*
X11045000Y-13777476D02*
X11035476Y-13787000D01*
X11035476Y-13787000D02*
X11016429Y-13796524D01*
X11016429Y-13796524D02*
X10997381Y-13796524D01*
X10997381Y-13796524D02*
X10978333Y-13787000D01*
X10978333Y-13787000D02*
X10968810Y-13777476D01*
X10968810Y-13777476D02*
X10959286Y-13758428D01*
X10959286Y-13758428D02*
X10949762Y-13720333D01*
X10949762Y-13720333D02*
X10949762Y-13672714D01*
X10949762Y-13672714D02*
X10959286Y-13634619D01*
X10959286Y-13634619D02*
X10968810Y-13615571D01*
X10968810Y-13615571D02*
X10978333Y-13606048D01*
X10978333Y-13606048D02*
X10997381Y-13596524D01*
X11149762Y-13796524D02*
X11149762Y-13663190D01*
X11149762Y-13682238D02*
X11159286Y-13672714D01*
X11159286Y-13672714D02*
X11178333Y-13663190D01*
X11178333Y-13663190D02*
X11206905Y-13663190D01*
X11206905Y-13663190D02*
X11225952Y-13672714D01*
X11225952Y-13672714D02*
X11235476Y-13691762D01*
X11235476Y-13691762D02*
X11235476Y-13796524D01*
X11235476Y-13691762D02*
X11245000Y-13672714D01*
X11245000Y-13672714D02*
X11264048Y-13663190D01*
X11264048Y-13663190D02*
X11292619Y-13663190D01*
X11292619Y-13663190D02*
X11311667Y-13672714D01*
X11311667Y-13672714D02*
X11321190Y-13691762D01*
X11321190Y-13691762D02*
X11321190Y-13796524D01*
X11416429Y-13796524D02*
X11416429Y-13663190D01*
X11416429Y-13682238D02*
X11425952Y-13672714D01*
X11425952Y-13672714D02*
X11445000Y-13663190D01*
X11445000Y-13663190D02*
X11473571Y-13663190D01*
X11473571Y-13663190D02*
X11492619Y-13672714D01*
X11492619Y-13672714D02*
X11502143Y-13691762D01*
X11502143Y-13691762D02*
X11502143Y-13796524D01*
X11502143Y-13691762D02*
X11511667Y-13672714D01*
X11511667Y-13672714D02*
X11530714Y-13663190D01*
X11530714Y-13663190D02*
X11559286Y-13663190D01*
X11559286Y-13663190D02*
X11578333Y-13672714D01*
X11578333Y-13672714D02*
X11587857Y-13691762D01*
X11587857Y-13691762D02*
X11587857Y-13796524D01*
X11978333Y-13587000D02*
X11806905Y-13844143D01*
X12235476Y-13596524D02*
X12254524Y-13596524D01*
X12254524Y-13596524D02*
X12273572Y-13606048D01*
X12273572Y-13606048D02*
X12283095Y-13615571D01*
X12283095Y-13615571D02*
X12292619Y-13634619D01*
X12292619Y-13634619D02*
X12302143Y-13672714D01*
X12302143Y-13672714D02*
X12302143Y-13720333D01*
X12302143Y-13720333D02*
X12292619Y-13758428D01*
X12292619Y-13758428D02*
X12283095Y-13777476D01*
X12283095Y-13777476D02*
X12273572Y-13787000D01*
X12273572Y-13787000D02*
X12254524Y-13796524D01*
X12254524Y-13796524D02*
X12235476Y-13796524D01*
X12235476Y-13796524D02*
X12216429Y-13787000D01*
X12216429Y-13787000D02*
X12206905Y-13777476D01*
X12206905Y-13777476D02*
X12197381Y-13758428D01*
X12197381Y-13758428D02*
X12187857Y-13720333D01*
X12187857Y-13720333D02*
X12187857Y-13672714D01*
X12187857Y-13672714D02*
X12197381Y-13634619D01*
X12197381Y-13634619D02*
X12206905Y-13615571D01*
X12206905Y-13615571D02*
X12216429Y-13606048D01*
X12216429Y-13606048D02*
X12235476Y-13596524D01*
X12387857Y-13777476D02*
X12397381Y-13787000D01*
X12397381Y-13787000D02*
X12387857Y-13796524D01*
X12387857Y-13796524D02*
X12378333Y-13787000D01*
X12378333Y-13787000D02*
X12387857Y-13777476D01*
X12387857Y-13777476D02*
X12387857Y-13796524D01*
X12521191Y-13596524D02*
X12540238Y-13596524D01*
X12540238Y-13596524D02*
X12559286Y-13606048D01*
X12559286Y-13606048D02*
X12568810Y-13615571D01*
X12568810Y-13615571D02*
X12578333Y-13634619D01*
X12578333Y-13634619D02*
X12587857Y-13672714D01*
X12587857Y-13672714D02*
X12587857Y-13720333D01*
X12587857Y-13720333D02*
X12578333Y-13758428D01*
X12578333Y-13758428D02*
X12568810Y-13777476D01*
X12568810Y-13777476D02*
X12559286Y-13787000D01*
X12559286Y-13787000D02*
X12540238Y-13796524D01*
X12540238Y-13796524D02*
X12521191Y-13796524D01*
X12521191Y-13796524D02*
X12502143Y-13787000D01*
X12502143Y-13787000D02*
X12492619Y-13777476D01*
X12492619Y-13777476D02*
X12483095Y-13758428D01*
X12483095Y-13758428D02*
X12473572Y-13720333D01*
X12473572Y-13720333D02*
X12473572Y-13672714D01*
X12473572Y-13672714D02*
X12483095Y-13634619D01*
X12483095Y-13634619D02*
X12492619Y-13615571D01*
X12492619Y-13615571D02*
X12502143Y-13606048D01*
X12502143Y-13606048D02*
X12521191Y-13596524D01*
X12654524Y-13596524D02*
X12787857Y-13596524D01*
X12787857Y-13596524D02*
X12702143Y-13796524D01*
X12892619Y-13682238D02*
X12873572Y-13672714D01*
X12873572Y-13672714D02*
X12864048Y-13663190D01*
X12864048Y-13663190D02*
X12854524Y-13644143D01*
X12854524Y-13644143D02*
X12854524Y-13634619D01*
X12854524Y-13634619D02*
X12864048Y-13615571D01*
X12864048Y-13615571D02*
X12873572Y-13606048D01*
X12873572Y-13606048D02*
X12892619Y-13596524D01*
X12892619Y-13596524D02*
X12930714Y-13596524D01*
X12930714Y-13596524D02*
X12949762Y-13606048D01*
X12949762Y-13606048D02*
X12959286Y-13615571D01*
X12959286Y-13615571D02*
X12968810Y-13634619D01*
X12968810Y-13634619D02*
X12968810Y-13644143D01*
X12968810Y-13644143D02*
X12959286Y-13663190D01*
X12959286Y-13663190D02*
X12949762Y-13672714D01*
X12949762Y-13672714D02*
X12930714Y-13682238D01*
X12930714Y-13682238D02*
X12892619Y-13682238D01*
X12892619Y-13682238D02*
X12873572Y-13691762D01*
X12873572Y-13691762D02*
X12864048Y-13701286D01*
X12864048Y-13701286D02*
X12854524Y-13720333D01*
X12854524Y-13720333D02*
X12854524Y-13758428D01*
X12854524Y-13758428D02*
X12864048Y-13777476D01*
X12864048Y-13777476D02*
X12873572Y-13787000D01*
X12873572Y-13787000D02*
X12892619Y-13796524D01*
X12892619Y-13796524D02*
X12930714Y-13796524D01*
X12930714Y-13796524D02*
X12949762Y-13787000D01*
X12949762Y-13787000D02*
X12959286Y-13777476D01*
X12959286Y-13777476D02*
X12968810Y-13758428D01*
X12968810Y-13758428D02*
X12968810Y-13720333D01*
X12968810Y-13720333D02*
X12959286Y-13701286D01*
X12959286Y-13701286D02*
X12949762Y-13691762D01*
X12949762Y-13691762D02*
X12930714Y-13682238D01*
X13035476Y-13596524D02*
X13168810Y-13596524D01*
X13168810Y-13596524D02*
X13083095Y-13796524D01*
X13235476Y-13596524D02*
X13235476Y-13634619D01*
X13311667Y-13596524D02*
X13311667Y-13634619D01*
X13606905Y-13872714D02*
X13597381Y-13863190D01*
X13597381Y-13863190D02*
X13578334Y-13834619D01*
X13578334Y-13834619D02*
X13568810Y-13815571D01*
X13568810Y-13815571D02*
X13559286Y-13787000D01*
X13559286Y-13787000D02*
X13549762Y-13739381D01*
X13549762Y-13739381D02*
X13549762Y-13701286D01*
X13549762Y-13701286D02*
X13559286Y-13653667D01*
X13559286Y-13653667D02*
X13568810Y-13625095D01*
X13568810Y-13625095D02*
X13578334Y-13606048D01*
X13578334Y-13606048D02*
X13597381Y-13577476D01*
X13597381Y-13577476D02*
X13606905Y-13567952D01*
X13721191Y-13596524D02*
X13740238Y-13596524D01*
X13740238Y-13596524D02*
X13759286Y-13606048D01*
X13759286Y-13606048D02*
X13768810Y-13615571D01*
X13768810Y-13615571D02*
X13778334Y-13634619D01*
X13778334Y-13634619D02*
X13787857Y-13672714D01*
X13787857Y-13672714D02*
X13787857Y-13720333D01*
X13787857Y-13720333D02*
X13778334Y-13758428D01*
X13778334Y-13758428D02*
X13768810Y-13777476D01*
X13768810Y-13777476D02*
X13759286Y-13787000D01*
X13759286Y-13787000D02*
X13740238Y-13796524D01*
X13740238Y-13796524D02*
X13721191Y-13796524D01*
X13721191Y-13796524D02*
X13702143Y-13787000D01*
X13702143Y-13787000D02*
X13692619Y-13777476D01*
X13692619Y-13777476D02*
X13683095Y-13758428D01*
X13683095Y-13758428D02*
X13673572Y-13720333D01*
X13673572Y-13720333D02*
X13673572Y-13672714D01*
X13673572Y-13672714D02*
X13683095Y-13634619D01*
X13683095Y-13634619D02*
X13692619Y-13615571D01*
X13692619Y-13615571D02*
X13702143Y-13606048D01*
X13702143Y-13606048D02*
X13721191Y-13596524D01*
X14025953Y-13796524D02*
X14025953Y-13596524D01*
X14111667Y-13796524D02*
X14111667Y-13691762D01*
X14111667Y-13691762D02*
X14102143Y-13672714D01*
X14102143Y-13672714D02*
X14083096Y-13663190D01*
X14083096Y-13663190D02*
X14054524Y-13663190D01*
X14054524Y-13663190D02*
X14035476Y-13672714D01*
X14035476Y-13672714D02*
X14025953Y-13682238D01*
X14235476Y-13796524D02*
X14216429Y-13787000D01*
X14216429Y-13787000D02*
X14206905Y-13777476D01*
X14206905Y-13777476D02*
X14197381Y-13758428D01*
X14197381Y-13758428D02*
X14197381Y-13701286D01*
X14197381Y-13701286D02*
X14206905Y-13682238D01*
X14206905Y-13682238D02*
X14216429Y-13672714D01*
X14216429Y-13672714D02*
X14235476Y-13663190D01*
X14235476Y-13663190D02*
X14264048Y-13663190D01*
X14264048Y-13663190D02*
X14283096Y-13672714D01*
X14283096Y-13672714D02*
X14292619Y-13682238D01*
X14292619Y-13682238D02*
X14302143Y-13701286D01*
X14302143Y-13701286D02*
X14302143Y-13758428D01*
X14302143Y-13758428D02*
X14292619Y-13777476D01*
X14292619Y-13777476D02*
X14283096Y-13787000D01*
X14283096Y-13787000D02*
X14264048Y-13796524D01*
X14264048Y-13796524D02*
X14235476Y-13796524D01*
X14416429Y-13796524D02*
X14397381Y-13787000D01*
X14397381Y-13787000D02*
X14387857Y-13767952D01*
X14387857Y-13767952D02*
X14387857Y-13596524D01*
X14568810Y-13787000D02*
X14549762Y-13796524D01*
X14549762Y-13796524D02*
X14511667Y-13796524D01*
X14511667Y-13796524D02*
X14492619Y-13787000D01*
X14492619Y-13787000D02*
X14483096Y-13767952D01*
X14483096Y-13767952D02*
X14483096Y-13691762D01*
X14483096Y-13691762D02*
X14492619Y-13672714D01*
X14492619Y-13672714D02*
X14511667Y-13663190D01*
X14511667Y-13663190D02*
X14549762Y-13663190D01*
X14549762Y-13663190D02*
X14568810Y-13672714D01*
X14568810Y-13672714D02*
X14578334Y-13691762D01*
X14578334Y-13691762D02*
X14578334Y-13710809D01*
X14578334Y-13710809D02*
X14483096Y-13729857D01*
X14654524Y-13787000D02*
X14673572Y-13796524D01*
X14673572Y-13796524D02*
X14711667Y-13796524D01*
X14711667Y-13796524D02*
X14730715Y-13787000D01*
X14730715Y-13787000D02*
X14740238Y-13767952D01*
X14740238Y-13767952D02*
X14740238Y-13758428D01*
X14740238Y-13758428D02*
X14730715Y-13739381D01*
X14730715Y-13739381D02*
X14711667Y-13729857D01*
X14711667Y-13729857D02*
X14683096Y-13729857D01*
X14683096Y-13729857D02*
X14664048Y-13720333D01*
X14664048Y-13720333D02*
X14654524Y-13701286D01*
X14654524Y-13701286D02*
X14654524Y-13691762D01*
X14654524Y-13691762D02*
X14664048Y-13672714D01*
X14664048Y-13672714D02*
X14683096Y-13663190D01*
X14683096Y-13663190D02*
X14711667Y-13663190D01*
X14711667Y-13663190D02*
X14730715Y-13672714D01*
X14978334Y-13720333D02*
X15130715Y-13720333D01*
X15054524Y-13796524D02*
X15054524Y-13644143D01*
X15464048Y-13663190D02*
X15464048Y-13796524D01*
X15416429Y-13587000D02*
X15368810Y-13729857D01*
X15368810Y-13729857D02*
X15492619Y-13729857D01*
X15711667Y-13787000D02*
X15730715Y-13796524D01*
X15730715Y-13796524D02*
X15768810Y-13796524D01*
X15768810Y-13796524D02*
X15787858Y-13787000D01*
X15787858Y-13787000D02*
X15797381Y-13767952D01*
X15797381Y-13767952D02*
X15797381Y-13758428D01*
X15797381Y-13758428D02*
X15787858Y-13739381D01*
X15787858Y-13739381D02*
X15768810Y-13729857D01*
X15768810Y-13729857D02*
X15740239Y-13729857D01*
X15740239Y-13729857D02*
X15721191Y-13720333D01*
X15721191Y-13720333D02*
X15711667Y-13701286D01*
X15711667Y-13701286D02*
X15711667Y-13691762D01*
X15711667Y-13691762D02*
X15721191Y-13672714D01*
X15721191Y-13672714D02*
X15740239Y-13663190D01*
X15740239Y-13663190D02*
X15768810Y-13663190D01*
X15768810Y-13663190D02*
X15787858Y-13672714D01*
X15911667Y-13796524D02*
X15892620Y-13787000D01*
X15892620Y-13787000D02*
X15883096Y-13767952D01*
X15883096Y-13767952D02*
X15883096Y-13596524D01*
X16016429Y-13796524D02*
X15997381Y-13787000D01*
X15997381Y-13787000D02*
X15987858Y-13777476D01*
X15987858Y-13777476D02*
X15978334Y-13758428D01*
X15978334Y-13758428D02*
X15978334Y-13701286D01*
X15978334Y-13701286D02*
X15987858Y-13682238D01*
X15987858Y-13682238D02*
X15997381Y-13672714D01*
X15997381Y-13672714D02*
X16016429Y-13663190D01*
X16016429Y-13663190D02*
X16045001Y-13663190D01*
X16045001Y-13663190D02*
X16064048Y-13672714D01*
X16064048Y-13672714D02*
X16073572Y-13682238D01*
X16073572Y-13682238D02*
X16083096Y-13701286D01*
X16083096Y-13701286D02*
X16083096Y-13758428D01*
X16083096Y-13758428D02*
X16073572Y-13777476D01*
X16073572Y-13777476D02*
X16064048Y-13787000D01*
X16064048Y-13787000D02*
X16045001Y-13796524D01*
X16045001Y-13796524D02*
X16016429Y-13796524D01*
X16140239Y-13663190D02*
X16216429Y-13663190D01*
X16168810Y-13596524D02*
X16168810Y-13767952D01*
X16168810Y-13767952D02*
X16178334Y-13787000D01*
X16178334Y-13787000D02*
X16197381Y-13796524D01*
X16197381Y-13796524D02*
X16216429Y-13796524D01*
X16273572Y-13787000D02*
X16292620Y-13796524D01*
X16292620Y-13796524D02*
X16330715Y-13796524D01*
X16330715Y-13796524D02*
X16349762Y-13787000D01*
X16349762Y-13787000D02*
X16359286Y-13767952D01*
X16359286Y-13767952D02*
X16359286Y-13758428D01*
X16359286Y-13758428D02*
X16349762Y-13739381D01*
X16349762Y-13739381D02*
X16330715Y-13729857D01*
X16330715Y-13729857D02*
X16302143Y-13729857D01*
X16302143Y-13729857D02*
X16283096Y-13720333D01*
X16283096Y-13720333D02*
X16273572Y-13701286D01*
X16273572Y-13701286D02*
X16273572Y-13691762D01*
X16273572Y-13691762D02*
X16283096Y-13672714D01*
X16283096Y-13672714D02*
X16302143Y-13663190D01*
X16302143Y-13663190D02*
X16330715Y-13663190D01*
X16330715Y-13663190D02*
X16349762Y-13672714D01*
X16425953Y-13872714D02*
X16435477Y-13863190D01*
X16435477Y-13863190D02*
X16454524Y-13834619D01*
X16454524Y-13834619D02*
X16464048Y-13815571D01*
X16464048Y-13815571D02*
X16473572Y-13787000D01*
X16473572Y-13787000D02*
X16483096Y-13739381D01*
X16483096Y-13739381D02*
X16483096Y-13701286D01*
X16483096Y-13701286D02*
X16473572Y-13653667D01*
X16473572Y-13653667D02*
X16464048Y-13625095D01*
X16464048Y-13625095D02*
X16454524Y-13606048D01*
X16454524Y-13606048D02*
X16435477Y-13577476D01*
X16435477Y-13577476D02*
X16425953Y-13567952D01*
X16787858Y-13872714D02*
X16778334Y-13863190D01*
X16778334Y-13863190D02*
X16759286Y-13834619D01*
X16759286Y-13834619D02*
X16749762Y-13815571D01*
X16749762Y-13815571D02*
X16740239Y-13787000D01*
X16740239Y-13787000D02*
X16730715Y-13739381D01*
X16730715Y-13739381D02*
X16730715Y-13701286D01*
X16730715Y-13701286D02*
X16740239Y-13653667D01*
X16740239Y-13653667D02*
X16749762Y-13625095D01*
X16749762Y-13625095D02*
X16759286Y-13606048D01*
X16759286Y-13606048D02*
X16778334Y-13577476D01*
X16778334Y-13577476D02*
X16787858Y-13567952D01*
X16864048Y-13663190D02*
X16864048Y-13796524D01*
X16864048Y-13682238D02*
X16873572Y-13672714D01*
X16873572Y-13672714D02*
X16892620Y-13663190D01*
X16892620Y-13663190D02*
X16921191Y-13663190D01*
X16921191Y-13663190D02*
X16940239Y-13672714D01*
X16940239Y-13672714D02*
X16949763Y-13691762D01*
X16949763Y-13691762D02*
X16949763Y-13796524D01*
X17073572Y-13796524D02*
X17054524Y-13787000D01*
X17054524Y-13787000D02*
X17045001Y-13777476D01*
X17045001Y-13777476D02*
X17035477Y-13758428D01*
X17035477Y-13758428D02*
X17035477Y-13701286D01*
X17035477Y-13701286D02*
X17045001Y-13682238D01*
X17045001Y-13682238D02*
X17054524Y-13672714D01*
X17054524Y-13672714D02*
X17073572Y-13663190D01*
X17073572Y-13663190D02*
X17102144Y-13663190D01*
X17102144Y-13663190D02*
X17121191Y-13672714D01*
X17121191Y-13672714D02*
X17130715Y-13682238D01*
X17130715Y-13682238D02*
X17140239Y-13701286D01*
X17140239Y-13701286D02*
X17140239Y-13758428D01*
X17140239Y-13758428D02*
X17130715Y-13777476D01*
X17130715Y-13777476D02*
X17121191Y-13787000D01*
X17121191Y-13787000D02*
X17102144Y-13796524D01*
X17102144Y-13796524D02*
X17073572Y-13796524D01*
X17197382Y-13663190D02*
X17273572Y-13663190D01*
X17225953Y-13596524D02*
X17225953Y-13767952D01*
X17225953Y-13767952D02*
X17235477Y-13787000D01*
X17235477Y-13787000D02*
X17254524Y-13796524D01*
X17254524Y-13796524D02*
X17273572Y-13796524D01*
X17492620Y-13663190D02*
X17492620Y-13863190D01*
X17492620Y-13672714D02*
X17511667Y-13663190D01*
X17511667Y-13663190D02*
X17549763Y-13663190D01*
X17549763Y-13663190D02*
X17568810Y-13672714D01*
X17568810Y-13672714D02*
X17578334Y-13682238D01*
X17578334Y-13682238D02*
X17587858Y-13701286D01*
X17587858Y-13701286D02*
X17587858Y-13758428D01*
X17587858Y-13758428D02*
X17578334Y-13777476D01*
X17578334Y-13777476D02*
X17568810Y-13787000D01*
X17568810Y-13787000D02*
X17549763Y-13796524D01*
X17549763Y-13796524D02*
X17511667Y-13796524D01*
X17511667Y-13796524D02*
X17492620Y-13787000D01*
X17702144Y-13796524D02*
X17683096Y-13787000D01*
X17683096Y-13787000D02*
X17673572Y-13767952D01*
X17673572Y-13767952D02*
X17673572Y-13596524D01*
X17864048Y-13796524D02*
X17864048Y-13691762D01*
X17864048Y-13691762D02*
X17854525Y-13672714D01*
X17854525Y-13672714D02*
X17835477Y-13663190D01*
X17835477Y-13663190D02*
X17797382Y-13663190D01*
X17797382Y-13663190D02*
X17778334Y-13672714D01*
X17864048Y-13787000D02*
X17845001Y-13796524D01*
X17845001Y-13796524D02*
X17797382Y-13796524D01*
X17797382Y-13796524D02*
X17778334Y-13787000D01*
X17778334Y-13787000D02*
X17768810Y-13767952D01*
X17768810Y-13767952D02*
X17768810Y-13748905D01*
X17768810Y-13748905D02*
X17778334Y-13729857D01*
X17778334Y-13729857D02*
X17797382Y-13720333D01*
X17797382Y-13720333D02*
X17845001Y-13720333D01*
X17845001Y-13720333D02*
X17864048Y-13710809D01*
X17930715Y-13663190D02*
X18006905Y-13663190D01*
X17959286Y-13596524D02*
X17959286Y-13767952D01*
X17959286Y-13767952D02*
X17968810Y-13787000D01*
X17968810Y-13787000D02*
X17987858Y-13796524D01*
X17987858Y-13796524D02*
X18006905Y-13796524D01*
X18149763Y-13787000D02*
X18130715Y-13796524D01*
X18130715Y-13796524D02*
X18092620Y-13796524D01*
X18092620Y-13796524D02*
X18073572Y-13787000D01*
X18073572Y-13787000D02*
X18064048Y-13767952D01*
X18064048Y-13767952D02*
X18064048Y-13691762D01*
X18064048Y-13691762D02*
X18073572Y-13672714D01*
X18073572Y-13672714D02*
X18092620Y-13663190D01*
X18092620Y-13663190D02*
X18130715Y-13663190D01*
X18130715Y-13663190D02*
X18149763Y-13672714D01*
X18149763Y-13672714D02*
X18159286Y-13691762D01*
X18159286Y-13691762D02*
X18159286Y-13710809D01*
X18159286Y-13710809D02*
X18064048Y-13729857D01*
X18330715Y-13796524D02*
X18330715Y-13596524D01*
X18330715Y-13787000D02*
X18311667Y-13796524D01*
X18311667Y-13796524D02*
X18273572Y-13796524D01*
X18273572Y-13796524D02*
X18254525Y-13787000D01*
X18254525Y-13787000D02*
X18245001Y-13777476D01*
X18245001Y-13777476D02*
X18235477Y-13758428D01*
X18235477Y-13758428D02*
X18235477Y-13701286D01*
X18235477Y-13701286D02*
X18245001Y-13682238D01*
X18245001Y-13682238D02*
X18254525Y-13672714D01*
X18254525Y-13672714D02*
X18273572Y-13663190D01*
X18273572Y-13663190D02*
X18311667Y-13663190D01*
X18311667Y-13663190D02*
X18330715Y-13672714D01*
X18406906Y-13872714D02*
X18416429Y-13863190D01*
X18416429Y-13863190D02*
X18435477Y-13834619D01*
X18435477Y-13834619D02*
X18445001Y-13815571D01*
X18445001Y-13815571D02*
X18454525Y-13787000D01*
X18454525Y-13787000D02*
X18464048Y-13739381D01*
X18464048Y-13739381D02*
X18464048Y-13701286D01*
X18464048Y-13701286D02*
X18454525Y-13653667D01*
X18454525Y-13653667D02*
X18445001Y-13625095D01*
X18445001Y-13625095D02*
X18435477Y-13606048D01*
X18435477Y-13606048D02*
X18416429Y-13577476D01*
X18416429Y-13577476D02*
X18406906Y-13567952D01*
X10015711Y-14094711D02*
X10015711Y-13953289D01*
X9874289Y-13953289D01*
X9874289Y-14094711D01*
X10015711Y-14094711D01*
X10273571Y-13916524D02*
X10397381Y-13916524D01*
X10397381Y-13916524D02*
X10330714Y-13992714D01*
X10330714Y-13992714D02*
X10359286Y-13992714D01*
X10359286Y-13992714D02*
X10378333Y-14002238D01*
X10378333Y-14002238D02*
X10387857Y-14011762D01*
X10387857Y-14011762D02*
X10397381Y-14030809D01*
X10397381Y-14030809D02*
X10397381Y-14078428D01*
X10397381Y-14078428D02*
X10387857Y-14097476D01*
X10387857Y-14097476D02*
X10378333Y-14107000D01*
X10378333Y-14107000D02*
X10359286Y-14116524D01*
X10359286Y-14116524D02*
X10302143Y-14116524D01*
X10302143Y-14116524D02*
X10283095Y-14107000D01*
X10283095Y-14107000D02*
X10273571Y-14097476D01*
X10483095Y-14097476D02*
X10492619Y-14107000D01*
X10492619Y-14107000D02*
X10483095Y-14116524D01*
X10483095Y-14116524D02*
X10473571Y-14107000D01*
X10473571Y-14107000D02*
X10483095Y-14097476D01*
X10483095Y-14097476D02*
X10483095Y-14116524D01*
X10616429Y-13916524D02*
X10635476Y-13916524D01*
X10635476Y-13916524D02*
X10654524Y-13926048D01*
X10654524Y-13926048D02*
X10664048Y-13935571D01*
X10664048Y-13935571D02*
X10673571Y-13954619D01*
X10673571Y-13954619D02*
X10683095Y-13992714D01*
X10683095Y-13992714D02*
X10683095Y-14040333D01*
X10683095Y-14040333D02*
X10673571Y-14078428D01*
X10673571Y-14078428D02*
X10664048Y-14097476D01*
X10664048Y-14097476D02*
X10654524Y-14107000D01*
X10654524Y-14107000D02*
X10635476Y-14116524D01*
X10635476Y-14116524D02*
X10616429Y-14116524D01*
X10616429Y-14116524D02*
X10597381Y-14107000D01*
X10597381Y-14107000D02*
X10587857Y-14097476D01*
X10587857Y-14097476D02*
X10578333Y-14078428D01*
X10578333Y-14078428D02*
X10568810Y-14040333D01*
X10568810Y-14040333D02*
X10568810Y-13992714D01*
X10568810Y-13992714D02*
X10578333Y-13954619D01*
X10578333Y-13954619D02*
X10587857Y-13935571D01*
X10587857Y-13935571D02*
X10597381Y-13926048D01*
X10597381Y-13926048D02*
X10616429Y-13916524D01*
X10864048Y-13916524D02*
X10768810Y-13916524D01*
X10768810Y-13916524D02*
X10759286Y-14011762D01*
X10759286Y-14011762D02*
X10768810Y-14002238D01*
X10768810Y-14002238D02*
X10787857Y-13992714D01*
X10787857Y-13992714D02*
X10835476Y-13992714D01*
X10835476Y-13992714D02*
X10854524Y-14002238D01*
X10854524Y-14002238D02*
X10864048Y-14011762D01*
X10864048Y-14011762D02*
X10873571Y-14030809D01*
X10873571Y-14030809D02*
X10873571Y-14078428D01*
X10873571Y-14078428D02*
X10864048Y-14097476D01*
X10864048Y-14097476D02*
X10854524Y-14107000D01*
X10854524Y-14107000D02*
X10835476Y-14116524D01*
X10835476Y-14116524D02*
X10787857Y-14116524D01*
X10787857Y-14116524D02*
X10768810Y-14107000D01*
X10768810Y-14107000D02*
X10759286Y-14097476D01*
X10997381Y-13916524D02*
X11016429Y-13916524D01*
X11016429Y-13916524D02*
X11035476Y-13926048D01*
X11035476Y-13926048D02*
X11045000Y-13935571D01*
X11045000Y-13935571D02*
X11054524Y-13954619D01*
X11054524Y-13954619D02*
X11064048Y-13992714D01*
X11064048Y-13992714D02*
X11064048Y-14040333D01*
X11064048Y-14040333D02*
X11054524Y-14078428D01*
X11054524Y-14078428D02*
X11045000Y-14097476D01*
X11045000Y-14097476D02*
X11035476Y-14107000D01*
X11035476Y-14107000D02*
X11016429Y-14116524D01*
X11016429Y-14116524D02*
X10997381Y-14116524D01*
X10997381Y-14116524D02*
X10978333Y-14107000D01*
X10978333Y-14107000D02*
X10968810Y-14097476D01*
X10968810Y-14097476D02*
X10959286Y-14078428D01*
X10959286Y-14078428D02*
X10949762Y-14040333D01*
X10949762Y-14040333D02*
X10949762Y-13992714D01*
X10949762Y-13992714D02*
X10959286Y-13954619D01*
X10959286Y-13954619D02*
X10968810Y-13935571D01*
X10968810Y-13935571D02*
X10978333Y-13926048D01*
X10978333Y-13926048D02*
X10997381Y-13916524D01*
X11149762Y-14116524D02*
X11149762Y-13983190D01*
X11149762Y-14002238D02*
X11159286Y-13992714D01*
X11159286Y-13992714D02*
X11178333Y-13983190D01*
X11178333Y-13983190D02*
X11206905Y-13983190D01*
X11206905Y-13983190D02*
X11225952Y-13992714D01*
X11225952Y-13992714D02*
X11235476Y-14011762D01*
X11235476Y-14011762D02*
X11235476Y-14116524D01*
X11235476Y-14011762D02*
X11245000Y-13992714D01*
X11245000Y-13992714D02*
X11264048Y-13983190D01*
X11264048Y-13983190D02*
X11292619Y-13983190D01*
X11292619Y-13983190D02*
X11311667Y-13992714D01*
X11311667Y-13992714D02*
X11321190Y-14011762D01*
X11321190Y-14011762D02*
X11321190Y-14116524D01*
X11416429Y-14116524D02*
X11416429Y-13983190D01*
X11416429Y-14002238D02*
X11425952Y-13992714D01*
X11425952Y-13992714D02*
X11445000Y-13983190D01*
X11445000Y-13983190D02*
X11473571Y-13983190D01*
X11473571Y-13983190D02*
X11492619Y-13992714D01*
X11492619Y-13992714D02*
X11502143Y-14011762D01*
X11502143Y-14011762D02*
X11502143Y-14116524D01*
X11502143Y-14011762D02*
X11511667Y-13992714D01*
X11511667Y-13992714D02*
X11530714Y-13983190D01*
X11530714Y-13983190D02*
X11559286Y-13983190D01*
X11559286Y-13983190D02*
X11578333Y-13992714D01*
X11578333Y-13992714D02*
X11587857Y-14011762D01*
X11587857Y-14011762D02*
X11587857Y-14116524D01*
X11978333Y-13907000D02*
X11806905Y-14164143D01*
X12235476Y-13916524D02*
X12254524Y-13916524D01*
X12254524Y-13916524D02*
X12273572Y-13926048D01*
X12273572Y-13926048D02*
X12283095Y-13935571D01*
X12283095Y-13935571D02*
X12292619Y-13954619D01*
X12292619Y-13954619D02*
X12302143Y-13992714D01*
X12302143Y-13992714D02*
X12302143Y-14040333D01*
X12302143Y-14040333D02*
X12292619Y-14078428D01*
X12292619Y-14078428D02*
X12283095Y-14097476D01*
X12283095Y-14097476D02*
X12273572Y-14107000D01*
X12273572Y-14107000D02*
X12254524Y-14116524D01*
X12254524Y-14116524D02*
X12235476Y-14116524D01*
X12235476Y-14116524D02*
X12216429Y-14107000D01*
X12216429Y-14107000D02*
X12206905Y-14097476D01*
X12206905Y-14097476D02*
X12197381Y-14078428D01*
X12197381Y-14078428D02*
X12187857Y-14040333D01*
X12187857Y-14040333D02*
X12187857Y-13992714D01*
X12187857Y-13992714D02*
X12197381Y-13954619D01*
X12197381Y-13954619D02*
X12206905Y-13935571D01*
X12206905Y-13935571D02*
X12216429Y-13926048D01*
X12216429Y-13926048D02*
X12235476Y-13916524D01*
X12387857Y-14097476D02*
X12397381Y-14107000D01*
X12397381Y-14107000D02*
X12387857Y-14116524D01*
X12387857Y-14116524D02*
X12378333Y-14107000D01*
X12378333Y-14107000D02*
X12387857Y-14097476D01*
X12387857Y-14097476D02*
X12387857Y-14116524D01*
X12587857Y-14116524D02*
X12473572Y-14116524D01*
X12530714Y-14116524D02*
X12530714Y-13916524D01*
X12530714Y-13916524D02*
X12511667Y-13945095D01*
X12511667Y-13945095D02*
X12492619Y-13964143D01*
X12492619Y-13964143D02*
X12473572Y-13973667D01*
X12664048Y-13935571D02*
X12673572Y-13926048D01*
X12673572Y-13926048D02*
X12692619Y-13916524D01*
X12692619Y-13916524D02*
X12740238Y-13916524D01*
X12740238Y-13916524D02*
X12759286Y-13926048D01*
X12759286Y-13926048D02*
X12768810Y-13935571D01*
X12768810Y-13935571D02*
X12778333Y-13954619D01*
X12778333Y-13954619D02*
X12778333Y-13973667D01*
X12778333Y-13973667D02*
X12768810Y-14002238D01*
X12768810Y-14002238D02*
X12654524Y-14116524D01*
X12654524Y-14116524D02*
X12778333Y-14116524D01*
X12902143Y-13916524D02*
X12921191Y-13916524D01*
X12921191Y-13916524D02*
X12940238Y-13926048D01*
X12940238Y-13926048D02*
X12949762Y-13935571D01*
X12949762Y-13935571D02*
X12959286Y-13954619D01*
X12959286Y-13954619D02*
X12968810Y-13992714D01*
X12968810Y-13992714D02*
X12968810Y-14040333D01*
X12968810Y-14040333D02*
X12959286Y-14078428D01*
X12959286Y-14078428D02*
X12949762Y-14097476D01*
X12949762Y-14097476D02*
X12940238Y-14107000D01*
X12940238Y-14107000D02*
X12921191Y-14116524D01*
X12921191Y-14116524D02*
X12902143Y-14116524D01*
X12902143Y-14116524D02*
X12883095Y-14107000D01*
X12883095Y-14107000D02*
X12873572Y-14097476D01*
X12873572Y-14097476D02*
X12864048Y-14078428D01*
X12864048Y-14078428D02*
X12854524Y-14040333D01*
X12854524Y-14040333D02*
X12854524Y-13992714D01*
X12854524Y-13992714D02*
X12864048Y-13954619D01*
X12864048Y-13954619D02*
X12873572Y-13935571D01*
X12873572Y-13935571D02*
X12883095Y-13926048D01*
X12883095Y-13926048D02*
X12902143Y-13916524D01*
X13159286Y-14116524D02*
X13045000Y-14116524D01*
X13102143Y-14116524D02*
X13102143Y-13916524D01*
X13102143Y-13916524D02*
X13083095Y-13945095D01*
X13083095Y-13945095D02*
X13064048Y-13964143D01*
X13064048Y-13964143D02*
X13045000Y-13973667D01*
X13235476Y-13916524D02*
X13235476Y-13954619D01*
X13311667Y-13916524D02*
X13311667Y-13954619D01*
X13606905Y-14192714D02*
X13597381Y-14183190D01*
X13597381Y-14183190D02*
X13578334Y-14154619D01*
X13578334Y-14154619D02*
X13568810Y-14135571D01*
X13568810Y-14135571D02*
X13559286Y-14107000D01*
X13559286Y-14107000D02*
X13549762Y-14059381D01*
X13549762Y-14059381D02*
X13549762Y-14021286D01*
X13549762Y-14021286D02*
X13559286Y-13973667D01*
X13559286Y-13973667D02*
X13568810Y-13945095D01*
X13568810Y-13945095D02*
X13578334Y-13926048D01*
X13578334Y-13926048D02*
X13597381Y-13897476D01*
X13597381Y-13897476D02*
X13606905Y-13887952D01*
X13768810Y-13983190D02*
X13768810Y-14116524D01*
X13721191Y-13907000D02*
X13673572Y-14049857D01*
X13673572Y-14049857D02*
X13797381Y-14049857D01*
X14025953Y-14116524D02*
X14025953Y-13916524D01*
X14111667Y-14116524D02*
X14111667Y-14011762D01*
X14111667Y-14011762D02*
X14102143Y-13992714D01*
X14102143Y-13992714D02*
X14083096Y-13983190D01*
X14083096Y-13983190D02*
X14054524Y-13983190D01*
X14054524Y-13983190D02*
X14035476Y-13992714D01*
X14035476Y-13992714D02*
X14025953Y-14002238D01*
X14235476Y-14116524D02*
X14216429Y-14107000D01*
X14216429Y-14107000D02*
X14206905Y-14097476D01*
X14206905Y-14097476D02*
X14197381Y-14078428D01*
X14197381Y-14078428D02*
X14197381Y-14021286D01*
X14197381Y-14021286D02*
X14206905Y-14002238D01*
X14206905Y-14002238D02*
X14216429Y-13992714D01*
X14216429Y-13992714D02*
X14235476Y-13983190D01*
X14235476Y-13983190D02*
X14264048Y-13983190D01*
X14264048Y-13983190D02*
X14283096Y-13992714D01*
X14283096Y-13992714D02*
X14292619Y-14002238D01*
X14292619Y-14002238D02*
X14302143Y-14021286D01*
X14302143Y-14021286D02*
X14302143Y-14078428D01*
X14302143Y-14078428D02*
X14292619Y-14097476D01*
X14292619Y-14097476D02*
X14283096Y-14107000D01*
X14283096Y-14107000D02*
X14264048Y-14116524D01*
X14264048Y-14116524D02*
X14235476Y-14116524D01*
X14416429Y-14116524D02*
X14397381Y-14107000D01*
X14397381Y-14107000D02*
X14387857Y-14087952D01*
X14387857Y-14087952D02*
X14387857Y-13916524D01*
X14568810Y-14107000D02*
X14549762Y-14116524D01*
X14549762Y-14116524D02*
X14511667Y-14116524D01*
X14511667Y-14116524D02*
X14492619Y-14107000D01*
X14492619Y-14107000D02*
X14483096Y-14087952D01*
X14483096Y-14087952D02*
X14483096Y-14011762D01*
X14483096Y-14011762D02*
X14492619Y-13992714D01*
X14492619Y-13992714D02*
X14511667Y-13983190D01*
X14511667Y-13983190D02*
X14549762Y-13983190D01*
X14549762Y-13983190D02*
X14568810Y-13992714D01*
X14568810Y-13992714D02*
X14578334Y-14011762D01*
X14578334Y-14011762D02*
X14578334Y-14030809D01*
X14578334Y-14030809D02*
X14483096Y-14049857D01*
X14654524Y-14107000D02*
X14673572Y-14116524D01*
X14673572Y-14116524D02*
X14711667Y-14116524D01*
X14711667Y-14116524D02*
X14730715Y-14107000D01*
X14730715Y-14107000D02*
X14740238Y-14087952D01*
X14740238Y-14087952D02*
X14740238Y-14078428D01*
X14740238Y-14078428D02*
X14730715Y-14059381D01*
X14730715Y-14059381D02*
X14711667Y-14049857D01*
X14711667Y-14049857D02*
X14683096Y-14049857D01*
X14683096Y-14049857D02*
X14664048Y-14040333D01*
X14664048Y-14040333D02*
X14654524Y-14021286D01*
X14654524Y-14021286D02*
X14654524Y-14011762D01*
X14654524Y-14011762D02*
X14664048Y-13992714D01*
X14664048Y-13992714D02*
X14683096Y-13983190D01*
X14683096Y-13983190D02*
X14711667Y-13983190D01*
X14711667Y-13983190D02*
X14730715Y-13992714D01*
X14806905Y-14192714D02*
X14816429Y-14183190D01*
X14816429Y-14183190D02*
X14835477Y-14154619D01*
X14835477Y-14154619D02*
X14845000Y-14135571D01*
X14845000Y-14135571D02*
X14854524Y-14107000D01*
X14854524Y-14107000D02*
X14864048Y-14059381D01*
X14864048Y-14059381D02*
X14864048Y-14021286D01*
X14864048Y-14021286D02*
X14854524Y-13973667D01*
X14854524Y-13973667D02*
X14845000Y-13945095D01*
X14845000Y-13945095D02*
X14835477Y-13926048D01*
X14835477Y-13926048D02*
X14816429Y-13897476D01*
X14816429Y-13897476D02*
X14806905Y-13887952D01*
X15168810Y-14192714D02*
X15159286Y-14183190D01*
X15159286Y-14183190D02*
X15140238Y-14154619D01*
X15140238Y-14154619D02*
X15130715Y-14135571D01*
X15130715Y-14135571D02*
X15121191Y-14107000D01*
X15121191Y-14107000D02*
X15111667Y-14059381D01*
X15111667Y-14059381D02*
X15111667Y-14021286D01*
X15111667Y-14021286D02*
X15121191Y-13973667D01*
X15121191Y-13973667D02*
X15130715Y-13945095D01*
X15130715Y-13945095D02*
X15140238Y-13926048D01*
X15140238Y-13926048D02*
X15159286Y-13897476D01*
X15159286Y-13897476D02*
X15168810Y-13887952D01*
X15245000Y-13983190D02*
X15245000Y-14116524D01*
X15245000Y-14002238D02*
X15254524Y-13992714D01*
X15254524Y-13992714D02*
X15273572Y-13983190D01*
X15273572Y-13983190D02*
X15302143Y-13983190D01*
X15302143Y-13983190D02*
X15321191Y-13992714D01*
X15321191Y-13992714D02*
X15330715Y-14011762D01*
X15330715Y-14011762D02*
X15330715Y-14116524D01*
X15454524Y-14116524D02*
X15435477Y-14107000D01*
X15435477Y-14107000D02*
X15425953Y-14097476D01*
X15425953Y-14097476D02*
X15416429Y-14078428D01*
X15416429Y-14078428D02*
X15416429Y-14021286D01*
X15416429Y-14021286D02*
X15425953Y-14002238D01*
X15425953Y-14002238D02*
X15435477Y-13992714D01*
X15435477Y-13992714D02*
X15454524Y-13983190D01*
X15454524Y-13983190D02*
X15483096Y-13983190D01*
X15483096Y-13983190D02*
X15502143Y-13992714D01*
X15502143Y-13992714D02*
X15511667Y-14002238D01*
X15511667Y-14002238D02*
X15521191Y-14021286D01*
X15521191Y-14021286D02*
X15521191Y-14078428D01*
X15521191Y-14078428D02*
X15511667Y-14097476D01*
X15511667Y-14097476D02*
X15502143Y-14107000D01*
X15502143Y-14107000D02*
X15483096Y-14116524D01*
X15483096Y-14116524D02*
X15454524Y-14116524D01*
X15578334Y-13983190D02*
X15654524Y-13983190D01*
X15606905Y-13916524D02*
X15606905Y-14087952D01*
X15606905Y-14087952D02*
X15616429Y-14107000D01*
X15616429Y-14107000D02*
X15635477Y-14116524D01*
X15635477Y-14116524D02*
X15654524Y-14116524D01*
X15873572Y-13983190D02*
X15873572Y-14183190D01*
X15873572Y-13992714D02*
X15892619Y-13983190D01*
X15892619Y-13983190D02*
X15930715Y-13983190D01*
X15930715Y-13983190D02*
X15949762Y-13992714D01*
X15949762Y-13992714D02*
X15959286Y-14002238D01*
X15959286Y-14002238D02*
X15968810Y-14021286D01*
X15968810Y-14021286D02*
X15968810Y-14078428D01*
X15968810Y-14078428D02*
X15959286Y-14097476D01*
X15959286Y-14097476D02*
X15949762Y-14107000D01*
X15949762Y-14107000D02*
X15930715Y-14116524D01*
X15930715Y-14116524D02*
X15892619Y-14116524D01*
X15892619Y-14116524D02*
X15873572Y-14107000D01*
X16083096Y-14116524D02*
X16064048Y-14107000D01*
X16064048Y-14107000D02*
X16054524Y-14087952D01*
X16054524Y-14087952D02*
X16054524Y-13916524D01*
X16245000Y-14116524D02*
X16245000Y-14011762D01*
X16245000Y-14011762D02*
X16235477Y-13992714D01*
X16235477Y-13992714D02*
X16216429Y-13983190D01*
X16216429Y-13983190D02*
X16178334Y-13983190D01*
X16178334Y-13983190D02*
X16159286Y-13992714D01*
X16245000Y-14107000D02*
X16225953Y-14116524D01*
X16225953Y-14116524D02*
X16178334Y-14116524D01*
X16178334Y-14116524D02*
X16159286Y-14107000D01*
X16159286Y-14107000D02*
X16149762Y-14087952D01*
X16149762Y-14087952D02*
X16149762Y-14068905D01*
X16149762Y-14068905D02*
X16159286Y-14049857D01*
X16159286Y-14049857D02*
X16178334Y-14040333D01*
X16178334Y-14040333D02*
X16225953Y-14040333D01*
X16225953Y-14040333D02*
X16245000Y-14030809D01*
X16311667Y-13983190D02*
X16387858Y-13983190D01*
X16340239Y-13916524D02*
X16340239Y-14087952D01*
X16340239Y-14087952D02*
X16349762Y-14107000D01*
X16349762Y-14107000D02*
X16368810Y-14116524D01*
X16368810Y-14116524D02*
X16387858Y-14116524D01*
X16530715Y-14107000D02*
X16511667Y-14116524D01*
X16511667Y-14116524D02*
X16473572Y-14116524D01*
X16473572Y-14116524D02*
X16454524Y-14107000D01*
X16454524Y-14107000D02*
X16445000Y-14087952D01*
X16445000Y-14087952D02*
X16445000Y-14011762D01*
X16445000Y-14011762D02*
X16454524Y-13992714D01*
X16454524Y-13992714D02*
X16473572Y-13983190D01*
X16473572Y-13983190D02*
X16511667Y-13983190D01*
X16511667Y-13983190D02*
X16530715Y-13992714D01*
X16530715Y-13992714D02*
X16540239Y-14011762D01*
X16540239Y-14011762D02*
X16540239Y-14030809D01*
X16540239Y-14030809D02*
X16445000Y-14049857D01*
X16711667Y-14116524D02*
X16711667Y-13916524D01*
X16711667Y-14107000D02*
X16692620Y-14116524D01*
X16692620Y-14116524D02*
X16654524Y-14116524D01*
X16654524Y-14116524D02*
X16635477Y-14107000D01*
X16635477Y-14107000D02*
X16625953Y-14097476D01*
X16625953Y-14097476D02*
X16616429Y-14078428D01*
X16616429Y-14078428D02*
X16616429Y-14021286D01*
X16616429Y-14021286D02*
X16625953Y-14002238D01*
X16625953Y-14002238D02*
X16635477Y-13992714D01*
X16635477Y-13992714D02*
X16654524Y-13983190D01*
X16654524Y-13983190D02*
X16692620Y-13983190D01*
X16692620Y-13983190D02*
X16711667Y-13992714D01*
X16787858Y-14192714D02*
X16797382Y-14183190D01*
X16797382Y-14183190D02*
X16816429Y-14154619D01*
X16816429Y-14154619D02*
X16825953Y-14135571D01*
X16825953Y-14135571D02*
X16835477Y-14107000D01*
X16835477Y-14107000D02*
X16845001Y-14059381D01*
X16845001Y-14059381D02*
X16845001Y-14021286D01*
X16845001Y-14021286D02*
X16835477Y-13973667D01*
X16835477Y-13973667D02*
X16825953Y-13945095D01*
X16825953Y-13945095D02*
X16816429Y-13926048D01*
X16816429Y-13926048D02*
X16797382Y-13897476D01*
X16797382Y-13897476D02*
X16787858Y-13887952D01*
X9945000Y-14444000D02*
X10045000Y-14344000D01*
X9945000Y-14244000D01*
X9845000Y-14344000D01*
X9945000Y-14444000D01*
X10378333Y-14303190D02*
X10378333Y-14436524D01*
X10330714Y-14227000D02*
X10283095Y-14369857D01*
X10283095Y-14369857D02*
X10406905Y-14369857D01*
X10483095Y-14417476D02*
X10492619Y-14427000D01*
X10492619Y-14427000D02*
X10483095Y-14436524D01*
X10483095Y-14436524D02*
X10473571Y-14427000D01*
X10473571Y-14427000D02*
X10483095Y-14417476D01*
X10483095Y-14417476D02*
X10483095Y-14436524D01*
X10616429Y-14236524D02*
X10635476Y-14236524D01*
X10635476Y-14236524D02*
X10654524Y-14246048D01*
X10654524Y-14246048D02*
X10664048Y-14255571D01*
X10664048Y-14255571D02*
X10673571Y-14274619D01*
X10673571Y-14274619D02*
X10683095Y-14312714D01*
X10683095Y-14312714D02*
X10683095Y-14360333D01*
X10683095Y-14360333D02*
X10673571Y-14398428D01*
X10673571Y-14398428D02*
X10664048Y-14417476D01*
X10664048Y-14417476D02*
X10654524Y-14427000D01*
X10654524Y-14427000D02*
X10635476Y-14436524D01*
X10635476Y-14436524D02*
X10616429Y-14436524D01*
X10616429Y-14436524D02*
X10597381Y-14427000D01*
X10597381Y-14427000D02*
X10587857Y-14417476D01*
X10587857Y-14417476D02*
X10578333Y-14398428D01*
X10578333Y-14398428D02*
X10568810Y-14360333D01*
X10568810Y-14360333D02*
X10568810Y-14312714D01*
X10568810Y-14312714D02*
X10578333Y-14274619D01*
X10578333Y-14274619D02*
X10587857Y-14255571D01*
X10587857Y-14255571D02*
X10597381Y-14246048D01*
X10597381Y-14246048D02*
X10616429Y-14236524D01*
X10806905Y-14236524D02*
X10825952Y-14236524D01*
X10825952Y-14236524D02*
X10845000Y-14246048D01*
X10845000Y-14246048D02*
X10854524Y-14255571D01*
X10854524Y-14255571D02*
X10864048Y-14274619D01*
X10864048Y-14274619D02*
X10873571Y-14312714D01*
X10873571Y-14312714D02*
X10873571Y-14360333D01*
X10873571Y-14360333D02*
X10864048Y-14398428D01*
X10864048Y-14398428D02*
X10854524Y-14417476D01*
X10854524Y-14417476D02*
X10845000Y-14427000D01*
X10845000Y-14427000D02*
X10825952Y-14436524D01*
X10825952Y-14436524D02*
X10806905Y-14436524D01*
X10806905Y-14436524D02*
X10787857Y-14427000D01*
X10787857Y-14427000D02*
X10778333Y-14417476D01*
X10778333Y-14417476D02*
X10768810Y-14398428D01*
X10768810Y-14398428D02*
X10759286Y-14360333D01*
X10759286Y-14360333D02*
X10759286Y-14312714D01*
X10759286Y-14312714D02*
X10768810Y-14274619D01*
X10768810Y-14274619D02*
X10778333Y-14255571D01*
X10778333Y-14255571D02*
X10787857Y-14246048D01*
X10787857Y-14246048D02*
X10806905Y-14236524D01*
X10997381Y-14236524D02*
X11016429Y-14236524D01*
X11016429Y-14236524D02*
X11035476Y-14246048D01*
X11035476Y-14246048D02*
X11045000Y-14255571D01*
X11045000Y-14255571D02*
X11054524Y-14274619D01*
X11054524Y-14274619D02*
X11064048Y-14312714D01*
X11064048Y-14312714D02*
X11064048Y-14360333D01*
X11064048Y-14360333D02*
X11054524Y-14398428D01*
X11054524Y-14398428D02*
X11045000Y-14417476D01*
X11045000Y-14417476D02*
X11035476Y-14427000D01*
X11035476Y-14427000D02*
X11016429Y-14436524D01*
X11016429Y-14436524D02*
X10997381Y-14436524D01*
X10997381Y-14436524D02*
X10978333Y-14427000D01*
X10978333Y-14427000D02*
X10968810Y-14417476D01*
X10968810Y-14417476D02*
X10959286Y-14398428D01*
X10959286Y-14398428D02*
X10949762Y-14360333D01*
X10949762Y-14360333D02*
X10949762Y-14312714D01*
X10949762Y-14312714D02*
X10959286Y-14274619D01*
X10959286Y-14274619D02*
X10968810Y-14255571D01*
X10968810Y-14255571D02*
X10978333Y-14246048D01*
X10978333Y-14246048D02*
X10997381Y-14236524D01*
X11149762Y-14436524D02*
X11149762Y-14303190D01*
X11149762Y-14322238D02*
X11159286Y-14312714D01*
X11159286Y-14312714D02*
X11178333Y-14303190D01*
X11178333Y-14303190D02*
X11206905Y-14303190D01*
X11206905Y-14303190D02*
X11225952Y-14312714D01*
X11225952Y-14312714D02*
X11235476Y-14331762D01*
X11235476Y-14331762D02*
X11235476Y-14436524D01*
X11235476Y-14331762D02*
X11245000Y-14312714D01*
X11245000Y-14312714D02*
X11264048Y-14303190D01*
X11264048Y-14303190D02*
X11292619Y-14303190D01*
X11292619Y-14303190D02*
X11311667Y-14312714D01*
X11311667Y-14312714D02*
X11321190Y-14331762D01*
X11321190Y-14331762D02*
X11321190Y-14436524D01*
X11416429Y-14436524D02*
X11416429Y-14303190D01*
X11416429Y-14322238D02*
X11425952Y-14312714D01*
X11425952Y-14312714D02*
X11445000Y-14303190D01*
X11445000Y-14303190D02*
X11473571Y-14303190D01*
X11473571Y-14303190D02*
X11492619Y-14312714D01*
X11492619Y-14312714D02*
X11502143Y-14331762D01*
X11502143Y-14331762D02*
X11502143Y-14436524D01*
X11502143Y-14331762D02*
X11511667Y-14312714D01*
X11511667Y-14312714D02*
X11530714Y-14303190D01*
X11530714Y-14303190D02*
X11559286Y-14303190D01*
X11559286Y-14303190D02*
X11578333Y-14312714D01*
X11578333Y-14312714D02*
X11587857Y-14331762D01*
X11587857Y-14331762D02*
X11587857Y-14436524D01*
X11978333Y-14227000D02*
X11806905Y-14484143D01*
X12235476Y-14236524D02*
X12254524Y-14236524D01*
X12254524Y-14236524D02*
X12273572Y-14246048D01*
X12273572Y-14246048D02*
X12283095Y-14255571D01*
X12283095Y-14255571D02*
X12292619Y-14274619D01*
X12292619Y-14274619D02*
X12302143Y-14312714D01*
X12302143Y-14312714D02*
X12302143Y-14360333D01*
X12302143Y-14360333D02*
X12292619Y-14398428D01*
X12292619Y-14398428D02*
X12283095Y-14417476D01*
X12283095Y-14417476D02*
X12273572Y-14427000D01*
X12273572Y-14427000D02*
X12254524Y-14436524D01*
X12254524Y-14436524D02*
X12235476Y-14436524D01*
X12235476Y-14436524D02*
X12216429Y-14427000D01*
X12216429Y-14427000D02*
X12206905Y-14417476D01*
X12206905Y-14417476D02*
X12197381Y-14398428D01*
X12197381Y-14398428D02*
X12187857Y-14360333D01*
X12187857Y-14360333D02*
X12187857Y-14312714D01*
X12187857Y-14312714D02*
X12197381Y-14274619D01*
X12197381Y-14274619D02*
X12206905Y-14255571D01*
X12206905Y-14255571D02*
X12216429Y-14246048D01*
X12216429Y-14246048D02*
X12235476Y-14236524D01*
X12387857Y-14417476D02*
X12397381Y-14427000D01*
X12397381Y-14427000D02*
X12387857Y-14436524D01*
X12387857Y-14436524D02*
X12378333Y-14427000D01*
X12378333Y-14427000D02*
X12387857Y-14417476D01*
X12387857Y-14417476D02*
X12387857Y-14436524D01*
X12587857Y-14436524D02*
X12473572Y-14436524D01*
X12530714Y-14436524D02*
X12530714Y-14236524D01*
X12530714Y-14236524D02*
X12511667Y-14265095D01*
X12511667Y-14265095D02*
X12492619Y-14284143D01*
X12492619Y-14284143D02*
X12473572Y-14293667D01*
X12768810Y-14236524D02*
X12673572Y-14236524D01*
X12673572Y-14236524D02*
X12664048Y-14331762D01*
X12664048Y-14331762D02*
X12673572Y-14322238D01*
X12673572Y-14322238D02*
X12692619Y-14312714D01*
X12692619Y-14312714D02*
X12740238Y-14312714D01*
X12740238Y-14312714D02*
X12759286Y-14322238D01*
X12759286Y-14322238D02*
X12768810Y-14331762D01*
X12768810Y-14331762D02*
X12778333Y-14350809D01*
X12778333Y-14350809D02*
X12778333Y-14398428D01*
X12778333Y-14398428D02*
X12768810Y-14417476D01*
X12768810Y-14417476D02*
X12759286Y-14427000D01*
X12759286Y-14427000D02*
X12740238Y-14436524D01*
X12740238Y-14436524D02*
X12692619Y-14436524D01*
X12692619Y-14436524D02*
X12673572Y-14427000D01*
X12673572Y-14427000D02*
X12664048Y-14417476D01*
X12845000Y-14236524D02*
X12978333Y-14236524D01*
X12978333Y-14236524D02*
X12892619Y-14436524D01*
X13149762Y-14236524D02*
X13054524Y-14236524D01*
X13054524Y-14236524D02*
X13045000Y-14331762D01*
X13045000Y-14331762D02*
X13054524Y-14322238D01*
X13054524Y-14322238D02*
X13073572Y-14312714D01*
X13073572Y-14312714D02*
X13121191Y-14312714D01*
X13121191Y-14312714D02*
X13140238Y-14322238D01*
X13140238Y-14322238D02*
X13149762Y-14331762D01*
X13149762Y-14331762D02*
X13159286Y-14350809D01*
X13159286Y-14350809D02*
X13159286Y-14398428D01*
X13159286Y-14398428D02*
X13149762Y-14417476D01*
X13149762Y-14417476D02*
X13140238Y-14427000D01*
X13140238Y-14427000D02*
X13121191Y-14436524D01*
X13121191Y-14436524D02*
X13073572Y-14436524D01*
X13073572Y-14436524D02*
X13054524Y-14427000D01*
X13054524Y-14427000D02*
X13045000Y-14417476D01*
X13235476Y-14236524D02*
X13235476Y-14274619D01*
X13311667Y-14236524D02*
X13311667Y-14274619D01*
X13606905Y-14512714D02*
X13597381Y-14503190D01*
X13597381Y-14503190D02*
X13578334Y-14474619D01*
X13578334Y-14474619D02*
X13568810Y-14455571D01*
X13568810Y-14455571D02*
X13559286Y-14427000D01*
X13559286Y-14427000D02*
X13549762Y-14379381D01*
X13549762Y-14379381D02*
X13549762Y-14341286D01*
X13549762Y-14341286D02*
X13559286Y-14293667D01*
X13559286Y-14293667D02*
X13568810Y-14265095D01*
X13568810Y-14265095D02*
X13578334Y-14246048D01*
X13578334Y-14246048D02*
X13597381Y-14217476D01*
X13597381Y-14217476D02*
X13606905Y-14207952D01*
X13673572Y-14255571D02*
X13683095Y-14246048D01*
X13683095Y-14246048D02*
X13702143Y-14236524D01*
X13702143Y-14236524D02*
X13749762Y-14236524D01*
X13749762Y-14236524D02*
X13768810Y-14246048D01*
X13768810Y-14246048D02*
X13778334Y-14255571D01*
X13778334Y-14255571D02*
X13787857Y-14274619D01*
X13787857Y-14274619D02*
X13787857Y-14293667D01*
X13787857Y-14293667D02*
X13778334Y-14322238D01*
X13778334Y-14322238D02*
X13664048Y-14436524D01*
X13664048Y-14436524D02*
X13787857Y-14436524D01*
X14025953Y-14436524D02*
X14025953Y-14236524D01*
X14111667Y-14436524D02*
X14111667Y-14331762D01*
X14111667Y-14331762D02*
X14102143Y-14312714D01*
X14102143Y-14312714D02*
X14083096Y-14303190D01*
X14083096Y-14303190D02*
X14054524Y-14303190D01*
X14054524Y-14303190D02*
X14035476Y-14312714D01*
X14035476Y-14312714D02*
X14025953Y-14322238D01*
X14235476Y-14436524D02*
X14216429Y-14427000D01*
X14216429Y-14427000D02*
X14206905Y-14417476D01*
X14206905Y-14417476D02*
X14197381Y-14398428D01*
X14197381Y-14398428D02*
X14197381Y-14341286D01*
X14197381Y-14341286D02*
X14206905Y-14322238D01*
X14206905Y-14322238D02*
X14216429Y-14312714D01*
X14216429Y-14312714D02*
X14235476Y-14303190D01*
X14235476Y-14303190D02*
X14264048Y-14303190D01*
X14264048Y-14303190D02*
X14283096Y-14312714D01*
X14283096Y-14312714D02*
X14292619Y-14322238D01*
X14292619Y-14322238D02*
X14302143Y-14341286D01*
X14302143Y-14341286D02*
X14302143Y-14398428D01*
X14302143Y-14398428D02*
X14292619Y-14417476D01*
X14292619Y-14417476D02*
X14283096Y-14427000D01*
X14283096Y-14427000D02*
X14264048Y-14436524D01*
X14264048Y-14436524D02*
X14235476Y-14436524D01*
X14416429Y-14436524D02*
X14397381Y-14427000D01*
X14397381Y-14427000D02*
X14387857Y-14407952D01*
X14387857Y-14407952D02*
X14387857Y-14236524D01*
X14568810Y-14427000D02*
X14549762Y-14436524D01*
X14549762Y-14436524D02*
X14511667Y-14436524D01*
X14511667Y-14436524D02*
X14492619Y-14427000D01*
X14492619Y-14427000D02*
X14483096Y-14407952D01*
X14483096Y-14407952D02*
X14483096Y-14331762D01*
X14483096Y-14331762D02*
X14492619Y-14312714D01*
X14492619Y-14312714D02*
X14511667Y-14303190D01*
X14511667Y-14303190D02*
X14549762Y-14303190D01*
X14549762Y-14303190D02*
X14568810Y-14312714D01*
X14568810Y-14312714D02*
X14578334Y-14331762D01*
X14578334Y-14331762D02*
X14578334Y-14350809D01*
X14578334Y-14350809D02*
X14483096Y-14369857D01*
X14654524Y-14427000D02*
X14673572Y-14436524D01*
X14673572Y-14436524D02*
X14711667Y-14436524D01*
X14711667Y-14436524D02*
X14730715Y-14427000D01*
X14730715Y-14427000D02*
X14740238Y-14407952D01*
X14740238Y-14407952D02*
X14740238Y-14398428D01*
X14740238Y-14398428D02*
X14730715Y-14379381D01*
X14730715Y-14379381D02*
X14711667Y-14369857D01*
X14711667Y-14369857D02*
X14683096Y-14369857D01*
X14683096Y-14369857D02*
X14664048Y-14360333D01*
X14664048Y-14360333D02*
X14654524Y-14341286D01*
X14654524Y-14341286D02*
X14654524Y-14331762D01*
X14654524Y-14331762D02*
X14664048Y-14312714D01*
X14664048Y-14312714D02*
X14683096Y-14303190D01*
X14683096Y-14303190D02*
X14711667Y-14303190D01*
X14711667Y-14303190D02*
X14730715Y-14312714D01*
X14806905Y-14512714D02*
X14816429Y-14503190D01*
X14816429Y-14503190D02*
X14835477Y-14474619D01*
X14835477Y-14474619D02*
X14845000Y-14455571D01*
X14845000Y-14455571D02*
X14854524Y-14427000D01*
X14854524Y-14427000D02*
X14864048Y-14379381D01*
X14864048Y-14379381D02*
X14864048Y-14341286D01*
X14864048Y-14341286D02*
X14854524Y-14293667D01*
X14854524Y-14293667D02*
X14845000Y-14265095D01*
X14845000Y-14265095D02*
X14835477Y-14246048D01*
X14835477Y-14246048D02*
X14816429Y-14217476D01*
X14816429Y-14217476D02*
X14806905Y-14207952D01*
X15168810Y-14512714D02*
X15159286Y-14503190D01*
X15159286Y-14503190D02*
X15140238Y-14474619D01*
X15140238Y-14474619D02*
X15130715Y-14455571D01*
X15130715Y-14455571D02*
X15121191Y-14427000D01*
X15121191Y-14427000D02*
X15111667Y-14379381D01*
X15111667Y-14379381D02*
X15111667Y-14341286D01*
X15111667Y-14341286D02*
X15121191Y-14293667D01*
X15121191Y-14293667D02*
X15130715Y-14265095D01*
X15130715Y-14265095D02*
X15140238Y-14246048D01*
X15140238Y-14246048D02*
X15159286Y-14217476D01*
X15159286Y-14217476D02*
X15168810Y-14207952D01*
X15245000Y-14303190D02*
X15245000Y-14436524D01*
X15245000Y-14322238D02*
X15254524Y-14312714D01*
X15254524Y-14312714D02*
X15273572Y-14303190D01*
X15273572Y-14303190D02*
X15302143Y-14303190D01*
X15302143Y-14303190D02*
X15321191Y-14312714D01*
X15321191Y-14312714D02*
X15330715Y-14331762D01*
X15330715Y-14331762D02*
X15330715Y-14436524D01*
X15454524Y-14436524D02*
X15435477Y-14427000D01*
X15435477Y-14427000D02*
X15425953Y-14417476D01*
X15425953Y-14417476D02*
X15416429Y-14398428D01*
X15416429Y-14398428D02*
X15416429Y-14341286D01*
X15416429Y-14341286D02*
X15425953Y-14322238D01*
X15425953Y-14322238D02*
X15435477Y-14312714D01*
X15435477Y-14312714D02*
X15454524Y-14303190D01*
X15454524Y-14303190D02*
X15483096Y-14303190D01*
X15483096Y-14303190D02*
X15502143Y-14312714D01*
X15502143Y-14312714D02*
X15511667Y-14322238D01*
X15511667Y-14322238D02*
X15521191Y-14341286D01*
X15521191Y-14341286D02*
X15521191Y-14398428D01*
X15521191Y-14398428D02*
X15511667Y-14417476D01*
X15511667Y-14417476D02*
X15502143Y-14427000D01*
X15502143Y-14427000D02*
X15483096Y-14436524D01*
X15483096Y-14436524D02*
X15454524Y-14436524D01*
X15578334Y-14303190D02*
X15654524Y-14303190D01*
X15606905Y-14236524D02*
X15606905Y-14407952D01*
X15606905Y-14407952D02*
X15616429Y-14427000D01*
X15616429Y-14427000D02*
X15635477Y-14436524D01*
X15635477Y-14436524D02*
X15654524Y-14436524D01*
X15873572Y-14303190D02*
X15873572Y-14503190D01*
X15873572Y-14312714D02*
X15892619Y-14303190D01*
X15892619Y-14303190D02*
X15930715Y-14303190D01*
X15930715Y-14303190D02*
X15949762Y-14312714D01*
X15949762Y-14312714D02*
X15959286Y-14322238D01*
X15959286Y-14322238D02*
X15968810Y-14341286D01*
X15968810Y-14341286D02*
X15968810Y-14398428D01*
X15968810Y-14398428D02*
X15959286Y-14417476D01*
X15959286Y-14417476D02*
X15949762Y-14427000D01*
X15949762Y-14427000D02*
X15930715Y-14436524D01*
X15930715Y-14436524D02*
X15892619Y-14436524D01*
X15892619Y-14436524D02*
X15873572Y-14427000D01*
X16083096Y-14436524D02*
X16064048Y-14427000D01*
X16064048Y-14427000D02*
X16054524Y-14407952D01*
X16054524Y-14407952D02*
X16054524Y-14236524D01*
X16245000Y-14436524D02*
X16245000Y-14331762D01*
X16245000Y-14331762D02*
X16235477Y-14312714D01*
X16235477Y-14312714D02*
X16216429Y-14303190D01*
X16216429Y-14303190D02*
X16178334Y-14303190D01*
X16178334Y-14303190D02*
X16159286Y-14312714D01*
X16245000Y-14427000D02*
X16225953Y-14436524D01*
X16225953Y-14436524D02*
X16178334Y-14436524D01*
X16178334Y-14436524D02*
X16159286Y-14427000D01*
X16159286Y-14427000D02*
X16149762Y-14407952D01*
X16149762Y-14407952D02*
X16149762Y-14388905D01*
X16149762Y-14388905D02*
X16159286Y-14369857D01*
X16159286Y-14369857D02*
X16178334Y-14360333D01*
X16178334Y-14360333D02*
X16225953Y-14360333D01*
X16225953Y-14360333D02*
X16245000Y-14350809D01*
X16311667Y-14303190D02*
X16387858Y-14303190D01*
X16340239Y-14236524D02*
X16340239Y-14407952D01*
X16340239Y-14407952D02*
X16349762Y-14427000D01*
X16349762Y-14427000D02*
X16368810Y-14436524D01*
X16368810Y-14436524D02*
X16387858Y-14436524D01*
X16530715Y-14427000D02*
X16511667Y-14436524D01*
X16511667Y-14436524D02*
X16473572Y-14436524D01*
X16473572Y-14436524D02*
X16454524Y-14427000D01*
X16454524Y-14427000D02*
X16445000Y-14407952D01*
X16445000Y-14407952D02*
X16445000Y-14331762D01*
X16445000Y-14331762D02*
X16454524Y-14312714D01*
X16454524Y-14312714D02*
X16473572Y-14303190D01*
X16473572Y-14303190D02*
X16511667Y-14303190D01*
X16511667Y-14303190D02*
X16530715Y-14312714D01*
X16530715Y-14312714D02*
X16540239Y-14331762D01*
X16540239Y-14331762D02*
X16540239Y-14350809D01*
X16540239Y-14350809D02*
X16445000Y-14369857D01*
X16711667Y-14436524D02*
X16711667Y-14236524D01*
X16711667Y-14427000D02*
X16692620Y-14436524D01*
X16692620Y-14436524D02*
X16654524Y-14436524D01*
X16654524Y-14436524D02*
X16635477Y-14427000D01*
X16635477Y-14427000D02*
X16625953Y-14417476D01*
X16625953Y-14417476D02*
X16616429Y-14398428D01*
X16616429Y-14398428D02*
X16616429Y-14341286D01*
X16616429Y-14341286D02*
X16625953Y-14322238D01*
X16625953Y-14322238D02*
X16635477Y-14312714D01*
X16635477Y-14312714D02*
X16654524Y-14303190D01*
X16654524Y-14303190D02*
X16692620Y-14303190D01*
X16692620Y-14303190D02*
X16711667Y-14312714D01*
X16787858Y-14512714D02*
X16797382Y-14503190D01*
X16797382Y-14503190D02*
X16816429Y-14474619D01*
X16816429Y-14474619D02*
X16825953Y-14455571D01*
X16825953Y-14455571D02*
X16835477Y-14427000D01*
X16835477Y-14427000D02*
X16845001Y-14379381D01*
X16845001Y-14379381D02*
X16845001Y-14341286D01*
X16845001Y-14341286D02*
X16835477Y-14293667D01*
X16835477Y-14293667D02*
X16825953Y-14265095D01*
X16825953Y-14265095D02*
X16816429Y-14246048D01*
X16816429Y-14246048D02*
X16797382Y-14217476D01*
X16797382Y-14217476D02*
X16787858Y-14207952D01*
M02*
