M48
; DRILL file {KiCad 7.0.1} date Sun Mar 19 03:20:39 2023
; FORMAT={-:-/ absolute / inch / decimal}
; #@! TF.CreationDate,2023-03-19T03:20:39-04:00
; #@! TF.GenerationSoftware,Kicad,Pcbnew,7.0.1
; #@! TF.FileFunction,NonPlated,1,2,NPTH
FMAT,2
INCH
; #@! TA.AperFunction,NonPlated,NPTH,ComponentDrill
T1C0.0454
; #@! TA.AperFunction,NonPlated,NPTH,ComponentDrill
T2C0.0689
; #@! TA.AperFunction,NonPlated,NPTH,ComponentDrill
T3C0.0787
; #@! TA.AperFunction,NonPlated,NPTH,ComponentDrill
T4C0.1201
; #@! TA.AperFunction,NonPlated,NPTH,ComponentDrill
T5C0.1575
%
G90
G05
T1
X4.0354Y-2.6378
X4.0354Y-4.1339
X5.4134Y-4.8425
T2
X4.1504Y-3.7795
X4.1504Y-4.5276
X4.5504Y-3.7795
X4.5504Y-4.5276
X4.8984Y-3.7795
X4.8984Y-4.5276
X5.2984Y-3.7795
X5.2984Y-4.5276
T4
X4.2004Y-3.6795
X4.4504Y-3.5795
X4.9484Y-3.6795
X5.1984Y-3.5795
T5
X4.3504Y-3.7795
X5.0984Y-3.7795
T3
G00X4.3504Y-4.6929
M15
G01X4.3504Y-4.7559
M16
G05
G00X4.3563Y-3.9449
M15
G01X4.3563Y-4.0079
M16
G05
G00X5.0984Y-3.9449
M15
G01X5.0984Y-4.0079
M16
G05
G00X5.0984Y-4.6929
M15
G01X5.0984Y-4.7559
M16
G05
T0
M30
