M48
; DRILL file {KiCad 7.0.1} date Sun Mar 19 16:45:55 2023
; FORMAT={-:-/ absolute / inch / decimal}
; #@! TF.CreationDate,2023-03-19T16:45:55-04:00
; #@! TF.GenerationSoftware,Kicad,Pcbnew,7.0.1
; #@! TF.FileFunction,MixedPlating,1,2
FMAT,2
INCH
; #@! TA.AperFunction,Plated,PTH,ViaDrill
T1C0.0157
; #@! TA.AperFunction,Plated,PTH,ComponentDrill
T2C0.0394
; #@! TA.AperFunction,Plated,PTH,ComponentDrill
T3C0.0866
; #@! TA.AperFunction,NonPlated,NPTH,ComponentDrill
T4C0.0454
; #@! TA.AperFunction,NonPlated,NPTH,ComponentDrill
T5C0.0689
; #@! TA.AperFunction,NonPlated,NPTH,ComponentDrill
T6C0.0787
; #@! TA.AperFunction,NonPlated,NPTH,ComponentDrill
T7C0.1201
; #@! TA.AperFunction,NonPlated,NPTH,ComponentDrill
T8C0.1575
%
G90
G05
T1
X3.9961Y-2.6969
X3.9961Y-3.0906
X3.9961Y-3.4843
X3.9961Y-4.0354
X3.9961Y-4.4291
X3.9961Y-4.8228
X4.0374Y-3.5039
X4.0551Y-4.8819
X4.0945Y-2.5984
X4.2175Y-4.3809
X4.3898Y-4.8858
X4.4882Y-2.5984
X4.5787Y-3.9213
X4.6299Y-2.7441
X4.6457Y-3.1437
X4.6575Y-4.7244
X4.6929Y-4.1732
X4.7244Y-4.8819
X4.7874Y-3.4547
X4.8209Y-2.9921
X4.9528Y-4.3819
X5.0591Y-4.8819
X5.0984Y-4.1988
X5.2831Y-2.8921
X5.2835Y-3.0394
X5.3189Y-2.8386
X5.3228Y-2.7441
X5.3287Y-3.9232
X5.3543Y-4.8819
X5.3858Y-4.7244
X5.4252Y-3.4567
X5.4528Y-2.7441
X5.4528Y-3.9961
X5.4528Y-4.3898
X5.4528Y-4.7835
X5.4567Y-2.8386
T2
X4.252Y-2.6949
X4.3504Y-2.6949
X4.4488Y-2.6949
T3
X4.1299Y-2.9902
X4.5709Y-2.9902
T4
X4.0354Y-2.6378
X4.0354Y-4.1339
X5.4134Y-4.8425
T5
X4.1504Y-3.7795
X4.1504Y-4.5276
X4.5504Y-3.7795
X4.5504Y-4.5276
X4.8984Y-3.7795
X4.8984Y-4.5276
X5.2984Y-3.7795
X5.2984Y-4.5276
T7
X4.2004Y-3.6795
X4.4504Y-3.5795
X4.9484Y-3.6795
X5.1984Y-3.5795
T8
X4.3504Y-3.7795
X5.0984Y-3.7795
T6
G00X4.3504Y-4.6929
M15
G01X4.3504Y-4.7559
M16
G05
G00X4.3563Y-3.9449
M15
G01X4.3563Y-4.0079
M16
G05
G00X5.0984Y-3.9449
M15
G01X5.0984Y-4.0079
M16
G05
G00X5.0984Y-4.6929
M15
G01X5.0984Y-4.7559
M16
G05
T0
M30
