%TF.GenerationSoftware,KiCad,Pcbnew,7.0.1*%
%TF.CreationDate,2023-03-19T16:45:44-04:00*%
%TF.ProjectId,Fluxpad,466c7578-7061-4642-9e6b-696361645f70,rev?*%
%TF.SameCoordinates,Original*%
%TF.FileFunction,Paste,Bot*%
%TF.FilePolarity,Positive*%
%FSLAX46Y46*%
G04 Gerber Fmt 4.6, Leading zero omitted, Abs format (unit mm)*
G04 Created by KiCad (PCBNEW 7.0.1) date 2023-03-19 16:45:44*
%MOMM*%
%LPD*%
G01*
G04 APERTURE LIST*
G04 Aperture macros list*
%AMRoundRect*
0 Rectangle with rounded corners*
0 $1 Rounding radius*
0 $2 $3 $4 $5 $6 $7 $8 $9 X,Y pos of 4 corners*
0 Add a 4 corners polygon primitive as box body*
4,1,4,$2,$3,$4,$5,$6,$7,$8,$9,$2,$3,0*
0 Add four circle primitives for the rounded corners*
1,1,$1+$1,$2,$3*
1,1,$1+$1,$4,$5*
1,1,$1+$1,$6,$7*
1,1,$1+$1,$8,$9*
0 Add four rect primitives between the rounded corners*
20,1,$1+$1,$2,$3,$4,$5,0*
20,1,$1+$1,$4,$5,$6,$7,0*
20,1,$1+$1,$6,$7,$8,$9,0*
20,1,$1+$1,$8,$9,$2,$3,0*%
G04 Aperture macros list end*
%ADD10RoundRect,0.200000X-0.200000X-0.275000X0.200000X-0.275000X0.200000X0.275000X-0.200000X0.275000X0*%
%ADD11RoundRect,0.225000X0.250000X-0.225000X0.250000X0.225000X-0.250000X0.225000X-0.250000X-0.225000X0*%
%ADD12RoundRect,0.200000X0.275000X-0.200000X0.275000X0.200000X-0.275000X0.200000X-0.275000X-0.200000X0*%
%ADD13RoundRect,0.300000X-0.450000X-0.500000X0.450000X-0.500000X0.450000X0.500000X-0.450000X0.500000X0*%
%ADD14RoundRect,0.225000X-0.250000X0.225000X-0.250000X-0.225000X0.250000X-0.225000X0.250000X0.225000X0*%
%TA.AperFunction,Profile*%
%ADD15C,0.100000*%
%TD*%
G04 APERTURE END LIST*
D10*
%TO.C,R1*%
X114675000Y-101000000D03*
X116325000Y-101000000D03*
%TD*%
D11*
%TO.C,C2*%
X127500000Y-111275000D03*
X127500000Y-109725000D03*
%TD*%
D10*
%TO.C,R2*%
X133675000Y-101000000D03*
X135325000Y-101000000D03*
%TD*%
D12*
%TO.C,R5*%
X110500000Y-111325000D03*
X110500000Y-109675000D03*
%TD*%
D13*
%TO.C,D2*%
X131300000Y-101000000D03*
X127700000Y-101000000D03*
%TD*%
%TO.C,D3*%
X112300000Y-120000000D03*
X108700000Y-120000000D03*
%TD*%
D12*
%TO.C,R6*%
X129500000Y-111325000D03*
X129500000Y-109675000D03*
%TD*%
D14*
%TO.C,C4*%
X131500000Y-109725000D03*
X131500000Y-111275000D03*
%TD*%
D13*
%TO.C,D4*%
X131300000Y-120000000D03*
X127700000Y-120000000D03*
%TD*%
D14*
%TO.C,C3*%
X112500000Y-109725000D03*
X112500000Y-111275000D03*
%TD*%
D13*
%TO.C,D1*%
X112450000Y-101000000D03*
X108850000Y-101000000D03*
%TD*%
D10*
%TO.C,R3*%
X114675000Y-120000000D03*
X116325000Y-120000000D03*
%TD*%
D11*
%TO.C,C1*%
X108500000Y-111275000D03*
X108500000Y-109725000D03*
%TD*%
D10*
%TO.C,R4*%
X133675000Y-120000000D03*
X135325000Y-120000000D03*
%TD*%
D15*
X102500000Y-65000000D02*
G75*
G03*
X100500000Y-67000000I0J-2000000D01*
G01*
X139499998Y-99247352D02*
G75*
G03*
X139076923Y-98430554I-1000016J-8D01*
G01*
X100923077Y-98430554D02*
G75*
G03*
X100923077Y-91569446I-2423077J3430554D01*
G01*
X100923078Y-98430555D02*
G75*
G03*
X100500000Y-99247352I576940J-816808D01*
G01*
X139076923Y-91569446D02*
G75*
G03*
X139076923Y-98430554I2423077J-3430554D01*
G01*
X100500000Y-67000000D02*
X100500000Y-90752648D01*
X102500000Y-125000000D02*
X137500000Y-125000000D01*
X139500000Y-67000000D02*
G75*
G03*
X137500000Y-65000000I-2000000J0D01*
G01*
X100500002Y-90752648D02*
G75*
G03*
X100923078Y-91569445I1000017J9D01*
G01*
X139500000Y-90752648D02*
X139500000Y-67000000D01*
X137500000Y-65000000D02*
X102500000Y-65000000D01*
X137500000Y-125000000D02*
G75*
G03*
X139500000Y-123000000I0J2000000D01*
G01*
X100500000Y-99247352D02*
X100500000Y-123000000D01*
X100500000Y-123000000D02*
G75*
G03*
X102500000Y-125000000I2000000J0D01*
G01*
X139500000Y-123000000D02*
X139500000Y-99247352D01*
X139076922Y-91569445D02*
G75*
G03*
X139500000Y-90752648I-577098J816890D01*
G01*
M02*
