%TF.GenerationSoftware,KiCad,Pcbnew,(6.0.9)*%
%TF.CreationDate,2023-03-08T23:19:46-05:00*%
%TF.ProjectId,Fluxpad,466c7578-7061-4642-9e6b-696361645f70,rev?*%
%TF.SameCoordinates,Original*%
%TF.FileFunction,Legend,Bot*%
%TF.FilePolarity,Positive*%
%FSLAX46Y46*%
G04 Gerber Fmt 4.6, Leading zero omitted, Abs format (unit mm)*
G04 Created by KiCad (PCBNEW (6.0.9)) date 2023-03-08 23:19:46*
%MOMM*%
%LPD*%
G01*
G04 APERTURE LIST*
G04 Aperture macros list*
%AMRoundRect*
0 Rectangle with rounded corners*
0 $1 Rounding radius*
0 $2 $3 $4 $5 $6 $7 $8 $9 X,Y pos of 4 corners*
0 Add a 4 corners polygon primitive as box body*
4,1,4,$2,$3,$4,$5,$6,$7,$8,$9,$2,$3,0*
0 Add four circle primitives for the rounded corners*
1,1,$1+$1,$2,$3*
1,1,$1+$1,$4,$5*
1,1,$1+$1,$6,$7*
1,1,$1+$1,$8,$9*
0 Add four rect primitives between the rounded corners*
20,1,$1+$1,$2,$3,$4,$5,0*
20,1,$1+$1,$4,$5,$6,$7,0*
20,1,$1+$1,$6,$7,$8,$9,0*
20,1,$1+$1,$8,$9,$2,$3,0*%
G04 Aperture macros list end*
%TA.AperFunction,Profile*%
%ADD10C,0.250000*%
%TD*%
%ADD11C,0.200000*%
%ADD12C,0.150000*%
%ADD13C,0.120000*%
%ADD14R,2.000000X2.000000*%
%ADD15C,2.000000*%
%ADD16C,2.800000*%
%ADD17C,3.050000*%
%ADD18C,1.750000*%
%ADD19C,4.000000*%
%ADD20RoundRect,0.250000X-1.025000X-1.000000X1.025000X-1.000000X1.025000X1.000000X-1.025000X1.000000X0*%
%ADD21R,1.000000X1.000000*%
%ADD22RoundRect,0.200000X-0.200000X-0.275000X0.200000X-0.275000X0.200000X0.275000X-0.200000X0.275000X0*%
%ADD23RoundRect,0.225000X0.250000X-0.225000X0.250000X0.225000X-0.250000X0.225000X-0.250000X-0.225000X0*%
%ADD24RoundRect,0.200000X0.275000X-0.200000X0.275000X0.200000X-0.275000X0.200000X-0.275000X-0.200000X0*%
%ADD25RoundRect,0.150000X-0.150000X0.587500X-0.150000X-0.587500X0.150000X-0.587500X0.150000X0.587500X0*%
%ADD26RoundRect,0.225000X-0.250000X0.225000X-0.250000X-0.225000X0.250000X-0.225000X0.250000X0.225000X0*%
G04 APERTURE END LIST*
D10*
X102500000Y-65000000D02*
G75*
G03*
X100500000Y-67000000I0J-2000000D01*
G01*
X139500039Y-99247352D02*
G75*
G03*
X139076923Y-98430554I-1000039J-48D01*
G01*
X100923077Y-98430554D02*
G75*
G03*
X100923077Y-91569446I-2423077J3430554D01*
G01*
X100923099Y-98430586D02*
G75*
G03*
X100500000Y-99247352I576901J-816814D01*
G01*
X139076923Y-91569446D02*
G75*
G03*
X139076923Y-98430554I2423077J-3430554D01*
G01*
X100500000Y-67000000D02*
X100500000Y-90752648D01*
X102500000Y-125000000D02*
X137500000Y-125000000D01*
X139500000Y-67000000D02*
G75*
G03*
X137500000Y-65000000I-2000000J0D01*
G01*
X100499961Y-90752648D02*
G75*
G03*
X100923077Y-91569446I1000039J48D01*
G01*
X139500000Y-90752648D02*
X139500000Y-67000000D01*
X137500000Y-65000000D02*
X102500000Y-65000000D01*
X137500000Y-125000000D02*
G75*
G03*
X139500000Y-123000000I0J2000000D01*
G01*
X100500000Y-99247352D02*
X100500000Y-123000000D01*
X100500000Y-123000000D02*
G75*
G03*
X102500000Y-125000000I2000000J0D01*
G01*
X139500000Y-123000000D02*
X139500000Y-99247352D01*
X139076949Y-91569483D02*
G75*
G03*
X139500000Y-90752648I-577149J816883D01*
G01*
D11*
X137670000Y-67246000D02*
X138136666Y-67246000D01*
X138136666Y-67979333D02*
X138136666Y-66579333D01*
X137470000Y-66579333D01*
X136270000Y-67979333D02*
X136936666Y-67979333D01*
X136936666Y-66579333D01*
X135803333Y-66579333D02*
X135803333Y-67712666D01*
X135736666Y-67846000D01*
X135670000Y-67912666D01*
X135536666Y-67979333D01*
X135270000Y-67979333D01*
X135136666Y-67912666D01*
X135070000Y-67846000D01*
X135003333Y-67712666D01*
X135003333Y-66579333D01*
X134470000Y-66579333D02*
X133536666Y-67979333D01*
X133536666Y-66579333D02*
X134470000Y-67979333D01*
X133003333Y-67979333D02*
X133003333Y-66579333D01*
X132470000Y-66579333D01*
X132336666Y-66646000D01*
X132270000Y-66712666D01*
X132203333Y-66846000D01*
X132203333Y-67046000D01*
X132270000Y-67179333D01*
X132336666Y-67246000D01*
X132470000Y-67312666D01*
X133003333Y-67312666D01*
X131670000Y-67579333D02*
X131003333Y-67579333D01*
X131803333Y-67979333D02*
X131336666Y-66579333D01*
X130870000Y-67979333D01*
X130403333Y-67979333D02*
X130403333Y-66579333D01*
X130070000Y-66579333D01*
X129870000Y-66646000D01*
X129736666Y-66779333D01*
X129670000Y-66912666D01*
X129603333Y-67179333D01*
X129603333Y-67379333D01*
X129670000Y-67646000D01*
X129736666Y-67779333D01*
X129870000Y-67912666D01*
X130070000Y-67979333D01*
X130403333Y-67979333D01*
X137336666Y-70233333D02*
X137803333Y-69566666D01*
X138136666Y-70233333D02*
X138136666Y-68833333D01*
X137603333Y-68833333D01*
X137470000Y-68900000D01*
X137403333Y-68966666D01*
X137336666Y-69100000D01*
X137336666Y-69300000D01*
X137403333Y-69433333D01*
X137470000Y-69500000D01*
X137603333Y-69566666D01*
X138136666Y-69566666D01*
X136203333Y-70166666D02*
X136336666Y-70233333D01*
X136603333Y-70233333D01*
X136736666Y-70166666D01*
X136803333Y-70033333D01*
X136803333Y-69500000D01*
X136736666Y-69366666D01*
X136603333Y-69300000D01*
X136336666Y-69300000D01*
X136203333Y-69366666D01*
X136136666Y-69500000D01*
X136136666Y-69633333D01*
X136803333Y-69766666D01*
X135670000Y-69300000D02*
X135336666Y-70233333D01*
X135003333Y-69300000D01*
X134603333Y-68833333D02*
X133736666Y-68833333D01*
X134203333Y-69366666D01*
X134003333Y-69366666D01*
X133870000Y-69433333D01*
X133803333Y-69500000D01*
X133736666Y-69633333D01*
X133736666Y-69966666D01*
X133803333Y-70100000D01*
X133870000Y-70166666D01*
X134003333Y-70233333D01*
X134403333Y-70233333D01*
X134536666Y-70166666D01*
X134603333Y-70100000D01*
X138336666Y-71087333D02*
X137536666Y-71087333D01*
X137936666Y-72487333D02*
X137936666Y-71087333D01*
X137070000Y-72354000D02*
X137003333Y-72420666D01*
X137070000Y-72487333D01*
X137136666Y-72420666D01*
X137070000Y-72354000D01*
X137070000Y-72487333D01*
X136536666Y-71087333D02*
X136203333Y-72487333D01*
X135936666Y-71487333D01*
X135670000Y-72487333D01*
X135336666Y-71087333D01*
X134803333Y-72354000D02*
X134736666Y-72420666D01*
X134803333Y-72487333D01*
X134870000Y-72420666D01*
X134803333Y-72354000D01*
X134803333Y-72487333D01*
D12*
%TO.C,TP_SW4*%
X135840476Y-105802380D02*
X135269047Y-105802380D01*
X135554761Y-106802380D02*
X135554761Y-105802380D01*
X134935714Y-106802380D02*
X134935714Y-105802380D01*
X134554761Y-105802380D01*
X134459523Y-105850000D01*
X134411904Y-105897619D01*
X134364285Y-105992857D01*
X134364285Y-106135714D01*
X134411904Y-106230952D01*
X134459523Y-106278571D01*
X134554761Y-106326190D01*
X134935714Y-106326190D01*
X134173809Y-106897619D02*
X133411904Y-106897619D01*
X133221428Y-106754761D02*
X133078571Y-106802380D01*
X132840476Y-106802380D01*
X132745238Y-106754761D01*
X132697619Y-106707142D01*
X132650000Y-106611904D01*
X132650000Y-106516666D01*
X132697619Y-106421428D01*
X132745238Y-106373809D01*
X132840476Y-106326190D01*
X133030952Y-106278571D01*
X133126190Y-106230952D01*
X133173809Y-106183333D01*
X133221428Y-106088095D01*
X133221428Y-105992857D01*
X133173809Y-105897619D01*
X133126190Y-105850000D01*
X133030952Y-105802380D01*
X132792857Y-105802380D01*
X132650000Y-105850000D01*
X132316666Y-105802380D02*
X132078571Y-106802380D01*
X131888095Y-106088095D01*
X131697619Y-106802380D01*
X131459523Y-105802380D01*
X130650000Y-106135714D02*
X130650000Y-106802380D01*
X130888095Y-105754761D02*
X131126190Y-106469047D01*
X130507142Y-106469047D01*
%TO.C,TP_SW1*%
X106690476Y-98004380D02*
X106119047Y-98004380D01*
X106404761Y-99004380D02*
X106404761Y-98004380D01*
X105785714Y-99004380D02*
X105785714Y-98004380D01*
X105404761Y-98004380D01*
X105309523Y-98052000D01*
X105261904Y-98099619D01*
X105214285Y-98194857D01*
X105214285Y-98337714D01*
X105261904Y-98432952D01*
X105309523Y-98480571D01*
X105404761Y-98528190D01*
X105785714Y-98528190D01*
X105023809Y-99099619D02*
X104261904Y-99099619D01*
X104071428Y-98956761D02*
X103928571Y-99004380D01*
X103690476Y-99004380D01*
X103595238Y-98956761D01*
X103547619Y-98909142D01*
X103500000Y-98813904D01*
X103500000Y-98718666D01*
X103547619Y-98623428D01*
X103595238Y-98575809D01*
X103690476Y-98528190D01*
X103880952Y-98480571D01*
X103976190Y-98432952D01*
X104023809Y-98385333D01*
X104071428Y-98290095D01*
X104071428Y-98194857D01*
X104023809Y-98099619D01*
X103976190Y-98052000D01*
X103880952Y-98004380D01*
X103642857Y-98004380D01*
X103500000Y-98052000D01*
X103166666Y-98004380D02*
X102928571Y-99004380D01*
X102738095Y-98290095D01*
X102547619Y-99004380D01*
X102309523Y-98004380D01*
X101404761Y-99004380D02*
X101976190Y-99004380D01*
X101690476Y-99004380D02*
X101690476Y-98004380D01*
X101785714Y-98147238D01*
X101880952Y-98242476D01*
X101976190Y-98290095D01*
%TO.C,R1*%
X115666666Y-102882380D02*
X116000000Y-102406190D01*
X116238095Y-102882380D02*
X116238095Y-101882380D01*
X115857142Y-101882380D01*
X115761904Y-101930000D01*
X115714285Y-101977619D01*
X115666666Y-102072857D01*
X115666666Y-102215714D01*
X115714285Y-102310952D01*
X115761904Y-102358571D01*
X115857142Y-102406190D01*
X116238095Y-102406190D01*
X114714285Y-102882380D02*
X115285714Y-102882380D01*
X115000000Y-102882380D02*
X115000000Y-101882380D01*
X115095238Y-102025238D01*
X115190476Y-102120476D01*
X115285714Y-102168095D01*
%TO.C,C2*%
X127857142Y-107633333D02*
X127904761Y-107585714D01*
X127952380Y-107442857D01*
X127952380Y-107347619D01*
X127904761Y-107204761D01*
X127809523Y-107109523D01*
X127714285Y-107061904D01*
X127523809Y-107014285D01*
X127380952Y-107014285D01*
X127190476Y-107061904D01*
X127095238Y-107109523D01*
X127000000Y-107204761D01*
X126952380Y-107347619D01*
X126952380Y-107442857D01*
X127000000Y-107585714D01*
X127047619Y-107633333D01*
X127047619Y-108014285D02*
X127000000Y-108061904D01*
X126952380Y-108157142D01*
X126952380Y-108395238D01*
X127000000Y-108490476D01*
X127047619Y-108538095D01*
X127142857Y-108585714D01*
X127238095Y-108585714D01*
X127380952Y-108538095D01*
X127952380Y-107966666D01*
X127952380Y-108585714D01*
%TO.C,R2*%
X134666666Y-102882380D02*
X135000000Y-102406190D01*
X135238095Y-102882380D02*
X135238095Y-101882380D01*
X134857142Y-101882380D01*
X134761904Y-101930000D01*
X134714285Y-101977619D01*
X134666666Y-102072857D01*
X134666666Y-102215714D01*
X134714285Y-102310952D01*
X134761904Y-102358571D01*
X134857142Y-102406190D01*
X135238095Y-102406190D01*
X134285714Y-101977619D02*
X134238095Y-101930000D01*
X134142857Y-101882380D01*
X133904761Y-101882380D01*
X133809523Y-101930000D01*
X133761904Y-101977619D01*
X133714285Y-102072857D01*
X133714285Y-102168095D01*
X133761904Y-102310952D01*
X134333333Y-102882380D01*
X133714285Y-102882380D01*
%TO.C,R5*%
X110952380Y-107733333D02*
X110476190Y-107400000D01*
X110952380Y-107161904D02*
X109952380Y-107161904D01*
X109952380Y-107542857D01*
X110000000Y-107638095D01*
X110047619Y-107685714D01*
X110142857Y-107733333D01*
X110285714Y-107733333D01*
X110380952Y-107685714D01*
X110428571Y-107638095D01*
X110476190Y-107542857D01*
X110476190Y-107161904D01*
X109952380Y-108638095D02*
X109952380Y-108161904D01*
X110428571Y-108114285D01*
X110380952Y-108161904D01*
X110333333Y-108257142D01*
X110333333Y-108495238D01*
X110380952Y-108590476D01*
X110428571Y-108638095D01*
X110523809Y-108685714D01*
X110761904Y-108685714D01*
X110857142Y-108638095D01*
X110904761Y-108590476D01*
X110952380Y-108495238D01*
X110952380Y-108257142D01*
X110904761Y-108161904D01*
X110857142Y-108114285D01*
%TO.C,U2*%
X111261904Y-112152380D02*
X111261904Y-112961904D01*
X111214285Y-113057142D01*
X111166666Y-113104761D01*
X111071428Y-113152380D01*
X110880952Y-113152380D01*
X110785714Y-113104761D01*
X110738095Y-113057142D01*
X110690476Y-112961904D01*
X110690476Y-112152380D01*
X110261904Y-112247619D02*
X110214285Y-112200000D01*
X110119047Y-112152380D01*
X109880952Y-112152380D01*
X109785714Y-112200000D01*
X109738095Y-112247619D01*
X109690476Y-112342857D01*
X109690476Y-112438095D01*
X109738095Y-112580952D01*
X110309523Y-113152380D01*
X109690476Y-113152380D01*
%TO.C,TP_SW3*%
X116990476Y-105802380D02*
X116419047Y-105802380D01*
X116704761Y-106802380D02*
X116704761Y-105802380D01*
X116085714Y-106802380D02*
X116085714Y-105802380D01*
X115704761Y-105802380D01*
X115609523Y-105850000D01*
X115561904Y-105897619D01*
X115514285Y-105992857D01*
X115514285Y-106135714D01*
X115561904Y-106230952D01*
X115609523Y-106278571D01*
X115704761Y-106326190D01*
X116085714Y-106326190D01*
X115323809Y-106897619D02*
X114561904Y-106897619D01*
X114371428Y-106754761D02*
X114228571Y-106802380D01*
X113990476Y-106802380D01*
X113895238Y-106754761D01*
X113847619Y-106707142D01*
X113800000Y-106611904D01*
X113800000Y-106516666D01*
X113847619Y-106421428D01*
X113895238Y-106373809D01*
X113990476Y-106326190D01*
X114180952Y-106278571D01*
X114276190Y-106230952D01*
X114323809Y-106183333D01*
X114371428Y-106088095D01*
X114371428Y-105992857D01*
X114323809Y-105897619D01*
X114276190Y-105850000D01*
X114180952Y-105802380D01*
X113942857Y-105802380D01*
X113800000Y-105850000D01*
X113466666Y-105802380D02*
X113228571Y-106802380D01*
X113038095Y-106088095D01*
X112847619Y-106802380D01*
X112609523Y-105802380D01*
X112323809Y-105802380D02*
X111704761Y-105802380D01*
X112038095Y-106183333D01*
X111895238Y-106183333D01*
X111800000Y-106230952D01*
X111752380Y-106278571D01*
X111704761Y-106373809D01*
X111704761Y-106611904D01*
X111752380Y-106707142D01*
X111800000Y-106754761D01*
X111895238Y-106802380D01*
X112180952Y-106802380D01*
X112276190Y-106754761D01*
X112323809Y-106707142D01*
%TO.C,R6*%
X129952380Y-107733333D02*
X129476190Y-107400000D01*
X129952380Y-107161904D02*
X128952380Y-107161904D01*
X128952380Y-107542857D01*
X129000000Y-107638095D01*
X129047619Y-107685714D01*
X129142857Y-107733333D01*
X129285714Y-107733333D01*
X129380952Y-107685714D01*
X129428571Y-107638095D01*
X129476190Y-107542857D01*
X129476190Y-107161904D01*
X128952380Y-108590476D02*
X128952380Y-108400000D01*
X129000000Y-108304761D01*
X129047619Y-108257142D01*
X129190476Y-108161904D01*
X129380952Y-108114285D01*
X129761904Y-108114285D01*
X129857142Y-108161904D01*
X129904761Y-108209523D01*
X129952380Y-108304761D01*
X129952380Y-108495238D01*
X129904761Y-108590476D01*
X129857142Y-108638095D01*
X129761904Y-108685714D01*
X129523809Y-108685714D01*
X129428571Y-108638095D01*
X129380952Y-108590476D01*
X129333333Y-108495238D01*
X129333333Y-108304761D01*
X129380952Y-108209523D01*
X129428571Y-108161904D01*
X129523809Y-108114285D01*
%TO.C,C4*%
X133507142Y-110333333D02*
X133554761Y-110285714D01*
X133602380Y-110142857D01*
X133602380Y-110047619D01*
X133554761Y-109904761D01*
X133459523Y-109809523D01*
X133364285Y-109761904D01*
X133173809Y-109714285D01*
X133030952Y-109714285D01*
X132840476Y-109761904D01*
X132745238Y-109809523D01*
X132650000Y-109904761D01*
X132602380Y-110047619D01*
X132602380Y-110142857D01*
X132650000Y-110285714D01*
X132697619Y-110333333D01*
X132935714Y-111190476D02*
X133602380Y-111190476D01*
X132554761Y-110952380D02*
X133269047Y-110714285D01*
X133269047Y-111333333D01*
%TO.C,TP_SW2*%
X125690476Y-98004380D02*
X125119047Y-98004380D01*
X125404761Y-99004380D02*
X125404761Y-98004380D01*
X124785714Y-99004380D02*
X124785714Y-98004380D01*
X124404761Y-98004380D01*
X124309523Y-98052000D01*
X124261904Y-98099619D01*
X124214285Y-98194857D01*
X124214285Y-98337714D01*
X124261904Y-98432952D01*
X124309523Y-98480571D01*
X124404761Y-98528190D01*
X124785714Y-98528190D01*
X124023809Y-99099619D02*
X123261904Y-99099619D01*
X123071428Y-98956761D02*
X122928571Y-99004380D01*
X122690476Y-99004380D01*
X122595238Y-98956761D01*
X122547619Y-98909142D01*
X122500000Y-98813904D01*
X122500000Y-98718666D01*
X122547619Y-98623428D01*
X122595238Y-98575809D01*
X122690476Y-98528190D01*
X122880952Y-98480571D01*
X122976190Y-98432952D01*
X123023809Y-98385333D01*
X123071428Y-98290095D01*
X123071428Y-98194857D01*
X123023809Y-98099619D01*
X122976190Y-98052000D01*
X122880952Y-98004380D01*
X122642857Y-98004380D01*
X122500000Y-98052000D01*
X122166666Y-98004380D02*
X121928571Y-99004380D01*
X121738095Y-98290095D01*
X121547619Y-99004380D01*
X121309523Y-98004380D01*
X120976190Y-98099619D02*
X120928571Y-98052000D01*
X120833333Y-98004380D01*
X120595238Y-98004380D01*
X120500000Y-98052000D01*
X120452380Y-98099619D01*
X120404761Y-98194857D01*
X120404761Y-98290095D01*
X120452380Y-98432952D01*
X121023809Y-99004380D01*
X120404761Y-99004380D01*
%TO.C,C3*%
X114457142Y-110333333D02*
X114504761Y-110285714D01*
X114552380Y-110142857D01*
X114552380Y-110047619D01*
X114504761Y-109904761D01*
X114409523Y-109809523D01*
X114314285Y-109761904D01*
X114123809Y-109714285D01*
X113980952Y-109714285D01*
X113790476Y-109761904D01*
X113695238Y-109809523D01*
X113600000Y-109904761D01*
X113552380Y-110047619D01*
X113552380Y-110142857D01*
X113600000Y-110285714D01*
X113647619Y-110333333D01*
X113552380Y-110666666D02*
X113552380Y-111285714D01*
X113933333Y-110952380D01*
X113933333Y-111095238D01*
X113980952Y-111190476D01*
X114028571Y-111238095D01*
X114123809Y-111285714D01*
X114361904Y-111285714D01*
X114457142Y-111238095D01*
X114504761Y-111190476D01*
X114552380Y-111095238D01*
X114552380Y-110809523D01*
X114504761Y-110714285D01*
X114457142Y-110666666D01*
%TO.C,R3*%
X115666666Y-121882380D02*
X116000000Y-121406190D01*
X116238095Y-121882380D02*
X116238095Y-120882380D01*
X115857142Y-120882380D01*
X115761904Y-120930000D01*
X115714285Y-120977619D01*
X115666666Y-121072857D01*
X115666666Y-121215714D01*
X115714285Y-121310952D01*
X115761904Y-121358571D01*
X115857142Y-121406190D01*
X116238095Y-121406190D01*
X115333333Y-120882380D02*
X114714285Y-120882380D01*
X115047619Y-121263333D01*
X114904761Y-121263333D01*
X114809523Y-121310952D01*
X114761904Y-121358571D01*
X114714285Y-121453809D01*
X114714285Y-121691904D01*
X114761904Y-121787142D01*
X114809523Y-121834761D01*
X114904761Y-121882380D01*
X115190476Y-121882380D01*
X115285714Y-121834761D01*
X115333333Y-121787142D01*
%TO.C,C1*%
X108857142Y-107733333D02*
X108904761Y-107685714D01*
X108952380Y-107542857D01*
X108952380Y-107447619D01*
X108904761Y-107304761D01*
X108809523Y-107209523D01*
X108714285Y-107161904D01*
X108523809Y-107114285D01*
X108380952Y-107114285D01*
X108190476Y-107161904D01*
X108095238Y-107209523D01*
X108000000Y-107304761D01*
X107952380Y-107447619D01*
X107952380Y-107542857D01*
X108000000Y-107685714D01*
X108047619Y-107733333D01*
X108952380Y-108685714D02*
X108952380Y-108114285D01*
X108952380Y-108400000D02*
X107952380Y-108400000D01*
X108095238Y-108304761D01*
X108190476Y-108209523D01*
X108238095Y-108114285D01*
%TO.C,GND1*%
X132838095Y-75502000D02*
X132933333Y-75454380D01*
X133076190Y-75454380D01*
X133219047Y-75502000D01*
X133314285Y-75597238D01*
X133361904Y-75692476D01*
X133409523Y-75882952D01*
X133409523Y-76025809D01*
X133361904Y-76216285D01*
X133314285Y-76311523D01*
X133219047Y-76406761D01*
X133076190Y-76454380D01*
X132980952Y-76454380D01*
X132838095Y-76406761D01*
X132790476Y-76359142D01*
X132790476Y-76025809D01*
X132980952Y-76025809D01*
X132361904Y-76454380D02*
X132361904Y-75454380D01*
X131790476Y-76454380D01*
X131790476Y-75454380D01*
X131314285Y-76454380D02*
X131314285Y-75454380D01*
X131076190Y-75454380D01*
X130933333Y-75502000D01*
X130838095Y-75597238D01*
X130790476Y-75692476D01*
X130742857Y-75882952D01*
X130742857Y-76025809D01*
X130790476Y-76216285D01*
X130838095Y-76311523D01*
X130933333Y-76406761D01*
X131076190Y-76454380D01*
X131314285Y-76454380D01*
X129790476Y-76454380D02*
X130361904Y-76454380D01*
X130076190Y-76454380D02*
X130076190Y-75454380D01*
X130171428Y-75597238D01*
X130266666Y-75692476D01*
X130361904Y-75740095D01*
%TO.C,U3*%
X130261904Y-112152380D02*
X130261904Y-112961904D01*
X130214285Y-113057142D01*
X130166666Y-113104761D01*
X130071428Y-113152380D01*
X129880952Y-113152380D01*
X129785714Y-113104761D01*
X129738095Y-113057142D01*
X129690476Y-112961904D01*
X129690476Y-112152380D01*
X129309523Y-112152380D02*
X128690476Y-112152380D01*
X129023809Y-112533333D01*
X128880952Y-112533333D01*
X128785714Y-112580952D01*
X128738095Y-112628571D01*
X128690476Y-112723809D01*
X128690476Y-112961904D01*
X128738095Y-113057142D01*
X128785714Y-113104761D01*
X128880952Y-113152380D01*
X129166666Y-113152380D01*
X129261904Y-113104761D01*
X129309523Y-113057142D01*
%TO.C,3V3*%
X132838095Y-71504380D02*
X132219047Y-71504380D01*
X132552380Y-71885333D01*
X132409523Y-71885333D01*
X132314285Y-71932952D01*
X132266666Y-71980571D01*
X132219047Y-72075809D01*
X132219047Y-72313904D01*
X132266666Y-72409142D01*
X132314285Y-72456761D01*
X132409523Y-72504380D01*
X132695238Y-72504380D01*
X132790476Y-72456761D01*
X132838095Y-72409142D01*
X131933333Y-71504380D02*
X131600000Y-72504380D01*
X131266666Y-71504380D01*
X131028571Y-71504380D02*
X130409523Y-71504380D01*
X130742857Y-71885333D01*
X130600000Y-71885333D01*
X130504761Y-71932952D01*
X130457142Y-71980571D01*
X130409523Y-72075809D01*
X130409523Y-72313904D01*
X130457142Y-72409142D01*
X130504761Y-72456761D01*
X130600000Y-72504380D01*
X130885714Y-72504380D01*
X130980952Y-72456761D01*
X131028571Y-72409142D01*
%TO.C,R4*%
X134666666Y-121882380D02*
X135000000Y-121406190D01*
X135238095Y-121882380D02*
X135238095Y-120882380D01*
X134857142Y-120882380D01*
X134761904Y-120930000D01*
X134714285Y-120977619D01*
X134666666Y-121072857D01*
X134666666Y-121215714D01*
X134714285Y-121310952D01*
X134761904Y-121358571D01*
X134857142Y-121406190D01*
X135238095Y-121406190D01*
X133809523Y-121215714D02*
X133809523Y-121882380D01*
X134047619Y-120834761D02*
X134285714Y-121549047D01*
X133666666Y-121549047D01*
D13*
%TO.C,SW1*%
X106400000Y-89100000D02*
X111500000Y-89100000D01*
X110300000Y-93300000D02*
X115400000Y-93300000D01*
X110300000Y-93300000D02*
G75*
G03*
X108300000Y-95300000I-1J-1999999D01*
G01*
X106400000Y-89100000D02*
G75*
G03*
X104400000Y-91100000I-1J-1999999D01*
G01*
%TO.C,SW2*%
X125400000Y-89100000D02*
X130500000Y-89100000D01*
X129300000Y-93300000D02*
X134400000Y-93300000D01*
X125400000Y-89100000D02*
G75*
G03*
X123400000Y-91100000I-1J-1999999D01*
G01*
X129300000Y-93300000D02*
G75*
G03*
X127300000Y-95300000I-1J-1999999D01*
G01*
%TO.C,TP_SW4*%
X130800000Y-107100000D02*
X130800000Y-108500000D01*
X132200000Y-107100000D02*
X130800000Y-107100000D01*
X132200000Y-108500000D02*
X132200000Y-107100000D01*
X130800000Y-108500000D02*
X132200000Y-108500000D01*
%TO.C,TP_SW1*%
X104700000Y-99300000D02*
X103300000Y-99300000D01*
X103300000Y-100700000D02*
X104700000Y-100700000D01*
X103300000Y-99300000D02*
X103300000Y-100700000D01*
X104700000Y-100700000D02*
X104700000Y-99300000D01*
%TO.C,R1*%
X115262742Y-100477500D02*
X115737258Y-100477500D01*
X115262742Y-101522500D02*
X115737258Y-101522500D01*
%TO.C,C2*%
X126990000Y-110640580D02*
X126990000Y-110359420D01*
X128010000Y-110640580D02*
X128010000Y-110359420D01*
%TO.C,R2*%
X134262742Y-101522500D02*
X134737258Y-101522500D01*
X134262742Y-100477500D02*
X134737258Y-100477500D01*
%TO.C,R5*%
X109977500Y-110737258D02*
X109977500Y-110262742D01*
X111022500Y-110737258D02*
X111022500Y-110262742D01*
%TO.C,U2*%
X108940000Y-115200000D02*
X108940000Y-113525000D01*
X112060000Y-115200000D02*
X112060000Y-114550000D01*
X108940000Y-115200000D02*
X108940000Y-115850000D01*
X112060000Y-115200000D02*
X112060000Y-115850000D01*
%TO.C,TP_SW3*%
X111800000Y-108500000D02*
X113200000Y-108500000D01*
X113200000Y-107100000D02*
X111800000Y-107100000D01*
X113200000Y-108500000D02*
X113200000Y-107100000D01*
X111800000Y-107100000D02*
X111800000Y-108500000D01*
%TO.C,R6*%
X128977500Y-110737258D02*
X128977500Y-110262742D01*
X130022500Y-110737258D02*
X130022500Y-110262742D01*
%TO.C,C4*%
X130990000Y-110359420D02*
X130990000Y-110640580D01*
X132010000Y-110359420D02*
X132010000Y-110640580D01*
%TO.C,TP_SW2*%
X123700000Y-99300000D02*
X122300000Y-99300000D01*
X122300000Y-100700000D02*
X123700000Y-100700000D01*
X122300000Y-99300000D02*
X122300000Y-100700000D01*
X123700000Y-100700000D02*
X123700000Y-99300000D01*
%TO.C,C3*%
X111990000Y-110359420D02*
X111990000Y-110640580D01*
X113010000Y-110359420D02*
X113010000Y-110640580D01*
%TO.C,R3*%
X115262742Y-119477500D02*
X115737258Y-119477500D01*
X115262742Y-120522500D02*
X115737258Y-120522500D01*
%TO.C,C1*%
X109010000Y-110640580D02*
X109010000Y-110359420D01*
X107990000Y-110640580D02*
X107990000Y-110359420D01*
%TO.C,GND1*%
X130900000Y-76750000D02*
X130900000Y-78150000D01*
X132300000Y-78150000D02*
X132300000Y-76750000D01*
X132300000Y-76750000D02*
X130900000Y-76750000D01*
X130900000Y-78150000D02*
X132300000Y-78150000D01*
%TO.C,U3*%
X127940000Y-115200000D02*
X127940000Y-113525000D01*
X127940000Y-115200000D02*
X127940000Y-115850000D01*
X131060000Y-115200000D02*
X131060000Y-114550000D01*
X131060000Y-115200000D02*
X131060000Y-115850000D01*
%TO.C,3V3*%
X132300000Y-72800000D02*
X130900000Y-72800000D01*
X130900000Y-72800000D02*
X130900000Y-74200000D01*
X130900000Y-74200000D02*
X132300000Y-74200000D01*
X132300000Y-74200000D02*
X132300000Y-72800000D01*
%TO.C,R4*%
X134262742Y-120522500D02*
X134737258Y-120522500D01*
X134262742Y-119477500D02*
X134737258Y-119477500D01*
%TD*%
%LPC*%
D14*
%TO.C,SW3*%
X113000000Y-68450000D03*
D15*
X108000000Y-68450000D03*
X110500000Y-68450000D03*
D16*
X104900000Y-75950000D03*
X116100000Y-75950000D03*
%TD*%
D17*
%TO.C,SW1*%
X106690000Y-93460000D03*
X113040000Y-90920000D03*
D18*
X115580000Y-96000000D03*
X105420000Y-96000000D03*
D19*
X110500000Y-96000000D03*
D20*
X103415000Y-93460000D03*
X116342000Y-90920000D03*
%TD*%
D18*
%TO.C,SW2*%
X124420000Y-96000000D03*
X134580000Y-96000000D03*
D17*
X125690000Y-93460000D03*
X132040000Y-90920000D03*
D19*
X129500000Y-96000000D03*
D20*
X122415000Y-93460000D03*
X135342000Y-90920000D03*
%TD*%
D21*
%TO.C,TP_SW4*%
X131500000Y-107800000D03*
%TD*%
%TO.C,TP_SW1*%
X104000000Y-100000000D03*
%TD*%
D22*
%TO.C,R1*%
X114675000Y-101000000D03*
X116325000Y-101000000D03*
%TD*%
D23*
%TO.C,C2*%
X127500000Y-111275000D03*
X127500000Y-109725000D03*
%TD*%
D22*
%TO.C,R2*%
X133675000Y-101000000D03*
X135325000Y-101000000D03*
%TD*%
D24*
%TO.C,R5*%
X110500000Y-111325000D03*
X110500000Y-109675000D03*
%TD*%
D18*
%TO.C,U2*%
X115580000Y-115000000D03*
X105420000Y-115000000D03*
D25*
X109550000Y-114262500D03*
X111450000Y-114262500D03*
X110500000Y-116137500D03*
%TD*%
D21*
%TO.C,TP_SW3*%
X112500000Y-107800000D03*
%TD*%
D24*
%TO.C,R6*%
X129500000Y-111325000D03*
X129500000Y-109675000D03*
%TD*%
D26*
%TO.C,C4*%
X131500000Y-109725000D03*
X131500000Y-111275000D03*
%TD*%
D21*
%TO.C,TP_SW2*%
X123000000Y-100000000D03*
%TD*%
D26*
%TO.C,C3*%
X112500000Y-109725000D03*
X112500000Y-111275000D03*
%TD*%
D22*
%TO.C,R3*%
X114675000Y-120000000D03*
X116325000Y-120000000D03*
%TD*%
D23*
%TO.C,C1*%
X108500000Y-111275000D03*
X108500000Y-109725000D03*
%TD*%
D21*
%TO.C,GND1*%
X131600000Y-77450000D03*
%TD*%
D18*
%TO.C,U3*%
X124420000Y-115000000D03*
X134580000Y-115000000D03*
D25*
X128550000Y-114262500D03*
X130450000Y-114262500D03*
X129500000Y-116137500D03*
%TD*%
D21*
%TO.C,3V3*%
X131600000Y-73500000D03*
%TD*%
D22*
%TO.C,R4*%
X133675000Y-120000000D03*
X135325000Y-120000000D03*
%TD*%
M02*
