%TF.GenerationSoftware,KiCad,Pcbnew,7.0.1*%
%TF.CreationDate,2023-03-19T16:45:44-04:00*%
%TF.ProjectId,Fluxpad,466c7578-7061-4642-9e6b-696361645f70,rev?*%
%TF.SameCoordinates,Original*%
%TF.FileFunction,Soldermask,Top*%
%TF.FilePolarity,Negative*%
%FSLAX46Y46*%
G04 Gerber Fmt 4.6, Leading zero omitted, Abs format (unit mm)*
G04 Created by KiCad (PCBNEW 7.0.1) date 2023-03-19 16:45:44*
%MOMM*%
%LPD*%
G01*
G04 APERTURE LIST*
%ADD10C,1.448000*%
%ADD11C,1.750000*%
%ADD12O,3.000000X2.000000*%
%ADD13C,3.050000*%
%ADD14C,4.000000*%
%ADD15C,2.800000*%
%ADD16C,2.000000*%
%ADD17R,2.000000X2.000000*%
%ADD18O,2.000000X3.600000*%
%TA.AperFunction,Profile*%
%ADD19C,0.100000*%
%TD*%
G04 APERTURE END LIST*
D10*
%TO.C,H3*%
X102500000Y-105000000D03*
%TD*%
%TO.C,H2*%
X137500000Y-123000000D03*
%TD*%
%TO.C,H1*%
X102500000Y-67000000D03*
%TD*%
D11*
%TO.C,U2*%
X115580000Y-115000000D03*
X105420000Y-115000000D03*
%TD*%
%TO.C,U3*%
X134580000Y-115000000D03*
X124420000Y-115000000D03*
%TD*%
D12*
%TO.C,U1*%
X120118000Y-68380000D03*
X120118000Y-70920000D03*
X120118000Y-73460000D03*
X120118000Y-76000000D03*
X120118000Y-78540000D03*
X120118000Y-81080000D03*
X120118000Y-83620000D03*
X136882000Y-83620000D03*
X136882000Y-81080000D03*
X136882000Y-78540000D03*
X136882000Y-76000000D03*
X136882000Y-73460000D03*
X136882000Y-70920000D03*
X136882000Y-68380000D03*
%TD*%
D11*
%TO.C,SW2*%
X134580000Y-96000000D03*
D13*
X132040000Y-90920000D03*
D14*
X129500000Y-96000000D03*
D13*
X125690000Y-93460000D03*
D11*
X124420000Y-96000000D03*
%TD*%
%TO.C,SW1*%
X105420000Y-96000000D03*
D13*
X106690000Y-93460000D03*
D14*
X110500000Y-96000000D03*
D13*
X113040000Y-90920000D03*
D11*
X115580000Y-96000000D03*
%TD*%
D15*
%TO.C,SW3*%
X116100000Y-75950000D03*
X104900000Y-75950000D03*
D16*
X110500000Y-68450000D03*
X108000000Y-68450000D03*
D17*
X113000000Y-68450000D03*
%TD*%
D18*
%TO.C,D2*%
X129500000Y-101000000D03*
%TD*%
%TO.C,D3*%
X110500000Y-120000000D03*
%TD*%
%TO.C,D4*%
X129500000Y-120000000D03*
%TD*%
%TO.C,D1*%
X110650000Y-101000000D03*
%TD*%
D19*
X102500000Y-65000000D02*
G75*
G03*
X100500000Y-67000000I0J-2000000D01*
G01*
X139499998Y-99247352D02*
G75*
G03*
X139076923Y-98430554I-1000016J-8D01*
G01*
X100923077Y-98430554D02*
G75*
G03*
X100923077Y-91569446I-2423077J3430554D01*
G01*
X100923078Y-98430555D02*
G75*
G03*
X100500000Y-99247352I576940J-816808D01*
G01*
X139076923Y-91569446D02*
G75*
G03*
X139076923Y-98430554I2423077J-3430554D01*
G01*
X100500000Y-67000000D02*
X100500000Y-90752648D01*
X102500000Y-125000000D02*
X137500000Y-125000000D01*
X139500000Y-67000000D02*
G75*
G03*
X137500000Y-65000000I-2000000J0D01*
G01*
X100500002Y-90752648D02*
G75*
G03*
X100923078Y-91569445I1000017J9D01*
G01*
X139500000Y-90752648D02*
X139500000Y-67000000D01*
X137500000Y-65000000D02*
X102500000Y-65000000D01*
X137500000Y-125000000D02*
G75*
G03*
X139500000Y-123000000I0J2000000D01*
G01*
X100500000Y-99247352D02*
X100500000Y-123000000D01*
X100500000Y-123000000D02*
G75*
G03*
X102500000Y-125000000I2000000J0D01*
G01*
X139500000Y-123000000D02*
X139500000Y-99247352D01*
X139076922Y-91569445D02*
G75*
G03*
X139500000Y-90752648I-577098J816890D01*
G01*
M02*
