M48
; DRILL file {KiCad 7.0.1} date Sun Mar 19 03:20:39 2023
; FORMAT={-:-/ absolute / inch / decimal}
; #@! TF.CreationDate,2023-03-19T03:20:39-04:00
; #@! TF.GenerationSoftware,Kicad,Pcbnew,7.0.1
; #@! TF.FileFunction,Plated,1,2,PTH
FMAT,2
INCH
; #@! TA.AperFunction,Plated,PTH,ViaDrill
T1C0.0157
; #@! TA.AperFunction,Plated,PTH,ComponentDrill
T2C0.0394
; #@! TA.AperFunction,Plated,PTH,ComponentDrill
T3C0.0866
%
G90
G05
T1
X3.9961Y-2.6969
X3.9961Y-3.0906
X3.9961Y-3.4843
X3.9961Y-4.0354
X3.9961Y-4.4291
X3.9961Y-4.8228
X4.0374Y-3.5039
X4.0551Y-4.8819
X4.0945Y-2.5984
X4.2175Y-4.3809
X4.3898Y-4.8858
X4.4882Y-2.5984
X4.5787Y-3.9213
X4.6299Y-2.7441
X4.6457Y-3.1437
X4.6575Y-4.7244
X4.6929Y-4.1732
X4.7244Y-4.8819
X4.7874Y-3.4547
X4.8209Y-2.9921
X4.9528Y-4.3819
X5.0591Y-4.8819
X5.0984Y-4.1988
X5.2831Y-2.8921
X5.2835Y-3.0394
X5.3189Y-2.8386
X5.3228Y-2.7441
X5.3287Y-3.9232
X5.3543Y-4.8819
X5.3858Y-4.7244
X5.4252Y-3.4567
X5.4528Y-2.7441
X5.4528Y-3.9961
X5.4528Y-4.3898
X5.4528Y-4.7835
X5.4567Y-2.8386
T2
X4.252Y-2.6949
X4.3504Y-2.6949
X4.4488Y-2.6949
T3
X4.1299Y-2.9902
X4.5709Y-2.9902
T0
M30
