M48
; DRILL file {KiCad 7.0.1} date Tue Sep  5 02:32:19 2023
; FORMAT={-:-/ absolute / inch / decimal}
; #@! TF.CreationDate,2023-09-05T02:32:19-04:00
; #@! TF.GenerationSoftware,Kicad,Pcbnew,7.0.1
; #@! TF.FileFunction,Plated,1,4,PTH
FMAT,2
INCH
; #@! TA.AperFunction,Plated,PTH,ViaDrill
T1C0.0118
; #@! TA.AperFunction,Plated,PTH,ViaDrill
T2C0.0157
; #@! TA.AperFunction,Plated,PTH,ViaDrill
T3C0.0197
; #@! TA.AperFunction,Plated,PTH,ViaDrill
T4C0.0236
; #@! TA.AperFunction,Plated,PTH,ComponentDrill
T5C0.0236
; #@! TA.AperFunction,Plated,PTH,ComponentDrill
T6C0.0394
; #@! TA.AperFunction,Plated,PTH,ComponentDrill
T7C0.0866
%
G90
G05
T1
X5.9094Y-4.0669
X5.9331Y-4.1024
X6.2835Y-3.9016
X6.3031Y-3.9331
X6.3543Y-3.4488
X6.3819Y-3.5984
X6.3937Y-3.4882
X6.3952Y-3.5566
X6.4055Y-3.6535
X6.4213Y-3.3622
X6.4843Y-3.6693
X6.51Y-3.6792
X6.5512Y-3.4921
X6.563Y-3.8583
X6.5709Y-3.6063
X6.5827Y-3.3819
X6.6142Y-3.4016
X7.0276Y-3.3819
T2
X5.0394Y-3.5433
X5.0394Y-3.8583
X5.0394Y-4.372
X5.0394Y-4.685
X5.0394Y-5.0
X5.0394Y-5.315
X5.1545Y-4.1654
X5.2047Y-4.315
X5.2047Y-4.4961
X5.2126Y-3.4843
X5.2303Y-4.2579
X5.252Y-3.7992
X5.3189Y-4.0197
X5.3189Y-4.0748
X5.3189Y-4.1299
X5.3346Y-5.6496
X5.3898Y-4.0197
X5.3898Y-4.0748
X5.3898Y-4.1299
X5.4134Y-5.2756
X5.4803Y-4.9402
X5.6142Y-3.7992
X5.6535Y-3.4843
X5.6614Y-4.0827
X5.6673Y-3.7992
X5.8465Y-5.2756
X5.8465Y-5.6496
X5.878Y-3.7736
X5.878Y-3.9409
X5.9331Y-3.6299
X5.9331Y-3.748
X6.1496Y-3.4843
X6.1614Y-5.2756
X6.2106Y-3.815
X6.2283Y-4.9409
X6.2972Y-5.6496
X6.2992Y-3.3622
X6.313Y-3.8681
X6.3499Y-3.7205
X6.3937Y-3.2992
X6.4439Y-3.5413
X6.4449Y-3.2992
X6.4646Y-3.5039
X6.4843Y-3.9646
X6.4852Y-3.5413
X6.4961Y-3.2992
X6.5079Y-3.5039
X6.5266Y-3.5413
X6.5315Y-4.0157
X6.5472Y-3.2992
X6.563Y-3.8189
X6.5787Y-4.5276
X6.5866Y-5.2756
X6.5984Y-3.2992
X6.5984Y-3.8661
X6.6378Y-3.7953
X6.7283Y-3.752
X6.7323Y-5.6496
X6.748Y-3.5906
X6.8808Y-3.4635
X6.9055Y-3.5787
X6.9094Y-5.2758
X6.9764Y-4.9409
X7.0827Y-3.5157
X7.0827Y-3.6929
X7.2126Y-3.689
X7.2638Y-5.6496
X7.2795Y-4.0236
X7.3189Y-4.5276
X7.3349Y-5.2758
X7.5512Y-5.315
X7.5591Y-3.5433
X7.5591Y-3.8583
X7.5591Y-4.3701
X7.5591Y-4.685
X7.5591Y-5.0
T3
X5.1535Y-3.9843
X5.2323Y-3.9016
X5.3425Y-3.8071
X5.5236Y-3.8071
T4
X5.1949Y-3.7953
X6.4291Y-3.8937
X6.8268Y-3.8465
X7.1831Y-3.8465
T6
X5.4528Y-4.626
X5.5512Y-4.626
X5.6496Y-4.626
T7
X5.3307Y-4.3307
X5.7717Y-4.3307
T5
G00X5.263Y-3.5354
M15
G01X5.263Y-3.5591
M16
G05
G00X5.263Y-3.6902
M15
G01X5.263Y-3.7335
M16
G05
G00X5.6031Y-3.5354
M15
G01X5.6031Y-3.5591
M16
G05
G00X5.6031Y-3.6902
M15
G01X5.6031Y-3.7335
M16
G05
T0
M30
