%TF.GenerationSoftware,KiCad,Pcbnew,7.0.1*%
%TF.CreationDate,2023-09-05T02:32:18-04:00*%
%TF.ProjectId,Fluxpad,466c7578-7061-4642-9e6b-696361645f70,rev?*%
%TF.SameCoordinates,Original*%
%TF.FileFunction,Copper,L3,Inr*%
%TF.FilePolarity,Positive*%
%FSLAX46Y46*%
G04 Gerber Fmt 4.6, Leading zero omitted, Abs format (unit mm)*
G04 Created by KiCad (PCBNEW 7.0.1) date 2023-09-05 02:32:18*
%MOMM*%
%LPD*%
G01*
G04 APERTURE LIST*
%TA.AperFunction,ComponentPad*%
%ADD10R,2.000000X2.000000*%
%TD*%
%TA.AperFunction,ComponentPad*%
%ADD11C,2.000000*%
%TD*%
%TA.AperFunction,ComponentPad*%
%ADD12C,2.800000*%
%TD*%
%TA.AperFunction,ComponentPad*%
%ADD13O,1.000000X1.600000*%
%TD*%
%TA.AperFunction,ComponentPad*%
%ADD14O,1.000000X2.100000*%
%TD*%
%TA.AperFunction,ViaPad*%
%ADD15C,0.500000*%
%TD*%
%TA.AperFunction,ViaPad*%
%ADD16C,0.800000*%
%TD*%
%TA.AperFunction,ViaPad*%
%ADD17C,1.000000*%
%TD*%
G04 APERTURE END LIST*
D10*
%TO.N,/ENCA*%
%TO.C,SW3*%
X138500000Y-117500000D03*
D11*
%TO.N,/ENCB*%
X143500000Y-117500000D03*
%TO.N,GND*%
X141000000Y-117500000D03*
D12*
%TO.N,N/C*%
X135400000Y-110000000D03*
X146600000Y-110000000D03*
%TD*%
D13*
%TO.N,GND*%
%TO.C,J1*%
X133680000Y-90100000D03*
D14*
X133680000Y-94280000D03*
D13*
X142320000Y-90100000D03*
D14*
X142320000Y-94280000D03*
%TD*%
D15*
%TO.N,+1V1*%
X162700000Y-92800000D03*
X162437749Y-90337749D03*
X161400000Y-87600000D03*
X166900000Y-91600000D03*
%TO.N,+3V3*%
X178500000Y-85900000D03*
D16*
X132200000Y-109600000D03*
X166700000Y-97000000D03*
X158200000Y-125500000D03*
X135100000Y-103500000D03*
D15*
X166400000Y-88700000D03*
D16*
X171400000Y-91200000D03*
X150700000Y-95200000D03*
X135100000Y-104900000D03*
X136900000Y-102100000D03*
D15*
X162400000Y-88600000D03*
D16*
X136900000Y-103500000D03*
X177200000Y-125500000D03*
X170900000Y-95300000D03*
D15*
X162100998Y-91400000D03*
D16*
X139200000Y-125480000D03*
X161287500Y-94500000D03*
X135100000Y-102100000D03*
X149300000Y-95850000D03*
X136900000Y-104900000D03*
D17*
%TO.N,+5V*%
X173400000Y-97700000D03*
X163300000Y-98900000D03*
D16*
X130900000Y-101200000D03*
X135700000Y-96700000D03*
X132900000Y-99100000D03*
D17*
X131950000Y-96400000D03*
D16*
X140300000Y-96700000D03*
D17*
X182450000Y-97700000D03*
D16*
%TO.N,GND*%
X143600000Y-88500000D03*
X130925000Y-105800000D03*
X164200000Y-89000000D03*
X160350000Y-98250000D03*
X164725000Y-89950000D03*
X128000000Y-90000000D03*
X132850000Y-108150000D03*
X171000000Y-143500000D03*
X175400000Y-90900000D03*
X174771142Y-87973223D03*
X184900000Y-102200000D03*
X192000000Y-90000000D03*
X157750500Y-96900000D03*
X128000000Y-119000000D03*
X128000000Y-111050000D03*
X167600000Y-98200000D03*
D15*
X167200000Y-85900000D03*
D16*
X132200000Y-114200000D03*
X148500000Y-143500000D03*
X133400000Y-96500000D03*
X156200000Y-88500500D03*
X165900000Y-102000000D03*
X163675000Y-89950000D03*
X128000000Y-127000000D03*
D15*
X166700000Y-98000000D03*
D16*
X159950000Y-143500000D03*
X192000000Y-98000000D03*
X142600000Y-96500000D03*
X179900000Y-93800000D03*
X160000000Y-85400000D03*
X192000000Y-111000000D03*
X149300000Y-100100000D03*
X143800000Y-103700000D03*
X128000000Y-98000000D03*
X165775000Y-89950000D03*
X165300000Y-89000000D03*
X143950000Y-96500000D03*
X192000000Y-127000000D03*
X192000000Y-119000000D03*
X132400000Y-88500000D03*
X175500000Y-134005633D03*
X156500000Y-134000000D03*
X128000000Y-135000000D03*
X137500000Y-134000000D03*
X184500000Y-143500000D03*
X191800000Y-135000000D03*
X179900000Y-89300000D03*
X183200000Y-93700000D03*
X150700000Y-92200000D03*
X135500000Y-143500000D03*
D15*
X163100000Y-85400000D03*
%TO.N,/RGB_DOUT*%
X168000000Y-86400000D03*
D16*
%TO.N,/LED1*%
X165000000Y-83800000D03*
X167100000Y-115000000D03*
%TO.N,/LED2*%
X166300000Y-83800000D03*
X185900000Y-115000000D03*
%TO.N,/LED3*%
X148500000Y-134000000D03*
X162400000Y-83800000D03*
%TO.N,/LED4*%
X163700000Y-83800000D03*
X167300000Y-134000000D03*
%TO.N,/LED5*%
X167600000Y-83800000D03*
X186305633Y-134005633D03*
D15*
%TO.N,/ENCA*%
X164700000Y-93200000D03*
X150100000Y-103300000D03*
X159600000Y-99100000D03*
%TO.N,/ENCB*%
X160100000Y-99900000D03*
X150700000Y-104200000D03*
X165352878Y-93451107D03*
D16*
%TO.N,/SW1*%
X168600000Y-96400000D03*
X164700000Y-100700000D03*
%TD*%
%TA.AperFunction,Conductor*%
%TO.N,GND*%
G36*
X181644572Y-79001057D02*
G01*
X181644645Y-79001058D01*
X182284918Y-79004864D01*
X182286049Y-79004876D01*
X182920541Y-79014892D01*
X182922268Y-79014932D01*
X183549536Y-79033831D01*
X183551780Y-79033919D01*
X184170716Y-79064105D01*
X184173349Y-79064263D01*
X184782467Y-79107860D01*
X184785722Y-79108137D01*
X185383509Y-79166999D01*
X185387264Y-79167427D01*
X185972549Y-79243194D01*
X185976676Y-79243801D01*
X186548128Y-79337856D01*
X186552762Y-79338710D01*
X187108982Y-79452187D01*
X187114004Y-79453321D01*
X187653894Y-79587179D01*
X187659291Y-79588649D01*
X187953079Y-79675802D01*
X188181634Y-79743605D01*
X188187389Y-79745466D01*
X188554190Y-79874050D01*
X188691227Y-79922089D01*
X188697236Y-79924373D01*
X188967586Y-80035258D01*
X189181641Y-80123054D01*
X189187889Y-80125820D01*
X189197272Y-80130287D01*
X189652071Y-80346815D01*
X189658428Y-80350071D01*
X190101812Y-80593566D01*
X190108214Y-80597337D01*
X190530221Y-80863371D01*
X190536613Y-80867684D01*
X190936848Y-81156264D01*
X190943095Y-81161078D01*
X191321285Y-81472185D01*
X191327300Y-81477468D01*
X191683261Y-81811050D01*
X191688949Y-81816738D01*
X192022523Y-82172688D01*
X192027800Y-82178696D01*
X192338930Y-82556918D01*
X192343739Y-82563158D01*
X192632317Y-82963390D01*
X192636632Y-82969785D01*
X192730922Y-83119355D01*
X192900425Y-83388235D01*
X192902644Y-83391754D01*
X192906432Y-83398184D01*
X193116409Y-83780535D01*
X193149913Y-83841543D01*
X193153183Y-83847929D01*
X193374178Y-84312110D01*
X193376944Y-84318358D01*
X193575623Y-84802755D01*
X193577916Y-84808789D01*
X193695689Y-85144750D01*
X193753451Y-85309523D01*
X193754533Y-85312608D01*
X193756392Y-85318359D01*
X193784632Y-85413551D01*
X193911344Y-85840687D01*
X193912821Y-85846112D01*
X194046673Y-86385978D01*
X194047814Y-86391032D01*
X194161287Y-86947229D01*
X194162144Y-86951878D01*
X194256188Y-87523268D01*
X194256808Y-87527486D01*
X194332572Y-88112734D01*
X194333001Y-88116503D01*
X194391859Y-88714256D01*
X194392140Y-88717554D01*
X194425989Y-89190475D01*
X194432429Y-89280456D01*
X194435729Y-89326554D01*
X194435898Y-89329367D01*
X194466077Y-89948187D01*
X194466168Y-89950493D01*
X194485065Y-90577703D01*
X194485106Y-90579480D01*
X194495121Y-91213907D01*
X194495134Y-91215127D01*
X194498939Y-91855099D01*
X194498941Y-91855728D01*
X194499500Y-92500456D01*
X194499500Y-132499544D01*
X194498941Y-133144270D01*
X194498939Y-133144899D01*
X194495134Y-133784871D01*
X194495121Y-133786091D01*
X194485106Y-134420518D01*
X194485065Y-134422295D01*
X194466168Y-135049505D01*
X194466077Y-135051811D01*
X194435898Y-135670631D01*
X194435729Y-135673444D01*
X194392140Y-136282444D01*
X194391859Y-136285742D01*
X194333001Y-136883495D01*
X194332572Y-136887264D01*
X194256808Y-137472512D01*
X194256188Y-137476730D01*
X194162144Y-138048120D01*
X194161287Y-138052769D01*
X194047814Y-138608966D01*
X194046673Y-138614020D01*
X193912821Y-139153886D01*
X193911344Y-139159311D01*
X193756394Y-139681635D01*
X193754533Y-139687390D01*
X193577916Y-140191209D01*
X193575623Y-140197243D01*
X193376944Y-140681640D01*
X193374178Y-140687888D01*
X193153183Y-141152069D01*
X193149913Y-141158455D01*
X192906437Y-141601806D01*
X192902644Y-141608244D01*
X192636632Y-142030213D01*
X192632317Y-142036608D01*
X192343739Y-142436840D01*
X192338920Y-142443094D01*
X192027806Y-142821295D01*
X192022523Y-142827310D01*
X191688949Y-143183260D01*
X191683261Y-143188948D01*
X191327300Y-143522530D01*
X191321285Y-143527813D01*
X190943095Y-143838920D01*
X190936841Y-143843739D01*
X190536616Y-144132312D01*
X190530221Y-144136627D01*
X190108232Y-144402650D01*
X190101794Y-144406443D01*
X189658442Y-144649920D01*
X189652056Y-144653190D01*
X189187889Y-144874178D01*
X189181641Y-144876944D01*
X188697255Y-145075618D01*
X188691221Y-145077911D01*
X188187389Y-145254532D01*
X188181634Y-145256393D01*
X187659305Y-145411345D01*
X187653880Y-145412822D01*
X187114020Y-145546673D01*
X187108966Y-145547814D01*
X186552770Y-145661286D01*
X186548121Y-145662143D01*
X185976722Y-145756190D01*
X185972503Y-145756810D01*
X185387270Y-145832570D01*
X185383502Y-145832999D01*
X184785741Y-145891859D01*
X184782443Y-145892140D01*
X184223574Y-145932140D01*
X184173436Y-145935729D01*
X184170629Y-145935898D01*
X183551811Y-145966077D01*
X183549505Y-145966168D01*
X182922293Y-145985065D01*
X182920516Y-145985106D01*
X182286092Y-145995121D01*
X182284872Y-145995134D01*
X181644898Y-145998939D01*
X181644269Y-145998941D01*
X181001417Y-145999498D01*
X180999542Y-145999500D01*
X139000457Y-145999500D01*
X138998576Y-145999498D01*
X138355728Y-145998941D01*
X138355099Y-145998939D01*
X137715127Y-145995134D01*
X137713907Y-145995121D01*
X137079480Y-145985106D01*
X137077703Y-145985065D01*
X136450493Y-145966168D01*
X136448187Y-145966077D01*
X135863808Y-145937577D01*
X135829363Y-145935897D01*
X135826565Y-145935729D01*
X135716156Y-145927827D01*
X135217554Y-145892140D01*
X135214256Y-145891859D01*
X134616503Y-145833001D01*
X134612734Y-145832572D01*
X134027486Y-145756808D01*
X134023268Y-145756188D01*
X133451878Y-145662144D01*
X133447229Y-145661287D01*
X132891032Y-145547814D01*
X132885978Y-145546673D01*
X132346112Y-145412821D01*
X132340687Y-145411344D01*
X131893086Y-145278561D01*
X131818359Y-145256392D01*
X131812608Y-145254533D01*
X131812605Y-145254532D01*
X131713147Y-145219666D01*
X131308789Y-145077916D01*
X131302755Y-145075623D01*
X130818358Y-144876944D01*
X130812110Y-144874178D01*
X130347929Y-144653183D01*
X130341543Y-144649913D01*
X130313903Y-144634734D01*
X129898184Y-144406432D01*
X129891763Y-144402649D01*
X129644889Y-144247018D01*
X129469785Y-144136632D01*
X129463390Y-144132317D01*
X129063158Y-143843739D01*
X129056918Y-143838930D01*
X128678696Y-143527800D01*
X128672688Y-143522523D01*
X128648654Y-143500000D01*
X140694531Y-143500000D01*
X140714364Y-143726689D01*
X140773261Y-143946497D01*
X140869432Y-144152735D01*
X140999953Y-144339140D01*
X141160859Y-144500046D01*
X141347264Y-144630567D01*
X141347265Y-144630567D01*
X141347266Y-144630568D01*
X141553504Y-144726739D01*
X141773308Y-144785635D01*
X141858262Y-144793067D01*
X141943214Y-144800500D01*
X141943216Y-144800500D01*
X142056784Y-144800500D01*
X142056786Y-144800500D01*
X142124747Y-144794554D01*
X142226692Y-144785635D01*
X142446496Y-144726739D01*
X142652734Y-144630568D01*
X142839139Y-144500047D01*
X143000047Y-144339139D01*
X143130568Y-144152734D01*
X143226739Y-143946496D01*
X143285635Y-143726692D01*
X143305468Y-143500000D01*
X143305468Y-143499999D01*
X176694531Y-143499999D01*
X176714364Y-143726689D01*
X176773261Y-143946497D01*
X176869432Y-144152735D01*
X176999953Y-144339140D01*
X177160859Y-144500046D01*
X177347264Y-144630567D01*
X177347265Y-144630567D01*
X177347266Y-144630568D01*
X177553504Y-144726739D01*
X177773308Y-144785635D01*
X177858262Y-144793067D01*
X177943214Y-144800500D01*
X177943216Y-144800500D01*
X178056784Y-144800500D01*
X178056786Y-144800500D01*
X178124747Y-144794554D01*
X178226692Y-144785635D01*
X178446496Y-144726739D01*
X178652734Y-144630568D01*
X178839139Y-144500047D01*
X179000047Y-144339139D01*
X179130568Y-144152734D01*
X179226739Y-143946496D01*
X179285635Y-143726692D01*
X179305468Y-143500000D01*
X179285635Y-143273308D01*
X179226739Y-143053504D01*
X179130568Y-142847266D01*
X179114552Y-142824393D01*
X179000046Y-142660859D01*
X178839140Y-142499953D01*
X178652735Y-142369432D01*
X178446497Y-142273261D01*
X178226689Y-142214364D01*
X178056786Y-142199500D01*
X178056784Y-142199500D01*
X177943216Y-142199500D01*
X177943214Y-142199500D01*
X177773310Y-142214364D01*
X177553502Y-142273261D01*
X177347264Y-142369432D01*
X177160859Y-142499953D01*
X176999953Y-142660859D01*
X176869432Y-142847264D01*
X176773261Y-143053502D01*
X176714364Y-143273310D01*
X176694531Y-143499999D01*
X143305468Y-143499999D01*
X143285635Y-143273308D01*
X143226739Y-143053504D01*
X143130568Y-142847266D01*
X143114552Y-142824393D01*
X143000046Y-142660859D01*
X142839140Y-142499953D01*
X142652735Y-142369432D01*
X142446497Y-142273261D01*
X142226689Y-142214364D01*
X142056786Y-142199500D01*
X142056784Y-142199500D01*
X141943216Y-142199500D01*
X141943214Y-142199500D01*
X141773310Y-142214364D01*
X141553502Y-142273261D01*
X141347264Y-142369432D01*
X141160859Y-142499953D01*
X140999953Y-142660859D01*
X140869432Y-142847264D01*
X140773261Y-143053502D01*
X140714364Y-143273310D01*
X140694531Y-143500000D01*
X128648654Y-143500000D01*
X128316738Y-143188949D01*
X128311050Y-143183261D01*
X127977468Y-142827300D01*
X127972185Y-142821285D01*
X127661078Y-142443095D01*
X127661077Y-142443094D01*
X127661072Y-142443088D01*
X127656259Y-142436841D01*
X127656258Y-142436840D01*
X127367684Y-142036613D01*
X127363371Y-142030221D01*
X127119335Y-141643109D01*
X127097337Y-141608214D01*
X127093562Y-141601806D01*
X126850071Y-141158428D01*
X126846815Y-141152069D01*
X126625820Y-140687889D01*
X126623054Y-140681641D01*
X126555222Y-140516261D01*
X126424373Y-140197236D01*
X126422087Y-140191221D01*
X126245466Y-139687389D01*
X126243605Y-139681634D01*
X126088653Y-139159305D01*
X126087176Y-139153880D01*
X126016004Y-138866824D01*
X125953321Y-138614004D01*
X125952184Y-138608966D01*
X125937918Y-138539042D01*
X125868749Y-138200000D01*
X132618586Y-138200000D01*
X132638178Y-138373878D01*
X132638178Y-138373880D01*
X132638179Y-138373881D01*
X132695971Y-138539042D01*
X132789067Y-138687203D01*
X132912797Y-138810933D01*
X133060958Y-138904029D01*
X133226119Y-138961821D01*
X133278230Y-138967692D01*
X133356394Y-138976500D01*
X133356397Y-138976500D01*
X133443603Y-138976500D01*
X133443606Y-138976500D01*
X133508742Y-138969160D01*
X133573881Y-138961821D01*
X133739042Y-138904029D01*
X133887203Y-138810933D01*
X134010933Y-138687203D01*
X134104029Y-138539042D01*
X134161821Y-138373881D01*
X134181413Y-138200000D01*
X134161821Y-138026119D01*
X134104029Y-137860958D01*
X134010933Y-137712797D01*
X133887203Y-137589067D01*
X133739042Y-137495971D01*
X133573881Y-137438179D01*
X133573880Y-137438178D01*
X133573878Y-137438178D01*
X133443606Y-137423500D01*
X133443603Y-137423500D01*
X133356397Y-137423500D01*
X133356394Y-137423500D01*
X133226121Y-137438178D01*
X133060957Y-137495971D01*
X132912795Y-137589068D01*
X132789068Y-137712795D01*
X132695971Y-137860957D01*
X132638178Y-138026121D01*
X132618586Y-138200000D01*
X125868749Y-138200000D01*
X125838710Y-138052762D01*
X125837855Y-138048121D01*
X125823505Y-137960933D01*
X125743801Y-137476676D01*
X125743194Y-137472549D01*
X125727330Y-137349999D01*
X186368586Y-137349999D01*
X186388178Y-137523878D01*
X186388178Y-137523880D01*
X186388179Y-137523881D01*
X186445971Y-137689042D01*
X186539067Y-137837203D01*
X186662797Y-137960933D01*
X186810958Y-138054029D01*
X186976119Y-138111821D01*
X187028230Y-138117692D01*
X187106394Y-138126500D01*
X187106397Y-138126500D01*
X187193603Y-138126500D01*
X187193606Y-138126500D01*
X187258742Y-138119160D01*
X187323881Y-138111821D01*
X187489042Y-138054029D01*
X187637203Y-137960933D01*
X187760933Y-137837203D01*
X187854029Y-137689042D01*
X187911821Y-137523881D01*
X187931413Y-137350000D01*
X187911821Y-137176119D01*
X187854029Y-137010958D01*
X187760933Y-136862797D01*
X187637203Y-136739067D01*
X187489042Y-136645971D01*
X187323881Y-136588179D01*
X187323880Y-136588178D01*
X187323878Y-136588178D01*
X187193606Y-136573500D01*
X187193603Y-136573500D01*
X187106397Y-136573500D01*
X187106394Y-136573500D01*
X186976121Y-136588178D01*
X186810957Y-136645971D01*
X186662795Y-136739068D01*
X186539068Y-136862795D01*
X186445971Y-137010957D01*
X186388178Y-137176121D01*
X186368586Y-137349999D01*
X125727330Y-137349999D01*
X125667427Y-136887264D01*
X125666999Y-136883502D01*
X125613470Y-136339877D01*
X125608137Y-136285722D01*
X125607858Y-136282443D01*
X125564263Y-135673349D01*
X125564105Y-135670716D01*
X125533919Y-135051780D01*
X125533830Y-135049505D01*
X125529510Y-134906133D01*
X125514932Y-134422268D01*
X125514892Y-134420516D01*
X125514704Y-134408578D01*
X125504876Y-133786049D01*
X125504864Y-133784872D01*
X125504864Y-133784871D01*
X125501058Y-133144612D01*
X125500500Y-132499542D01*
X125500500Y-131000000D01*
X137500000Y-131000000D01*
X139000000Y-132500000D01*
X139832621Y-132500000D01*
X139895022Y-132516845D01*
X139940469Y-132562805D01*
X139956613Y-132625391D01*
X139939069Y-132687599D01*
X139868783Y-132805237D01*
X139789693Y-133015974D01*
X139749500Y-133237453D01*
X139749500Y-134706153D01*
X139764623Y-134874190D01*
X139824507Y-135091171D01*
X139922170Y-135293972D01*
X139990483Y-135387996D01*
X140054478Y-135476078D01*
X140217175Y-135631632D01*
X140405032Y-135755635D01*
X140612012Y-135844103D01*
X140831463Y-135894191D01*
X141036998Y-135903421D01*
X141056328Y-135904290D01*
X141056328Y-135904289D01*
X141056330Y-135904290D01*
X141279387Y-135874075D01*
X141493464Y-135804517D01*
X141691681Y-135697852D01*
X141867666Y-135557508D01*
X142015765Y-135387996D01*
X142131215Y-135194764D01*
X142210307Y-134984024D01*
X142250500Y-134762547D01*
X142250500Y-134000000D01*
X147594540Y-134000000D01*
X147614326Y-134188257D01*
X147672820Y-134368284D01*
X147767466Y-134532216D01*
X147894129Y-134672889D01*
X148047269Y-134784151D01*
X148220197Y-134861144D01*
X148405352Y-134900500D01*
X148405354Y-134900500D01*
X148594646Y-134900500D01*
X148594648Y-134900500D01*
X148718435Y-134874188D01*
X148779803Y-134861144D01*
X148952730Y-134784151D01*
X148974712Y-134768180D01*
X149105870Y-134672889D01*
X149232533Y-134532216D01*
X149327179Y-134368284D01*
X149383843Y-134193890D01*
X149385674Y-134188256D01*
X149405460Y-134000000D01*
X149385674Y-133811744D01*
X149355332Y-133718363D01*
X149327179Y-133631715D01*
X149232533Y-133467783D01*
X149105870Y-133327110D01*
X148952730Y-133215848D01*
X148779802Y-133138855D01*
X148594648Y-133099500D01*
X148594646Y-133099500D01*
X148405354Y-133099500D01*
X148405352Y-133099500D01*
X148220197Y-133138855D01*
X148047269Y-133215848D01*
X147894129Y-133327110D01*
X147767466Y-133467783D01*
X147672820Y-133631715D01*
X147614326Y-133811742D01*
X147594540Y-134000000D01*
X142250500Y-134000000D01*
X142250500Y-133293845D01*
X142235377Y-133125812D01*
X142175493Y-132908830D01*
X142077829Y-132706027D01*
X142071187Y-132696885D01*
X142047887Y-132633729D01*
X142061020Y-132567705D01*
X142106715Y-132518273D01*
X142171505Y-132500000D01*
X143000000Y-132500000D01*
X144500000Y-131000000D01*
X156500000Y-131000000D01*
X158000000Y-132500000D01*
X158832621Y-132500000D01*
X158895022Y-132516845D01*
X158940469Y-132562805D01*
X158956613Y-132625391D01*
X158939069Y-132687599D01*
X158868783Y-132805237D01*
X158789693Y-133015974D01*
X158749500Y-133237453D01*
X158749500Y-134706153D01*
X158764623Y-134874190D01*
X158824507Y-135091171D01*
X158922170Y-135293972D01*
X158990483Y-135387996D01*
X159054478Y-135476078D01*
X159217175Y-135631632D01*
X159405032Y-135755635D01*
X159612012Y-135844103D01*
X159831463Y-135894191D01*
X160036998Y-135903421D01*
X160056328Y-135904290D01*
X160056328Y-135904289D01*
X160056330Y-135904290D01*
X160279387Y-135874075D01*
X160493464Y-135804517D01*
X160691681Y-135697852D01*
X160867666Y-135557508D01*
X161015765Y-135387996D01*
X161131215Y-135194764D01*
X161210307Y-134984024D01*
X161250500Y-134762547D01*
X161250500Y-134000000D01*
X166394540Y-134000000D01*
X166414326Y-134188257D01*
X166472820Y-134368284D01*
X166567466Y-134532216D01*
X166694129Y-134672889D01*
X166847269Y-134784151D01*
X167020197Y-134861144D01*
X167205352Y-134900500D01*
X167205354Y-134900500D01*
X167394646Y-134900500D01*
X167394648Y-134900500D01*
X167518435Y-134874188D01*
X167579803Y-134861144D01*
X167752730Y-134784151D01*
X167774712Y-134768180D01*
X167905870Y-134672889D01*
X168032533Y-134532216D01*
X168127179Y-134368284D01*
X168183843Y-134193890D01*
X168185674Y-134188256D01*
X168205460Y-134000000D01*
X168185674Y-133811744D01*
X168155332Y-133718363D01*
X168127179Y-133631715D01*
X168032533Y-133467783D01*
X167905870Y-133327110D01*
X167752730Y-133215848D01*
X167579802Y-133138855D01*
X167394648Y-133099500D01*
X167394646Y-133099500D01*
X167205354Y-133099500D01*
X167205352Y-133099500D01*
X167020197Y-133138855D01*
X166847269Y-133215848D01*
X166694129Y-133327110D01*
X166567466Y-133467783D01*
X166472820Y-133631715D01*
X166414326Y-133811742D01*
X166394540Y-134000000D01*
X161250500Y-134000000D01*
X161250500Y-133293845D01*
X161235377Y-133125812D01*
X161175493Y-132908830D01*
X161077829Y-132706027D01*
X161071187Y-132696885D01*
X161047887Y-132633729D01*
X161061020Y-132567705D01*
X161106715Y-132518273D01*
X161171505Y-132500000D01*
X162000000Y-132500000D01*
X163494367Y-131005633D01*
X175500000Y-131005633D01*
X177000000Y-132505633D01*
X177832621Y-132505633D01*
X177895022Y-132522478D01*
X177940469Y-132568438D01*
X177956613Y-132631024D01*
X177939069Y-132693232D01*
X177868783Y-132810870D01*
X177789693Y-133021607D01*
X177749500Y-133243086D01*
X177749500Y-134711786D01*
X177764623Y-134879823D01*
X177824507Y-135096804D01*
X177922170Y-135299605D01*
X177990483Y-135393629D01*
X178054478Y-135481711D01*
X178217175Y-135637265D01*
X178405032Y-135761268D01*
X178612012Y-135849736D01*
X178831463Y-135899824D01*
X179036998Y-135909054D01*
X179056328Y-135909923D01*
X179056328Y-135909922D01*
X179056330Y-135909923D01*
X179279387Y-135879708D01*
X179493464Y-135810150D01*
X179691681Y-135703485D01*
X179867666Y-135563141D01*
X180015765Y-135393629D01*
X180131215Y-135200397D01*
X180210307Y-134989657D01*
X180250500Y-134768180D01*
X180250500Y-134005633D01*
X185400173Y-134005633D01*
X185419959Y-134193890D01*
X185478453Y-134373917D01*
X185573099Y-134537849D01*
X185699762Y-134678522D01*
X185852902Y-134789784D01*
X186025830Y-134866777D01*
X186210985Y-134906133D01*
X186210987Y-134906133D01*
X186400279Y-134906133D01*
X186400281Y-134906133D01*
X186550560Y-134874190D01*
X186585436Y-134866777D01*
X186758363Y-134789784D01*
X186766116Y-134784151D01*
X186911503Y-134678522D01*
X187038166Y-134537849D01*
X187132812Y-134373917D01*
X187134642Y-134368284D01*
X187191307Y-134193889D01*
X187211093Y-134005633D01*
X187191307Y-133817377D01*
X187132812Y-133637349D01*
X187132812Y-133637348D01*
X187038166Y-133473416D01*
X186911503Y-133332743D01*
X186758363Y-133221481D01*
X186585435Y-133144488D01*
X186400281Y-133105133D01*
X186400279Y-133105133D01*
X186210987Y-133105133D01*
X186210985Y-133105133D01*
X186025830Y-133144488D01*
X185852902Y-133221481D01*
X185699762Y-133332743D01*
X185573099Y-133473416D01*
X185478453Y-133637348D01*
X185419959Y-133817375D01*
X185400173Y-134005633D01*
X180250500Y-134005633D01*
X180250500Y-133299478D01*
X180235377Y-133131445D01*
X180175493Y-132914463D01*
X180077829Y-132711660D01*
X180071187Y-132702518D01*
X180047887Y-132639362D01*
X180061020Y-132573338D01*
X180106715Y-132523906D01*
X180171505Y-132505633D01*
X181000000Y-132505633D01*
X182500000Y-131005633D01*
X182500000Y-128954226D01*
X183000832Y-128954226D01*
X183010605Y-129159389D01*
X183059029Y-129358995D01*
X183100047Y-129448812D01*
X183144354Y-129545832D01*
X183201933Y-129626689D01*
X183263494Y-129713139D01*
X183412146Y-129854878D01*
X183584936Y-129965924D01*
X183775618Y-130042262D01*
X183977302Y-130081133D01*
X184131227Y-130081133D01*
X184131232Y-130081133D01*
X184284466Y-130066501D01*
X184481541Y-130008634D01*
X184664104Y-129914517D01*
X184825556Y-129787549D01*
X184960061Y-129632322D01*
X185062759Y-129454444D01*
X185129937Y-129260345D01*
X185159168Y-129057040D01*
X185149395Y-128851877D01*
X185100971Y-128652271D01*
X185015647Y-128465437D01*
X185015646Y-128465436D01*
X185015645Y-128465433D01*
X184896507Y-128298129D01*
X184896506Y-128298127D01*
X184747854Y-128156388D01*
X184655056Y-128096750D01*
X184575065Y-128045342D01*
X184448121Y-127994521D01*
X184384382Y-127969004D01*
X184384381Y-127969003D01*
X184384379Y-127969003D01*
X184182698Y-127930133D01*
X184028768Y-127930133D01*
X183934526Y-127939132D01*
X183875531Y-127944765D01*
X183678460Y-128002631D01*
X183495893Y-128096750D01*
X183334445Y-128223715D01*
X183199937Y-128378945D01*
X183097241Y-128556820D01*
X183030062Y-128750920D01*
X183001642Y-128948591D01*
X183000832Y-128954226D01*
X182500000Y-128954226D01*
X182500000Y-127505633D01*
X181000000Y-126005633D01*
X178153223Y-126005633D01*
X178096928Y-125992118D01*
X178052905Y-125954518D01*
X178030750Y-125901031D01*
X178035292Y-125843315D01*
X178037476Y-125836591D01*
X178085674Y-125688256D01*
X178105460Y-125500000D01*
X178085674Y-125311744D01*
X178027179Y-125131716D01*
X178027179Y-125131715D01*
X177932533Y-124967783D01*
X177805870Y-124827110D01*
X177652730Y-124715848D01*
X177479802Y-124638855D01*
X177294648Y-124599500D01*
X177294646Y-124599500D01*
X177105354Y-124599500D01*
X177105352Y-124599500D01*
X176920197Y-124638855D01*
X176747269Y-124715848D01*
X176594129Y-124827110D01*
X176467466Y-124967783D01*
X176372820Y-125131715D01*
X176314326Y-125311742D01*
X176294540Y-125500000D01*
X176314326Y-125688257D01*
X176372820Y-125868284D01*
X176467466Y-126032216D01*
X176576121Y-126152888D01*
X176594129Y-126172888D01*
X176611613Y-126185591D01*
X176614874Y-126187960D01*
X176650179Y-126227689D01*
X176665608Y-126278549D01*
X176658326Y-126331197D01*
X176629671Y-126375960D01*
X175500000Y-127505632D01*
X175500000Y-127505633D01*
X175500000Y-131005633D01*
X163494367Y-131005633D01*
X163500000Y-131000000D01*
X163500000Y-128948593D01*
X164000832Y-128948593D01*
X164010605Y-129153756D01*
X164059029Y-129353362D01*
X164102619Y-129448811D01*
X164144354Y-129540199D01*
X164250732Y-129689584D01*
X164263494Y-129707506D01*
X164412146Y-129849245D01*
X164584936Y-129960291D01*
X164775618Y-130036629D01*
X164977302Y-130075500D01*
X165131227Y-130075500D01*
X165131232Y-130075500D01*
X165284466Y-130060868D01*
X165481541Y-130003001D01*
X165664104Y-129908884D01*
X165825556Y-129781916D01*
X165960061Y-129626689D01*
X166062759Y-129448811D01*
X166129937Y-129254712D01*
X166159168Y-129051407D01*
X166154539Y-128954226D01*
X172840832Y-128954226D01*
X172850605Y-129159389D01*
X172899029Y-129358995D01*
X172940047Y-129448812D01*
X172984354Y-129545832D01*
X173041933Y-129626689D01*
X173103494Y-129713139D01*
X173252146Y-129854878D01*
X173424936Y-129965924D01*
X173615618Y-130042262D01*
X173817302Y-130081133D01*
X173971227Y-130081133D01*
X173971232Y-130081133D01*
X174124466Y-130066501D01*
X174321541Y-130008634D01*
X174504104Y-129914517D01*
X174665556Y-129787549D01*
X174800061Y-129632322D01*
X174902759Y-129454444D01*
X174969937Y-129260345D01*
X174999168Y-129057040D01*
X174989395Y-128851877D01*
X174940971Y-128652271D01*
X174855647Y-128465437D01*
X174855646Y-128465436D01*
X174855645Y-128465433D01*
X174736507Y-128298129D01*
X174736506Y-128298127D01*
X174587854Y-128156388D01*
X174495056Y-128096750D01*
X174415065Y-128045342D01*
X174288121Y-127994521D01*
X174224382Y-127969004D01*
X174224381Y-127969003D01*
X174224379Y-127969003D01*
X174022698Y-127930133D01*
X173868768Y-127930133D01*
X173774526Y-127939132D01*
X173715531Y-127944765D01*
X173518460Y-128002631D01*
X173335893Y-128096750D01*
X173174445Y-128223715D01*
X173039937Y-128378945D01*
X172937241Y-128556820D01*
X172870062Y-128750920D01*
X172841642Y-128948591D01*
X172840832Y-128954226D01*
X166154539Y-128954226D01*
X166149395Y-128846244D01*
X166100971Y-128646638D01*
X166015647Y-128459804D01*
X166015646Y-128459803D01*
X166015645Y-128459800D01*
X165936219Y-128348264D01*
X165896506Y-128292494D01*
X165747854Y-128150755D01*
X165663821Y-128096750D01*
X165575065Y-128039709D01*
X165398450Y-127969003D01*
X165384382Y-127963371D01*
X165384381Y-127963370D01*
X165384379Y-127963370D01*
X165182698Y-127924500D01*
X165028768Y-127924500D01*
X164932996Y-127933644D01*
X164875531Y-127939132D01*
X164678460Y-127996998D01*
X164495893Y-128091117D01*
X164334445Y-128218082D01*
X164199937Y-128373312D01*
X164097241Y-128551187D01*
X164030062Y-128745287D01*
X164000832Y-128948591D01*
X164000832Y-128948593D01*
X163500000Y-128948593D01*
X163500000Y-127500000D01*
X162000000Y-126000000D01*
X159155053Y-126000000D01*
X159098758Y-125986485D01*
X159054735Y-125948885D01*
X159032580Y-125895398D01*
X159037122Y-125837682D01*
X159085674Y-125688256D01*
X159105460Y-125500000D01*
X159085674Y-125311744D01*
X159027179Y-125131716D01*
X159027179Y-125131715D01*
X158932533Y-124967783D01*
X158805870Y-124827110D01*
X158652730Y-124715848D01*
X158479802Y-124638855D01*
X158294648Y-124599500D01*
X158294646Y-124599500D01*
X158105354Y-124599500D01*
X158105352Y-124599500D01*
X157920197Y-124638855D01*
X157747269Y-124715848D01*
X157594129Y-124827110D01*
X157467466Y-124967783D01*
X157372820Y-125131715D01*
X157314326Y-125311742D01*
X157294540Y-125500000D01*
X157314326Y-125688257D01*
X157372820Y-125868284D01*
X157467466Y-126032216D01*
X157594128Y-126172887D01*
X157611613Y-126185591D01*
X157646917Y-126225320D01*
X157662345Y-126276180D01*
X157655063Y-126328828D01*
X157626408Y-126373590D01*
X156500000Y-127499999D01*
X156500000Y-127500000D01*
X156500000Y-131000000D01*
X144500000Y-131000000D01*
X144500000Y-128948593D01*
X145000832Y-128948593D01*
X145010605Y-129153756D01*
X145059029Y-129353362D01*
X145102619Y-129448811D01*
X145144354Y-129540199D01*
X145250732Y-129689584D01*
X145263494Y-129707506D01*
X145412146Y-129849245D01*
X145584936Y-129960291D01*
X145775618Y-130036629D01*
X145977302Y-130075500D01*
X146131227Y-130075500D01*
X146131232Y-130075500D01*
X146284466Y-130060868D01*
X146481541Y-130003001D01*
X146664104Y-129908884D01*
X146825556Y-129781916D01*
X146960061Y-129626689D01*
X147062759Y-129448811D01*
X147129937Y-129254712D01*
X147159168Y-129051407D01*
X147154270Y-128948593D01*
X153840832Y-128948593D01*
X153850605Y-129153756D01*
X153899029Y-129353362D01*
X153942619Y-129448811D01*
X153984354Y-129540199D01*
X154090732Y-129689584D01*
X154103494Y-129707506D01*
X154252146Y-129849245D01*
X154424936Y-129960291D01*
X154615618Y-130036629D01*
X154817302Y-130075500D01*
X154971227Y-130075500D01*
X154971232Y-130075500D01*
X155124466Y-130060868D01*
X155321541Y-130003001D01*
X155504104Y-129908884D01*
X155665556Y-129781916D01*
X155800061Y-129626689D01*
X155902759Y-129448811D01*
X155969937Y-129254712D01*
X155999168Y-129051407D01*
X155989395Y-128846244D01*
X155940971Y-128646638D01*
X155855647Y-128459804D01*
X155855646Y-128459803D01*
X155855645Y-128459800D01*
X155776219Y-128348264D01*
X155736506Y-128292494D01*
X155587854Y-128150755D01*
X155503821Y-128096750D01*
X155415065Y-128039709D01*
X155238450Y-127969003D01*
X155224382Y-127963371D01*
X155224381Y-127963370D01*
X155224379Y-127963370D01*
X155022698Y-127924500D01*
X154868768Y-127924500D01*
X154772996Y-127933644D01*
X154715531Y-127939132D01*
X154518460Y-127996998D01*
X154335893Y-128091117D01*
X154174445Y-128218082D01*
X154039937Y-128373312D01*
X153937241Y-128551187D01*
X153870062Y-128745287D01*
X153840832Y-128948591D01*
X153840832Y-128948593D01*
X147154270Y-128948593D01*
X147149395Y-128846244D01*
X147100971Y-128646638D01*
X147015647Y-128459804D01*
X147015646Y-128459803D01*
X147015645Y-128459800D01*
X146936219Y-128348264D01*
X146896506Y-128292494D01*
X146747854Y-128150755D01*
X146663821Y-128096750D01*
X146575065Y-128039709D01*
X146398450Y-127969003D01*
X146384382Y-127963371D01*
X146384381Y-127963370D01*
X146384379Y-127963370D01*
X146182698Y-127924500D01*
X146028768Y-127924500D01*
X145932996Y-127933644D01*
X145875531Y-127939132D01*
X145678460Y-127996998D01*
X145495893Y-128091117D01*
X145334445Y-128218082D01*
X145199937Y-128373312D01*
X145097241Y-128551187D01*
X145030062Y-128745287D01*
X145000832Y-128948591D01*
X145000832Y-128948593D01*
X144500000Y-128948593D01*
X144500000Y-127500000D01*
X143000000Y-126000000D01*
X140148555Y-126000000D01*
X140092260Y-125986485D01*
X140048237Y-125948885D01*
X140026082Y-125895398D01*
X140030624Y-125837682D01*
X140079175Y-125688257D01*
X140085674Y-125668256D01*
X140105460Y-125480000D01*
X140085674Y-125291744D01*
X140055332Y-125198363D01*
X140027179Y-125111715D01*
X139932533Y-124947783D01*
X139805870Y-124807110D01*
X139652730Y-124695848D01*
X139479802Y-124618855D01*
X139294648Y-124579500D01*
X139294646Y-124579500D01*
X139105354Y-124579500D01*
X139105352Y-124579500D01*
X138920197Y-124618855D01*
X138747269Y-124695848D01*
X138594129Y-124807110D01*
X138467466Y-124947783D01*
X138372820Y-125111715D01*
X138314326Y-125291742D01*
X138294540Y-125480000D01*
X138314326Y-125668257D01*
X138372820Y-125848284D01*
X138467466Y-126012216D01*
X138594129Y-126152889D01*
X138623196Y-126174007D01*
X138658500Y-126213736D01*
X138673929Y-126264596D01*
X138666647Y-126317243D01*
X138637992Y-126362006D01*
X137500000Y-127499999D01*
X137500000Y-127500000D01*
X137500000Y-131000000D01*
X125500500Y-131000000D01*
X125500500Y-128948593D01*
X134840832Y-128948593D01*
X134850605Y-129153756D01*
X134899029Y-129353362D01*
X134942619Y-129448811D01*
X134984354Y-129540199D01*
X135090732Y-129689584D01*
X135103494Y-129707506D01*
X135252146Y-129849245D01*
X135424936Y-129960291D01*
X135615618Y-130036629D01*
X135817302Y-130075500D01*
X135971227Y-130075500D01*
X135971232Y-130075500D01*
X136124466Y-130060868D01*
X136321541Y-130003001D01*
X136504104Y-129908884D01*
X136665556Y-129781916D01*
X136800061Y-129626689D01*
X136902759Y-129448811D01*
X136969937Y-129254712D01*
X136999168Y-129051407D01*
X136989395Y-128846244D01*
X136940971Y-128646638D01*
X136855647Y-128459804D01*
X136855646Y-128459803D01*
X136855645Y-128459800D01*
X136776219Y-128348264D01*
X136736506Y-128292494D01*
X136587854Y-128150755D01*
X136503821Y-128096750D01*
X136415065Y-128039709D01*
X136238450Y-127969003D01*
X136224382Y-127963371D01*
X136224381Y-127963370D01*
X136224379Y-127963370D01*
X136022698Y-127924500D01*
X135868768Y-127924500D01*
X135772996Y-127933644D01*
X135715531Y-127939132D01*
X135518460Y-127996998D01*
X135335893Y-128091117D01*
X135174445Y-128218082D01*
X135039937Y-128373312D01*
X134937241Y-128551187D01*
X134870062Y-128745287D01*
X134840832Y-128948591D01*
X134840832Y-128948593D01*
X125500500Y-128948593D01*
X125500500Y-118547869D01*
X136999500Y-118547869D01*
X137005909Y-118607484D01*
X137031056Y-118674907D01*
X137056204Y-118742331D01*
X137142454Y-118857546D01*
X137257669Y-118943796D01*
X137392517Y-118994091D01*
X137452127Y-119000500D01*
X139547872Y-119000499D01*
X139607483Y-118994091D01*
X139742331Y-118943796D01*
X139857546Y-118857546D01*
X139943796Y-118742331D01*
X139943796Y-118742328D01*
X139945460Y-118740107D01*
X139996629Y-118700125D01*
X140060989Y-118691488D01*
X140120889Y-118716563D01*
X140176766Y-118760054D01*
X140395393Y-118878368D01*
X140630506Y-118959083D01*
X140875707Y-119000000D01*
X141124293Y-119000000D01*
X141369493Y-118959083D01*
X141604606Y-118878368D01*
X141823233Y-118760053D01*
X141870056Y-118723609D01*
X140734128Y-117587681D01*
X140702034Y-117532094D01*
X140702034Y-117500001D01*
X141353553Y-117500001D01*
X142232110Y-118378558D01*
X142263496Y-118383962D01*
X142303261Y-118418712D01*
X142304877Y-118417225D01*
X142311834Y-118424783D01*
X142311836Y-118424785D01*
X142480256Y-118607738D01*
X142480259Y-118607740D01*
X142676485Y-118760470D01*
X142676487Y-118760471D01*
X142676491Y-118760474D01*
X142895190Y-118878828D01*
X143130386Y-118959571D01*
X143375665Y-119000500D01*
X143624335Y-119000500D01*
X143869614Y-118959571D01*
X144104810Y-118878828D01*
X144323509Y-118760474D01*
X144519744Y-118607738D01*
X144688164Y-118424785D01*
X144824173Y-118216607D01*
X144924063Y-117988881D01*
X144985108Y-117747821D01*
X145005643Y-117500000D01*
X144985108Y-117252179D01*
X144924063Y-117011119D01*
X144824173Y-116783393D01*
X144688164Y-116575215D01*
X144519744Y-116392262D01*
X144412141Y-116308511D01*
X144323514Y-116239529D01*
X144323510Y-116239526D01*
X144323509Y-116239526D01*
X144104810Y-116121172D01*
X144104806Y-116121170D01*
X144104805Y-116121170D01*
X143869615Y-116040429D01*
X143624335Y-115999500D01*
X143375665Y-115999500D01*
X143130384Y-116040429D01*
X142895194Y-116121170D01*
X142676485Y-116239529D01*
X142480259Y-116392259D01*
X142480256Y-116392261D01*
X142480256Y-116392262D01*
X142425144Y-116452130D01*
X142304877Y-116582774D01*
X142303262Y-116581287D01*
X142263493Y-116616038D01*
X142232109Y-116621441D01*
X141353553Y-117500000D01*
X141353553Y-117500001D01*
X140702034Y-117500001D01*
X140702034Y-117467906D01*
X140734128Y-117412319D01*
X141870057Y-116276389D01*
X141870056Y-116276388D01*
X141823235Y-116239947D01*
X141604606Y-116121631D01*
X141369493Y-116040916D01*
X141124293Y-116000000D01*
X140875707Y-116000000D01*
X140630506Y-116040916D01*
X140395393Y-116121631D01*
X140176767Y-116239945D01*
X140120888Y-116283437D01*
X140060988Y-116308511D01*
X139996629Y-116299874D01*
X139945460Y-116259893D01*
X139943796Y-116257671D01*
X139943796Y-116257669D01*
X139857546Y-116142454D01*
X139829114Y-116121170D01*
X139742331Y-116056204D01*
X139607483Y-116005909D01*
X139547873Y-115999500D01*
X139547869Y-115999500D01*
X137452130Y-115999500D01*
X137392515Y-116005909D01*
X137257669Y-116056204D01*
X137142454Y-116142454D01*
X137056204Y-116257668D01*
X137005909Y-116392516D01*
X136999500Y-116452130D01*
X136999500Y-118547869D01*
X125500500Y-118547869D01*
X125500500Y-115706153D01*
X158749500Y-115706153D01*
X158764623Y-115874190D01*
X158824507Y-116091171D01*
X158922170Y-116293972D01*
X159037077Y-116452128D01*
X159054478Y-116476078D01*
X159217175Y-116631632D01*
X159405032Y-116755635D01*
X159612012Y-116844103D01*
X159831463Y-116894191D01*
X160036998Y-116903421D01*
X160056328Y-116904290D01*
X160056328Y-116904289D01*
X160056330Y-116904290D01*
X160279387Y-116874075D01*
X160493464Y-116804517D01*
X160691681Y-116697852D01*
X160867666Y-116557508D01*
X161015765Y-116387996D01*
X161131215Y-116194764D01*
X161210307Y-115984024D01*
X161250500Y-115762547D01*
X161250500Y-115000000D01*
X166194540Y-115000000D01*
X166214326Y-115188257D01*
X166272820Y-115368284D01*
X166367466Y-115532216D01*
X166494129Y-115672889D01*
X166647269Y-115784151D01*
X166820197Y-115861144D01*
X167005352Y-115900500D01*
X167005354Y-115900500D01*
X167194646Y-115900500D01*
X167194648Y-115900500D01*
X167318435Y-115874188D01*
X167379803Y-115861144D01*
X167552730Y-115784151D01*
X167552730Y-115784150D01*
X167660085Y-115706153D01*
X177749500Y-115706153D01*
X177764623Y-115874190D01*
X177824507Y-116091171D01*
X177922170Y-116293972D01*
X178037077Y-116452128D01*
X178054478Y-116476078D01*
X178217175Y-116631632D01*
X178405032Y-116755635D01*
X178612012Y-116844103D01*
X178831463Y-116894191D01*
X179036998Y-116903421D01*
X179056328Y-116904290D01*
X179056328Y-116904289D01*
X179056330Y-116904290D01*
X179279387Y-116874075D01*
X179493464Y-116804517D01*
X179691681Y-116697852D01*
X179867666Y-116557508D01*
X180015765Y-116387996D01*
X180131215Y-116194764D01*
X180210307Y-115984024D01*
X180250500Y-115762547D01*
X180250500Y-115000000D01*
X184994540Y-115000000D01*
X185014326Y-115188257D01*
X185072820Y-115368284D01*
X185167466Y-115532216D01*
X185294129Y-115672889D01*
X185447269Y-115784151D01*
X185620197Y-115861144D01*
X185805352Y-115900500D01*
X185805354Y-115900500D01*
X185994646Y-115900500D01*
X185994648Y-115900500D01*
X186118435Y-115874188D01*
X186179803Y-115861144D01*
X186352730Y-115784151D01*
X186352730Y-115784150D01*
X186505870Y-115672889D01*
X186632533Y-115532216D01*
X186727179Y-115368284D01*
X186727178Y-115368284D01*
X186785674Y-115188256D01*
X186805460Y-115000000D01*
X186785674Y-114811744D01*
X186727179Y-114631716D01*
X186727179Y-114631715D01*
X186632533Y-114467783D01*
X186505870Y-114327110D01*
X186352730Y-114215848D01*
X186179802Y-114138855D01*
X185994648Y-114099500D01*
X185994646Y-114099500D01*
X185805354Y-114099500D01*
X185805352Y-114099500D01*
X185620197Y-114138855D01*
X185447269Y-114215848D01*
X185294129Y-114327110D01*
X185167466Y-114467783D01*
X185072820Y-114631715D01*
X185014326Y-114811742D01*
X184994540Y-115000000D01*
X180250500Y-115000000D01*
X180250500Y-114293845D01*
X180235377Y-114125812D01*
X180175493Y-113908830D01*
X180077829Y-113706027D01*
X179945522Y-113523922D01*
X179782825Y-113368368D01*
X179782822Y-113368366D01*
X179782821Y-113368365D01*
X179594968Y-113244365D01*
X179387987Y-113155896D01*
X179168537Y-113105809D01*
X178943671Y-113095709D01*
X178720611Y-113125925D01*
X178506537Y-113195482D01*
X178415698Y-113244365D01*
X178308319Y-113302148D01*
X178308317Y-113302149D01*
X178308318Y-113302149D01*
X178132335Y-113442490D01*
X177984233Y-113612006D01*
X177868783Y-113805237D01*
X177789693Y-114015974D01*
X177749500Y-114237453D01*
X177749500Y-115706153D01*
X167660085Y-115706153D01*
X167705870Y-115672889D01*
X167832533Y-115532216D01*
X167927179Y-115368284D01*
X167927178Y-115368284D01*
X167985674Y-115188256D01*
X168005460Y-115000000D01*
X167985674Y-114811744D01*
X167927179Y-114631716D01*
X167927179Y-114631715D01*
X167832533Y-114467783D01*
X167705870Y-114327110D01*
X167552730Y-114215848D01*
X167379802Y-114138855D01*
X167194648Y-114099500D01*
X167194646Y-114099500D01*
X167005354Y-114099500D01*
X167005352Y-114099500D01*
X166820197Y-114138855D01*
X166647269Y-114215848D01*
X166494129Y-114327110D01*
X166367466Y-114467783D01*
X166272820Y-114631715D01*
X166214326Y-114811742D01*
X166194540Y-115000000D01*
X161250500Y-115000000D01*
X161250500Y-114293845D01*
X161235377Y-114125812D01*
X161175493Y-113908830D01*
X161077829Y-113706027D01*
X160945522Y-113523922D01*
X160782825Y-113368368D01*
X160782822Y-113368366D01*
X160782821Y-113368365D01*
X160594968Y-113244365D01*
X160387987Y-113155896D01*
X160168537Y-113105809D01*
X159943671Y-113095709D01*
X159720611Y-113125925D01*
X159506537Y-113195482D01*
X159415698Y-113244365D01*
X159308319Y-113302148D01*
X159308317Y-113302149D01*
X159308318Y-113302149D01*
X159132335Y-113442490D01*
X158984233Y-113612006D01*
X158868783Y-113805237D01*
X158789693Y-114015974D01*
X158749500Y-114237453D01*
X158749500Y-115706153D01*
X125500500Y-115706153D01*
X125500500Y-109600000D01*
X131294540Y-109600000D01*
X131314326Y-109788257D01*
X131372820Y-109968284D01*
X131467466Y-110132216D01*
X131594129Y-110272889D01*
X131747269Y-110384151D01*
X131920197Y-110461144D01*
X132105352Y-110500500D01*
X132105354Y-110500500D01*
X132294646Y-110500500D01*
X132294648Y-110500500D01*
X132418084Y-110474262D01*
X132479803Y-110461144D01*
X132652730Y-110384151D01*
X132805871Y-110272888D01*
X132932533Y-110132216D01*
X133008868Y-110000000D01*
X133494644Y-110000000D01*
X133514039Y-110271161D01*
X133571823Y-110536796D01*
X133571825Y-110536801D01*
X133666828Y-110791513D01*
X133666830Y-110791517D01*
X133666831Y-110791519D01*
X133797109Y-111030108D01*
X133797113Y-111030113D01*
X133960029Y-111247742D01*
X134152258Y-111439971D01*
X134368281Y-111601685D01*
X134369891Y-111602890D01*
X134565802Y-111709864D01*
X134608487Y-111733172D01*
X134863199Y-111828175D01*
X134863202Y-111828175D01*
X134863203Y-111828176D01*
X134912852Y-111838976D01*
X135128840Y-111885961D01*
X135400000Y-111905355D01*
X135671160Y-111885961D01*
X135936801Y-111828175D01*
X136191513Y-111733172D01*
X136430113Y-111602887D01*
X136647742Y-111439971D01*
X136839971Y-111247742D01*
X137002887Y-111030113D01*
X137133172Y-110791513D01*
X137228175Y-110536801D01*
X137285961Y-110271160D01*
X137305355Y-110000000D01*
X144694644Y-110000000D01*
X144714039Y-110271161D01*
X144771823Y-110536796D01*
X144771825Y-110536801D01*
X144866828Y-110791513D01*
X144866830Y-110791517D01*
X144866831Y-110791519D01*
X144997109Y-111030108D01*
X144997113Y-111030113D01*
X145160029Y-111247742D01*
X145352258Y-111439971D01*
X145568281Y-111601685D01*
X145569891Y-111602890D01*
X145765802Y-111709864D01*
X145808487Y-111733172D01*
X146063199Y-111828175D01*
X146063202Y-111828175D01*
X146063203Y-111828176D01*
X146112852Y-111838976D01*
X146328840Y-111885961D01*
X146600000Y-111905355D01*
X146871160Y-111885961D01*
X147136801Y-111828175D01*
X147391513Y-111733172D01*
X147630113Y-111602887D01*
X147847742Y-111439971D01*
X148039971Y-111247742D01*
X148202887Y-111030113D01*
X148333172Y-110791513D01*
X148428175Y-110536801D01*
X148485961Y-110271160D01*
X148505355Y-110000000D01*
X148501678Y-109948593D01*
X153840832Y-109948593D01*
X153850605Y-110153756D01*
X153899029Y-110353362D01*
X153913090Y-110384151D01*
X153984354Y-110540199D01*
X154064975Y-110653414D01*
X154103494Y-110707506D01*
X154252146Y-110849245D01*
X154424936Y-110960291D01*
X154615618Y-111036629D01*
X154817302Y-111075500D01*
X154971227Y-111075500D01*
X154971232Y-111075500D01*
X155124466Y-111060868D01*
X155321541Y-111003001D01*
X155504104Y-110908884D01*
X155665556Y-110781916D01*
X155800061Y-110626689D01*
X155902759Y-110448811D01*
X155969937Y-110254712D01*
X155995963Y-110073697D01*
X157795807Y-110073697D01*
X157825296Y-110366827D01*
X157893592Y-110653413D01*
X157999477Y-110928338D01*
X158141063Y-111186699D01*
X158315822Y-111423884D01*
X158520635Y-111635658D01*
X158751845Y-111818244D01*
X158858500Y-111881415D01*
X159005331Y-111968383D01*
X159276566Y-112083397D01*
X159276567Y-112083397D01*
X159276569Y-112083398D01*
X159339194Y-112100552D01*
X159560710Y-112161232D01*
X159852694Y-112200500D01*
X160073571Y-112200500D01*
X160073573Y-112200500D01*
X160293955Y-112185747D01*
X160414573Y-112161230D01*
X160582663Y-112127064D01*
X160860974Y-112030424D01*
X161123921Y-111897551D01*
X161366812Y-111730816D01*
X161585312Y-111533195D01*
X161775522Y-111308213D01*
X161934047Y-111059887D01*
X162058060Y-110792647D01*
X162145346Y-110511262D01*
X162194349Y-110220754D01*
X162203448Y-109948593D01*
X164000832Y-109948593D01*
X164010605Y-110153756D01*
X164059029Y-110353362D01*
X164073090Y-110384151D01*
X164144354Y-110540199D01*
X164224975Y-110653414D01*
X164263494Y-110707506D01*
X164412146Y-110849245D01*
X164584936Y-110960291D01*
X164775618Y-111036629D01*
X164977302Y-111075500D01*
X165131227Y-111075500D01*
X165131232Y-111075500D01*
X165284466Y-111060868D01*
X165481541Y-111003001D01*
X165664104Y-110908884D01*
X165825556Y-110781916D01*
X165960061Y-110626689D01*
X166062759Y-110448811D01*
X166129937Y-110254712D01*
X166159168Y-110051407D01*
X166154270Y-109948593D01*
X172840832Y-109948593D01*
X172850605Y-110153756D01*
X172899029Y-110353362D01*
X172913090Y-110384151D01*
X172984354Y-110540199D01*
X173064975Y-110653414D01*
X173103494Y-110707506D01*
X173252146Y-110849245D01*
X173424936Y-110960291D01*
X173615618Y-111036629D01*
X173817302Y-111075500D01*
X173971227Y-111075500D01*
X173971232Y-111075500D01*
X174124466Y-111060868D01*
X174321541Y-111003001D01*
X174504104Y-110908884D01*
X174665556Y-110781916D01*
X174800061Y-110626689D01*
X174902759Y-110448811D01*
X174969937Y-110254712D01*
X174995963Y-110073697D01*
X176795807Y-110073697D01*
X176825296Y-110366827D01*
X176893592Y-110653413D01*
X176999477Y-110928338D01*
X177141063Y-111186699D01*
X177315822Y-111423884D01*
X177520635Y-111635658D01*
X177751845Y-111818244D01*
X177858500Y-111881415D01*
X178005331Y-111968383D01*
X178276566Y-112083397D01*
X178276567Y-112083397D01*
X178276569Y-112083398D01*
X178339194Y-112100552D01*
X178560710Y-112161232D01*
X178852694Y-112200500D01*
X179073571Y-112200500D01*
X179073573Y-112200500D01*
X179293955Y-112185747D01*
X179414573Y-112161230D01*
X179582663Y-112127064D01*
X179860974Y-112030424D01*
X180123921Y-111897551D01*
X180366812Y-111730816D01*
X180585312Y-111533195D01*
X180775522Y-111308213D01*
X180934047Y-111059887D01*
X181058060Y-110792647D01*
X181145346Y-110511262D01*
X181194349Y-110220754D01*
X181203448Y-109948593D01*
X183000832Y-109948593D01*
X183010605Y-110153756D01*
X183059029Y-110353362D01*
X183073090Y-110384151D01*
X183144354Y-110540199D01*
X183224975Y-110653414D01*
X183263494Y-110707506D01*
X183412146Y-110849245D01*
X183584936Y-110960291D01*
X183775618Y-111036629D01*
X183977302Y-111075500D01*
X184131227Y-111075500D01*
X184131232Y-111075500D01*
X184284466Y-111060868D01*
X184481541Y-111003001D01*
X184664104Y-110908884D01*
X184825556Y-110781916D01*
X184960061Y-110626689D01*
X185062759Y-110448811D01*
X185129937Y-110254712D01*
X185159168Y-110051407D01*
X185149395Y-109846244D01*
X185100971Y-109646638D01*
X185015647Y-109459804D01*
X185015646Y-109459803D01*
X185015645Y-109459800D01*
X184896507Y-109292496D01*
X184896506Y-109292494D01*
X184747854Y-109150755D01*
X184655056Y-109091117D01*
X184575065Y-109039709D01*
X184400658Y-108969887D01*
X184384382Y-108963371D01*
X184384381Y-108963370D01*
X184384379Y-108963370D01*
X184182698Y-108924500D01*
X184028768Y-108924500D01*
X183932996Y-108933645D01*
X183875531Y-108939132D01*
X183678460Y-108996998D01*
X183495893Y-109091117D01*
X183334445Y-109218082D01*
X183199937Y-109373312D01*
X183097241Y-109551187D01*
X183030062Y-109745287D01*
X183004037Y-109926302D01*
X183000832Y-109948593D01*
X181203448Y-109948593D01*
X181204193Y-109926306D01*
X181174704Y-109633173D01*
X181106407Y-109346586D01*
X181062165Y-109231715D01*
X181000522Y-109071661D01*
X180858936Y-108813300D01*
X180767242Y-108688852D01*
X180684178Y-108576116D01*
X180479365Y-108364342D01*
X180479364Y-108364341D01*
X180248154Y-108181755D01*
X180002896Y-108036490D01*
X179994669Y-108031617D01*
X179817104Y-107956322D01*
X179723430Y-107916601D01*
X179439294Y-107838769D01*
X179439293Y-107838768D01*
X179439290Y-107838768D01*
X179147306Y-107799500D01*
X178926429Y-107799500D01*
X178926427Y-107799500D01*
X178706044Y-107814252D01*
X178417338Y-107872935D01*
X178139022Y-107969577D01*
X177876081Y-108102447D01*
X177633187Y-108269184D01*
X177414689Y-108466803D01*
X177224478Y-108691786D01*
X177065951Y-108940115D01*
X176941941Y-109207350D01*
X176854654Y-109488737D01*
X176811379Y-109745287D01*
X176805651Y-109779246D01*
X176799990Y-109948591D01*
X176795807Y-110073697D01*
X174995963Y-110073697D01*
X174999168Y-110051407D01*
X174989395Y-109846244D01*
X174940971Y-109646638D01*
X174855647Y-109459804D01*
X174761407Y-109327462D01*
X174739812Y-109274096D01*
X174744645Y-109216727D01*
X174774866Y-109167724D01*
X174823960Y-109137651D01*
X174881343Y-109132990D01*
X175059445Y-109160500D01*
X175255177Y-109160500D01*
X175255179Y-109160500D01*
X175279536Y-109158629D01*
X175450344Y-109145516D01*
X175704586Y-109086021D01*
X175851384Y-109026856D01*
X175946762Y-108988416D01*
X175946764Y-108988414D01*
X175946766Y-108988414D01*
X176171208Y-108854982D01*
X176372652Y-108688852D01*
X176546375Y-108493920D01*
X176688306Y-108274753D01*
X176795118Y-108036489D01*
X176864307Y-107784713D01*
X176894252Y-107525325D01*
X176884251Y-107264407D01*
X176834538Y-107008073D01*
X176746279Y-106762332D01*
X176621541Y-106532943D01*
X176621539Y-106532939D01*
X176463250Y-106325284D01*
X176275112Y-106144220D01*
X176061546Y-105994002D01*
X175827546Y-105878140D01*
X175578608Y-105799359D01*
X175417562Y-105774484D01*
X175320555Y-105759500D01*
X175124823Y-105759500D01*
X175124821Y-105759500D01*
X174929656Y-105774484D01*
X174675412Y-105833979D01*
X174433237Y-105931583D01*
X174208791Y-106065017D01*
X174007346Y-106231148D01*
X173833622Y-106426082D01*
X173691693Y-106645247D01*
X173584881Y-106883509D01*
X173515693Y-107135283D01*
X173485747Y-107394675D01*
X173495036Y-107637013D01*
X173495749Y-107655593D01*
X173537900Y-107872936D01*
X173545463Y-107911930D01*
X173633719Y-108157664D01*
X173758460Y-108387060D01*
X173916749Y-108594715D01*
X174037738Y-108711155D01*
X174069083Y-108760379D01*
X174074441Y-108818489D01*
X174052627Y-108872615D01*
X174008471Y-108910768D01*
X173951753Y-108924500D01*
X173868768Y-108924500D01*
X173772996Y-108933645D01*
X173715531Y-108939132D01*
X173518460Y-108996998D01*
X173335893Y-109091117D01*
X173174445Y-109218082D01*
X173039937Y-109373312D01*
X172937241Y-109551187D01*
X172870062Y-109745287D01*
X172844037Y-109926302D01*
X172840832Y-109948593D01*
X166154270Y-109948593D01*
X166149395Y-109846244D01*
X166100971Y-109646638D01*
X166015647Y-109459804D01*
X166015646Y-109459803D01*
X166015645Y-109459800D01*
X165896507Y-109292496D01*
X165896506Y-109292494D01*
X165747854Y-109150755D01*
X165655056Y-109091117D01*
X165575065Y-109039709D01*
X165400658Y-108969887D01*
X165384382Y-108963371D01*
X165384381Y-108963370D01*
X165384379Y-108963370D01*
X165182698Y-108924500D01*
X165028768Y-108924500D01*
X164932996Y-108933645D01*
X164875531Y-108939132D01*
X164678460Y-108996998D01*
X164495893Y-109091117D01*
X164334445Y-109218082D01*
X164199937Y-109373312D01*
X164097241Y-109551187D01*
X164030062Y-109745287D01*
X164004037Y-109926302D01*
X164000832Y-109948593D01*
X162203448Y-109948593D01*
X162204193Y-109926306D01*
X162174704Y-109633173D01*
X162106407Y-109346586D01*
X162062165Y-109231715D01*
X162000522Y-109071661D01*
X161858936Y-108813300D01*
X161767242Y-108688852D01*
X161684178Y-108576116D01*
X161479365Y-108364342D01*
X161479364Y-108364341D01*
X161248154Y-108181755D01*
X161002896Y-108036490D01*
X160994669Y-108031617D01*
X160817104Y-107956322D01*
X160723430Y-107916601D01*
X160439294Y-107838769D01*
X160439293Y-107838768D01*
X160439290Y-107838768D01*
X160147306Y-107799500D01*
X159926429Y-107799500D01*
X159926427Y-107799500D01*
X159706044Y-107814252D01*
X159417338Y-107872935D01*
X159139022Y-107969577D01*
X158876081Y-108102447D01*
X158633187Y-108269184D01*
X158414689Y-108466803D01*
X158224478Y-108691786D01*
X158065951Y-108940115D01*
X157941941Y-109207350D01*
X157854654Y-109488737D01*
X157811379Y-109745287D01*
X157805651Y-109779246D01*
X157799990Y-109948591D01*
X157795807Y-110073697D01*
X155995963Y-110073697D01*
X155999168Y-110051407D01*
X155989395Y-109846244D01*
X155940971Y-109646638D01*
X155855647Y-109459804D01*
X155761407Y-109327462D01*
X155739812Y-109274096D01*
X155744645Y-109216727D01*
X155774866Y-109167724D01*
X155823960Y-109137651D01*
X155881343Y-109132990D01*
X156059445Y-109160500D01*
X156255177Y-109160500D01*
X156255179Y-109160500D01*
X156279536Y-109158629D01*
X156450344Y-109145516D01*
X156704586Y-109086021D01*
X156851384Y-109026856D01*
X156946762Y-108988416D01*
X156946764Y-108988414D01*
X156946766Y-108988414D01*
X157171208Y-108854982D01*
X157372652Y-108688852D01*
X157546375Y-108493920D01*
X157688306Y-108274753D01*
X157795118Y-108036489D01*
X157864307Y-107784713D01*
X157894252Y-107525325D01*
X157884251Y-107264407D01*
X157834538Y-107008073D01*
X157746279Y-106762332D01*
X157621541Y-106532943D01*
X157621539Y-106532939D01*
X157463250Y-106325284D01*
X157275112Y-106144220D01*
X157061546Y-105994002D01*
X156827546Y-105878140D01*
X156578608Y-105799359D01*
X156417562Y-105774484D01*
X156320555Y-105759500D01*
X156124823Y-105759500D01*
X156124821Y-105759500D01*
X155929656Y-105774484D01*
X155675412Y-105833979D01*
X155433237Y-105931583D01*
X155208791Y-106065017D01*
X155007346Y-106231148D01*
X154833622Y-106426082D01*
X154691693Y-106645247D01*
X154584881Y-106883509D01*
X154515693Y-107135283D01*
X154485747Y-107394675D01*
X154495036Y-107637013D01*
X154495749Y-107655593D01*
X154537900Y-107872936D01*
X154545463Y-107911930D01*
X154633719Y-108157664D01*
X154758460Y-108387060D01*
X154916749Y-108594715D01*
X155037738Y-108711155D01*
X155069083Y-108760379D01*
X155074441Y-108818489D01*
X155052627Y-108872615D01*
X155008471Y-108910768D01*
X154951753Y-108924500D01*
X154868768Y-108924500D01*
X154772996Y-108933645D01*
X154715531Y-108939132D01*
X154518460Y-108996998D01*
X154335893Y-109091117D01*
X154174445Y-109218082D01*
X154039937Y-109373312D01*
X153937241Y-109551187D01*
X153870062Y-109745287D01*
X153844037Y-109926302D01*
X153840832Y-109948593D01*
X148501678Y-109948593D01*
X148485961Y-109728840D01*
X148428175Y-109463199D01*
X148333172Y-109208487D01*
X148285205Y-109120641D01*
X148202890Y-108969891D01*
X148170033Y-108925999D01*
X148039971Y-108752258D01*
X147847742Y-108560029D01*
X147630113Y-108397113D01*
X147630114Y-108397113D01*
X147630108Y-108397109D01*
X147391519Y-108266831D01*
X147391517Y-108266830D01*
X147391513Y-108266828D01*
X147136801Y-108171825D01*
X147136796Y-108171823D01*
X146871161Y-108114039D01*
X146600000Y-108094644D01*
X146328838Y-108114039D01*
X146063203Y-108171823D01*
X145918956Y-108225624D01*
X145808487Y-108266828D01*
X145808484Y-108266829D01*
X145808480Y-108266831D01*
X145569891Y-108397109D01*
X145352255Y-108560031D01*
X145160031Y-108752255D01*
X144997109Y-108969891D01*
X144866831Y-109208480D01*
X144866829Y-109208484D01*
X144866828Y-109208487D01*
X144858164Y-109231716D01*
X144771823Y-109463203D01*
X144714039Y-109728838D01*
X144694644Y-110000000D01*
X137305355Y-110000000D01*
X137285961Y-109728840D01*
X137228175Y-109463199D01*
X137133172Y-109208487D01*
X137085205Y-109120641D01*
X137002890Y-108969891D01*
X136970033Y-108925999D01*
X136839971Y-108752258D01*
X136647742Y-108560029D01*
X136430113Y-108397113D01*
X136430114Y-108397113D01*
X136430108Y-108397109D01*
X136191519Y-108266831D01*
X136191517Y-108266830D01*
X136191513Y-108266828D01*
X135936801Y-108171825D01*
X135936796Y-108171823D01*
X135671161Y-108114039D01*
X135400000Y-108094644D01*
X135128838Y-108114039D01*
X134863203Y-108171823D01*
X134718956Y-108225624D01*
X134608487Y-108266828D01*
X134608484Y-108266829D01*
X134608480Y-108266831D01*
X134369891Y-108397109D01*
X134152255Y-108560031D01*
X133960031Y-108752255D01*
X133797109Y-108969891D01*
X133666831Y-109208480D01*
X133666829Y-109208484D01*
X133666828Y-109208487D01*
X133658164Y-109231716D01*
X133571823Y-109463203D01*
X133514039Y-109728838D01*
X133494644Y-110000000D01*
X133008868Y-110000000D01*
X133027179Y-109968284D01*
X133085674Y-109788256D01*
X133105460Y-109600000D01*
X133085674Y-109411744D01*
X133027179Y-109231716D01*
X133027179Y-109231715D01*
X132932533Y-109067783D01*
X132805870Y-108927110D01*
X132652730Y-108815848D01*
X132479802Y-108738855D01*
X132294648Y-108699500D01*
X132294646Y-108699500D01*
X132105354Y-108699500D01*
X132105352Y-108699500D01*
X131920197Y-108738855D01*
X131747269Y-108815848D01*
X131594129Y-108927110D01*
X131467466Y-109067783D01*
X131372820Y-109231715D01*
X131314326Y-109411742D01*
X131294540Y-109600000D01*
X125500500Y-109600000D01*
X125500500Y-104499999D01*
X126694531Y-104499999D01*
X126714364Y-104726689D01*
X126773261Y-104946497D01*
X126869432Y-105152735D01*
X126999953Y-105339140D01*
X127160859Y-105500046D01*
X127347264Y-105630567D01*
X127347265Y-105630567D01*
X127347266Y-105630568D01*
X127553504Y-105726739D01*
X127773308Y-105785635D01*
X127858262Y-105793067D01*
X127943214Y-105800500D01*
X127943216Y-105800500D01*
X128056784Y-105800500D01*
X128056786Y-105800500D01*
X128124747Y-105794554D01*
X128226692Y-105785635D01*
X128446496Y-105726739D01*
X128652734Y-105630568D01*
X128839139Y-105500047D01*
X129000047Y-105339139D01*
X129130568Y-105152734D01*
X129226739Y-104946496D01*
X129239198Y-104900000D01*
X134194540Y-104900000D01*
X134214326Y-105088257D01*
X134272820Y-105268284D01*
X134367466Y-105432216D01*
X134494129Y-105572889D01*
X134647269Y-105684151D01*
X134820197Y-105761144D01*
X135005352Y-105800500D01*
X135005354Y-105800500D01*
X135194646Y-105800500D01*
X135194648Y-105800500D01*
X135318083Y-105774262D01*
X135379803Y-105761144D01*
X135552730Y-105684151D01*
X135626481Y-105630568D01*
X135705870Y-105572889D01*
X135771458Y-105500047D01*
X135832533Y-105432216D01*
X135867341Y-105371927D01*
X135892613Y-105328155D01*
X135938000Y-105282768D01*
X136000000Y-105266155D01*
X136062000Y-105282768D01*
X136107387Y-105328155D01*
X136167466Y-105432216D01*
X136294129Y-105572889D01*
X136447269Y-105684151D01*
X136620197Y-105761144D01*
X136805352Y-105800500D01*
X136805354Y-105800500D01*
X136994646Y-105800500D01*
X136994648Y-105800500D01*
X137118083Y-105774262D01*
X137179803Y-105761144D01*
X137352730Y-105684151D01*
X137426481Y-105630568D01*
X137505870Y-105572889D01*
X137571458Y-105500047D01*
X137632533Y-105432216D01*
X137727179Y-105268284D01*
X137785674Y-105088256D01*
X137805460Y-104900000D01*
X137785674Y-104711744D01*
X137747833Y-104595283D01*
X137727179Y-104531715D01*
X137632533Y-104367784D01*
X137556168Y-104282972D01*
X137528001Y-104229998D01*
X137528001Y-104170002D01*
X137556168Y-104117028D01*
X137613365Y-104053504D01*
X137632533Y-104032216D01*
X137727179Y-103868284D01*
X137785674Y-103688256D01*
X137805460Y-103500000D01*
X137785674Y-103311744D01*
X137781858Y-103299999D01*
X149344750Y-103299999D01*
X149363686Y-103468056D01*
X149363686Y-103468058D01*
X149363687Y-103468059D01*
X149419544Y-103627690D01*
X149509523Y-103770890D01*
X149629110Y-103890477D01*
X149772310Y-103980456D01*
X149868672Y-104014174D01*
X149915397Y-104043533D01*
X149944757Y-104090260D01*
X149950936Y-104145098D01*
X149944750Y-104199999D01*
X149963686Y-104368056D01*
X149963686Y-104368058D01*
X149963687Y-104368059D01*
X150019544Y-104527690D01*
X150109523Y-104670890D01*
X150229110Y-104790477D01*
X150372310Y-104880456D01*
X150531941Y-104936313D01*
X150700000Y-104955249D01*
X150868059Y-104936313D01*
X151027690Y-104880456D01*
X151068720Y-104854675D01*
X160835747Y-104854675D01*
X160844701Y-105088256D01*
X160845749Y-105115593D01*
X160889103Y-105339140D01*
X160895463Y-105371930D01*
X160983719Y-105617664D01*
X161108460Y-105847060D01*
X161266749Y-106054715D01*
X161266750Y-106054716D01*
X161359751Y-106144220D01*
X161454887Y-106235779D01*
X161582137Y-106325284D01*
X161668456Y-106385999D01*
X161749406Y-106426080D01*
X161902453Y-106501859D01*
X162151391Y-106580640D01*
X162151392Y-106580640D01*
X162151395Y-106580641D01*
X162409445Y-106620500D01*
X162605177Y-106620500D01*
X162605179Y-106620500D01*
X162629536Y-106618629D01*
X162800344Y-106605516D01*
X163054586Y-106546021D01*
X163201384Y-106486856D01*
X163296762Y-106448416D01*
X163296764Y-106448414D01*
X163296766Y-106448414D01*
X163521208Y-106314982D01*
X163722652Y-106148852D01*
X163896375Y-105953920D01*
X164038306Y-105734753D01*
X164091712Y-105615620D01*
X164145118Y-105496490D01*
X164203849Y-105282768D01*
X164214307Y-105244713D01*
X164244252Y-104985325D01*
X164239244Y-104854675D01*
X179835747Y-104854675D01*
X179844701Y-105088256D01*
X179845749Y-105115593D01*
X179889103Y-105339140D01*
X179895463Y-105371930D01*
X179983719Y-105617664D01*
X180108460Y-105847060D01*
X180266749Y-106054715D01*
X180266750Y-106054716D01*
X180359751Y-106144220D01*
X180454887Y-106235779D01*
X180582137Y-106325284D01*
X180668456Y-106385999D01*
X180749406Y-106426080D01*
X180902453Y-106501859D01*
X181151391Y-106580640D01*
X181151392Y-106580640D01*
X181151395Y-106580641D01*
X181409445Y-106620500D01*
X181605177Y-106620500D01*
X181605179Y-106620500D01*
X181629536Y-106618629D01*
X181800344Y-106605516D01*
X182054586Y-106546021D01*
X182201384Y-106486856D01*
X182296762Y-106448416D01*
X182296764Y-106448414D01*
X182296766Y-106448414D01*
X182521208Y-106314982D01*
X182722652Y-106148852D01*
X182896375Y-105953920D01*
X183038306Y-105734753D01*
X183091712Y-105615620D01*
X183145118Y-105496490D01*
X183203849Y-105282768D01*
X183214307Y-105244713D01*
X183244252Y-104985325D01*
X183234251Y-104724407D01*
X183190730Y-104499999D01*
X190694531Y-104499999D01*
X190714364Y-104726689D01*
X190773261Y-104946497D01*
X190869432Y-105152735D01*
X190999953Y-105339140D01*
X191160859Y-105500046D01*
X191347264Y-105630567D01*
X191347265Y-105630567D01*
X191347266Y-105630568D01*
X191553504Y-105726739D01*
X191773308Y-105785635D01*
X191858262Y-105793067D01*
X191943214Y-105800500D01*
X191943216Y-105800500D01*
X192056784Y-105800500D01*
X192056786Y-105800500D01*
X192124747Y-105794554D01*
X192226692Y-105785635D01*
X192446496Y-105726739D01*
X192652734Y-105630568D01*
X192839139Y-105500047D01*
X193000047Y-105339139D01*
X193130568Y-105152734D01*
X193226739Y-104946496D01*
X193285635Y-104726692D01*
X193305468Y-104500000D01*
X193285635Y-104273308D01*
X193226739Y-104053504D01*
X193130568Y-103847266D01*
X193087168Y-103785284D01*
X193000046Y-103660859D01*
X192839140Y-103499953D01*
X192652735Y-103369432D01*
X192446497Y-103273261D01*
X192226689Y-103214364D01*
X192056786Y-103199500D01*
X192056784Y-103199500D01*
X191943216Y-103199500D01*
X191943214Y-103199500D01*
X191773310Y-103214364D01*
X191553502Y-103273261D01*
X191347264Y-103369432D01*
X191160859Y-103499953D01*
X190999953Y-103660859D01*
X190869432Y-103847264D01*
X190773261Y-104053502D01*
X190714364Y-104273310D01*
X190694531Y-104499999D01*
X183190730Y-104499999D01*
X183184538Y-104468073D01*
X183096279Y-104222332D01*
X182992897Y-104032216D01*
X182971539Y-103992939D01*
X182813250Y-103785284D01*
X182625112Y-103604220D01*
X182411546Y-103454002D01*
X182177546Y-103338140D01*
X181928608Y-103259359D01*
X181767562Y-103234484D01*
X181670555Y-103219500D01*
X181474823Y-103219500D01*
X181474821Y-103219500D01*
X181279656Y-103234484D01*
X181025412Y-103293979D01*
X180783237Y-103391583D01*
X180558791Y-103525017D01*
X180357346Y-103691148D01*
X180183622Y-103886082D01*
X180041693Y-104105247D01*
X179934881Y-104343509D01*
X179865693Y-104595283D01*
X179835747Y-104854675D01*
X164239244Y-104854675D01*
X164234251Y-104724407D01*
X164184538Y-104468073D01*
X164096279Y-104222332D01*
X163992897Y-104032216D01*
X163971539Y-103992939D01*
X163813250Y-103785284D01*
X163625112Y-103604220D01*
X163411546Y-103454002D01*
X163177546Y-103338140D01*
X162928608Y-103259359D01*
X162767562Y-103234484D01*
X162670555Y-103219500D01*
X162474823Y-103219500D01*
X162474821Y-103219500D01*
X162279656Y-103234484D01*
X162025412Y-103293979D01*
X161783237Y-103391583D01*
X161558791Y-103525017D01*
X161357346Y-103691148D01*
X161183622Y-103886082D01*
X161041693Y-104105247D01*
X160934881Y-104343509D01*
X160865693Y-104595283D01*
X160835747Y-104854675D01*
X151068720Y-104854675D01*
X151170890Y-104790477D01*
X151290477Y-104670890D01*
X151380456Y-104527690D01*
X151436313Y-104368059D01*
X151455249Y-104200000D01*
X151436313Y-104031941D01*
X151380456Y-103872310D01*
X151290477Y-103729110D01*
X151170890Y-103609523D01*
X151027690Y-103519544D01*
X151027687Y-103519542D01*
X150931328Y-103485825D01*
X150884601Y-103456465D01*
X150855241Y-103409738D01*
X150849063Y-103354899D01*
X150855249Y-103299998D01*
X150836313Y-103131943D01*
X150836313Y-103131941D01*
X150780456Y-102972310D01*
X150690477Y-102829110D01*
X150570890Y-102709523D01*
X150427690Y-102619544D01*
X150268059Y-102563687D01*
X150268058Y-102563686D01*
X150268056Y-102563686D01*
X150100000Y-102544750D01*
X149931943Y-102563686D01*
X149772310Y-102619544D01*
X149629108Y-102709524D01*
X149509524Y-102829108D01*
X149419544Y-102972310D01*
X149363686Y-103131943D01*
X149344750Y-103299999D01*
X137781858Y-103299999D01*
X137754033Y-103214364D01*
X137727179Y-103131715D01*
X137632533Y-102967783D01*
X137556168Y-102882971D01*
X137528001Y-102829997D01*
X137528002Y-102770000D01*
X137556168Y-102717027D01*
X137632533Y-102632216D01*
X137727179Y-102468284D01*
X137785674Y-102288256D01*
X137805460Y-102100000D01*
X137785674Y-101911744D01*
X137755332Y-101818363D01*
X137727179Y-101731715D01*
X137632533Y-101567783D01*
X137505870Y-101427110D01*
X137352730Y-101315848D01*
X137179802Y-101238855D01*
X136994648Y-101199500D01*
X136994646Y-101199500D01*
X136805354Y-101199500D01*
X136805352Y-101199500D01*
X136620197Y-101238855D01*
X136447269Y-101315848D01*
X136294129Y-101427110D01*
X136167466Y-101567784D01*
X136107387Y-101671844D01*
X136062000Y-101717231D01*
X136000000Y-101733844D01*
X135938000Y-101717231D01*
X135892613Y-101671844D01*
X135832533Y-101567784D01*
X135705870Y-101427110D01*
X135552730Y-101315848D01*
X135379802Y-101238855D01*
X135194648Y-101199500D01*
X135194646Y-101199500D01*
X135005354Y-101199500D01*
X135005352Y-101199500D01*
X134820197Y-101238855D01*
X134647269Y-101315848D01*
X134494129Y-101427110D01*
X134367466Y-101567783D01*
X134272820Y-101731715D01*
X134214326Y-101911742D01*
X134194540Y-102099999D01*
X134214326Y-102288257D01*
X134272820Y-102468284D01*
X134367466Y-102632216D01*
X134443831Y-102717027D01*
X134471998Y-102770000D01*
X134471998Y-102829997D01*
X134443832Y-102882970D01*
X134367466Y-102967783D01*
X134272820Y-103131715D01*
X134214326Y-103311742D01*
X134197897Y-103468056D01*
X134194540Y-103500000D01*
X134200000Y-103551949D01*
X134214326Y-103688257D01*
X134272820Y-103868284D01*
X134367466Y-104032215D01*
X134443832Y-104117028D01*
X134471999Y-104170002D01*
X134471999Y-104229998D01*
X134443832Y-104282972D01*
X134367466Y-104367784D01*
X134272820Y-104531715D01*
X134214326Y-104711742D01*
X134194540Y-104900000D01*
X129239198Y-104900000D01*
X129285635Y-104726692D01*
X129305468Y-104500000D01*
X129285635Y-104273308D01*
X129226739Y-104053504D01*
X129130568Y-103847266D01*
X129087168Y-103785284D01*
X129000046Y-103660859D01*
X128839140Y-103499953D01*
X128652735Y-103369432D01*
X128446497Y-103273261D01*
X128226689Y-103214364D01*
X128056786Y-103199500D01*
X128056784Y-103199500D01*
X127943216Y-103199500D01*
X127943214Y-103199500D01*
X127773310Y-103214364D01*
X127553502Y-103273261D01*
X127347264Y-103369432D01*
X127160859Y-103499953D01*
X126999953Y-103660859D01*
X126869432Y-103847264D01*
X126773261Y-104053502D01*
X126714364Y-104273310D01*
X126694531Y-104499999D01*
X125500500Y-104499999D01*
X125500500Y-101200000D01*
X129994540Y-101200000D01*
X130014326Y-101388257D01*
X130072820Y-101568284D01*
X130167466Y-101732216D01*
X130294129Y-101872889D01*
X130447269Y-101984151D01*
X130620197Y-102061144D01*
X130805352Y-102100500D01*
X130805354Y-102100500D01*
X130994646Y-102100500D01*
X130994648Y-102100500D01*
X131118084Y-102074262D01*
X131179803Y-102061144D01*
X131352730Y-101984151D01*
X131505871Y-101872888D01*
X131632533Y-101732216D01*
X131727179Y-101568284D01*
X131785674Y-101388256D01*
X131805460Y-101200000D01*
X131785674Y-101011744D01*
X131755332Y-100918363D01*
X131727179Y-100831715D01*
X131651133Y-100700000D01*
X163794540Y-100700000D01*
X163814326Y-100888257D01*
X163872820Y-101068284D01*
X163967466Y-101232216D01*
X164094129Y-101372889D01*
X164247269Y-101484151D01*
X164420197Y-101561144D01*
X164605352Y-101600500D01*
X164605354Y-101600500D01*
X164794646Y-101600500D01*
X164794648Y-101600500D01*
X164918084Y-101574262D01*
X164979803Y-101561144D01*
X165152730Y-101484151D01*
X165231241Y-101427110D01*
X165305870Y-101372889D01*
X165432533Y-101232216D01*
X165527179Y-101068284D01*
X165545551Y-101011742D01*
X165585674Y-100888256D01*
X165605460Y-100700000D01*
X165585674Y-100511744D01*
X165539908Y-100370891D01*
X165527179Y-100331715D01*
X165432533Y-100167783D01*
X165305870Y-100027110D01*
X165152730Y-99915848D01*
X164979802Y-99838855D01*
X164794648Y-99799500D01*
X164794646Y-99799500D01*
X164605354Y-99799500D01*
X164605352Y-99799500D01*
X164420197Y-99838855D01*
X164247269Y-99915848D01*
X164094129Y-100027110D01*
X163967466Y-100167783D01*
X163872820Y-100331715D01*
X163814326Y-100511742D01*
X163794540Y-100700000D01*
X131651133Y-100700000D01*
X131632533Y-100667783D01*
X131505870Y-100527110D01*
X131352730Y-100415848D01*
X131179802Y-100338855D01*
X130994648Y-100299500D01*
X130994646Y-100299500D01*
X130805354Y-100299500D01*
X130805352Y-100299500D01*
X130620197Y-100338855D01*
X130447269Y-100415848D01*
X130294129Y-100527110D01*
X130167466Y-100667783D01*
X130072820Y-100831715D01*
X130014326Y-101011742D01*
X129994540Y-101200000D01*
X125500500Y-101200000D01*
X125500500Y-99099999D01*
X131994540Y-99099999D01*
X132014326Y-99288257D01*
X132072820Y-99468284D01*
X132167466Y-99632216D01*
X132294129Y-99772889D01*
X132447269Y-99884151D01*
X132620197Y-99961144D01*
X132805352Y-100000500D01*
X132805354Y-100000500D01*
X132994646Y-100000500D01*
X132994648Y-100000500D01*
X133118083Y-99974262D01*
X133179803Y-99961144D01*
X133352730Y-99884151D01*
X133395887Y-99852796D01*
X133505870Y-99772889D01*
X133632533Y-99632216D01*
X133727179Y-99468284D01*
X133740369Y-99427689D01*
X133785674Y-99288256D01*
X133805460Y-99100000D01*
X133785674Y-98911744D01*
X133727179Y-98731716D01*
X133727179Y-98731715D01*
X133632533Y-98567783D01*
X133505870Y-98427110D01*
X133352730Y-98315848D01*
X133179802Y-98238855D01*
X132994648Y-98199500D01*
X132994646Y-98199500D01*
X132805354Y-98199500D01*
X132805352Y-98199500D01*
X132620197Y-98238855D01*
X132447269Y-98315848D01*
X132294129Y-98427110D01*
X132167466Y-98567783D01*
X132072820Y-98731715D01*
X132014326Y-98911742D01*
X131994540Y-99099999D01*
X125500500Y-99099999D01*
X125500500Y-97999999D01*
X152694531Y-97999999D01*
X152714364Y-98226689D01*
X152773261Y-98446497D01*
X152869432Y-98652735D01*
X152999953Y-98839140D01*
X153160859Y-99000046D01*
X153347264Y-99130567D01*
X153347265Y-99130567D01*
X153347266Y-99130568D01*
X153553504Y-99226739D01*
X153773308Y-99285635D01*
X153858262Y-99293067D01*
X153943214Y-99300500D01*
X153943216Y-99300500D01*
X154056784Y-99300500D01*
X154056786Y-99300500D01*
X154124747Y-99294554D01*
X154226692Y-99285635D01*
X154446496Y-99226739D01*
X154652734Y-99130568D01*
X154696391Y-99099999D01*
X158844750Y-99099999D01*
X158863686Y-99268056D01*
X158863686Y-99268058D01*
X158863687Y-99268059D01*
X158919544Y-99427690D01*
X159009523Y-99570890D01*
X159129110Y-99690477D01*
X159272310Y-99780456D01*
X159272311Y-99780456D01*
X159284140Y-99787889D01*
X159282799Y-99790022D01*
X159308345Y-99806072D01*
X159337708Y-99852796D01*
X159341486Y-99886308D01*
X159343186Y-99886117D01*
X159363686Y-100068056D01*
X159363686Y-100068058D01*
X159363687Y-100068059D01*
X159419544Y-100227690D01*
X159509523Y-100370890D01*
X159629110Y-100490477D01*
X159772310Y-100580456D01*
X159931941Y-100636313D01*
X160100000Y-100655249D01*
X160268059Y-100636313D01*
X160427690Y-100580456D01*
X160570890Y-100490477D01*
X160690477Y-100370890D01*
X160780456Y-100227690D01*
X160836313Y-100068059D01*
X160855249Y-99900000D01*
X160836313Y-99731941D01*
X160780456Y-99572310D01*
X160690477Y-99429110D01*
X160570890Y-99309523D01*
X160504896Y-99268056D01*
X160415860Y-99212110D01*
X160417200Y-99209976D01*
X160391642Y-99193915D01*
X160362284Y-99147183D01*
X160358514Y-99113692D01*
X160356814Y-99113884D01*
X160336313Y-98931943D01*
X160336313Y-98931941D01*
X160325136Y-98900000D01*
X162294659Y-98900000D01*
X162295816Y-98911744D01*
X162313976Y-99096133D01*
X162371185Y-99284726D01*
X162447601Y-99427689D01*
X162464090Y-99458538D01*
X162589117Y-99610883D01*
X162741462Y-99735910D01*
X162915273Y-99828814D01*
X163103868Y-99886024D01*
X163300000Y-99905341D01*
X163496132Y-99886024D01*
X163684727Y-99828814D01*
X163858538Y-99735910D01*
X164010883Y-99610883D01*
X164135910Y-99458538D01*
X164228814Y-99284727D01*
X164286024Y-99096132D01*
X164305341Y-98900000D01*
X164286024Y-98703868D01*
X164228814Y-98515273D01*
X164135910Y-98341462D01*
X164010883Y-98189117D01*
X163858538Y-98064090D01*
X163836091Y-98052091D01*
X163684726Y-97971185D01*
X163496133Y-97913976D01*
X163300000Y-97894659D01*
X163103866Y-97913976D01*
X162915273Y-97971185D01*
X162741463Y-98064089D01*
X162589117Y-98189117D01*
X162464089Y-98341463D01*
X162371185Y-98515273D01*
X162313976Y-98703866D01*
X162313975Y-98703868D01*
X162313976Y-98703868D01*
X162294659Y-98900000D01*
X160325136Y-98900000D01*
X160280456Y-98772310D01*
X160190477Y-98629110D01*
X160070890Y-98509523D01*
X159927690Y-98419544D01*
X159768059Y-98363687D01*
X159768058Y-98363686D01*
X159768056Y-98363686D01*
X159600000Y-98344750D01*
X159431943Y-98363686D01*
X159272310Y-98419544D01*
X159129108Y-98509524D01*
X159009524Y-98629108D01*
X158919544Y-98772310D01*
X158863686Y-98931943D01*
X158844750Y-99099999D01*
X154696391Y-99099999D01*
X154839139Y-99000047D01*
X155000047Y-98839139D01*
X155130568Y-98652734D01*
X155226739Y-98446496D01*
X155285635Y-98226692D01*
X155305468Y-98000000D01*
X155285635Y-97773308D01*
X155226739Y-97553504D01*
X155130568Y-97347266D01*
X155108166Y-97315273D01*
X155000046Y-97160859D01*
X154839186Y-96999999D01*
X165794540Y-96999999D01*
X165814326Y-97188257D01*
X165872820Y-97368284D01*
X165967466Y-97532216D01*
X166094129Y-97672889D01*
X166247269Y-97784151D01*
X166420197Y-97861144D01*
X166605352Y-97900500D01*
X166605354Y-97900500D01*
X166794646Y-97900500D01*
X166794648Y-97900500D01*
X166918084Y-97874262D01*
X166979803Y-97861144D01*
X167152730Y-97784151D01*
X167167654Y-97773308D01*
X167268556Y-97699999D01*
X172394659Y-97699999D01*
X172413976Y-97896133D01*
X172471185Y-98084726D01*
X172547066Y-98226689D01*
X172564090Y-98258538D01*
X172689117Y-98410883D01*
X172841462Y-98535910D01*
X173015273Y-98628814D01*
X173203868Y-98686024D01*
X173400000Y-98705341D01*
X173596132Y-98686024D01*
X173784727Y-98628814D01*
X173958538Y-98535910D01*
X174110883Y-98410883D01*
X174235910Y-98258538D01*
X174328814Y-98084727D01*
X174386024Y-97896132D01*
X174405341Y-97700000D01*
X174405341Y-97699999D01*
X181444659Y-97699999D01*
X181463976Y-97896133D01*
X181521185Y-98084726D01*
X181597066Y-98226689D01*
X181614090Y-98258538D01*
X181739117Y-98410883D01*
X181891462Y-98535910D01*
X182065273Y-98628814D01*
X182253868Y-98686024D01*
X182450000Y-98705341D01*
X182646132Y-98686024D01*
X182834727Y-98628814D01*
X183008538Y-98535910D01*
X183160883Y-98410883D01*
X183285910Y-98258538D01*
X183378814Y-98084727D01*
X183436024Y-97896132D01*
X183455341Y-97700000D01*
X183436024Y-97503868D01*
X183378814Y-97315273D01*
X183285910Y-97141462D01*
X183160883Y-96989117D01*
X183008538Y-96864090D01*
X182910602Y-96811742D01*
X182834726Y-96771185D01*
X182646133Y-96713976D01*
X182450000Y-96694659D01*
X182253866Y-96713976D01*
X182065273Y-96771185D01*
X181891463Y-96864089D01*
X181739117Y-96989117D01*
X181614089Y-97141463D01*
X181521185Y-97315273D01*
X181463976Y-97503866D01*
X181444659Y-97699999D01*
X174405341Y-97699999D01*
X174386024Y-97503868D01*
X174328814Y-97315273D01*
X174235910Y-97141462D01*
X174110883Y-96989117D01*
X173958538Y-96864090D01*
X173860602Y-96811742D01*
X173784726Y-96771185D01*
X173596133Y-96713976D01*
X173400000Y-96694659D01*
X173203866Y-96713976D01*
X173015273Y-96771185D01*
X172841463Y-96864089D01*
X172689117Y-96989117D01*
X172564089Y-97141463D01*
X172471185Y-97315273D01*
X172413976Y-97503866D01*
X172394659Y-97699999D01*
X167268556Y-97699999D01*
X167305870Y-97672889D01*
X167432533Y-97532216D01*
X167527179Y-97368284D01*
X167571390Y-97232216D01*
X167585674Y-97188256D01*
X167605460Y-97000000D01*
X167599416Y-96942495D01*
X167610539Y-96876739D01*
X167654117Y-96826254D01*
X167717545Y-96805645D01*
X167782475Y-96820874D01*
X167830124Y-96867537D01*
X167867465Y-96932214D01*
X167994129Y-97072889D01*
X168147269Y-97184151D01*
X168320197Y-97261144D01*
X168505352Y-97300500D01*
X168505354Y-97300500D01*
X168694646Y-97300500D01*
X168694648Y-97300500D01*
X168818083Y-97274262D01*
X168879803Y-97261144D01*
X169052730Y-97184151D01*
X169205871Y-97072888D01*
X169332533Y-96932216D01*
X169427179Y-96768284D01*
X169485674Y-96588256D01*
X169505460Y-96400000D01*
X169485674Y-96211744D01*
X169449528Y-96100500D01*
X169427179Y-96031715D01*
X169332533Y-95867783D01*
X169205870Y-95727110D01*
X169052730Y-95615848D01*
X168879802Y-95538855D01*
X168694648Y-95499500D01*
X168694646Y-95499500D01*
X168505354Y-95499500D01*
X168505352Y-95499500D01*
X168320197Y-95538855D01*
X168147269Y-95615848D01*
X167994129Y-95727110D01*
X167867466Y-95867783D01*
X167772820Y-96031715D01*
X167714326Y-96211742D01*
X167694540Y-96400000D01*
X167700583Y-96457503D01*
X167689460Y-96523261D01*
X167645881Y-96573746D01*
X167582453Y-96594354D01*
X167517523Y-96579124D01*
X167469875Y-96532463D01*
X167432533Y-96467784D01*
X167355487Y-96382216D01*
X167305870Y-96327110D01*
X167152730Y-96215848D01*
X166979802Y-96138855D01*
X166794648Y-96099500D01*
X166794646Y-96099500D01*
X166605354Y-96099500D01*
X166605352Y-96099500D01*
X166420197Y-96138855D01*
X166247269Y-96215848D01*
X166094129Y-96327110D01*
X165967466Y-96467783D01*
X165872820Y-96631715D01*
X165814326Y-96811742D01*
X165794540Y-96999999D01*
X154839186Y-96999999D01*
X154839140Y-96999953D01*
X154652735Y-96869432D01*
X154446497Y-96773261D01*
X154226689Y-96714364D01*
X154056786Y-96699500D01*
X154056784Y-96699500D01*
X153943216Y-96699500D01*
X153943214Y-96699500D01*
X153773310Y-96714364D01*
X153553502Y-96773261D01*
X153347264Y-96869432D01*
X153160859Y-96999953D01*
X152999953Y-97160859D01*
X152869432Y-97347264D01*
X152773261Y-97553502D01*
X152714364Y-97773310D01*
X152694531Y-97999999D01*
X125500500Y-97999999D01*
X125500500Y-96400000D01*
X130944659Y-96400000D01*
X130963976Y-96596133D01*
X131021185Y-96784726D01*
X131063606Y-96864089D01*
X131114090Y-96958538D01*
X131239117Y-97110883D01*
X131391462Y-97235910D01*
X131565273Y-97328814D01*
X131753868Y-97386024D01*
X131950000Y-97405341D01*
X132146132Y-97386024D01*
X132334727Y-97328814D01*
X132508538Y-97235910D01*
X132660883Y-97110883D01*
X132785910Y-96958538D01*
X132878814Y-96784727D01*
X132904516Y-96700000D01*
X134794540Y-96700000D01*
X134814326Y-96888257D01*
X134872820Y-97068284D01*
X134967466Y-97232216D01*
X135094129Y-97372889D01*
X135247269Y-97484151D01*
X135420197Y-97561144D01*
X135605352Y-97600500D01*
X135605354Y-97600500D01*
X135794646Y-97600500D01*
X135794648Y-97600500D01*
X135918084Y-97574262D01*
X135979803Y-97561144D01*
X136152730Y-97484151D01*
X136261203Y-97405341D01*
X136305870Y-97372889D01*
X136345556Y-97328814D01*
X136432533Y-97232216D01*
X136527179Y-97068284D01*
X136585674Y-96888256D01*
X136605460Y-96700000D01*
X139394540Y-96700000D01*
X139414326Y-96888257D01*
X139472820Y-97068284D01*
X139567466Y-97232216D01*
X139694129Y-97372889D01*
X139847269Y-97484151D01*
X140020197Y-97561144D01*
X140205352Y-97600500D01*
X140205354Y-97600500D01*
X140394646Y-97600500D01*
X140394648Y-97600500D01*
X140518084Y-97574262D01*
X140579803Y-97561144D01*
X140752730Y-97484151D01*
X140861203Y-97405341D01*
X140905870Y-97372889D01*
X140945556Y-97328814D01*
X141032533Y-97232216D01*
X141127179Y-97068284D01*
X141185674Y-96888256D01*
X141205460Y-96700000D01*
X141185674Y-96511744D01*
X141127179Y-96331716D01*
X141127179Y-96331715D01*
X141032533Y-96167783D01*
X140905870Y-96027110D01*
X140752730Y-95915848D01*
X140604834Y-95850000D01*
X148394540Y-95850000D01*
X148414326Y-96038257D01*
X148472820Y-96218284D01*
X148567466Y-96382216D01*
X148694129Y-96522889D01*
X148847269Y-96634151D01*
X149020197Y-96711144D01*
X149205352Y-96750500D01*
X149205354Y-96750500D01*
X149394646Y-96750500D01*
X149394648Y-96750500D01*
X149564649Y-96714365D01*
X149579803Y-96711144D01*
X149752730Y-96634151D01*
X149756083Y-96631715D01*
X149905870Y-96522889D01*
X150032533Y-96382216D01*
X150064348Y-96327110D01*
X150127179Y-96218284D01*
X150166260Y-96098005D01*
X150204484Y-96041335D01*
X150266933Y-96013531D01*
X150334626Y-96023045D01*
X150420197Y-96061144D01*
X150605352Y-96100500D01*
X150605354Y-96100500D01*
X150794646Y-96100500D01*
X150794648Y-96100500D01*
X150918083Y-96074262D01*
X150979803Y-96061144D01*
X151152730Y-95984151D01*
X151168232Y-95972888D01*
X151305870Y-95872889D01*
X151310468Y-95867783D01*
X151432533Y-95732216D01*
X151527179Y-95568284D01*
X151585674Y-95388256D01*
X151605460Y-95200000D01*
X151585674Y-95011744D01*
X151527179Y-94831716D01*
X151527179Y-94831715D01*
X151432533Y-94667783D01*
X151305870Y-94527110D01*
X151268556Y-94500000D01*
X160382040Y-94500000D01*
X160401826Y-94688257D01*
X160460320Y-94868284D01*
X160554966Y-95032216D01*
X160681629Y-95172889D01*
X160834769Y-95284151D01*
X161007697Y-95361144D01*
X161192852Y-95400500D01*
X161192854Y-95400500D01*
X161382146Y-95400500D01*
X161382148Y-95400500D01*
X161505583Y-95374262D01*
X161567303Y-95361144D01*
X161704633Y-95300000D01*
X169994540Y-95300000D01*
X170014326Y-95488257D01*
X170072820Y-95668284D01*
X170167466Y-95832216D01*
X170294129Y-95972889D01*
X170447269Y-96084151D01*
X170620197Y-96161144D01*
X170805352Y-96200500D01*
X170805354Y-96200500D01*
X170994646Y-96200500D01*
X170994648Y-96200500D01*
X171118083Y-96174262D01*
X171179803Y-96161144D01*
X171352730Y-96084151D01*
X171384397Y-96061144D01*
X171505870Y-95972889D01*
X171632533Y-95832216D01*
X171727179Y-95668284D01*
X171744216Y-95615849D01*
X171785674Y-95488256D01*
X171805460Y-95300000D01*
X171785674Y-95111744D01*
X171745745Y-94988855D01*
X171727179Y-94931715D01*
X171632533Y-94767783D01*
X171505870Y-94627110D01*
X171352730Y-94515848D01*
X171179802Y-94438855D01*
X170994648Y-94399500D01*
X170994646Y-94399500D01*
X170805354Y-94399500D01*
X170805352Y-94399500D01*
X170620197Y-94438855D01*
X170447269Y-94515848D01*
X170294129Y-94627110D01*
X170167466Y-94767783D01*
X170072820Y-94931715D01*
X170014326Y-95111742D01*
X169994540Y-95300000D01*
X161704633Y-95300000D01*
X161740230Y-95284151D01*
X161819733Y-95226389D01*
X161893370Y-95172889D01*
X162020033Y-95032216D01*
X162114679Y-94868284D01*
X162126561Y-94831715D01*
X162173174Y-94688256D01*
X162192960Y-94500000D01*
X162173174Y-94311744D01*
X162137912Y-94203218D01*
X162114679Y-94131715D01*
X162020033Y-93967783D01*
X161893370Y-93827110D01*
X161740230Y-93715848D01*
X161567302Y-93638855D01*
X161382148Y-93599500D01*
X161382146Y-93599500D01*
X161192854Y-93599500D01*
X161192852Y-93599500D01*
X161007697Y-93638855D01*
X160834769Y-93715848D01*
X160681629Y-93827110D01*
X160554966Y-93967783D01*
X160460320Y-94131715D01*
X160401826Y-94311742D01*
X160382040Y-94500000D01*
X151268556Y-94500000D01*
X151152730Y-94415848D01*
X150979802Y-94338855D01*
X150794648Y-94299500D01*
X150794646Y-94299500D01*
X150605354Y-94299500D01*
X150605352Y-94299500D01*
X150420197Y-94338855D01*
X150247269Y-94415848D01*
X150094129Y-94527110D01*
X149967466Y-94667783D01*
X149872820Y-94831715D01*
X149833740Y-94951993D01*
X149795514Y-95008665D01*
X149733066Y-95036468D01*
X149665373Y-95026954D01*
X149579802Y-94988855D01*
X149394648Y-94949500D01*
X149394646Y-94949500D01*
X149205354Y-94949500D01*
X149205352Y-94949500D01*
X149020197Y-94988855D01*
X148847269Y-95065848D01*
X148694129Y-95177110D01*
X148567466Y-95317783D01*
X148472820Y-95481715D01*
X148414326Y-95661742D01*
X148394540Y-95850000D01*
X140604834Y-95850000D01*
X140579802Y-95838855D01*
X140394648Y-95799500D01*
X140394646Y-95799500D01*
X140205354Y-95799500D01*
X140205352Y-95799500D01*
X140020197Y-95838855D01*
X139847269Y-95915848D01*
X139694129Y-96027110D01*
X139567466Y-96167783D01*
X139472820Y-96331715D01*
X139414326Y-96511742D01*
X139394540Y-96700000D01*
X136605460Y-96700000D01*
X136585674Y-96511744D01*
X136527179Y-96331716D01*
X136527179Y-96331715D01*
X136432533Y-96167783D01*
X136305870Y-96027110D01*
X136152730Y-95915848D01*
X135979802Y-95838855D01*
X135794648Y-95799500D01*
X135794646Y-95799500D01*
X135605354Y-95799500D01*
X135605352Y-95799500D01*
X135420197Y-95838855D01*
X135247269Y-95915848D01*
X135094129Y-96027110D01*
X134967466Y-96167783D01*
X134872820Y-96331715D01*
X134814326Y-96511742D01*
X134794540Y-96700000D01*
X132904516Y-96700000D01*
X132936024Y-96596132D01*
X132955341Y-96400000D01*
X132936024Y-96203868D01*
X132878814Y-96015273D01*
X132785910Y-95841462D01*
X132660883Y-95689117D01*
X132508538Y-95564090D01*
X132360072Y-95484733D01*
X132334726Y-95471185D01*
X132146133Y-95413976D01*
X131950000Y-95394659D01*
X131753866Y-95413976D01*
X131565273Y-95471185D01*
X131391463Y-95564089D01*
X131239117Y-95689117D01*
X131114089Y-95841463D01*
X131021185Y-96015273D01*
X130963976Y-96203866D01*
X130944659Y-96400000D01*
X125500500Y-96400000D01*
X125500500Y-94530000D01*
X132680000Y-94530000D01*
X132680000Y-94880710D01*
X132695419Y-95032339D01*
X132756303Y-95226389D01*
X132855003Y-95404214D01*
X132987479Y-95558531D01*
X133148307Y-95683021D01*
X133330905Y-95772589D01*
X133429999Y-95798246D01*
X133430000Y-95798247D01*
X133430000Y-94530000D01*
X133930000Y-94530000D01*
X133930000Y-95803366D01*
X133931948Y-95803067D01*
X134122663Y-95732435D01*
X134295263Y-95624854D01*
X134442669Y-95484733D01*
X134558855Y-95317805D01*
X134639059Y-95130907D01*
X134680000Y-94931689D01*
X134680000Y-94530000D01*
X141320000Y-94530000D01*
X141320000Y-94880710D01*
X141335419Y-95032339D01*
X141396303Y-95226389D01*
X141495003Y-95404214D01*
X141627479Y-95558531D01*
X141788307Y-95683021D01*
X141970905Y-95772589D01*
X142069999Y-95798246D01*
X142070000Y-95798247D01*
X142070000Y-94530000D01*
X142570000Y-94530000D01*
X142570000Y-95803366D01*
X142571948Y-95803067D01*
X142762663Y-95732435D01*
X142935263Y-95624854D01*
X143082669Y-95484733D01*
X143198855Y-95317805D01*
X143279059Y-95130907D01*
X143320000Y-94931689D01*
X143320000Y-94530000D01*
X142570000Y-94530000D01*
X142070000Y-94530000D01*
X141320000Y-94530000D01*
X134680000Y-94530000D01*
X133930000Y-94530000D01*
X133430000Y-94530000D01*
X132680000Y-94530000D01*
X125500500Y-94530000D01*
X125500500Y-94030000D01*
X132680000Y-94030000D01*
X133430000Y-94030000D01*
X133430000Y-92761753D01*
X133930000Y-92761753D01*
X133930000Y-94030000D01*
X134598601Y-94030000D01*
X134648003Y-94040266D01*
X134689225Y-94069364D01*
X134775244Y-94161469D01*
X134898670Y-94236526D01*
X135037772Y-94275500D01*
X135145949Y-94275500D01*
X135253111Y-94260771D01*
X135385609Y-94203219D01*
X135497665Y-94112054D01*
X135580971Y-93994037D01*
X135629346Y-93857921D01*
X135634252Y-93786199D01*
X140360796Y-93786199D01*
X140389015Y-93921997D01*
X140390186Y-93927634D01*
X140456646Y-94055896D01*
X140555244Y-94161469D01*
X140678670Y-94236526D01*
X140817772Y-94275500D01*
X140925949Y-94275500D01*
X141033111Y-94260771D01*
X141165609Y-94203219D01*
X141277665Y-94112054D01*
X141298532Y-94082491D01*
X141342787Y-94043903D01*
X141399836Y-94030000D01*
X142070000Y-94030000D01*
X142070000Y-92761753D01*
X142570000Y-92761753D01*
X142570000Y-94030000D01*
X143320000Y-94030000D01*
X143320000Y-93679290D01*
X143304580Y-93527660D01*
X143243696Y-93333610D01*
X143144996Y-93155785D01*
X143012520Y-93001468D01*
X142851692Y-92876978D01*
X142669094Y-92787410D01*
X142570000Y-92761753D01*
X142070000Y-92761753D01*
X142070000Y-92756634D01*
X142068051Y-92756932D01*
X141877336Y-92827564D01*
X141704736Y-92935145D01*
X141557330Y-93075266D01*
X141441142Y-93242197D01*
X141419605Y-93292384D01*
X141382572Y-93340745D01*
X141326978Y-93365636D01*
X141266239Y-93361052D01*
X141240914Y-93344760D01*
X141239318Y-93347386D01*
X141101329Y-93263473D01*
X140962228Y-93224500D01*
X140854051Y-93224500D01*
X140746889Y-93239229D01*
X140614391Y-93296781D01*
X140502333Y-93387946D01*
X140419030Y-93505960D01*
X140370653Y-93642081D01*
X140365748Y-93713801D01*
X140360796Y-93786199D01*
X135634252Y-93786199D01*
X135639204Y-93713801D01*
X135609814Y-93572366D01*
X135543354Y-93444105D01*
X135543353Y-93444103D01*
X135444755Y-93338530D01*
X135321329Y-93263473D01*
X135182228Y-93224500D01*
X135074051Y-93224500D01*
X134966889Y-93239229D01*
X134834390Y-93296781D01*
X134776211Y-93344113D01*
X134728177Y-93368185D01*
X134674469Y-93369679D01*
X134625171Y-93348314D01*
X134589538Y-93308101D01*
X134504996Y-93155785D01*
X134372520Y-93001468D01*
X134211692Y-92876978D01*
X134029094Y-92787410D01*
X133930000Y-92761753D01*
X133430000Y-92761753D01*
X133430000Y-92756634D01*
X133428051Y-92756932D01*
X133237336Y-92827564D01*
X133064736Y-92935145D01*
X132917330Y-93075266D01*
X132801144Y-93242194D01*
X132720940Y-93429092D01*
X132680000Y-93628311D01*
X132680000Y-94030000D01*
X125500500Y-94030000D01*
X125500500Y-91400000D01*
X161345748Y-91400000D01*
X161364684Y-91568056D01*
X161364684Y-91568058D01*
X161364685Y-91568059D01*
X161420542Y-91727690D01*
X161510521Y-91870890D01*
X161630108Y-91990477D01*
X161773308Y-92080456D01*
X161932939Y-92136313D01*
X162014876Y-92145545D01*
X162072748Y-92167635D01*
X162112713Y-92214963D01*
X162124798Y-92275718D01*
X162105987Y-92334737D01*
X162019544Y-92472309D01*
X161963686Y-92631943D01*
X161944750Y-92800000D01*
X161963686Y-92968056D01*
X161963686Y-92968058D01*
X161963687Y-92968059D01*
X162019544Y-93127690D01*
X162109523Y-93270890D01*
X162229110Y-93390477D01*
X162372310Y-93480456D01*
X162531941Y-93536313D01*
X162700000Y-93555249D01*
X162868059Y-93536313D01*
X163027690Y-93480456D01*
X163170890Y-93390477D01*
X163290477Y-93270890D01*
X163335021Y-93199999D01*
X163944750Y-93199999D01*
X163963686Y-93368056D01*
X163963686Y-93368058D01*
X163963687Y-93368059D01*
X164019544Y-93527690D01*
X164109523Y-93670890D01*
X164229110Y-93790477D01*
X164372310Y-93880456D01*
X164531941Y-93936313D01*
X164587960Y-93942624D01*
X164699996Y-93955249D01*
X164699997Y-93955248D01*
X164700000Y-93955249D01*
X164726626Y-93952248D01*
X164781462Y-93958426D01*
X164828191Y-93987787D01*
X164881988Y-94041584D01*
X165025188Y-94131563D01*
X165184819Y-94187420D01*
X165352878Y-94206356D01*
X165520937Y-94187420D01*
X165680568Y-94131563D01*
X165823768Y-94041584D01*
X165943355Y-93921997D01*
X166033334Y-93778797D01*
X166089191Y-93619166D01*
X166108127Y-93451107D01*
X166105646Y-93429092D01*
X166095692Y-93340745D01*
X166089191Y-93283048D01*
X166033334Y-93123417D01*
X165943355Y-92980217D01*
X165823768Y-92860630D01*
X165680568Y-92770651D01*
X165520937Y-92714794D01*
X165520936Y-92714793D01*
X165520934Y-92714793D01*
X165352880Y-92695857D01*
X165326248Y-92698858D01*
X165271411Y-92692678D01*
X165224685Y-92663318D01*
X165170891Y-92609524D01*
X165170890Y-92609523D01*
X165027690Y-92519544D01*
X164868059Y-92463687D01*
X164868058Y-92463686D01*
X164868056Y-92463686D01*
X164699999Y-92444750D01*
X164531943Y-92463686D01*
X164372310Y-92519544D01*
X164229108Y-92609524D01*
X164109524Y-92729108D01*
X164019544Y-92872310D01*
X163963686Y-93031943D01*
X163944750Y-93199999D01*
X163335021Y-93199999D01*
X163380456Y-93127690D01*
X163436313Y-92968059D01*
X163455249Y-92800000D01*
X163436313Y-92631941D01*
X163380456Y-92472310D01*
X163290477Y-92329110D01*
X163170890Y-92209523D01*
X163027690Y-92119544D01*
X162868059Y-92063687D01*
X162868058Y-92063686D01*
X162868056Y-92063686D01*
X162786120Y-92054454D01*
X162728248Y-92032363D01*
X162688284Y-91985035D01*
X162676199Y-91924280D01*
X162695010Y-91865264D01*
X162781454Y-91727690D01*
X162826134Y-91600000D01*
X166144750Y-91600000D01*
X166163686Y-91768056D01*
X166163686Y-91768058D01*
X166163687Y-91768059D01*
X166219544Y-91927690D01*
X166309523Y-92070890D01*
X166429110Y-92190477D01*
X166572310Y-92280456D01*
X166731941Y-92336313D01*
X166843980Y-92348936D01*
X166899999Y-92355249D01*
X166899999Y-92355248D01*
X166900000Y-92355249D01*
X167068059Y-92336313D01*
X167227690Y-92280456D01*
X167370890Y-92190477D01*
X167490477Y-92070890D01*
X167580456Y-91927690D01*
X167636313Y-91768059D01*
X167655249Y-91600000D01*
X167636313Y-91431941D01*
X167580456Y-91272310D01*
X167535020Y-91200000D01*
X170494540Y-91200000D01*
X170514326Y-91388257D01*
X170572820Y-91568284D01*
X170667466Y-91732216D01*
X170794129Y-91872889D01*
X170947269Y-91984151D01*
X171120197Y-92061144D01*
X171305352Y-92100500D01*
X171305354Y-92100500D01*
X171494646Y-92100500D01*
X171494648Y-92100500D01*
X171618083Y-92074262D01*
X171679803Y-92061144D01*
X171852730Y-91984151D01*
X171935136Y-91924280D01*
X172005870Y-91872889D01*
X172056830Y-91816293D01*
X172132533Y-91732216D01*
X172227179Y-91568284D01*
X172285674Y-91388256D01*
X172305460Y-91200000D01*
X172285674Y-91011744D01*
X172237567Y-90863686D01*
X172227179Y-90831715D01*
X172132533Y-90667783D01*
X172005870Y-90527110D01*
X171852730Y-90415848D01*
X171679802Y-90338855D01*
X171494648Y-90299500D01*
X171494646Y-90299500D01*
X171305354Y-90299500D01*
X171305352Y-90299500D01*
X171120197Y-90338855D01*
X170947269Y-90415848D01*
X170794129Y-90527110D01*
X170667466Y-90667783D01*
X170572820Y-90831715D01*
X170514326Y-91011742D01*
X170494540Y-91200000D01*
X167535020Y-91200000D01*
X167490477Y-91129110D01*
X167370890Y-91009523D01*
X167227690Y-90919544D01*
X167068059Y-90863687D01*
X167068058Y-90863686D01*
X167068056Y-90863686D01*
X166900000Y-90844750D01*
X166731943Y-90863686D01*
X166572310Y-90919544D01*
X166429108Y-91009524D01*
X166309524Y-91129108D01*
X166219544Y-91272310D01*
X166163686Y-91431943D01*
X166144750Y-91600000D01*
X162826134Y-91600000D01*
X162837311Y-91568059D01*
X162856247Y-91400000D01*
X162837311Y-91231941D01*
X162795706Y-91113042D01*
X162789529Y-91058206D01*
X162807755Y-91006118D01*
X162846775Y-90967097D01*
X162908639Y-90928226D01*
X163028226Y-90808639D01*
X163118205Y-90665439D01*
X163174062Y-90505808D01*
X163192998Y-90337749D01*
X163174062Y-90169690D01*
X163118205Y-90010059D01*
X163028226Y-89866859D01*
X162908639Y-89747272D01*
X162765439Y-89657293D01*
X162605808Y-89601436D01*
X162605807Y-89601435D01*
X162605805Y-89601435D01*
X162504029Y-89589967D01*
X162448061Y-89569200D01*
X162420774Y-89538665D01*
X162389686Y-89573454D01*
X162333718Y-89594221D01*
X162269692Y-89601435D01*
X162110059Y-89657293D01*
X161966857Y-89747273D01*
X161847273Y-89866857D01*
X161757293Y-90010059D01*
X161701435Y-90169692D01*
X161682499Y-90337748D01*
X161701435Y-90505805D01*
X161743039Y-90624704D01*
X161749217Y-90679541D01*
X161730991Y-90731629D01*
X161691971Y-90770651D01*
X161630106Y-90809524D01*
X161510522Y-90929108D01*
X161420542Y-91072310D01*
X161364684Y-91231943D01*
X161345748Y-91400000D01*
X125500500Y-91400000D01*
X125500500Y-90350000D01*
X132680000Y-90350000D01*
X132680000Y-90450710D01*
X132695419Y-90602339D01*
X132756303Y-90796389D01*
X132855003Y-90974214D01*
X132987479Y-91128531D01*
X133148307Y-91253021D01*
X133330905Y-91342589D01*
X133429999Y-91368246D01*
X133430000Y-91368247D01*
X133430000Y-90350000D01*
X133930000Y-90350000D01*
X133930000Y-91373366D01*
X133931948Y-91373067D01*
X134122663Y-91302435D01*
X134295263Y-91194854D01*
X134442669Y-91054733D01*
X134558855Y-90887805D01*
X134639059Y-90700907D01*
X134680000Y-90501689D01*
X134680000Y-90350000D01*
X141320000Y-90350000D01*
X141320000Y-90450710D01*
X141335419Y-90602339D01*
X141396303Y-90796389D01*
X141495003Y-90974214D01*
X141627479Y-91128531D01*
X141788307Y-91253021D01*
X141970905Y-91342589D01*
X142069999Y-91368246D01*
X142070000Y-91368247D01*
X142070000Y-90350000D01*
X142570000Y-90350000D01*
X142570000Y-91373366D01*
X142571948Y-91373067D01*
X142762663Y-91302435D01*
X142935263Y-91194854D01*
X143082669Y-91054733D01*
X143198855Y-90887805D01*
X143279059Y-90700907D01*
X143320000Y-90501689D01*
X143320000Y-90350000D01*
X142570000Y-90350000D01*
X142070000Y-90350000D01*
X141320000Y-90350000D01*
X134680000Y-90350000D01*
X133930000Y-90350000D01*
X133430000Y-90350000D01*
X132680000Y-90350000D01*
X125500500Y-90350000D01*
X125500500Y-89850000D01*
X132680000Y-89850000D01*
X133430000Y-89850000D01*
X133430000Y-88831753D01*
X133930000Y-88831753D01*
X133930000Y-89850000D01*
X134680000Y-89850000D01*
X141320000Y-89850000D01*
X142070000Y-89850000D01*
X142070000Y-88831753D01*
X142570000Y-88831753D01*
X142570000Y-89850000D01*
X143320000Y-89850000D01*
X143320000Y-89749290D01*
X143304580Y-89597660D01*
X143243696Y-89403610D01*
X143186188Y-89300000D01*
X147868586Y-89300000D01*
X147888178Y-89473878D01*
X147888178Y-89473880D01*
X147888179Y-89473881D01*
X147945971Y-89639042D01*
X148039067Y-89787203D01*
X148162797Y-89910933D01*
X148310958Y-90004029D01*
X148476119Y-90061821D01*
X148528230Y-90067692D01*
X148606394Y-90076500D01*
X148606397Y-90076500D01*
X148693603Y-90076500D01*
X148693606Y-90076500D01*
X148758741Y-90069160D01*
X148823881Y-90061821D01*
X148989042Y-90004029D01*
X149137203Y-89910933D01*
X149260933Y-89787203D01*
X149354029Y-89639042D01*
X149411821Y-89473881D01*
X149431413Y-89300000D01*
X149411821Y-89126119D01*
X149354029Y-88960958D01*
X149260933Y-88812797D01*
X149137203Y-88689067D01*
X148989042Y-88595971D01*
X148823881Y-88538179D01*
X148823880Y-88538178D01*
X148823878Y-88538178D01*
X148693606Y-88523500D01*
X148693603Y-88523500D01*
X148606397Y-88523500D01*
X148606394Y-88523500D01*
X148476121Y-88538178D01*
X148310957Y-88595971D01*
X148162795Y-88689068D01*
X148039068Y-88812795D01*
X147945971Y-88960957D01*
X147888178Y-89126121D01*
X147868586Y-89300000D01*
X143186188Y-89300000D01*
X143144996Y-89225785D01*
X143012520Y-89071468D01*
X142851692Y-88946978D01*
X142669094Y-88857410D01*
X142570000Y-88831753D01*
X142070000Y-88831753D01*
X142070000Y-88826634D01*
X142068051Y-88826932D01*
X141877336Y-88897564D01*
X141704736Y-89005145D01*
X141557330Y-89145266D01*
X141441144Y-89312194D01*
X141360940Y-89499092D01*
X141320000Y-89698311D01*
X141320000Y-89850000D01*
X134680000Y-89850000D01*
X134680000Y-89749290D01*
X134664580Y-89597660D01*
X134603696Y-89403610D01*
X134504996Y-89225785D01*
X134372520Y-89071468D01*
X134211692Y-88946978D01*
X134029094Y-88857410D01*
X133930000Y-88831753D01*
X133430000Y-88831753D01*
X133430000Y-88826634D01*
X133428051Y-88826932D01*
X133237336Y-88897564D01*
X133064736Y-89005145D01*
X132917330Y-89145266D01*
X132801144Y-89312194D01*
X132720940Y-89499092D01*
X132680000Y-89698311D01*
X132680000Y-89850000D01*
X125500500Y-89850000D01*
X125500500Y-84504428D01*
X125500816Y-84495582D01*
X125503060Y-84464201D01*
X125515130Y-84295436D01*
X125517646Y-84277938D01*
X125559356Y-84086199D01*
X125564333Y-84069248D01*
X125632911Y-83885385D01*
X125640259Y-83869298D01*
X125688727Y-83780535D01*
X125734291Y-83697089D01*
X125743845Y-83682221D01*
X125861448Y-83525123D01*
X125873020Y-83511769D01*
X126011769Y-83373020D01*
X126025123Y-83361448D01*
X126182221Y-83243845D01*
X126197089Y-83234291D01*
X126369298Y-83140258D01*
X126385385Y-83132911D01*
X126569248Y-83064333D01*
X126586199Y-83059356D01*
X126777938Y-83017646D01*
X126795436Y-83015130D01*
X126995581Y-83000816D01*
X127004428Y-83000500D01*
X127065892Y-83000500D01*
X127934108Y-83000500D01*
X127993038Y-83000500D01*
X128006922Y-83001280D01*
X128097266Y-83011459D01*
X128124331Y-83017636D01*
X128203540Y-83045352D01*
X128228553Y-83057398D01*
X128299606Y-83102043D01*
X128321313Y-83119355D01*
X128380644Y-83178686D01*
X128397957Y-83200395D01*
X128442600Y-83271444D01*
X128454648Y-83296462D01*
X128482362Y-83375666D01*
X128488540Y-83402735D01*
X128498720Y-83493077D01*
X128499500Y-83506962D01*
X128499500Y-85651251D01*
X128535962Y-85951550D01*
X128608357Y-86245267D01*
X128704494Y-86498759D01*
X128715627Y-86528113D01*
X128841293Y-86767548D01*
X128856210Y-86795970D01*
X129028051Y-87044926D01*
X129102632Y-87129110D01*
X129228648Y-87271352D01*
X129311198Y-87344485D01*
X129455073Y-87471948D01*
X129455076Y-87471950D01*
X129704033Y-87643792D01*
X129971887Y-87784373D01*
X130254734Y-87891643D01*
X130548449Y-87964037D01*
X130848748Y-88000500D01*
X130964201Y-88000500D01*
X131000000Y-88000500D01*
X131065892Y-88000500D01*
X138955954Y-88000500D01*
X138957165Y-88000585D01*
X138965183Y-88000569D01*
X138965188Y-88000570D01*
X139000464Y-88000500D01*
X139000671Y-88000500D01*
X139043930Y-88000500D01*
X139045126Y-88000411D01*
X139646532Y-87999225D01*
X139652988Y-87999638D01*
X139657528Y-87999577D01*
X139657532Y-87999578D01*
X139689943Y-87999146D01*
X139691120Y-87999136D01*
X139723458Y-87999074D01*
X139723465Y-87999072D01*
X139728018Y-87999064D01*
X139734445Y-87998554D01*
X140337343Y-87990537D01*
X140348655Y-87991074D01*
X140350239Y-87991018D01*
X140350241Y-87991019D01*
X140379362Y-87990006D01*
X140381964Y-87989943D01*
X140411081Y-87989557D01*
X140411086Y-87989556D01*
X140412675Y-87989535D01*
X140423931Y-87988456D01*
X141024140Y-87967591D01*
X141038056Y-87967889D01*
X141038754Y-87967944D01*
X141065025Y-87966226D01*
X141068720Y-87966041D01*
X141094995Y-87965129D01*
X141095685Y-87965004D01*
X141109494Y-87963318D01*
X141703099Y-87924515D01*
X141715991Y-87924346D01*
X141719251Y-87924473D01*
X141742890Y-87922006D01*
X141747586Y-87921607D01*
X141771290Y-87920059D01*
X141774483Y-87919384D01*
X141787203Y-87917382D01*
X142371050Y-87856467D01*
X142383022Y-87855803D01*
X142388539Y-87855765D01*
X142409766Y-87852559D01*
X142415379Y-87851843D01*
X142436756Y-87849613D01*
X142442114Y-87848263D01*
X142453867Y-87845900D01*
X143025322Y-87759616D01*
X143036491Y-87758445D01*
X143043935Y-87758005D01*
X143063099Y-87754081D01*
X143069407Y-87752959D01*
X143088756Y-87750039D01*
X143095879Y-87747892D01*
X143106783Y-87745139D01*
X143663787Y-87631119D01*
X143674295Y-87629435D01*
X143683200Y-87628397D01*
X143700631Y-87623780D01*
X143707458Y-87622179D01*
X143725138Y-87618561D01*
X143733596Y-87615523D01*
X143743724Y-87612370D01*
X143790440Y-87600000D01*
X160644750Y-87600000D01*
X160663686Y-87768056D01*
X160663686Y-87768058D01*
X160663687Y-87768059D01*
X160719544Y-87927690D01*
X160809523Y-88070890D01*
X160929110Y-88190477D01*
X161072310Y-88280456D01*
X161231941Y-88336313D01*
X161333517Y-88347758D01*
X161399999Y-88355249D01*
X161399999Y-88355248D01*
X161400000Y-88355249D01*
X161455615Y-88348982D01*
X161521315Y-88341580D01*
X161576153Y-88347758D01*
X161622880Y-88377118D01*
X161652240Y-88423845D01*
X161658419Y-88478683D01*
X161644750Y-88599999D01*
X161663686Y-88768056D01*
X161663686Y-88768058D01*
X161663687Y-88768059D01*
X161719544Y-88927690D01*
X161809523Y-89070890D01*
X161929110Y-89190477D01*
X162072310Y-89280456D01*
X162231941Y-89336313D01*
X162275148Y-89341181D01*
X162333718Y-89347781D01*
X162389686Y-89368547D01*
X162416973Y-89399082D01*
X162448063Y-89364293D01*
X162504029Y-89343527D01*
X162568059Y-89336313D01*
X162727690Y-89280456D01*
X162870890Y-89190477D01*
X162990477Y-89070890D01*
X163080456Y-88927690D01*
X163136313Y-88768059D01*
X163143982Y-88699999D01*
X165644750Y-88699999D01*
X165663686Y-88868056D01*
X165663686Y-88868058D01*
X165663687Y-88868059D01*
X165719544Y-89027690D01*
X165809523Y-89170890D01*
X165929110Y-89290477D01*
X166072310Y-89380456D01*
X166231941Y-89436313D01*
X166400000Y-89455249D01*
X166568059Y-89436313D01*
X166727690Y-89380456D01*
X166870890Y-89290477D01*
X166990477Y-89170890D01*
X167080456Y-89027690D01*
X167136313Y-88868059D01*
X167155249Y-88700000D01*
X167136313Y-88531941D01*
X167080456Y-88372310D01*
X166990477Y-88229110D01*
X166870890Y-88109523D01*
X166727690Y-88019544D01*
X166568059Y-87963687D01*
X166568058Y-87963686D01*
X166568056Y-87963686D01*
X166400000Y-87944750D01*
X166231943Y-87963686D01*
X166072310Y-88019544D01*
X165929108Y-88109524D01*
X165809524Y-88229108D01*
X165719544Y-88372310D01*
X165663686Y-88531943D01*
X165644750Y-88699999D01*
X163143982Y-88699999D01*
X163155249Y-88600000D01*
X163136313Y-88431941D01*
X163080456Y-88272310D01*
X162990477Y-88129110D01*
X162870890Y-88009523D01*
X162727690Y-87919544D01*
X162568059Y-87863687D01*
X162568058Y-87863686D01*
X162568056Y-87863686D01*
X162399999Y-87844750D01*
X162278683Y-87858419D01*
X162223845Y-87852240D01*
X162177118Y-87822880D01*
X162147758Y-87776153D01*
X162141580Y-87721315D01*
X162155249Y-87599999D01*
X162148936Y-87543980D01*
X162136313Y-87431941D01*
X162080456Y-87272310D01*
X161990477Y-87129110D01*
X161870890Y-87009523D01*
X161727690Y-86919544D01*
X161568059Y-86863687D01*
X161568058Y-86863686D01*
X161568056Y-86863686D01*
X161400000Y-86844750D01*
X161231943Y-86863686D01*
X161072310Y-86919544D01*
X160929108Y-87009524D01*
X160809524Y-87129108D01*
X160719544Y-87272310D01*
X160663686Y-87431943D01*
X160644750Y-87600000D01*
X143790440Y-87600000D01*
X144284664Y-87469135D01*
X144294608Y-87466936D01*
X144304497Y-87465175D01*
X144320596Y-87459854D01*
X144327736Y-87457730D01*
X144344158Y-87453383D01*
X144353412Y-87449451D01*
X144362960Y-87445853D01*
X144886514Y-87272834D01*
X144896099Y-87270090D01*
X144906396Y-87267588D01*
X144921648Y-87261474D01*
X144928852Y-87258842D01*
X144944464Y-87253684D01*
X144953922Y-87248974D01*
X144963045Y-87244882D01*
X145468418Y-87042330D01*
X145477847Y-87038987D01*
X145487912Y-87035871D01*
X145502772Y-87028817D01*
X145509812Y-87025740D01*
X145514260Y-87023957D01*
X145525093Y-87019616D01*
X145534223Y-87014339D01*
X145543086Y-87009686D01*
X146029830Y-86778684D01*
X146039252Y-86774681D01*
X146048571Y-86771171D01*
X146063506Y-86762949D01*
X146070125Y-86759561D01*
X146085531Y-86752251D01*
X146093825Y-86746745D01*
X146102565Y-86741451D01*
X146570780Y-86483747D01*
X146580343Y-86479010D01*
X146588440Y-86475426D01*
X146603844Y-86465774D01*
X146609858Y-86462239D01*
X146625755Y-86453491D01*
X146632824Y-86448160D01*
X146641596Y-86442123D01*
X146708833Y-86400000D01*
X167244750Y-86400000D01*
X167263686Y-86568056D01*
X167263686Y-86568058D01*
X167263687Y-86568059D01*
X167319544Y-86727690D01*
X167409523Y-86870890D01*
X167529110Y-86990477D01*
X167672310Y-87080456D01*
X167831941Y-87136313D01*
X168000000Y-87155249D01*
X168168059Y-87136313D01*
X168327690Y-87080456D01*
X168470890Y-86990477D01*
X168590477Y-86870890D01*
X168680456Y-86727690D01*
X168736313Y-86568059D01*
X168755249Y-86400000D01*
X168736313Y-86231941D01*
X168680456Y-86072310D01*
X168590477Y-85929110D01*
X168561367Y-85900000D01*
X177744750Y-85900000D01*
X177763686Y-86068056D01*
X177763686Y-86068058D01*
X177763687Y-86068059D01*
X177819544Y-86227690D01*
X177909523Y-86370890D01*
X178029110Y-86490477D01*
X178172310Y-86580456D01*
X178331941Y-86636313D01*
X178500000Y-86655249D01*
X178668059Y-86636313D01*
X178827690Y-86580456D01*
X178970890Y-86490477D01*
X179090477Y-86370890D01*
X179180456Y-86227690D01*
X179236313Y-86068059D01*
X179255249Y-85900000D01*
X179236313Y-85731941D01*
X179180456Y-85572310D01*
X179090477Y-85429110D01*
X178970890Y-85309523D01*
X178827690Y-85219544D01*
X178668059Y-85163687D01*
X178668058Y-85163686D01*
X178668056Y-85163686D01*
X178500000Y-85144750D01*
X178331943Y-85163686D01*
X178172310Y-85219544D01*
X178029108Y-85309524D01*
X177909524Y-85429108D01*
X177819544Y-85572310D01*
X177763686Y-85731943D01*
X177744750Y-85900000D01*
X168561367Y-85900000D01*
X168470890Y-85809523D01*
X168327690Y-85719544D01*
X168168059Y-85663687D01*
X168168058Y-85663686D01*
X168168056Y-85663686D01*
X168000000Y-85644750D01*
X167831943Y-85663686D01*
X167672310Y-85719544D01*
X167529108Y-85809524D01*
X167409524Y-85929108D01*
X167319544Y-86072310D01*
X167263686Y-86231943D01*
X167244750Y-86400000D01*
X146708833Y-86400000D01*
X147091805Y-86160074D01*
X147101638Y-86154522D01*
X147108149Y-86151228D01*
X147124248Y-86139944D01*
X147129583Y-86136408D01*
X147146271Y-86125953D01*
X147146270Y-86125953D01*
X147146276Y-86125950D01*
X147151865Y-86121217D01*
X147160813Y-86114318D01*
X147593933Y-85810777D01*
X147604118Y-85804353D01*
X147608853Y-85801680D01*
X147625917Y-85788519D01*
X147630469Y-85785172D01*
X147648129Y-85772797D01*
X147652098Y-85769067D01*
X147661244Y-85761278D01*
X148078764Y-85439314D01*
X148089352Y-85431995D01*
X148092161Y-85430263D01*
X148110360Y-85415067D01*
X148114061Y-85412097D01*
X148132842Y-85397615D01*
X148135142Y-85395247D01*
X148144582Y-85386492D01*
X148548161Y-85049518D01*
X148559214Y-85041290D01*
X148560046Y-85040741D01*
X148579471Y-85023454D01*
X148582405Y-85020926D01*
X148602338Y-85004285D01*
X148602997Y-85003552D01*
X148612796Y-84993801D01*
X149004330Y-84645403D01*
X149014018Y-84637766D01*
X149014753Y-84637079D01*
X149014757Y-84637077D01*
X149035516Y-84617699D01*
X149037687Y-84615721D01*
X149058868Y-84596875D01*
X149058873Y-84596868D01*
X149059619Y-84596205D01*
X149068118Y-84587268D01*
X149449715Y-84231086D01*
X149456483Y-84225530D01*
X149458714Y-84223379D01*
X149458722Y-84223374D01*
X149480978Y-84201924D01*
X149482243Y-84200724D01*
X149504881Y-84179596D01*
X149504887Y-84179587D01*
X149507148Y-84177478D01*
X149513058Y-84171010D01*
X149886818Y-83810826D01*
X149890392Y-83807820D01*
X149894469Y-83803827D01*
X149894474Y-83803824D01*
X149898379Y-83800000D01*
X161494540Y-83800000D01*
X161514326Y-83988257D01*
X161572820Y-84168284D01*
X161667466Y-84332216D01*
X161794129Y-84472889D01*
X161947269Y-84584151D01*
X162120197Y-84661144D01*
X162305352Y-84700500D01*
X162305354Y-84700500D01*
X162494646Y-84700500D01*
X162494648Y-84700500D01*
X162618083Y-84674262D01*
X162679803Y-84661144D01*
X162749193Y-84630248D01*
X162852727Y-84584153D01*
X162852730Y-84584151D01*
X162977117Y-84493778D01*
X163024219Y-84472808D01*
X163075781Y-84472808D01*
X163122882Y-84493778D01*
X163205942Y-84554125D01*
X163247272Y-84584153D01*
X163420197Y-84661144D01*
X163605352Y-84700500D01*
X163605354Y-84700500D01*
X163794646Y-84700500D01*
X163794648Y-84700500D01*
X163918083Y-84674262D01*
X163979803Y-84661144D01*
X164049193Y-84630248D01*
X164152727Y-84584153D01*
X164152730Y-84584151D01*
X164277117Y-84493778D01*
X164324219Y-84472808D01*
X164375781Y-84472808D01*
X164422882Y-84493778D01*
X164505942Y-84554125D01*
X164547272Y-84584153D01*
X164720197Y-84661144D01*
X164905352Y-84700500D01*
X164905354Y-84700500D01*
X165094646Y-84700500D01*
X165094648Y-84700500D01*
X165218083Y-84674262D01*
X165279803Y-84661144D01*
X165349193Y-84630248D01*
X165452727Y-84584153D01*
X165452730Y-84584151D01*
X165577117Y-84493778D01*
X165624219Y-84472808D01*
X165675781Y-84472808D01*
X165722882Y-84493778D01*
X165805942Y-84554125D01*
X165847272Y-84584153D01*
X166020197Y-84661144D01*
X166205352Y-84700500D01*
X166205354Y-84700500D01*
X166394646Y-84700500D01*
X166394648Y-84700500D01*
X166518083Y-84674262D01*
X166579803Y-84661144D01*
X166649193Y-84630248D01*
X166752727Y-84584153D01*
X166752730Y-84584151D01*
X166877117Y-84493778D01*
X166924219Y-84472808D01*
X166975781Y-84472808D01*
X167022882Y-84493778D01*
X167105942Y-84554125D01*
X167147272Y-84584153D01*
X167320197Y-84661144D01*
X167505352Y-84700500D01*
X167505354Y-84700500D01*
X167694646Y-84700500D01*
X167694648Y-84700500D01*
X167818083Y-84674262D01*
X167879803Y-84661144D01*
X168052730Y-84584151D01*
X168162460Y-84504428D01*
X168205870Y-84472889D01*
X168332533Y-84332216D01*
X168427179Y-84168284D01*
X168456663Y-84077542D01*
X168485674Y-83988256D01*
X168505460Y-83800000D01*
X168485674Y-83611744D01*
X168441240Y-83474991D01*
X168427179Y-83431715D01*
X168332533Y-83267783D01*
X168205870Y-83127110D01*
X168052730Y-83015848D01*
X167879802Y-82938855D01*
X167694648Y-82899500D01*
X167694646Y-82899500D01*
X167505354Y-82899500D01*
X167505352Y-82899500D01*
X167320197Y-82938855D01*
X167147269Y-83015848D01*
X167022885Y-83106218D01*
X166975781Y-83127190D01*
X166924219Y-83127190D01*
X166877115Y-83106218D01*
X166752730Y-83015848D01*
X166579802Y-82938855D01*
X166394648Y-82899500D01*
X166394646Y-82899500D01*
X166205354Y-82899500D01*
X166205352Y-82899500D01*
X166020197Y-82938855D01*
X165847269Y-83015848D01*
X165722885Y-83106218D01*
X165675781Y-83127190D01*
X165624219Y-83127190D01*
X165577115Y-83106218D01*
X165452730Y-83015848D01*
X165279802Y-82938855D01*
X165094648Y-82899500D01*
X165094646Y-82899500D01*
X164905354Y-82899500D01*
X164905352Y-82899500D01*
X164720197Y-82938855D01*
X164547269Y-83015848D01*
X164422885Y-83106218D01*
X164375781Y-83127190D01*
X164324219Y-83127190D01*
X164277115Y-83106218D01*
X164152730Y-83015848D01*
X163979802Y-82938855D01*
X163794648Y-82899500D01*
X163794646Y-82899500D01*
X163605354Y-82899500D01*
X163605352Y-82899500D01*
X163420197Y-82938855D01*
X163247269Y-83015848D01*
X163122885Y-83106218D01*
X163075781Y-83127190D01*
X163024219Y-83127190D01*
X162977115Y-83106218D01*
X162852730Y-83015848D01*
X162679802Y-82938855D01*
X162494648Y-82899500D01*
X162494646Y-82899500D01*
X162305354Y-82899500D01*
X162305352Y-82899500D01*
X162120197Y-82938855D01*
X161947269Y-83015848D01*
X161794129Y-83127110D01*
X161667466Y-83267783D01*
X161572820Y-83431715D01*
X161514326Y-83611742D01*
X161494540Y-83800000D01*
X149898379Y-83800000D01*
X149918297Y-83780494D01*
X149918818Y-83779988D01*
X149942963Y-83756722D01*
X149942967Y-83756715D01*
X149947076Y-83752757D01*
X149950189Y-83749265D01*
X150375747Y-83332560D01*
X150375747Y-83332559D01*
X150778565Y-82938116D01*
X150779243Y-82937459D01*
X151206633Y-82525592D01*
X151207914Y-82524377D01*
X151636745Y-82124107D01*
X151638774Y-82122257D01*
X152071355Y-81737334D01*
X152074198Y-81734885D01*
X152512646Y-81368799D01*
X152516336Y-81365837D01*
X152962806Y-81021549D01*
X152967338Y-81018216D01*
X153423829Y-80698296D01*
X153429123Y-80694786D01*
X153897703Y-80401227D01*
X153903729Y-80397685D01*
X154386307Y-80132076D01*
X154392921Y-80128692D01*
X154891470Y-79892089D01*
X154898488Y-79889020D01*
X155414824Y-79682073D01*
X155422001Y-79679452D01*
X155957745Y-79502404D01*
X155964845Y-79500293D01*
X156521256Y-79352961D01*
X156528065Y-79351364D01*
X157105835Y-79233094D01*
X157112156Y-79231970D01*
X157711365Y-79141495D01*
X157716925Y-79140785D01*
X158337065Y-79076084D01*
X158341743Y-79075688D01*
X158981302Y-79033880D01*
X158985079Y-79033692D01*
X159642080Y-79010852D01*
X159644664Y-79010789D01*
X160316537Y-79001855D01*
X160317706Y-79001845D01*
X161000291Y-79000500D01*
X180999542Y-79000500D01*
X181644572Y-79001057D01*
G37*
%TD.AperFunction*%
%TD*%
M02*
