M48
; DRILL file {KiCad 7.0.1} date Sat Jul  1 02:03:31 2023
; FORMAT={-:-/ absolute / inch / decimal}
; #@! TF.CreationDate,2023-07-01T02:03:31-04:00
; #@! TF.GenerationSoftware,Kicad,Pcbnew,7.0.1
; #@! TF.FileFunction,NonPlated,1,4,NPTH
FMAT,2
INCH
; #@! TA.AperFunction,NonPlated,NPTH,ComponentDrill
T1C0.0256
; #@! TA.AperFunction,NonPlated,NPTH,ComponentDrill
T2C0.0454
; #@! TA.AperFunction,NonPlated,NPTH,ComponentDrill
T3C0.0689
; #@! TA.AperFunction,NonPlated,NPTH,ComponentDrill
T4C0.0866
; #@! TA.AperFunction,NonPlated,NPTH,ComponentDrill
T5C0.1181
; #@! TA.AperFunction,NonPlated,NPTH,ComponentDrill
T6C0.1575
%
G90
G05
T1
X5.3193Y-3.6909
X5.5469Y-3.6909
T2
X5.252Y-5.4409
X5.8524Y-3.5157
X7.3681Y-5.4075
T3
X5.3512Y-5.0787
X5.7512Y-5.0787
X6.0992Y-4.3307
X6.0992Y-5.0787
X6.4992Y-4.3307
X6.4992Y-5.0787
X6.8472Y-4.3307
X6.8472Y-5.079
X7.2472Y-4.3307
X7.2472Y-5.079
T4
X5.0394Y-4.1142
X5.5906Y-5.6496
X6.063Y-3.8583
X7.0079Y-5.6496
X7.5591Y-4.1142
T5
X6.1492Y-4.2307
X6.3992Y-4.1307
X6.8972Y-4.2307
X7.1472Y-4.1307
T6
X6.2992Y-4.3307
X7.0472Y-4.3307
T0
M30
