%TF.GenerationSoftware,KiCad,Pcbnew,7.0.1*%
%TF.CreationDate,2023-07-01T02:03:31-04:00*%
%TF.ProjectId,Fluxpad,466c7578-7061-4642-9e6b-696361645f70,rev?*%
%TF.SameCoordinates,Original*%
%TF.FileFunction,Paste,Bot*%
%TF.FilePolarity,Positive*%
%FSLAX46Y46*%
G04 Gerber Fmt 4.6, Leading zero omitted, Abs format (unit mm)*
G04 Created by KiCad (PCBNEW 7.0.1) date 2023-07-01 02:03:31*
%MOMM*%
%LPD*%
G01*
G04 APERTURE LIST*
G04 Aperture macros list*
%AMRoundRect*
0 Rectangle with rounded corners*
0 $1 Rounding radius*
0 $2 $3 $4 $5 $6 $7 $8 $9 X,Y pos of 4 corners*
0 Add a 4 corners polygon primitive as box body*
4,1,4,$2,$3,$4,$5,$6,$7,$8,$9,$2,$3,0*
0 Add four circle primitives for the rounded corners*
1,1,$1+$1,$2,$3*
1,1,$1+$1,$4,$5*
1,1,$1+$1,$6,$7*
1,1,$1+$1,$8,$9*
0 Add four rect primitives between the rounded corners*
20,1,$1+$1,$2,$3,$4,$5,0*
20,1,$1+$1,$4,$5,$6,$7,0*
20,1,$1+$1,$6,$7,$8,$9,0*
20,1,$1+$1,$8,$9,$2,$3,0*%
%AMRotRect*
0 Rectangle, with rotation*
0 The origin of the aperture is its center*
0 $1 length*
0 $2 width*
0 $3 Rotation angle, in degrees counterclockwise*
0 Add horizontal line*
21,1,$1,$2,0,0,$3*%
G04 Aperture macros list end*
%ADD10RoundRect,0.135000X-0.185000X0.135000X-0.185000X-0.135000X0.185000X-0.135000X0.185000X0.135000X0*%
%ADD11RoundRect,0.150000X0.350000X0.225000X-0.350000X0.225000X-0.350000X-0.225000X0.350000X-0.225000X0*%
%ADD12RoundRect,0.200000X0.275000X-0.200000X0.275000X0.200000X-0.275000X0.200000X-0.275000X-0.200000X0*%
%ADD13RoundRect,0.135000X0.135000X0.185000X-0.135000X0.185000X-0.135000X-0.185000X0.135000X-0.185000X0*%
%ADD14RoundRect,0.140000X0.170000X-0.140000X0.170000X0.140000X-0.170000X0.140000X-0.170000X-0.140000X0*%
%ADD15RoundRect,0.140000X0.219203X0.021213X0.021213X0.219203X-0.219203X-0.021213X-0.021213X-0.219203X0*%
%ADD16RoundRect,0.225000X0.250000X-0.225000X0.250000X0.225000X-0.250000X0.225000X-0.250000X-0.225000X0*%
%ADD17R,0.600000X1.450000*%
%ADD18R,0.300000X1.450000*%
%ADD19RoundRect,0.135000X0.185000X-0.135000X0.185000X0.135000X-0.185000X0.135000X-0.185000X-0.135000X0*%
%ADD20RoundRect,0.140000X-0.170000X0.140000X-0.170000X-0.140000X0.170000X-0.140000X0.170000X0.140000X0*%
%ADD21RoundRect,0.249999X-0.395001X0.395001X-0.395001X-0.395001X0.395001X-0.395001X0.395001X0.395001X0*%
%ADD22RoundRect,0.050000X-0.050000X0.387500X-0.050000X-0.387500X0.050000X-0.387500X0.050000X0.387500X0*%
%ADD23RoundRect,0.050000X-0.387500X0.050000X-0.387500X-0.050000X0.387500X-0.050000X0.387500X0.050000X0*%
%ADD24RoundRect,0.200000X-0.200000X-0.275000X0.200000X-0.275000X0.200000X0.275000X-0.200000X0.275000X0*%
%ADD25RoundRect,0.140000X0.140000X0.170000X-0.140000X0.170000X-0.140000X-0.170000X0.140000X-0.170000X0*%
%ADD26RoundRect,0.150000X-0.150000X0.587500X-0.150000X-0.587500X0.150000X-0.587500X0.150000X0.587500X0*%
%ADD27R,2.000000X1.500000*%
%ADD28R,2.000000X3.800000*%
%ADD29RoundRect,0.150000X0.825000X0.150000X-0.825000X0.150000X-0.825000X-0.150000X0.825000X-0.150000X0*%
%ADD30RoundRect,0.250000X-1.000000X-1.025000X1.000000X-1.025000X1.000000X1.025000X-1.000000X1.025000X0*%
%ADD31RotRect,1.400000X1.200000X315.000000*%
%ADD32RoundRect,0.140000X-0.140000X-0.170000X0.140000X-0.170000X0.140000X0.170000X-0.140000X0.170000X0*%
%ADD33RoundRect,0.250000X0.475000X-0.250000X0.475000X0.250000X-0.475000X0.250000X-0.475000X-0.250000X0*%
%ADD34RoundRect,0.150000X-0.512500X-0.150000X0.512500X-0.150000X0.512500X0.150000X-0.512500X0.150000X0*%
%ADD35RoundRect,0.150000X-0.150000X0.650000X-0.150000X-0.650000X0.150000X-0.650000X0.150000X0.650000X0*%
%ADD36RoundRect,0.150000X-0.350000X-0.225000X0.350000X-0.225000X0.350000X0.225000X-0.350000X0.225000X0*%
%ADD37RoundRect,0.140000X-0.219203X-0.021213X-0.021213X-0.219203X0.219203X0.021213X0.021213X0.219203X0*%
G04 APERTURE END LIST*
D10*
%TO.C,R14*%
X160800000Y-120990000D03*
X160800000Y-122010000D03*
%TD*%
D11*
%TO.C,SW4*%
X185900000Y-92725000D03*
X179900000Y-92725000D03*
X185900000Y-96475000D03*
X179900000Y-96475000D03*
%TD*%
D12*
%TO.C,R1*%
X162900000Y-115025000D03*
X162900000Y-113375000D03*
%TD*%
D13*
%TO.C,R10*%
X178510000Y-86800000D03*
X177490000Y-86800000D03*
%TD*%
D14*
%TO.C,C2*%
X159100000Y-125480000D03*
X159100000Y-124520000D03*
%TD*%
D15*
%TO.C,C21*%
X173939411Y-87239411D03*
X173260589Y-86560589D03*
%TD*%
D16*
%TO.C,C6*%
X131950000Y-94575000D03*
X131950000Y-93025000D03*
%TD*%
D10*
%TO.C,R6*%
X161900000Y-120990000D03*
X161900000Y-122010000D03*
%TD*%
%TO.C,R18*%
X164100000Y-117190000D03*
X164100000Y-118210000D03*
%TD*%
D17*
%TO.C,J1*%
X134750000Y-95195000D03*
X135550000Y-95195000D03*
D18*
X136750000Y-95195000D03*
X137750000Y-95195000D03*
X138250000Y-95195000D03*
X139250000Y-95195000D03*
D17*
X140450000Y-95195000D03*
X141250000Y-95195000D03*
X141250000Y-95195000D03*
X140450000Y-95195000D03*
D18*
X139750000Y-95195000D03*
X138750000Y-95195000D03*
X137250000Y-95195000D03*
X136250000Y-95195000D03*
D17*
X135550000Y-95195000D03*
X134750000Y-95195000D03*
%TD*%
D19*
%TO.C,R16*%
X160800000Y-118210000D03*
X160800000Y-117190000D03*
%TD*%
D20*
%TO.C,C9*%
X162000000Y-95820000D03*
X162000000Y-96780000D03*
%TD*%
D12*
%TO.C,R2*%
X181700000Y-115025000D03*
X181700000Y-113375000D03*
%TD*%
D21*
%TO.C,U4*%
X165525000Y-90200000D03*
X163925000Y-90200000D03*
X165525000Y-91800000D03*
X163925000Y-91800000D03*
D22*
X162125000Y-87562500D03*
X162525000Y-87562500D03*
X162925000Y-87562500D03*
X163325000Y-87562500D03*
X163725000Y-87562500D03*
X164125000Y-87562500D03*
X164525000Y-87562500D03*
X164925000Y-87562500D03*
X165325000Y-87562500D03*
X165725000Y-87562500D03*
X166125000Y-87562500D03*
X166525000Y-87562500D03*
X166925000Y-87562500D03*
X167325000Y-87562500D03*
D23*
X168162500Y-88400000D03*
X168162500Y-88800000D03*
X168162500Y-89200000D03*
X168162500Y-89600000D03*
X168162500Y-90000000D03*
X168162500Y-90400000D03*
X168162500Y-90800000D03*
X168162500Y-91200000D03*
X168162500Y-91600000D03*
X168162500Y-92000000D03*
X168162500Y-92400000D03*
X168162500Y-92800000D03*
X168162500Y-93200000D03*
X168162500Y-93600000D03*
D22*
X167325000Y-94437500D03*
X166925000Y-94437500D03*
X166525000Y-94437500D03*
X166125000Y-94437500D03*
X165725000Y-94437500D03*
X165325000Y-94437500D03*
X164925000Y-94437500D03*
X164525000Y-94437500D03*
X164125000Y-94437500D03*
X163725000Y-94437500D03*
X163325000Y-94437500D03*
X162925000Y-94437500D03*
X162525000Y-94437500D03*
X162125000Y-94437500D03*
D23*
X161287500Y-93600000D03*
X161287500Y-93200000D03*
X161287500Y-92800000D03*
X161287500Y-92400000D03*
X161287500Y-92000000D03*
X161287500Y-91600000D03*
X161287500Y-91200000D03*
X161287500Y-90800000D03*
X161287500Y-90400000D03*
X161287500Y-90000000D03*
X161287500Y-89600000D03*
X161287500Y-89200000D03*
X161287500Y-88800000D03*
X161287500Y-88400000D03*
%TD*%
D24*
%TO.C,R15*%
X182775000Y-134005633D03*
X184425000Y-134005633D03*
%TD*%
D25*
%TO.C,C19*%
X158980000Y-93100000D03*
X158020000Y-93100000D03*
%TD*%
D10*
%TO.C,R23*%
X164100000Y-120990000D03*
X164100000Y-122010000D03*
%TD*%
D26*
%TO.C,U2*%
X140050000Y-128262500D03*
X141950000Y-128262500D03*
X141000000Y-130137500D03*
%TD*%
D14*
%TO.C,C18*%
X150700000Y-93580000D03*
X150700000Y-92620000D03*
%TD*%
D27*
%TO.C,U8*%
X132850000Y-105800000D03*
X132850000Y-103500000D03*
D28*
X139150000Y-103500000D03*
D27*
X132850000Y-101200000D03*
%TD*%
D19*
%TO.C,R9*%
X170100000Y-97110000D03*
X170100000Y-96090000D03*
%TD*%
%TO.C,R21*%
X163000000Y-122010000D03*
X163000000Y-120990000D03*
%TD*%
%TO.C,R22*%
X176000000Y-121220000D03*
X176000000Y-120200000D03*
%TD*%
D10*
%TO.C,R8*%
X143850000Y-90490000D03*
X143850000Y-91510000D03*
%TD*%
D14*
%TO.C,C8*%
X162200000Y-86380000D03*
X162200000Y-85420000D03*
%TD*%
%TO.C,C11*%
X166300000Y-86380000D03*
X166300000Y-85420000D03*
%TD*%
D29*
%TO.C,U1*%
X171975000Y-115890000D03*
X171975000Y-117160000D03*
X171975000Y-118430000D03*
X171975000Y-119700000D03*
X171975000Y-120970000D03*
X171975000Y-122240000D03*
X171975000Y-123510000D03*
X167025000Y-123510000D03*
X167025000Y-122240000D03*
X167025000Y-120970000D03*
X167025000Y-119700000D03*
X167025000Y-118430000D03*
X167025000Y-117160000D03*
X167025000Y-115890000D03*
%TD*%
D30*
%TO.C,SW6*%
X152640000Y-107460000D03*
X166090000Y-104920000D03*
%TD*%
D20*
%TO.C,C7*%
X160900000Y-95820000D03*
X160900000Y-96780000D03*
%TD*%
D26*
%TO.C,U5*%
X178050000Y-128268133D03*
X179950000Y-128268133D03*
X179000000Y-130143133D03*
%TD*%
D31*
%TO.C,Y1*%
X171823223Y-87121142D03*
X173378858Y-88676777D03*
X172176777Y-89878858D03*
X170621142Y-88323223D03*
%TD*%
D10*
%TO.C,R19*%
X177100000Y-120200000D03*
X177100000Y-121220000D03*
%TD*%
D32*
%TO.C,C14*%
X169920000Y-92200000D03*
X170880000Y-92200000D03*
%TD*%
D19*
%TO.C,R11*%
X158400000Y-95910000D03*
X158400000Y-94890000D03*
%TD*%
D20*
%TO.C,C12*%
X165700000Y-95820000D03*
X165700000Y-96780000D03*
%TD*%
D14*
%TO.C,C17*%
X159800000Y-86980000D03*
X159800000Y-86020000D03*
%TD*%
D32*
%TO.C,C15*%
X169920000Y-93300000D03*
X170880000Y-93300000D03*
%TD*%
D13*
%TO.C,R13*%
X178510000Y-87900000D03*
X177490000Y-87900000D03*
%TD*%
D25*
%TO.C,C16*%
X158980000Y-92000000D03*
X158020000Y-92000000D03*
%TD*%
D24*
%TO.C,R3*%
X145175000Y-134000000D03*
X146825000Y-134000000D03*
%TD*%
D33*
%TO.C,C5*%
X149300000Y-98850000D03*
X149300000Y-96950000D03*
%TD*%
D34*
%TO.C,U7*%
X142662500Y-102525000D03*
X142662500Y-101575000D03*
X142662500Y-100625000D03*
X144937500Y-100625000D03*
X144937500Y-101575000D03*
X144937500Y-102525000D03*
%TD*%
D19*
%TO.C,R24*%
X174900000Y-121210000D03*
X174900000Y-120190000D03*
%TD*%
%TO.C,R17*%
X163000000Y-118210000D03*
X163000000Y-117190000D03*
%TD*%
D35*
%TO.C,U6*%
X152395000Y-86400000D03*
X153665000Y-86400000D03*
X154935000Y-86400000D03*
X156205000Y-86400000D03*
X156205000Y-93600000D03*
X154935000Y-93600000D03*
X153665000Y-93600000D03*
X152395000Y-93600000D03*
%TD*%
D10*
%TO.C,R20*%
X178200000Y-120200000D03*
X178200000Y-121220000D03*
%TD*%
D19*
%TO.C,R7*%
X132150000Y-91510000D03*
X132150000Y-90490000D03*
%TD*%
D10*
%TO.C,R12*%
X159500000Y-94890000D03*
X159500000Y-95910000D03*
%TD*%
D14*
%TO.C,C1*%
X140100000Y-125480000D03*
X140100000Y-124520000D03*
%TD*%
D30*
%TO.C,SW7*%
X171640000Y-107460000D03*
X185090000Y-104920000D03*
%TD*%
D26*
%TO.C,U3*%
X159050000Y-128262500D03*
X160950000Y-128262500D03*
X160000000Y-130137500D03*
%TD*%
D19*
%TO.C,R5*%
X161900000Y-118210000D03*
X161900000Y-117190000D03*
%TD*%
D36*
%TO.C,SW5*%
X179900000Y-90375000D03*
X185900000Y-90375000D03*
X179900000Y-86625000D03*
X185900000Y-86625000D03*
%TD*%
D25*
%TO.C,C22*%
X178000000Y-125500000D03*
X177040000Y-125500000D03*
%TD*%
D37*
%TO.C,C20*%
X169960589Y-89660589D03*
X170639411Y-90339411D03*
%TD*%
D24*
%TO.C,R4*%
X164175000Y-134000000D03*
X165825000Y-134000000D03*
%TD*%
M02*
