%TF.GenerationSoftware,KiCad,Pcbnew,7.0.1*%
%TF.CreationDate,2023-07-01T02:03:31-04:00*%
%TF.ProjectId,Fluxpad,466c7578-7061-4642-9e6b-696361645f70,rev?*%
%TF.SameCoordinates,Original*%
%TF.FileFunction,Copper,L2,Inr*%
%TF.FilePolarity,Positive*%
%FSLAX46Y46*%
G04 Gerber Fmt 4.6, Leading zero omitted, Abs format (unit mm)*
G04 Created by KiCad (PCBNEW 7.0.1) date 2023-07-01 02:03:31*
%MOMM*%
%LPD*%
G01*
G04 APERTURE LIST*
%TA.AperFunction,ComponentPad*%
%ADD10R,2.000000X2.000000*%
%TD*%
%TA.AperFunction,ComponentPad*%
%ADD11C,2.000000*%
%TD*%
%TA.AperFunction,ComponentPad*%
%ADD12C,2.800000*%
%TD*%
%TA.AperFunction,ComponentPad*%
%ADD13R,1.000000X1.000000*%
%TD*%
%TA.AperFunction,ComponentPad*%
%ADD14O,1.000000X1.000000*%
%TD*%
%TA.AperFunction,ComponentPad*%
%ADD15O,1.000000X1.600000*%
%TD*%
%TA.AperFunction,ComponentPad*%
%ADD16O,1.000000X2.100000*%
%TD*%
%TA.AperFunction,ViaPad*%
%ADD17C,0.800000*%
%TD*%
%TA.AperFunction,ViaPad*%
%ADD18C,0.500000*%
%TD*%
%TA.AperFunction,ViaPad*%
%ADD19C,1.000000*%
%TD*%
%TA.AperFunction,Conductor*%
%ADD20C,0.300000*%
%TD*%
%TA.AperFunction,Conductor*%
%ADD21C,0.250000*%
%TD*%
%TA.AperFunction,Conductor*%
%ADD22C,0.500000*%
%TD*%
G04 APERTURE END LIST*
D10*
%TO.N,/ENCA*%
%TO.C,SW3*%
X138500000Y-117500000D03*
D11*
%TO.N,/ENCB*%
X143500000Y-117500000D03*
%TO.N,GND*%
X141000000Y-117500000D03*
D12*
%TO.N,N/C*%
X135400000Y-110000000D03*
X146600000Y-110000000D03*
%TD*%
D13*
%TO.N,/UART0_TX*%
%TO.C,J4*%
X167150000Y-81100000D03*
D14*
%TO.N,/UART0_RX*%
X168420000Y-81100000D03*
%TO.N,GND*%
X169690000Y-81100000D03*
%TO.N,/SWDIO*%
X170960000Y-81100000D03*
%TO.N,/SWCLK*%
X172230000Y-81100000D03*
%TD*%
D15*
%TO.N,GND*%
%TO.C,J1*%
X133680000Y-90100000D03*
D16*
X133680000Y-94280000D03*
D15*
X142320000Y-90100000D03*
D16*
X142320000Y-94280000D03*
%TD*%
D17*
%TO.N,GND*%
X154000000Y-82500000D03*
X183500000Y-81500000D03*
X192000000Y-98000000D03*
X192000000Y-111000000D03*
X192000000Y-127000000D03*
X128000000Y-135000000D03*
X128000000Y-90000000D03*
X128000000Y-98000000D03*
X128000000Y-111050000D03*
X128000000Y-119000000D03*
X128000000Y-127000000D03*
X135500000Y-143500000D03*
X148500000Y-143500000D03*
X159950000Y-143500000D03*
X171000000Y-143500000D03*
X184500000Y-143500000D03*
X191800000Y-135000000D03*
X192000000Y-119000000D03*
X192000000Y-90000000D03*
D18*
%TO.N,+1V1*%
X162400000Y-92800000D03*
X157200000Y-84000000D03*
X162400000Y-90800000D03*
X161000000Y-87600000D03*
X166900000Y-91000000D03*
X158500000Y-85300000D03*
D17*
%TO.N,Net-(D1-A)*%
X161900000Y-115000000D03*
%TO.N,+3V3*%
X171100000Y-97100000D03*
X178500000Y-85874500D03*
X145700000Y-107000000D03*
D18*
X158500000Y-94000000D03*
D17*
X179500000Y-81300000D03*
X166700000Y-97000000D03*
X135100000Y-103500000D03*
X145700000Y-103900000D03*
X171400000Y-91200000D03*
X150700000Y-94800000D03*
X135100000Y-104900000D03*
X136900000Y-102100000D03*
X136900000Y-103500000D03*
X171700000Y-109900000D03*
X161287500Y-94500000D03*
X135100000Y-102100000D03*
X161300000Y-86700000D03*
X149300000Y-95850000D03*
X166300000Y-108400000D03*
X136900000Y-104900000D03*
%TO.N,SW1*%
X168600000Y-96400000D03*
X164700000Y-100700000D03*
%TO.N,SW4*%
X167000000Y-124500000D03*
X169000000Y-114300000D03*
%TO.N,+5V*%
X170200000Y-119700000D03*
X160200000Y-125500000D03*
D19*
X173400000Y-97075000D03*
X162800000Y-98700000D03*
D17*
X130900000Y-101200000D03*
X177100000Y-119100000D03*
X159400000Y-118600000D03*
X135700000Y-96700000D03*
X132900000Y-99100000D03*
X159400000Y-120400000D03*
D19*
X131950000Y-96400000D03*
D17*
X140300000Y-96700000D03*
X179000000Y-125500000D03*
X141200000Y-125500000D03*
D19*
X182450000Y-97075000D03*
D17*
%TO.N,GND*%
X138800000Y-134000000D03*
X143600000Y-88500000D03*
X130925000Y-105800000D03*
D18*
X162000000Y-97800000D03*
D17*
X164200000Y-89000000D03*
X160700000Y-98600000D03*
X164725000Y-89950000D03*
X159500000Y-121600000D03*
X141000000Y-132700000D03*
X132850000Y-108150000D03*
X174771142Y-87973223D03*
X179500000Y-120200000D03*
X184900000Y-102200000D03*
X172900000Y-93400000D03*
X157550000Y-97000000D03*
X157800000Y-123400000D03*
X171200000Y-94300000D03*
D18*
X167300000Y-85724500D03*
D17*
X160600000Y-81200000D03*
X133400000Y-96500000D03*
X160000000Y-132600000D03*
X177000000Y-126400000D03*
X179000000Y-132600000D03*
X156200000Y-88000000D03*
X165900000Y-102000000D03*
X163675000Y-89950000D03*
X176700000Y-115000000D03*
D18*
X166700000Y-98000000D03*
D17*
X142600000Y-96500000D03*
X159800000Y-84900000D03*
X149300000Y-100100000D03*
X143800000Y-103700000D03*
X165775000Y-89950000D03*
X165300000Y-89000000D03*
X143950000Y-96500000D03*
X132400000Y-88500000D03*
X140100000Y-123600000D03*
X168800000Y-119700000D03*
X177550000Y-93000000D03*
X176800000Y-134000000D03*
X178800000Y-89300000D03*
X157900000Y-115000000D03*
X150700000Y-91400000D03*
X187400000Y-92700000D03*
D18*
X163100000Y-85400000D03*
D17*
X159500000Y-117600000D03*
X157800000Y-134000000D03*
%TO.N,Net-(D2-A)*%
X180700000Y-115000000D03*
%TO.N,Net-(D3-A)*%
X143600000Y-134000000D03*
%TO.N,Net-(D4-A)*%
X162400000Y-134000000D03*
D18*
%TO.N,/UART0_TX*%
X162400000Y-88600000D03*
%TO.N,/UART0_RX*%
X163200000Y-88500000D03*
%TO.N,/SWDIO*%
X168300000Y-86900000D03*
X170900000Y-83500000D03*
X166800000Y-91900000D03*
%TO.N,/SWCLK*%
X167000000Y-92700000D03*
X172200000Y-83500000D03*
X168900000Y-87500000D03*
D17*
%TO.N,/RGB_DOUT*%
X168900000Y-86000000D03*
%TO.N,/SW5*%
X169300000Y-113300000D03*
X172000000Y-124600000D03*
%TO.N,Net-(D8-A)*%
X181300000Y-134000000D03*
%TO.N,/LED1*%
X165791237Y-83483675D03*
X164900000Y-112300000D03*
%TO.N,/LED2*%
X167300000Y-83800000D03*
X182600000Y-111900000D03*
%TO.N,/LED3*%
X148500000Y-134000000D03*
X162400000Y-83800000D03*
%TO.N,/LED4*%
X163700000Y-83800000D03*
X167500000Y-134000000D03*
%TO.N,/LED5*%
X168500000Y-83800000D03*
X184400000Y-132400000D03*
D18*
%TO.N,/ENCA*%
X164700000Y-93200000D03*
X150200000Y-104500000D03*
X159600000Y-99100000D03*
%TO.N,/ENCB*%
X161600000Y-99800000D03*
X151400000Y-104500000D03*
X165500000Y-93300000D03*
%TD*%
D20*
%TO.N,+1V1*%
X161000000Y-88500000D02*
X161000000Y-87600000D01*
X162400000Y-90800000D02*
X162400000Y-89900000D01*
X162900000Y-93300000D02*
X162400000Y-92800000D01*
X166900000Y-91000000D02*
X166000000Y-91000000D01*
X166000000Y-91000000D02*
X163700000Y-93300000D01*
D21*
X162400000Y-92800000D02*
X162400000Y-90800000D01*
D20*
X162400000Y-89900000D02*
X161000000Y-88500000D01*
X163700000Y-93300000D02*
X162900000Y-93300000D01*
D22*
%TO.N,+5V*%
X159400000Y-118600000D02*
X159400000Y-120400000D01*
X142500000Y-105525000D02*
X153000000Y-105525000D01*
X170675000Y-99800000D02*
X173400000Y-97075000D01*
X140300000Y-96700000D02*
X140300000Y-103325000D01*
X170200000Y-119700000D02*
X170200000Y-122502082D01*
X176002082Y-122502082D02*
X179000000Y-125500000D01*
X156925000Y-101600000D02*
X161500000Y-101600000D01*
X170200000Y-101800000D02*
X170200000Y-116600000D01*
X153000000Y-105525000D02*
X156925000Y-101600000D01*
X167202082Y-125500000D02*
X160200000Y-125500000D01*
X168200000Y-118600000D02*
X170200000Y-116600000D01*
X177100000Y-119100000D02*
X176500000Y-119700000D01*
X161500000Y-101600000D02*
X163300000Y-99800000D01*
X176500000Y-119700000D02*
X170200000Y-119700000D01*
X159502082Y-120400000D02*
X159400000Y-120400000D01*
X163300000Y-99800000D02*
X179725000Y-99800000D01*
X162800000Y-99300000D02*
X163300000Y-99800000D01*
X162800000Y-98700000D02*
X162800000Y-99300000D01*
X179725000Y-99800000D02*
X182450000Y-97075000D01*
X168200000Y-99800000D02*
X170200000Y-101800000D01*
X140300000Y-103325000D02*
X142500000Y-105525000D01*
X170200000Y-122502082D02*
X176002082Y-122502082D01*
X170200000Y-122502082D02*
X167202082Y-125500000D01*
X160200000Y-125500000D02*
X141200000Y-125500000D01*
X170200000Y-116600000D02*
X170200000Y-119700000D01*
X159400000Y-118600000D02*
X168200000Y-118600000D01*
%TD*%
%TA.AperFunction,Conductor*%
%TO.N,+5V*%
G36*
X132617500Y-94516613D02*
G01*
X132662887Y-94562000D01*
X132679500Y-94624000D01*
X132679500Y-94880742D01*
X132680114Y-94886776D01*
X132694926Y-95032440D01*
X132725868Y-95131058D01*
X132755841Y-95226588D01*
X132854591Y-95404502D01*
X132967206Y-95535682D01*
X132995559Y-95596845D01*
X132987720Y-95663806D01*
X132946004Y-95716768D01*
X132794129Y-95827110D01*
X132667466Y-95967783D01*
X132572820Y-96131715D01*
X132514326Y-96311742D01*
X132494540Y-96500000D01*
X132514326Y-96688257D01*
X132572820Y-96868284D01*
X132667466Y-97032216D01*
X132794129Y-97172889D01*
X132947269Y-97284151D01*
X133120197Y-97361144D01*
X133305352Y-97400500D01*
X133305354Y-97400500D01*
X133494646Y-97400500D01*
X133494648Y-97400500D01*
X133618083Y-97374262D01*
X133679803Y-97361144D01*
X133852730Y-97284151D01*
X134005871Y-97172888D01*
X134132533Y-97032216D01*
X134227179Y-96868284D01*
X134285674Y-96688256D01*
X134305460Y-96500000D01*
X134285674Y-96311744D01*
X134227179Y-96131716D01*
X134227179Y-96131715D01*
X134132533Y-95967783D01*
X134092588Y-95923420D01*
X134066146Y-95876668D01*
X134061955Y-95823121D01*
X134080800Y-95772824D01*
X134119147Y-95735215D01*
X134122878Y-95732889D01*
X134122887Y-95732886D01*
X134295571Y-95625252D01*
X134443053Y-95485059D01*
X134559295Y-95318049D01*
X134639540Y-95131058D01*
X134680500Y-94931741D01*
X134680500Y-94624000D01*
X134697113Y-94562000D01*
X134742500Y-94516613D01*
X134804500Y-94500000D01*
X140391874Y-94500000D01*
X140408059Y-94501061D01*
X140513223Y-94514906D01*
X140544491Y-94523284D01*
X140634918Y-94560740D01*
X140662952Y-94576925D01*
X140740602Y-94636509D01*
X140763491Y-94659398D01*
X140823074Y-94737048D01*
X140839259Y-94765081D01*
X140876715Y-94855508D01*
X140885093Y-94886775D01*
X140898939Y-94991940D01*
X140900000Y-95008126D01*
X140900000Y-99991874D01*
X140898939Y-100008060D01*
X140885093Y-100113224D01*
X140876715Y-100144491D01*
X140839259Y-100234918D01*
X140823074Y-100262951D01*
X140763491Y-100340601D01*
X140740601Y-100363491D01*
X140662951Y-100423074D01*
X140634918Y-100439259D01*
X140544491Y-100476715D01*
X140513224Y-100485093D01*
X140419398Y-100497446D01*
X140408058Y-100498939D01*
X140391874Y-100500000D01*
X133900000Y-100500000D01*
X133900000Y-100999999D01*
X133900000Y-101791874D01*
X133898939Y-101808060D01*
X133885093Y-101913224D01*
X133876715Y-101944491D01*
X133839259Y-102034918D01*
X133823074Y-102062951D01*
X133763491Y-102140601D01*
X133740601Y-102163491D01*
X133662951Y-102223074D01*
X133634918Y-102239259D01*
X133544491Y-102276715D01*
X133513224Y-102285093D01*
X133419398Y-102297446D01*
X133408058Y-102298939D01*
X133391874Y-102300000D01*
X130608126Y-102300000D01*
X130591941Y-102298939D01*
X130578917Y-102297224D01*
X130486775Y-102285093D01*
X130455508Y-102276715D01*
X130365081Y-102239259D01*
X130337048Y-102223074D01*
X130259398Y-102163491D01*
X130236508Y-102140601D01*
X130176925Y-102062951D01*
X130160740Y-102034918D01*
X130123284Y-101944491D01*
X130114906Y-101913223D01*
X130101061Y-101808059D01*
X130100000Y-101791874D01*
X130100000Y-95008126D01*
X130101061Y-94991941D01*
X130114906Y-94886776D01*
X130123284Y-94855508D01*
X130160740Y-94765081D01*
X130176923Y-94737050D01*
X130236513Y-94659392D01*
X130259392Y-94636513D01*
X130337050Y-94576923D01*
X130365079Y-94560740D01*
X130455509Y-94523283D01*
X130486775Y-94514906D01*
X130591940Y-94501061D01*
X130608126Y-94500000D01*
X132555500Y-94500000D01*
X132617500Y-94516613D01*
G37*
%TD.AperFunction*%
%TD*%
%TA.AperFunction,Conductor*%
%TO.N,+3V3*%
G36*
X181644572Y-79001057D02*
G01*
X181644645Y-79001058D01*
X182284918Y-79004864D01*
X182286049Y-79004876D01*
X182920541Y-79014892D01*
X182922268Y-79014932D01*
X183549536Y-79033831D01*
X183551780Y-79033919D01*
X184170716Y-79064105D01*
X184173349Y-79064263D01*
X184782467Y-79107860D01*
X184785722Y-79108137D01*
X185383509Y-79166999D01*
X185387264Y-79167427D01*
X185972549Y-79243194D01*
X185976676Y-79243801D01*
X186548128Y-79337856D01*
X186552762Y-79338710D01*
X187108982Y-79452187D01*
X187114004Y-79453321D01*
X187653894Y-79587179D01*
X187659291Y-79588649D01*
X187953079Y-79675802D01*
X188181634Y-79743605D01*
X188187389Y-79745466D01*
X188554190Y-79874050D01*
X188691227Y-79922089D01*
X188697236Y-79924373D01*
X188967586Y-80035258D01*
X189181641Y-80123054D01*
X189187889Y-80125820D01*
X189197272Y-80130287D01*
X189652071Y-80346815D01*
X189658428Y-80350071D01*
X190101812Y-80593566D01*
X190108214Y-80597337D01*
X190530221Y-80863371D01*
X190536613Y-80867684D01*
X190936848Y-81156264D01*
X190943088Y-81161072D01*
X191065260Y-81261574D01*
X191321285Y-81472185D01*
X191327300Y-81477468D01*
X191683261Y-81811050D01*
X191688949Y-81816738D01*
X192022523Y-82172688D01*
X192027800Y-82178696D01*
X192338930Y-82556918D01*
X192343739Y-82563158D01*
X192632317Y-82963390D01*
X192636632Y-82969785D01*
X192726360Y-83112118D01*
X192900425Y-83388235D01*
X192902644Y-83391754D01*
X192906432Y-83398184D01*
X193116409Y-83780535D01*
X193149913Y-83841543D01*
X193153183Y-83847929D01*
X193374178Y-84312110D01*
X193376944Y-84318358D01*
X193575623Y-84802755D01*
X193577916Y-84808789D01*
X193754533Y-85312608D01*
X193756392Y-85318359D01*
X193784632Y-85413551D01*
X193911344Y-85840687D01*
X193912821Y-85846112D01*
X194046673Y-86385978D01*
X194047814Y-86391032D01*
X194161287Y-86947229D01*
X194162144Y-86951878D01*
X194256188Y-87523268D01*
X194256808Y-87527486D01*
X194332572Y-88112734D01*
X194333001Y-88116503D01*
X194391859Y-88714256D01*
X194392140Y-88717554D01*
X194418328Y-89083432D01*
X194435211Y-89319324D01*
X194435729Y-89326554D01*
X194435898Y-89329367D01*
X194466077Y-89948187D01*
X194466168Y-89950493D01*
X194485065Y-90577703D01*
X194485106Y-90579480D01*
X194495121Y-91213907D01*
X194495134Y-91215127D01*
X194498939Y-91855099D01*
X194498941Y-91855728D01*
X194499500Y-92500456D01*
X194499500Y-132499544D01*
X194498941Y-133144270D01*
X194498939Y-133144899D01*
X194495134Y-133784871D01*
X194495121Y-133786091D01*
X194485106Y-134420518D01*
X194485065Y-134422295D01*
X194466168Y-135049505D01*
X194466077Y-135051811D01*
X194435898Y-135670631D01*
X194435729Y-135673444D01*
X194392140Y-136282444D01*
X194391859Y-136285742D01*
X194333001Y-136883495D01*
X194332572Y-136887264D01*
X194256808Y-137472512D01*
X194256188Y-137476730D01*
X194162144Y-138048120D01*
X194161287Y-138052769D01*
X194047814Y-138608966D01*
X194046673Y-138614020D01*
X193912821Y-139153886D01*
X193911344Y-139159311D01*
X193756394Y-139681635D01*
X193754533Y-139687390D01*
X193577916Y-140191209D01*
X193575623Y-140197243D01*
X193376944Y-140681640D01*
X193374178Y-140687888D01*
X193153183Y-141152069D01*
X193149913Y-141158455D01*
X192906437Y-141601806D01*
X192902644Y-141608244D01*
X192636632Y-142030213D01*
X192632317Y-142036608D01*
X192343739Y-142436840D01*
X192338920Y-142443094D01*
X192027806Y-142821295D01*
X192022523Y-142827310D01*
X191688949Y-143183260D01*
X191683261Y-143188948D01*
X191327300Y-143522530D01*
X191321285Y-143527813D01*
X190943095Y-143838920D01*
X190936841Y-143843739D01*
X190536616Y-144132312D01*
X190530221Y-144136627D01*
X190108232Y-144402650D01*
X190101794Y-144406443D01*
X189658442Y-144649920D01*
X189652056Y-144653190D01*
X189187889Y-144874178D01*
X189181641Y-144876944D01*
X188697255Y-145075618D01*
X188691221Y-145077911D01*
X188187389Y-145254532D01*
X188181634Y-145256393D01*
X187659305Y-145411345D01*
X187653880Y-145412822D01*
X187114020Y-145546673D01*
X187108966Y-145547814D01*
X186552770Y-145661286D01*
X186548121Y-145662143D01*
X185976722Y-145756190D01*
X185972503Y-145756810D01*
X185387270Y-145832570D01*
X185383502Y-145832999D01*
X184785741Y-145891859D01*
X184782443Y-145892140D01*
X184223574Y-145932140D01*
X184173436Y-145935729D01*
X184170629Y-145935898D01*
X183551811Y-145966077D01*
X183549505Y-145966168D01*
X182922293Y-145985065D01*
X182920516Y-145985106D01*
X182286092Y-145995121D01*
X182284872Y-145995134D01*
X181644898Y-145998939D01*
X181644269Y-145998941D01*
X181001417Y-145999498D01*
X180999542Y-145999500D01*
X139000457Y-145999500D01*
X138998576Y-145999498D01*
X138355728Y-145998941D01*
X138355099Y-145998939D01*
X137715127Y-145995134D01*
X137713907Y-145995121D01*
X137079480Y-145985106D01*
X137077703Y-145985065D01*
X136450493Y-145966168D01*
X136448187Y-145966077D01*
X135863808Y-145937577D01*
X135829363Y-145935897D01*
X135826565Y-145935729D01*
X135716156Y-145927827D01*
X135217554Y-145892140D01*
X135214256Y-145891859D01*
X134616503Y-145833001D01*
X134612734Y-145832572D01*
X134027486Y-145756808D01*
X134023268Y-145756188D01*
X133451878Y-145662144D01*
X133447229Y-145661287D01*
X132891032Y-145547814D01*
X132885978Y-145546673D01*
X132346112Y-145412821D01*
X132340687Y-145411344D01*
X131893086Y-145278561D01*
X131818359Y-145256392D01*
X131812608Y-145254533D01*
X131812605Y-145254532D01*
X131713147Y-145219666D01*
X131308789Y-145077916D01*
X131302755Y-145075623D01*
X130818358Y-144876944D01*
X130812110Y-144874178D01*
X130347929Y-144653183D01*
X130341543Y-144649913D01*
X130313903Y-144634734D01*
X129898184Y-144406432D01*
X129891763Y-144402649D01*
X129536780Y-144178866D01*
X129469785Y-144136632D01*
X129463390Y-144132317D01*
X129063158Y-143843739D01*
X129056918Y-143838930D01*
X128678696Y-143527800D01*
X128672688Y-143522523D01*
X128648654Y-143500000D01*
X134586496Y-143500000D01*
X134606458Y-143689929D01*
X134665472Y-143871556D01*
X134760957Y-144036941D01*
X134760960Y-144036944D01*
X134888747Y-144178866D01*
X135007717Y-144265303D01*
X135043248Y-144291118D01*
X135217714Y-144368795D01*
X135404511Y-144408500D01*
X135404513Y-144408500D01*
X135595487Y-144408500D01*
X135595489Y-144408500D01*
X135782285Y-144368795D01*
X135782286Y-144368794D01*
X135782288Y-144368794D01*
X135956752Y-144291118D01*
X136111253Y-144178866D01*
X136239040Y-144036944D01*
X136307235Y-143918828D01*
X136334527Y-143871556D01*
X136345131Y-143838920D01*
X136393542Y-143689928D01*
X136413504Y-143500000D01*
X140694531Y-143500000D01*
X140714364Y-143726689D01*
X140773261Y-143946497D01*
X140869432Y-144152735D01*
X140999953Y-144339140D01*
X141160859Y-144500046D01*
X141347264Y-144630567D01*
X141347265Y-144630567D01*
X141347266Y-144630568D01*
X141553504Y-144726739D01*
X141773308Y-144785635D01*
X141858262Y-144793067D01*
X141943214Y-144800500D01*
X141943216Y-144800500D01*
X142056784Y-144800500D01*
X142056786Y-144800500D01*
X142124747Y-144794554D01*
X142226692Y-144785635D01*
X142446496Y-144726739D01*
X142652734Y-144630568D01*
X142839139Y-144500047D01*
X143000047Y-144339139D01*
X143130568Y-144152734D01*
X143226739Y-143946496D01*
X143285635Y-143726692D01*
X143305468Y-143500000D01*
X147586496Y-143500000D01*
X147606458Y-143689929D01*
X147665472Y-143871556D01*
X147760957Y-144036941D01*
X147760960Y-144036944D01*
X147888747Y-144178866D01*
X148007717Y-144265303D01*
X148043248Y-144291118D01*
X148217714Y-144368795D01*
X148404511Y-144408500D01*
X148404513Y-144408500D01*
X148595487Y-144408500D01*
X148595489Y-144408500D01*
X148782285Y-144368795D01*
X148782286Y-144368794D01*
X148782288Y-144368794D01*
X148956752Y-144291118D01*
X149111253Y-144178866D01*
X149239040Y-144036944D01*
X149307235Y-143918828D01*
X149334527Y-143871556D01*
X149345131Y-143838920D01*
X149393542Y-143689928D01*
X149413504Y-143500000D01*
X159036496Y-143500000D01*
X159056458Y-143689929D01*
X159115472Y-143871556D01*
X159210957Y-144036941D01*
X159210960Y-144036944D01*
X159338747Y-144178866D01*
X159457717Y-144265303D01*
X159493248Y-144291118D01*
X159667714Y-144368795D01*
X159854511Y-144408500D01*
X159854513Y-144408500D01*
X160045487Y-144408500D01*
X160045489Y-144408500D01*
X160232285Y-144368795D01*
X160232286Y-144368794D01*
X160232288Y-144368794D01*
X160406752Y-144291118D01*
X160561253Y-144178866D01*
X160689040Y-144036944D01*
X160757235Y-143918828D01*
X160784527Y-143871556D01*
X160795131Y-143838920D01*
X160843542Y-143689928D01*
X160863504Y-143500000D01*
X170086496Y-143500000D01*
X170106458Y-143689929D01*
X170165472Y-143871556D01*
X170260957Y-144036941D01*
X170260960Y-144036944D01*
X170388747Y-144178866D01*
X170507717Y-144265303D01*
X170543248Y-144291118D01*
X170717714Y-144368795D01*
X170904511Y-144408500D01*
X170904513Y-144408500D01*
X171095487Y-144408500D01*
X171095489Y-144408500D01*
X171282285Y-144368795D01*
X171282286Y-144368794D01*
X171282288Y-144368794D01*
X171456752Y-144291118D01*
X171611253Y-144178866D01*
X171739040Y-144036944D01*
X171807235Y-143918828D01*
X171834527Y-143871556D01*
X171845131Y-143838920D01*
X171893542Y-143689928D01*
X171913504Y-143500000D01*
X171913504Y-143499999D01*
X176694531Y-143499999D01*
X176714364Y-143726689D01*
X176773261Y-143946497D01*
X176869432Y-144152735D01*
X176999953Y-144339140D01*
X177160859Y-144500046D01*
X177347264Y-144630567D01*
X177347265Y-144630567D01*
X177347266Y-144630568D01*
X177553504Y-144726739D01*
X177773308Y-144785635D01*
X177858262Y-144793067D01*
X177943214Y-144800500D01*
X177943216Y-144800500D01*
X178056784Y-144800500D01*
X178056786Y-144800500D01*
X178124747Y-144794554D01*
X178226692Y-144785635D01*
X178446496Y-144726739D01*
X178652734Y-144630568D01*
X178839139Y-144500047D01*
X179000047Y-144339139D01*
X179130568Y-144152734D01*
X179226739Y-143946496D01*
X179285635Y-143726692D01*
X179305468Y-143500000D01*
X183586496Y-143500000D01*
X183606458Y-143689929D01*
X183665472Y-143871556D01*
X183760957Y-144036941D01*
X183760960Y-144036944D01*
X183888747Y-144178866D01*
X184007717Y-144265303D01*
X184043248Y-144291118D01*
X184217714Y-144368795D01*
X184404511Y-144408500D01*
X184404513Y-144408500D01*
X184595487Y-144408500D01*
X184595489Y-144408500D01*
X184782285Y-144368795D01*
X184782286Y-144368794D01*
X184782288Y-144368794D01*
X184956752Y-144291118D01*
X185111253Y-144178866D01*
X185239040Y-144036944D01*
X185307235Y-143918828D01*
X185334527Y-143871556D01*
X185345131Y-143838920D01*
X185393542Y-143689928D01*
X185413504Y-143500000D01*
X185393542Y-143310072D01*
X185362931Y-143215862D01*
X185334527Y-143128443D01*
X185239042Y-142963058D01*
X185219442Y-142941291D01*
X185111253Y-142821134D01*
X184956752Y-142708882D01*
X184956751Y-142708881D01*
X184782285Y-142631204D01*
X184595489Y-142591500D01*
X184595487Y-142591500D01*
X184404513Y-142591500D01*
X184404511Y-142591500D01*
X184217714Y-142631204D01*
X184043248Y-142708881D01*
X183888748Y-142821133D01*
X183760957Y-142963058D01*
X183665472Y-143128443D01*
X183606458Y-143310070D01*
X183586496Y-143500000D01*
X179305468Y-143500000D01*
X179285635Y-143273308D01*
X179226739Y-143053504D01*
X179130568Y-142847266D01*
X179114552Y-142824393D01*
X179000046Y-142660859D01*
X178839140Y-142499953D01*
X178652735Y-142369432D01*
X178446497Y-142273261D01*
X178226689Y-142214364D01*
X178056786Y-142199500D01*
X178056784Y-142199500D01*
X177943216Y-142199500D01*
X177943214Y-142199500D01*
X177773310Y-142214364D01*
X177553502Y-142273261D01*
X177347264Y-142369432D01*
X177160859Y-142499953D01*
X176999953Y-142660859D01*
X176869432Y-142847264D01*
X176773261Y-143053502D01*
X176714364Y-143273310D01*
X176694531Y-143499999D01*
X171913504Y-143499999D01*
X171893542Y-143310072D01*
X171862931Y-143215862D01*
X171834527Y-143128443D01*
X171739042Y-142963058D01*
X171719442Y-142941291D01*
X171611253Y-142821134D01*
X171456752Y-142708882D01*
X171456751Y-142708881D01*
X171282285Y-142631204D01*
X171095489Y-142591500D01*
X171095487Y-142591500D01*
X170904513Y-142591500D01*
X170904511Y-142591500D01*
X170717714Y-142631204D01*
X170543248Y-142708881D01*
X170388748Y-142821133D01*
X170260957Y-142963058D01*
X170165472Y-143128443D01*
X170106458Y-143310070D01*
X170086496Y-143500000D01*
X160863504Y-143500000D01*
X160843542Y-143310072D01*
X160812931Y-143215862D01*
X160784527Y-143128443D01*
X160689042Y-142963058D01*
X160669442Y-142941291D01*
X160561253Y-142821134D01*
X160406752Y-142708882D01*
X160406751Y-142708881D01*
X160232285Y-142631204D01*
X160045489Y-142591500D01*
X160045487Y-142591500D01*
X159854513Y-142591500D01*
X159854511Y-142591500D01*
X159667714Y-142631204D01*
X159493248Y-142708881D01*
X159338748Y-142821133D01*
X159210957Y-142963058D01*
X159115472Y-143128443D01*
X159056458Y-143310070D01*
X159036496Y-143500000D01*
X149413504Y-143500000D01*
X149393542Y-143310072D01*
X149362931Y-143215862D01*
X149334527Y-143128443D01*
X149239042Y-142963058D01*
X149219442Y-142941291D01*
X149111253Y-142821134D01*
X148956752Y-142708882D01*
X148956751Y-142708881D01*
X148782285Y-142631204D01*
X148595489Y-142591500D01*
X148595487Y-142591500D01*
X148404513Y-142591500D01*
X148404511Y-142591500D01*
X148217714Y-142631204D01*
X148043248Y-142708881D01*
X147888748Y-142821133D01*
X147760957Y-142963058D01*
X147665472Y-143128443D01*
X147606458Y-143310070D01*
X147586496Y-143500000D01*
X143305468Y-143500000D01*
X143285635Y-143273308D01*
X143226739Y-143053504D01*
X143130568Y-142847266D01*
X143114552Y-142824393D01*
X143000046Y-142660859D01*
X142839140Y-142499953D01*
X142652735Y-142369432D01*
X142446497Y-142273261D01*
X142226689Y-142214364D01*
X142056786Y-142199500D01*
X142056784Y-142199500D01*
X141943216Y-142199500D01*
X141943214Y-142199500D01*
X141773310Y-142214364D01*
X141553502Y-142273261D01*
X141347264Y-142369432D01*
X141160859Y-142499953D01*
X140999953Y-142660859D01*
X140869432Y-142847264D01*
X140773261Y-143053502D01*
X140714364Y-143273310D01*
X140694531Y-143500000D01*
X136413504Y-143500000D01*
X136393542Y-143310072D01*
X136362931Y-143215862D01*
X136334527Y-143128443D01*
X136239042Y-142963058D01*
X136219442Y-142941291D01*
X136111253Y-142821134D01*
X135956752Y-142708882D01*
X135956751Y-142708881D01*
X135782285Y-142631204D01*
X135595489Y-142591500D01*
X135595487Y-142591500D01*
X135404513Y-142591500D01*
X135404511Y-142591500D01*
X135217714Y-142631204D01*
X135043248Y-142708881D01*
X134888748Y-142821133D01*
X134760957Y-142963058D01*
X134665472Y-143128443D01*
X134606458Y-143310070D01*
X134586496Y-143500000D01*
X128648654Y-143500000D01*
X128316738Y-143188949D01*
X128311050Y-143183261D01*
X127977468Y-142827300D01*
X127972185Y-142821285D01*
X127661078Y-142443095D01*
X127661077Y-142443094D01*
X127661072Y-142443088D01*
X127656259Y-142436841D01*
X127656258Y-142436840D01*
X127367684Y-142036613D01*
X127363371Y-142030221D01*
X127119335Y-141643109D01*
X127097337Y-141608214D01*
X127093562Y-141601806D01*
X126850071Y-141158428D01*
X126846815Y-141152069D01*
X126625820Y-140687889D01*
X126623054Y-140681641D01*
X126555222Y-140516261D01*
X126424373Y-140197236D01*
X126422087Y-140191221D01*
X126245466Y-139687389D01*
X126243605Y-139681634D01*
X126088653Y-139159305D01*
X126087176Y-139153880D01*
X126016004Y-138866824D01*
X125953321Y-138614004D01*
X125952184Y-138608966D01*
X125937918Y-138539042D01*
X125868749Y-138200000D01*
X132618586Y-138200000D01*
X132638178Y-138373878D01*
X132638178Y-138373880D01*
X132638179Y-138373881D01*
X132695971Y-138539042D01*
X132789067Y-138687203D01*
X132912797Y-138810933D01*
X133060958Y-138904029D01*
X133226119Y-138961821D01*
X133278230Y-138967692D01*
X133356394Y-138976500D01*
X133356397Y-138976500D01*
X133443603Y-138976500D01*
X133443606Y-138976500D01*
X133508742Y-138969160D01*
X133573881Y-138961821D01*
X133739042Y-138904029D01*
X133887203Y-138810933D01*
X134010933Y-138687203D01*
X134104029Y-138539042D01*
X134161821Y-138373881D01*
X134181413Y-138200000D01*
X134161821Y-138026119D01*
X134104029Y-137860958D01*
X134010933Y-137712797D01*
X133887203Y-137589067D01*
X133739042Y-137495971D01*
X133573881Y-137438179D01*
X133573880Y-137438178D01*
X133573878Y-137438178D01*
X133443606Y-137423500D01*
X133443603Y-137423500D01*
X133356397Y-137423500D01*
X133356394Y-137423500D01*
X133226121Y-137438178D01*
X133060957Y-137495971D01*
X132912795Y-137589068D01*
X132789068Y-137712795D01*
X132695971Y-137860957D01*
X132638178Y-138026121D01*
X132618586Y-138200000D01*
X125868749Y-138200000D01*
X125838710Y-138052762D01*
X125837855Y-138048121D01*
X125823505Y-137960933D01*
X125743801Y-137476676D01*
X125743194Y-137472549D01*
X125727330Y-137349999D01*
X186368586Y-137349999D01*
X186388178Y-137523878D01*
X186388178Y-137523880D01*
X186388179Y-137523881D01*
X186445971Y-137689042D01*
X186539067Y-137837203D01*
X186662797Y-137960933D01*
X186810958Y-138054029D01*
X186976119Y-138111821D01*
X187028230Y-138117692D01*
X187106394Y-138126500D01*
X187106397Y-138126500D01*
X187193603Y-138126500D01*
X187193606Y-138126500D01*
X187258742Y-138119160D01*
X187323881Y-138111821D01*
X187489042Y-138054029D01*
X187637203Y-137960933D01*
X187760933Y-137837203D01*
X187854029Y-137689042D01*
X187911821Y-137523881D01*
X187931413Y-137350000D01*
X187911821Y-137176119D01*
X187854029Y-137010958D01*
X187760933Y-136862797D01*
X187637203Y-136739067D01*
X187489042Y-136645971D01*
X187323881Y-136588179D01*
X187323880Y-136588178D01*
X187323878Y-136588178D01*
X187193606Y-136573500D01*
X187193603Y-136573500D01*
X187106397Y-136573500D01*
X187106394Y-136573500D01*
X186976121Y-136588178D01*
X186810957Y-136645971D01*
X186662795Y-136739068D01*
X186539068Y-136862795D01*
X186445971Y-137010957D01*
X186388178Y-137176121D01*
X186368586Y-137349999D01*
X125727330Y-137349999D01*
X125667427Y-136887264D01*
X125666999Y-136883502D01*
X125613470Y-136339877D01*
X125608137Y-136285722D01*
X125607858Y-136282443D01*
X125564263Y-135673349D01*
X125564105Y-135670716D01*
X125533919Y-135051780D01*
X125533830Y-135049505D01*
X125532338Y-135000000D01*
X127086496Y-135000000D01*
X127106458Y-135189929D01*
X127165472Y-135371556D01*
X127260957Y-135536941D01*
X127260960Y-135536944D01*
X127388747Y-135678866D01*
X127462089Y-135732152D01*
X127543248Y-135791118D01*
X127717714Y-135868795D01*
X127904511Y-135908500D01*
X127904513Y-135908500D01*
X128095487Y-135908500D01*
X128095489Y-135908500D01*
X128282285Y-135868795D01*
X128282286Y-135868794D01*
X128282288Y-135868794D01*
X128456752Y-135791118D01*
X128611253Y-135678866D01*
X128739040Y-135536944D01*
X128834527Y-135371556D01*
X128893542Y-135189928D01*
X128913504Y-135000000D01*
X190886496Y-135000000D01*
X190906458Y-135189929D01*
X190965472Y-135371556D01*
X191060957Y-135536941D01*
X191060960Y-135536944D01*
X191188747Y-135678866D01*
X191262089Y-135732152D01*
X191343248Y-135791118D01*
X191517714Y-135868795D01*
X191704511Y-135908500D01*
X191704513Y-135908500D01*
X191895487Y-135908500D01*
X191895489Y-135908500D01*
X192082285Y-135868795D01*
X192082286Y-135868794D01*
X192082288Y-135868794D01*
X192256752Y-135791118D01*
X192411253Y-135678866D01*
X192539040Y-135536944D01*
X192634527Y-135371556D01*
X192693542Y-135189928D01*
X192713504Y-135000000D01*
X192693542Y-134810072D01*
X192634527Y-134628444D01*
X192634527Y-134628443D01*
X192539042Y-134463058D01*
X192519442Y-134441291D01*
X192411253Y-134321134D01*
X192256752Y-134208882D01*
X192256751Y-134208881D01*
X192082285Y-134131204D01*
X191895489Y-134091500D01*
X191895487Y-134091500D01*
X191704513Y-134091500D01*
X191704511Y-134091500D01*
X191517714Y-134131204D01*
X191343248Y-134208881D01*
X191188748Y-134321133D01*
X191060957Y-134463058D01*
X190965472Y-134628443D01*
X190906458Y-134810070D01*
X190886496Y-135000000D01*
X128913504Y-135000000D01*
X128893542Y-134810072D01*
X128834527Y-134628444D01*
X128834527Y-134628443D01*
X128739042Y-134463058D01*
X128719442Y-134441291D01*
X128611253Y-134321134D01*
X128456752Y-134208882D01*
X128456751Y-134208881D01*
X128282285Y-134131204D01*
X128095489Y-134091500D01*
X128095487Y-134091500D01*
X127904513Y-134091500D01*
X127904511Y-134091500D01*
X127717714Y-134131204D01*
X127543248Y-134208881D01*
X127388748Y-134321133D01*
X127260957Y-134463058D01*
X127165472Y-134628443D01*
X127106458Y-134810070D01*
X127086496Y-135000000D01*
X125532338Y-135000000D01*
X125514932Y-134422268D01*
X125514892Y-134420516D01*
X125508254Y-134000000D01*
X137886496Y-134000000D01*
X137906458Y-134189929D01*
X137965472Y-134371556D01*
X138060957Y-134536941D01*
X138060960Y-134536944D01*
X138188747Y-134678866D01*
X138343247Y-134791117D01*
X138343248Y-134791118D01*
X138517714Y-134868795D01*
X138704511Y-134908500D01*
X138704513Y-134908500D01*
X138895487Y-134908500D01*
X138895489Y-134908500D01*
X139082285Y-134868795D01*
X139082286Y-134868794D01*
X139082288Y-134868794D01*
X139256752Y-134791118D01*
X139411253Y-134678866D01*
X139539040Y-134536944D01*
X139634527Y-134371556D01*
X139693542Y-134189928D01*
X139713504Y-134000000D01*
X142686496Y-134000000D01*
X142706458Y-134189929D01*
X142765472Y-134371556D01*
X142860957Y-134536941D01*
X142860960Y-134536944D01*
X142988747Y-134678866D01*
X143143247Y-134791117D01*
X143143248Y-134791118D01*
X143317714Y-134868795D01*
X143504511Y-134908500D01*
X143504513Y-134908500D01*
X143695487Y-134908500D01*
X143695489Y-134908500D01*
X143882285Y-134868795D01*
X143882286Y-134868794D01*
X143882288Y-134868794D01*
X144056752Y-134791118D01*
X144211253Y-134678866D01*
X144339040Y-134536944D01*
X144434527Y-134371556D01*
X144493542Y-134189928D01*
X144513504Y-134000000D01*
X147586496Y-134000000D01*
X147606458Y-134189929D01*
X147665472Y-134371556D01*
X147760957Y-134536941D01*
X147760960Y-134536944D01*
X147888747Y-134678866D01*
X148043247Y-134791117D01*
X148043248Y-134791118D01*
X148217714Y-134868795D01*
X148404511Y-134908500D01*
X148404513Y-134908500D01*
X148595487Y-134908500D01*
X148595489Y-134908500D01*
X148782285Y-134868795D01*
X148782286Y-134868794D01*
X148782288Y-134868794D01*
X148956752Y-134791118D01*
X149111253Y-134678866D01*
X149239040Y-134536944D01*
X149334527Y-134371556D01*
X149393542Y-134189928D01*
X149413504Y-134000000D01*
X156886496Y-134000000D01*
X156906458Y-134189929D01*
X156965472Y-134371556D01*
X157060957Y-134536941D01*
X157060960Y-134536944D01*
X157188747Y-134678866D01*
X157343247Y-134791117D01*
X157343248Y-134791118D01*
X157517714Y-134868795D01*
X157704511Y-134908500D01*
X157704513Y-134908500D01*
X157895487Y-134908500D01*
X157895489Y-134908500D01*
X158082285Y-134868795D01*
X158082286Y-134868794D01*
X158082288Y-134868794D01*
X158256752Y-134791118D01*
X158411253Y-134678866D01*
X158539040Y-134536944D01*
X158634527Y-134371556D01*
X158693542Y-134189928D01*
X158713504Y-134000000D01*
X161486496Y-134000000D01*
X161506458Y-134189929D01*
X161565472Y-134371556D01*
X161660957Y-134536941D01*
X161660960Y-134536944D01*
X161788747Y-134678866D01*
X161943247Y-134791117D01*
X161943248Y-134791118D01*
X162117714Y-134868795D01*
X162304511Y-134908500D01*
X162304513Y-134908500D01*
X162495487Y-134908500D01*
X162495489Y-134908500D01*
X162682285Y-134868795D01*
X162682286Y-134868794D01*
X162682288Y-134868794D01*
X162856752Y-134791118D01*
X163011253Y-134678866D01*
X163139040Y-134536944D01*
X163234527Y-134371556D01*
X163293542Y-134189928D01*
X163313504Y-134000000D01*
X166586496Y-134000000D01*
X166606458Y-134189929D01*
X166665472Y-134371556D01*
X166760957Y-134536941D01*
X166760960Y-134536944D01*
X166888747Y-134678866D01*
X167043247Y-134791117D01*
X167043248Y-134791118D01*
X167217714Y-134868795D01*
X167404511Y-134908500D01*
X167404513Y-134908500D01*
X167595487Y-134908500D01*
X167595489Y-134908500D01*
X167782285Y-134868795D01*
X167782286Y-134868794D01*
X167782288Y-134868794D01*
X167956752Y-134791118D01*
X168111253Y-134678866D01*
X168239040Y-134536944D01*
X168334527Y-134371556D01*
X168393542Y-134189928D01*
X168413504Y-134000000D01*
X175886496Y-134000000D01*
X175906458Y-134189929D01*
X175965472Y-134371556D01*
X176060957Y-134536941D01*
X176060960Y-134536944D01*
X176188747Y-134678866D01*
X176343247Y-134791117D01*
X176343248Y-134791118D01*
X176517714Y-134868795D01*
X176704511Y-134908500D01*
X176704513Y-134908500D01*
X176895487Y-134908500D01*
X176895489Y-134908500D01*
X177082285Y-134868795D01*
X177082286Y-134868794D01*
X177082288Y-134868794D01*
X177256752Y-134791118D01*
X177411253Y-134678866D01*
X177539040Y-134536944D01*
X177634527Y-134371556D01*
X177693542Y-134189928D01*
X177713504Y-134000000D01*
X180386496Y-134000000D01*
X180406458Y-134189929D01*
X180465472Y-134371556D01*
X180560957Y-134536941D01*
X180560960Y-134536944D01*
X180688747Y-134678866D01*
X180843247Y-134791117D01*
X180843248Y-134791118D01*
X181017714Y-134868795D01*
X181204511Y-134908500D01*
X181204513Y-134908500D01*
X181395487Y-134908500D01*
X181395489Y-134908500D01*
X181582285Y-134868795D01*
X181582286Y-134868794D01*
X181582288Y-134868794D01*
X181756752Y-134791118D01*
X181911253Y-134678866D01*
X182039040Y-134536944D01*
X182134527Y-134371556D01*
X182193542Y-134189928D01*
X182213504Y-134000000D01*
X182193542Y-133810072D01*
X182134527Y-133628444D01*
X182134527Y-133628443D01*
X182039042Y-133463058D01*
X182019442Y-133441291D01*
X181911253Y-133321134D01*
X181756752Y-133208882D01*
X181756751Y-133208881D01*
X181582285Y-133131204D01*
X181395489Y-133091500D01*
X181395487Y-133091500D01*
X181204513Y-133091500D01*
X181204511Y-133091500D01*
X181017714Y-133131204D01*
X180843248Y-133208881D01*
X180688748Y-133321133D01*
X180560957Y-133463058D01*
X180465472Y-133628443D01*
X180406458Y-133810070D01*
X180386496Y-134000000D01*
X177713504Y-134000000D01*
X177693542Y-133810072D01*
X177634527Y-133628444D01*
X177634527Y-133628443D01*
X177539042Y-133463058D01*
X177519442Y-133441291D01*
X177411253Y-133321134D01*
X177256752Y-133208882D01*
X177256751Y-133208881D01*
X177082285Y-133131204D01*
X176895489Y-133091500D01*
X176895487Y-133091500D01*
X176704513Y-133091500D01*
X176704511Y-133091500D01*
X176517714Y-133131204D01*
X176343248Y-133208881D01*
X176188748Y-133321133D01*
X176060957Y-133463058D01*
X175965472Y-133628443D01*
X175906458Y-133810070D01*
X175886496Y-134000000D01*
X168413504Y-134000000D01*
X168393542Y-133810072D01*
X168334527Y-133628444D01*
X168334527Y-133628443D01*
X168239042Y-133463058D01*
X168219442Y-133441291D01*
X168111253Y-133321134D01*
X167956752Y-133208882D01*
X167956751Y-133208881D01*
X167782285Y-133131204D01*
X167595489Y-133091500D01*
X167595487Y-133091500D01*
X167404513Y-133091500D01*
X167404511Y-133091500D01*
X167217714Y-133131204D01*
X167043248Y-133208881D01*
X166888748Y-133321133D01*
X166760957Y-133463058D01*
X166665472Y-133628443D01*
X166606458Y-133810070D01*
X166586496Y-134000000D01*
X163313504Y-134000000D01*
X163293542Y-133810072D01*
X163234527Y-133628444D01*
X163234527Y-133628443D01*
X163139042Y-133463058D01*
X163119442Y-133441291D01*
X163011253Y-133321134D01*
X162856752Y-133208882D01*
X162856751Y-133208881D01*
X162682285Y-133131204D01*
X162495489Y-133091500D01*
X162495487Y-133091500D01*
X162304513Y-133091500D01*
X162304511Y-133091500D01*
X162117714Y-133131204D01*
X161943248Y-133208881D01*
X161788748Y-133321133D01*
X161660957Y-133463058D01*
X161565472Y-133628443D01*
X161506458Y-133810070D01*
X161486496Y-134000000D01*
X158713504Y-134000000D01*
X158693542Y-133810072D01*
X158634527Y-133628444D01*
X158634527Y-133628443D01*
X158539042Y-133463058D01*
X158519442Y-133441291D01*
X158411253Y-133321134D01*
X158256752Y-133208882D01*
X158256751Y-133208881D01*
X158082285Y-133131204D01*
X157895489Y-133091500D01*
X157895487Y-133091500D01*
X157704513Y-133091500D01*
X157704511Y-133091500D01*
X157517714Y-133131204D01*
X157343248Y-133208881D01*
X157188748Y-133321133D01*
X157060957Y-133463058D01*
X156965472Y-133628443D01*
X156906458Y-133810070D01*
X156886496Y-134000000D01*
X149413504Y-134000000D01*
X149393542Y-133810072D01*
X149334527Y-133628444D01*
X149334527Y-133628443D01*
X149239042Y-133463058D01*
X149219442Y-133441291D01*
X149111253Y-133321134D01*
X148956752Y-133208882D01*
X148956751Y-133208881D01*
X148782285Y-133131204D01*
X148595489Y-133091500D01*
X148595487Y-133091500D01*
X148404513Y-133091500D01*
X148404511Y-133091500D01*
X148217714Y-133131204D01*
X148043248Y-133208881D01*
X147888748Y-133321133D01*
X147760957Y-133463058D01*
X147665472Y-133628443D01*
X147606458Y-133810070D01*
X147586496Y-134000000D01*
X144513504Y-134000000D01*
X144493542Y-133810072D01*
X144434527Y-133628444D01*
X144434527Y-133628443D01*
X144339042Y-133463058D01*
X144319442Y-133441291D01*
X144211253Y-133321134D01*
X144056752Y-133208882D01*
X144056751Y-133208881D01*
X143882285Y-133131204D01*
X143695489Y-133091500D01*
X143695487Y-133091500D01*
X143504513Y-133091500D01*
X143504511Y-133091500D01*
X143317714Y-133131204D01*
X143143248Y-133208881D01*
X142988748Y-133321133D01*
X142860957Y-133463058D01*
X142765472Y-133628443D01*
X142706458Y-133810070D01*
X142686496Y-134000000D01*
X139713504Y-134000000D01*
X139693542Y-133810072D01*
X139634527Y-133628444D01*
X139634527Y-133628443D01*
X139539042Y-133463058D01*
X139519442Y-133441291D01*
X139411253Y-133321134D01*
X139256752Y-133208882D01*
X139256751Y-133208881D01*
X139082285Y-133131204D01*
X138895489Y-133091500D01*
X138895487Y-133091500D01*
X138704513Y-133091500D01*
X138704511Y-133091500D01*
X138517714Y-133131204D01*
X138343248Y-133208881D01*
X138188748Y-133321133D01*
X138060957Y-133463058D01*
X137965472Y-133628443D01*
X137906458Y-133810070D01*
X137886496Y-134000000D01*
X125508254Y-134000000D01*
X125504877Y-133786092D01*
X125504864Y-133784872D01*
X125504864Y-133784871D01*
X125501058Y-133144612D01*
X125500673Y-132700000D01*
X140086496Y-132700000D01*
X140106458Y-132889929D01*
X140165472Y-133071556D01*
X140260957Y-133236941D01*
X140260960Y-133236944D01*
X140388747Y-133378866D01*
X140504624Y-133463056D01*
X140543248Y-133491118D01*
X140717714Y-133568795D01*
X140904511Y-133608500D01*
X140904513Y-133608500D01*
X141095487Y-133608500D01*
X141095489Y-133608500D01*
X141282285Y-133568795D01*
X141282286Y-133568794D01*
X141282288Y-133568794D01*
X141456752Y-133491118D01*
X141611253Y-133378866D01*
X141739040Y-133236944D01*
X141770508Y-133182441D01*
X141834527Y-133071556D01*
X141878266Y-132936941D01*
X141893542Y-132889928D01*
X141913504Y-132700000D01*
X141902994Y-132600000D01*
X159086496Y-132600000D01*
X159106458Y-132789929D01*
X159165472Y-132971556D01*
X159260957Y-133136941D01*
X159270810Y-133147884D01*
X159388747Y-133278866D01*
X159446924Y-133321134D01*
X159543248Y-133391118D01*
X159717714Y-133468795D01*
X159904511Y-133508500D01*
X159904513Y-133508500D01*
X160095487Y-133508500D01*
X160095489Y-133508500D01*
X160282285Y-133468795D01*
X160282286Y-133468794D01*
X160282288Y-133468794D01*
X160456752Y-133391118D01*
X160611253Y-133278866D01*
X160739040Y-133136944D01*
X160772572Y-133078866D01*
X160834527Y-132971556D01*
X160861049Y-132889929D01*
X160893542Y-132789928D01*
X160913504Y-132600000D01*
X178086496Y-132600000D01*
X178106458Y-132789929D01*
X178165472Y-132971556D01*
X178260957Y-133136941D01*
X178270810Y-133147884D01*
X178388747Y-133278866D01*
X178446924Y-133321134D01*
X178543248Y-133391118D01*
X178717714Y-133468795D01*
X178904511Y-133508500D01*
X178904513Y-133508500D01*
X179095487Y-133508500D01*
X179095489Y-133508500D01*
X179282285Y-133468795D01*
X179282286Y-133468794D01*
X179282288Y-133468794D01*
X179456752Y-133391118D01*
X179611253Y-133278866D01*
X179739040Y-133136944D01*
X179772572Y-133078866D01*
X179834527Y-132971556D01*
X179861049Y-132889929D01*
X179893542Y-132789928D01*
X179913504Y-132600000D01*
X179893542Y-132410072D01*
X179890269Y-132400000D01*
X183486496Y-132400000D01*
X183506458Y-132589929D01*
X183565472Y-132771556D01*
X183660957Y-132936941D01*
X183660960Y-132936944D01*
X183788747Y-133078866D01*
X183883742Y-133147884D01*
X183943248Y-133191118D01*
X184117714Y-133268795D01*
X184304511Y-133308500D01*
X184304513Y-133308500D01*
X184495487Y-133308500D01*
X184495489Y-133308500D01*
X184682285Y-133268795D01*
X184682286Y-133268794D01*
X184682288Y-133268794D01*
X184856752Y-133191118D01*
X185011253Y-133078866D01*
X185139040Y-132936944D01*
X185234527Y-132771556D01*
X185293542Y-132589928D01*
X185313504Y-132400000D01*
X185293542Y-132210072D01*
X185234527Y-132028444D01*
X185234527Y-132028443D01*
X185139042Y-131863058D01*
X185110360Y-131831204D01*
X185011253Y-131721134D01*
X184856752Y-131608882D01*
X184856751Y-131608881D01*
X184682285Y-131531204D01*
X184495489Y-131491500D01*
X184495487Y-131491500D01*
X184304513Y-131491500D01*
X184304511Y-131491500D01*
X184117714Y-131531204D01*
X183943248Y-131608881D01*
X183788748Y-131721133D01*
X183660957Y-131863058D01*
X183565472Y-132028443D01*
X183506458Y-132210070D01*
X183486496Y-132400000D01*
X179890269Y-132400000D01*
X179834527Y-132228444D01*
X179834527Y-132228443D01*
X179739042Y-132063058D01*
X179701292Y-132021133D01*
X179611253Y-131921134D01*
X179487478Y-131831206D01*
X179456751Y-131808881D01*
X179282285Y-131731204D01*
X179095489Y-131691500D01*
X179095487Y-131691500D01*
X178904513Y-131691500D01*
X178904511Y-131691500D01*
X178717714Y-131731204D01*
X178543248Y-131808881D01*
X178388748Y-131921133D01*
X178260957Y-132063058D01*
X178165472Y-132228443D01*
X178106458Y-132410070D01*
X178086496Y-132600000D01*
X160913504Y-132600000D01*
X160893542Y-132410072D01*
X160834527Y-132228444D01*
X160834527Y-132228443D01*
X160739042Y-132063058D01*
X160701292Y-132021133D01*
X160611253Y-131921134D01*
X160487478Y-131831206D01*
X160456751Y-131808881D01*
X160282285Y-131731204D01*
X160095489Y-131691500D01*
X160095487Y-131691500D01*
X159904513Y-131691500D01*
X159904511Y-131691500D01*
X159717714Y-131731204D01*
X159543248Y-131808881D01*
X159388748Y-131921133D01*
X159260957Y-132063058D01*
X159165472Y-132228443D01*
X159106458Y-132410070D01*
X159086496Y-132600000D01*
X141902994Y-132600000D01*
X141893542Y-132510072D01*
X141834527Y-132328444D01*
X141834527Y-132328443D01*
X141739042Y-132163058D01*
X141649001Y-132063058D01*
X141611253Y-132021134D01*
X141514901Y-131951130D01*
X141456751Y-131908881D01*
X141282285Y-131831204D01*
X141095489Y-131791500D01*
X141095487Y-131791500D01*
X140904513Y-131791500D01*
X140904511Y-131791500D01*
X140717714Y-131831204D01*
X140543248Y-131908881D01*
X140388748Y-132021133D01*
X140260957Y-132163058D01*
X140165472Y-132328443D01*
X140106458Y-132510070D01*
X140086496Y-132700000D01*
X125500673Y-132700000D01*
X125500500Y-132499542D01*
X125500500Y-128948593D01*
X134840832Y-128948593D01*
X134850605Y-129153756D01*
X134899029Y-129353362D01*
X134942619Y-129448811D01*
X134984354Y-129540199D01*
X135090732Y-129689584D01*
X135103494Y-129707506D01*
X135252146Y-129849245D01*
X135424936Y-129960291D01*
X135615618Y-130036629D01*
X135817302Y-130075500D01*
X135971227Y-130075500D01*
X135971232Y-130075500D01*
X136124466Y-130060868D01*
X136321541Y-130003001D01*
X136504104Y-129908884D01*
X136665556Y-129781916D01*
X136800061Y-129626689D01*
X136902759Y-129448811D01*
X136969937Y-129254712D01*
X136999168Y-129051407D01*
X136994270Y-128948593D01*
X145000832Y-128948593D01*
X145010605Y-129153756D01*
X145059029Y-129353362D01*
X145102619Y-129448811D01*
X145144354Y-129540199D01*
X145250732Y-129689584D01*
X145263494Y-129707506D01*
X145412146Y-129849245D01*
X145584936Y-129960291D01*
X145775618Y-130036629D01*
X145977302Y-130075500D01*
X146131227Y-130075500D01*
X146131232Y-130075500D01*
X146284466Y-130060868D01*
X146481541Y-130003001D01*
X146664104Y-129908884D01*
X146825556Y-129781916D01*
X146960061Y-129626689D01*
X147062759Y-129448811D01*
X147129937Y-129254712D01*
X147159168Y-129051407D01*
X147154270Y-128948593D01*
X153840832Y-128948593D01*
X153850605Y-129153756D01*
X153899029Y-129353362D01*
X153942619Y-129448811D01*
X153984354Y-129540199D01*
X154090732Y-129689584D01*
X154103494Y-129707506D01*
X154252146Y-129849245D01*
X154424936Y-129960291D01*
X154615618Y-130036629D01*
X154817302Y-130075500D01*
X154971227Y-130075500D01*
X154971232Y-130075500D01*
X155124466Y-130060868D01*
X155321541Y-130003001D01*
X155504104Y-129908884D01*
X155665556Y-129781916D01*
X155800061Y-129626689D01*
X155902759Y-129448811D01*
X155969937Y-129254712D01*
X155999168Y-129051407D01*
X155994270Y-128948593D01*
X164000832Y-128948593D01*
X164010605Y-129153756D01*
X164059029Y-129353362D01*
X164102619Y-129448811D01*
X164144354Y-129540199D01*
X164250732Y-129689584D01*
X164263494Y-129707506D01*
X164412146Y-129849245D01*
X164584936Y-129960291D01*
X164775618Y-130036629D01*
X164977302Y-130075500D01*
X165131227Y-130075500D01*
X165131232Y-130075500D01*
X165284466Y-130060868D01*
X165481541Y-130003001D01*
X165664104Y-129908884D01*
X165825556Y-129781916D01*
X165960061Y-129626689D01*
X166062759Y-129448811D01*
X166129937Y-129254712D01*
X166159168Y-129051407D01*
X166154539Y-128954226D01*
X172840832Y-128954226D01*
X172850605Y-129159389D01*
X172899029Y-129358995D01*
X172940047Y-129448812D01*
X172984354Y-129545832D01*
X173041933Y-129626689D01*
X173103494Y-129713139D01*
X173252146Y-129854878D01*
X173424936Y-129965924D01*
X173615618Y-130042262D01*
X173817302Y-130081133D01*
X173971227Y-130081133D01*
X173971232Y-130081133D01*
X174124466Y-130066501D01*
X174321541Y-130008634D01*
X174504104Y-129914517D01*
X174665556Y-129787549D01*
X174800061Y-129632322D01*
X174902759Y-129454444D01*
X174969937Y-129260345D01*
X174999168Y-129057040D01*
X174994270Y-128954226D01*
X183000832Y-128954226D01*
X183010605Y-129159389D01*
X183059029Y-129358995D01*
X183100047Y-129448812D01*
X183144354Y-129545832D01*
X183201933Y-129626689D01*
X183263494Y-129713139D01*
X183412146Y-129854878D01*
X183584936Y-129965924D01*
X183775618Y-130042262D01*
X183977302Y-130081133D01*
X184131227Y-130081133D01*
X184131232Y-130081133D01*
X184284466Y-130066501D01*
X184481541Y-130008634D01*
X184664104Y-129914517D01*
X184825556Y-129787549D01*
X184960061Y-129632322D01*
X185062759Y-129454444D01*
X185129937Y-129260345D01*
X185159168Y-129057040D01*
X185149395Y-128851877D01*
X185100971Y-128652271D01*
X185015647Y-128465437D01*
X185015646Y-128465436D01*
X185015645Y-128465433D01*
X184896507Y-128298129D01*
X184896506Y-128298127D01*
X184747854Y-128156388D01*
X184655056Y-128096750D01*
X184575065Y-128045342D01*
X184448121Y-127994521D01*
X184384382Y-127969004D01*
X184384381Y-127969003D01*
X184384379Y-127969003D01*
X184182698Y-127930133D01*
X184028768Y-127930133D01*
X183934526Y-127939132D01*
X183875531Y-127944765D01*
X183678460Y-128002631D01*
X183495893Y-128096750D01*
X183334445Y-128223715D01*
X183199937Y-128378945D01*
X183097241Y-128556820D01*
X183030062Y-128750920D01*
X183001642Y-128948591D01*
X183000832Y-128954226D01*
X174994270Y-128954226D01*
X174989395Y-128851877D01*
X174940971Y-128652271D01*
X174855647Y-128465437D01*
X174855646Y-128465436D01*
X174855645Y-128465433D01*
X174736507Y-128298129D01*
X174736506Y-128298127D01*
X174587854Y-128156388D01*
X174495056Y-128096750D01*
X174415065Y-128045342D01*
X174288121Y-127994521D01*
X174224382Y-127969004D01*
X174224381Y-127969003D01*
X174224379Y-127969003D01*
X174022698Y-127930133D01*
X173868768Y-127930133D01*
X173774526Y-127939132D01*
X173715531Y-127944765D01*
X173518460Y-128002631D01*
X173335893Y-128096750D01*
X173174445Y-128223715D01*
X173039937Y-128378945D01*
X172937241Y-128556820D01*
X172870062Y-128750920D01*
X172841642Y-128948591D01*
X172840832Y-128954226D01*
X166154539Y-128954226D01*
X166149395Y-128846244D01*
X166100971Y-128646638D01*
X166015647Y-128459804D01*
X166015646Y-128459803D01*
X166015645Y-128459800D01*
X165936219Y-128348264D01*
X165896506Y-128292494D01*
X165747854Y-128150755D01*
X165663821Y-128096750D01*
X165575065Y-128039709D01*
X165398450Y-127969003D01*
X165384382Y-127963371D01*
X165384381Y-127963370D01*
X165384379Y-127963370D01*
X165182698Y-127924500D01*
X165028768Y-127924500D01*
X164932996Y-127933644D01*
X164875531Y-127939132D01*
X164678460Y-127996998D01*
X164495893Y-128091117D01*
X164334445Y-128218082D01*
X164199937Y-128373312D01*
X164097241Y-128551187D01*
X164030062Y-128745287D01*
X164000832Y-128948591D01*
X164000832Y-128948593D01*
X155994270Y-128948593D01*
X155989395Y-128846244D01*
X155940971Y-128646638D01*
X155855647Y-128459804D01*
X155855646Y-128459803D01*
X155855645Y-128459800D01*
X155776219Y-128348264D01*
X155736506Y-128292494D01*
X155587854Y-128150755D01*
X155503821Y-128096750D01*
X155415065Y-128039709D01*
X155238450Y-127969003D01*
X155224382Y-127963371D01*
X155224381Y-127963370D01*
X155224379Y-127963370D01*
X155022698Y-127924500D01*
X154868768Y-127924500D01*
X154772996Y-127933644D01*
X154715531Y-127939132D01*
X154518460Y-127996998D01*
X154335893Y-128091117D01*
X154174445Y-128218082D01*
X154039937Y-128373312D01*
X153937241Y-128551187D01*
X153870062Y-128745287D01*
X153840832Y-128948591D01*
X153840832Y-128948593D01*
X147154270Y-128948593D01*
X147149395Y-128846244D01*
X147100971Y-128646638D01*
X147015647Y-128459804D01*
X147015646Y-128459803D01*
X147015645Y-128459800D01*
X146936219Y-128348264D01*
X146896506Y-128292494D01*
X146747854Y-128150755D01*
X146663821Y-128096750D01*
X146575065Y-128039709D01*
X146398450Y-127969003D01*
X146384382Y-127963371D01*
X146384381Y-127963370D01*
X146384379Y-127963370D01*
X146182698Y-127924500D01*
X146028768Y-127924500D01*
X145932996Y-127933644D01*
X145875531Y-127939132D01*
X145678460Y-127996998D01*
X145495893Y-128091117D01*
X145334445Y-128218082D01*
X145199937Y-128373312D01*
X145097241Y-128551187D01*
X145030062Y-128745287D01*
X145000832Y-128948591D01*
X145000832Y-128948593D01*
X136994270Y-128948593D01*
X136989395Y-128846244D01*
X136940971Y-128646638D01*
X136855647Y-128459804D01*
X136855646Y-128459803D01*
X136855645Y-128459800D01*
X136776219Y-128348264D01*
X136736506Y-128292494D01*
X136587854Y-128150755D01*
X136503821Y-128096750D01*
X136415065Y-128039709D01*
X136238450Y-127969003D01*
X136224382Y-127963371D01*
X136224381Y-127963370D01*
X136224379Y-127963370D01*
X136022698Y-127924500D01*
X135868768Y-127924500D01*
X135772996Y-127933644D01*
X135715531Y-127939132D01*
X135518460Y-127996998D01*
X135335893Y-128091117D01*
X135174445Y-128218082D01*
X135039937Y-128373312D01*
X134937241Y-128551187D01*
X134870062Y-128745287D01*
X134840832Y-128948591D01*
X134840832Y-128948593D01*
X125500500Y-128948593D01*
X125500500Y-127000000D01*
X127086496Y-127000000D01*
X127106458Y-127189929D01*
X127165472Y-127371556D01*
X127260957Y-127536941D01*
X127260960Y-127536944D01*
X127388747Y-127678866D01*
X127543247Y-127791117D01*
X127543248Y-127791118D01*
X127717714Y-127868795D01*
X127904511Y-127908500D01*
X127904513Y-127908500D01*
X128095487Y-127908500D01*
X128095489Y-127908500D01*
X128282285Y-127868795D01*
X128282286Y-127868794D01*
X128282288Y-127868794D01*
X128456752Y-127791118D01*
X128611253Y-127678866D01*
X128739040Y-127536944D01*
X128834527Y-127371556D01*
X128893542Y-127189928D01*
X128913504Y-127000000D01*
X128893542Y-126810072D01*
X128834527Y-126628444D01*
X128834527Y-126628443D01*
X128739042Y-126463058D01*
X128719442Y-126441291D01*
X128611253Y-126321134D01*
X128458390Y-126210072D01*
X128456751Y-126208881D01*
X128282285Y-126131204D01*
X128095489Y-126091500D01*
X128095487Y-126091500D01*
X127904513Y-126091500D01*
X127904511Y-126091500D01*
X127717714Y-126131204D01*
X127543248Y-126208881D01*
X127388748Y-126321133D01*
X127260957Y-126463058D01*
X127165472Y-126628443D01*
X127106458Y-126810070D01*
X127086496Y-127000000D01*
X125500500Y-127000000D01*
X125500500Y-123600000D01*
X139186496Y-123600000D01*
X139206458Y-123789929D01*
X139265472Y-123971556D01*
X139360957Y-124136941D01*
X139360960Y-124136944D01*
X139488747Y-124278866D01*
X139643247Y-124391117D01*
X139643248Y-124391118D01*
X139817714Y-124468795D01*
X140004511Y-124508500D01*
X140004513Y-124508500D01*
X140195487Y-124508500D01*
X140195489Y-124508500D01*
X140382285Y-124468795D01*
X140382286Y-124468794D01*
X140382288Y-124468794D01*
X140556752Y-124391118D01*
X140711253Y-124278866D01*
X140839040Y-124136944D01*
X140843948Y-124128444D01*
X140934527Y-123971556D01*
X140950910Y-123921134D01*
X140993542Y-123789928D01*
X141013504Y-123600000D01*
X140993542Y-123410072D01*
X140990269Y-123400000D01*
X156886496Y-123400000D01*
X156906458Y-123589929D01*
X156965472Y-123771556D01*
X157060957Y-123936941D01*
X157060960Y-123936944D01*
X157188747Y-124078866D01*
X157343248Y-124191118D01*
X157517714Y-124268795D01*
X157704511Y-124308500D01*
X157704513Y-124308500D01*
X157895487Y-124308500D01*
X157895489Y-124308500D01*
X158082285Y-124268795D01*
X158082286Y-124268794D01*
X158082288Y-124268794D01*
X158256752Y-124191118D01*
X158411253Y-124078866D01*
X158539040Y-123936944D01*
X158581555Y-123863307D01*
X158634527Y-123771556D01*
X158634527Y-123771555D01*
X158693542Y-123589928D01*
X158713504Y-123400000D01*
X158693542Y-123210072D01*
X158634527Y-123028444D01*
X158634527Y-123028443D01*
X158539042Y-122863058D01*
X158519442Y-122841291D01*
X158411253Y-122721134D01*
X158256752Y-122608882D01*
X158256751Y-122608881D01*
X158082285Y-122531204D01*
X157895489Y-122491500D01*
X157895487Y-122491500D01*
X157704513Y-122491500D01*
X157704511Y-122491500D01*
X157517714Y-122531204D01*
X157343248Y-122608881D01*
X157188748Y-122721133D01*
X157060957Y-122863058D01*
X156965472Y-123028443D01*
X156906458Y-123210070D01*
X156886496Y-123400000D01*
X140990269Y-123400000D01*
X140948036Y-123270021D01*
X140934527Y-123228443D01*
X140839042Y-123063058D01*
X140807874Y-123028443D01*
X140711253Y-122921134D01*
X140556752Y-122808882D01*
X140556751Y-122808881D01*
X140382285Y-122731204D01*
X140195489Y-122691500D01*
X140195487Y-122691500D01*
X140004513Y-122691500D01*
X140004511Y-122691500D01*
X139817714Y-122731204D01*
X139643248Y-122808881D01*
X139488748Y-122921133D01*
X139360957Y-123063058D01*
X139265472Y-123228443D01*
X139206458Y-123410070D01*
X139186496Y-123600000D01*
X125500500Y-123600000D01*
X125500500Y-119000000D01*
X127086496Y-119000000D01*
X127106458Y-119189929D01*
X127165472Y-119371556D01*
X127260957Y-119536941D01*
X127260960Y-119536944D01*
X127388747Y-119678866D01*
X127526385Y-119778866D01*
X127543248Y-119791118D01*
X127717714Y-119868795D01*
X127904511Y-119908500D01*
X127904513Y-119908500D01*
X128095487Y-119908500D01*
X128095489Y-119908500D01*
X128282285Y-119868795D01*
X128282286Y-119868794D01*
X128282288Y-119868794D01*
X128456752Y-119791118D01*
X128611253Y-119678866D01*
X128739040Y-119536944D01*
X128770474Y-119482500D01*
X128834527Y-119371556D01*
X128838769Y-119358500D01*
X128893542Y-119189928D01*
X128913504Y-119000000D01*
X128893542Y-118810072D01*
X128834527Y-118628444D01*
X128834527Y-118628443D01*
X128788449Y-118548634D01*
X136991500Y-118548634D01*
X136998011Y-118609205D01*
X137049110Y-118746203D01*
X137136738Y-118863261D01*
X137253796Y-118950889D01*
X137390794Y-119001988D01*
X137390797Y-119001988D01*
X137390799Y-119001989D01*
X137451362Y-119008500D01*
X139548634Y-119008500D01*
X139548638Y-119008500D01*
X139609201Y-119001989D01*
X139609203Y-119001988D01*
X139609205Y-119001988D01*
X139690794Y-118971556D01*
X139746204Y-118950889D01*
X139863261Y-118863261D01*
X139944702Y-118754468D01*
X139991650Y-118716358D01*
X140051045Y-118704984D01*
X140108756Y-118723055D01*
X140110580Y-118724173D01*
X140110584Y-118724176D01*
X140313037Y-118848240D01*
X140532406Y-118939105D01*
X140763289Y-118994535D01*
X141000000Y-119013165D01*
X141236711Y-118994535D01*
X141467594Y-118939105D01*
X141686963Y-118848240D01*
X141889416Y-118724176D01*
X142069969Y-118569969D01*
X142155710Y-118469578D01*
X142198086Y-118437500D01*
X142250000Y-118426110D01*
X142301914Y-118437500D01*
X142344290Y-118469579D01*
X142424126Y-118563056D01*
X142430031Y-118569969D01*
X142610584Y-118724176D01*
X142813037Y-118848240D01*
X143032406Y-118939105D01*
X143263289Y-118994535D01*
X143500000Y-119013165D01*
X143736711Y-118994535D01*
X143967594Y-118939105D01*
X144186963Y-118848240D01*
X144389416Y-118724176D01*
X144569969Y-118569969D01*
X144724176Y-118389416D01*
X144848240Y-118186963D01*
X144939105Y-117967594D01*
X144994535Y-117736711D01*
X145013165Y-117500000D01*
X144994535Y-117263289D01*
X144939105Y-117032406D01*
X144848240Y-116813037D01*
X144724176Y-116610584D01*
X144569969Y-116430031D01*
X144389416Y-116275824D01*
X144186963Y-116151760D01*
X144077278Y-116106327D01*
X143967593Y-116060894D01*
X143736712Y-116005465D01*
X143500000Y-115986835D01*
X143263287Y-116005465D01*
X143032406Y-116060894D01*
X142813035Y-116151761D01*
X142610585Y-116275823D01*
X142430031Y-116430031D01*
X142344290Y-116530421D01*
X142301914Y-116562499D01*
X142250000Y-116573889D01*
X142198086Y-116562499D01*
X142155710Y-116530421D01*
X142069969Y-116430031D01*
X141889416Y-116275824D01*
X141686963Y-116151760D01*
X141577278Y-116106327D01*
X141467593Y-116060894D01*
X141236712Y-116005465D01*
X141000000Y-115986835D01*
X140763287Y-116005465D01*
X140532406Y-116060894D01*
X140313035Y-116151761D01*
X140108756Y-116276944D01*
X140051045Y-116295015D01*
X139991650Y-116283641D01*
X139944699Y-116245527D01*
X139863261Y-116136738D01*
X139746203Y-116049110D01*
X139609205Y-115998011D01*
X139578919Y-115994755D01*
X139548638Y-115991500D01*
X137451362Y-115991500D01*
X137424445Y-115994393D01*
X137390794Y-115998011D01*
X137253796Y-116049110D01*
X137136738Y-116136738D01*
X137049110Y-116253796D01*
X136998011Y-116390794D01*
X136991500Y-116451366D01*
X136991500Y-118548634D01*
X128788449Y-118548634D01*
X128739042Y-118463058D01*
X128672734Y-118389416D01*
X128611253Y-118321134D01*
X128487478Y-118231206D01*
X128456751Y-118208881D01*
X128282285Y-118131204D01*
X128095489Y-118091500D01*
X128095487Y-118091500D01*
X127904513Y-118091500D01*
X127904511Y-118091500D01*
X127717714Y-118131204D01*
X127543248Y-118208881D01*
X127388748Y-118321133D01*
X127260957Y-118463058D01*
X127165472Y-118628443D01*
X127106458Y-118810070D01*
X127086496Y-119000000D01*
X125500500Y-119000000D01*
X125500500Y-114999999D01*
X156986496Y-114999999D01*
X157006458Y-115189929D01*
X157065472Y-115371556D01*
X157160957Y-115536941D01*
X157160960Y-115536944D01*
X157288747Y-115678866D01*
X157443247Y-115791117D01*
X157443248Y-115791118D01*
X157617714Y-115868795D01*
X157804511Y-115908500D01*
X157804513Y-115908500D01*
X157995487Y-115908500D01*
X157995489Y-115908500D01*
X158182285Y-115868795D01*
X158182286Y-115868794D01*
X158182288Y-115868794D01*
X158356752Y-115791118D01*
X158511253Y-115678866D01*
X158639040Y-115536944D01*
X158734527Y-115371556D01*
X158793542Y-115189928D01*
X158813504Y-115000000D01*
X158813504Y-114999999D01*
X160986496Y-114999999D01*
X161006458Y-115189929D01*
X161065472Y-115371556D01*
X161160957Y-115536941D01*
X161160960Y-115536944D01*
X161288747Y-115678866D01*
X161443247Y-115791117D01*
X161443248Y-115791118D01*
X161617714Y-115868795D01*
X161804511Y-115908500D01*
X161804513Y-115908500D01*
X161995487Y-115908500D01*
X161995489Y-115908500D01*
X162182285Y-115868795D01*
X162182286Y-115868794D01*
X162182288Y-115868794D01*
X162356752Y-115791118D01*
X162511253Y-115678866D01*
X162639040Y-115536944D01*
X162734527Y-115371556D01*
X162793542Y-115189928D01*
X162813504Y-115000000D01*
X162793542Y-114810072D01*
X162734527Y-114628444D01*
X162734527Y-114628443D01*
X162639042Y-114463058D01*
X162619442Y-114441291D01*
X162511253Y-114321134D01*
X162356752Y-114208882D01*
X162356751Y-114208881D01*
X162182285Y-114131204D01*
X161995489Y-114091500D01*
X161995487Y-114091500D01*
X161804513Y-114091500D01*
X161804511Y-114091500D01*
X161617714Y-114131204D01*
X161443248Y-114208881D01*
X161288748Y-114321133D01*
X161160957Y-114463058D01*
X161065472Y-114628443D01*
X161006458Y-114810070D01*
X160986496Y-114999999D01*
X158813504Y-114999999D01*
X158793542Y-114810072D01*
X158734527Y-114628444D01*
X158734527Y-114628443D01*
X158639042Y-114463058D01*
X158619442Y-114441291D01*
X158511253Y-114321134D01*
X158356752Y-114208882D01*
X158356751Y-114208881D01*
X158182285Y-114131204D01*
X157995489Y-114091500D01*
X157995487Y-114091500D01*
X157804513Y-114091500D01*
X157804511Y-114091500D01*
X157617714Y-114131204D01*
X157443248Y-114208881D01*
X157288748Y-114321133D01*
X157160957Y-114463058D01*
X157065472Y-114628443D01*
X157006458Y-114810070D01*
X156986496Y-114999999D01*
X125500500Y-114999999D01*
X125500500Y-112299999D01*
X163986496Y-112299999D01*
X164006458Y-112489929D01*
X164065472Y-112671556D01*
X164160957Y-112836941D01*
X164160960Y-112836944D01*
X164288747Y-112978866D01*
X164443247Y-113091117D01*
X164443248Y-113091118D01*
X164617714Y-113168795D01*
X164804511Y-113208500D01*
X164804513Y-113208500D01*
X164995487Y-113208500D01*
X164995489Y-113208500D01*
X165182285Y-113168795D01*
X165182286Y-113168794D01*
X165182288Y-113168794D01*
X165356752Y-113091118D01*
X165511253Y-112978866D01*
X165639040Y-112836944D01*
X165734527Y-112671556D01*
X165793542Y-112489928D01*
X165813504Y-112300000D01*
X165793542Y-112110072D01*
X165747504Y-111968383D01*
X165734527Y-111928443D01*
X165639042Y-111763058D01*
X165591331Y-111710070D01*
X165511253Y-111621134D01*
X165383677Y-111528444D01*
X165356751Y-111508881D01*
X165182285Y-111431204D01*
X164995489Y-111391500D01*
X164995487Y-111391500D01*
X164804513Y-111391500D01*
X164804511Y-111391500D01*
X164617714Y-111431204D01*
X164443248Y-111508881D01*
X164288748Y-111621133D01*
X164160957Y-111763058D01*
X164065472Y-111928443D01*
X164006458Y-112110070D01*
X163986496Y-112299999D01*
X125500500Y-112299999D01*
X125500500Y-111049999D01*
X127086496Y-111049999D01*
X127106458Y-111239929D01*
X127165472Y-111421556D01*
X127260957Y-111586941D01*
X127260960Y-111586944D01*
X127388747Y-111728866D01*
X127511765Y-111818244D01*
X127543248Y-111841118D01*
X127717714Y-111918795D01*
X127904511Y-111958500D01*
X127904513Y-111958500D01*
X128095487Y-111958500D01*
X128095489Y-111958500D01*
X128282285Y-111918795D01*
X128282286Y-111918794D01*
X128282288Y-111918794D01*
X128456752Y-111841118D01*
X128611253Y-111728866D01*
X128739040Y-111586944D01*
X128770072Y-111533196D01*
X128834527Y-111421556D01*
X128853535Y-111363056D01*
X128893542Y-111239928D01*
X128913504Y-111050000D01*
X128893542Y-110860072D01*
X128834527Y-110678444D01*
X128834527Y-110678443D01*
X128739042Y-110513058D01*
X128719442Y-110491291D01*
X128611253Y-110371134D01*
X128456752Y-110258882D01*
X128456751Y-110258881D01*
X128282285Y-110181204D01*
X128095489Y-110141500D01*
X128095487Y-110141500D01*
X127904513Y-110141500D01*
X127904511Y-110141500D01*
X127717714Y-110181204D01*
X127543248Y-110258881D01*
X127388748Y-110371133D01*
X127260957Y-110513058D01*
X127165472Y-110678443D01*
X127106458Y-110860070D01*
X127086496Y-111049999D01*
X125500500Y-111049999D01*
X125500500Y-110000000D01*
X133486624Y-110000000D01*
X133506100Y-110272302D01*
X133564128Y-110539055D01*
X133659534Y-110794847D01*
X133790365Y-111034447D01*
X133810143Y-111060867D01*
X133953968Y-111252994D01*
X134147006Y-111446032D01*
X134268446Y-111536941D01*
X134365552Y-111609634D01*
X134386613Y-111621134D01*
X134605155Y-111740467D01*
X134860940Y-111835870D01*
X134860943Y-111835870D01*
X134860944Y-111835871D01*
X134898910Y-111844130D01*
X135127698Y-111893900D01*
X135400000Y-111913375D01*
X135672302Y-111893900D01*
X135939060Y-111835870D01*
X136194845Y-111740467D01*
X136434449Y-111609633D01*
X136652994Y-111446032D01*
X136846032Y-111252994D01*
X137009633Y-111034449D01*
X137140467Y-110794845D01*
X137235870Y-110539060D01*
X137293900Y-110272302D01*
X137313375Y-110000000D01*
X144686624Y-110000000D01*
X144706100Y-110272302D01*
X144764128Y-110539055D01*
X144859534Y-110794847D01*
X144990365Y-111034447D01*
X145010143Y-111060867D01*
X145153968Y-111252994D01*
X145347006Y-111446032D01*
X145468446Y-111536941D01*
X145565552Y-111609634D01*
X145586613Y-111621134D01*
X145805155Y-111740467D01*
X146060940Y-111835870D01*
X146060943Y-111835870D01*
X146060944Y-111835871D01*
X146098910Y-111844130D01*
X146327698Y-111893900D01*
X146600000Y-111913375D01*
X146872302Y-111893900D01*
X147139060Y-111835870D01*
X147394845Y-111740467D01*
X147634449Y-111609633D01*
X147852994Y-111446032D01*
X148046032Y-111252994D01*
X148209633Y-111034449D01*
X148340467Y-110794845D01*
X148435870Y-110539060D01*
X148493900Y-110272302D01*
X148513375Y-110000000D01*
X148509698Y-109948593D01*
X153840832Y-109948593D01*
X153850605Y-110153756D01*
X153899029Y-110353362D01*
X153942619Y-110448811D01*
X153984354Y-110540199D01*
X154064975Y-110653414D01*
X154103494Y-110707506D01*
X154252146Y-110849245D01*
X154424936Y-110960291D01*
X154615618Y-111036629D01*
X154817302Y-111075500D01*
X154971227Y-111075500D01*
X154971232Y-111075500D01*
X155124466Y-111060868D01*
X155321541Y-111003001D01*
X155504104Y-110908884D01*
X155665556Y-110781916D01*
X155800061Y-110626689D01*
X155902759Y-110448811D01*
X155969937Y-110254712D01*
X155995963Y-110073697D01*
X157795807Y-110073697D01*
X157825296Y-110366827D01*
X157893592Y-110653413D01*
X157999477Y-110928338D01*
X158141063Y-111186699D01*
X158315822Y-111423884D01*
X158520635Y-111635658D01*
X158751845Y-111818244D01*
X158837191Y-111868794D01*
X159005331Y-111968383D01*
X159276566Y-112083397D01*
X159276567Y-112083397D01*
X159276569Y-112083398D01*
X159339194Y-112100552D01*
X159560710Y-112161232D01*
X159852694Y-112200500D01*
X160073571Y-112200500D01*
X160073573Y-112200500D01*
X160293955Y-112185747D01*
X160414573Y-112161230D01*
X160582663Y-112127064D01*
X160860974Y-112030424D01*
X161123921Y-111897551D01*
X161366812Y-111730816D01*
X161585312Y-111533195D01*
X161775522Y-111308213D01*
X161934047Y-111059887D01*
X162058060Y-110792647D01*
X162145346Y-110511262D01*
X162194349Y-110220754D01*
X162203448Y-109948593D01*
X164000832Y-109948593D01*
X164010605Y-110153756D01*
X164059029Y-110353362D01*
X164102619Y-110448811D01*
X164144354Y-110540199D01*
X164224975Y-110653414D01*
X164263494Y-110707506D01*
X164412146Y-110849245D01*
X164584936Y-110960291D01*
X164775618Y-111036629D01*
X164977302Y-111075500D01*
X165131227Y-111075500D01*
X165131232Y-111075500D01*
X165284466Y-111060868D01*
X165481541Y-111003001D01*
X165664104Y-110908884D01*
X165825556Y-110781916D01*
X165960061Y-110626689D01*
X166062759Y-110448811D01*
X166129937Y-110254712D01*
X166159168Y-110051407D01*
X166149395Y-109846244D01*
X166100971Y-109646638D01*
X166015647Y-109459804D01*
X166015646Y-109459803D01*
X166015645Y-109459800D01*
X165896507Y-109292496D01*
X165896506Y-109292494D01*
X165747854Y-109150755D01*
X165655056Y-109091117D01*
X165575065Y-109039709D01*
X165446936Y-108988414D01*
X165384382Y-108963371D01*
X165384381Y-108963370D01*
X165384379Y-108963370D01*
X165182698Y-108924500D01*
X165028768Y-108924500D01*
X164932996Y-108933645D01*
X164875531Y-108939132D01*
X164678460Y-108996998D01*
X164495893Y-109091117D01*
X164334445Y-109218082D01*
X164199937Y-109373312D01*
X164097241Y-109551187D01*
X164030062Y-109745287D01*
X164004037Y-109926302D01*
X164000832Y-109948593D01*
X162203448Y-109948593D01*
X162204193Y-109926306D01*
X162174704Y-109633173D01*
X162106407Y-109346586D01*
X162078488Y-109274096D01*
X162000522Y-109071661D01*
X161858936Y-108813300D01*
X161767242Y-108688852D01*
X161684178Y-108576116D01*
X161479365Y-108364342D01*
X161448451Y-108339929D01*
X161248154Y-108181755D01*
X161002896Y-108036490D01*
X160994669Y-108031617D01*
X160817104Y-107956322D01*
X160723430Y-107916601D01*
X160439294Y-107838769D01*
X160439293Y-107838768D01*
X160439290Y-107838768D01*
X160147306Y-107799500D01*
X159926429Y-107799500D01*
X159926427Y-107799500D01*
X159706044Y-107814252D01*
X159417338Y-107872935D01*
X159139022Y-107969577D01*
X158876081Y-108102447D01*
X158633187Y-108269184D01*
X158414689Y-108466803D01*
X158224478Y-108691786D01*
X158065951Y-108940115D01*
X157941941Y-109207350D01*
X157863276Y-109460944D01*
X157854654Y-109488738D01*
X157805651Y-109779246D01*
X157799990Y-109948591D01*
X157795807Y-110073697D01*
X155995963Y-110073697D01*
X155999168Y-110051407D01*
X155989395Y-109846244D01*
X155940971Y-109646638D01*
X155855647Y-109459804D01*
X155761407Y-109327462D01*
X155739812Y-109274096D01*
X155744645Y-109216727D01*
X155774866Y-109167724D01*
X155823960Y-109137651D01*
X155881343Y-109132990D01*
X156059445Y-109160500D01*
X156255177Y-109160500D01*
X156255179Y-109160500D01*
X156279536Y-109158629D01*
X156450344Y-109145516D01*
X156704586Y-109086021D01*
X156851384Y-109026856D01*
X156946762Y-108988416D01*
X156946764Y-108988414D01*
X156946766Y-108988414D01*
X157171208Y-108854982D01*
X157372652Y-108688852D01*
X157374353Y-108686944D01*
X157456546Y-108594716D01*
X157546375Y-108493920D01*
X157688306Y-108274753D01*
X157765550Y-108102447D01*
X157795118Y-108036490D01*
X157856189Y-107814253D01*
X157864307Y-107784713D01*
X157894252Y-107525325D01*
X157884251Y-107264407D01*
X157834538Y-107008073D01*
X157746279Y-106762332D01*
X157621541Y-106532943D01*
X157621539Y-106532939D01*
X157463250Y-106325284D01*
X157275112Y-106144220D01*
X157061546Y-105994002D01*
X156827546Y-105878140D01*
X156578608Y-105799359D01*
X156417562Y-105774484D01*
X156320555Y-105759500D01*
X156124823Y-105759500D01*
X156124821Y-105759500D01*
X155929656Y-105774484D01*
X155675412Y-105833979D01*
X155433237Y-105931583D01*
X155208791Y-106065017D01*
X155007346Y-106231148D01*
X154833622Y-106426082D01*
X154691693Y-106645247D01*
X154584881Y-106883509D01*
X154515693Y-107135283D01*
X154485747Y-107394675D01*
X154494119Y-107613058D01*
X154495749Y-107655593D01*
X154537900Y-107872936D01*
X154545463Y-107911930D01*
X154633719Y-108157664D01*
X154758460Y-108387060D01*
X154916749Y-108594715D01*
X155037738Y-108711155D01*
X155069083Y-108760379D01*
X155074441Y-108818489D01*
X155052627Y-108872615D01*
X155008471Y-108910768D01*
X154951753Y-108924500D01*
X154868768Y-108924500D01*
X154772996Y-108933645D01*
X154715531Y-108939132D01*
X154518460Y-108996998D01*
X154335893Y-109091117D01*
X154174445Y-109218082D01*
X154039937Y-109373312D01*
X153937241Y-109551187D01*
X153870062Y-109745287D01*
X153844037Y-109926302D01*
X153840832Y-109948593D01*
X148509698Y-109948593D01*
X148493900Y-109727698D01*
X148435870Y-109460940D01*
X148340467Y-109205155D01*
X148260387Y-109058500D01*
X148209634Y-108965552D01*
X148126862Y-108854982D01*
X148046032Y-108747006D01*
X147852994Y-108553968D01*
X147736555Y-108466803D01*
X147634447Y-108390365D01*
X147394847Y-108259534D01*
X147394846Y-108259533D01*
X147394845Y-108259533D01*
X147186317Y-108181756D01*
X147139055Y-108164128D01*
X146872302Y-108106100D01*
X146600000Y-108086624D01*
X146327697Y-108106100D01*
X146060944Y-108164128D01*
X145805152Y-108259534D01*
X145565552Y-108390365D01*
X145347003Y-108553970D01*
X145153970Y-108747003D01*
X144990365Y-108965552D01*
X144859534Y-109205152D01*
X144764128Y-109460944D01*
X144706100Y-109727697D01*
X144686624Y-110000000D01*
X137313375Y-110000000D01*
X137293900Y-109727698D01*
X137235870Y-109460940D01*
X137140467Y-109205155D01*
X137060387Y-109058500D01*
X137009634Y-108965552D01*
X136926862Y-108854982D01*
X136846032Y-108747006D01*
X136652994Y-108553968D01*
X136536555Y-108466803D01*
X136434447Y-108390365D01*
X136194847Y-108259534D01*
X136194846Y-108259533D01*
X136194845Y-108259533D01*
X135986317Y-108181756D01*
X135939055Y-108164128D01*
X135672302Y-108106100D01*
X135400000Y-108086624D01*
X135127697Y-108106100D01*
X134860944Y-108164128D01*
X134605152Y-108259534D01*
X134365552Y-108390365D01*
X134147003Y-108553970D01*
X133953970Y-108747003D01*
X133790365Y-108965552D01*
X133659534Y-109205152D01*
X133564128Y-109460944D01*
X133506100Y-109727697D01*
X133486624Y-110000000D01*
X125500500Y-110000000D01*
X125500500Y-108150000D01*
X131936496Y-108150000D01*
X131956458Y-108339929D01*
X132015472Y-108521556D01*
X132110957Y-108686941D01*
X132132760Y-108711155D01*
X132238747Y-108828866D01*
X132393247Y-108941117D01*
X132393248Y-108941118D01*
X132567714Y-109018795D01*
X132754511Y-109058500D01*
X132754513Y-109058500D01*
X132945487Y-109058500D01*
X132945489Y-109058500D01*
X133132285Y-109018795D01*
X133132286Y-109018794D01*
X133132288Y-109018794D01*
X133306752Y-108941118D01*
X133461253Y-108828866D01*
X133589040Y-108686944D01*
X133684527Y-108521556D01*
X133743542Y-108339928D01*
X133763504Y-108150000D01*
X133743542Y-107960072D01*
X133684527Y-107778444D01*
X133684527Y-107778443D01*
X133589042Y-107613058D01*
X133569442Y-107591291D01*
X133461253Y-107471134D01*
X133306752Y-107358882D01*
X133306751Y-107358881D01*
X133132285Y-107281204D01*
X132945489Y-107241500D01*
X132945487Y-107241500D01*
X132754513Y-107241500D01*
X132754511Y-107241500D01*
X132567714Y-107281204D01*
X132393248Y-107358881D01*
X132238748Y-107471133D01*
X132110957Y-107613058D01*
X132015472Y-107778443D01*
X131956458Y-107960070D01*
X131936496Y-108150000D01*
X125500500Y-108150000D01*
X125500500Y-104499999D01*
X126694531Y-104499999D01*
X126714364Y-104726689D01*
X126773261Y-104946497D01*
X126869432Y-105152735D01*
X126999953Y-105339140D01*
X127160859Y-105500046D01*
X127347264Y-105630567D01*
X127347265Y-105630567D01*
X127347266Y-105630568D01*
X127553504Y-105726739D01*
X127773308Y-105785635D01*
X127858262Y-105793067D01*
X127943214Y-105800500D01*
X127943216Y-105800500D01*
X128056784Y-105800500D01*
X128056786Y-105800500D01*
X128062512Y-105799999D01*
X130011496Y-105799999D01*
X130031458Y-105989929D01*
X130090472Y-106171556D01*
X130185957Y-106336941D01*
X130185960Y-106336944D01*
X130313747Y-106478866D01*
X130406178Y-106546021D01*
X130468248Y-106591118D01*
X130642714Y-106668795D01*
X130829511Y-106708500D01*
X130829513Y-106708500D01*
X131020487Y-106708500D01*
X131020489Y-106708500D01*
X131207285Y-106668795D01*
X131207286Y-106668794D01*
X131207288Y-106668794D01*
X131381752Y-106591118D01*
X131536253Y-106478866D01*
X131664040Y-106336944D01*
X131694624Y-106283972D01*
X131759527Y-106171556D01*
X131775170Y-106123412D01*
X131818542Y-105989928D01*
X131838504Y-105800000D01*
X131818542Y-105610072D01*
X131759527Y-105428444D01*
X131759527Y-105428443D01*
X131664042Y-105263058D01*
X131644442Y-105241291D01*
X131536253Y-105121134D01*
X131381752Y-105008882D01*
X131381751Y-105008881D01*
X131207285Y-104931204D01*
X131020489Y-104891500D01*
X131020487Y-104891500D01*
X130829513Y-104891500D01*
X130829511Y-104891500D01*
X130642714Y-104931204D01*
X130468248Y-105008881D01*
X130313748Y-105121133D01*
X130185957Y-105263058D01*
X130090472Y-105428443D01*
X130031458Y-105610070D01*
X130011496Y-105799999D01*
X128062512Y-105799999D01*
X128124747Y-105794554D01*
X128226692Y-105785635D01*
X128446496Y-105726739D01*
X128652734Y-105630568D01*
X128839139Y-105500047D01*
X129000047Y-105339139D01*
X129130568Y-105152734D01*
X129226739Y-104946496D01*
X129285635Y-104726692D01*
X129305468Y-104500000D01*
X129285635Y-104273308D01*
X129226739Y-104053504D01*
X129130568Y-103847266D01*
X129108587Y-103815874D01*
X129000046Y-103660859D01*
X128839140Y-103499953D01*
X128652735Y-103369432D01*
X128446497Y-103273261D01*
X128226689Y-103214364D01*
X128056786Y-103199500D01*
X128056784Y-103199500D01*
X127943216Y-103199500D01*
X127943214Y-103199500D01*
X127773310Y-103214364D01*
X127553502Y-103273261D01*
X127347264Y-103369432D01*
X127160859Y-103499953D01*
X126999953Y-103660859D01*
X126869432Y-103847264D01*
X126773261Y-104053502D01*
X126714364Y-104273310D01*
X126694531Y-104499999D01*
X125500500Y-104499999D01*
X125500500Y-101791860D01*
X129586500Y-101791860D01*
X129587600Y-101825465D01*
X129588661Y-101841656D01*
X129591954Y-101875090D01*
X129605798Y-101980244D01*
X129618903Y-102046131D01*
X129627277Y-102077382D01*
X129648872Y-102141000D01*
X129686328Y-102231428D01*
X129716035Y-102291668D01*
X129732222Y-102319703D01*
X129769539Y-102375553D01*
X129826106Y-102449271D01*
X129829121Y-102453200D01*
X129873409Y-102503700D01*
X129896299Y-102526590D01*
X129946799Y-102570878D01*
X129946802Y-102570880D01*
X130024445Y-102630459D01*
X130061846Y-102655449D01*
X130080296Y-102667777D01*
X130094312Y-102675869D01*
X130108330Y-102683963D01*
X130168573Y-102713671D01*
X130259000Y-102751127D01*
X130299839Y-102764990D01*
X130322600Y-102772717D01*
X130322605Y-102772718D01*
X130322604Y-102772718D01*
X130353871Y-102781096D01*
X130419747Y-102794200D01*
X130524913Y-102808046D01*
X130550626Y-102810578D01*
X130558339Y-102811338D01*
X130558344Y-102811338D01*
X130558351Y-102811339D01*
X130574536Y-102812400D01*
X130608126Y-102813500D01*
X133391860Y-102813500D01*
X133391874Y-102813500D01*
X133425466Y-102812400D01*
X133441650Y-102811339D01*
X133475086Y-102808046D01*
X133580252Y-102794200D01*
X133646128Y-102781096D01*
X133677395Y-102772718D01*
X133740999Y-102751127D01*
X133831426Y-102713671D01*
X133891670Y-102683962D01*
X133919703Y-102667777D01*
X133975550Y-102630461D01*
X134053200Y-102570878D01*
X134103700Y-102526590D01*
X134126590Y-102503700D01*
X134170878Y-102453200D01*
X134230461Y-102375550D01*
X134267777Y-102319703D01*
X134283962Y-102291670D01*
X134313671Y-102231426D01*
X134351127Y-102140999D01*
X134372718Y-102077395D01*
X134381096Y-102046128D01*
X134394199Y-101980253D01*
X134408045Y-101875089D01*
X134411339Y-101841648D01*
X134412400Y-101825462D01*
X134413500Y-101791874D01*
X134413500Y-101137500D01*
X134430113Y-101075500D01*
X134475500Y-101030113D01*
X134537500Y-101013500D01*
X139417500Y-101013500D01*
X139479500Y-101030113D01*
X139524887Y-101075500D01*
X139541500Y-101137500D01*
X139541500Y-103260706D01*
X139540191Y-103278676D01*
X139536659Y-103302789D01*
X139541028Y-103352726D01*
X139541500Y-103363533D01*
X139541500Y-103369181D01*
X139545139Y-103400322D01*
X139545505Y-103403905D01*
X139552214Y-103480582D01*
X139556523Y-103500017D01*
X139556920Y-103501109D01*
X139556921Y-103501113D01*
X139565622Y-103525018D01*
X139582855Y-103572367D01*
X139584037Y-103575771D01*
X139608251Y-103648843D01*
X139616922Y-103666754D01*
X139659245Y-103731103D01*
X139661178Y-103734138D01*
X139700970Y-103798651D01*
X139700972Y-103798653D01*
X139701589Y-103799653D01*
X139714153Y-103815075D01*
X139714997Y-103815871D01*
X139714999Y-103815874D01*
X139748273Y-103847266D01*
X139770173Y-103867928D01*
X139772760Y-103870441D01*
X141918196Y-106015877D01*
X141929977Y-106029509D01*
X141944531Y-106049058D01*
X141973660Y-106073500D01*
X141982933Y-106081281D01*
X141990908Y-106088589D01*
X141994900Y-106092581D01*
X142018009Y-106110853D01*
X142019471Y-106112009D01*
X142022266Y-106114286D01*
X142033879Y-106124030D01*
X142080360Y-106163032D01*
X142080361Y-106163032D01*
X142081258Y-106163785D01*
X142098032Y-106174471D01*
X142099094Y-106174966D01*
X142099095Y-106174967D01*
X142131056Y-106189871D01*
X142167830Y-106207019D01*
X142171071Y-106208588D01*
X142199048Y-106222639D01*
X142239867Y-106243139D01*
X142258644Y-106249665D01*
X142259791Y-106249902D01*
X142259794Y-106249903D01*
X142334150Y-106265256D01*
X142337571Y-106266014D01*
X142411344Y-106283500D01*
X142412487Y-106283771D01*
X142432272Y-106285792D01*
X142433437Y-106285758D01*
X142433442Y-106285759D01*
X142509292Y-106283552D01*
X142512899Y-106283500D01*
X152935706Y-106283500D01*
X152953676Y-106284809D01*
X152957114Y-106285312D01*
X152977789Y-106288341D01*
X153027726Y-106283971D01*
X153038533Y-106283500D01*
X153044178Y-106283500D01*
X153044180Y-106283500D01*
X153075364Y-106279854D01*
X153078858Y-106279497D01*
X153154426Y-106272887D01*
X153154429Y-106272885D01*
X153155594Y-106272784D01*
X153175015Y-106268478D01*
X153176110Y-106268079D01*
X153176113Y-106268079D01*
X153247414Y-106242126D01*
X153250708Y-106240981D01*
X153322738Y-106217114D01*
X153322742Y-106217111D01*
X153323863Y-106216740D01*
X153341751Y-106208080D01*
X153343364Y-106207019D01*
X153406103Y-106165753D01*
X153409129Y-106163826D01*
X153473651Y-106124030D01*
X153473655Y-106124025D01*
X153474650Y-106123412D01*
X153490069Y-106110853D01*
X153490870Y-106110003D01*
X153490874Y-106110001D01*
X153542962Y-106054789D01*
X153545408Y-106052271D01*
X154743004Y-104854675D01*
X160835747Y-104854675D01*
X160845036Y-105097013D01*
X160845749Y-105115593D01*
X160889103Y-105339140D01*
X160895463Y-105371930D01*
X160983719Y-105617664D01*
X161108460Y-105847060D01*
X161262436Y-106049057D01*
X161266750Y-106054716D01*
X161294353Y-106081281D01*
X161454887Y-106235779D01*
X161582137Y-106325284D01*
X161668456Y-106385999D01*
X161749406Y-106426080D01*
X161902453Y-106501859D01*
X162151391Y-106580640D01*
X162151392Y-106580640D01*
X162151395Y-106580641D01*
X162409445Y-106620500D01*
X162605177Y-106620500D01*
X162605179Y-106620500D01*
X162629536Y-106618629D01*
X162800344Y-106605516D01*
X163054586Y-106546021D01*
X163221209Y-106478866D01*
X163296762Y-106448416D01*
X163296764Y-106448414D01*
X163296766Y-106448414D01*
X163521208Y-106314982D01*
X163722652Y-106148852D01*
X163896375Y-105953920D01*
X164038306Y-105734753D01*
X164143523Y-105500047D01*
X164145118Y-105496490D01*
X164214306Y-105244716D01*
X164214307Y-105244713D01*
X164244252Y-104985325D01*
X164234251Y-104724407D01*
X164184538Y-104468073D01*
X164096279Y-104222332D01*
X163971541Y-103992943D01*
X163971539Y-103992939D01*
X163813250Y-103785284D01*
X163625112Y-103604220D01*
X163411546Y-103454002D01*
X163177546Y-103338140D01*
X162928608Y-103259359D01*
X162767562Y-103234484D01*
X162670555Y-103219500D01*
X162474823Y-103219500D01*
X162474821Y-103219500D01*
X162279656Y-103234484D01*
X162025412Y-103293979D01*
X161783237Y-103391583D01*
X161558791Y-103525017D01*
X161357346Y-103691148D01*
X161183622Y-103886082D01*
X161041693Y-104105247D01*
X160934881Y-104343509D01*
X160865693Y-104595283D01*
X160835747Y-104854675D01*
X154743004Y-104854675D01*
X157202861Y-102394819D01*
X157243090Y-102367939D01*
X157290543Y-102358500D01*
X161435706Y-102358500D01*
X161453676Y-102359809D01*
X161457114Y-102360312D01*
X161477789Y-102363341D01*
X161527726Y-102358971D01*
X161538533Y-102358500D01*
X161544178Y-102358500D01*
X161544180Y-102358500D01*
X161575364Y-102354854D01*
X161578858Y-102354497D01*
X161654426Y-102347887D01*
X161654429Y-102347885D01*
X161655594Y-102347784D01*
X161675015Y-102343478D01*
X161676110Y-102343079D01*
X161676113Y-102343079D01*
X161747414Y-102317126D01*
X161750708Y-102315981D01*
X161822738Y-102292114D01*
X161822742Y-102292111D01*
X161823863Y-102291740D01*
X161841751Y-102283080D01*
X161842732Y-102282435D01*
X161906103Y-102240753D01*
X161909129Y-102238826D01*
X161973651Y-102199030D01*
X161973655Y-102199025D01*
X161974650Y-102198412D01*
X161990069Y-102185853D01*
X161990870Y-102185003D01*
X161990874Y-102185001D01*
X162042962Y-102129789D01*
X162045408Y-102127272D01*
X163575751Y-100596929D01*
X163627590Y-100565905D01*
X163687938Y-100563058D01*
X163742469Y-100589067D01*
X163778237Y-100637758D01*
X163786751Y-100697571D01*
X163786496Y-100700000D01*
X163788684Y-100720818D01*
X163806458Y-100889929D01*
X163865472Y-101071556D01*
X163960957Y-101236941D01*
X163960960Y-101236944D01*
X164088747Y-101378866D01*
X164222638Y-101476144D01*
X164243248Y-101491118D01*
X164417714Y-101568795D01*
X164604511Y-101608500D01*
X164604513Y-101608500D01*
X164795487Y-101608500D01*
X164795488Y-101608500D01*
X164882382Y-101590030D01*
X164946481Y-101593389D01*
X165000313Y-101628347D01*
X165029453Y-101685538D01*
X165026094Y-101749637D01*
X165020492Y-101766879D01*
X165006458Y-101810072D01*
X164986495Y-102000000D01*
X164986496Y-102000000D01*
X165006458Y-102189929D01*
X165065472Y-102371556D01*
X165160957Y-102536941D01*
X165160960Y-102536944D01*
X165288747Y-102678866D01*
X165417921Y-102772717D01*
X165443248Y-102791118D01*
X165617714Y-102868795D01*
X165804511Y-102908500D01*
X165804513Y-102908500D01*
X165995487Y-102908500D01*
X165995489Y-102908500D01*
X166182285Y-102868795D01*
X166182286Y-102868794D01*
X166182288Y-102868794D01*
X166356752Y-102791118D01*
X166511253Y-102678866D01*
X166639040Y-102536944D01*
X166658234Y-102503700D01*
X166734527Y-102371556D01*
X166740071Y-102354494D01*
X166793542Y-102189928D01*
X166813504Y-102000000D01*
X166793542Y-101810072D01*
X166734527Y-101628444D01*
X166734527Y-101628443D01*
X166639042Y-101463058D01*
X166619442Y-101441291D01*
X166511253Y-101321134D01*
X166356752Y-101208882D01*
X166356751Y-101208881D01*
X166182285Y-101131204D01*
X165995489Y-101091500D01*
X165995487Y-101091500D01*
X165804513Y-101091500D01*
X165769525Y-101098936D01*
X165717616Y-101109970D01*
X165653517Y-101106610D01*
X165599685Y-101071650D01*
X165570545Y-101014459D01*
X165573904Y-100950364D01*
X165593542Y-100889928D01*
X165613504Y-100700000D01*
X165613026Y-100695459D01*
X165624898Y-100628141D01*
X165670639Y-100577342D01*
X165736348Y-100558500D01*
X167834457Y-100558500D01*
X167881910Y-100567939D01*
X167922138Y-100594819D01*
X169405181Y-102077862D01*
X169432061Y-102118090D01*
X169441500Y-102165543D01*
X169441500Y-112267500D01*
X169424887Y-112329500D01*
X169379500Y-112374887D01*
X169317500Y-112391500D01*
X169204511Y-112391500D01*
X169017714Y-112431204D01*
X168843248Y-112508881D01*
X168688748Y-112621133D01*
X168560957Y-112763058D01*
X168465472Y-112928443D01*
X168406458Y-113110070D01*
X168406457Y-113110072D01*
X168406458Y-113110072D01*
X168386496Y-113300000D01*
X168406458Y-113489928D01*
X168406459Y-113489931D01*
X168410965Y-113503800D01*
X168414324Y-113567898D01*
X168385184Y-113625089D01*
X168260959Y-113763055D01*
X168165472Y-113928443D01*
X168106458Y-114110070D01*
X168086496Y-114300000D01*
X168106458Y-114489929D01*
X168165472Y-114671556D01*
X168260957Y-114836941D01*
X168260960Y-114836944D01*
X168388747Y-114978866D01*
X168543248Y-115091118D01*
X168717714Y-115168795D01*
X168904511Y-115208500D01*
X168904513Y-115208500D01*
X169095487Y-115208500D01*
X169095489Y-115208500D01*
X169291719Y-115166790D01*
X169346447Y-115167506D01*
X169395536Y-115191714D01*
X169429421Y-115234697D01*
X169441500Y-115288080D01*
X169441500Y-116234457D01*
X169432061Y-116281910D01*
X169405181Y-116322138D01*
X167922138Y-117805181D01*
X167881910Y-117832061D01*
X167834457Y-117841500D01*
X160525837Y-117841500D01*
X160460127Y-117822658D01*
X160414386Y-117771858D01*
X160402516Y-117704540D01*
X160413504Y-117600000D01*
X160393542Y-117410072D01*
X160334527Y-117228444D01*
X160334527Y-117228443D01*
X160239042Y-117063058D01*
X160211443Y-117032406D01*
X160111253Y-116921134D01*
X159956752Y-116808882D01*
X159956751Y-116808881D01*
X159782285Y-116731204D01*
X159595489Y-116691500D01*
X159595487Y-116691500D01*
X159404513Y-116691500D01*
X159404511Y-116691500D01*
X159217714Y-116731204D01*
X159043248Y-116808881D01*
X158888748Y-116921133D01*
X158760957Y-117063058D01*
X158665472Y-117228443D01*
X158606458Y-117410070D01*
X158586496Y-117599999D01*
X158606458Y-117789929D01*
X158665811Y-117972598D01*
X158671201Y-118023878D01*
X158655267Y-118072916D01*
X158565472Y-118228443D01*
X158506458Y-118410070D01*
X158491895Y-118548634D01*
X158486496Y-118600000D01*
X158489486Y-118628444D01*
X158506458Y-118789929D01*
X158565473Y-118971556D01*
X158624887Y-119074463D01*
X158641500Y-119136463D01*
X158641500Y-119863537D01*
X158624887Y-119925537D01*
X158565473Y-120028443D01*
X158506458Y-120210070D01*
X158486496Y-120400000D01*
X158506458Y-120589929D01*
X158565472Y-120771556D01*
X158660957Y-120936941D01*
X158672824Y-120950120D01*
X158705972Y-120986935D01*
X158731752Y-121031587D01*
X158737142Y-121082867D01*
X158721208Y-121131905D01*
X158665473Y-121228441D01*
X158606458Y-121410070D01*
X158586496Y-121600000D01*
X158606458Y-121789929D01*
X158665472Y-121971556D01*
X158760957Y-122136941D01*
X158760960Y-122136944D01*
X158888747Y-122278866D01*
X159043247Y-122391117D01*
X159043248Y-122391118D01*
X159217714Y-122468795D01*
X159404511Y-122508500D01*
X159404513Y-122508500D01*
X159595487Y-122508500D01*
X159595489Y-122508500D01*
X159782285Y-122468795D01*
X159782286Y-122468794D01*
X159782288Y-122468794D01*
X159956752Y-122391118D01*
X160111253Y-122278866D01*
X160239040Y-122136944D01*
X160334527Y-121971556D01*
X160393542Y-121789928D01*
X160413504Y-121600000D01*
X160393542Y-121410072D01*
X160334527Y-121228444D01*
X160334527Y-121228443D01*
X160239042Y-121063058D01*
X160210705Y-121031587D01*
X160194026Y-121013063D01*
X160168247Y-120968411D01*
X160162857Y-120917131D01*
X160178789Y-120868095D01*
X160234527Y-120771556D01*
X160293542Y-120589928D01*
X160313504Y-120400000D01*
X160293542Y-120210072D01*
X160234527Y-120028444D01*
X160175112Y-119925535D01*
X160158500Y-119863537D01*
X160158500Y-119482500D01*
X160175113Y-119420500D01*
X160220500Y-119375113D01*
X160282500Y-119358500D01*
X167785036Y-119358500D01*
X167841334Y-119372017D01*
X167885358Y-119409620D01*
X167907511Y-119463113D01*
X167904856Y-119496799D01*
X167907821Y-119497111D01*
X167906459Y-119510068D01*
X167906458Y-119510072D01*
X167890379Y-119663056D01*
X167886496Y-119700000D01*
X167906458Y-119889929D01*
X167965472Y-120071556D01*
X168060957Y-120236941D01*
X168060960Y-120236944D01*
X168188747Y-120378866D01*
X168321219Y-120475113D01*
X168343248Y-120491118D01*
X168517714Y-120568795D01*
X168704511Y-120608500D01*
X168704513Y-120608500D01*
X168895487Y-120608500D01*
X168895489Y-120608500D01*
X169082285Y-120568795D01*
X169082286Y-120568794D01*
X169082288Y-120568794D01*
X169190759Y-120520500D01*
X169267065Y-120486527D01*
X169327229Y-120476189D01*
X169385035Y-120495812D01*
X169426473Y-120540639D01*
X169441500Y-120599807D01*
X169441500Y-122136539D01*
X169432061Y-122183992D01*
X169405181Y-122224220D01*
X167796993Y-123832406D01*
X167739311Y-123865042D01*
X167673059Y-123863307D01*
X167617163Y-123827698D01*
X167611253Y-123821134D01*
X167456752Y-123708882D01*
X167456751Y-123708881D01*
X167282285Y-123631204D01*
X167095489Y-123591500D01*
X167095487Y-123591500D01*
X166904513Y-123591500D01*
X166904511Y-123591500D01*
X166717714Y-123631204D01*
X166543248Y-123708881D01*
X166388748Y-123821133D01*
X166260957Y-123963058D01*
X166165472Y-124128443D01*
X166106458Y-124310070D01*
X166106457Y-124310072D01*
X166106458Y-124310072D01*
X166086496Y-124500000D01*
X166097483Y-124604540D01*
X166085614Y-124671858D01*
X166039873Y-124722658D01*
X165974163Y-124741500D01*
X160741937Y-124741500D01*
X160703619Y-124735431D01*
X160669052Y-124717818D01*
X160656753Y-124708882D01*
X160482285Y-124631204D01*
X160295489Y-124591500D01*
X160295487Y-124591500D01*
X160104513Y-124591500D01*
X160104511Y-124591500D01*
X159917714Y-124631204D01*
X159743246Y-124708882D01*
X159730948Y-124717818D01*
X159696381Y-124735431D01*
X159658063Y-124741500D01*
X141741937Y-124741500D01*
X141703619Y-124735431D01*
X141669052Y-124717818D01*
X141656753Y-124708882D01*
X141482285Y-124631204D01*
X141295489Y-124591500D01*
X141295487Y-124591500D01*
X141104513Y-124591500D01*
X141104511Y-124591500D01*
X140917714Y-124631204D01*
X140743248Y-124708881D01*
X140588748Y-124821133D01*
X140460957Y-124963058D01*
X140365472Y-125128443D01*
X140306458Y-125310070D01*
X140286496Y-125500000D01*
X140306458Y-125689929D01*
X140365472Y-125871556D01*
X140460957Y-126036941D01*
X140460960Y-126036944D01*
X140588747Y-126178866D01*
X140706707Y-126264569D01*
X140743248Y-126291118D01*
X140917714Y-126368795D01*
X141104511Y-126408500D01*
X141104513Y-126408500D01*
X141295487Y-126408500D01*
X141295489Y-126408500D01*
X141482285Y-126368795D01*
X141482286Y-126368794D01*
X141482288Y-126368794D01*
X141656752Y-126291118D01*
X141661477Y-126287684D01*
X141669052Y-126282182D01*
X141703619Y-126264569D01*
X141741937Y-126258500D01*
X159658063Y-126258500D01*
X159696381Y-126264569D01*
X159730948Y-126282182D01*
X159743246Y-126291117D01*
X159917714Y-126368795D01*
X160104511Y-126408500D01*
X160104513Y-126408500D01*
X160295487Y-126408500D01*
X160295489Y-126408500D01*
X160335478Y-126400000D01*
X176086496Y-126400000D01*
X176106458Y-126589929D01*
X176165472Y-126771556D01*
X176260957Y-126936941D01*
X176260960Y-126936944D01*
X176388747Y-127078866D01*
X176541610Y-127189928D01*
X176543248Y-127191118D01*
X176717714Y-127268795D01*
X176904511Y-127308500D01*
X176904513Y-127308500D01*
X177095487Y-127308500D01*
X177095489Y-127308500D01*
X177282285Y-127268795D01*
X177282286Y-127268794D01*
X177282288Y-127268794D01*
X177456752Y-127191118D01*
X177611253Y-127078866D01*
X177682264Y-127000000D01*
X191086496Y-127000000D01*
X191106458Y-127189929D01*
X191165472Y-127371556D01*
X191260957Y-127536941D01*
X191260960Y-127536944D01*
X191388747Y-127678866D01*
X191543247Y-127791117D01*
X191543248Y-127791118D01*
X191717714Y-127868795D01*
X191904511Y-127908500D01*
X191904513Y-127908500D01*
X192095487Y-127908500D01*
X192095489Y-127908500D01*
X192282285Y-127868795D01*
X192282286Y-127868794D01*
X192282288Y-127868794D01*
X192456752Y-127791118D01*
X192611253Y-127678866D01*
X192739040Y-127536944D01*
X192834527Y-127371556D01*
X192893542Y-127189928D01*
X192913504Y-127000000D01*
X192893542Y-126810072D01*
X192834527Y-126628444D01*
X192834527Y-126628443D01*
X192739042Y-126463058D01*
X192719442Y-126441291D01*
X192611253Y-126321134D01*
X192458390Y-126210072D01*
X192456751Y-126208881D01*
X192282285Y-126131204D01*
X192095489Y-126091500D01*
X192095487Y-126091500D01*
X191904513Y-126091500D01*
X191904511Y-126091500D01*
X191717714Y-126131204D01*
X191543248Y-126208881D01*
X191388748Y-126321133D01*
X191260957Y-126463058D01*
X191165472Y-126628443D01*
X191106458Y-126810070D01*
X191086496Y-127000000D01*
X177682264Y-127000000D01*
X177739040Y-126936944D01*
X177834527Y-126771556D01*
X177893542Y-126589928D01*
X177913504Y-126400000D01*
X177893542Y-126210072D01*
X177854898Y-126091138D01*
X177834527Y-126028443D01*
X177739042Y-125863058D01*
X177719442Y-125841291D01*
X177611253Y-125721134D01*
X177456752Y-125608882D01*
X177456751Y-125608881D01*
X177282285Y-125531204D01*
X177095489Y-125491500D01*
X177095487Y-125491500D01*
X176904513Y-125491500D01*
X176904511Y-125491500D01*
X176717714Y-125531204D01*
X176543248Y-125608881D01*
X176388748Y-125721133D01*
X176260957Y-125863058D01*
X176165472Y-126028443D01*
X176106458Y-126210070D01*
X176086496Y-126400000D01*
X160335478Y-126400000D01*
X160482285Y-126368795D01*
X160482286Y-126368794D01*
X160482288Y-126368794D01*
X160656752Y-126291118D01*
X160661477Y-126287684D01*
X160669052Y-126282182D01*
X160703619Y-126264569D01*
X160741937Y-126258500D01*
X167137788Y-126258500D01*
X167155758Y-126259809D01*
X167159196Y-126260312D01*
X167179871Y-126263341D01*
X167229808Y-126258971D01*
X167240615Y-126258500D01*
X167246260Y-126258500D01*
X167246262Y-126258500D01*
X167277446Y-126254854D01*
X167280940Y-126254497D01*
X167356508Y-126247887D01*
X167356511Y-126247885D01*
X167357676Y-126247784D01*
X167377097Y-126243478D01*
X167378192Y-126243079D01*
X167378195Y-126243079D01*
X167449496Y-126217126D01*
X167452790Y-126215981D01*
X167524820Y-126192114D01*
X167524824Y-126192111D01*
X167525945Y-126191740D01*
X167543833Y-126183080D01*
X167550240Y-126178866D01*
X167608185Y-126140753D01*
X167611211Y-126138826D01*
X167623565Y-126131206D01*
X167675733Y-126099030D01*
X167675737Y-126099025D01*
X167676732Y-126098412D01*
X167692151Y-126085853D01*
X167692952Y-126085003D01*
X167692956Y-126085001D01*
X167745044Y-126029789D01*
X167747490Y-126027271D01*
X169174762Y-124600000D01*
X171086496Y-124600000D01*
X171095948Y-124689928D01*
X171106458Y-124789929D01*
X171165472Y-124971556D01*
X171260957Y-125136941D01*
X171260960Y-125136944D01*
X171388747Y-125278866D01*
X171543248Y-125391118D01*
X171717714Y-125468795D01*
X171904511Y-125508500D01*
X171904513Y-125508500D01*
X172095487Y-125508500D01*
X172095489Y-125508500D01*
X172282285Y-125468795D01*
X172282286Y-125468794D01*
X172282288Y-125468794D01*
X172456752Y-125391118D01*
X172611253Y-125278866D01*
X172739040Y-125136944D01*
X172743948Y-125128444D01*
X172834527Y-124971556D01*
X172883402Y-124821134D01*
X172893542Y-124789928D01*
X172913504Y-124600000D01*
X172893542Y-124410072D01*
X172834527Y-124228444D01*
X172834527Y-124228443D01*
X172739042Y-124063058D01*
X172719442Y-124041291D01*
X172611253Y-123921134D01*
X172473618Y-123821136D01*
X172456751Y-123808881D01*
X172282285Y-123731204D01*
X172095489Y-123691500D01*
X172095487Y-123691500D01*
X171904513Y-123691500D01*
X171904511Y-123691500D01*
X171717714Y-123731204D01*
X171543248Y-123808881D01*
X171388748Y-123921133D01*
X171260957Y-124063058D01*
X171165472Y-124228443D01*
X171106458Y-124410070D01*
X171106457Y-124410072D01*
X171106458Y-124410072D01*
X171086496Y-124600000D01*
X169174762Y-124600000D01*
X170477861Y-123296901D01*
X170518090Y-123270021D01*
X170565543Y-123260582D01*
X175636539Y-123260582D01*
X175683992Y-123270021D01*
X175724220Y-123296901D01*
X178080214Y-125652895D01*
X178110464Y-125702258D01*
X178165472Y-125871556D01*
X178260957Y-126036941D01*
X178260960Y-126036944D01*
X178388747Y-126178866D01*
X178506707Y-126264569D01*
X178543248Y-126291118D01*
X178717714Y-126368795D01*
X178904511Y-126408500D01*
X178904513Y-126408500D01*
X179095487Y-126408500D01*
X179095489Y-126408500D01*
X179282285Y-126368795D01*
X179282286Y-126368794D01*
X179282288Y-126368794D01*
X179456752Y-126291118D01*
X179611253Y-126178866D01*
X179739040Y-126036944D01*
X179743906Y-126028517D01*
X179834527Y-125871556D01*
X179883402Y-125721134D01*
X179893542Y-125689928D01*
X179913504Y-125500000D01*
X179893542Y-125310072D01*
X179834527Y-125128444D01*
X179834527Y-125128443D01*
X179739042Y-124963058D01*
X179719442Y-124941291D01*
X179611253Y-124821134D01*
X179501647Y-124741500D01*
X179456751Y-124708881D01*
X179359963Y-124665788D01*
X179282288Y-124631206D01*
X179259659Y-124626396D01*
X179218648Y-124617678D01*
X179185262Y-124605361D01*
X179156750Y-124584069D01*
X176583886Y-122011205D01*
X176572103Y-121997571D01*
X176557549Y-121978021D01*
X176519143Y-121945794D01*
X176511169Y-121938487D01*
X176507182Y-121934500D01*
X176482596Y-121915060D01*
X176479838Y-121912815D01*
X176421722Y-121864050D01*
X176421720Y-121864048D01*
X176420825Y-121863298D01*
X176404047Y-121852608D01*
X176334241Y-121820056D01*
X176330999Y-121818486D01*
X176262226Y-121783948D01*
X176243431Y-121777415D01*
X176168008Y-121761841D01*
X176164488Y-121761061D01*
X176089590Y-121743310D01*
X176069809Y-121741289D01*
X176068640Y-121741323D01*
X175992788Y-121743530D01*
X175989184Y-121743582D01*
X171082500Y-121743582D01*
X171020500Y-121726969D01*
X170975113Y-121681582D01*
X170958500Y-121619582D01*
X170958500Y-120582500D01*
X170975113Y-120520500D01*
X171020500Y-120475113D01*
X171082500Y-120458500D01*
X176435706Y-120458500D01*
X176453676Y-120459809D01*
X176457114Y-120460312D01*
X176477789Y-120463341D01*
X176527726Y-120458971D01*
X176538533Y-120458500D01*
X176544178Y-120458500D01*
X176544180Y-120458500D01*
X176575364Y-120454854D01*
X176578858Y-120454497D01*
X176654426Y-120447887D01*
X176654429Y-120447885D01*
X176655594Y-120447784D01*
X176675015Y-120443478D01*
X176676110Y-120443079D01*
X176676113Y-120443079D01*
X176747414Y-120417126D01*
X176750708Y-120415981D01*
X176822738Y-120392114D01*
X176822742Y-120392111D01*
X176823863Y-120391740D01*
X176841751Y-120383080D01*
X176899232Y-120345273D01*
X176906103Y-120340753D01*
X176909129Y-120338826D01*
X176973651Y-120299030D01*
X176973655Y-120299025D01*
X176974650Y-120298412D01*
X176990069Y-120285853D01*
X176990870Y-120285003D01*
X176990874Y-120285001D01*
X177042962Y-120229789D01*
X177045408Y-120227271D01*
X177072679Y-120200000D01*
X178586496Y-120200000D01*
X178606458Y-120389929D01*
X178665472Y-120571556D01*
X178760957Y-120736941D01*
X178760960Y-120736944D01*
X178888747Y-120878866D01*
X179011995Y-120968411D01*
X179043248Y-120991118D01*
X179217714Y-121068795D01*
X179404511Y-121108500D01*
X179404513Y-121108500D01*
X179595487Y-121108500D01*
X179595489Y-121108500D01*
X179782285Y-121068795D01*
X179782286Y-121068794D01*
X179782288Y-121068794D01*
X179956752Y-120991118D01*
X180111253Y-120878866D01*
X180239040Y-120736944D01*
X180334527Y-120571556D01*
X180393542Y-120389928D01*
X180413504Y-120200000D01*
X180393542Y-120010072D01*
X180334527Y-119828444D01*
X180334527Y-119828443D01*
X180239042Y-119663058D01*
X180215526Y-119636941D01*
X180111253Y-119521134D01*
X179956752Y-119408882D01*
X179956751Y-119408881D01*
X179782285Y-119331204D01*
X179595489Y-119291500D01*
X179595487Y-119291500D01*
X179404513Y-119291500D01*
X179404511Y-119291500D01*
X179217714Y-119331204D01*
X179043248Y-119408881D01*
X178888748Y-119521133D01*
X178760957Y-119663058D01*
X178665472Y-119828443D01*
X178606458Y-120010070D01*
X178586496Y-120200000D01*
X177072679Y-120200000D01*
X177256753Y-120015926D01*
X177285264Y-119994636D01*
X177318644Y-119982321D01*
X177382288Y-119968794D01*
X177556752Y-119891118D01*
X177711253Y-119778866D01*
X177839040Y-119636944D01*
X177934527Y-119471556D01*
X177993542Y-119289928D01*
X178013504Y-119100000D01*
X178002994Y-119000000D01*
X191086496Y-119000000D01*
X191106458Y-119189929D01*
X191165472Y-119371556D01*
X191260957Y-119536941D01*
X191260960Y-119536944D01*
X191388747Y-119678866D01*
X191526385Y-119778866D01*
X191543248Y-119791118D01*
X191717714Y-119868795D01*
X191904511Y-119908500D01*
X191904513Y-119908500D01*
X192095487Y-119908500D01*
X192095489Y-119908500D01*
X192282285Y-119868795D01*
X192282286Y-119868794D01*
X192282288Y-119868794D01*
X192456752Y-119791118D01*
X192611253Y-119678866D01*
X192739040Y-119536944D01*
X192770474Y-119482500D01*
X192834527Y-119371556D01*
X192838769Y-119358500D01*
X192893542Y-119189928D01*
X192913504Y-119000000D01*
X192893542Y-118810072D01*
X192834527Y-118628444D01*
X192834527Y-118628443D01*
X192739042Y-118463058D01*
X192672734Y-118389416D01*
X192611253Y-118321134D01*
X192487478Y-118231206D01*
X192456751Y-118208881D01*
X192282285Y-118131204D01*
X192095489Y-118091500D01*
X192095487Y-118091500D01*
X191904513Y-118091500D01*
X191904511Y-118091500D01*
X191717714Y-118131204D01*
X191543248Y-118208881D01*
X191388748Y-118321133D01*
X191260957Y-118463058D01*
X191165472Y-118628443D01*
X191106458Y-118810070D01*
X191086496Y-119000000D01*
X178002994Y-119000000D01*
X177993542Y-118910072D01*
X177940298Y-118746204D01*
X177934527Y-118728443D01*
X177839042Y-118563058D01*
X177819442Y-118541291D01*
X177711253Y-118421134D01*
X177609595Y-118347275D01*
X177556751Y-118308881D01*
X177382285Y-118231204D01*
X177195489Y-118191500D01*
X177195487Y-118191500D01*
X177004513Y-118191500D01*
X177004511Y-118191500D01*
X176817714Y-118231204D01*
X176643248Y-118308881D01*
X176488748Y-118421133D01*
X176360957Y-118563058D01*
X176265472Y-118728443D01*
X176224086Y-118855818D01*
X176198305Y-118900472D01*
X176156590Y-118930780D01*
X176106155Y-118941500D01*
X171082500Y-118941500D01*
X171020500Y-118924887D01*
X170975113Y-118879500D01*
X170958500Y-118817500D01*
X170958500Y-116690161D01*
X170960791Y-116667730D01*
X170960757Y-116666562D01*
X170960758Y-116666558D01*
X170958552Y-116590742D01*
X170958500Y-116587136D01*
X170958500Y-114999999D01*
X175786496Y-114999999D01*
X175806458Y-115189929D01*
X175865472Y-115371556D01*
X175960957Y-115536941D01*
X175960960Y-115536944D01*
X176088747Y-115678866D01*
X176243247Y-115791117D01*
X176243248Y-115791118D01*
X176417714Y-115868795D01*
X176604511Y-115908500D01*
X176604513Y-115908500D01*
X176795487Y-115908500D01*
X176795489Y-115908500D01*
X176982285Y-115868795D01*
X176982286Y-115868794D01*
X176982288Y-115868794D01*
X177156752Y-115791118D01*
X177311253Y-115678866D01*
X177439040Y-115536944D01*
X177534527Y-115371556D01*
X177593542Y-115189928D01*
X177613504Y-115000000D01*
X177613504Y-114999999D01*
X179786496Y-114999999D01*
X179806458Y-115189929D01*
X179865472Y-115371556D01*
X179960957Y-115536941D01*
X179960960Y-115536944D01*
X180088747Y-115678866D01*
X180243247Y-115791117D01*
X180243248Y-115791118D01*
X180417714Y-115868795D01*
X180604511Y-115908500D01*
X180604513Y-115908500D01*
X180795487Y-115908500D01*
X180795489Y-115908500D01*
X180982285Y-115868795D01*
X180982286Y-115868794D01*
X180982288Y-115868794D01*
X181156752Y-115791118D01*
X181311253Y-115678866D01*
X181439040Y-115536944D01*
X181534527Y-115371556D01*
X181593542Y-115189928D01*
X181613504Y-115000000D01*
X181593542Y-114810072D01*
X181534527Y-114628444D01*
X181534527Y-114628443D01*
X181439042Y-114463058D01*
X181419442Y-114441291D01*
X181311253Y-114321134D01*
X181156752Y-114208882D01*
X181156751Y-114208881D01*
X180982285Y-114131204D01*
X180795489Y-114091500D01*
X180795487Y-114091500D01*
X180604513Y-114091500D01*
X180604511Y-114091500D01*
X180417714Y-114131204D01*
X180243248Y-114208881D01*
X180088748Y-114321133D01*
X179960957Y-114463058D01*
X179865472Y-114628443D01*
X179806458Y-114810070D01*
X179786496Y-114999999D01*
X177613504Y-114999999D01*
X177593542Y-114810072D01*
X177534527Y-114628444D01*
X177534527Y-114628443D01*
X177439042Y-114463058D01*
X177419442Y-114441291D01*
X177311253Y-114321134D01*
X177156752Y-114208882D01*
X177156751Y-114208881D01*
X176982285Y-114131204D01*
X176795489Y-114091500D01*
X176795487Y-114091500D01*
X176604513Y-114091500D01*
X176604511Y-114091500D01*
X176417714Y-114131204D01*
X176243248Y-114208881D01*
X176088748Y-114321133D01*
X175960957Y-114463058D01*
X175865472Y-114628443D01*
X175806458Y-114810070D01*
X175786496Y-114999999D01*
X170958500Y-114999999D01*
X170958500Y-109948593D01*
X172840832Y-109948593D01*
X172850605Y-110153756D01*
X172899029Y-110353362D01*
X172942619Y-110448811D01*
X172984354Y-110540199D01*
X173064975Y-110653414D01*
X173103494Y-110707506D01*
X173252146Y-110849245D01*
X173424936Y-110960291D01*
X173615618Y-111036629D01*
X173817302Y-111075500D01*
X173971227Y-111075500D01*
X173971232Y-111075500D01*
X174124466Y-111060868D01*
X174321541Y-111003001D01*
X174504104Y-110908884D01*
X174665556Y-110781916D01*
X174800061Y-110626689D01*
X174902759Y-110448811D01*
X174969937Y-110254712D01*
X174995963Y-110073697D01*
X176795807Y-110073697D01*
X176825296Y-110366827D01*
X176893592Y-110653413D01*
X176999477Y-110928338D01*
X177141063Y-111186699D01*
X177315822Y-111423884D01*
X177520635Y-111635658D01*
X177751845Y-111818244D01*
X177837191Y-111868794D01*
X178005331Y-111968383D01*
X178276566Y-112083397D01*
X178276567Y-112083397D01*
X178276569Y-112083398D01*
X178339194Y-112100552D01*
X178560710Y-112161232D01*
X178852694Y-112200500D01*
X179073571Y-112200500D01*
X179073573Y-112200500D01*
X179293955Y-112185747D01*
X179414573Y-112161230D01*
X179582663Y-112127064D01*
X179860974Y-112030424D01*
X180119075Y-111900000D01*
X181686496Y-111900000D01*
X181706458Y-112089929D01*
X181765472Y-112271556D01*
X181860957Y-112436941D01*
X181860960Y-112436944D01*
X181988747Y-112578866D01*
X182046924Y-112621134D01*
X182143248Y-112691118D01*
X182317714Y-112768795D01*
X182504511Y-112808500D01*
X182504513Y-112808500D01*
X182695487Y-112808500D01*
X182695489Y-112808500D01*
X182882285Y-112768795D01*
X182882286Y-112768794D01*
X182882288Y-112768794D01*
X183056752Y-112691118D01*
X183211253Y-112578866D01*
X183339040Y-112436944D01*
X183434527Y-112271556D01*
X183493542Y-112089928D01*
X183513504Y-111900000D01*
X183493542Y-111710072D01*
X183434527Y-111528444D01*
X183434527Y-111528443D01*
X183339042Y-111363058D01*
X183289659Y-111308213D01*
X183211253Y-111221134D01*
X183056752Y-111108882D01*
X183056751Y-111108881D01*
X182882285Y-111031204D01*
X182695489Y-110991500D01*
X182695487Y-110991500D01*
X182504513Y-110991500D01*
X182504511Y-110991500D01*
X182317714Y-111031204D01*
X182143248Y-111108881D01*
X181988748Y-111221133D01*
X181860957Y-111363058D01*
X181765472Y-111528443D01*
X181706458Y-111710070D01*
X181686496Y-111900000D01*
X180119075Y-111900000D01*
X180123921Y-111897551D01*
X180366812Y-111730816D01*
X180585312Y-111533195D01*
X180775522Y-111308213D01*
X180934047Y-111059887D01*
X181058060Y-110792647D01*
X181145346Y-110511262D01*
X181194349Y-110220754D01*
X181203448Y-109948593D01*
X183000832Y-109948593D01*
X183010605Y-110153756D01*
X183059029Y-110353362D01*
X183102619Y-110448811D01*
X183144354Y-110540199D01*
X183224975Y-110653414D01*
X183263494Y-110707506D01*
X183412146Y-110849245D01*
X183584936Y-110960291D01*
X183775618Y-111036629D01*
X183977302Y-111075500D01*
X184131227Y-111075500D01*
X184131232Y-111075500D01*
X184284466Y-111060868D01*
X184481541Y-111003001D01*
X184487362Y-111000000D01*
X191086496Y-111000000D01*
X191106458Y-111189929D01*
X191165472Y-111371556D01*
X191260957Y-111536941D01*
X191260960Y-111536944D01*
X191388747Y-111678866D01*
X191504624Y-111763056D01*
X191543248Y-111791118D01*
X191717714Y-111868795D01*
X191904511Y-111908500D01*
X191904513Y-111908500D01*
X192095487Y-111908500D01*
X192095489Y-111908500D01*
X192282285Y-111868795D01*
X192282286Y-111868794D01*
X192282288Y-111868794D01*
X192456752Y-111791118D01*
X192611253Y-111678866D01*
X192739040Y-111536944D01*
X192741205Y-111533195D01*
X192834527Y-111371556D01*
X192837289Y-111363056D01*
X192893542Y-111189928D01*
X192913504Y-111000000D01*
X192893542Y-110810072D01*
X192850773Y-110678443D01*
X192834527Y-110628443D01*
X192739042Y-110463058D01*
X192656272Y-110371133D01*
X192611253Y-110321134D01*
X192514901Y-110251130D01*
X192456751Y-110208881D01*
X192282285Y-110131204D01*
X192095489Y-110091500D01*
X192095487Y-110091500D01*
X191904513Y-110091500D01*
X191904511Y-110091500D01*
X191717714Y-110131204D01*
X191543248Y-110208881D01*
X191388748Y-110321133D01*
X191260957Y-110463058D01*
X191165472Y-110628443D01*
X191106458Y-110810070D01*
X191086496Y-111000000D01*
X184487362Y-111000000D01*
X184664104Y-110908884D01*
X184825556Y-110781916D01*
X184960061Y-110626689D01*
X185062759Y-110448811D01*
X185129937Y-110254712D01*
X185159168Y-110051407D01*
X185149395Y-109846244D01*
X185100971Y-109646638D01*
X185015647Y-109459804D01*
X185015646Y-109459803D01*
X185015645Y-109459800D01*
X184896507Y-109292496D01*
X184896506Y-109292494D01*
X184747854Y-109150755D01*
X184655056Y-109091117D01*
X184575065Y-109039709D01*
X184446936Y-108988414D01*
X184384382Y-108963371D01*
X184384381Y-108963370D01*
X184384379Y-108963370D01*
X184182698Y-108924500D01*
X184028768Y-108924500D01*
X183932996Y-108933645D01*
X183875531Y-108939132D01*
X183678460Y-108996998D01*
X183495893Y-109091117D01*
X183334445Y-109218082D01*
X183199937Y-109373312D01*
X183097241Y-109551187D01*
X183030062Y-109745287D01*
X183004037Y-109926302D01*
X183000832Y-109948593D01*
X181203448Y-109948593D01*
X181204193Y-109926306D01*
X181174704Y-109633173D01*
X181106407Y-109346586D01*
X181078488Y-109274096D01*
X181000522Y-109071661D01*
X180858936Y-108813300D01*
X180767242Y-108688852D01*
X180684178Y-108576116D01*
X180479365Y-108364342D01*
X180448451Y-108339929D01*
X180248154Y-108181755D01*
X180002896Y-108036490D01*
X179994669Y-108031617D01*
X179817104Y-107956322D01*
X179723430Y-107916601D01*
X179439294Y-107838769D01*
X179439293Y-107838768D01*
X179439290Y-107838768D01*
X179147306Y-107799500D01*
X178926429Y-107799500D01*
X178926427Y-107799500D01*
X178706044Y-107814252D01*
X178417338Y-107872935D01*
X178139022Y-107969577D01*
X177876081Y-108102447D01*
X177633187Y-108269184D01*
X177414689Y-108466803D01*
X177224478Y-108691786D01*
X177065951Y-108940115D01*
X176941941Y-109207350D01*
X176863276Y-109460944D01*
X176854654Y-109488738D01*
X176805651Y-109779246D01*
X176799990Y-109948591D01*
X176795807Y-110073697D01*
X174995963Y-110073697D01*
X174999168Y-110051407D01*
X174989395Y-109846244D01*
X174940971Y-109646638D01*
X174855647Y-109459804D01*
X174761407Y-109327462D01*
X174739812Y-109274096D01*
X174744645Y-109216727D01*
X174774866Y-109167724D01*
X174823960Y-109137651D01*
X174881343Y-109132990D01*
X175059445Y-109160500D01*
X175255177Y-109160500D01*
X175255179Y-109160500D01*
X175279536Y-109158629D01*
X175450344Y-109145516D01*
X175704586Y-109086021D01*
X175851384Y-109026856D01*
X175946762Y-108988416D01*
X175946764Y-108988414D01*
X175946766Y-108988414D01*
X176171208Y-108854982D01*
X176372652Y-108688852D01*
X176374353Y-108686944D01*
X176456546Y-108594716D01*
X176546375Y-108493920D01*
X176688306Y-108274753D01*
X176765550Y-108102447D01*
X176795118Y-108036490D01*
X176856189Y-107814253D01*
X176864307Y-107784713D01*
X176894252Y-107525325D01*
X176884251Y-107264407D01*
X176834538Y-107008073D01*
X176746279Y-106762332D01*
X176621541Y-106532943D01*
X176621539Y-106532939D01*
X176463250Y-106325284D01*
X176275112Y-106144220D01*
X176061546Y-105994002D01*
X175827546Y-105878140D01*
X175578608Y-105799359D01*
X175417562Y-105774484D01*
X175320555Y-105759500D01*
X175124823Y-105759500D01*
X175124821Y-105759500D01*
X174929656Y-105774484D01*
X174675412Y-105833979D01*
X174433237Y-105931583D01*
X174208791Y-106065017D01*
X174007346Y-106231148D01*
X173833622Y-106426082D01*
X173691693Y-106645247D01*
X173584881Y-106883509D01*
X173515693Y-107135283D01*
X173485747Y-107394675D01*
X173494119Y-107613058D01*
X173495749Y-107655593D01*
X173537900Y-107872936D01*
X173545463Y-107911930D01*
X173633719Y-108157664D01*
X173758460Y-108387060D01*
X173916749Y-108594715D01*
X174037738Y-108711155D01*
X174069083Y-108760379D01*
X174074441Y-108818489D01*
X174052627Y-108872615D01*
X174008471Y-108910768D01*
X173951753Y-108924500D01*
X173868768Y-108924500D01*
X173772996Y-108933645D01*
X173715531Y-108939132D01*
X173518460Y-108996998D01*
X173335893Y-109091117D01*
X173174445Y-109218082D01*
X173039937Y-109373312D01*
X172937241Y-109551187D01*
X172870062Y-109745287D01*
X172844037Y-109926302D01*
X172840832Y-109948593D01*
X170958500Y-109948593D01*
X170958500Y-104854675D01*
X179835747Y-104854675D01*
X179845036Y-105097013D01*
X179845749Y-105115593D01*
X179889103Y-105339140D01*
X179895463Y-105371930D01*
X179983719Y-105617664D01*
X180108460Y-105847060D01*
X180262436Y-106049057D01*
X180266750Y-106054716D01*
X180294353Y-106081281D01*
X180454887Y-106235779D01*
X180582137Y-106325284D01*
X180668456Y-106385999D01*
X180749406Y-106426080D01*
X180902453Y-106501859D01*
X181151391Y-106580640D01*
X181151392Y-106580640D01*
X181151395Y-106580641D01*
X181409445Y-106620500D01*
X181605177Y-106620500D01*
X181605179Y-106620500D01*
X181629536Y-106618629D01*
X181800344Y-106605516D01*
X182054586Y-106546021D01*
X182221209Y-106478866D01*
X182296762Y-106448416D01*
X182296764Y-106448414D01*
X182296766Y-106448414D01*
X182521208Y-106314982D01*
X182722652Y-106148852D01*
X182896375Y-105953920D01*
X183038306Y-105734753D01*
X183143523Y-105500047D01*
X183145118Y-105496490D01*
X183214306Y-105244716D01*
X183214307Y-105244713D01*
X183244252Y-104985325D01*
X183234251Y-104724407D01*
X183190730Y-104499999D01*
X190694531Y-104499999D01*
X190714364Y-104726689D01*
X190773261Y-104946497D01*
X190869432Y-105152735D01*
X190999953Y-105339140D01*
X191160859Y-105500046D01*
X191347264Y-105630567D01*
X191347265Y-105630567D01*
X191347266Y-105630568D01*
X191553504Y-105726739D01*
X191773308Y-105785635D01*
X191858262Y-105793067D01*
X191943214Y-105800500D01*
X191943216Y-105800500D01*
X192056784Y-105800500D01*
X192056786Y-105800500D01*
X192124747Y-105794554D01*
X192226692Y-105785635D01*
X192446496Y-105726739D01*
X192652734Y-105630568D01*
X192839139Y-105500047D01*
X193000047Y-105339139D01*
X193130568Y-105152734D01*
X193226739Y-104946496D01*
X193285635Y-104726692D01*
X193305468Y-104500000D01*
X193285635Y-104273308D01*
X193226739Y-104053504D01*
X193130568Y-103847266D01*
X193108587Y-103815874D01*
X193000046Y-103660859D01*
X192839140Y-103499953D01*
X192652735Y-103369432D01*
X192446497Y-103273261D01*
X192226689Y-103214364D01*
X192056786Y-103199500D01*
X192056784Y-103199500D01*
X191943216Y-103199500D01*
X191943214Y-103199500D01*
X191773310Y-103214364D01*
X191553502Y-103273261D01*
X191347264Y-103369432D01*
X191160859Y-103499953D01*
X190999953Y-103660859D01*
X190869432Y-103847264D01*
X190773261Y-104053502D01*
X190714364Y-104273310D01*
X190694531Y-104499999D01*
X183190730Y-104499999D01*
X183184538Y-104468073D01*
X183096279Y-104222332D01*
X182971541Y-103992943D01*
X182971539Y-103992939D01*
X182813250Y-103785284D01*
X182625112Y-103604220D01*
X182411546Y-103454002D01*
X182177546Y-103338140D01*
X181928608Y-103259359D01*
X181767562Y-103234484D01*
X181670555Y-103219500D01*
X181474823Y-103219500D01*
X181474821Y-103219500D01*
X181279656Y-103234484D01*
X181025412Y-103293979D01*
X180783237Y-103391583D01*
X180558791Y-103525017D01*
X180357346Y-103691148D01*
X180183622Y-103886082D01*
X180041693Y-104105247D01*
X179934881Y-104343509D01*
X179865693Y-104595283D01*
X179835747Y-104854675D01*
X170958500Y-104854675D01*
X170958500Y-102200000D01*
X183986496Y-102200000D01*
X184006458Y-102389929D01*
X184065472Y-102571556D01*
X184160957Y-102736941D01*
X184173730Y-102751127D01*
X184288747Y-102878866D01*
X184399671Y-102959457D01*
X184443248Y-102991118D01*
X184617714Y-103068795D01*
X184804511Y-103108500D01*
X184804513Y-103108500D01*
X184995487Y-103108500D01*
X184995489Y-103108500D01*
X185182285Y-103068795D01*
X185182286Y-103068794D01*
X185182288Y-103068794D01*
X185356752Y-102991118D01*
X185511253Y-102878866D01*
X185639040Y-102736944D01*
X185672572Y-102678866D01*
X185734527Y-102571556D01*
X185756575Y-102503700D01*
X185793542Y-102389928D01*
X185813504Y-102200000D01*
X185793542Y-102010072D01*
X185749683Y-101875089D01*
X185734527Y-101828443D01*
X185639042Y-101663058D01*
X185603772Y-101623887D01*
X185511253Y-101521134D01*
X185356752Y-101408882D01*
X185356751Y-101408881D01*
X185182285Y-101331204D01*
X184995489Y-101291500D01*
X184995487Y-101291500D01*
X184804513Y-101291500D01*
X184804511Y-101291500D01*
X184617714Y-101331204D01*
X184443248Y-101408881D01*
X184288748Y-101521133D01*
X184160957Y-101663058D01*
X184065472Y-101828443D01*
X184006458Y-102010070D01*
X183986496Y-102200000D01*
X170958500Y-102200000D01*
X170958500Y-101864294D01*
X170959809Y-101846324D01*
X170960494Y-101841648D01*
X170963341Y-101822211D01*
X170958971Y-101772273D01*
X170958500Y-101761467D01*
X170958500Y-101755822D01*
X170957777Y-101749637D01*
X170954854Y-101724635D01*
X170954497Y-101721141D01*
X170949417Y-101663058D01*
X170947785Y-101644402D01*
X170943483Y-101624998D01*
X170943079Y-101623887D01*
X170917137Y-101552613D01*
X170915962Y-101549230D01*
X170891744Y-101476144D01*
X170883078Y-101458245D01*
X170840754Y-101393895D01*
X170838815Y-101390852D01*
X170798412Y-101325347D01*
X170785849Y-101309925D01*
X170729826Y-101257071D01*
X170727238Y-101254557D01*
X170242862Y-100770181D01*
X170212612Y-100720818D01*
X170208070Y-100663102D01*
X170230225Y-100609615D01*
X170274248Y-100572015D01*
X170330543Y-100558500D01*
X170610706Y-100558500D01*
X170628676Y-100559809D01*
X170632114Y-100560312D01*
X170652789Y-100563341D01*
X170702726Y-100558971D01*
X170713533Y-100558500D01*
X179660706Y-100558500D01*
X179678676Y-100559809D01*
X179682114Y-100560312D01*
X179702789Y-100563341D01*
X179752726Y-100558971D01*
X179763533Y-100558500D01*
X179769178Y-100558500D01*
X179769180Y-100558500D01*
X179800364Y-100554854D01*
X179803858Y-100554497D01*
X179879426Y-100547887D01*
X179879429Y-100547885D01*
X179880594Y-100547784D01*
X179900015Y-100543478D01*
X179901110Y-100543079D01*
X179901113Y-100543079D01*
X179972414Y-100517126D01*
X179975708Y-100515981D01*
X180047738Y-100492114D01*
X180047742Y-100492111D01*
X180048863Y-100491740D01*
X180066751Y-100483080D01*
X180084272Y-100471556D01*
X180131103Y-100440753D01*
X180134129Y-100438826D01*
X180198651Y-100399030D01*
X180198655Y-100399025D01*
X180199650Y-100398412D01*
X180215069Y-100385853D01*
X180215870Y-100385003D01*
X180215874Y-100385001D01*
X180267962Y-100329789D01*
X180270408Y-100327271D01*
X182484408Y-98113271D01*
X182519069Y-98088860D01*
X182559931Y-98077552D01*
X182647701Y-98068908D01*
X182837804Y-98011241D01*
X182858835Y-98000000D01*
X191086496Y-98000000D01*
X191106458Y-98189929D01*
X191165472Y-98371556D01*
X191260957Y-98536941D01*
X191260960Y-98536944D01*
X191388747Y-98678866D01*
X191541610Y-98789928D01*
X191543248Y-98791118D01*
X191717714Y-98868795D01*
X191904511Y-98908500D01*
X191904513Y-98908500D01*
X192095487Y-98908500D01*
X192095489Y-98908500D01*
X192282285Y-98868795D01*
X192282286Y-98868794D01*
X192282288Y-98868794D01*
X192456752Y-98791118D01*
X192611253Y-98678866D01*
X192739040Y-98536944D01*
X192758506Y-98503229D01*
X192834527Y-98371556D01*
X192853814Y-98312196D01*
X192893542Y-98189928D01*
X192913504Y-98000000D01*
X192893542Y-97810072D01*
X192855015Y-97691500D01*
X192834527Y-97628443D01*
X192739042Y-97463058D01*
X192719442Y-97441291D01*
X192611253Y-97321134D01*
X192514901Y-97251129D01*
X192456751Y-97208881D01*
X192282285Y-97131204D01*
X192095489Y-97091500D01*
X192095487Y-97091500D01*
X191904513Y-97091500D01*
X191904511Y-97091500D01*
X191717714Y-97131204D01*
X191543248Y-97208881D01*
X191388748Y-97321133D01*
X191260957Y-97463058D01*
X191165472Y-97628443D01*
X191106458Y-97810070D01*
X191086496Y-98000000D01*
X182858835Y-98000000D01*
X183013004Y-97917595D01*
X183166568Y-97791568D01*
X183292595Y-97638004D01*
X183386241Y-97462804D01*
X183443908Y-97272701D01*
X183463380Y-97075000D01*
X183443908Y-96877299D01*
X183386241Y-96687196D01*
X183292595Y-96511996D01*
X183166568Y-96358432D01*
X183013004Y-96232405D01*
X183013003Y-96232404D01*
X182918390Y-96181833D01*
X182837804Y-96138759D01*
X182647701Y-96081092D01*
X182647698Y-96081091D01*
X182450000Y-96061620D01*
X182252301Y-96081091D01*
X182217988Y-96091500D01*
X182062196Y-96138759D01*
X182062192Y-96138760D01*
X182062192Y-96138761D01*
X181886996Y-96232404D01*
X181733432Y-96358432D01*
X181607404Y-96511996D01*
X181513758Y-96687196D01*
X181456092Y-96877296D01*
X181447446Y-96965068D01*
X181436137Y-97005930D01*
X181411724Y-97040593D01*
X179447138Y-99005181D01*
X179406910Y-99032061D01*
X179359457Y-99041500D01*
X172805543Y-99041500D01*
X172749248Y-99027985D01*
X172705225Y-98990385D01*
X172683070Y-98936898D01*
X172687612Y-98879182D01*
X172717862Y-98829819D01*
X172894947Y-98652734D01*
X173434408Y-98113271D01*
X173469069Y-98088860D01*
X173509931Y-98077552D01*
X173597701Y-98068908D01*
X173787804Y-98011241D01*
X173963004Y-97917595D01*
X174116568Y-97791568D01*
X174242595Y-97638004D01*
X174336241Y-97462804D01*
X174393908Y-97272701D01*
X174413380Y-97075000D01*
X174393908Y-96877299D01*
X174336241Y-96687196D01*
X174242595Y-96511996D01*
X174116568Y-96358432D01*
X173963004Y-96232405D01*
X173963003Y-96232404D01*
X173868390Y-96181833D01*
X173787804Y-96138759D01*
X173597701Y-96081092D01*
X173597698Y-96081091D01*
X173400000Y-96061620D01*
X173202301Y-96081091D01*
X173167988Y-96091500D01*
X173012196Y-96138759D01*
X173012192Y-96138760D01*
X173012192Y-96138761D01*
X172836996Y-96232404D01*
X172683432Y-96358432D01*
X172557404Y-96511996D01*
X172463758Y-96687196D01*
X172406092Y-96877296D01*
X172397446Y-96965068D01*
X172386137Y-97005930D01*
X172361724Y-97040593D01*
X170397138Y-99005181D01*
X170356910Y-99032061D01*
X170309457Y-99041500D01*
X168290166Y-99041500D01*
X168267727Y-99039207D01*
X168266558Y-99039241D01*
X168190706Y-99041448D01*
X168187102Y-99041500D01*
X163916558Y-99041500D01*
X163851078Y-99022801D01*
X163805346Y-98972344D01*
X163793155Y-98905346D01*
X163796755Y-98868794D01*
X163813380Y-98700000D01*
X163793908Y-98502299D01*
X163736241Y-98312196D01*
X163642595Y-98136996D01*
X163530164Y-97999999D01*
X165936700Y-97999999D01*
X165955837Y-98169846D01*
X165955837Y-98169848D01*
X165955838Y-98169850D01*
X166012291Y-98331183D01*
X166103229Y-98475909D01*
X166224091Y-98596771D01*
X166368817Y-98687709D01*
X166530150Y-98744162D01*
X166657537Y-98758514D01*
X166699999Y-98763299D01*
X166699999Y-98763298D01*
X166700000Y-98763299D01*
X166869850Y-98744162D01*
X167031183Y-98687709D01*
X167175909Y-98596771D01*
X167296771Y-98475909D01*
X167387709Y-98331183D01*
X167444162Y-98169850D01*
X167463299Y-98000000D01*
X167444162Y-97830150D01*
X167387709Y-97668817D01*
X167296771Y-97524091D01*
X167175909Y-97403229D01*
X167031183Y-97312291D01*
X166869850Y-97255838D01*
X166869848Y-97255837D01*
X166869846Y-97255837D01*
X166700000Y-97236700D01*
X166530153Y-97255837D01*
X166530150Y-97255837D01*
X166530150Y-97255838D01*
X166368817Y-97312291D01*
X166368815Y-97312291D01*
X166368815Y-97312292D01*
X166224089Y-97403230D01*
X166103230Y-97524089D01*
X166014827Y-97664780D01*
X166012291Y-97668817D01*
X165966388Y-97800000D01*
X165955837Y-97830153D01*
X165936700Y-97999999D01*
X163530164Y-97999999D01*
X163516568Y-97983432D01*
X163363004Y-97857405D01*
X163363003Y-97857404D01*
X163205985Y-97773477D01*
X163187804Y-97763759D01*
X162997701Y-97706092D01*
X162997699Y-97706091D01*
X162997697Y-97706091D01*
X162841385Y-97690696D01*
X162776908Y-97664780D01*
X162736498Y-97608249D01*
X162687709Y-97468817D01*
X162596771Y-97324091D01*
X162475909Y-97203229D01*
X162331183Y-97112291D01*
X162169850Y-97055838D01*
X162169848Y-97055837D01*
X162169846Y-97055837D01*
X162000000Y-97036700D01*
X161830153Y-97055837D01*
X161830150Y-97055837D01*
X161830150Y-97055838D01*
X161668817Y-97112291D01*
X161668815Y-97112291D01*
X161668815Y-97112292D01*
X161524089Y-97203230D01*
X161403230Y-97324089D01*
X161315909Y-97463058D01*
X161312291Y-97468817D01*
X161282658Y-97553504D01*
X161255837Y-97630153D01*
X161250887Y-97674083D01*
X161231281Y-97728316D01*
X161189264Y-97767816D01*
X161133925Y-97784039D01*
X161077232Y-97773477D01*
X160982285Y-97731204D01*
X160795489Y-97691500D01*
X160795487Y-97691500D01*
X160604513Y-97691500D01*
X160604511Y-97691500D01*
X160417714Y-97731204D01*
X160243248Y-97808881D01*
X160088748Y-97921133D01*
X159960957Y-98063058D01*
X159865472Y-98228444D01*
X159853431Y-98265503D01*
X159824483Y-98313544D01*
X159777330Y-98343915D01*
X159721618Y-98350403D01*
X159600000Y-98336700D01*
X159430153Y-98355837D01*
X159430150Y-98355837D01*
X159430150Y-98355838D01*
X159268817Y-98412291D01*
X159268815Y-98412291D01*
X159268815Y-98412292D01*
X159124089Y-98503230D01*
X159003230Y-98624089D01*
X158955532Y-98699999D01*
X158912291Y-98768817D01*
X158864517Y-98905346D01*
X158855837Y-98930153D01*
X158836700Y-99099999D01*
X158855837Y-99269846D01*
X158855837Y-99269848D01*
X158855838Y-99269850D01*
X158912291Y-99431183D01*
X159003229Y-99575909D01*
X159124091Y-99696771D01*
X159268817Y-99787709D01*
X159430150Y-99844162D01*
X159600000Y-99863299D01*
X159769850Y-99844162D01*
X159931183Y-99787709D01*
X160075909Y-99696771D01*
X160196771Y-99575909D01*
X160240457Y-99506382D01*
X160282382Y-99465592D01*
X160338343Y-99448560D01*
X160395884Y-99459075D01*
X160417712Y-99468794D01*
X160417715Y-99468794D01*
X160417716Y-99468795D01*
X160604511Y-99508500D01*
X160730789Y-99508500D01*
X160796761Y-99527506D01*
X160842509Y-99578699D01*
X160854009Y-99646384D01*
X160836700Y-99800000D01*
X160855837Y-99969846D01*
X160855837Y-99969848D01*
X160855838Y-99969850D01*
X160912291Y-100131183D01*
X161003229Y-100275909D01*
X161124091Y-100396771D01*
X161268817Y-100487709D01*
X161283146Y-100492723D01*
X161334650Y-100527136D01*
X161363082Y-100582170D01*
X161361345Y-100644091D01*
X161329873Y-100697444D01*
X161222139Y-100805180D01*
X161181910Y-100832061D01*
X161134457Y-100841500D01*
X156989294Y-100841500D01*
X156971324Y-100840191D01*
X156958501Y-100838312D01*
X156947211Y-100836659D01*
X156947210Y-100836659D01*
X156897274Y-100841028D01*
X156886467Y-100841500D01*
X156880819Y-100841500D01*
X156849677Y-100845139D01*
X156846093Y-100845505D01*
X156769410Y-100852214D01*
X156749989Y-100856519D01*
X156677660Y-100882844D01*
X156674259Y-100884026D01*
X156601153Y-100908252D01*
X156583242Y-100916924D01*
X156518924Y-100959226D01*
X156515885Y-100961162D01*
X156450360Y-101001579D01*
X156434916Y-101014160D01*
X156382052Y-101070191D01*
X156379541Y-101072776D01*
X152722138Y-104730181D01*
X152681910Y-104757061D01*
X152634457Y-104766500D01*
X152272028Y-104766500D01*
X152206056Y-104747494D01*
X152160308Y-104696302D01*
X152148808Y-104628616D01*
X152163299Y-104499999D01*
X152144162Y-104330153D01*
X152144162Y-104330150D01*
X152087709Y-104168817D01*
X151996771Y-104024091D01*
X151875909Y-103903229D01*
X151731183Y-103812291D01*
X151569850Y-103755838D01*
X151569848Y-103755837D01*
X151569846Y-103755837D01*
X151400000Y-103736700D01*
X151230153Y-103755837D01*
X151230150Y-103755837D01*
X151230150Y-103755838D01*
X151068817Y-103812291D01*
X151068815Y-103812291D01*
X151068815Y-103812292D01*
X150924088Y-103903231D01*
X150887680Y-103939639D01*
X150832093Y-103971732D01*
X150767907Y-103971732D01*
X150712320Y-103939639D01*
X150675911Y-103903231D01*
X150675911Y-103903230D01*
X150675909Y-103903229D01*
X150531183Y-103812291D01*
X150369850Y-103755838D01*
X150369848Y-103755837D01*
X150369846Y-103755837D01*
X150200000Y-103736700D01*
X150030153Y-103755837D01*
X150030150Y-103755837D01*
X150030150Y-103755838D01*
X149868817Y-103812291D01*
X149868815Y-103812291D01*
X149868815Y-103812292D01*
X149724089Y-103903230D01*
X149603230Y-104024089D01*
X149573404Y-104071556D01*
X149512291Y-104168817D01*
X149488452Y-104236944D01*
X149455837Y-104330153D01*
X149436700Y-104499999D01*
X149451192Y-104628616D01*
X149439692Y-104696302D01*
X149393944Y-104747494D01*
X149327972Y-104766500D01*
X144221609Y-104766500D01*
X144157374Y-104748565D01*
X144111720Y-104699949D01*
X144097854Y-104634714D01*
X144119787Y-104571731D01*
X144171174Y-104529220D01*
X144211920Y-104511078D01*
X144256752Y-104491118D01*
X144411253Y-104378866D01*
X144539040Y-104236944D01*
X144547477Y-104222332D01*
X144634527Y-104071556D01*
X144666962Y-103971732D01*
X144693542Y-103889928D01*
X144713504Y-103700000D01*
X144693542Y-103510072D01*
X144647845Y-103369432D01*
X144634527Y-103328443D01*
X144539042Y-103163058D01*
X144519442Y-103141291D01*
X144411253Y-103021134D01*
X144256752Y-102908882D01*
X144256751Y-102908881D01*
X144082285Y-102831204D01*
X143895489Y-102791500D01*
X143895487Y-102791500D01*
X143704513Y-102791500D01*
X143704511Y-102791500D01*
X143517714Y-102831204D01*
X143343248Y-102908881D01*
X143188748Y-103021133D01*
X143060957Y-103163058D01*
X142965472Y-103328443D01*
X142906458Y-103510070D01*
X142886496Y-103699999D01*
X142906458Y-103889929D01*
X142965472Y-104071556D01*
X143060957Y-104236941D01*
X143060960Y-104236944D01*
X143188747Y-104378866D01*
X143343248Y-104491118D01*
X143428826Y-104529220D01*
X143480213Y-104571731D01*
X143502146Y-104634714D01*
X143488280Y-104699949D01*
X143442626Y-104748565D01*
X143378391Y-104766500D01*
X142865543Y-104766500D01*
X142818090Y-104757061D01*
X142777862Y-104730181D01*
X141094819Y-103047138D01*
X141067939Y-103006910D01*
X141058500Y-102959457D01*
X141058500Y-100822413D01*
X141069552Y-100771240D01*
X141100737Y-100729189D01*
X141102008Y-100728073D01*
X141103700Y-100726590D01*
X141126590Y-100703700D01*
X141170878Y-100653200D01*
X141230461Y-100575550D01*
X141267777Y-100519703D01*
X141283962Y-100491670D01*
X141313671Y-100431426D01*
X141351127Y-100340999D01*
X141372718Y-100277395D01*
X141381096Y-100246128D01*
X141394199Y-100180253D01*
X141404765Y-100099999D01*
X148386496Y-100099999D01*
X148406458Y-100289929D01*
X148465472Y-100471556D01*
X148560957Y-100636941D01*
X148560960Y-100636944D01*
X148688747Y-100778866D01*
X148795627Y-100856519D01*
X148843248Y-100891118D01*
X149017714Y-100968795D01*
X149204511Y-101008500D01*
X149204513Y-101008500D01*
X149395487Y-101008500D01*
X149395489Y-101008500D01*
X149582285Y-100968795D01*
X149582286Y-100968794D01*
X149582288Y-100968794D01*
X149756752Y-100891118D01*
X149911253Y-100778866D01*
X150039040Y-100636944D01*
X150044123Y-100628141D01*
X150134527Y-100471556D01*
X150158827Y-100396769D01*
X150193542Y-100289928D01*
X150213504Y-100100000D01*
X150193542Y-99910072D01*
X150134527Y-99728444D01*
X150134527Y-99728443D01*
X150039042Y-99563058D01*
X150007031Y-99527506D01*
X149911253Y-99421134D01*
X149756752Y-99308882D01*
X149756751Y-99308881D01*
X149582285Y-99231204D01*
X149395489Y-99191500D01*
X149395487Y-99191500D01*
X149204513Y-99191500D01*
X149204511Y-99191500D01*
X149017714Y-99231204D01*
X148843248Y-99308881D01*
X148688748Y-99421133D01*
X148560957Y-99563058D01*
X148465472Y-99728443D01*
X148406458Y-99910070D01*
X148386496Y-100099999D01*
X141404765Y-100099999D01*
X141408045Y-100075089D01*
X141411339Y-100041648D01*
X141412400Y-100025462D01*
X141413500Y-99991874D01*
X141413500Y-97999999D01*
X152694531Y-97999999D01*
X152714364Y-98226689D01*
X152773261Y-98446497D01*
X152869432Y-98652735D01*
X152999953Y-98839140D01*
X153160859Y-99000046D01*
X153347264Y-99130567D01*
X153347265Y-99130567D01*
X153347266Y-99130568D01*
X153553504Y-99226739D01*
X153773308Y-99285635D01*
X153858262Y-99293067D01*
X153943214Y-99300500D01*
X153943216Y-99300500D01*
X154056784Y-99300500D01*
X154056786Y-99300500D01*
X154124747Y-99294554D01*
X154226692Y-99285635D01*
X154446496Y-99226739D01*
X154652734Y-99130568D01*
X154839139Y-99000047D01*
X155000047Y-98839139D01*
X155130568Y-98652734D01*
X155226739Y-98446496D01*
X155285635Y-98226692D01*
X155305468Y-98000000D01*
X155304018Y-97983432D01*
X155293989Y-97868794D01*
X155285635Y-97773308D01*
X155226739Y-97553504D01*
X155130568Y-97347266D01*
X155114339Y-97324089D01*
X155000046Y-97160859D01*
X154839187Y-97000000D01*
X156636496Y-97000000D01*
X156656458Y-97189929D01*
X156715472Y-97371556D01*
X156810957Y-97536941D01*
X156810960Y-97536944D01*
X156938747Y-97678866D01*
X157083505Y-97784039D01*
X157093248Y-97791118D01*
X157267714Y-97868795D01*
X157454511Y-97908500D01*
X157454513Y-97908500D01*
X157645487Y-97908500D01*
X157645489Y-97908500D01*
X157832285Y-97868795D01*
X157832286Y-97868794D01*
X157832288Y-97868794D01*
X158006752Y-97791118D01*
X158161253Y-97678866D01*
X158289040Y-97536944D01*
X158328375Y-97468815D01*
X158384527Y-97371556D01*
X158400910Y-97321134D01*
X158443542Y-97189928D01*
X158463504Y-97000000D01*
X158443542Y-96810072D01*
X158384527Y-96628444D01*
X158384527Y-96628443D01*
X158289042Y-96463058D01*
X158232264Y-96400000D01*
X167686496Y-96400000D01*
X167706458Y-96589929D01*
X167765472Y-96771556D01*
X167860957Y-96936941D01*
X167860960Y-96936944D01*
X167988747Y-97078866D01*
X168034754Y-97112292D01*
X168143248Y-97191118D01*
X168317714Y-97268795D01*
X168504511Y-97308500D01*
X168504513Y-97308500D01*
X168695487Y-97308500D01*
X168695489Y-97308500D01*
X168882285Y-97268795D01*
X168882286Y-97268794D01*
X168882288Y-97268794D01*
X169056752Y-97191118D01*
X169211253Y-97078866D01*
X169339040Y-96936944D01*
X169434527Y-96771556D01*
X169493542Y-96589928D01*
X169513504Y-96400000D01*
X169493542Y-96210072D01*
X169434527Y-96028444D01*
X169434527Y-96028443D01*
X169339042Y-95863058D01*
X169298283Y-95817791D01*
X169211253Y-95721134D01*
X169087478Y-95631206D01*
X169056751Y-95608881D01*
X168882285Y-95531204D01*
X168695489Y-95491500D01*
X168695487Y-95491500D01*
X168504513Y-95491500D01*
X168504511Y-95491500D01*
X168317714Y-95531204D01*
X168143248Y-95608881D01*
X167988748Y-95721133D01*
X167860957Y-95863058D01*
X167765472Y-96028443D01*
X167706458Y-96210070D01*
X167686496Y-96400000D01*
X158232264Y-96400000D01*
X158161253Y-96321134D01*
X158008390Y-96210072D01*
X158006751Y-96208881D01*
X157832285Y-96131204D01*
X157645489Y-96091500D01*
X157645487Y-96091500D01*
X157454513Y-96091500D01*
X157454511Y-96091500D01*
X157267714Y-96131204D01*
X157093248Y-96208881D01*
X156938748Y-96321133D01*
X156810957Y-96463058D01*
X156715472Y-96628443D01*
X156656458Y-96810070D01*
X156636496Y-97000000D01*
X154839187Y-97000000D01*
X154839140Y-96999953D01*
X154652735Y-96869432D01*
X154446497Y-96773261D01*
X154226689Y-96714364D01*
X154056786Y-96699500D01*
X154056784Y-96699500D01*
X153943216Y-96699500D01*
X153943214Y-96699500D01*
X153773310Y-96714364D01*
X153553502Y-96773261D01*
X153347264Y-96869432D01*
X153160859Y-96999953D01*
X152999953Y-97160859D01*
X152869432Y-97347264D01*
X152773261Y-97553502D01*
X152714364Y-97773310D01*
X152694531Y-97999999D01*
X141413500Y-97999999D01*
X141413500Y-95652870D01*
X141432738Y-95586530D01*
X141484483Y-95540775D01*
X141552679Y-95529803D01*
X141616163Y-95557016D01*
X141756996Y-95672595D01*
X141864086Y-95729835D01*
X141906066Y-95766469D01*
X141927768Y-95817791D01*
X141924807Y-95873434D01*
X141897780Y-95922163D01*
X141860957Y-95963058D01*
X141765472Y-96128443D01*
X141706458Y-96310070D01*
X141686496Y-96500000D01*
X141706458Y-96689929D01*
X141765472Y-96871556D01*
X141860957Y-97036941D01*
X141877971Y-97055837D01*
X141988747Y-97178866D01*
X142112522Y-97268794D01*
X142143248Y-97291118D01*
X142317714Y-97368795D01*
X142504511Y-97408500D01*
X142504513Y-97408500D01*
X142695487Y-97408500D01*
X142695489Y-97408500D01*
X142882285Y-97368795D01*
X142882286Y-97368794D01*
X142882288Y-97368794D01*
X143056752Y-97291118D01*
X143202117Y-97185503D01*
X143249219Y-97164533D01*
X143300781Y-97164533D01*
X143347882Y-97185503D01*
X143462522Y-97268794D01*
X143493248Y-97291118D01*
X143667714Y-97368795D01*
X143854511Y-97408500D01*
X143854513Y-97408500D01*
X144045487Y-97408500D01*
X144045489Y-97408500D01*
X144232285Y-97368795D01*
X144232286Y-97368794D01*
X144232288Y-97368794D01*
X144406752Y-97291118D01*
X144561253Y-97178866D01*
X144689040Y-97036944D01*
X144689181Y-97036701D01*
X144784527Y-96871556D01*
X144785217Y-96869432D01*
X144843542Y-96689928D01*
X144863504Y-96500000D01*
X144843542Y-96310072D01*
X144810663Y-96208881D01*
X144784527Y-96128443D01*
X144689042Y-95963058D01*
X144652220Y-95922163D01*
X144561253Y-95821134D01*
X144435587Y-95729832D01*
X144406751Y-95708881D01*
X144232285Y-95631204D01*
X144045489Y-95591500D01*
X144045487Y-95591500D01*
X143854513Y-95591500D01*
X143854511Y-95591500D01*
X143667714Y-95631204D01*
X143493248Y-95708881D01*
X143347886Y-95814494D01*
X143300781Y-95835466D01*
X143249219Y-95835466D01*
X143202115Y-95814494D01*
X143067066Y-95716375D01*
X143025703Y-95664258D01*
X143017234Y-95598264D01*
X143044097Y-95537393D01*
X143162595Y-95393004D01*
X143256241Y-95217804D01*
X143313908Y-95027701D01*
X143328500Y-94879547D01*
X143328500Y-94299999D01*
X170286496Y-94299999D01*
X170306458Y-94489929D01*
X170365472Y-94671556D01*
X170460957Y-94836941D01*
X170460960Y-94836944D01*
X170588747Y-94978866D01*
X170743247Y-95091117D01*
X170743248Y-95091118D01*
X170917714Y-95168795D01*
X171104511Y-95208500D01*
X171104513Y-95208500D01*
X171295487Y-95208500D01*
X171295489Y-95208500D01*
X171482285Y-95168795D01*
X171482286Y-95168794D01*
X171482288Y-95168794D01*
X171656752Y-95091118D01*
X171811253Y-94978866D01*
X171939040Y-94836944D01*
X171987000Y-94753876D01*
X172034527Y-94671556D01*
X172067989Y-94568571D01*
X172093542Y-94489928D01*
X172113504Y-94300000D01*
X172102963Y-94199713D01*
X172110061Y-94143533D01*
X172141400Y-94096364D01*
X172190444Y-94068048D01*
X172246964Y-94064493D01*
X172299167Y-94086436D01*
X172413546Y-94169538D01*
X172443248Y-94191118D01*
X172617714Y-94268795D01*
X172804511Y-94308500D01*
X172804513Y-94308500D01*
X172995487Y-94308500D01*
X172995489Y-94308500D01*
X173182285Y-94268795D01*
X173182286Y-94268794D01*
X173182288Y-94268794D01*
X173356752Y-94191118D01*
X173511253Y-94078866D01*
X173639040Y-93936944D01*
X173643948Y-93928444D01*
X173734527Y-93771556D01*
X173753156Y-93714223D01*
X173793542Y-93589928D01*
X173813504Y-93400000D01*
X173793542Y-93210072D01*
X173748535Y-93071556D01*
X173734527Y-93028443D01*
X173718105Y-93000000D01*
X176636496Y-93000000D01*
X176639486Y-93028444D01*
X176656458Y-93189929D01*
X176715472Y-93371556D01*
X176810957Y-93536941D01*
X176828538Y-93556466D01*
X176938747Y-93678866D01*
X177072315Y-93775909D01*
X177093248Y-93791118D01*
X177267714Y-93868795D01*
X177454511Y-93908500D01*
X177454513Y-93908500D01*
X177645487Y-93908500D01*
X177645489Y-93908500D01*
X177832285Y-93868795D01*
X177832286Y-93868794D01*
X177832288Y-93868794D01*
X178006752Y-93791118D01*
X178161253Y-93678866D01*
X178289040Y-93536944D01*
X178322311Y-93479318D01*
X178384527Y-93371556D01*
X178395009Y-93339295D01*
X178443542Y-93189928D01*
X178463504Y-93000000D01*
X178443542Y-92810072D01*
X178407777Y-92700000D01*
X186486496Y-92700000D01*
X186488243Y-92716620D01*
X186506458Y-92889929D01*
X186565472Y-93071556D01*
X186660957Y-93236941D01*
X186660960Y-93236944D01*
X186788747Y-93378866D01*
X186913975Y-93469850D01*
X186943248Y-93491118D01*
X187117714Y-93568795D01*
X187304511Y-93608500D01*
X187304513Y-93608500D01*
X187495487Y-93608500D01*
X187495489Y-93608500D01*
X187682285Y-93568795D01*
X187682286Y-93568794D01*
X187682288Y-93568794D01*
X187856752Y-93491118D01*
X188011253Y-93378866D01*
X188139040Y-93236944D01*
X188151464Y-93215426D01*
X188234527Y-93071556D01*
X188257777Y-92999999D01*
X188293542Y-92889928D01*
X188313504Y-92700000D01*
X188293542Y-92510072D01*
X188249950Y-92375910D01*
X188234527Y-92328443D01*
X188139042Y-92163058D01*
X188093149Y-92112089D01*
X188011253Y-92021134D01*
X187856752Y-91908882D01*
X187856751Y-91908881D01*
X187682285Y-91831204D01*
X187495489Y-91791500D01*
X187495487Y-91791500D01*
X187304513Y-91791500D01*
X187304511Y-91791500D01*
X187117714Y-91831204D01*
X186943248Y-91908881D01*
X186788748Y-92021133D01*
X186660957Y-92163058D01*
X186565472Y-92328443D01*
X186506458Y-92510070D01*
X186488449Y-92681416D01*
X186486496Y-92700000D01*
X178407777Y-92700000D01*
X178388769Y-92641500D01*
X178384527Y-92628443D01*
X178289042Y-92463058D01*
X178232055Y-92399768D01*
X178161253Y-92321134D01*
X178037447Y-92231183D01*
X178006751Y-92208881D01*
X177832285Y-92131204D01*
X177645489Y-92091500D01*
X177645487Y-92091500D01*
X177454513Y-92091500D01*
X177454511Y-92091500D01*
X177267714Y-92131204D01*
X177093248Y-92208881D01*
X176938748Y-92321133D01*
X176810957Y-92463058D01*
X176715472Y-92628443D01*
X176656458Y-92810070D01*
X176650175Y-92869850D01*
X176636496Y-93000000D01*
X173718105Y-93000000D01*
X173639042Y-92863058D01*
X173582263Y-92799999D01*
X173511253Y-92721134D01*
X173383677Y-92628444D01*
X173356751Y-92608881D01*
X173182285Y-92531204D01*
X172995489Y-92491500D01*
X172995487Y-92491500D01*
X172804513Y-92491500D01*
X172804511Y-92491500D01*
X172617714Y-92531204D01*
X172443248Y-92608881D01*
X172288748Y-92721133D01*
X172160957Y-92863058D01*
X172065472Y-93028443D01*
X172006458Y-93210070D01*
X172000845Y-93263473D01*
X171986496Y-93400000D01*
X171995714Y-93487709D01*
X171997036Y-93500282D01*
X171989938Y-93556466D01*
X171958598Y-93603635D01*
X171909554Y-93631951D01*
X171853035Y-93635506D01*
X171800830Y-93613561D01*
X171656752Y-93508882D01*
X171656751Y-93508881D01*
X171482285Y-93431204D01*
X171295489Y-93391500D01*
X171295487Y-93391500D01*
X171104513Y-93391500D01*
X171104511Y-93391500D01*
X170917714Y-93431204D01*
X170743248Y-93508881D01*
X170588748Y-93621133D01*
X170460957Y-93763058D01*
X170365472Y-93928443D01*
X170306458Y-94110070D01*
X170286496Y-94299999D01*
X143328500Y-94299999D01*
X143328500Y-93680453D01*
X143313908Y-93532299D01*
X143256241Y-93342196D01*
X143162595Y-93166996D01*
X143036568Y-93013432D01*
X142910539Y-92910003D01*
X142883003Y-92887404D01*
X142764551Y-92824091D01*
X142707804Y-92793759D01*
X142517701Y-92736092D01*
X142517698Y-92736091D01*
X142320000Y-92716620D01*
X142122301Y-92736091D01*
X142059265Y-92755213D01*
X141932196Y-92793759D01*
X141932192Y-92793760D01*
X141932192Y-92793761D01*
X141756996Y-92887404D01*
X141603432Y-93013432D01*
X141477405Y-93166995D01*
X141408022Y-93296802D01*
X141362185Y-93344842D01*
X141298135Y-93362347D01*
X141234236Y-93344296D01*
X141101328Y-93263473D01*
X140962228Y-93224500D01*
X140854051Y-93224500D01*
X140746889Y-93239229D01*
X140614391Y-93296781D01*
X140502333Y-93387946D01*
X140419030Y-93505960D01*
X140370653Y-93642081D01*
X140361608Y-93774330D01*
X140360796Y-93786199D01*
X140367088Y-93816477D01*
X140371409Y-93837273D01*
X140370476Y-93891860D01*
X140346190Y-93940755D01*
X140303258Y-93974481D01*
X140250002Y-93986500D01*
X135753323Y-93986500D01*
X135688895Y-93968448D01*
X135643225Y-93919548D01*
X135629612Y-93854038D01*
X135633220Y-93801286D01*
X135639204Y-93713801D01*
X135609814Y-93572366D01*
X135543354Y-93444105D01*
X135543353Y-93444103D01*
X135444755Y-93338530D01*
X135321329Y-93263473D01*
X135182228Y-93224500D01*
X135074051Y-93224500D01*
X134966889Y-93239229D01*
X134834390Y-93296781D01*
X134782134Y-93339295D01*
X134733623Y-93363487D01*
X134679428Y-93364672D01*
X134629906Y-93342626D01*
X134594521Y-93301560D01*
X134546423Y-93211576D01*
X134522595Y-93166996D01*
X134396568Y-93013432D01*
X134270539Y-92910003D01*
X134243003Y-92887404D01*
X134124551Y-92824091D01*
X134067804Y-92793759D01*
X133877701Y-92736092D01*
X133877698Y-92736091D01*
X133680000Y-92716620D01*
X133482301Y-92736091D01*
X133419265Y-92755213D01*
X133292196Y-92793759D01*
X133292192Y-92793760D01*
X133292192Y-92793761D01*
X133116996Y-92887404D01*
X132963432Y-93013432D01*
X132837404Y-93166996D01*
X132743761Y-93342192D01*
X132743759Y-93342196D01*
X132716759Y-93431204D01*
X132686091Y-93532301D01*
X132671500Y-93680454D01*
X132671500Y-93862500D01*
X132654887Y-93924500D01*
X132609500Y-93969887D01*
X132547500Y-93986500D01*
X130608126Y-93986500D01*
X130582001Y-93987355D01*
X130574534Y-93987600D01*
X130558345Y-93988661D01*
X130524905Y-93991955D01*
X130419756Y-94005798D01*
X130353882Y-94018900D01*
X130322614Y-94027277D01*
X130258995Y-94048872D01*
X130168582Y-94086322D01*
X130108319Y-94116041D01*
X130080294Y-94132222D01*
X130024444Y-94169539D01*
X129946791Y-94229126D01*
X129896289Y-94273416D01*
X129873416Y-94296289D01*
X129829126Y-94346791D01*
X129769542Y-94424441D01*
X129732210Y-94480313D01*
X129716030Y-94508338D01*
X129686328Y-94568571D01*
X129648872Y-94658998D01*
X129627277Y-94722616D01*
X129618903Y-94753867D01*
X129605798Y-94819757D01*
X129591955Y-94924903D01*
X129588661Y-94958345D01*
X129587600Y-94974533D01*
X129586500Y-95008140D01*
X129586500Y-101791860D01*
X125500500Y-101791860D01*
X125500500Y-98000000D01*
X127086496Y-98000000D01*
X127093123Y-98063056D01*
X127106458Y-98189929D01*
X127165472Y-98371556D01*
X127260957Y-98536941D01*
X127260960Y-98536944D01*
X127388747Y-98678866D01*
X127541610Y-98789928D01*
X127543248Y-98791118D01*
X127717714Y-98868795D01*
X127904511Y-98908500D01*
X127904513Y-98908500D01*
X128095487Y-98908500D01*
X128095489Y-98908500D01*
X128282285Y-98868795D01*
X128282286Y-98868794D01*
X128282288Y-98868794D01*
X128456752Y-98791118D01*
X128611253Y-98678866D01*
X128739040Y-98536944D01*
X128758506Y-98503229D01*
X128834527Y-98371556D01*
X128853814Y-98312196D01*
X128893542Y-98189928D01*
X128913504Y-98000000D01*
X128893542Y-97810072D01*
X128855015Y-97691500D01*
X128834527Y-97628443D01*
X128739042Y-97463058D01*
X128719442Y-97441291D01*
X128611253Y-97321134D01*
X128514901Y-97251129D01*
X128456751Y-97208881D01*
X128282285Y-97131204D01*
X128095489Y-97091500D01*
X128095487Y-97091500D01*
X127904513Y-97091500D01*
X127904511Y-97091500D01*
X127717714Y-97131204D01*
X127543248Y-97208881D01*
X127388748Y-97321133D01*
X127260957Y-97463058D01*
X127165472Y-97628443D01*
X127106458Y-97810070D01*
X127106457Y-97810072D01*
X127106458Y-97810072D01*
X127086496Y-98000000D01*
X125500500Y-98000000D01*
X125500500Y-90000000D01*
X127086496Y-90000000D01*
X127106458Y-90189929D01*
X127165472Y-90371556D01*
X127260957Y-90536941D01*
X127260960Y-90536944D01*
X127388747Y-90678866D01*
X127526496Y-90778947D01*
X127543248Y-90791118D01*
X127717714Y-90868795D01*
X127904511Y-90908500D01*
X127904513Y-90908500D01*
X128095487Y-90908500D01*
X128095489Y-90908500D01*
X128282285Y-90868795D01*
X128282286Y-90868794D01*
X128282288Y-90868794D01*
X128456752Y-90791118D01*
X128611253Y-90678866D01*
X128739040Y-90536944D01*
X128834527Y-90371556D01*
X128893542Y-90189928D01*
X128913504Y-90000000D01*
X128893542Y-89810072D01*
X128834527Y-89628444D01*
X128834527Y-89628443D01*
X128739042Y-89463058D01*
X128711898Y-89432912D01*
X128611253Y-89321134D01*
X128496532Y-89237784D01*
X128456751Y-89208881D01*
X128282285Y-89131204D01*
X128095489Y-89091500D01*
X128095487Y-89091500D01*
X127904513Y-89091500D01*
X127904511Y-89091500D01*
X127717714Y-89131204D01*
X127543248Y-89208881D01*
X127388748Y-89321133D01*
X127260957Y-89463058D01*
X127165472Y-89628443D01*
X127106458Y-89810070D01*
X127086496Y-90000000D01*
X125500500Y-90000000D01*
X125500500Y-84504428D01*
X125500816Y-84495582D01*
X125503060Y-84464201D01*
X125515130Y-84295436D01*
X125517646Y-84277938D01*
X125559356Y-84086199D01*
X125564333Y-84069248D01*
X125632911Y-83885385D01*
X125640259Y-83869298D01*
X125688727Y-83780535D01*
X125734291Y-83697089D01*
X125743845Y-83682221D01*
X125861448Y-83525123D01*
X125873020Y-83511769D01*
X126011769Y-83373020D01*
X126025123Y-83361448D01*
X126182221Y-83243845D01*
X126197089Y-83234291D01*
X126369298Y-83140258D01*
X126385385Y-83132911D01*
X126569248Y-83064333D01*
X126586199Y-83059356D01*
X126777938Y-83017646D01*
X126795436Y-83015130D01*
X126995581Y-83000816D01*
X127004428Y-83000500D01*
X127065892Y-83000500D01*
X127934108Y-83000500D01*
X127993038Y-83000500D01*
X128006922Y-83001280D01*
X128097266Y-83011459D01*
X128124331Y-83017636D01*
X128203540Y-83045352D01*
X128228553Y-83057398D01*
X128299606Y-83102043D01*
X128321313Y-83119355D01*
X128380644Y-83178686D01*
X128397957Y-83200395D01*
X128442600Y-83271444D01*
X128454648Y-83296462D01*
X128482362Y-83375666D01*
X128488540Y-83402735D01*
X128498720Y-83493077D01*
X128499500Y-83506962D01*
X128499500Y-85651251D01*
X128535962Y-85951550D01*
X128608357Y-86245267D01*
X128687327Y-86453492D01*
X128715627Y-86528113D01*
X128853663Y-86791118D01*
X128856210Y-86795970D01*
X129028051Y-87044926D01*
X129104489Y-87131206D01*
X129228648Y-87271352D01*
X129351037Y-87379779D01*
X129455073Y-87471948D01*
X129455076Y-87471950D01*
X129704033Y-87643792D01*
X129971887Y-87784373D01*
X130254734Y-87891643D01*
X130548449Y-87964037D01*
X130848748Y-88000500D01*
X130964201Y-88000500D01*
X131000000Y-88000500D01*
X131065892Y-88000500D01*
X131436374Y-88000500D01*
X131492669Y-88014015D01*
X131536692Y-88051615D01*
X131558847Y-88105103D01*
X131554305Y-88162814D01*
X131521656Y-88263299D01*
X131506458Y-88310072D01*
X131486496Y-88500000D01*
X131506458Y-88689929D01*
X131565472Y-88871556D01*
X131660957Y-89036941D01*
X131660960Y-89036944D01*
X131788747Y-89178866D01*
X131938556Y-89287709D01*
X131943248Y-89291118D01*
X132117714Y-89368795D01*
X132304511Y-89408500D01*
X132304513Y-89408500D01*
X132495487Y-89408500D01*
X132495488Y-89408500D01*
X132556671Y-89395495D01*
X132620190Y-89398667D01*
X132673782Y-89432912D01*
X132703349Y-89489220D01*
X132701113Y-89552779D01*
X132686092Y-89602298D01*
X132671500Y-89750454D01*
X132671500Y-90449546D01*
X132686091Y-90597698D01*
X132686092Y-90597701D01*
X132743759Y-90787804D01*
X132837405Y-90963004D01*
X132963432Y-91116568D01*
X133116996Y-91242595D01*
X133292196Y-91336241D01*
X133482299Y-91393908D01*
X133680000Y-91413380D01*
X133877701Y-91393908D01*
X134067804Y-91336241D01*
X134243004Y-91242595D01*
X134396568Y-91116568D01*
X134522595Y-90963004D01*
X134616241Y-90787804D01*
X134673908Y-90597701D01*
X134688500Y-90449547D01*
X134688500Y-89750453D01*
X134673908Y-89602299D01*
X134616241Y-89412196D01*
X134522595Y-89236996D01*
X134396568Y-89083432D01*
X134270539Y-88980003D01*
X134243003Y-88957404D01*
X134082391Y-88871556D01*
X134067804Y-88863759D01*
X133877701Y-88806092D01*
X133877698Y-88806091D01*
X133680000Y-88786620D01*
X133482298Y-88806092D01*
X133453564Y-88814808D01*
X133393178Y-88817724D01*
X133338591Y-88791742D01*
X133302777Y-88743036D01*
X133294249Y-88683191D01*
X133313504Y-88500000D01*
X133293542Y-88310072D01*
X133245694Y-88162814D01*
X133241153Y-88105103D01*
X133263308Y-88051615D01*
X133307331Y-88014015D01*
X133363626Y-88000500D01*
X138955954Y-88000500D01*
X138957165Y-88000585D01*
X138965183Y-88000569D01*
X138965188Y-88000570D01*
X139000464Y-88000500D01*
X139000671Y-88000500D01*
X139043930Y-88000500D01*
X139045126Y-88000411D01*
X139646532Y-87999225D01*
X139652988Y-87999638D01*
X139657528Y-87999577D01*
X139657532Y-87999578D01*
X139689943Y-87999146D01*
X139691120Y-87999136D01*
X139723458Y-87999074D01*
X139723465Y-87999072D01*
X139728018Y-87999064D01*
X139734445Y-87998554D01*
X140337343Y-87990537D01*
X140348655Y-87991074D01*
X140350239Y-87991018D01*
X140350241Y-87991019D01*
X140379362Y-87990006D01*
X140381964Y-87989943D01*
X140411081Y-87989557D01*
X140411086Y-87989556D01*
X140412675Y-87989535D01*
X140423931Y-87988456D01*
X141024140Y-87967591D01*
X141038056Y-87967889D01*
X141038754Y-87967944D01*
X141065025Y-87966226D01*
X141068720Y-87966041D01*
X141094995Y-87965129D01*
X141095685Y-87965004D01*
X141109494Y-87963318D01*
X141703099Y-87924515D01*
X141715991Y-87924346D01*
X141719251Y-87924473D01*
X141742890Y-87922006D01*
X141747586Y-87921607D01*
X141771290Y-87920059D01*
X141774483Y-87919384D01*
X141787203Y-87917382D01*
X142371050Y-87856467D01*
X142383022Y-87855803D01*
X142388539Y-87855765D01*
X142409766Y-87852559D01*
X142415379Y-87851843D01*
X142436756Y-87849613D01*
X142442114Y-87848263D01*
X142453867Y-87845900D01*
X142719250Y-87805830D01*
X142787325Y-87814777D01*
X142840205Y-87858575D01*
X142861674Y-87923795D01*
X142845149Y-87990439D01*
X142765472Y-88128444D01*
X142706458Y-88310070D01*
X142706457Y-88310072D01*
X142706458Y-88310072D01*
X142686496Y-88500000D01*
X142705749Y-88683187D01*
X142697222Y-88743037D01*
X142661407Y-88791742D01*
X142606820Y-88817725D01*
X142546434Y-88814808D01*
X142517700Y-88806091D01*
X142320000Y-88786620D01*
X142122301Y-88806091D01*
X142058931Y-88825314D01*
X141932196Y-88863759D01*
X141932192Y-88863760D01*
X141932192Y-88863761D01*
X141756996Y-88957404D01*
X141603432Y-89083432D01*
X141477404Y-89236996D01*
X141383761Y-89412192D01*
X141383759Y-89412196D01*
X141360179Y-89489929D01*
X141326091Y-89602301D01*
X141311500Y-89750454D01*
X141311500Y-90449546D01*
X141326091Y-90597698D01*
X141326092Y-90597701D01*
X141383759Y-90787804D01*
X141477405Y-90963004D01*
X141603432Y-91116568D01*
X141756996Y-91242595D01*
X141932196Y-91336241D01*
X142122299Y-91393908D01*
X142320000Y-91413380D01*
X142455859Y-91399999D01*
X149786496Y-91399999D01*
X149806458Y-91589929D01*
X149865472Y-91771556D01*
X149960957Y-91936941D01*
X149960960Y-91936944D01*
X150088747Y-92078866D01*
X150160784Y-92131204D01*
X150243248Y-92191118D01*
X150417714Y-92268795D01*
X150604511Y-92308500D01*
X150604513Y-92308500D01*
X150795487Y-92308500D01*
X150795489Y-92308500D01*
X150982285Y-92268795D01*
X150982286Y-92268794D01*
X150982288Y-92268794D01*
X151156752Y-92191118D01*
X151311253Y-92078866D01*
X151439040Y-91936944D01*
X151534527Y-91771556D01*
X151593542Y-91589928D01*
X151613504Y-91400000D01*
X151593542Y-91210072D01*
X151562931Y-91115862D01*
X151534527Y-91028443D01*
X151439042Y-90863058D01*
X151377916Y-90795171D01*
X151311253Y-90721134D01*
X151156752Y-90608882D01*
X151156751Y-90608881D01*
X150982285Y-90531204D01*
X150795489Y-90491500D01*
X150795487Y-90491500D01*
X150604513Y-90491500D01*
X150604511Y-90491500D01*
X150417714Y-90531204D01*
X150243248Y-90608881D01*
X150088748Y-90721133D01*
X149960957Y-90863058D01*
X149865472Y-91028443D01*
X149806458Y-91210070D01*
X149786496Y-91399999D01*
X142455859Y-91399999D01*
X142517701Y-91393908D01*
X142707804Y-91336241D01*
X142883004Y-91242595D01*
X143036568Y-91116568D01*
X143162595Y-90963004D01*
X143256241Y-90787804D01*
X143313908Y-90597701D01*
X143328500Y-90449547D01*
X143328500Y-89750453D01*
X143313908Y-89602299D01*
X143298887Y-89552781D01*
X143296649Y-89489221D01*
X143326216Y-89432912D01*
X143379808Y-89398667D01*
X143443328Y-89395495D01*
X143504511Y-89408500D01*
X143504513Y-89408500D01*
X143695487Y-89408500D01*
X143695489Y-89408500D01*
X143882285Y-89368795D01*
X143882286Y-89368794D01*
X143882288Y-89368794D01*
X144036803Y-89300000D01*
X147868586Y-89300000D01*
X147888178Y-89473878D01*
X147888178Y-89473880D01*
X147888179Y-89473881D01*
X147945971Y-89639042D01*
X148039067Y-89787203D01*
X148162797Y-89910933D01*
X148310958Y-90004029D01*
X148476119Y-90061821D01*
X148528230Y-90067692D01*
X148606394Y-90076500D01*
X148606397Y-90076500D01*
X148693603Y-90076500D01*
X148693606Y-90076500D01*
X148758741Y-90069160D01*
X148823881Y-90061821D01*
X148989042Y-90004029D01*
X149137203Y-89910933D01*
X149260933Y-89787203D01*
X149354029Y-89639042D01*
X149411821Y-89473881D01*
X149431413Y-89300000D01*
X149411821Y-89126119D01*
X149354029Y-88960958D01*
X149260933Y-88812797D01*
X149137203Y-88689067D01*
X148989042Y-88595971D01*
X148823881Y-88538179D01*
X148823880Y-88538178D01*
X148823878Y-88538178D01*
X148693606Y-88523500D01*
X148693603Y-88523500D01*
X148606397Y-88523500D01*
X148606394Y-88523500D01*
X148476121Y-88538178D01*
X148310957Y-88595971D01*
X148162795Y-88689068D01*
X148039068Y-88812795D01*
X147945971Y-88960957D01*
X147888178Y-89126121D01*
X147868586Y-89300000D01*
X144036803Y-89300000D01*
X144056752Y-89291118D01*
X144211253Y-89178866D01*
X144339040Y-89036944D01*
X144367538Y-88987585D01*
X144434527Y-88871556D01*
X144439192Y-88857200D01*
X144493542Y-88689928D01*
X144513504Y-88500000D01*
X144493542Y-88310072D01*
X144453783Y-88187707D01*
X144434527Y-88128443D01*
X144360370Y-88000000D01*
X155286496Y-88000000D01*
X155286631Y-88001282D01*
X155306458Y-88189929D01*
X155365472Y-88371556D01*
X155460957Y-88536941D01*
X155479526Y-88557564D01*
X155588747Y-88678866D01*
X155704624Y-88763056D01*
X155743248Y-88791118D01*
X155917714Y-88868795D01*
X156104511Y-88908500D01*
X156104513Y-88908500D01*
X156295487Y-88908500D01*
X156295489Y-88908500D01*
X156482285Y-88868795D01*
X156482286Y-88868794D01*
X156482288Y-88868794D01*
X156656752Y-88791118D01*
X156811253Y-88678866D01*
X156939040Y-88536944D01*
X156954502Y-88510164D01*
X157034527Y-88371556D01*
X157050910Y-88321134D01*
X157093542Y-88189928D01*
X157113504Y-88000000D01*
X157093542Y-87810072D01*
X157047981Y-87669850D01*
X157034527Y-87628443D01*
X157018105Y-87599999D01*
X160236700Y-87599999D01*
X160255837Y-87769846D01*
X160255837Y-87769848D01*
X160255838Y-87769850D01*
X160312291Y-87931183D01*
X160312292Y-87931185D01*
X160312293Y-87931187D01*
X160322494Y-87947422D01*
X160341500Y-88013393D01*
X160341500Y-88413610D01*
X160339133Y-88435044D01*
X160341439Y-88508401D01*
X160341500Y-88512296D01*
X160341500Y-88541432D01*
X160342068Y-88545931D01*
X160342983Y-88557564D01*
X160344437Y-88603833D01*
X160350463Y-88624575D01*
X160354408Y-88643621D01*
X160357117Y-88665063D01*
X160374158Y-88708105D01*
X160377941Y-88719154D01*
X160390855Y-88763601D01*
X160401850Y-88782193D01*
X160410409Y-88799663D01*
X160416406Y-88814808D01*
X160418365Y-88819756D01*
X160445578Y-88857211D01*
X160451977Y-88866952D01*
X160475547Y-88906807D01*
X160475548Y-88906808D01*
X160490822Y-88922082D01*
X160503458Y-88936876D01*
X160516159Y-88954357D01*
X160551820Y-88983858D01*
X160560461Y-88991721D01*
X161705181Y-90136441D01*
X161732061Y-90176669D01*
X161741500Y-90224122D01*
X161741500Y-90386607D01*
X161722494Y-90452578D01*
X161712293Y-90468812D01*
X161712291Y-90468816D01*
X161712291Y-90468817D01*
X161663280Y-90608881D01*
X161655837Y-90630153D01*
X161636700Y-90800000D01*
X161655837Y-90969846D01*
X161655837Y-90969848D01*
X161655838Y-90969850D01*
X161712291Y-91131183D01*
X161747494Y-91187208D01*
X161766500Y-91253180D01*
X161766500Y-92346820D01*
X161747494Y-92412792D01*
X161715327Y-92463986D01*
X161712291Y-92468817D01*
X161665122Y-92603618D01*
X161655837Y-92630153D01*
X161636700Y-92799999D01*
X161655837Y-92969846D01*
X161655837Y-92969848D01*
X161655838Y-92969850D01*
X161712291Y-93131183D01*
X161803229Y-93275909D01*
X161924091Y-93396771D01*
X162068817Y-93487709D01*
X162176907Y-93525531D01*
X162223631Y-93554891D01*
X162373282Y-93704542D01*
X162386769Y-93721375D01*
X162388583Y-93723078D01*
X162388584Y-93723080D01*
X162440206Y-93771556D01*
X162440272Y-93771618D01*
X162443038Y-93774298D01*
X162463667Y-93794927D01*
X162467242Y-93797700D01*
X162476122Y-93805283D01*
X162509867Y-93836972D01*
X162528803Y-93847382D01*
X162545055Y-93858058D01*
X162550782Y-93862500D01*
X162562133Y-93871305D01*
X162599860Y-93887630D01*
X162604379Y-93889586D01*
X162604613Y-93889687D01*
X162615105Y-93894827D01*
X162655663Y-93917124D01*
X162676584Y-93922495D01*
X162694994Y-93928798D01*
X162714824Y-93937380D01*
X162760553Y-93944621D01*
X162771975Y-93946987D01*
X162816812Y-93958500D01*
X162838419Y-93958500D01*
X162857816Y-93960026D01*
X162879152Y-93963406D01*
X162925235Y-93959049D01*
X162936903Y-93958500D01*
X163613610Y-93958500D01*
X163635044Y-93960866D01*
X163637535Y-93960787D01*
X163637537Y-93960788D01*
X163708400Y-93958561D01*
X163712296Y-93958500D01*
X163741436Y-93958500D01*
X163745922Y-93957933D01*
X163757571Y-93957015D01*
X163803831Y-93955562D01*
X163824576Y-93949534D01*
X163843616Y-93945591D01*
X163865064Y-93942882D01*
X163908118Y-93925835D01*
X163919142Y-93922060D01*
X163963600Y-93909145D01*
X163982191Y-93898149D01*
X163999664Y-93889589D01*
X164019756Y-93881635D01*
X164057222Y-93854412D01*
X164066960Y-93848016D01*
X164106807Y-93824453D01*
X164106806Y-93824453D01*
X164120295Y-93816477D01*
X164121308Y-93818190D01*
X164145856Y-93802762D01*
X164200700Y-93796579D01*
X164252792Y-93814805D01*
X164368817Y-93887709D01*
X164530150Y-93944162D01*
X164700000Y-93963299D01*
X164869850Y-93944162D01*
X164961000Y-93912266D01*
X165015837Y-93906088D01*
X165067924Y-93924313D01*
X165168817Y-93987709D01*
X165330150Y-94044162D01*
X165500000Y-94063299D01*
X165669850Y-94044162D01*
X165831183Y-93987709D01*
X165975909Y-93896771D01*
X166096771Y-93775909D01*
X166187709Y-93631183D01*
X166244162Y-93469850D01*
X166261205Y-93318583D01*
X166287478Y-93255155D01*
X166343470Y-93215426D01*
X166412017Y-93211576D01*
X166472106Y-93244786D01*
X166524091Y-93296771D01*
X166668817Y-93387709D01*
X166830150Y-93444162D01*
X167000000Y-93463299D01*
X167169850Y-93444162D01*
X167331183Y-93387709D01*
X167475909Y-93296771D01*
X167596771Y-93175909D01*
X167687709Y-93031183D01*
X167744162Y-92869850D01*
X167763299Y-92700000D01*
X167744162Y-92530150D01*
X167687709Y-92368817D01*
X167596771Y-92224091D01*
X167572911Y-92200231D01*
X167539700Y-92140139D01*
X167542868Y-92083765D01*
X167542598Y-92083735D01*
X167543141Y-92078913D01*
X167543552Y-92071590D01*
X167544162Y-92069850D01*
X167548410Y-92032153D01*
X167563299Y-91900000D01*
X167544162Y-91730149D01*
X167489792Y-91574769D01*
X167483613Y-91519930D01*
X167501840Y-91467841D01*
X167587709Y-91331183D01*
X167644162Y-91169850D01*
X167663299Y-91000000D01*
X167644162Y-90830150D01*
X167587709Y-90668817D01*
X167496771Y-90524091D01*
X167375909Y-90403229D01*
X167231183Y-90312291D01*
X167069850Y-90255838D01*
X167069848Y-90255837D01*
X167069846Y-90255837D01*
X166899999Y-90236700D01*
X166808807Y-90246975D01*
X166754188Y-90240873D01*
X166707571Y-90211763D01*
X166678114Y-90165365D01*
X166671603Y-90110798D01*
X166688504Y-89950000D01*
X166668542Y-89760072D01*
X166617278Y-89602298D01*
X166609527Y-89578443D01*
X166514042Y-89413058D01*
X166474186Y-89368794D01*
X166412244Y-89300000D01*
X177886496Y-89300000D01*
X177906458Y-89489929D01*
X177965472Y-89671556D01*
X178060957Y-89836941D01*
X178060960Y-89836944D01*
X178188747Y-89978866D01*
X178323128Y-90076500D01*
X178343248Y-90091118D01*
X178517714Y-90168795D01*
X178704511Y-90208500D01*
X178704513Y-90208500D01*
X178895487Y-90208500D01*
X178895489Y-90208500D01*
X179082285Y-90168795D01*
X179082286Y-90168794D01*
X179082288Y-90168794D01*
X179256752Y-90091118D01*
X179382165Y-90000000D01*
X191086496Y-90000000D01*
X191106458Y-90189929D01*
X191165472Y-90371556D01*
X191260957Y-90536941D01*
X191260960Y-90536944D01*
X191388747Y-90678866D01*
X191526496Y-90778947D01*
X191543248Y-90791118D01*
X191717714Y-90868795D01*
X191904511Y-90908500D01*
X191904513Y-90908500D01*
X192095487Y-90908500D01*
X192095489Y-90908500D01*
X192282285Y-90868795D01*
X192282286Y-90868794D01*
X192282288Y-90868794D01*
X192456752Y-90791118D01*
X192611253Y-90678866D01*
X192739040Y-90536944D01*
X192834527Y-90371556D01*
X192893542Y-90189928D01*
X192913504Y-90000000D01*
X192893542Y-89810072D01*
X192834527Y-89628444D01*
X192834527Y-89628443D01*
X192739042Y-89463058D01*
X192711898Y-89432912D01*
X192611253Y-89321134D01*
X192496532Y-89237784D01*
X192456751Y-89208881D01*
X192282285Y-89131204D01*
X192095489Y-89091500D01*
X192095487Y-89091500D01*
X191904513Y-89091500D01*
X191904511Y-89091500D01*
X191717714Y-89131204D01*
X191543248Y-89208881D01*
X191388748Y-89321133D01*
X191260957Y-89463058D01*
X191165472Y-89628443D01*
X191106458Y-89810070D01*
X191086496Y-90000000D01*
X179382165Y-90000000D01*
X179411253Y-89978866D01*
X179539040Y-89836944D01*
X179567758Y-89787204D01*
X179634527Y-89671556D01*
X179634527Y-89671555D01*
X179693542Y-89489928D01*
X179713504Y-89300000D01*
X179693542Y-89110072D01*
X179634527Y-88928444D01*
X179634527Y-88928443D01*
X179539042Y-88763058D01*
X179519442Y-88741291D01*
X179411253Y-88621134D01*
X179256752Y-88508882D01*
X179256751Y-88508881D01*
X179082285Y-88431204D01*
X178895489Y-88391500D01*
X178895487Y-88391500D01*
X178704513Y-88391500D01*
X178704511Y-88391500D01*
X178517714Y-88431204D01*
X178343248Y-88508881D01*
X178188748Y-88621133D01*
X178060957Y-88763058D01*
X177965472Y-88928443D01*
X177906458Y-89110070D01*
X177886496Y-89300000D01*
X166412244Y-89300000D01*
X166386253Y-89271134D01*
X166386248Y-89271131D01*
X166386248Y-89271130D01*
X166257202Y-89177371D01*
X166216808Y-89127489D01*
X166206767Y-89064094D01*
X166213504Y-89000000D01*
X166193542Y-88810072D01*
X166150910Y-88678866D01*
X166134527Y-88628443D01*
X166039042Y-88463058D01*
X166006846Y-88427301D01*
X165911253Y-88321134D01*
X165805981Y-88244649D01*
X165756751Y-88208881D01*
X165582285Y-88131204D01*
X165395489Y-88091500D01*
X165395487Y-88091500D01*
X165204513Y-88091500D01*
X165204511Y-88091500D01*
X165017714Y-88131204D01*
X164843247Y-88208882D01*
X164822882Y-88223678D01*
X164775778Y-88244649D01*
X164724216Y-88244648D01*
X164677113Y-88223675D01*
X164656754Y-88208883D01*
X164482285Y-88131204D01*
X164295489Y-88091500D01*
X164295487Y-88091500D01*
X164104513Y-88091500D01*
X164104510Y-88091500D01*
X163955097Y-88123258D01*
X163905050Y-88123570D01*
X163858956Y-88104072D01*
X163824324Y-88067941D01*
X163815583Y-88054030D01*
X163796771Y-88024091D01*
X163675909Y-87903229D01*
X163531183Y-87812291D01*
X163369850Y-87755838D01*
X163369848Y-87755837D01*
X163369846Y-87755837D01*
X163200000Y-87736700D01*
X163030153Y-87755837D01*
X163030150Y-87755837D01*
X163030150Y-87755838D01*
X162868817Y-87812291D01*
X162868816Y-87812291D01*
X162868812Y-87812293D01*
X162767925Y-87875684D01*
X162715838Y-87893910D01*
X162661000Y-87887732D01*
X162569848Y-87855837D01*
X162400000Y-87836700D01*
X162230153Y-87855837D01*
X162230150Y-87855837D01*
X162230150Y-87855838D01*
X162068817Y-87912291D01*
X162068815Y-87912291D01*
X162068815Y-87912292D01*
X161924091Y-88003229D01*
X161905849Y-88021471D01*
X161848465Y-88054030D01*
X161782505Y-88052549D01*
X161726641Y-88017446D01*
X161696689Y-87958660D01*
X161701128Y-87892833D01*
X161701545Y-87891643D01*
X161744162Y-87769850D01*
X161763299Y-87600000D01*
X161744162Y-87430150D01*
X161687709Y-87268817D01*
X161596771Y-87124091D01*
X161475909Y-87003229D01*
X161331183Y-86912291D01*
X161169850Y-86855838D01*
X161169848Y-86855837D01*
X161169846Y-86855837D01*
X161000000Y-86836700D01*
X160830153Y-86855837D01*
X160830150Y-86855837D01*
X160830150Y-86855838D01*
X160668817Y-86912291D01*
X160668815Y-86912291D01*
X160668815Y-86912292D01*
X160524089Y-87003230D01*
X160403230Y-87124089D01*
X160316903Y-87261476D01*
X160312291Y-87268817D01*
X160273464Y-87379779D01*
X160255837Y-87430153D01*
X160236700Y-87599999D01*
X157018105Y-87599999D01*
X156939042Y-87463058D01*
X156909411Y-87430150D01*
X156811253Y-87321134D01*
X156656752Y-87208882D01*
X156656751Y-87208881D01*
X156482285Y-87131204D01*
X156295489Y-87091500D01*
X156295487Y-87091500D01*
X156104513Y-87091500D01*
X156104511Y-87091500D01*
X155917714Y-87131204D01*
X155743248Y-87208881D01*
X155588748Y-87321133D01*
X155460957Y-87463058D01*
X155365472Y-87628443D01*
X155306458Y-87810070D01*
X155286586Y-87999147D01*
X155286496Y-88000000D01*
X144360370Y-88000000D01*
X144339042Y-87963058D01*
X144285172Y-87903230D01*
X144211253Y-87821134D01*
X144086906Y-87730790D01*
X144044587Y-87676337D01*
X144037903Y-87607696D01*
X144068923Y-87546100D01*
X144128051Y-87510604D01*
X144284664Y-87469135D01*
X144294608Y-87466936D01*
X144304497Y-87465175D01*
X144320596Y-87459854D01*
X144327736Y-87457730D01*
X144344158Y-87453383D01*
X144353412Y-87449451D01*
X144362960Y-87445853D01*
X144886514Y-87272834D01*
X144896099Y-87270090D01*
X144906396Y-87267588D01*
X144921648Y-87261474D01*
X144928852Y-87258842D01*
X144944464Y-87253684D01*
X144953922Y-87248974D01*
X144963045Y-87244882D01*
X145468418Y-87042330D01*
X145477847Y-87038987D01*
X145487912Y-87035871D01*
X145502772Y-87028817D01*
X145509812Y-87025740D01*
X145514260Y-87023957D01*
X145525093Y-87019616D01*
X145534223Y-87014339D01*
X145543086Y-87009686D01*
X146029830Y-86778684D01*
X146039252Y-86774681D01*
X146048571Y-86771171D01*
X146063506Y-86762949D01*
X146070125Y-86759561D01*
X146085531Y-86752251D01*
X146093825Y-86746745D01*
X146102565Y-86741451D01*
X146570780Y-86483747D01*
X146580343Y-86479010D01*
X146588440Y-86475426D01*
X146603844Y-86465774D01*
X146609858Y-86462239D01*
X146625755Y-86453491D01*
X146632824Y-86448160D01*
X146641596Y-86442123D01*
X147091805Y-86160074D01*
X147101638Y-86154522D01*
X147108149Y-86151228D01*
X147124248Y-86139944D01*
X147129583Y-86136408D01*
X147146271Y-86125953D01*
X147146270Y-86125953D01*
X147146276Y-86125950D01*
X147151865Y-86121217D01*
X147160813Y-86114318D01*
X147593933Y-85810777D01*
X147604118Y-85804353D01*
X147608853Y-85801680D01*
X147625917Y-85788519D01*
X147630469Y-85785172D01*
X147648129Y-85772797D01*
X147652098Y-85769067D01*
X147661244Y-85761278D01*
X148078764Y-85439314D01*
X148089352Y-85431995D01*
X148092161Y-85430263D01*
X148110360Y-85415067D01*
X148114061Y-85412097D01*
X148132842Y-85397615D01*
X148135142Y-85395247D01*
X148144582Y-85386492D01*
X148248171Y-85299999D01*
X157736700Y-85299999D01*
X157755837Y-85469846D01*
X157755837Y-85469848D01*
X157755838Y-85469850D01*
X157812291Y-85631183D01*
X157903229Y-85775909D01*
X158024091Y-85896771D01*
X158168817Y-85987709D01*
X158330150Y-86044162D01*
X158500000Y-86063299D01*
X158669850Y-86044162D01*
X158831183Y-85987709D01*
X158975909Y-85896771D01*
X159096771Y-85775909D01*
X159140035Y-85707055D01*
X159189561Y-85662126D01*
X159255219Y-85649449D01*
X159317913Y-85672711D01*
X159343248Y-85691118D01*
X159517714Y-85768795D01*
X159704511Y-85808500D01*
X159704513Y-85808500D01*
X159895487Y-85808500D01*
X159895489Y-85808500D01*
X160082285Y-85768795D01*
X160082286Y-85768794D01*
X160082288Y-85768794D01*
X160256752Y-85691118D01*
X160411253Y-85578866D01*
X160539040Y-85436944D01*
X160539943Y-85435381D01*
X160634527Y-85271556D01*
X160654891Y-85208882D01*
X160693542Y-85089928D01*
X160713504Y-84900000D01*
X160693542Y-84710072D01*
X160634527Y-84528444D01*
X160634527Y-84528443D01*
X160539042Y-84363058D01*
X160478161Y-84295443D01*
X160411253Y-84221134D01*
X160314901Y-84151129D01*
X160256751Y-84108881D01*
X160082285Y-84031204D01*
X159895489Y-83991500D01*
X159895487Y-83991500D01*
X159704513Y-83991500D01*
X159704511Y-83991500D01*
X159517714Y-84031204D01*
X159343248Y-84108881D01*
X159188748Y-84221133D01*
X159060957Y-84363058D01*
X158958957Y-84539730D01*
X158957575Y-84538932D01*
X158930835Y-84579769D01*
X158872519Y-84608661D01*
X158807604Y-84604040D01*
X158669847Y-84555837D01*
X158500000Y-84536700D01*
X158330153Y-84555837D01*
X158330150Y-84555837D01*
X158330150Y-84555838D01*
X158168817Y-84612291D01*
X158168815Y-84612291D01*
X158168815Y-84612292D01*
X158024089Y-84703230D01*
X157903230Y-84824089D01*
X157840395Y-84924089D01*
X157812291Y-84968817D01*
X157769912Y-85089928D01*
X157755837Y-85130153D01*
X157736700Y-85299999D01*
X148248171Y-85299999D01*
X148548161Y-85049518D01*
X148559214Y-85041290D01*
X148560046Y-85040741D01*
X148579471Y-85023454D01*
X148582405Y-85020926D01*
X148602338Y-85004285D01*
X148602997Y-85003552D01*
X148612796Y-84993801D01*
X149004330Y-84645403D01*
X149014018Y-84637766D01*
X149014753Y-84637079D01*
X149014757Y-84637077D01*
X149035516Y-84617699D01*
X149037687Y-84615721D01*
X149058868Y-84596875D01*
X149058873Y-84596868D01*
X149059619Y-84596205D01*
X149068118Y-84587268D01*
X149449715Y-84231086D01*
X149456483Y-84225530D01*
X149458714Y-84223379D01*
X149458722Y-84223374D01*
X149480978Y-84201924D01*
X149482243Y-84200724D01*
X149504881Y-84179596D01*
X149504887Y-84179587D01*
X149507148Y-84177478D01*
X149513058Y-84171010D01*
X149690514Y-84000000D01*
X156436700Y-84000000D01*
X156455837Y-84169846D01*
X156455837Y-84169848D01*
X156455838Y-84169850D01*
X156512291Y-84331183D01*
X156603229Y-84475909D01*
X156724091Y-84596771D01*
X156868817Y-84687709D01*
X157030150Y-84744162D01*
X157200000Y-84763299D01*
X157369850Y-84744162D01*
X157531183Y-84687709D01*
X157675909Y-84596771D01*
X157796771Y-84475909D01*
X157887709Y-84331183D01*
X157944162Y-84169850D01*
X157963299Y-84000000D01*
X157944162Y-83830150D01*
X157933612Y-83800000D01*
X161486496Y-83800000D01*
X161506458Y-83989929D01*
X161565472Y-84171556D01*
X161660957Y-84336941D01*
X161660960Y-84336944D01*
X161788747Y-84478866D01*
X161927628Y-84579769D01*
X161943248Y-84591118D01*
X162117714Y-84668795D01*
X162304511Y-84708500D01*
X162419458Y-84708500D01*
X162475753Y-84722015D01*
X162519776Y-84759615D01*
X162541931Y-84813102D01*
X162537389Y-84870818D01*
X162507139Y-84920181D01*
X162503230Y-84924089D01*
X162436921Y-85029618D01*
X162412291Y-85068817D01*
X162390830Y-85130150D01*
X162355837Y-85230153D01*
X162336700Y-85399999D01*
X162355837Y-85569846D01*
X162355837Y-85569848D01*
X162355838Y-85569850D01*
X162412291Y-85731183D01*
X162503229Y-85875909D01*
X162624091Y-85996771D01*
X162768817Y-86087709D01*
X162930150Y-86144162D01*
X163100000Y-86163299D01*
X163269850Y-86144162D01*
X163431183Y-86087709D01*
X163575909Y-85996771D01*
X163696771Y-85875909D01*
X163787709Y-85731183D01*
X163790047Y-85724500D01*
X166536700Y-85724500D01*
X166555837Y-85894346D01*
X166555837Y-85894348D01*
X166555838Y-85894350D01*
X166612291Y-86055683D01*
X166703229Y-86200409D01*
X166824091Y-86321271D01*
X166968817Y-86412209D01*
X167130150Y-86468662D01*
X167221914Y-86479001D01*
X167299999Y-86487799D01*
X167299999Y-86487798D01*
X167300000Y-86487799D01*
X167381663Y-86478598D01*
X167458517Y-86469939D01*
X167519854Y-86478598D01*
X167569348Y-86515846D01*
X167594649Y-86572388D01*
X167589443Y-86634113D01*
X167555837Y-86730152D01*
X167536700Y-86900000D01*
X167555837Y-87069846D01*
X167555837Y-87069848D01*
X167555838Y-87069850D01*
X167612291Y-87231183D01*
X167703229Y-87375909D01*
X167824091Y-87496771D01*
X167968817Y-87587709D01*
X168092818Y-87631098D01*
X168139541Y-87660458D01*
X168168901Y-87707184D01*
X168212289Y-87831180D01*
X168215758Y-87836701D01*
X168303229Y-87975909D01*
X168424091Y-88096771D01*
X168568817Y-88187709D01*
X168730150Y-88244162D01*
X168900000Y-88263299D01*
X169069850Y-88244162D01*
X169231183Y-88187709D01*
X169375909Y-88096771D01*
X169496771Y-87975909D01*
X169498459Y-87973223D01*
X173857638Y-87973223D01*
X173860505Y-88000500D01*
X173877600Y-88163152D01*
X173936614Y-88344779D01*
X174032099Y-88510164D01*
X174034019Y-88512296D01*
X174159889Y-88652089D01*
X174252196Y-88719154D01*
X174314390Y-88764341D01*
X174488856Y-88842018D01*
X174675653Y-88881723D01*
X174675655Y-88881723D01*
X174866629Y-88881723D01*
X174866631Y-88881723D01*
X175053427Y-88842018D01*
X175053428Y-88842017D01*
X175053430Y-88842017D01*
X175227894Y-88764341D01*
X175382395Y-88652089D01*
X175510182Y-88510167D01*
X175510925Y-88508881D01*
X175605669Y-88344779D01*
X175627812Y-88276630D01*
X175664684Y-88163151D01*
X175684646Y-87973223D01*
X175664684Y-87783295D01*
X175619477Y-87644162D01*
X175605669Y-87601666D01*
X175510184Y-87436281D01*
X175459309Y-87379779D01*
X175382395Y-87294357D01*
X175227894Y-87182105D01*
X175227893Y-87182104D01*
X175053427Y-87104427D01*
X174866631Y-87064723D01*
X174866629Y-87064723D01*
X174675655Y-87064723D01*
X174675653Y-87064723D01*
X174488856Y-87104427D01*
X174314390Y-87182104D01*
X174159890Y-87294356D01*
X174032099Y-87436281D01*
X173936614Y-87601666D01*
X173877600Y-87783293D01*
X173858193Y-87967943D01*
X173857638Y-87973223D01*
X169498459Y-87973223D01*
X169587709Y-87831183D01*
X169644162Y-87669850D01*
X169663299Y-87500000D01*
X169644162Y-87330150D01*
X169587709Y-87168817D01*
X169496771Y-87024091D01*
X169405573Y-86932893D01*
X169376919Y-86888131D01*
X169369637Y-86835484D01*
X169385066Y-86784623D01*
X169420363Y-86744901D01*
X169511253Y-86678866D01*
X169639040Y-86536944D01*
X169644142Y-86528108D01*
X169734527Y-86371556D01*
X169775561Y-86245266D01*
X169793542Y-86189928D01*
X169813504Y-86000000D01*
X169793542Y-85810072D01*
X169741352Y-85649449D01*
X169734527Y-85628443D01*
X169639042Y-85463058D01*
X169609513Y-85430263D01*
X169511253Y-85321134D01*
X169356752Y-85208882D01*
X169356751Y-85208881D01*
X169182285Y-85131204D01*
X168995489Y-85091500D01*
X168995487Y-85091500D01*
X168804513Y-85091500D01*
X168804511Y-85091500D01*
X168617714Y-85131204D01*
X168443248Y-85208881D01*
X168388596Y-85248589D01*
X168288747Y-85321134D01*
X168288745Y-85321135D01*
X168288745Y-85321136D01*
X168193826Y-85426553D01*
X168140653Y-85461295D01*
X168077253Y-85465151D01*
X168020262Y-85437108D01*
X167997570Y-85403620D01*
X167995142Y-85405147D01*
X167987709Y-85393317D01*
X167896771Y-85248591D01*
X167775909Y-85127729D01*
X167631183Y-85036791D01*
X167469850Y-84980338D01*
X167469848Y-84980337D01*
X167469846Y-84980337D01*
X167300000Y-84961200D01*
X167130153Y-84980337D01*
X167130150Y-84980337D01*
X167130150Y-84980338D01*
X166968817Y-85036791D01*
X166968815Y-85036791D01*
X166968815Y-85036792D01*
X166824089Y-85127730D01*
X166703230Y-85248589D01*
X166613985Y-85390620D01*
X166612291Y-85393317D01*
X166587888Y-85463056D01*
X166555837Y-85554653D01*
X166536700Y-85724500D01*
X163790047Y-85724500D01*
X163844162Y-85569850D01*
X163863299Y-85400000D01*
X163862763Y-85395247D01*
X163853774Y-85315461D01*
X163844162Y-85230150D01*
X163787709Y-85068817D01*
X163696771Y-84924091D01*
X163692861Y-84920181D01*
X163662611Y-84870818D01*
X163658069Y-84813102D01*
X163680224Y-84759615D01*
X163724247Y-84722015D01*
X163780542Y-84708500D01*
X163795489Y-84708500D01*
X163982285Y-84668795D01*
X163982286Y-84668794D01*
X163982288Y-84668794D01*
X164156752Y-84591118D01*
X164311253Y-84478866D01*
X164439040Y-84336944D01*
X164451598Y-84315194D01*
X164534527Y-84171556D01*
X164554891Y-84108882D01*
X164593542Y-83989928D01*
X164613504Y-83800000D01*
X164593542Y-83610072D01*
X164552473Y-83483675D01*
X164877733Y-83483675D01*
X164897695Y-83673604D01*
X164956709Y-83855231D01*
X165052194Y-84020616D01*
X165077255Y-84048449D01*
X165179984Y-84162541D01*
X165334482Y-84274791D01*
X165334485Y-84274793D01*
X165508951Y-84352470D01*
X165695748Y-84392175D01*
X165695750Y-84392175D01*
X165886724Y-84392175D01*
X165886726Y-84392175D01*
X166073522Y-84352470D01*
X166073523Y-84352469D01*
X166073525Y-84352469D01*
X166247989Y-84274793D01*
X166290149Y-84244162D01*
X166331779Y-84213916D01*
X166396015Y-84190535D01*
X166462879Y-84204747D01*
X166512052Y-84252233D01*
X166560957Y-84336941D01*
X166560960Y-84336944D01*
X166688747Y-84478866D01*
X166827628Y-84579769D01*
X166843248Y-84591118D01*
X167017714Y-84668795D01*
X167204511Y-84708500D01*
X167204513Y-84708500D01*
X167395487Y-84708500D01*
X167395489Y-84708500D01*
X167582285Y-84668795D01*
X167582286Y-84668794D01*
X167582288Y-84668794D01*
X167756752Y-84591118D01*
X167762058Y-84587263D01*
X167827114Y-84539997D01*
X167874219Y-84519024D01*
X167925781Y-84519024D01*
X167972886Y-84539997D01*
X168043244Y-84591116D01*
X168043247Y-84591117D01*
X168043248Y-84591118D01*
X168102982Y-84617713D01*
X168217714Y-84668795D01*
X168404511Y-84708500D01*
X168404513Y-84708500D01*
X168595487Y-84708500D01*
X168595489Y-84708500D01*
X168782285Y-84668795D01*
X168782286Y-84668794D01*
X168782288Y-84668794D01*
X168956752Y-84591118D01*
X169111253Y-84478866D01*
X169239040Y-84336944D01*
X169251598Y-84315194D01*
X169334527Y-84171556D01*
X169354891Y-84108882D01*
X169393542Y-83989928D01*
X169413504Y-83800000D01*
X169393542Y-83610072D01*
X169357777Y-83499999D01*
X170136700Y-83499999D01*
X170155837Y-83669846D01*
X170155837Y-83669848D01*
X170155838Y-83669850D01*
X170212291Y-83831183D01*
X170303229Y-83975909D01*
X170424091Y-84096771D01*
X170568817Y-84187709D01*
X170730150Y-84244162D01*
X170900000Y-84263299D01*
X171069850Y-84244162D01*
X171231183Y-84187709D01*
X171375909Y-84096771D01*
X171462319Y-84010361D01*
X171517906Y-83978267D01*
X171582094Y-83978267D01*
X171637681Y-84010361D01*
X171724091Y-84096771D01*
X171868817Y-84187709D01*
X172030150Y-84244162D01*
X172200000Y-84263299D01*
X172369850Y-84244162D01*
X172531183Y-84187709D01*
X172675909Y-84096771D01*
X172796771Y-83975909D01*
X172887709Y-83831183D01*
X172944162Y-83669850D01*
X172963299Y-83500000D01*
X172944162Y-83330150D01*
X172887709Y-83168817D01*
X172796771Y-83024091D01*
X172675909Y-82903229D01*
X172531183Y-82812291D01*
X172369850Y-82755838D01*
X172369848Y-82755837D01*
X172369846Y-82755837D01*
X172200000Y-82736700D01*
X172030153Y-82755837D01*
X172030150Y-82755837D01*
X172030150Y-82755838D01*
X171868817Y-82812291D01*
X171868815Y-82812291D01*
X171868815Y-82812292D01*
X171724089Y-82903230D01*
X171637681Y-82989639D01*
X171582094Y-83021733D01*
X171517906Y-83021733D01*
X171462319Y-82989639D01*
X171375910Y-82903230D01*
X171375909Y-82903229D01*
X171231183Y-82812291D01*
X171069850Y-82755838D01*
X171069848Y-82755837D01*
X171069846Y-82755837D01*
X170900000Y-82736700D01*
X170730153Y-82755837D01*
X170730150Y-82755837D01*
X170730150Y-82755838D01*
X170568817Y-82812291D01*
X170568815Y-82812291D01*
X170568815Y-82812292D01*
X170424089Y-82903230D01*
X170303230Y-83024089D01*
X170234853Y-83132909D01*
X170212291Y-83168817D01*
X170161116Y-83315067D01*
X170155837Y-83330153D01*
X170136700Y-83499999D01*
X169357777Y-83499999D01*
X169334527Y-83428444D01*
X169334527Y-83428443D01*
X169239042Y-83263058D01*
X169213137Y-83234288D01*
X169111253Y-83121134D01*
X168987802Y-83031441D01*
X168956751Y-83008881D01*
X168782285Y-82931204D01*
X168595489Y-82891500D01*
X168595487Y-82891500D01*
X168404513Y-82891500D01*
X168404511Y-82891500D01*
X168217714Y-82931204D01*
X168043246Y-83008882D01*
X167972883Y-83060004D01*
X167925779Y-83080975D01*
X167874217Y-83080975D01*
X167827115Y-83060003D01*
X167756752Y-83008882D01*
X167739678Y-83001280D01*
X167582285Y-82931204D01*
X167395489Y-82891500D01*
X167395487Y-82891500D01*
X167204513Y-82891500D01*
X167204511Y-82891500D01*
X167017714Y-82931204D01*
X166843248Y-83008881D01*
X166759458Y-83069759D01*
X166695222Y-83093139D01*
X166628358Y-83078927D01*
X166579185Y-83031441D01*
X166530279Y-82946733D01*
X166504381Y-82917971D01*
X166402490Y-82804809D01*
X166247989Y-82692557D01*
X166247988Y-82692556D01*
X166073522Y-82614879D01*
X165886726Y-82575175D01*
X165886724Y-82575175D01*
X165695750Y-82575175D01*
X165695748Y-82575175D01*
X165508951Y-82614879D01*
X165334485Y-82692556D01*
X165179985Y-82804808D01*
X165052194Y-82946733D01*
X164956709Y-83112118D01*
X164897695Y-83293745D01*
X164877733Y-83483675D01*
X164552473Y-83483675D01*
X164534527Y-83428444D01*
X164534527Y-83428443D01*
X164439042Y-83263058D01*
X164413137Y-83234288D01*
X164311253Y-83121134D01*
X164187802Y-83031441D01*
X164156751Y-83008881D01*
X163982285Y-82931204D01*
X163795489Y-82891500D01*
X163795487Y-82891500D01*
X163604513Y-82891500D01*
X163604511Y-82891500D01*
X163417714Y-82931204D01*
X163243245Y-83008882D01*
X163122885Y-83096330D01*
X163075781Y-83117302D01*
X163024219Y-83117302D01*
X162977115Y-83096330D01*
X162856754Y-83008882D01*
X162682285Y-82931204D01*
X162495489Y-82891500D01*
X162495487Y-82891500D01*
X162304513Y-82891500D01*
X162304511Y-82891500D01*
X162117714Y-82931204D01*
X161943248Y-83008881D01*
X161788748Y-83121133D01*
X161660957Y-83263058D01*
X161565472Y-83428443D01*
X161506458Y-83610070D01*
X161486496Y-83800000D01*
X157933612Y-83800000D01*
X157887709Y-83668817D01*
X157796771Y-83524091D01*
X157675909Y-83403229D01*
X157531183Y-83312291D01*
X157369850Y-83255838D01*
X157369848Y-83255837D01*
X157369846Y-83255837D01*
X157200000Y-83236700D01*
X157030153Y-83255837D01*
X157030150Y-83255837D01*
X157030150Y-83255838D01*
X156868817Y-83312291D01*
X156868815Y-83312291D01*
X156868815Y-83312292D01*
X156724089Y-83403230D01*
X156603230Y-83524089D01*
X156603228Y-83524091D01*
X156603229Y-83524091D01*
X156512291Y-83668817D01*
X156510616Y-83673604D01*
X156455837Y-83830153D01*
X156436700Y-84000000D01*
X149690514Y-84000000D01*
X149886818Y-83810826D01*
X149890392Y-83807820D01*
X149894469Y-83803827D01*
X149894474Y-83803824D01*
X149918297Y-83780494D01*
X149918818Y-83779988D01*
X149942963Y-83756722D01*
X149942967Y-83756715D01*
X149947076Y-83752757D01*
X149950189Y-83749265D01*
X150375747Y-83332560D01*
X150375747Y-83332559D01*
X150778565Y-82938116D01*
X150779243Y-82937459D01*
X150785734Y-82931204D01*
X151206633Y-82525592D01*
X151207914Y-82524377D01*
X151234030Y-82500000D01*
X153086496Y-82500000D01*
X153089444Y-82528050D01*
X153106458Y-82689929D01*
X153165472Y-82871556D01*
X153260957Y-83036941D01*
X153272685Y-83049966D01*
X153388747Y-83178866D01*
X153504624Y-83263056D01*
X153543248Y-83291118D01*
X153717714Y-83368795D01*
X153904511Y-83408500D01*
X153904513Y-83408500D01*
X154095487Y-83408500D01*
X154095489Y-83408500D01*
X154282285Y-83368795D01*
X154282286Y-83368794D01*
X154282288Y-83368794D01*
X154456752Y-83291118D01*
X154611253Y-83178866D01*
X154739040Y-83036944D01*
X154751635Y-83015130D01*
X154834527Y-82871556D01*
X154853783Y-82812292D01*
X154893542Y-82689928D01*
X154913504Y-82500000D01*
X154893542Y-82310072D01*
X154856149Y-82194988D01*
X154834527Y-82128443D01*
X154739042Y-81963058D01*
X154711569Y-81932546D01*
X154611253Y-81821134D01*
X154494221Y-81736105D01*
X154456751Y-81708881D01*
X154282285Y-81631204D01*
X154095489Y-81591500D01*
X154095487Y-81591500D01*
X153904513Y-81591500D01*
X153904511Y-81591500D01*
X153717714Y-81631204D01*
X153543248Y-81708881D01*
X153388748Y-81821133D01*
X153260957Y-81963058D01*
X153165472Y-82128443D01*
X153106458Y-82310070D01*
X153093161Y-82436587D01*
X153086496Y-82500000D01*
X151234030Y-82500000D01*
X151636745Y-82124107D01*
X151638774Y-82122257D01*
X152071355Y-81737334D01*
X152074198Y-81734885D01*
X152512646Y-81368799D01*
X152516336Y-81365837D01*
X152731393Y-81199999D01*
X159686496Y-81199999D01*
X159706458Y-81389929D01*
X159765472Y-81571556D01*
X159860957Y-81736941D01*
X159860960Y-81736944D01*
X159988747Y-81878866D01*
X160105907Y-81963988D01*
X160143248Y-81991118D01*
X160317714Y-82068795D01*
X160504511Y-82108500D01*
X160504513Y-82108500D01*
X160695487Y-82108500D01*
X160695489Y-82108500D01*
X160882285Y-82068795D01*
X160882286Y-82068794D01*
X160882288Y-82068794D01*
X161056752Y-81991118D01*
X161211253Y-81878866D01*
X161339040Y-81736944D01*
X161339525Y-81736105D01*
X161390024Y-81648638D01*
X166141500Y-81648638D01*
X166144755Y-81678919D01*
X166148011Y-81709205D01*
X166199110Y-81846203D01*
X166286738Y-81963261D01*
X166403796Y-82050889D01*
X166540794Y-82101988D01*
X166540797Y-82101988D01*
X166540799Y-82101989D01*
X166601362Y-82108500D01*
X167698634Y-82108500D01*
X167698638Y-82108500D01*
X167759201Y-82101989D01*
X167896204Y-82050889D01*
X167901097Y-82047225D01*
X167966010Y-82022847D01*
X168020044Y-82034223D01*
X168020508Y-82032695D01*
X168032193Y-82036239D01*
X168032196Y-82036241D01*
X168222299Y-82093908D01*
X168420000Y-82113380D01*
X168617701Y-82093908D01*
X168807804Y-82036241D01*
X168983004Y-81942595D01*
X168983003Y-81942595D01*
X168993775Y-81936838D01*
X168994887Y-81938919D01*
X169026842Y-81923160D01*
X169083158Y-81923160D01*
X169115112Y-81938919D01*
X169116225Y-81936838D01*
X169126996Y-81942595D01*
X169302196Y-82036241D01*
X169492299Y-82093908D01*
X169690000Y-82113380D01*
X169887701Y-82093908D01*
X170077804Y-82036241D01*
X170253004Y-81942595D01*
X170253003Y-81942595D01*
X170263775Y-81936838D01*
X170264887Y-81938919D01*
X170296842Y-81923160D01*
X170353158Y-81923160D01*
X170385112Y-81938919D01*
X170386225Y-81936838D01*
X170396996Y-81942595D01*
X170572196Y-82036241D01*
X170762299Y-82093908D01*
X170960000Y-82113380D01*
X171157701Y-82093908D01*
X171347804Y-82036241D01*
X171523004Y-81942595D01*
X171523003Y-81942595D01*
X171533775Y-81936838D01*
X171534887Y-81938919D01*
X171566842Y-81923160D01*
X171623158Y-81923160D01*
X171655112Y-81938919D01*
X171656225Y-81936838D01*
X171666996Y-81942595D01*
X171842196Y-82036241D01*
X172032299Y-82093908D01*
X172230000Y-82113380D01*
X172427701Y-82093908D01*
X172617804Y-82036241D01*
X172793004Y-81942595D01*
X172946568Y-81816568D01*
X173072595Y-81663004D01*
X173159723Y-81499999D01*
X182586496Y-81499999D01*
X182606458Y-81689929D01*
X182665472Y-81871556D01*
X182760957Y-82036941D01*
X182760960Y-82036944D01*
X182888747Y-82178866D01*
X183043248Y-82291118D01*
X183217714Y-82368795D01*
X183404511Y-82408500D01*
X183404513Y-82408500D01*
X183595487Y-82408500D01*
X183595489Y-82408500D01*
X183782285Y-82368795D01*
X183782286Y-82368794D01*
X183782288Y-82368794D01*
X183956752Y-82291118D01*
X184111253Y-82178866D01*
X184239040Y-82036944D01*
X184239607Y-82035963D01*
X184334527Y-81871556D01*
X184350910Y-81821134D01*
X184393542Y-81689928D01*
X184413504Y-81500000D01*
X184393542Y-81310072D01*
X184334527Y-81128444D01*
X184334527Y-81128443D01*
X184239042Y-80963058D01*
X184184334Y-80902299D01*
X184111253Y-80821134D01*
X183975106Y-80722217D01*
X183956751Y-80708881D01*
X183782285Y-80631204D01*
X183595489Y-80591500D01*
X183595487Y-80591500D01*
X183404513Y-80591500D01*
X183404511Y-80591500D01*
X183217714Y-80631204D01*
X183043248Y-80708881D01*
X182888748Y-80821133D01*
X182760957Y-80963058D01*
X182665472Y-81128443D01*
X182606458Y-81310070D01*
X182586496Y-81499999D01*
X173159723Y-81499999D01*
X173166241Y-81487804D01*
X173223908Y-81297701D01*
X173243380Y-81100000D01*
X173223908Y-80902299D01*
X173166241Y-80712196D01*
X173072595Y-80536996D01*
X172946568Y-80383432D01*
X172793004Y-80257405D01*
X172793003Y-80257404D01*
X172671923Y-80192686D01*
X172617804Y-80163759D01*
X172427701Y-80106092D01*
X172427698Y-80106091D01*
X172230000Y-80086620D01*
X172032301Y-80106091D01*
X171976383Y-80123054D01*
X171842196Y-80163759D01*
X171842192Y-80163760D01*
X171842192Y-80163761D01*
X171656225Y-80263162D01*
X171655113Y-80261083D01*
X171623149Y-80276841D01*
X171566851Y-80276841D01*
X171534886Y-80261083D01*
X171533775Y-80263162D01*
X171412463Y-80198320D01*
X171347804Y-80163759D01*
X171157701Y-80106092D01*
X171157698Y-80106091D01*
X170960000Y-80086620D01*
X170762301Y-80106091D01*
X170706383Y-80123054D01*
X170572196Y-80163759D01*
X170572192Y-80163760D01*
X170572192Y-80163761D01*
X170386225Y-80263162D01*
X170385113Y-80261083D01*
X170353149Y-80276841D01*
X170296851Y-80276841D01*
X170264886Y-80261083D01*
X170263775Y-80263162D01*
X170142463Y-80198320D01*
X170077804Y-80163759D01*
X169887701Y-80106092D01*
X169887698Y-80106091D01*
X169690000Y-80086620D01*
X169492301Y-80106091D01*
X169436383Y-80123054D01*
X169302196Y-80163759D01*
X169302192Y-80163760D01*
X169302192Y-80163761D01*
X169116225Y-80263162D01*
X169115113Y-80261083D01*
X169083149Y-80276841D01*
X169026851Y-80276841D01*
X168994886Y-80261083D01*
X168993775Y-80263162D01*
X168872463Y-80198320D01*
X168807804Y-80163759D01*
X168617701Y-80106092D01*
X168617698Y-80106091D01*
X168420000Y-80086620D01*
X168222300Y-80106091D01*
X168020509Y-80167304D01*
X168020045Y-80165776D01*
X167966011Y-80177152D01*
X167901100Y-80152776D01*
X167896203Y-80149110D01*
X167759205Y-80098011D01*
X167728919Y-80094755D01*
X167698638Y-80091500D01*
X166601362Y-80091500D01*
X166574445Y-80094393D01*
X166540794Y-80098011D01*
X166403796Y-80149110D01*
X166286738Y-80236738D01*
X166199110Y-80353796D01*
X166148011Y-80490794D01*
X166144750Y-80521133D01*
X166141500Y-80551362D01*
X166141500Y-81648638D01*
X161390024Y-81648638D01*
X161434527Y-81571556D01*
X161457919Y-81499563D01*
X161493542Y-81389928D01*
X161513504Y-81200000D01*
X161493542Y-81010072D01*
X161434527Y-80828444D01*
X161434527Y-80828443D01*
X161339042Y-80663058D01*
X161290709Y-80609379D01*
X161211253Y-80521134D01*
X161056752Y-80408882D01*
X161056751Y-80408881D01*
X160882285Y-80331204D01*
X160695489Y-80291500D01*
X160695487Y-80291500D01*
X160504513Y-80291500D01*
X160504511Y-80291500D01*
X160317714Y-80331204D01*
X160143248Y-80408881D01*
X159988748Y-80521133D01*
X159860957Y-80663058D01*
X159765472Y-80828443D01*
X159706458Y-81010070D01*
X159686496Y-81199999D01*
X152731393Y-81199999D01*
X152962806Y-81021549D01*
X152967338Y-81018216D01*
X153423829Y-80698296D01*
X153429123Y-80694786D01*
X153897703Y-80401227D01*
X153903729Y-80397685D01*
X154386307Y-80132076D01*
X154392921Y-80128692D01*
X154891470Y-79892089D01*
X154898488Y-79889020D01*
X155414824Y-79682073D01*
X155422001Y-79679452D01*
X155957745Y-79502404D01*
X155964845Y-79500293D01*
X156521256Y-79352961D01*
X156528065Y-79351364D01*
X157105835Y-79233094D01*
X157112156Y-79231970D01*
X157711365Y-79141495D01*
X157716925Y-79140785D01*
X158337065Y-79076084D01*
X158341743Y-79075688D01*
X158981302Y-79033880D01*
X158985079Y-79033692D01*
X159642080Y-79010852D01*
X159644664Y-79010789D01*
X160316537Y-79001855D01*
X160317706Y-79001845D01*
X161000291Y-79000500D01*
X180999542Y-79000500D01*
X181644572Y-79001057D01*
G37*
%TD.AperFunction*%
%TD*%
M02*
