%TF.GenerationSoftware,KiCad,Pcbnew,7.0.1*%
%TF.CreationDate,2023-09-05T02:32:18-04:00*%
%TF.ProjectId,Fluxpad,466c7578-7061-4642-9e6b-696361645f70,rev?*%
%TF.SameCoordinates,Original*%
%TF.FileFunction,Soldermask,Bot*%
%TF.FilePolarity,Negative*%
%FSLAX46Y46*%
G04 Gerber Fmt 4.6, Leading zero omitted, Abs format (unit mm)*
G04 Created by KiCad (PCBNEW 7.0.1) date 2023-09-05 02:32:18*
%MOMM*%
%LPD*%
G01*
G04 APERTURE LIST*
G04 Aperture macros list*
%AMRoundRect*
0 Rectangle with rounded corners*
0 $1 Rounding radius*
0 $2 $3 $4 $5 $6 $7 $8 $9 X,Y pos of 4 corners*
0 Add a 4 corners polygon primitive as box body*
4,1,4,$2,$3,$4,$5,$6,$7,$8,$9,$2,$3,0*
0 Add four circle primitives for the rounded corners*
1,1,$1+$1,$2,$3*
1,1,$1+$1,$4,$5*
1,1,$1+$1,$6,$7*
1,1,$1+$1,$8,$9*
0 Add four rect primitives between the rounded corners*
20,1,$1+$1,$2,$3,$4,$5,0*
20,1,$1+$1,$4,$5,$6,$7,0*
20,1,$1+$1,$6,$7,$8,$9,0*
20,1,$1+$1,$8,$9,$2,$3,0*%
%AMRotRect*
0 Rectangle, with rotation*
0 The origin of the aperture is its center*
0 $1 length*
0 $2 width*
0 $3 Rotation angle, in degrees counterclockwise*
0 Add horizontal line*
21,1,$1,$2,0,0,$3*%
G04 Aperture macros list end*
%ADD10C,2.200000*%
%ADD11C,1.300000*%
%ADD12R,2.000000X2.000000*%
%ADD13C,2.000000*%
%ADD14C,2.800000*%
%ADD15C,1.750000*%
%ADD16C,4.000000*%
%ADD17RoundRect,0.150000X0.350000X0.225000X-0.350000X0.225000X-0.350000X-0.225000X0.350000X-0.225000X0*%
%ADD18RoundRect,0.200000X-0.200000X-0.275000X0.200000X-0.275000X0.200000X0.275000X-0.200000X0.275000X0*%
%ADD19RoundRect,0.135000X0.135000X0.185000X-0.135000X0.185000X-0.135000X-0.185000X0.135000X-0.185000X0*%
%ADD20RoundRect,0.140000X0.170000X-0.140000X0.170000X0.140000X-0.170000X0.140000X-0.170000X-0.140000X0*%
%ADD21RoundRect,0.140000X0.219203X0.021213X0.021213X0.219203X-0.219203X-0.021213X-0.021213X-0.219203X0*%
%ADD22RoundRect,0.225000X0.250000X-0.225000X0.250000X0.225000X-0.250000X0.225000X-0.250000X-0.225000X0*%
%ADD23C,0.650000*%
%ADD24R,0.600000X1.450000*%
%ADD25R,0.300000X1.450000*%
%ADD26O,1.000000X1.600000*%
%ADD27O,1.000000X2.100000*%
%ADD28RoundRect,0.140000X-0.170000X0.140000X-0.170000X-0.140000X0.170000X-0.140000X0.170000X0.140000X0*%
%ADD29O,2.100000X3.400000*%
%ADD30R,1.550000X1.600000*%
%ADD31RoundRect,0.050000X-0.050000X0.387500X-0.050000X-0.387500X0.050000X-0.387500X0.050000X0.387500X0*%
%ADD32RoundRect,0.050000X-0.387500X0.050000X-0.387500X-0.050000X0.387500X-0.050000X0.387500X0.050000X0*%
%ADD33R,3.200000X3.200000*%
%ADD34RoundRect,0.140000X0.140000X0.170000X-0.140000X0.170000X-0.140000X-0.170000X0.140000X-0.170000X0*%
%ADD35RoundRect,0.150000X-0.150000X0.587500X-0.150000X-0.587500X0.150000X-0.587500X0.150000X0.587500X0*%
%ADD36R,2.000000X1.500000*%
%ADD37R,2.000000X3.800000*%
%ADD38RoundRect,0.135000X-0.185000X0.135000X-0.185000X-0.135000X0.185000X-0.135000X0.185000X0.135000X0*%
%ADD39RoundRect,0.200000X0.275000X-0.200000X0.275000X0.200000X-0.275000X0.200000X-0.275000X-0.200000X0*%
%ADD40C,3.000000*%
%ADD41RoundRect,0.250000X-1.000000X-1.025000X1.000000X-1.025000X1.000000X1.025000X-1.000000X1.025000X0*%
%ADD42RotRect,1.400000X1.200000X315.000000*%
%ADD43RoundRect,0.140000X-0.140000X-0.170000X0.140000X-0.170000X0.140000X0.170000X-0.140000X0.170000X0*%
%ADD44RoundRect,0.135000X0.185000X-0.135000X0.185000X0.135000X-0.185000X0.135000X-0.185000X-0.135000X0*%
%ADD45RoundRect,0.250000X0.475000X-0.250000X0.475000X0.250000X-0.475000X0.250000X-0.475000X-0.250000X0*%
%ADD46RoundRect,0.150000X-0.512500X-0.150000X0.512500X-0.150000X0.512500X0.150000X-0.512500X0.150000X0*%
%ADD47RoundRect,0.150000X-0.150000X0.650000X-0.150000X-0.650000X0.150000X-0.650000X0.150000X0.650000X0*%
%ADD48R,1.000000X1.000000*%
%ADD49RoundRect,0.150000X-0.350000X-0.225000X0.350000X-0.225000X0.350000X0.225000X-0.350000X0.225000X0*%
%ADD50RoundRect,0.140000X-0.219203X-0.021213X-0.021213X-0.219203X0.219203X0.021213X0.021213X0.219203X0*%
G04 APERTURE END LIST*
D10*
%TO.C,H2*%
X142000000Y-143500000D03*
%TD*%
%TO.C,H3*%
X178000000Y-143500000D03*
%TD*%
%TO.C,H5*%
X154000000Y-98000000D03*
%TD*%
D11*
%TO.C,H6*%
X148650000Y-89300000D03*
%TD*%
D12*
%TO.C,SW3*%
X138500000Y-117500000D03*
D13*
X143500000Y-117500000D03*
X141000000Y-117500000D03*
D14*
X135400000Y-110000000D03*
X146600000Y-110000000D03*
%TD*%
D10*
%TO.C,H4*%
X192000000Y-104500000D03*
%TD*%
%TO.C,H1*%
X128000000Y-104500000D03*
%TD*%
D11*
%TO.C,H8*%
X187150000Y-137350000D03*
%TD*%
D15*
%TO.C,SW1*%
X154920000Y-110000000D03*
D16*
X160000000Y-110000000D03*
D15*
X165080000Y-110000000D03*
%TD*%
D11*
%TO.C,H7*%
X133400000Y-138200000D03*
%TD*%
D15*
%TO.C,SW2*%
X173920000Y-110000000D03*
D16*
X179000000Y-110000000D03*
D15*
X184080000Y-110000000D03*
%TD*%
D17*
%TO.C,SW4*%
X185900000Y-92725000D03*
X179900000Y-92725000D03*
X185900000Y-96475000D03*
X179900000Y-96475000D03*
%TD*%
D18*
%TO.C,R1*%
X164375000Y-115000000D03*
X166025000Y-115000000D03*
%TD*%
D19*
%TO.C,R10*%
X178510000Y-86800000D03*
X177490000Y-86800000D03*
%TD*%
D20*
%TO.C,C2*%
X159100000Y-125480000D03*
X159100000Y-124520000D03*
%TD*%
D21*
%TO.C,C21*%
X173939411Y-87239411D03*
X173260589Y-86560589D03*
%TD*%
D22*
%TO.C,C6*%
X131950000Y-94575000D03*
X131950000Y-93025000D03*
%TD*%
D23*
%TO.C,J1*%
X135110000Y-93750000D03*
X140890000Y-93750000D03*
D24*
X134750000Y-95195000D03*
X135550000Y-95195000D03*
D25*
X136750000Y-95195000D03*
X137750000Y-95195000D03*
X138250000Y-95195000D03*
X139250000Y-95195000D03*
D24*
X140450000Y-95195000D03*
X141250000Y-95195000D03*
X141250000Y-95195000D03*
X140450000Y-95195000D03*
D25*
X139750000Y-95195000D03*
X138750000Y-95195000D03*
X137250000Y-95195000D03*
X136250000Y-95195000D03*
D24*
X135550000Y-95195000D03*
X134750000Y-95195000D03*
D26*
X133680000Y-90100000D03*
D27*
X133680000Y-94280000D03*
D26*
X142320000Y-90100000D03*
D27*
X142320000Y-94280000D03*
%TD*%
D28*
%TO.C,C9*%
X162000000Y-95820000D03*
X162000000Y-96780000D03*
%TD*%
D18*
%TO.C,R2*%
X183175000Y-115000000D03*
X184825000Y-115000000D03*
%TD*%
D29*
%TO.C,D2*%
X179000000Y-115000000D03*
D30*
X177225000Y-115000000D03*
X180775000Y-115000000D03*
%TD*%
D31*
%TO.C,U4*%
X162125000Y-87562500D03*
X162525000Y-87562500D03*
X162925000Y-87562500D03*
X163325000Y-87562500D03*
X163725000Y-87562500D03*
X164125000Y-87562500D03*
X164525000Y-87562500D03*
X164925000Y-87562500D03*
X165325000Y-87562500D03*
X165725000Y-87562500D03*
X166125000Y-87562500D03*
X166525000Y-87562500D03*
X166925000Y-87562500D03*
X167325000Y-87562500D03*
D32*
X168162500Y-88400000D03*
X168162500Y-88800000D03*
X168162500Y-89200000D03*
X168162500Y-89600000D03*
X168162500Y-90000000D03*
X168162500Y-90400000D03*
X168162500Y-90800000D03*
X168162500Y-91200000D03*
X168162500Y-91600000D03*
X168162500Y-92000000D03*
X168162500Y-92400000D03*
X168162500Y-92800000D03*
X168162500Y-93200000D03*
X168162500Y-93600000D03*
D31*
X167325000Y-94437500D03*
X166925000Y-94437500D03*
X166525000Y-94437500D03*
X166125000Y-94437500D03*
X165725000Y-94437500D03*
X165325000Y-94437500D03*
X164925000Y-94437500D03*
X164525000Y-94437500D03*
X164125000Y-94437500D03*
X163725000Y-94437500D03*
X163325000Y-94437500D03*
X162925000Y-94437500D03*
X162525000Y-94437500D03*
X162125000Y-94437500D03*
D32*
X161287500Y-93600000D03*
X161287500Y-93200000D03*
X161287500Y-92800000D03*
X161287500Y-92400000D03*
X161287500Y-92000000D03*
X161287500Y-91600000D03*
X161287500Y-91200000D03*
X161287500Y-90800000D03*
X161287500Y-90400000D03*
X161287500Y-90000000D03*
X161287500Y-89600000D03*
X161287500Y-89200000D03*
X161287500Y-88800000D03*
X161287500Y-88400000D03*
D33*
X164725000Y-91000000D03*
%TD*%
D18*
%TO.C,R15*%
X183175000Y-134005633D03*
X184825000Y-134005633D03*
%TD*%
D34*
%TO.C,C19*%
X158980000Y-92200000D03*
X158020000Y-92200000D03*
%TD*%
D15*
%TO.C,U2*%
X146080000Y-129000000D03*
X135920000Y-129000000D03*
D35*
X140050000Y-128262500D03*
X141950000Y-128262500D03*
X141000000Y-130137500D03*
%TD*%
D34*
%TO.C,C13*%
X158980000Y-93300000D03*
X158020000Y-93300000D03*
%TD*%
D20*
%TO.C,C24*%
X141200000Y-125480000D03*
X141200000Y-124520000D03*
%TD*%
%TO.C,C18*%
X150700000Y-94180000D03*
X150700000Y-93220000D03*
%TD*%
D36*
%TO.C,U8*%
X132850000Y-105800000D03*
X132850000Y-103500000D03*
D37*
X139150000Y-103500000D03*
D36*
X132850000Y-101200000D03*
%TD*%
D19*
%TO.C,R9*%
X170910000Y-94400000D03*
X169890000Y-94400000D03*
%TD*%
D29*
%TO.C,D3*%
X141000000Y-134000000D03*
D30*
X139225000Y-134000000D03*
X142775000Y-134000000D03*
%TD*%
D38*
%TO.C,R8*%
X143850000Y-90490000D03*
X143850000Y-91510000D03*
%TD*%
D20*
%TO.C,C8*%
X162200000Y-86380000D03*
X162200000Y-85420000D03*
%TD*%
%TO.C,C11*%
X166300000Y-86380000D03*
X166300000Y-85420000D03*
%TD*%
D29*
%TO.C,D4*%
X160000000Y-134000000D03*
D30*
X158225000Y-134000000D03*
X161775000Y-134000000D03*
%TD*%
D20*
%TO.C,C23*%
X160200000Y-125480000D03*
X160200000Y-124520000D03*
%TD*%
D39*
%TO.C,R16*%
X180300000Y-125825000D03*
X180300000Y-124175000D03*
%TD*%
D40*
%TO.C,SW6*%
X156190000Y-107460000D03*
X162540000Y-104920000D03*
D41*
X152640000Y-107460000D03*
X166090000Y-104920000D03*
%TD*%
D28*
%TO.C,C7*%
X160900000Y-95820000D03*
X160900000Y-96780000D03*
%TD*%
D15*
%TO.C,U5*%
X184080000Y-129005633D03*
X173920000Y-129005633D03*
D35*
X178050000Y-128268133D03*
X179950000Y-128268133D03*
X179000000Y-130143133D03*
%TD*%
D20*
%TO.C,C25*%
X179200000Y-125480000D03*
X179200000Y-124520000D03*
%TD*%
D42*
%TO.C,Y1*%
X171823223Y-87121142D03*
X173378858Y-88676777D03*
X172176777Y-89878858D03*
X170621142Y-88323223D03*
%TD*%
D43*
%TO.C,C14*%
X169920000Y-92200000D03*
X170880000Y-92200000D03*
%TD*%
D29*
%TO.C,D1*%
X160000000Y-115000000D03*
D30*
X158225000Y-115000000D03*
X161775000Y-115000000D03*
%TD*%
D44*
%TO.C,R11*%
X158400000Y-95910000D03*
X158400000Y-94890000D03*
%TD*%
D28*
%TO.C,C12*%
X165700000Y-95820000D03*
X165700000Y-96780000D03*
%TD*%
D20*
%TO.C,C17*%
X161100000Y-86380000D03*
X161100000Y-85420000D03*
%TD*%
D43*
%TO.C,C15*%
X169920000Y-93300000D03*
X170880000Y-93300000D03*
%TD*%
D19*
%TO.C,R13*%
X178510000Y-87900000D03*
X177490000Y-87900000D03*
%TD*%
D34*
%TO.C,C16*%
X158980000Y-91100000D03*
X158020000Y-91100000D03*
%TD*%
D18*
%TO.C,R3*%
X145175000Y-134000000D03*
X146825000Y-134000000D03*
%TD*%
D45*
%TO.C,C5*%
X149300000Y-98850000D03*
X149300000Y-96950000D03*
%TD*%
D46*
%TO.C,U7*%
X142662500Y-102525000D03*
X142662500Y-101575000D03*
X142662500Y-100625000D03*
X144937500Y-100625000D03*
X144937500Y-101575000D03*
X144937500Y-102525000D03*
%TD*%
D39*
%TO.C,R6*%
X142300000Y-125825000D03*
X142300000Y-124175000D03*
%TD*%
D47*
%TO.C,U6*%
X152395000Y-87000000D03*
X153665000Y-87000000D03*
X154935000Y-87000000D03*
X156205000Y-87000000D03*
X156205000Y-94200000D03*
X154935000Y-94200000D03*
X153665000Y-94200000D03*
X152395000Y-94200000D03*
%TD*%
D29*
%TO.C,D5*%
X179000000Y-134005633D03*
D30*
X177225000Y-134005633D03*
X180775000Y-134005633D03*
%TD*%
D44*
%TO.C,R7*%
X132150000Y-91510000D03*
X132150000Y-90490000D03*
%TD*%
D38*
%TO.C,R12*%
X159500000Y-94890000D03*
X159500000Y-95910000D03*
%TD*%
D20*
%TO.C,C1*%
X140100000Y-125480000D03*
X140100000Y-124520000D03*
%TD*%
D39*
%TO.C,R14*%
X161300000Y-125825000D03*
X161300000Y-124175000D03*
%TD*%
D48*
%TO.C,GND1*%
X130400000Y-114200000D03*
%TD*%
D40*
%TO.C,SW7*%
X175190000Y-107460000D03*
X181540000Y-104920000D03*
D41*
X171640000Y-107460000D03*
X185090000Y-104920000D03*
%TD*%
D15*
%TO.C,U3*%
X165080000Y-129000000D03*
X154920000Y-129000000D03*
D35*
X159050000Y-128262500D03*
X160950000Y-128262500D03*
X160000000Y-130137500D03*
%TD*%
D48*
%TO.C,3V3*%
X130400000Y-109600000D03*
%TD*%
D49*
%TO.C,SW5*%
X179900000Y-90375000D03*
X185900000Y-90375000D03*
X179900000Y-86625000D03*
X185900000Y-86625000D03*
%TD*%
D20*
%TO.C,C22*%
X178100000Y-125480000D03*
X178100000Y-124520000D03*
%TD*%
D50*
%TO.C,C20*%
X169960589Y-89660589D03*
X170639411Y-90339411D03*
%TD*%
D18*
%TO.C,R4*%
X164175000Y-134000000D03*
X165825000Y-134000000D03*
%TD*%
M02*
