%TF.GenerationSoftware,KiCad,Pcbnew,7.0.1*%
%TF.CreationDate,2023-07-01T02:03:31-04:00*%
%TF.ProjectId,Fluxpad,466c7578-7061-4642-9e6b-696361645f70,rev?*%
%TF.SameCoordinates,Original*%
%TF.FileFunction,Copper,L1,Top*%
%TF.FilePolarity,Positive*%
%FSLAX46Y46*%
G04 Gerber Fmt 4.6, Leading zero omitted, Abs format (unit mm)*
G04 Created by KiCad (PCBNEW 7.0.1) date 2023-07-01 02:03:31*
%MOMM*%
%LPD*%
G01*
G04 APERTURE LIST*
G04 Aperture macros list*
%AMRoundRect*
0 Rectangle with rounded corners*
0 $1 Rounding radius*
0 $2 $3 $4 $5 $6 $7 $8 $9 X,Y pos of 4 corners*
0 Add a 4 corners polygon primitive as box body*
4,1,4,$2,$3,$4,$5,$6,$7,$8,$9,$2,$3,0*
0 Add four circle primitives for the rounded corners*
1,1,$1+$1,$2,$3*
1,1,$1+$1,$4,$5*
1,1,$1+$1,$6,$7*
1,1,$1+$1,$8,$9*
0 Add four rect primitives between the rounded corners*
20,1,$1+$1,$2,$3,$4,$5,0*
20,1,$1+$1,$4,$5,$6,$7,0*
20,1,$1+$1,$6,$7,$8,$9,0*
20,1,$1+$1,$8,$9,$2,$3,0*%
G04 Aperture macros list end*
%TA.AperFunction,SMDPad,CuDef*%
%ADD10R,1.500000X0.900000*%
%TD*%
%TA.AperFunction,SMDPad,CuDef*%
%ADD11RoundRect,0.218750X-0.218750X-0.256250X0.218750X-0.256250X0.218750X0.256250X-0.218750X0.256250X0*%
%TD*%
%TA.AperFunction,ComponentPad*%
%ADD12R,2.000000X2.000000*%
%TD*%
%TA.AperFunction,ComponentPad*%
%ADD13C,2.000000*%
%TD*%
%TA.AperFunction,ComponentPad*%
%ADD14C,2.800000*%
%TD*%
%TA.AperFunction,ComponentPad*%
%ADD15R,1.000000X1.000000*%
%TD*%
%TA.AperFunction,ComponentPad*%
%ADD16O,1.000000X1.000000*%
%TD*%
%TA.AperFunction,ComponentPad*%
%ADD17O,1.000000X1.600000*%
%TD*%
%TA.AperFunction,ComponentPad*%
%ADD18O,1.000000X2.100000*%
%TD*%
%TA.AperFunction,ViaPad*%
%ADD19C,0.800000*%
%TD*%
%TA.AperFunction,ViaPad*%
%ADD20C,0.500000*%
%TD*%
%TA.AperFunction,ViaPad*%
%ADD21C,1.000000*%
%TD*%
%TA.AperFunction,Conductor*%
%ADD22C,0.200000*%
%TD*%
%TA.AperFunction,Conductor*%
%ADD23C,0.250000*%
%TD*%
%TA.AperFunction,Conductor*%
%ADD24C,0.500000*%
%TD*%
G04 APERTURE END LIST*
D10*
%TO.P,D7,1,VDD*%
%TO.N,+5V*%
X182450000Y-95150000D03*
%TO.P,D7,2,DOUT*%
%TO.N,/RGB_DOUT*%
X182450000Y-91850000D03*
%TO.P,D7,3,VSS*%
%TO.N,GND*%
X177550000Y-91850000D03*
%TO.P,D7,4,DIN*%
%TO.N,Net-(D6-DOUT)*%
X177550000Y-95150000D03*
%TD*%
D11*
%TO.P,D2,1,K*%
%TO.N,GND*%
X178212500Y-115000000D03*
%TO.P,D2,2,A*%
%TO.N,Net-(D2-A)*%
X179787500Y-115000000D03*
%TD*%
%TO.P,D3,1,K*%
%TO.N,GND*%
X140212500Y-134000000D03*
%TO.P,D3,2,A*%
%TO.N,Net-(D3-A)*%
X141787500Y-134000000D03*
%TD*%
D10*
%TO.P,D5,1,VDD*%
%TO.N,+5V*%
X164450000Y-95150000D03*
%TO.P,D5,2,DOUT*%
%TO.N,Net-(D5-DOUT)*%
X164450000Y-91850000D03*
%TO.P,D5,3,VSS*%
%TO.N,GND*%
X159550000Y-91850000D03*
%TO.P,D5,4,DIN*%
%TO.N,unconnected-(D5-DIN-Pad4)*%
X159550000Y-95150000D03*
%TD*%
D11*
%TO.P,D4,1,K*%
%TO.N,GND*%
X159212500Y-134000000D03*
%TO.P,D4,2,A*%
%TO.N,Net-(D4-A)*%
X160787500Y-134000000D03*
%TD*%
D12*
%TO.P,SW3,A,A*%
%TO.N,/ENCA*%
X138500000Y-117500000D03*
D13*
%TO.P,SW3,B,B*%
%TO.N,/ENCB*%
X143500000Y-117500000D03*
%TO.P,SW3,C,C*%
%TO.N,GND*%
X141000000Y-117500000D03*
D14*
%TO.P,SW3,MP*%
%TO.N,N/C*%
X135400000Y-110000000D03*
X146600000Y-110000000D03*
%TD*%
D11*
%TO.P,D1,1,K*%
%TO.N,GND*%
X159362500Y-115000000D03*
%TO.P,D1,2,A*%
%TO.N,Net-(D1-A)*%
X160937500Y-115000000D03*
%TD*%
%TO.P,D8,1,K*%
%TO.N,GND*%
X178212500Y-134005633D03*
%TO.P,D8,2,A*%
%TO.N,Net-(D8-A)*%
X179787500Y-134005633D03*
%TD*%
D15*
%TO.P,J4,1,Pin_1*%
%TO.N,/UART0_TX*%
X167150000Y-81100000D03*
D16*
%TO.P,J4,2,Pin_2*%
%TO.N,/UART0_RX*%
X168420000Y-81100000D03*
%TO.P,J4,3,Pin_3*%
%TO.N,GND*%
X169690000Y-81100000D03*
%TO.P,J4,4,Pin_4*%
%TO.N,/SWDIO*%
X170960000Y-81100000D03*
%TO.P,J4,5,Pin_5*%
%TO.N,/SWCLK*%
X172230000Y-81100000D03*
%TD*%
D10*
%TO.P,D6,1,VDD*%
%TO.N,+5V*%
X173450000Y-95150000D03*
%TO.P,D6,2,DOUT*%
%TO.N,Net-(D6-DOUT)*%
X173450000Y-91850000D03*
%TO.P,D6,3,VSS*%
%TO.N,GND*%
X168550000Y-91850000D03*
%TO.P,D6,4,DIN*%
%TO.N,Net-(D5-DOUT)*%
X168550000Y-95150000D03*
%TD*%
D17*
%TO.P,J1,S1,SHIELD*%
%TO.N,GND*%
X133680000Y-90100000D03*
D18*
X133680000Y-94280000D03*
D17*
X142320000Y-90100000D03*
D18*
X142320000Y-94280000D03*
%TD*%
D19*
%TO.N,GND*%
X154000000Y-82500000D03*
X183500000Y-81500000D03*
X192000000Y-98000000D03*
X192000000Y-111000000D03*
X192000000Y-127000000D03*
X128000000Y-135000000D03*
X128000000Y-90000000D03*
X128000000Y-98000000D03*
X128000000Y-111050000D03*
X128000000Y-119000000D03*
X128000000Y-127000000D03*
X135500000Y-143500000D03*
X148500000Y-143500000D03*
X159950000Y-143500000D03*
X171000000Y-143500000D03*
X184500000Y-143500000D03*
X191800000Y-135000000D03*
X192000000Y-119000000D03*
X192000000Y-90000000D03*
D20*
%TO.N,+1V1*%
X162400000Y-92800000D03*
X157200000Y-84000000D03*
X162400000Y-90800000D03*
X161000000Y-87600000D03*
X166900000Y-91000000D03*
X158500000Y-85300000D03*
D19*
%TO.N,Net-(D1-A)*%
X161900000Y-115000000D03*
%TO.N,+3V3*%
X171100000Y-97100000D03*
X178500000Y-85874500D03*
X145700000Y-107000000D03*
D20*
X158500000Y-94000000D03*
D19*
X179500000Y-81300000D03*
X166700000Y-97000000D03*
X135100000Y-103500000D03*
X145700000Y-103900000D03*
X171400000Y-91200000D03*
X150700000Y-94800000D03*
X135100000Y-104900000D03*
X136900000Y-102100000D03*
X136900000Y-103500000D03*
X171700000Y-109900000D03*
X161287500Y-94500000D03*
X135100000Y-102100000D03*
X161300000Y-86700000D03*
X149300000Y-95850000D03*
X166300000Y-108400000D03*
X136900000Y-104900000D03*
%TO.N,SW1*%
X168600000Y-96400000D03*
X164700000Y-100700000D03*
%TO.N,SW4*%
X167000000Y-124500000D03*
X169000000Y-114300000D03*
%TO.N,+5V*%
X170200000Y-119700000D03*
X160200000Y-125500000D03*
D21*
X173400000Y-97075000D03*
X162800000Y-98700000D03*
D19*
X130900000Y-101200000D03*
X177100000Y-119100000D03*
X159400000Y-118600000D03*
X135700000Y-96700000D03*
X132900000Y-99100000D03*
X159400000Y-120400000D03*
D21*
X131950000Y-96400000D03*
D19*
X140300000Y-96700000D03*
X179000000Y-125500000D03*
X141200000Y-125500000D03*
D21*
X182450000Y-97075000D03*
D19*
%TO.N,GND*%
X138800000Y-134000000D03*
X143600000Y-88500000D03*
X130925000Y-105800000D03*
D20*
X162000000Y-97800000D03*
D19*
X164200000Y-89000000D03*
X160700000Y-98600000D03*
X164725000Y-89950000D03*
X159500000Y-121600000D03*
X141000000Y-132700000D03*
X132850000Y-108150000D03*
X174771142Y-87973223D03*
X179500000Y-120200000D03*
X184900000Y-102200000D03*
X172900000Y-93400000D03*
X157550000Y-97000000D03*
X157800000Y-123400000D03*
X171200000Y-94300000D03*
D20*
X167300000Y-85724500D03*
D19*
X160600000Y-81200000D03*
X133400000Y-96500000D03*
X160000000Y-132600000D03*
X177000000Y-126400000D03*
X179000000Y-132600000D03*
X156200000Y-88000000D03*
X165900000Y-102000000D03*
X163675000Y-89950000D03*
X176700000Y-115000000D03*
D20*
X166700000Y-98000000D03*
D19*
X142600000Y-96500000D03*
X159800000Y-84900000D03*
X149300000Y-100100000D03*
X143800000Y-103700000D03*
X165775000Y-89950000D03*
X165300000Y-89000000D03*
X143950000Y-96500000D03*
X132400000Y-88500000D03*
X140100000Y-123600000D03*
X168800000Y-119700000D03*
X177550000Y-93000000D03*
X176800000Y-134000000D03*
X178800000Y-89300000D03*
X157900000Y-115000000D03*
X150700000Y-91400000D03*
X187400000Y-92700000D03*
D20*
X163100000Y-85400000D03*
D19*
X159500000Y-117600000D03*
X157800000Y-134000000D03*
%TO.N,Net-(D2-A)*%
X180700000Y-115000000D03*
%TO.N,Net-(D3-A)*%
X143600000Y-134000000D03*
%TO.N,Net-(D4-A)*%
X162400000Y-134000000D03*
D20*
%TO.N,/UART0_TX*%
X162400000Y-88600000D03*
%TO.N,/UART0_RX*%
X163200000Y-88500000D03*
%TO.N,/SWDIO*%
X168300000Y-86900000D03*
X170900000Y-83500000D03*
X166800000Y-91900000D03*
%TO.N,/SWCLK*%
X167000000Y-92700000D03*
X172200000Y-83500000D03*
X168900000Y-87500000D03*
D19*
%TO.N,/RGB_DOUT*%
X168900000Y-86000000D03*
%TO.N,/SW5*%
X169300000Y-113300000D03*
X172000000Y-124600000D03*
%TO.N,Net-(D8-A)*%
X181300000Y-134000000D03*
%TO.N,/LED1*%
X165791237Y-83483675D03*
X164900000Y-112300000D03*
%TO.N,/LED2*%
X167300000Y-83800000D03*
X182600000Y-111900000D03*
%TO.N,/LED3*%
X148500000Y-134000000D03*
X162400000Y-83800000D03*
%TO.N,/LED4*%
X163700000Y-83800000D03*
X167500000Y-134000000D03*
%TO.N,/LED5*%
X168500000Y-83800000D03*
X184400000Y-132400000D03*
D20*
%TO.N,/ENCA*%
X164700000Y-93200000D03*
X150200000Y-104500000D03*
X159600000Y-99100000D03*
%TO.N,/ENCB*%
X161600000Y-99800000D03*
X151400000Y-104500000D03*
X165500000Y-93300000D03*
%TD*%
D22*
%TO.N,+1V1*%
X158500000Y-85300000D02*
X157200000Y-84000000D01*
D23*
%TO.N,Net-(D1-A)*%
X160937500Y-115000000D02*
X161900000Y-115000000D01*
%TO.N,SW1*%
X168600000Y-96400000D02*
X168800000Y-96600000D01*
X166200000Y-100700000D02*
X164700000Y-100700000D01*
X168800000Y-98100000D02*
X166200000Y-100700000D01*
X168800000Y-96600000D02*
X168800000Y-98100000D01*
%TO.N,SW4*%
X169000000Y-114300000D02*
X167000000Y-116300000D01*
X167000000Y-116300000D02*
X167000000Y-124500000D01*
D24*
%TO.N,+5V*%
X164450000Y-97075000D02*
X164425000Y-97075000D01*
X173400000Y-95150000D02*
X173400000Y-97075000D01*
X164425000Y-97075000D02*
X162800000Y-98700000D01*
X164450000Y-97075000D02*
X164450000Y-95150000D01*
X182450000Y-95150000D02*
X182450000Y-97075000D01*
D23*
%TO.N,GND*%
X178212500Y-115000000D02*
X176700000Y-115000000D01*
D24*
X157700000Y-95600000D02*
X160700000Y-98600000D01*
D23*
X177550000Y-93000000D02*
X177550000Y-91850000D01*
X159212500Y-134000000D02*
X157800000Y-134000000D01*
X140212500Y-134000000D02*
X138800000Y-134000000D01*
X172000000Y-93400000D02*
X172900000Y-93400000D01*
X170450000Y-91850000D02*
X172000000Y-93400000D01*
X176805633Y-134005633D02*
X176800000Y-134000000D01*
X159362500Y-115000000D02*
X157900000Y-115000000D01*
X168550000Y-91850000D02*
X170450000Y-91850000D01*
D24*
X159550000Y-91850000D02*
X157700000Y-93700000D01*
X157700000Y-93700000D02*
X157700000Y-95600000D01*
D23*
X178212500Y-134005633D02*
X176805633Y-134005633D01*
%TO.N,Net-(D2-A)*%
X179787500Y-115000000D02*
X180700000Y-115000000D01*
%TO.N,Net-(D3-A)*%
X143600000Y-134000000D02*
X141787500Y-134000000D01*
%TO.N,Net-(D4-A)*%
X160787500Y-134000000D02*
X162400000Y-134000000D01*
D22*
%TO.N,/UART0_TX*%
X164600000Y-85601041D02*
X164600000Y-82539527D01*
X164600000Y-82539527D02*
X166039527Y-81100000D01*
X162400000Y-87801041D02*
X164600000Y-85601041D01*
X162400000Y-88600000D02*
X162400000Y-87801041D01*
X166039527Y-81100000D02*
X167150000Y-81100000D01*
%TO.N,/UART0_RX*%
X165000000Y-85900000D02*
X165000000Y-82950000D01*
X167900000Y-82400000D02*
X168420000Y-81880000D01*
X165000000Y-82950000D02*
X165550000Y-82400000D01*
X163200000Y-88500000D02*
X163200000Y-87700000D01*
X163200000Y-87700000D02*
X165000000Y-85900000D01*
X165550000Y-82400000D02*
X167900000Y-82400000D01*
X168420000Y-81880000D02*
X168420000Y-81100000D01*
%TO.N,/SWDIO*%
X167100000Y-89614950D02*
X166200000Y-90514950D01*
X168300000Y-87534314D02*
X167100000Y-88734315D01*
X170900000Y-83500000D02*
X170960000Y-83440000D01*
X166200000Y-90514950D02*
X166200000Y-91300000D01*
X166200000Y-91300000D02*
X166800000Y-91900000D01*
X170960000Y-83440000D02*
X170960000Y-81100000D01*
X168300000Y-86900000D02*
X168300000Y-87534314D01*
X167100000Y-88734315D02*
X167100000Y-89614950D01*
%TO.N,/SWCLK*%
X168900000Y-87500000D02*
X167500000Y-88900000D01*
X172230000Y-83470000D02*
X172230000Y-81100000D01*
X167500000Y-88900000D02*
X167500000Y-92200000D01*
X172200000Y-83500000D02*
X172230000Y-83470000D01*
X167500000Y-92200000D02*
X167000000Y-92700000D01*
D23*
%TO.N,Net-(D5-DOUT)*%
X166100000Y-94100000D02*
X167150000Y-95150000D01*
X164450000Y-91850000D02*
X165050000Y-91850000D01*
X165050000Y-91850000D02*
X166100000Y-92900000D01*
X167150000Y-95150000D02*
X168500000Y-95150000D01*
X166100000Y-92900000D02*
X166100000Y-94100000D01*
%TO.N,/RGB_DOUT*%
X168900000Y-86000000D02*
X170700000Y-86000000D01*
X170700000Y-86000000D02*
X175100000Y-90400000D01*
X181000000Y-90400000D02*
X182450000Y-91850000D01*
X175100000Y-90400000D02*
X181000000Y-90400000D01*
%TO.N,/SW5*%
X172000000Y-116000000D02*
X172000000Y-124600000D01*
X169300000Y-113300000D02*
X172000000Y-116000000D01*
%TO.N,Net-(D6-DOUT)*%
X175500000Y-94500000D02*
X176150000Y-95150000D01*
X176150000Y-95150000D02*
X177550000Y-95150000D01*
X175500000Y-92500000D02*
X175500000Y-94500000D01*
X173400000Y-91850000D02*
X174850000Y-91850000D01*
X174850000Y-91850000D02*
X175500000Y-92500000D01*
%TO.N,Net-(D8-A)*%
X181300000Y-134000000D02*
X179793133Y-134000000D01*
X179793133Y-134000000D02*
X179787500Y-134005633D01*
%TO.N,/LED1*%
X167457562Y-85150000D02*
X179700000Y-85150000D01*
X185500000Y-90950000D02*
X185500000Y-99800000D01*
X179700000Y-85150000D02*
X185500000Y-90950000D01*
X175600000Y-101600000D02*
X164900000Y-112300000D01*
X183700000Y-101600000D02*
X175600000Y-101600000D01*
X185500000Y-99800000D02*
X183700000Y-101600000D01*
X165791237Y-83483675D02*
X167457562Y-85150000D01*
%TO.N,/LED2*%
X183877056Y-111900000D02*
X182600000Y-111900000D01*
X181339950Y-84650000D02*
X188500000Y-91810050D01*
X188500000Y-91810050D02*
X188500000Y-107277056D01*
X167300000Y-83800000D02*
X168150000Y-84650000D01*
X188500000Y-107277056D02*
X183877056Y-111900000D01*
X168150000Y-84650000D02*
X181339950Y-84650000D01*
%TO.N,/LED3*%
X161400000Y-84800000D02*
X161400000Y-85424386D01*
X152450000Y-100550000D02*
X152450000Y-130050000D01*
X151200000Y-95624386D02*
X151200000Y-99300000D01*
X151200000Y-99300000D02*
X152450000Y-100550000D01*
X161400000Y-85424386D02*
X151200000Y-95624386D01*
X162400000Y-83800000D02*
X161400000Y-84800000D01*
X152450000Y-130050000D02*
X148500000Y-134000000D01*
%TO.N,/LED4*%
X162300000Y-85200000D02*
X162300000Y-87300000D01*
X162300000Y-87300000D02*
X156600000Y-93000000D01*
X153500000Y-122600000D02*
X164900000Y-134000000D01*
X156600000Y-93000000D02*
X156600000Y-99250000D01*
X164900000Y-134000000D02*
X167500000Y-134000000D01*
X156600000Y-99250000D02*
X153500000Y-102350000D01*
X163700000Y-83800000D02*
X162300000Y-85200000D01*
X153500000Y-102350000D02*
X153500000Y-122600000D01*
%TO.N,/LED5*%
X182800000Y-84100000D02*
X189600000Y-90900000D01*
X189600000Y-90900000D02*
X189600000Y-127200000D01*
X189600000Y-127200000D02*
X184400000Y-132400000D01*
X168500000Y-83800000D02*
X168800000Y-84100000D01*
X168800000Y-84100000D02*
X182800000Y-84100000D01*
%TO.N,/ENCA*%
X140339519Y-115660481D02*
X138500000Y-117500000D01*
X161000305Y-99325000D02*
X161425000Y-98900305D01*
X161425000Y-98900305D02*
X161425000Y-96325000D01*
X150200000Y-109700000D02*
X144239519Y-115660481D01*
X144239519Y-115660481D02*
X140339519Y-115660481D01*
X159600000Y-99100000D02*
X159825000Y-99325000D01*
X159825000Y-99325000D02*
X161000305Y-99325000D01*
X164550000Y-93200000D02*
X164700000Y-93200000D01*
X161425000Y-96325000D02*
X164550000Y-93200000D01*
X150200000Y-104500000D02*
X150200000Y-109700000D01*
%TO.N,/ENCB*%
X150900000Y-105000000D02*
X150900000Y-110100000D01*
X150900000Y-110100000D02*
X143500000Y-117500000D01*
X165525000Y-93325000D02*
X165500000Y-93300000D01*
X165525000Y-97141727D02*
X165525000Y-93325000D01*
X151400000Y-104500000D02*
X150900000Y-105000000D01*
X162866727Y-99800000D02*
X165525000Y-97141727D01*
X161600000Y-99800000D02*
X162866727Y-99800000D01*
%TD*%
%TA.AperFunction,Conductor*%
%TO.N,GND*%
G36*
X163124511Y-95609754D02*
G01*
X163180500Y-95649748D01*
X163198452Y-95693640D01*
X163200466Y-95692890D01*
X163205909Y-95707483D01*
X163256204Y-95842331D01*
X163342454Y-95957546D01*
X163457669Y-96043796D01*
X163541715Y-96075143D01*
X163607110Y-96099534D01*
X163606822Y-96100304D01*
X163645000Y-96114284D01*
X163685031Y-96158847D01*
X163699500Y-96216976D01*
X163699500Y-96687770D01*
X163690061Y-96735223D01*
X163663181Y-96775451D01*
X162769225Y-97669405D01*
X162734562Y-97693818D01*
X162693700Y-97705127D01*
X162603865Y-97713976D01*
X162415273Y-97771185D01*
X162232953Y-97868638D01*
X162171457Y-97883243D01*
X162110751Y-97865638D01*
X162066609Y-97820399D01*
X162050500Y-97759280D01*
X162050500Y-96635452D01*
X162059939Y-96587999D01*
X162086819Y-96547771D01*
X162307480Y-96327110D01*
X162995580Y-95639008D01*
X163055820Y-95605765D01*
X163124511Y-95609754D01*
G37*
%TD.AperFunction*%
%TA.AperFunction,Conductor*%
G36*
X163904447Y-84689510D02*
G01*
X163953536Y-84713718D01*
X163987421Y-84756701D01*
X163999500Y-84810084D01*
X163999500Y-85300944D01*
X163990061Y-85348397D01*
X163963181Y-85388625D01*
X163137181Y-86214625D01*
X163087818Y-86244875D01*
X163030102Y-86249417D01*
X162976615Y-86227262D01*
X162939015Y-86183239D01*
X162925500Y-86126944D01*
X162925500Y-85510452D01*
X162934939Y-85462999D01*
X162961819Y-85422771D01*
X163647772Y-84736819D01*
X163688000Y-84709939D01*
X163735453Y-84700500D01*
X163794647Y-84700500D01*
X163849719Y-84688794D01*
X163904447Y-84689510D01*
G37*
%TD.AperFunction*%
%TA.AperFunction,Conductor*%
G36*
X181644572Y-79001057D02*
G01*
X181644645Y-79001058D01*
X182284918Y-79004864D01*
X182286049Y-79004876D01*
X182920541Y-79014892D01*
X182922268Y-79014932D01*
X183549536Y-79033831D01*
X183551780Y-79033919D01*
X184170716Y-79064105D01*
X184173349Y-79064263D01*
X184782467Y-79107860D01*
X184785722Y-79108137D01*
X185383509Y-79166999D01*
X185387264Y-79167427D01*
X185972549Y-79243194D01*
X185976676Y-79243801D01*
X186548128Y-79337856D01*
X186552762Y-79338710D01*
X187108982Y-79452187D01*
X187114004Y-79453321D01*
X187653894Y-79587179D01*
X187659291Y-79588649D01*
X187953079Y-79675802D01*
X188181634Y-79743605D01*
X188187389Y-79745466D01*
X188554190Y-79874050D01*
X188691227Y-79922089D01*
X188697236Y-79924373D01*
X188967586Y-80035258D01*
X189181641Y-80123054D01*
X189187889Y-80125820D01*
X189283177Y-80171186D01*
X189652071Y-80346815D01*
X189658428Y-80350071D01*
X190101812Y-80593566D01*
X190108214Y-80597337D01*
X190530221Y-80863371D01*
X190536613Y-80867684D01*
X190936848Y-81156264D01*
X190943095Y-81161078D01*
X191321285Y-81472185D01*
X191327300Y-81477468D01*
X191683261Y-81811050D01*
X191688949Y-81816738D01*
X192022523Y-82172688D01*
X192027800Y-82178696D01*
X192338930Y-82556918D01*
X192343739Y-82563158D01*
X192632317Y-82963390D01*
X192636632Y-82969785D01*
X192728423Y-83115391D01*
X192900425Y-83388235D01*
X192902644Y-83391754D01*
X192906432Y-83398184D01*
X193116409Y-83780535D01*
X193149913Y-83841543D01*
X193153183Y-83847929D01*
X193374178Y-84312110D01*
X193376944Y-84318358D01*
X193575623Y-84802755D01*
X193577916Y-84808789D01*
X193715623Y-85201614D01*
X193741524Y-85275500D01*
X193754533Y-85312608D01*
X193756392Y-85318359D01*
X193784632Y-85413551D01*
X193911344Y-85840687D01*
X193912821Y-85846112D01*
X194046673Y-86385978D01*
X194047814Y-86391032D01*
X194161287Y-86947229D01*
X194162144Y-86951878D01*
X194256188Y-87523268D01*
X194256808Y-87527486D01*
X194332572Y-88112734D01*
X194333001Y-88116503D01*
X194391859Y-88714256D01*
X194392140Y-88717554D01*
X194425272Y-89180455D01*
X194434891Y-89314853D01*
X194435729Y-89326554D01*
X194435898Y-89329367D01*
X194466077Y-89948187D01*
X194466168Y-89950493D01*
X194485065Y-90577703D01*
X194485106Y-90579480D01*
X194495121Y-91213907D01*
X194495134Y-91215127D01*
X194498939Y-91855099D01*
X194498941Y-91855728D01*
X194499500Y-92500456D01*
X194499500Y-132499544D01*
X194498941Y-133144270D01*
X194498939Y-133144899D01*
X194495134Y-133784871D01*
X194495121Y-133786091D01*
X194485106Y-134420518D01*
X194485065Y-134422295D01*
X194466168Y-135049505D01*
X194466077Y-135051811D01*
X194435898Y-135670631D01*
X194435729Y-135673444D01*
X194392140Y-136282444D01*
X194391859Y-136285742D01*
X194333001Y-136883495D01*
X194332572Y-136887264D01*
X194256808Y-137472512D01*
X194256188Y-137476730D01*
X194162144Y-138048120D01*
X194161287Y-138052769D01*
X194047814Y-138608966D01*
X194046673Y-138614020D01*
X193912821Y-139153886D01*
X193911344Y-139159311D01*
X193756394Y-139681635D01*
X193754533Y-139687390D01*
X193577916Y-140191209D01*
X193575623Y-140197243D01*
X193376944Y-140681640D01*
X193374178Y-140687888D01*
X193153183Y-141152069D01*
X193149913Y-141158455D01*
X192906437Y-141601806D01*
X192902644Y-141608244D01*
X192636632Y-142030213D01*
X192632317Y-142036608D01*
X192343739Y-142436840D01*
X192338920Y-142443094D01*
X192027806Y-142821295D01*
X192022523Y-142827310D01*
X191688949Y-143183260D01*
X191683261Y-143188948D01*
X191327300Y-143522530D01*
X191321285Y-143527813D01*
X190943095Y-143838920D01*
X190936841Y-143843739D01*
X190536616Y-144132312D01*
X190530221Y-144136627D01*
X190108232Y-144402650D01*
X190101794Y-144406443D01*
X189658442Y-144649920D01*
X189652056Y-144653190D01*
X189187889Y-144874178D01*
X189181641Y-144876944D01*
X188697255Y-145075618D01*
X188691221Y-145077911D01*
X188187389Y-145254532D01*
X188181634Y-145256393D01*
X187659305Y-145411345D01*
X187653880Y-145412822D01*
X187114020Y-145546673D01*
X187108966Y-145547814D01*
X186552770Y-145661286D01*
X186548121Y-145662143D01*
X185976722Y-145756190D01*
X185972503Y-145756810D01*
X185387270Y-145832570D01*
X185383502Y-145832999D01*
X184785741Y-145891859D01*
X184782443Y-145892140D01*
X184223574Y-145932140D01*
X184173436Y-145935729D01*
X184170629Y-145935898D01*
X183551811Y-145966077D01*
X183549505Y-145966168D01*
X182922293Y-145985065D01*
X182920516Y-145985106D01*
X182286092Y-145995121D01*
X182284872Y-145995134D01*
X181644898Y-145998939D01*
X181644269Y-145998941D01*
X181001417Y-145999498D01*
X180999542Y-145999500D01*
X139000457Y-145999500D01*
X138998576Y-145999498D01*
X138355728Y-145998941D01*
X138355099Y-145998939D01*
X137715127Y-145995134D01*
X137713907Y-145995121D01*
X137079480Y-145985106D01*
X137077703Y-145985065D01*
X136450493Y-145966168D01*
X136448187Y-145966077D01*
X135863808Y-145937577D01*
X135829363Y-145935897D01*
X135826565Y-145935729D01*
X135716156Y-145927827D01*
X135217554Y-145892140D01*
X135214256Y-145891859D01*
X134616503Y-145833001D01*
X134612734Y-145832572D01*
X134027486Y-145756808D01*
X134023268Y-145756188D01*
X133451878Y-145662144D01*
X133447229Y-145661287D01*
X132891032Y-145547814D01*
X132885978Y-145546673D01*
X132346112Y-145412821D01*
X132340687Y-145411344D01*
X131893086Y-145278561D01*
X131818359Y-145256392D01*
X131812608Y-145254533D01*
X131812605Y-145254532D01*
X131713147Y-145219666D01*
X131308789Y-145077916D01*
X131302755Y-145075623D01*
X130818358Y-144876944D01*
X130812110Y-144874178D01*
X130347929Y-144653183D01*
X130341543Y-144649913D01*
X130313903Y-144634734D01*
X129898184Y-144406432D01*
X129891763Y-144402649D01*
X129644889Y-144247018D01*
X129469785Y-144136632D01*
X129463390Y-144132317D01*
X129063158Y-143843739D01*
X129056918Y-143838930D01*
X128678696Y-143527800D01*
X128672688Y-143522523D01*
X128648654Y-143500000D01*
X140694531Y-143500000D01*
X140714364Y-143726689D01*
X140773261Y-143946497D01*
X140869432Y-144152735D01*
X140999953Y-144339140D01*
X141160859Y-144500046D01*
X141347264Y-144630567D01*
X141347265Y-144630567D01*
X141347266Y-144630568D01*
X141553504Y-144726739D01*
X141773308Y-144785635D01*
X141858262Y-144793067D01*
X141943214Y-144800500D01*
X141943216Y-144800500D01*
X142056784Y-144800500D01*
X142056786Y-144800500D01*
X142124747Y-144794554D01*
X142226692Y-144785635D01*
X142446496Y-144726739D01*
X142652734Y-144630568D01*
X142839139Y-144500047D01*
X143000047Y-144339139D01*
X143130568Y-144152734D01*
X143226739Y-143946496D01*
X143285635Y-143726692D01*
X143305468Y-143500000D01*
X143305468Y-143499999D01*
X176694531Y-143499999D01*
X176714364Y-143726689D01*
X176773261Y-143946497D01*
X176869432Y-144152735D01*
X176999953Y-144339140D01*
X177160859Y-144500046D01*
X177347264Y-144630567D01*
X177347265Y-144630567D01*
X177347266Y-144630568D01*
X177553504Y-144726739D01*
X177773308Y-144785635D01*
X177858262Y-144793067D01*
X177943214Y-144800500D01*
X177943216Y-144800500D01*
X178056784Y-144800500D01*
X178056786Y-144800500D01*
X178124747Y-144794554D01*
X178226692Y-144785635D01*
X178446496Y-144726739D01*
X178652734Y-144630568D01*
X178839139Y-144500047D01*
X179000047Y-144339139D01*
X179130568Y-144152734D01*
X179226739Y-143946496D01*
X179285635Y-143726692D01*
X179305468Y-143500000D01*
X179285635Y-143273308D01*
X179226739Y-143053504D01*
X179130568Y-142847266D01*
X179114552Y-142824393D01*
X179000046Y-142660859D01*
X178839140Y-142499953D01*
X178652735Y-142369432D01*
X178446497Y-142273261D01*
X178226689Y-142214364D01*
X178056786Y-142199500D01*
X178056784Y-142199500D01*
X177943216Y-142199500D01*
X177943214Y-142199500D01*
X177773310Y-142214364D01*
X177553502Y-142273261D01*
X177347264Y-142369432D01*
X177160859Y-142499953D01*
X176999953Y-142660859D01*
X176869432Y-142847264D01*
X176773261Y-143053502D01*
X176714364Y-143273310D01*
X176694531Y-143499999D01*
X143305468Y-143499999D01*
X143285635Y-143273308D01*
X143226739Y-143053504D01*
X143130568Y-142847266D01*
X143114552Y-142824393D01*
X143000046Y-142660859D01*
X142839140Y-142499953D01*
X142652735Y-142369432D01*
X142446497Y-142273261D01*
X142226689Y-142214364D01*
X142056786Y-142199500D01*
X142056784Y-142199500D01*
X141943216Y-142199500D01*
X141943214Y-142199500D01*
X141773310Y-142214364D01*
X141553502Y-142273261D01*
X141347264Y-142369432D01*
X141160859Y-142499953D01*
X140999953Y-142660859D01*
X140869432Y-142847264D01*
X140773261Y-143053502D01*
X140714364Y-143273310D01*
X140694531Y-143500000D01*
X128648654Y-143500000D01*
X128316738Y-143188949D01*
X128311050Y-143183261D01*
X127977468Y-142827300D01*
X127972185Y-142821285D01*
X127661078Y-142443095D01*
X127661077Y-142443094D01*
X127661072Y-142443088D01*
X127656259Y-142436841D01*
X127656258Y-142436840D01*
X127367684Y-142036613D01*
X127363371Y-142030221D01*
X127119335Y-141643109D01*
X127097337Y-141608214D01*
X127093562Y-141601806D01*
X126850071Y-141158428D01*
X126846815Y-141152069D01*
X126625820Y-140687889D01*
X126623054Y-140681641D01*
X126555222Y-140516261D01*
X126424373Y-140197236D01*
X126422087Y-140191221D01*
X126245466Y-139687389D01*
X126243605Y-139681634D01*
X126088653Y-139159305D01*
X126087176Y-139153880D01*
X126016004Y-138866824D01*
X125953321Y-138614004D01*
X125952184Y-138608966D01*
X125937918Y-138539042D01*
X125868749Y-138200000D01*
X132618586Y-138200000D01*
X132638178Y-138373878D01*
X132638178Y-138373880D01*
X132638179Y-138373881D01*
X132695971Y-138539042D01*
X132789067Y-138687203D01*
X132912797Y-138810933D01*
X133060958Y-138904029D01*
X133226119Y-138961821D01*
X133278230Y-138967692D01*
X133356394Y-138976500D01*
X133356397Y-138976500D01*
X133443603Y-138976500D01*
X133443606Y-138976500D01*
X133508742Y-138969160D01*
X133573881Y-138961821D01*
X133739042Y-138904029D01*
X133887203Y-138810933D01*
X134010933Y-138687203D01*
X134104029Y-138539042D01*
X134161821Y-138373881D01*
X134181413Y-138200000D01*
X134161821Y-138026119D01*
X134104029Y-137860958D01*
X134010933Y-137712797D01*
X133887203Y-137589067D01*
X133739042Y-137495971D01*
X133573881Y-137438179D01*
X133573880Y-137438178D01*
X133573878Y-137438178D01*
X133443606Y-137423500D01*
X133443603Y-137423500D01*
X133356397Y-137423500D01*
X133356394Y-137423500D01*
X133226121Y-137438178D01*
X133060957Y-137495971D01*
X132912795Y-137589068D01*
X132789068Y-137712795D01*
X132695971Y-137860957D01*
X132638178Y-138026121D01*
X132618586Y-138200000D01*
X125868749Y-138200000D01*
X125838710Y-138052762D01*
X125837855Y-138048121D01*
X125823505Y-137960933D01*
X125743801Y-137476676D01*
X125743194Y-137472549D01*
X125727330Y-137349999D01*
X186368586Y-137349999D01*
X186388178Y-137523878D01*
X186388178Y-137523880D01*
X186388179Y-137523881D01*
X186445971Y-137689042D01*
X186539067Y-137837203D01*
X186662797Y-137960933D01*
X186810958Y-138054029D01*
X186976119Y-138111821D01*
X187028230Y-138117692D01*
X187106394Y-138126500D01*
X187106397Y-138126500D01*
X187193603Y-138126500D01*
X187193606Y-138126500D01*
X187258742Y-138119160D01*
X187323881Y-138111821D01*
X187489042Y-138054029D01*
X187637203Y-137960933D01*
X187760933Y-137837203D01*
X187854029Y-137689042D01*
X187911821Y-137523881D01*
X187931413Y-137350000D01*
X187911821Y-137176119D01*
X187854029Y-137010958D01*
X187760933Y-136862797D01*
X187637203Y-136739067D01*
X187489042Y-136645971D01*
X187323881Y-136588179D01*
X187323880Y-136588178D01*
X187323878Y-136588178D01*
X187193606Y-136573500D01*
X187193603Y-136573500D01*
X187106397Y-136573500D01*
X187106394Y-136573500D01*
X186976121Y-136588178D01*
X186810957Y-136645971D01*
X186662795Y-136739068D01*
X186539068Y-136862795D01*
X186445971Y-137010957D01*
X186388178Y-137176121D01*
X186368586Y-137349999D01*
X125727330Y-137349999D01*
X125667427Y-136887264D01*
X125666999Y-136883502D01*
X125613470Y-136339877D01*
X125608137Y-136285722D01*
X125607858Y-136282443D01*
X125564263Y-135673349D01*
X125564105Y-135670716D01*
X125533919Y-135051780D01*
X125533830Y-135049505D01*
X125531600Y-134975500D01*
X125514932Y-134422268D01*
X125514892Y-134420516D01*
X125514704Y-134408578D01*
X125512200Y-134250000D01*
X139275001Y-134250000D01*
X139275001Y-134304143D01*
X139285056Y-134402582D01*
X139337906Y-134562073D01*
X139426114Y-134705081D01*
X139544918Y-134823885D01*
X139687926Y-134912093D01*
X139847416Y-134964943D01*
X139945857Y-134975000D01*
X139962500Y-134975000D01*
X139962500Y-134974999D01*
X140462500Y-134974999D01*
X140479143Y-134974999D01*
X140577582Y-134964943D01*
X140737073Y-134912093D01*
X140880081Y-134823885D01*
X140911966Y-134792001D01*
X140967553Y-134759907D01*
X141031741Y-134759907D01*
X141087328Y-134792001D01*
X141119606Y-134824279D01*
X141119608Y-134824280D01*
X141119609Y-134824281D01*
X141262713Y-134912549D01*
X141342513Y-134938992D01*
X141422314Y-134965436D01*
X141520826Y-134975500D01*
X142054174Y-134975500D01*
X142152685Y-134965436D01*
X142154173Y-134964943D01*
X142312287Y-134912549D01*
X142455391Y-134824281D01*
X142574281Y-134705391D01*
X142579029Y-134697691D01*
X142587228Y-134684402D01*
X142632335Y-134641222D01*
X142692766Y-134625500D01*
X142896253Y-134625500D01*
X142946688Y-134636220D01*
X142988401Y-134666526D01*
X142994129Y-134672888D01*
X143147270Y-134784151D01*
X143147271Y-134784151D01*
X143147272Y-134784152D01*
X143320197Y-134861144D01*
X143505352Y-134900500D01*
X143505354Y-134900500D01*
X143694646Y-134900500D01*
X143694648Y-134900500D01*
X143818083Y-134874262D01*
X143879803Y-134861144D01*
X144052730Y-134784151D01*
X144161133Y-134705392D01*
X144205870Y-134672889D01*
X144211598Y-134666528D01*
X144332533Y-134532216D01*
X144427179Y-134368284D01*
X144485674Y-134188256D01*
X144505460Y-134000000D01*
X144485674Y-133811744D01*
X144427179Y-133631716D01*
X144427179Y-133631715D01*
X144332533Y-133467783D01*
X144205870Y-133327110D01*
X144052730Y-133215848D01*
X143879802Y-133138855D01*
X143694648Y-133099500D01*
X143694646Y-133099500D01*
X143505354Y-133099500D01*
X143505352Y-133099500D01*
X143320197Y-133138855D01*
X143147272Y-133215847D01*
X143045176Y-133290024D01*
X142994129Y-133327112D01*
X142988401Y-133333473D01*
X142946688Y-133363780D01*
X142896253Y-133374500D01*
X142692766Y-133374500D01*
X142632335Y-133358778D01*
X142587228Y-133315598D01*
X142574280Y-133294607D01*
X142455393Y-133175720D01*
X142316518Y-133090061D01*
X142312287Y-133087451D01*
X142312286Y-133087450D01*
X142312285Y-133087450D01*
X142152685Y-133034563D01*
X142054174Y-133024500D01*
X141520826Y-133024500D01*
X141422314Y-133034563D01*
X141262714Y-133087450D01*
X141119606Y-133175720D01*
X141087328Y-133207999D01*
X141031741Y-133240093D01*
X140967553Y-133240093D01*
X140911966Y-133207999D01*
X140880081Y-133176114D01*
X140737073Y-133087906D01*
X140577583Y-133035056D01*
X140479143Y-133025000D01*
X140462500Y-133025000D01*
X140462500Y-134974999D01*
X139962500Y-134974999D01*
X139962500Y-134250000D01*
X139275001Y-134250000D01*
X125512200Y-134250000D01*
X125504876Y-133786049D01*
X125504864Y-133784872D01*
X125504864Y-133784871D01*
X125504657Y-133750000D01*
X139275000Y-133750000D01*
X139962500Y-133750000D01*
X139962500Y-133025001D01*
X139945857Y-133025001D01*
X139847417Y-133035056D01*
X139687926Y-133087906D01*
X139544918Y-133176114D01*
X139426114Y-133294918D01*
X139337906Y-133437926D01*
X139285056Y-133597416D01*
X139275000Y-133695857D01*
X139275000Y-133750000D01*
X125504657Y-133750000D01*
X125501058Y-133144612D01*
X125500500Y-132499542D01*
X125500500Y-131000000D01*
X137500000Y-131000000D01*
X139000000Y-132500000D01*
X143000000Y-132500000D01*
X144500000Y-131000000D01*
X144500000Y-128948593D01*
X145000832Y-128948593D01*
X145010605Y-129153756D01*
X145059029Y-129353362D01*
X145102619Y-129448811D01*
X145144354Y-129540199D01*
X145250732Y-129689584D01*
X145263494Y-129707506D01*
X145412146Y-129849245D01*
X145584936Y-129960291D01*
X145775618Y-130036629D01*
X145977302Y-130075500D01*
X146131227Y-130075500D01*
X146131232Y-130075500D01*
X146284466Y-130060868D01*
X146481541Y-130003001D01*
X146664104Y-129908884D01*
X146825556Y-129781916D01*
X146960061Y-129626689D01*
X147062759Y-129448811D01*
X147129937Y-129254712D01*
X147159168Y-129051407D01*
X147149395Y-128846244D01*
X147100971Y-128646638D01*
X147015647Y-128459804D01*
X147015646Y-128459803D01*
X147015645Y-128459800D01*
X146936219Y-128348264D01*
X146896506Y-128292494D01*
X146747854Y-128150755D01*
X146663821Y-128096750D01*
X146575065Y-128039709D01*
X146398450Y-127969003D01*
X146384382Y-127963371D01*
X146384381Y-127963370D01*
X146384379Y-127963370D01*
X146182698Y-127924500D01*
X146028768Y-127924500D01*
X145932996Y-127933644D01*
X145875531Y-127939132D01*
X145678460Y-127996998D01*
X145495893Y-128091117D01*
X145334445Y-128218082D01*
X145199937Y-128373312D01*
X145097241Y-128551187D01*
X145030062Y-128745287D01*
X145000832Y-128948591D01*
X145000832Y-128948593D01*
X144500000Y-128948593D01*
X144500000Y-127500000D01*
X143000000Y-126000000D01*
X142155053Y-126000000D01*
X142098758Y-125986485D01*
X142054735Y-125948885D01*
X142032580Y-125895398D01*
X142037122Y-125837682D01*
X142085674Y-125688256D01*
X142105460Y-125500000D01*
X142085674Y-125311744D01*
X142040557Y-125172888D01*
X142027179Y-125131715D01*
X141932533Y-124967783D01*
X141805870Y-124827110D01*
X141652730Y-124715848D01*
X141479802Y-124638855D01*
X141294648Y-124599500D01*
X141294646Y-124599500D01*
X141105354Y-124599500D01*
X141105352Y-124599500D01*
X140920197Y-124638855D01*
X140747269Y-124715848D01*
X140594129Y-124827110D01*
X140467466Y-124967783D01*
X140372820Y-125131715D01*
X140314326Y-125311742D01*
X140294540Y-125500000D01*
X140314326Y-125688257D01*
X140362878Y-125837682D01*
X140367420Y-125895398D01*
X140345265Y-125948885D01*
X140301242Y-125986485D01*
X140244947Y-126000000D01*
X138999999Y-126000000D01*
X137500000Y-127499999D01*
X137500000Y-127500000D01*
X137500000Y-131000000D01*
X125500500Y-131000000D01*
X125500500Y-128948593D01*
X134840832Y-128948593D01*
X134850605Y-129153756D01*
X134899029Y-129353362D01*
X134942619Y-129448811D01*
X134984354Y-129540199D01*
X135090732Y-129689584D01*
X135103494Y-129707506D01*
X135252146Y-129849245D01*
X135424936Y-129960291D01*
X135615618Y-130036629D01*
X135817302Y-130075500D01*
X135971227Y-130075500D01*
X135971232Y-130075500D01*
X136124466Y-130060868D01*
X136321541Y-130003001D01*
X136504104Y-129908884D01*
X136665556Y-129781916D01*
X136800061Y-129626689D01*
X136902759Y-129448811D01*
X136969937Y-129254712D01*
X136999168Y-129051407D01*
X136989395Y-128846244D01*
X136940971Y-128646638D01*
X136855647Y-128459804D01*
X136855646Y-128459803D01*
X136855645Y-128459800D01*
X136776219Y-128348264D01*
X136736506Y-128292494D01*
X136587854Y-128150755D01*
X136503821Y-128096750D01*
X136415065Y-128039709D01*
X136238450Y-127969003D01*
X136224382Y-127963371D01*
X136224381Y-127963370D01*
X136224379Y-127963370D01*
X136022698Y-127924500D01*
X135868768Y-127924500D01*
X135772996Y-127933644D01*
X135715531Y-127939132D01*
X135518460Y-127996998D01*
X135335893Y-128091117D01*
X135174445Y-128218082D01*
X135039937Y-128373312D01*
X134937241Y-128551187D01*
X134870062Y-128745287D01*
X134840832Y-128948591D01*
X134840832Y-128948593D01*
X125500500Y-128948593D01*
X125500500Y-118547869D01*
X136999500Y-118547869D01*
X137005909Y-118607484D01*
X137031056Y-118674907D01*
X137056204Y-118742331D01*
X137142454Y-118857546D01*
X137257669Y-118943796D01*
X137392517Y-118994091D01*
X137452127Y-119000500D01*
X139547872Y-119000499D01*
X139607483Y-118994091D01*
X139742331Y-118943796D01*
X139857546Y-118857546D01*
X139943796Y-118742331D01*
X139943796Y-118742328D01*
X139945460Y-118740107D01*
X139996629Y-118700125D01*
X140060989Y-118691488D01*
X140120889Y-118716563D01*
X140176766Y-118760054D01*
X140395393Y-118878368D01*
X140630506Y-118959083D01*
X140875707Y-119000000D01*
X141124293Y-119000000D01*
X141369493Y-118959083D01*
X141604606Y-118878368D01*
X141823233Y-118760053D01*
X141870056Y-118723609D01*
X140734128Y-117587681D01*
X140702034Y-117532094D01*
X140702034Y-117467906D01*
X140734128Y-117412319D01*
X141824147Y-116322300D01*
X141864375Y-116295420D01*
X141911828Y-116285981D01*
X142295403Y-116285981D01*
X142350783Y-116299035D01*
X142394502Y-116335447D01*
X142417358Y-116387552D01*
X142414536Y-116444379D01*
X142386632Y-116493964D01*
X142304876Y-116582774D01*
X142303261Y-116581287D01*
X142263493Y-116616038D01*
X142232109Y-116621441D01*
X141353553Y-117500000D01*
X141353553Y-117500001D01*
X142232110Y-118378558D01*
X142263496Y-118383962D01*
X142303261Y-118418712D01*
X142304877Y-118417225D01*
X142311834Y-118424783D01*
X142311836Y-118424785D01*
X142480256Y-118607738D01*
X142480259Y-118607740D01*
X142676485Y-118760470D01*
X142676487Y-118760471D01*
X142676491Y-118760474D01*
X142895190Y-118878828D01*
X143130386Y-118959571D01*
X143375665Y-119000500D01*
X143624335Y-119000500D01*
X143869614Y-118959571D01*
X144104810Y-118878828D01*
X144323509Y-118760474D01*
X144519744Y-118607738D01*
X144688164Y-118424785D01*
X144824173Y-118216607D01*
X144924063Y-117988881D01*
X144985108Y-117747821D01*
X145005643Y-117500000D01*
X144998378Y-117412319D01*
X144985109Y-117252184D01*
X144985108Y-117252179D01*
X144931135Y-117039045D01*
X144931790Y-116975691D01*
X144963658Y-116920930D01*
X151283789Y-110600800D01*
X151299885Y-110587906D01*
X151301873Y-110585787D01*
X151301877Y-110585786D01*
X151347948Y-110536723D01*
X151350566Y-110534023D01*
X151370120Y-110514471D01*
X151372581Y-110511298D01*
X151380156Y-110502427D01*
X151410062Y-110470582D01*
X151419717Y-110453018D01*
X151430394Y-110436764D01*
X151442673Y-110420936D01*
X151460018Y-110380852D01*
X151465160Y-110370356D01*
X151486197Y-110332092D01*
X151491179Y-110312684D01*
X151497481Y-110294280D01*
X151505437Y-110275896D01*
X151512269Y-110232752D01*
X151514633Y-110221338D01*
X151525500Y-110179019D01*
X151525500Y-110158984D01*
X151527027Y-110139585D01*
X151527068Y-110139321D01*
X151530160Y-110119804D01*
X151526050Y-110076325D01*
X151525500Y-110064656D01*
X151525500Y-105339188D01*
X151535846Y-105289602D01*
X151565158Y-105248290D01*
X151608545Y-105222147D01*
X151659545Y-105204301D01*
X151717833Y-105198559D01*
X151772255Y-105220212D01*
X151810667Y-105264428D01*
X151824500Y-105321342D01*
X151824500Y-129739548D01*
X151815061Y-129787001D01*
X151788181Y-129827229D01*
X148552228Y-133063181D01*
X148512000Y-133090061D01*
X148464547Y-133099500D01*
X148405352Y-133099500D01*
X148220197Y-133138855D01*
X148047269Y-133215848D01*
X147894129Y-133327110D01*
X147767466Y-133467783D01*
X147672820Y-133631715D01*
X147614326Y-133811742D01*
X147594540Y-134000000D01*
X147614326Y-134188257D01*
X147672820Y-134368284D01*
X147767466Y-134532216D01*
X147894129Y-134672889D01*
X148047269Y-134784151D01*
X148220197Y-134861144D01*
X148405352Y-134900500D01*
X148405354Y-134900500D01*
X148594646Y-134900500D01*
X148594648Y-134900500D01*
X148718083Y-134874262D01*
X148779803Y-134861144D01*
X148952730Y-134784151D01*
X149061133Y-134705392D01*
X149105870Y-134672889D01*
X149111598Y-134666528D01*
X149232533Y-134532216D01*
X149327179Y-134368284D01*
X149365612Y-134250000D01*
X158275001Y-134250000D01*
X158275001Y-134304143D01*
X158285056Y-134402582D01*
X158337906Y-134562073D01*
X158426114Y-134705081D01*
X158544918Y-134823885D01*
X158687926Y-134912093D01*
X158847416Y-134964943D01*
X158945857Y-134975000D01*
X158962500Y-134975000D01*
X158962500Y-134250000D01*
X158275001Y-134250000D01*
X149365612Y-134250000D01*
X149385674Y-134188256D01*
X149403321Y-134020344D01*
X149414721Y-133979925D01*
X149438958Y-133945630D01*
X149634588Y-133750000D01*
X158275000Y-133750000D01*
X158962500Y-133750000D01*
X158962500Y-133025001D01*
X158945857Y-133025001D01*
X158847417Y-133035056D01*
X158687926Y-133087906D01*
X158544918Y-133176114D01*
X158426114Y-133294918D01*
X158337906Y-133437926D01*
X158285056Y-133597416D01*
X158275000Y-133695857D01*
X158275000Y-133750000D01*
X149634588Y-133750000D01*
X152833786Y-130550802D01*
X152849887Y-130537904D01*
X152851874Y-130535787D01*
X152851877Y-130535786D01*
X152897932Y-130486741D01*
X152900613Y-130483976D01*
X152920120Y-130464470D01*
X152922581Y-130461295D01*
X152930152Y-130452431D01*
X152960062Y-130420582D01*
X152969713Y-130403026D01*
X152980393Y-130386767D01*
X152992674Y-130370936D01*
X153010018Y-130330851D01*
X153015160Y-130320356D01*
X153036197Y-130282092D01*
X153041178Y-130262688D01*
X153047480Y-130244283D01*
X153055438Y-130225895D01*
X153062270Y-130182748D01*
X153064639Y-130171316D01*
X153075500Y-130129020D01*
X153075500Y-130108984D01*
X153077027Y-130089585D01*
X153080160Y-130069804D01*
X153076050Y-130026325D01*
X153075500Y-130014656D01*
X153075500Y-128948593D01*
X153840832Y-128948593D01*
X153850605Y-129153756D01*
X153899029Y-129353362D01*
X153942619Y-129448811D01*
X153984354Y-129540199D01*
X154090732Y-129689584D01*
X154103494Y-129707506D01*
X154252146Y-129849245D01*
X154424936Y-129960291D01*
X154615618Y-130036629D01*
X154817302Y-130075500D01*
X154971227Y-130075500D01*
X154971232Y-130075500D01*
X155124466Y-130060868D01*
X155321541Y-130003001D01*
X155504104Y-129908884D01*
X155665556Y-129781916D01*
X155800061Y-129626689D01*
X155902759Y-129448811D01*
X155969937Y-129254712D01*
X155999168Y-129051407D01*
X155989395Y-128846244D01*
X155940971Y-128646638D01*
X155855647Y-128459804D01*
X155855646Y-128459803D01*
X155855645Y-128459800D01*
X155776219Y-128348264D01*
X155736506Y-128292494D01*
X155587854Y-128150755D01*
X155503821Y-128096750D01*
X155415065Y-128039709D01*
X155238450Y-127969003D01*
X155224382Y-127963371D01*
X155224381Y-127963370D01*
X155224379Y-127963370D01*
X155022698Y-127924500D01*
X154868768Y-127924500D01*
X154772996Y-127933644D01*
X154715531Y-127939132D01*
X154518460Y-127996998D01*
X154335893Y-128091117D01*
X154174445Y-128218082D01*
X154039937Y-128373312D01*
X153937241Y-128551187D01*
X153870062Y-128745287D01*
X153840832Y-128948591D01*
X153840832Y-128948593D01*
X153075500Y-128948593D01*
X153075500Y-123359452D01*
X153089015Y-123303157D01*
X153126615Y-123259134D01*
X153180102Y-123236979D01*
X153237818Y-123241521D01*
X153287181Y-123271771D01*
X156920024Y-126904614D01*
X156952118Y-126960201D01*
X156952118Y-127024389D01*
X156920024Y-127079976D01*
X156500000Y-127499999D01*
X156500000Y-127500000D01*
X156500000Y-131000000D01*
X158000000Y-132500000D01*
X162000000Y-132500000D01*
X162170024Y-132329976D01*
X162225611Y-132297882D01*
X162289799Y-132297882D01*
X162345386Y-132329976D01*
X163122866Y-133107456D01*
X163154079Y-133159919D01*
X163156475Y-133220918D01*
X163129475Y-133275669D01*
X163079623Y-133310901D01*
X163019000Y-133318076D01*
X162962300Y-133295455D01*
X162852730Y-133215848D01*
X162679802Y-133138855D01*
X162494648Y-133099500D01*
X162494646Y-133099500D01*
X162305354Y-133099500D01*
X162305352Y-133099500D01*
X162120197Y-133138855D01*
X161947272Y-133215847D01*
X161845176Y-133290024D01*
X161794129Y-133327112D01*
X161788401Y-133333473D01*
X161746688Y-133363780D01*
X161696253Y-133374500D01*
X161692766Y-133374500D01*
X161632335Y-133358778D01*
X161587228Y-133315598D01*
X161574280Y-133294607D01*
X161455393Y-133175720D01*
X161316518Y-133090061D01*
X161312287Y-133087451D01*
X161312286Y-133087450D01*
X161312285Y-133087450D01*
X161152685Y-133034563D01*
X161054174Y-133024500D01*
X160520826Y-133024500D01*
X160422314Y-133034563D01*
X160262714Y-133087450D01*
X160119606Y-133175720D01*
X160087328Y-133207999D01*
X160031741Y-133240093D01*
X159967553Y-133240093D01*
X159911966Y-133207999D01*
X159880081Y-133176114D01*
X159737073Y-133087906D01*
X159577583Y-133035056D01*
X159479143Y-133025000D01*
X159462500Y-133025000D01*
X159462500Y-134974999D01*
X159479143Y-134974999D01*
X159577582Y-134964943D01*
X159737073Y-134912093D01*
X159880081Y-134823885D01*
X159911966Y-134792001D01*
X159967553Y-134759907D01*
X160031741Y-134759907D01*
X160087328Y-134792001D01*
X160119606Y-134824279D01*
X160119608Y-134824280D01*
X160119609Y-134824281D01*
X160262713Y-134912549D01*
X160342513Y-134938992D01*
X160422314Y-134965436D01*
X160520826Y-134975500D01*
X161054174Y-134975500D01*
X161152685Y-134965436D01*
X161154173Y-134964943D01*
X161312287Y-134912549D01*
X161455391Y-134824281D01*
X161574281Y-134705391D01*
X161579029Y-134697691D01*
X161587228Y-134684402D01*
X161632335Y-134641222D01*
X161692766Y-134625500D01*
X161696253Y-134625500D01*
X161746688Y-134636220D01*
X161788401Y-134666526D01*
X161794129Y-134672888D01*
X161947270Y-134784151D01*
X161947271Y-134784151D01*
X161947272Y-134784152D01*
X162120197Y-134861144D01*
X162305352Y-134900500D01*
X162305354Y-134900500D01*
X162494646Y-134900500D01*
X162494648Y-134900500D01*
X162618083Y-134874262D01*
X162679803Y-134861144D01*
X162852730Y-134784151D01*
X162961133Y-134705392D01*
X163005870Y-134672889D01*
X163011598Y-134666528D01*
X163132533Y-134532216D01*
X163227179Y-134368284D01*
X163285674Y-134188256D01*
X163305460Y-134000000D01*
X163285674Y-133811744D01*
X163227179Y-133631716D01*
X163227179Y-133631715D01*
X163132535Y-133467786D01*
X163130938Y-133466013D01*
X163126201Y-133456816D01*
X163126017Y-133456497D01*
X163126032Y-133456488D01*
X163102027Y-133409879D01*
X163104506Y-133346786D01*
X163137732Y-133293094D01*
X163193090Y-133262723D01*
X163256225Y-133263550D01*
X163310769Y-133295359D01*
X164399197Y-134383787D01*
X164412098Y-134399889D01*
X164414212Y-134401874D01*
X164414214Y-134401877D01*
X164435955Y-134422293D01*
X164463240Y-134447916D01*
X164466035Y-134450625D01*
X164485530Y-134470120D01*
X164488704Y-134472582D01*
X164497568Y-134480153D01*
X164529418Y-134510062D01*
X164539914Y-134515832D01*
X164546974Y-134519714D01*
X164563231Y-134530392D01*
X164579064Y-134542674D01*
X164595185Y-134549649D01*
X164619156Y-134560023D01*
X164629643Y-134565160D01*
X164667908Y-134586197D01*
X164687316Y-134591180D01*
X164705710Y-134597478D01*
X164724105Y-134605438D01*
X164767254Y-134612271D01*
X164778680Y-134614638D01*
X164794222Y-134618629D01*
X164820980Y-134625500D01*
X164820981Y-134625500D01*
X164841016Y-134625500D01*
X164860413Y-134627026D01*
X164880196Y-134630160D01*
X164923674Y-134626050D01*
X164935344Y-134625500D01*
X166796253Y-134625500D01*
X166846688Y-134636220D01*
X166888401Y-134666526D01*
X166894129Y-134672888D01*
X167047270Y-134784151D01*
X167047271Y-134784151D01*
X167047272Y-134784152D01*
X167220197Y-134861144D01*
X167405352Y-134900500D01*
X167405354Y-134900500D01*
X167594646Y-134900500D01*
X167594648Y-134900500D01*
X167718083Y-134874262D01*
X167779803Y-134861144D01*
X167952730Y-134784151D01*
X168061133Y-134705392D01*
X168105870Y-134672889D01*
X168111598Y-134666528D01*
X168232533Y-134532216D01*
X168327179Y-134368284D01*
X168363782Y-134255633D01*
X177275001Y-134255633D01*
X177275001Y-134309776D01*
X177285056Y-134408215D01*
X177337906Y-134567706D01*
X177426114Y-134710714D01*
X177544918Y-134829518D01*
X177687926Y-134917726D01*
X177847416Y-134970576D01*
X177945857Y-134980633D01*
X177962500Y-134980633D01*
X177962500Y-134980632D01*
X178462500Y-134980632D01*
X178479143Y-134980632D01*
X178577582Y-134970576D01*
X178737073Y-134917726D01*
X178880081Y-134829518D01*
X178911966Y-134797634D01*
X178967553Y-134765540D01*
X179031741Y-134765540D01*
X179087328Y-134797634D01*
X179119606Y-134829912D01*
X179119608Y-134829913D01*
X179119609Y-134829914D01*
X179262713Y-134918182D01*
X179342514Y-134944625D01*
X179422314Y-134971069D01*
X179520826Y-134981133D01*
X180054174Y-134981133D01*
X180152685Y-134971069D01*
X180171172Y-134964943D01*
X180312287Y-134918182D01*
X180455391Y-134829914D01*
X180571916Y-134713388D01*
X180621278Y-134683140D01*
X180678994Y-134678598D01*
X180732481Y-134700753D01*
X180847269Y-134784151D01*
X181020197Y-134861144D01*
X181205352Y-134900500D01*
X181205354Y-134900500D01*
X181394646Y-134900500D01*
X181394648Y-134900500D01*
X181518083Y-134874262D01*
X181579803Y-134861144D01*
X181752730Y-134784151D01*
X181861133Y-134705392D01*
X181905870Y-134672889D01*
X181911598Y-134666528D01*
X182032533Y-134532216D01*
X182127179Y-134368284D01*
X182185674Y-134188256D01*
X182205460Y-134000000D01*
X182185674Y-133811744D01*
X182127179Y-133631716D01*
X182127179Y-133631715D01*
X182032533Y-133467783D01*
X181905870Y-133327110D01*
X181752730Y-133215848D01*
X181579802Y-133138855D01*
X181394648Y-133099500D01*
X181394646Y-133099500D01*
X181205354Y-133099500D01*
X181205352Y-133099500D01*
X181020197Y-133138855D01*
X180847269Y-133215848D01*
X180725956Y-133303987D01*
X180672469Y-133326142D01*
X180614753Y-133321600D01*
X180565390Y-133291350D01*
X180455393Y-133181353D01*
X180383838Y-133137217D01*
X180312287Y-133093084D01*
X180312286Y-133093083D01*
X180312285Y-133093083D01*
X180152685Y-133040196D01*
X180054174Y-133030133D01*
X179520826Y-133030133D01*
X179422314Y-133040196D01*
X179262714Y-133093083D01*
X179119606Y-133181353D01*
X179087328Y-133213632D01*
X179031741Y-133245726D01*
X178967553Y-133245726D01*
X178911966Y-133213632D01*
X178880081Y-133181747D01*
X178737073Y-133093539D01*
X178577583Y-133040689D01*
X178479143Y-133030633D01*
X178462500Y-133030633D01*
X178462500Y-134980632D01*
X177962500Y-134980632D01*
X177962500Y-134255633D01*
X177275001Y-134255633D01*
X168363782Y-134255633D01*
X168385674Y-134188256D01*
X168405460Y-134000000D01*
X168385674Y-133811744D01*
X168367442Y-133755633D01*
X177275000Y-133755633D01*
X177962500Y-133755633D01*
X177962500Y-133030634D01*
X177945857Y-133030634D01*
X177847417Y-133040689D01*
X177687926Y-133093539D01*
X177544918Y-133181747D01*
X177426114Y-133300551D01*
X177337906Y-133443559D01*
X177285056Y-133603049D01*
X177275000Y-133701490D01*
X177275000Y-133755633D01*
X168367442Y-133755633D01*
X168327179Y-133631716D01*
X168327179Y-133631715D01*
X168232533Y-133467783D01*
X168105870Y-133327110D01*
X167952730Y-133215848D01*
X167779802Y-133138855D01*
X167594648Y-133099500D01*
X167594646Y-133099500D01*
X167405354Y-133099500D01*
X167405352Y-133099500D01*
X167220197Y-133138855D01*
X167047272Y-133215847D01*
X166945176Y-133290024D01*
X166894129Y-133327112D01*
X166888401Y-133333473D01*
X166846688Y-133363780D01*
X166796253Y-133374500D01*
X165210452Y-133374500D01*
X165162999Y-133365061D01*
X165122771Y-133338181D01*
X163229976Y-131445385D01*
X163197882Y-131389797D01*
X163197882Y-131325610D01*
X163229976Y-131270023D01*
X163494367Y-131005633D01*
X175500000Y-131005633D01*
X177000000Y-132505633D01*
X181000000Y-132505633D01*
X182500000Y-131005633D01*
X182500000Y-128954226D01*
X183000832Y-128954226D01*
X183010605Y-129159389D01*
X183059029Y-129358995D01*
X183100047Y-129448812D01*
X183144354Y-129545832D01*
X183201933Y-129626689D01*
X183263494Y-129713139D01*
X183412146Y-129854878D01*
X183584936Y-129965924D01*
X183775618Y-130042262D01*
X183977302Y-130081133D01*
X184131227Y-130081133D01*
X184131232Y-130081133D01*
X184284466Y-130066501D01*
X184481541Y-130008634D01*
X184664104Y-129914517D01*
X184825556Y-129787549D01*
X184960061Y-129632322D01*
X185062759Y-129454444D01*
X185129937Y-129260345D01*
X185159168Y-129057040D01*
X185149395Y-128851877D01*
X185100971Y-128652271D01*
X185015647Y-128465437D01*
X185015646Y-128465436D01*
X185015645Y-128465433D01*
X184896507Y-128298129D01*
X184896506Y-128298127D01*
X184747854Y-128156388D01*
X184655056Y-128096750D01*
X184575065Y-128045342D01*
X184448121Y-127994521D01*
X184384382Y-127969004D01*
X184384381Y-127969003D01*
X184384379Y-127969003D01*
X184182698Y-127930133D01*
X184028768Y-127930133D01*
X183934526Y-127939132D01*
X183875531Y-127944765D01*
X183678460Y-128002631D01*
X183495893Y-128096750D01*
X183334445Y-128223715D01*
X183199937Y-128378945D01*
X183097241Y-128556820D01*
X183030062Y-128750920D01*
X183001642Y-128948591D01*
X183000832Y-128954226D01*
X182500000Y-128954226D01*
X182500000Y-127505633D01*
X181000000Y-126005633D01*
X179953223Y-126005633D01*
X179896928Y-125992118D01*
X179852905Y-125954518D01*
X179830750Y-125901031D01*
X179835292Y-125843315D01*
X179837476Y-125836591D01*
X179885674Y-125688256D01*
X179905460Y-125500000D01*
X179885674Y-125311744D01*
X179840557Y-125172888D01*
X179827179Y-125131715D01*
X179732533Y-124967783D01*
X179605870Y-124827110D01*
X179452730Y-124715848D01*
X179279802Y-124638855D01*
X179094648Y-124599500D01*
X179094646Y-124599500D01*
X178905354Y-124599500D01*
X178905352Y-124599500D01*
X178720197Y-124638855D01*
X178547269Y-124715848D01*
X178394129Y-124827110D01*
X178267466Y-124967783D01*
X178172820Y-125131715D01*
X178114326Y-125311742D01*
X178094540Y-125500000D01*
X178114326Y-125688257D01*
X178164708Y-125843315D01*
X178169250Y-125901031D01*
X178147095Y-125954518D01*
X178103072Y-125992118D01*
X178046777Y-126005633D01*
X176999999Y-126005633D01*
X175500000Y-127505632D01*
X175500000Y-127505633D01*
X175500000Y-131005633D01*
X163494367Y-131005633D01*
X163500000Y-131000000D01*
X163500000Y-128948593D01*
X164000832Y-128948593D01*
X164010605Y-129153756D01*
X164059029Y-129353362D01*
X164102619Y-129448811D01*
X164144354Y-129540199D01*
X164250732Y-129689584D01*
X164263494Y-129707506D01*
X164412146Y-129849245D01*
X164584936Y-129960291D01*
X164775618Y-130036629D01*
X164977302Y-130075500D01*
X165131227Y-130075500D01*
X165131232Y-130075500D01*
X165284466Y-130060868D01*
X165481541Y-130003001D01*
X165664104Y-129908884D01*
X165825556Y-129781916D01*
X165960061Y-129626689D01*
X166062759Y-129448811D01*
X166129937Y-129254712D01*
X166159168Y-129051407D01*
X166154539Y-128954226D01*
X172840832Y-128954226D01*
X172850605Y-129159389D01*
X172899029Y-129358995D01*
X172940047Y-129448812D01*
X172984354Y-129545832D01*
X173041933Y-129626689D01*
X173103494Y-129713139D01*
X173252146Y-129854878D01*
X173424936Y-129965924D01*
X173615618Y-130042262D01*
X173817302Y-130081133D01*
X173971227Y-130081133D01*
X173971232Y-130081133D01*
X174124466Y-130066501D01*
X174321541Y-130008634D01*
X174504104Y-129914517D01*
X174665556Y-129787549D01*
X174800061Y-129632322D01*
X174902759Y-129454444D01*
X174969937Y-129260345D01*
X174999168Y-129057040D01*
X174989395Y-128851877D01*
X174940971Y-128652271D01*
X174855647Y-128465437D01*
X174855646Y-128465436D01*
X174855645Y-128465433D01*
X174736507Y-128298129D01*
X174736506Y-128298127D01*
X174587854Y-128156388D01*
X174495056Y-128096750D01*
X174415065Y-128045342D01*
X174288121Y-127994521D01*
X174224382Y-127969004D01*
X174224381Y-127969003D01*
X174224379Y-127969003D01*
X174022698Y-127930133D01*
X173868768Y-127930133D01*
X173774526Y-127939132D01*
X173715531Y-127944765D01*
X173518460Y-128002631D01*
X173335893Y-128096750D01*
X173174445Y-128223715D01*
X173039937Y-128378945D01*
X172937241Y-128556820D01*
X172870062Y-128750920D01*
X172841642Y-128948591D01*
X172840832Y-128954226D01*
X166154539Y-128954226D01*
X166149395Y-128846244D01*
X166100971Y-128646638D01*
X166015647Y-128459804D01*
X166015646Y-128459803D01*
X166015645Y-128459800D01*
X165936219Y-128348264D01*
X165896506Y-128292494D01*
X165747854Y-128150755D01*
X165663821Y-128096750D01*
X165575065Y-128039709D01*
X165398450Y-127969003D01*
X165384382Y-127963371D01*
X165384381Y-127963370D01*
X165384379Y-127963370D01*
X165182698Y-127924500D01*
X165028768Y-127924500D01*
X164932996Y-127933644D01*
X164875531Y-127939132D01*
X164678460Y-127996998D01*
X164495893Y-128091117D01*
X164334445Y-128218082D01*
X164199937Y-128373312D01*
X164097241Y-128551187D01*
X164030062Y-128745287D01*
X164000832Y-128948591D01*
X164000832Y-128948593D01*
X163500000Y-128948593D01*
X163500000Y-127500000D01*
X162000000Y-126000000D01*
X161155053Y-126000000D01*
X161098758Y-125986485D01*
X161054735Y-125948885D01*
X161032580Y-125895398D01*
X161037122Y-125837682D01*
X161085674Y-125688256D01*
X161105460Y-125500000D01*
X161085674Y-125311744D01*
X161040557Y-125172888D01*
X161027179Y-125131715D01*
X160932533Y-124967783D01*
X160805870Y-124827110D01*
X160652730Y-124715848D01*
X160479802Y-124638855D01*
X160294648Y-124599500D01*
X160294646Y-124599500D01*
X160105354Y-124599500D01*
X160105352Y-124599500D01*
X159920197Y-124638855D01*
X159747269Y-124715848D01*
X159594129Y-124827110D01*
X159467466Y-124967783D01*
X159372820Y-125131715D01*
X159314326Y-125311742D01*
X159294540Y-125500000D01*
X159314326Y-125688257D01*
X159362878Y-125837682D01*
X159367420Y-125895398D01*
X159345265Y-125948885D01*
X159301242Y-125986485D01*
X159244947Y-126000000D01*
X157999998Y-126000000D01*
X157979975Y-126020024D01*
X157924387Y-126052117D01*
X157860201Y-126052117D01*
X157804614Y-126020023D01*
X156284591Y-124500000D01*
X166094540Y-124500000D01*
X166114326Y-124688257D01*
X166172820Y-124868284D01*
X166267466Y-125032216D01*
X166394129Y-125172889D01*
X166547269Y-125284151D01*
X166720197Y-125361144D01*
X166905352Y-125400500D01*
X166905354Y-125400500D01*
X167094646Y-125400500D01*
X167094648Y-125400500D01*
X167218084Y-125374262D01*
X167279803Y-125361144D01*
X167452730Y-125284151D01*
X167605871Y-125172888D01*
X167732533Y-125032216D01*
X167827179Y-124868284D01*
X167885674Y-124688256D01*
X167905460Y-124500000D01*
X167885674Y-124311744D01*
X167827179Y-124131716D01*
X167827179Y-124131715D01*
X167732535Y-123967786D01*
X167719427Y-123953229D01*
X167657347Y-123884282D01*
X167633736Y-123845751D01*
X167625500Y-123801313D01*
X167625500Y-119700000D01*
X169294540Y-119700000D01*
X169314326Y-119888257D01*
X169372820Y-120068284D01*
X169467466Y-120232216D01*
X169594129Y-120372889D01*
X169747269Y-120484151D01*
X169920197Y-120561144D01*
X170105352Y-120600500D01*
X170105354Y-120600500D01*
X170294646Y-120600500D01*
X170294648Y-120600500D01*
X170418084Y-120574262D01*
X170479803Y-120561144D01*
X170652730Y-120484151D01*
X170652729Y-120484151D01*
X170805870Y-120372889D01*
X170932533Y-120232216D01*
X171027179Y-120068284D01*
X171061991Y-119961144D01*
X171085674Y-119888256D01*
X171105460Y-119700000D01*
X171085674Y-119511744D01*
X171027179Y-119331716D01*
X171027179Y-119331715D01*
X170932533Y-119167783D01*
X170805870Y-119027110D01*
X170652730Y-118915848D01*
X170479802Y-118838855D01*
X170294648Y-118799500D01*
X170294646Y-118799500D01*
X170105354Y-118799500D01*
X170105352Y-118799500D01*
X169920197Y-118838855D01*
X169747269Y-118915848D01*
X169594129Y-119027110D01*
X169467466Y-119167783D01*
X169372820Y-119331715D01*
X169314326Y-119511742D01*
X169294540Y-119700000D01*
X167625500Y-119700000D01*
X167625500Y-116610452D01*
X167634939Y-116562999D01*
X167661819Y-116522771D01*
X168947772Y-115236819D01*
X168988000Y-115209939D01*
X169035453Y-115200500D01*
X169094648Y-115200500D01*
X169218083Y-115174262D01*
X169279803Y-115161144D01*
X169452730Y-115084151D01*
X169523398Y-115032808D01*
X169605870Y-114972889D01*
X169741254Y-114822531D01*
X169742143Y-114823331D01*
X169768958Y-114794701D01*
X169821664Y-114774863D01*
X169877708Y-114780382D01*
X169925531Y-114810121D01*
X171338181Y-116222771D01*
X171365061Y-116262999D01*
X171374500Y-116310452D01*
X171374500Y-123901313D01*
X171366264Y-123945751D01*
X171342652Y-123984282D01*
X171309545Y-124021051D01*
X171267464Y-124067786D01*
X171172820Y-124231715D01*
X171114326Y-124411742D01*
X171094540Y-124600000D01*
X171114326Y-124788257D01*
X171172820Y-124968284D01*
X171267466Y-125132216D01*
X171394129Y-125272889D01*
X171547269Y-125384151D01*
X171720197Y-125461144D01*
X171905352Y-125500500D01*
X171905354Y-125500500D01*
X172094646Y-125500500D01*
X172094648Y-125500500D01*
X172218084Y-125474262D01*
X172279803Y-125461144D01*
X172452730Y-125384151D01*
X172605871Y-125272888D01*
X172732533Y-125132216D01*
X172827179Y-124968284D01*
X172885674Y-124788256D01*
X172905460Y-124600000D01*
X172885674Y-124411744D01*
X172827179Y-124231716D01*
X172827179Y-124231715D01*
X172732535Y-124067786D01*
X172719427Y-124053229D01*
X172657347Y-123984282D01*
X172633736Y-123945751D01*
X172625500Y-123901313D01*
X172625500Y-119099999D01*
X176194540Y-119099999D01*
X176214326Y-119288257D01*
X176272820Y-119468284D01*
X176367466Y-119632216D01*
X176494129Y-119772889D01*
X176647269Y-119884151D01*
X176820197Y-119961144D01*
X177005352Y-120000500D01*
X177005354Y-120000500D01*
X177194646Y-120000500D01*
X177194648Y-120000500D01*
X177318083Y-119974262D01*
X177379803Y-119961144D01*
X177552730Y-119884151D01*
X177705871Y-119772888D01*
X177832533Y-119632216D01*
X177927179Y-119468284D01*
X177985674Y-119288256D01*
X178005460Y-119100000D01*
X177985674Y-118911744D01*
X177955332Y-118818363D01*
X177927179Y-118731715D01*
X177832533Y-118567783D01*
X177705870Y-118427110D01*
X177552730Y-118315848D01*
X177379802Y-118238855D01*
X177194648Y-118199500D01*
X177194646Y-118199500D01*
X177005354Y-118199500D01*
X177005352Y-118199500D01*
X176820197Y-118238855D01*
X176647269Y-118315848D01*
X176494129Y-118427110D01*
X176367466Y-118567783D01*
X176272820Y-118731715D01*
X176214326Y-118911742D01*
X176194540Y-119099999D01*
X172625500Y-119099999D01*
X172625500Y-116082744D01*
X172627764Y-116062236D01*
X172627574Y-116056204D01*
X172625561Y-115992113D01*
X172625500Y-115988219D01*
X172625500Y-115960654D01*
X172625500Y-115960650D01*
X172624997Y-115956670D01*
X172624081Y-115945028D01*
X172622710Y-115901373D01*
X172617118Y-115882126D01*
X172613174Y-115863085D01*
X172610664Y-115843208D01*
X172594579Y-115802583D01*
X172590808Y-115791568D01*
X172578618Y-115749610D01*
X172568414Y-115732355D01*
X172559861Y-115714895D01*
X172552486Y-115696269D01*
X172552486Y-115696268D01*
X172526808Y-115660925D01*
X172520401Y-115651171D01*
X172498169Y-115613579D01*
X172484006Y-115599416D01*
X172471367Y-115584617D01*
X172459595Y-115568413D01*
X172425941Y-115540573D01*
X172417299Y-115532709D01*
X172134590Y-115250000D01*
X177275001Y-115250000D01*
X177275001Y-115304143D01*
X177285056Y-115402582D01*
X177337906Y-115562073D01*
X177426114Y-115705081D01*
X177544918Y-115823885D01*
X177687926Y-115912093D01*
X177847416Y-115964943D01*
X177945857Y-115975000D01*
X177962500Y-115975000D01*
X177962500Y-115974999D01*
X178462500Y-115974999D01*
X178479143Y-115974999D01*
X178577582Y-115964943D01*
X178737073Y-115912093D01*
X178880081Y-115823885D01*
X178911966Y-115792001D01*
X178967553Y-115759907D01*
X179031741Y-115759907D01*
X179087328Y-115792001D01*
X179119606Y-115824279D01*
X179119608Y-115824280D01*
X179119609Y-115824281D01*
X179262713Y-115912549D01*
X179342514Y-115938992D01*
X179422314Y-115965436D01*
X179520826Y-115975500D01*
X180054174Y-115975500D01*
X180152685Y-115965436D01*
X180214272Y-115945028D01*
X180312287Y-115912549D01*
X180359640Y-115883340D01*
X180403559Y-115866701D01*
X180450518Y-115867589D01*
X180605352Y-115900500D01*
X180605354Y-115900500D01*
X180794646Y-115900500D01*
X180794648Y-115900500D01*
X180956877Y-115866017D01*
X180979803Y-115861144D01*
X181152730Y-115784151D01*
X181186099Y-115759907D01*
X181305870Y-115672889D01*
X181432533Y-115532216D01*
X181527179Y-115368284D01*
X181527178Y-115368284D01*
X181585674Y-115188256D01*
X181605460Y-115000000D01*
X181585674Y-114811744D01*
X181527179Y-114631716D01*
X181527179Y-114631715D01*
X181432533Y-114467783D01*
X181305870Y-114327110D01*
X181152730Y-114215848D01*
X180979802Y-114138855D01*
X180794648Y-114099500D01*
X180794646Y-114099500D01*
X180605354Y-114099500D01*
X180605351Y-114099500D01*
X180450517Y-114132410D01*
X180403560Y-114133298D01*
X180359640Y-114116659D01*
X180351668Y-114111742D01*
X180312287Y-114087451D01*
X180312286Y-114087450D01*
X180312285Y-114087450D01*
X180152685Y-114034563D01*
X180054174Y-114024500D01*
X179520826Y-114024500D01*
X179422314Y-114034563D01*
X179262714Y-114087450D01*
X179119606Y-114175720D01*
X179087328Y-114207999D01*
X179031741Y-114240093D01*
X178967553Y-114240093D01*
X178911966Y-114207999D01*
X178880081Y-114176114D01*
X178737073Y-114087906D01*
X178577583Y-114035056D01*
X178479143Y-114025000D01*
X178462500Y-114025000D01*
X178462500Y-115974999D01*
X177962500Y-115974999D01*
X177962500Y-115250000D01*
X177275001Y-115250000D01*
X172134590Y-115250000D01*
X171634590Y-114750000D01*
X177275000Y-114750000D01*
X177962500Y-114750000D01*
X177962500Y-114025001D01*
X177945857Y-114025001D01*
X177847417Y-114035056D01*
X177687926Y-114087906D01*
X177544918Y-114176114D01*
X177426114Y-114294918D01*
X177337906Y-114437926D01*
X177285056Y-114597416D01*
X177275000Y-114695857D01*
X177275000Y-114750000D01*
X171634590Y-114750000D01*
X170238960Y-113354369D01*
X170214720Y-113320071D01*
X170203321Y-113279655D01*
X170185674Y-113111744D01*
X170127179Y-112931716D01*
X170127179Y-112931715D01*
X170032533Y-112767783D01*
X169905870Y-112627110D01*
X169752730Y-112515848D01*
X169579802Y-112438855D01*
X169394648Y-112399500D01*
X169394646Y-112399500D01*
X169205354Y-112399500D01*
X169205352Y-112399500D01*
X169020197Y-112438855D01*
X168847269Y-112515848D01*
X168694129Y-112627110D01*
X168567466Y-112767783D01*
X168472820Y-112931715D01*
X168414326Y-113111742D01*
X168394540Y-113300000D01*
X168414326Y-113488257D01*
X168420001Y-113505721D01*
X168423360Y-113569820D01*
X168394220Y-113627012D01*
X168394131Y-113627109D01*
X168394129Y-113627112D01*
X168337884Y-113689577D01*
X168267464Y-113767786D01*
X168172820Y-113931715D01*
X168114326Y-114111742D01*
X168096679Y-114279649D01*
X168085279Y-114320070D01*
X168061039Y-114354368D01*
X166616208Y-115799199D01*
X166600110Y-115812096D01*
X166552096Y-115863225D01*
X166549391Y-115866017D01*
X166529874Y-115885534D01*
X166527415Y-115888705D01*
X166519842Y-115897572D01*
X166489935Y-115929420D01*
X166480285Y-115946974D01*
X166469609Y-115963228D01*
X166457326Y-115979063D01*
X166439975Y-116019158D01*
X166434838Y-116029644D01*
X166413802Y-116067907D01*
X166408821Y-116087309D01*
X166402520Y-116105711D01*
X166394561Y-116124102D01*
X166387728Y-116167242D01*
X166385360Y-116178674D01*
X166374500Y-116220978D01*
X166374500Y-116241016D01*
X166372973Y-116260415D01*
X166369840Y-116280194D01*
X166373950Y-116323675D01*
X166374500Y-116335344D01*
X166374500Y-123801313D01*
X166366264Y-123845751D01*
X166342652Y-123884282D01*
X166327318Y-123901313D01*
X166267464Y-123967786D01*
X166172820Y-124131715D01*
X166114326Y-124311742D01*
X166094540Y-124500000D01*
X156284591Y-124500000D01*
X154161819Y-122377228D01*
X154134939Y-122337000D01*
X154125500Y-122289547D01*
X154125500Y-120400000D01*
X158494540Y-120400000D01*
X158514326Y-120588257D01*
X158572820Y-120768284D01*
X158667466Y-120932216D01*
X158794129Y-121072889D01*
X158947269Y-121184151D01*
X159120197Y-121261144D01*
X159305352Y-121300500D01*
X159305354Y-121300500D01*
X159494646Y-121300500D01*
X159494648Y-121300500D01*
X159618084Y-121274262D01*
X159679803Y-121261144D01*
X159852730Y-121184151D01*
X160005871Y-121072888D01*
X160132533Y-120932216D01*
X160227179Y-120768284D01*
X160285674Y-120588256D01*
X160305460Y-120400000D01*
X160285674Y-120211744D01*
X160227179Y-120031716D01*
X160227179Y-120031715D01*
X160132533Y-119867783D01*
X160005870Y-119727110D01*
X159852731Y-119615849D01*
X159846961Y-119613280D01*
X159801852Y-119579041D01*
X159776671Y-119528316D01*
X159776671Y-119471684D01*
X159801852Y-119420959D01*
X159846961Y-119386720D01*
X159849527Y-119385576D01*
X159852730Y-119384151D01*
X159929300Y-119328519D01*
X160005870Y-119272889D01*
X160132533Y-119132216D01*
X160227179Y-118968284D01*
X160244216Y-118915849D01*
X160285674Y-118788256D01*
X160305460Y-118600000D01*
X160285674Y-118411744D01*
X160227179Y-118231716D01*
X160227179Y-118231715D01*
X160132533Y-118067783D01*
X160005870Y-117927110D01*
X159852730Y-117815848D01*
X159679802Y-117738855D01*
X159494648Y-117699500D01*
X159494646Y-117699500D01*
X159305354Y-117699500D01*
X159305352Y-117699500D01*
X159120197Y-117738855D01*
X158947269Y-117815848D01*
X158794129Y-117927110D01*
X158667466Y-118067783D01*
X158572820Y-118231715D01*
X158514326Y-118411742D01*
X158494540Y-118600000D01*
X158514326Y-118788257D01*
X158572820Y-118968284D01*
X158667466Y-119132216D01*
X158794129Y-119272889D01*
X158947269Y-119384151D01*
X158953040Y-119386721D01*
X158998148Y-119420960D01*
X159023328Y-119471685D01*
X159023328Y-119528315D01*
X158998148Y-119579040D01*
X158953040Y-119613279D01*
X158947269Y-119615848D01*
X158794129Y-119727110D01*
X158667466Y-119867783D01*
X158572820Y-120031715D01*
X158514326Y-120211742D01*
X158494540Y-120400000D01*
X154125500Y-120400000D01*
X154125500Y-115250000D01*
X158425001Y-115250000D01*
X158425001Y-115304143D01*
X158435056Y-115402582D01*
X158487906Y-115562073D01*
X158576114Y-115705081D01*
X158694918Y-115823885D01*
X158837926Y-115912093D01*
X158997416Y-115964943D01*
X159095857Y-115975000D01*
X159112500Y-115975000D01*
X159112500Y-115974999D01*
X159612500Y-115974999D01*
X159629143Y-115974999D01*
X159727582Y-115964943D01*
X159887073Y-115912093D01*
X160030081Y-115823885D01*
X160061966Y-115792001D01*
X160117553Y-115759907D01*
X160181741Y-115759907D01*
X160237328Y-115792001D01*
X160269606Y-115824279D01*
X160269608Y-115824280D01*
X160269609Y-115824281D01*
X160412713Y-115912549D01*
X160492514Y-115938992D01*
X160572314Y-115965436D01*
X160670826Y-115975500D01*
X161204174Y-115975500D01*
X161302685Y-115965436D01*
X161317128Y-115960650D01*
X161462287Y-115912549D01*
X161522454Y-115875436D01*
X161566372Y-115858797D01*
X161613331Y-115859685D01*
X161805352Y-115900500D01*
X161805354Y-115900500D01*
X161994646Y-115900500D01*
X161994648Y-115900500D01*
X162156877Y-115866017D01*
X162179803Y-115861144D01*
X162352730Y-115784151D01*
X162386099Y-115759907D01*
X162505870Y-115672889D01*
X162632533Y-115532216D01*
X162727179Y-115368284D01*
X162727178Y-115368284D01*
X162785674Y-115188256D01*
X162805460Y-115000000D01*
X162785674Y-114811744D01*
X162727179Y-114631716D01*
X162727179Y-114631715D01*
X162632533Y-114467783D01*
X162505870Y-114327110D01*
X162352730Y-114215848D01*
X162179802Y-114138855D01*
X161994648Y-114099500D01*
X161994646Y-114099500D01*
X161805354Y-114099500D01*
X161805351Y-114099500D01*
X161613331Y-114140314D01*
X161566374Y-114141202D01*
X161522454Y-114124562D01*
X161462289Y-114087451D01*
X161302685Y-114034563D01*
X161204174Y-114024500D01*
X160670826Y-114024500D01*
X160572314Y-114034563D01*
X160412714Y-114087450D01*
X160269606Y-114175720D01*
X160237328Y-114207999D01*
X160181741Y-114240093D01*
X160117553Y-114240093D01*
X160061966Y-114207999D01*
X160030081Y-114176114D01*
X159887073Y-114087906D01*
X159727583Y-114035056D01*
X159629143Y-114025000D01*
X159612500Y-114025000D01*
X159612500Y-115974999D01*
X159112500Y-115974999D01*
X159112500Y-115250000D01*
X158425001Y-115250000D01*
X154125500Y-115250000D01*
X154125500Y-114750000D01*
X158425000Y-114750000D01*
X159112500Y-114750000D01*
X159112500Y-114025001D01*
X159095857Y-114025001D01*
X158997417Y-114035056D01*
X158837926Y-114087906D01*
X158694918Y-114176114D01*
X158576114Y-114294918D01*
X158487906Y-114437926D01*
X158435056Y-114597416D01*
X158425000Y-114695857D01*
X158425000Y-114750000D01*
X154125500Y-114750000D01*
X154125500Y-110994944D01*
X154142858Y-110931670D01*
X154190073Y-110886112D01*
X154253926Y-110871023D01*
X154316540Y-110890629D01*
X154375219Y-110928340D01*
X154424936Y-110960291D01*
X154615618Y-111036629D01*
X154817302Y-111075500D01*
X154971227Y-111075500D01*
X154971232Y-111075500D01*
X155124466Y-111060868D01*
X155321541Y-111003001D01*
X155504104Y-110908884D01*
X155665556Y-110781916D01*
X155800061Y-110626689D01*
X155902759Y-110448811D01*
X155969937Y-110254712D01*
X155995963Y-110073697D01*
X157795807Y-110073697D01*
X157825296Y-110366827D01*
X157893592Y-110653413D01*
X157999477Y-110928338D01*
X158141063Y-111186699D01*
X158315822Y-111423884D01*
X158520635Y-111635658D01*
X158751845Y-111818244D01*
X158858500Y-111881415D01*
X159005331Y-111968383D01*
X159276566Y-112083397D01*
X159276567Y-112083397D01*
X159276569Y-112083398D01*
X159339194Y-112100552D01*
X159560710Y-112161232D01*
X159852694Y-112200500D01*
X160073571Y-112200500D01*
X160073573Y-112200500D01*
X160293955Y-112185747D01*
X160414573Y-112161230D01*
X160582663Y-112127064D01*
X160860974Y-112030424D01*
X161123921Y-111897551D01*
X161366812Y-111730816D01*
X161585312Y-111533195D01*
X161775522Y-111308213D01*
X161934047Y-111059887D01*
X162058060Y-110792647D01*
X162145346Y-110511262D01*
X162194349Y-110220754D01*
X162204193Y-109926306D01*
X162174704Y-109633173D01*
X162106407Y-109346586D01*
X162065389Y-109240085D01*
X162000522Y-109071661D01*
X161858936Y-108813300D01*
X161828386Y-108771837D01*
X161684178Y-108576116D01*
X161479365Y-108364342D01*
X161479364Y-108364341D01*
X161248154Y-108181755D01*
X161002896Y-108036490D01*
X160994669Y-108031617D01*
X160817104Y-107956322D01*
X160723430Y-107916601D01*
X160439294Y-107838769D01*
X160439293Y-107838768D01*
X160439290Y-107838768D01*
X160147306Y-107799500D01*
X159926429Y-107799500D01*
X159926427Y-107799500D01*
X159706044Y-107814252D01*
X159417338Y-107872935D01*
X159139022Y-107969577D01*
X158876081Y-108102447D01*
X158633187Y-108269184D01*
X158414689Y-108466803D01*
X158224478Y-108691786D01*
X158065951Y-108940115D01*
X157952706Y-109184153D01*
X157941940Y-109207353D01*
X157925983Y-109258791D01*
X157854654Y-109488737D01*
X157811379Y-109745287D01*
X157805651Y-109779246D01*
X157799990Y-109948591D01*
X157795807Y-110073697D01*
X155995963Y-110073697D01*
X155999168Y-110051407D01*
X155989395Y-109846244D01*
X155940971Y-109646638D01*
X155855647Y-109459804D01*
X155761407Y-109327462D01*
X155739812Y-109274096D01*
X155744645Y-109216727D01*
X155774866Y-109167724D01*
X155823960Y-109137651D01*
X155881343Y-109132990D01*
X156059445Y-109160500D01*
X156255177Y-109160500D01*
X156255179Y-109160500D01*
X156279536Y-109158629D01*
X156450344Y-109145516D01*
X156704586Y-109086021D01*
X156851384Y-109026856D01*
X156946762Y-108988416D01*
X156946764Y-108988414D01*
X156946766Y-108988414D01*
X157171208Y-108854982D01*
X157372652Y-108688852D01*
X157546375Y-108493920D01*
X157688306Y-108274753D01*
X157795118Y-108036489D01*
X157864307Y-107784713D01*
X157894252Y-107525325D01*
X157884251Y-107264407D01*
X157834538Y-107008073D01*
X157746279Y-106762332D01*
X157621541Y-106532943D01*
X157621539Y-106532939D01*
X157463250Y-106325284D01*
X157275112Y-106144220D01*
X157061546Y-105994002D01*
X156827546Y-105878140D01*
X156578608Y-105799359D01*
X156417562Y-105774484D01*
X156320555Y-105759500D01*
X156124823Y-105759500D01*
X156124821Y-105759500D01*
X155929656Y-105774484D01*
X155675412Y-105833979D01*
X155433237Y-105931583D01*
X155208791Y-106065017D01*
X155007346Y-106231148D01*
X154833622Y-106426082D01*
X154691693Y-106645247D01*
X154584881Y-106883509D01*
X154515693Y-107135283D01*
X154485747Y-107394675D01*
X154494226Y-107615849D01*
X154495749Y-107655593D01*
X154542921Y-107898827D01*
X154545463Y-107911930D01*
X154633719Y-108157664D01*
X154758460Y-108387060D01*
X154916749Y-108594715D01*
X155037738Y-108711155D01*
X155069083Y-108760379D01*
X155074441Y-108818489D01*
X155052627Y-108872615D01*
X155008471Y-108910768D01*
X154951753Y-108924500D01*
X154868768Y-108924500D01*
X154772996Y-108933645D01*
X154715531Y-108939132D01*
X154518460Y-108996998D01*
X154335897Y-109091115D01*
X154334146Y-109092491D01*
X154326150Y-109098780D01*
X154262756Y-109124598D01*
X154195319Y-109112846D01*
X154144394Y-109067103D01*
X154125500Y-109001309D01*
X154125500Y-104854675D01*
X160835747Y-104854675D01*
X160844701Y-105088256D01*
X160845749Y-105115593D01*
X160889103Y-105339140D01*
X160895463Y-105371930D01*
X160983719Y-105617664D01*
X161108460Y-105847060D01*
X161266749Y-106054715D01*
X161266750Y-106054716D01*
X161313284Y-106099500D01*
X161454887Y-106235779D01*
X161582137Y-106325284D01*
X161668456Y-106385999D01*
X161902452Y-106501858D01*
X161902453Y-106501859D01*
X162151391Y-106580640D01*
X162151392Y-106580640D01*
X162151395Y-106580641D01*
X162409445Y-106620500D01*
X162605177Y-106620500D01*
X162605179Y-106620500D01*
X162629536Y-106618629D01*
X162800344Y-106605516D01*
X163054586Y-106546021D01*
X163248706Y-106467784D01*
X163296762Y-106448416D01*
X163296764Y-106448414D01*
X163296766Y-106448414D01*
X163521208Y-106314982D01*
X163722652Y-106148852D01*
X163896375Y-105953920D01*
X164038306Y-105734753D01*
X164091712Y-105615620D01*
X164145118Y-105496490D01*
X164203849Y-105282768D01*
X164214307Y-105244713D01*
X164244252Y-104985325D01*
X164234251Y-104724407D01*
X164184538Y-104468073D01*
X164096279Y-104222332D01*
X163992897Y-104032216D01*
X163971539Y-103992939D01*
X163813250Y-103785284D01*
X163625112Y-103604220D01*
X163411546Y-103454002D01*
X163177546Y-103338140D01*
X162928608Y-103259359D01*
X162767562Y-103234484D01*
X162670555Y-103219500D01*
X162474823Y-103219500D01*
X162474821Y-103219500D01*
X162279656Y-103234484D01*
X162025412Y-103293979D01*
X161783237Y-103391583D01*
X161558791Y-103525017D01*
X161357346Y-103691148D01*
X161183622Y-103886082D01*
X161041693Y-104105247D01*
X160934881Y-104343509D01*
X160865693Y-104595283D01*
X160835747Y-104854675D01*
X154125500Y-104854675D01*
X154125500Y-102660452D01*
X154134939Y-102612999D01*
X154161819Y-102572771D01*
X155563224Y-101171366D01*
X156983789Y-99750800D01*
X156999885Y-99737906D01*
X157001873Y-99735787D01*
X157001877Y-99735786D01*
X157047948Y-99686723D01*
X157050566Y-99684023D01*
X157070120Y-99664471D01*
X157072581Y-99661298D01*
X157080156Y-99652427D01*
X157110062Y-99620582D01*
X157119712Y-99603027D01*
X157130400Y-99586757D01*
X157142671Y-99570938D01*
X157142673Y-99570936D01*
X157160026Y-99530832D01*
X157165157Y-99520362D01*
X157186197Y-99482092D01*
X157191175Y-99462699D01*
X157197481Y-99444282D01*
X157200669Y-99436916D01*
X157205438Y-99425896D01*
X157212272Y-99382745D01*
X157214635Y-99371331D01*
X157225500Y-99329019D01*
X157225500Y-99308984D01*
X157227027Y-99289585D01*
X157227237Y-99288257D01*
X157230160Y-99269804D01*
X157226050Y-99226325D01*
X157225500Y-99214656D01*
X157225500Y-93310452D01*
X157234939Y-93262999D01*
X157261819Y-93222771D01*
X157684590Y-92800000D01*
X158107707Y-92376881D01*
X158160452Y-92345587D01*
X158221745Y-92343398D01*
X158276589Y-92370851D01*
X158311569Y-92421230D01*
X158356647Y-92542088D01*
X158442811Y-92657188D01*
X158557910Y-92743352D01*
X158692624Y-92793597D01*
X158752176Y-92800000D01*
X159300000Y-92800000D01*
X159300000Y-92100000D01*
X159800000Y-92100000D01*
X159800000Y-92800000D01*
X160347824Y-92800000D01*
X160407375Y-92793597D01*
X160542089Y-92743352D01*
X160657188Y-92657188D01*
X160743352Y-92542089D01*
X160793597Y-92407375D01*
X160800000Y-92347824D01*
X160800000Y-92100000D01*
X159800000Y-92100000D01*
X159300000Y-92100000D01*
X159300000Y-91724000D01*
X159316613Y-91662000D01*
X159362000Y-91616613D01*
X159424000Y-91600000D01*
X160800000Y-91600000D01*
X160800000Y-91352176D01*
X160793597Y-91292624D01*
X160743352Y-91157910D01*
X160657188Y-91042811D01*
X160542089Y-90956647D01*
X160407375Y-90906402D01*
X160347824Y-90900000D01*
X159883951Y-90900000D01*
X159827656Y-90886485D01*
X159783633Y-90848885D01*
X159761478Y-90795398D01*
X159766020Y-90737682D01*
X159796270Y-90688319D01*
X160670787Y-89813802D01*
X161546836Y-88937752D01*
X161593560Y-88908394D01*
X161648398Y-88902215D01*
X161700487Y-88920441D01*
X161739507Y-88959461D01*
X161809523Y-89070890D01*
X161929110Y-89190477D01*
X162072310Y-89280456D01*
X162231941Y-89336313D01*
X162400000Y-89355249D01*
X162568059Y-89336313D01*
X162727690Y-89280456D01*
X162831081Y-89215490D01*
X162883166Y-89197265D01*
X162938003Y-89203442D01*
X163031941Y-89236313D01*
X163200000Y-89255249D01*
X163368059Y-89236313D01*
X163527690Y-89180456D01*
X163670890Y-89090477D01*
X163790477Y-88970890D01*
X163880456Y-88827690D01*
X163936313Y-88668059D01*
X163955249Y-88500000D01*
X163936313Y-88331941D01*
X163880456Y-88172310D01*
X163819505Y-88075308D01*
X163800500Y-88009337D01*
X163800500Y-88000097D01*
X163809939Y-87952644D01*
X163836819Y-87912416D01*
X164223861Y-87525374D01*
X165391043Y-86358190D01*
X165403223Y-86347509D01*
X165428282Y-86328282D01*
X165524536Y-86202841D01*
X165585044Y-86056762D01*
X165600500Y-85939361D01*
X165605682Y-85900000D01*
X165601560Y-85868697D01*
X165600500Y-85852513D01*
X165600500Y-84508175D01*
X165617113Y-84446175D01*
X165662500Y-84400788D01*
X165724500Y-84384175D01*
X165755785Y-84384175D01*
X165803238Y-84393614D01*
X165843465Y-84420493D01*
X166403142Y-84980171D01*
X166956758Y-85533787D01*
X166969658Y-85549888D01*
X167020785Y-85597900D01*
X167023582Y-85600611D01*
X167043091Y-85620120D01*
X167046273Y-85622588D01*
X167055133Y-85630155D01*
X167077597Y-85651251D01*
X167086980Y-85660062D01*
X167104532Y-85669711D01*
X167120800Y-85680397D01*
X167136626Y-85692673D01*
X167176708Y-85710017D01*
X167187195Y-85715155D01*
X167225469Y-85736197D01*
X167233972Y-85738379D01*
X167244870Y-85741178D01*
X167263275Y-85747478D01*
X167281666Y-85755437D01*
X167324812Y-85762270D01*
X167336230Y-85764635D01*
X167378543Y-85775500D01*
X167398578Y-85775500D01*
X167417977Y-85777027D01*
X167437758Y-85780160D01*
X167481236Y-85776050D01*
X167492906Y-85775500D01*
X167880419Y-85775500D01*
X167946129Y-85794342D01*
X167991869Y-85845141D01*
X168003740Y-85912460D01*
X167994540Y-85999999D01*
X168006731Y-86115996D01*
X167994928Y-86183176D01*
X167949382Y-86233950D01*
X167924768Y-86249417D01*
X167829108Y-86309524D01*
X167709524Y-86429108D01*
X167619544Y-86572310D01*
X167563686Y-86731943D01*
X167544750Y-86899999D01*
X167563686Y-87068056D01*
X167563686Y-87068058D01*
X167563687Y-87068059D01*
X167619544Y-87227690D01*
X167620125Y-87228614D01*
X167638350Y-87280702D01*
X167632171Y-87335540D01*
X167602811Y-87382266D01*
X166708965Y-88276113D01*
X166696774Y-88286805D01*
X166671720Y-88306030D01*
X166671717Y-88306033D01*
X166671718Y-88306033D01*
X166610292Y-88386085D01*
X166588610Y-88414340D01*
X166575462Y-88431476D01*
X166514956Y-88577552D01*
X166494317Y-88734314D01*
X166498439Y-88765616D01*
X166499500Y-88781802D01*
X166499500Y-89314853D01*
X166490061Y-89362306D01*
X166463181Y-89402534D01*
X165808965Y-90056748D01*
X165796774Y-90067440D01*
X165771721Y-90086665D01*
X165771719Y-90086666D01*
X165771718Y-90086668D01*
X165684760Y-90199994D01*
X165684759Y-90199995D01*
X165675463Y-90212109D01*
X165614956Y-90358187D01*
X165594317Y-90514949D01*
X165598439Y-90546251D01*
X165599500Y-90562437D01*
X165599500Y-90836231D01*
X165585376Y-90893706D01*
X165546220Y-90938087D01*
X165490954Y-90959264D01*
X165432167Y-90952413D01*
X165307485Y-90905909D01*
X165287612Y-90903772D01*
X165247873Y-90899500D01*
X165247869Y-90899500D01*
X163652130Y-90899500D01*
X163592515Y-90905909D01*
X163457667Y-90956204D01*
X163337819Y-91045922D01*
X163285401Y-91068707D01*
X163228331Y-91065560D01*
X163178735Y-91037151D01*
X163147151Y-90989514D01*
X163140289Y-90932771D01*
X163142781Y-90910654D01*
X163155249Y-90800000D01*
X163154730Y-90795398D01*
X163143938Y-90699611D01*
X163136313Y-90631941D01*
X163080456Y-90472310D01*
X162990477Y-90329110D01*
X162870890Y-90209523D01*
X162727690Y-90119544D01*
X162568059Y-90063687D01*
X162568058Y-90063686D01*
X162568056Y-90063686D01*
X162400000Y-90044750D01*
X162231943Y-90063686D01*
X162072310Y-90119544D01*
X161929108Y-90209524D01*
X161809524Y-90329108D01*
X161719544Y-90472310D01*
X161663686Y-90631943D01*
X161644750Y-90799999D01*
X161663686Y-90968056D01*
X161663686Y-90968058D01*
X161663687Y-90968059D01*
X161719544Y-91127690D01*
X161809523Y-91270890D01*
X161929110Y-91390477D01*
X162072310Y-91480456D01*
X162231941Y-91536313D01*
X162400000Y-91555249D01*
X162568059Y-91536313D01*
X162727690Y-91480456D01*
X162870890Y-91390477D01*
X162987823Y-91273543D01*
X163037182Y-91243297D01*
X163094898Y-91238755D01*
X163148385Y-91260910D01*
X163185985Y-91304933D01*
X163199500Y-91361228D01*
X163199500Y-92238771D01*
X163185985Y-92295066D01*
X163148385Y-92339089D01*
X163094898Y-92361244D01*
X163037182Y-92356702D01*
X162987819Y-92326452D01*
X162870891Y-92209524D01*
X162870890Y-92209523D01*
X162727690Y-92119544D01*
X162568059Y-92063687D01*
X162568058Y-92063686D01*
X162568056Y-92063686D01*
X162400000Y-92044750D01*
X162231943Y-92063686D01*
X162072310Y-92119544D01*
X161929108Y-92209524D01*
X161809524Y-92329108D01*
X161719544Y-92472310D01*
X161663686Y-92631943D01*
X161644750Y-92800000D01*
X161663686Y-92968056D01*
X161663686Y-92968058D01*
X161663687Y-92968059D01*
X161719544Y-93127690D01*
X161809523Y-93270890D01*
X161929110Y-93390477D01*
X162072310Y-93480456D01*
X162231941Y-93536313D01*
X162400000Y-93555249D01*
X162568059Y-93536313D01*
X162727690Y-93480456D01*
X162870890Y-93390477D01*
X162990477Y-93270890D01*
X163080456Y-93127690D01*
X163136313Y-92968059D01*
X163147022Y-92873018D01*
X163155249Y-92800003D01*
X163155249Y-92800000D01*
X163152594Y-92776439D01*
X163159455Y-92719699D01*
X163191039Y-92672062D01*
X163240635Y-92643651D01*
X163297705Y-92640504D01*
X163350124Y-92663289D01*
X163438764Y-92729644D01*
X163457669Y-92743796D01*
X163592517Y-92794091D01*
X163652127Y-92800500D01*
X163765548Y-92800499D01*
X163821840Y-92814014D01*
X163865864Y-92851613D01*
X163888019Y-92905101D01*
X163883477Y-92962817D01*
X163853227Y-93012180D01*
X162393188Y-94472219D01*
X162332873Y-94505480D01*
X162264115Y-94501425D01*
X162208127Y-94461305D01*
X162182187Y-94397502D01*
X162173174Y-94311744D01*
X162136704Y-94199501D01*
X162114679Y-94131715D01*
X162020033Y-93967783D01*
X161893370Y-93827110D01*
X161740230Y-93715848D01*
X161567302Y-93638855D01*
X161382148Y-93599500D01*
X161382146Y-93599500D01*
X161192854Y-93599500D01*
X161192852Y-93599500D01*
X161007697Y-93638855D01*
X160834769Y-93715848D01*
X160681629Y-93827110D01*
X160554965Y-93967785D01*
X160456982Y-94137499D01*
X160411595Y-94182887D01*
X160349595Y-94199500D01*
X159371527Y-94199500D01*
X159305555Y-94180494D01*
X159259807Y-94129301D01*
X159248307Y-94061616D01*
X159255249Y-94000000D01*
X159248360Y-93938856D01*
X159236313Y-93831941D01*
X159180456Y-93672310D01*
X159090477Y-93529110D01*
X158970890Y-93409523D01*
X158827690Y-93319544D01*
X158668059Y-93263687D01*
X158668058Y-93263686D01*
X158668056Y-93263686D01*
X158500000Y-93244750D01*
X158331943Y-93263686D01*
X158172310Y-93319544D01*
X158029108Y-93409524D01*
X157909524Y-93529108D01*
X157819544Y-93672310D01*
X157763686Y-93831943D01*
X157744750Y-94000000D01*
X157763686Y-94168056D01*
X157763686Y-94168058D01*
X157763687Y-94168059D01*
X157819544Y-94327690D01*
X157909523Y-94470890D01*
X158029110Y-94590477D01*
X158172310Y-94680456D01*
X158216455Y-94695902D01*
X158259841Y-94722045D01*
X158289154Y-94763357D01*
X158299500Y-94812944D01*
X158299500Y-95647869D01*
X158305909Y-95707484D01*
X158322878Y-95752979D01*
X158356204Y-95842331D01*
X158442454Y-95957546D01*
X158557669Y-96043796D01*
X158692517Y-96094091D01*
X158752127Y-96100500D01*
X160347872Y-96100499D01*
X160407483Y-96094091D01*
X160542331Y-96043796D01*
X160642929Y-95968488D01*
X160698750Y-95945142D01*
X160758976Y-95950991D01*
X160809262Y-95984645D01*
X160837637Y-96038088D01*
X160837342Y-96098596D01*
X160833821Y-96112308D01*
X160827520Y-96130711D01*
X160819561Y-96149102D01*
X160812728Y-96192242D01*
X160810360Y-96203674D01*
X160799500Y-96245978D01*
X160799500Y-96266016D01*
X160797973Y-96285415D01*
X160794840Y-96305194D01*
X160798950Y-96348675D01*
X160799500Y-96360344D01*
X160799500Y-98575500D01*
X160782887Y-98637500D01*
X160737500Y-98682887D01*
X160675500Y-98699500D01*
X160303239Y-98699500D01*
X160243258Y-98684028D01*
X160198246Y-98641472D01*
X160190480Y-98629113D01*
X160136867Y-98575500D01*
X160070890Y-98509523D01*
X159927690Y-98419544D01*
X159768059Y-98363687D01*
X159768058Y-98363686D01*
X159768056Y-98363686D01*
X159600000Y-98344750D01*
X159431943Y-98363686D01*
X159272310Y-98419544D01*
X159129108Y-98509524D01*
X159009524Y-98629108D01*
X158919544Y-98772310D01*
X158863686Y-98931943D01*
X158844750Y-99099999D01*
X158863686Y-99268056D01*
X158863686Y-99268058D01*
X158863687Y-99268059D01*
X158919544Y-99427690D01*
X159009523Y-99570890D01*
X159129110Y-99690477D01*
X159272310Y-99780456D01*
X159431941Y-99836313D01*
X159434410Y-99836591D01*
X159444791Y-99840809D01*
X159445131Y-99840928D01*
X159445125Y-99840944D01*
X159496536Y-99861834D01*
X159501379Y-99865590D01*
X159504064Y-99867673D01*
X159528909Y-99878424D01*
X159544152Y-99885021D01*
X159554631Y-99890154D01*
X159592908Y-99911197D01*
X159612306Y-99916177D01*
X159630708Y-99922477D01*
X159649104Y-99930438D01*
X159692261Y-99937273D01*
X159703664Y-99939634D01*
X159745981Y-99950500D01*
X159766016Y-99950500D01*
X159785413Y-99952026D01*
X159805196Y-99955160D01*
X159848674Y-99951050D01*
X159860344Y-99950500D01*
X160769560Y-99950500D01*
X160819147Y-99960846D01*
X160860458Y-99990159D01*
X160886600Y-100033542D01*
X160919544Y-100127690D01*
X161009523Y-100270890D01*
X161129110Y-100390477D01*
X161272310Y-100480456D01*
X161431941Y-100536313D01*
X161600000Y-100555249D01*
X161768059Y-100536313D01*
X161927690Y-100480456D01*
X161984904Y-100444505D01*
X162050876Y-100425500D01*
X162783983Y-100425500D01*
X162804489Y-100427764D01*
X162807392Y-100427672D01*
X162807394Y-100427673D01*
X162874599Y-100425561D01*
X162878495Y-100425500D01*
X162906076Y-100425500D01*
X162906077Y-100425500D01*
X162910046Y-100424998D01*
X162921692Y-100424080D01*
X162965354Y-100422709D01*
X162984586Y-100417120D01*
X163003645Y-100413174D01*
X163009923Y-100412381D01*
X163023519Y-100410664D01*
X163064134Y-100394582D01*
X163075171Y-100390803D01*
X163117117Y-100378618D01*
X163134356Y-100368422D01*
X163151829Y-100359862D01*
X163170459Y-100352486D01*
X163205791Y-100326814D01*
X163215557Y-100320400D01*
X163248691Y-100300805D01*
X163253147Y-100298170D01*
X163267312Y-100284004D01*
X163282100Y-100271373D01*
X163298314Y-100259594D01*
X163326165Y-100225926D01*
X163334006Y-100217309D01*
X165899535Y-97651780D01*
X165957215Y-97619146D01*
X166023467Y-97620881D01*
X166079363Y-97656489D01*
X166094131Y-97672890D01*
X166247269Y-97784151D01*
X166420197Y-97861144D01*
X166605352Y-97900500D01*
X166605354Y-97900500D01*
X166794646Y-97900500D01*
X166794648Y-97900500D01*
X166958660Y-97865638D01*
X166979803Y-97861144D01*
X167152730Y-97784151D01*
X167267482Y-97700779D01*
X167305870Y-97672889D01*
X167432533Y-97532216D01*
X167527179Y-97368284D01*
X167540004Y-97328814D01*
X167585674Y-97188256D01*
X167605460Y-97000000D01*
X167599416Y-96942495D01*
X167610539Y-96876739D01*
X167654117Y-96826254D01*
X167717545Y-96805645D01*
X167782475Y-96820874D01*
X167830124Y-96867537D01*
X167867465Y-96932214D01*
X167994129Y-97072889D01*
X168123385Y-97166798D01*
X168160985Y-97210821D01*
X168174500Y-97267116D01*
X168174500Y-97789547D01*
X168165061Y-97837000D01*
X168138181Y-97877228D01*
X165977228Y-100038181D01*
X165937000Y-100065061D01*
X165889547Y-100074500D01*
X165403747Y-100074500D01*
X165353312Y-100063780D01*
X165311598Y-100033473D01*
X165305871Y-100027112D01*
X165152730Y-99915849D01*
X165152729Y-99915848D01*
X165152727Y-99915847D01*
X164979802Y-99838855D01*
X164794648Y-99799500D01*
X164794646Y-99799500D01*
X164605354Y-99799500D01*
X164605352Y-99799500D01*
X164420197Y-99838855D01*
X164247269Y-99915848D01*
X164094129Y-100027110D01*
X163967466Y-100167783D01*
X163872820Y-100331715D01*
X163814326Y-100511742D01*
X163794540Y-100700000D01*
X163814326Y-100888257D01*
X163872820Y-101068284D01*
X163967466Y-101232216D01*
X164094129Y-101372889D01*
X164247269Y-101484151D01*
X164420197Y-101561144D01*
X164605352Y-101600500D01*
X164605354Y-101600500D01*
X164794646Y-101600500D01*
X164794648Y-101600500D01*
X164918084Y-101574262D01*
X164979803Y-101561144D01*
X165152730Y-101484151D01*
X165305871Y-101372888D01*
X165311598Y-101366526D01*
X165353312Y-101336220D01*
X165403747Y-101325500D01*
X166117256Y-101325500D01*
X166137762Y-101327764D01*
X166140665Y-101327672D01*
X166140667Y-101327673D01*
X166207872Y-101325561D01*
X166211768Y-101325500D01*
X166239349Y-101325500D01*
X166239350Y-101325500D01*
X166243319Y-101324998D01*
X166254965Y-101324080D01*
X166298627Y-101322709D01*
X166317859Y-101317120D01*
X166336918Y-101313174D01*
X166343196Y-101312381D01*
X166356792Y-101310664D01*
X166397407Y-101294582D01*
X166408444Y-101290803D01*
X166450390Y-101278618D01*
X166467629Y-101268422D01*
X166485102Y-101259862D01*
X166503732Y-101252486D01*
X166539064Y-101226814D01*
X166548830Y-101220400D01*
X166550622Y-101219340D01*
X166586420Y-101198170D01*
X166600585Y-101184004D01*
X166615373Y-101171373D01*
X166631587Y-101159594D01*
X166659438Y-101125926D01*
X166667279Y-101117309D01*
X169183789Y-98600800D01*
X169199885Y-98587906D01*
X169201873Y-98585787D01*
X169201877Y-98585786D01*
X169247948Y-98536723D01*
X169250566Y-98534023D01*
X169270120Y-98514471D01*
X169272581Y-98511298D01*
X169280156Y-98502427D01*
X169310062Y-98470582D01*
X169319717Y-98453018D01*
X169330394Y-98436764D01*
X169342673Y-98420936D01*
X169360018Y-98380852D01*
X169365160Y-98370356D01*
X169386197Y-98332092D01*
X169391179Y-98312684D01*
X169397481Y-98294280D01*
X169405437Y-98275896D01*
X169412269Y-98232752D01*
X169414633Y-98221338D01*
X169425500Y-98179019D01*
X169425500Y-98158984D01*
X169427027Y-98139585D01*
X169427068Y-98139321D01*
X169430160Y-98119804D01*
X169426050Y-98076325D01*
X169425500Y-98064656D01*
X169425500Y-97100000D01*
X170194540Y-97100000D01*
X170214326Y-97288257D01*
X170272820Y-97468284D01*
X170367466Y-97632216D01*
X170494129Y-97772889D01*
X170647269Y-97884151D01*
X170820197Y-97961144D01*
X171005352Y-98000500D01*
X171005354Y-98000500D01*
X171194646Y-98000500D01*
X171194648Y-98000500D01*
X171318084Y-97974262D01*
X171379803Y-97961144D01*
X171552730Y-97884151D01*
X171617628Y-97837000D01*
X171705870Y-97772889D01*
X171832533Y-97632216D01*
X171927179Y-97468284D01*
X171929960Y-97459726D01*
X171985674Y-97288256D01*
X172005460Y-97100000D01*
X171985674Y-96911744D01*
X171947121Y-96793090D01*
X171927179Y-96731715D01*
X171832533Y-96567783D01*
X171705870Y-96427110D01*
X171552730Y-96315848D01*
X171379802Y-96238855D01*
X171194648Y-96199500D01*
X171194646Y-96199500D01*
X171005354Y-96199500D01*
X171005352Y-96199500D01*
X170820197Y-96238855D01*
X170647269Y-96315848D01*
X170494129Y-96427110D01*
X170367466Y-96567783D01*
X170272820Y-96731715D01*
X170214326Y-96911742D01*
X170194540Y-97100000D01*
X169425500Y-97100000D01*
X169425500Y-96793090D01*
X169431569Y-96754772D01*
X169437921Y-96735223D01*
X169485674Y-96588256D01*
X169505460Y-96400000D01*
X169485674Y-96211744D01*
X169479836Y-96193779D01*
X169476124Y-96131408D01*
X169503297Y-96075143D01*
X169529678Y-96056645D01*
X169528058Y-96054481D01*
X169621346Y-95984645D01*
X169657546Y-95957546D01*
X169743796Y-95842331D01*
X169794091Y-95707483D01*
X169800500Y-95647873D01*
X169800499Y-94652128D01*
X169794091Y-94592517D01*
X169743796Y-94457669D01*
X169657546Y-94342454D01*
X169542331Y-94256204D01*
X169407483Y-94205909D01*
X169347873Y-94199500D01*
X169347869Y-94199500D01*
X167752130Y-94199500D01*
X167692515Y-94205909D01*
X167557669Y-94256204D01*
X167442451Y-94342455D01*
X167435991Y-94351086D01*
X167380058Y-94392955D01*
X167310367Y-94397939D01*
X167249045Y-94364454D01*
X166761819Y-93877228D01*
X166734939Y-93837000D01*
X166725500Y-93789547D01*
X166725500Y-93563076D01*
X166744506Y-93497104D01*
X166795699Y-93451356D01*
X166863384Y-93439856D01*
X167000000Y-93455249D01*
X167168059Y-93436313D01*
X167327690Y-93380456D01*
X167470890Y-93290477D01*
X167590477Y-93170890D01*
X167680456Y-93027690D01*
X167685883Y-93012180D01*
X167731070Y-92883045D01*
X167757213Y-92839659D01*
X167798524Y-92810346D01*
X167848111Y-92800000D01*
X168300000Y-92800000D01*
X168300000Y-92100000D01*
X168800000Y-92100000D01*
X168800000Y-92800000D01*
X169347824Y-92800000D01*
X169407375Y-92793597D01*
X169542089Y-92743352D01*
X169657188Y-92657188D01*
X169743352Y-92542089D01*
X169793597Y-92407375D01*
X169800000Y-92347824D01*
X169800000Y-92100000D01*
X168800000Y-92100000D01*
X168300000Y-92100000D01*
X168300000Y-90900000D01*
X168800000Y-90900000D01*
X168800000Y-91600000D01*
X169800000Y-91600000D01*
X169800000Y-91352176D01*
X169793597Y-91292624D01*
X169743352Y-91157910D01*
X169657188Y-91042811D01*
X169542089Y-90956647D01*
X169407375Y-90906402D01*
X169347824Y-90900000D01*
X168800000Y-90900000D01*
X168300000Y-90900000D01*
X168224500Y-90900000D01*
X168162500Y-90883387D01*
X168117113Y-90838000D01*
X168100500Y-90776000D01*
X168100500Y-89200097D01*
X168109939Y-89152644D01*
X168136819Y-89112416D01*
X168340841Y-88908394D01*
X168975241Y-88273992D01*
X169009119Y-88249955D01*
X169049032Y-88238456D01*
X169068059Y-88236313D01*
X169227690Y-88180456D01*
X169370890Y-88090477D01*
X169490477Y-87970890D01*
X169580456Y-87827690D01*
X169636313Y-87668059D01*
X169655249Y-87500000D01*
X169652088Y-87471950D01*
X169637726Y-87344485D01*
X169636313Y-87331941D01*
X169580456Y-87172310D01*
X169490477Y-87029110D01*
X169393295Y-86931928D01*
X169364640Y-86887166D01*
X169357358Y-86834518D01*
X169372786Y-86783658D01*
X169408091Y-86743929D01*
X169419494Y-86735644D01*
X169505871Y-86672888D01*
X169511598Y-86666526D01*
X169553312Y-86636220D01*
X169603747Y-86625500D01*
X170389548Y-86625500D01*
X170437001Y-86634939D01*
X170477229Y-86661819D01*
X174564423Y-90749013D01*
X174597106Y-90806887D01*
X174595208Y-90873324D01*
X174559275Y-90929238D01*
X174499630Y-90958563D01*
X174433409Y-90952876D01*
X174307485Y-90905909D01*
X174287612Y-90903772D01*
X174247873Y-90899500D01*
X174247869Y-90899500D01*
X172652130Y-90899500D01*
X172592515Y-90905909D01*
X172457667Y-90956204D01*
X172443507Y-90966805D01*
X172389905Y-90989795D01*
X172331722Y-90985737D01*
X172281831Y-90955529D01*
X172251268Y-90905854D01*
X172227179Y-90831715D01*
X172132533Y-90667783D01*
X172005870Y-90527110D01*
X171852730Y-90415848D01*
X171679802Y-90338855D01*
X171494648Y-90299500D01*
X171494646Y-90299500D01*
X171305354Y-90299500D01*
X171305352Y-90299500D01*
X171120197Y-90338855D01*
X170947269Y-90415848D01*
X170794129Y-90527110D01*
X170667466Y-90667783D01*
X170572820Y-90831715D01*
X170514326Y-91011742D01*
X170494540Y-91200000D01*
X170514326Y-91388257D01*
X170572820Y-91568284D01*
X170667466Y-91732216D01*
X170794129Y-91872889D01*
X170947269Y-91984151D01*
X171120197Y-92061144D01*
X171305352Y-92100500D01*
X171305354Y-92100500D01*
X171494646Y-92100500D01*
X171494648Y-92100500D01*
X171623789Y-92073050D01*
X171679803Y-92061144D01*
X171749193Y-92030248D01*
X171852727Y-91984153D01*
X171864539Y-91975571D01*
X172002617Y-91875251D01*
X172065771Y-91851953D01*
X172131794Y-91865086D01*
X172181227Y-91910781D01*
X172199500Y-91975571D01*
X172199500Y-92347869D01*
X172205252Y-92401373D01*
X172205909Y-92407483D01*
X172256204Y-92542331D01*
X172342454Y-92657546D01*
X172457669Y-92743796D01*
X172592517Y-92794091D01*
X172652127Y-92800500D01*
X174247872Y-92800499D01*
X174307483Y-92794091D01*
X174442331Y-92743796D01*
X174557546Y-92657546D01*
X174564006Y-92648915D01*
X174603844Y-92614395D01*
X174654425Y-92599542D01*
X174706606Y-92607044D01*
X174750954Y-92635545D01*
X174838181Y-92722772D01*
X174865061Y-92763000D01*
X174874500Y-92810453D01*
X174874500Y-94393294D01*
X174859332Y-94452721D01*
X174817540Y-94497609D01*
X174759346Y-94516978D01*
X174698989Y-94506088D01*
X174651233Y-94467605D01*
X174643797Y-94457671D01*
X174643796Y-94457669D01*
X174557546Y-94342454D01*
X174442331Y-94256204D01*
X174307483Y-94205909D01*
X174247873Y-94199500D01*
X174247869Y-94199500D01*
X172652130Y-94199500D01*
X172592515Y-94205909D01*
X172457669Y-94256204D01*
X172342454Y-94342454D01*
X172256204Y-94457668D01*
X172205909Y-94592515D01*
X172205909Y-94592517D01*
X172202177Y-94627233D01*
X172199500Y-94652130D01*
X172199500Y-95647869D01*
X172205909Y-95707484D01*
X172222878Y-95752979D01*
X172256204Y-95842331D01*
X172342454Y-95957546D01*
X172457669Y-96043796D01*
X172568834Y-96085258D01*
X172611070Y-96111696D01*
X172639488Y-96152626D01*
X172649500Y-96201439D01*
X172649500Y-96368022D01*
X172642251Y-96409796D01*
X172621353Y-96446687D01*
X172564089Y-96516462D01*
X172471185Y-96690273D01*
X172413976Y-96878866D01*
X172394659Y-97075000D01*
X172413976Y-97271133D01*
X172471185Y-97459726D01*
X172533910Y-97577075D01*
X172564090Y-97633538D01*
X172689117Y-97785883D01*
X172841462Y-97910910D01*
X173015273Y-98003814D01*
X173203868Y-98061024D01*
X173400000Y-98080341D01*
X173596132Y-98061024D01*
X173784727Y-98003814D01*
X173958538Y-97910910D01*
X174110883Y-97785883D01*
X174235910Y-97633538D01*
X174328814Y-97459727D01*
X174386024Y-97271132D01*
X174405341Y-97075000D01*
X174386024Y-96878868D01*
X174328814Y-96690273D01*
X174235910Y-96516462D01*
X174178647Y-96446687D01*
X174157749Y-96409796D01*
X174150500Y-96368022D01*
X174150500Y-96222351D01*
X174164969Y-96164223D01*
X174204998Y-96119660D01*
X174261246Y-96099061D01*
X174307483Y-96094091D01*
X174442331Y-96043796D01*
X174557546Y-95957546D01*
X174643796Y-95842331D01*
X174694091Y-95707483D01*
X174700500Y-95647873D01*
X174700499Y-94830164D01*
X174716994Y-94768370D01*
X174762090Y-94723015D01*
X174823789Y-94706167D01*
X174885678Y-94722308D01*
X174931290Y-94767144D01*
X174931637Y-94767732D01*
X174940136Y-94785100D01*
X174947514Y-94803732D01*
X174947515Y-94803733D01*
X174973180Y-94839059D01*
X174979593Y-94848822D01*
X175001826Y-94886416D01*
X175001829Y-94886419D01*
X175001830Y-94886420D01*
X175015995Y-94900585D01*
X175028627Y-94915375D01*
X175040406Y-94931587D01*
X175074058Y-94959426D01*
X175082699Y-94967289D01*
X175649196Y-95533787D01*
X175662096Y-95549888D01*
X175713223Y-95597900D01*
X175716020Y-95600611D01*
X175735529Y-95620120D01*
X175738711Y-95622588D01*
X175747571Y-95630155D01*
X175779418Y-95660062D01*
X175782478Y-95661744D01*
X175796972Y-95669712D01*
X175813236Y-95680396D01*
X175824480Y-95689117D01*
X175829064Y-95692673D01*
X175850093Y-95701773D01*
X175869152Y-95710021D01*
X175879631Y-95715154D01*
X175917908Y-95736197D01*
X175937306Y-95741177D01*
X175955708Y-95747477D01*
X175974104Y-95755438D01*
X176017261Y-95762273D01*
X176028664Y-95764634D01*
X176070981Y-95775500D01*
X176091016Y-95775500D01*
X176110413Y-95777026D01*
X176130196Y-95780160D01*
X176173674Y-95776050D01*
X176185344Y-95775500D01*
X176245182Y-95775500D01*
X176293996Y-95785512D01*
X176334926Y-95813932D01*
X176344326Y-95828950D01*
X176345519Y-95828058D01*
X176413088Y-95918319D01*
X176442454Y-95957546D01*
X176557669Y-96043796D01*
X176692517Y-96094091D01*
X176752127Y-96100500D01*
X178347872Y-96100499D01*
X178407483Y-96094091D01*
X178542331Y-96043796D01*
X178657546Y-95957546D01*
X178743796Y-95842331D01*
X178794091Y-95707483D01*
X178800500Y-95647873D01*
X178800500Y-95647869D01*
X181199500Y-95647869D01*
X181205909Y-95707484D01*
X181222878Y-95752979D01*
X181256204Y-95842331D01*
X181342454Y-95957546D01*
X181457669Y-96043796D01*
X181541715Y-96075143D01*
X181607110Y-96099534D01*
X181606822Y-96100304D01*
X181645000Y-96114284D01*
X181685031Y-96158847D01*
X181699500Y-96216976D01*
X181699500Y-96368022D01*
X181692251Y-96409796D01*
X181671353Y-96446687D01*
X181614089Y-96516462D01*
X181521185Y-96690273D01*
X181463976Y-96878866D01*
X181444659Y-97075000D01*
X181463976Y-97271133D01*
X181521185Y-97459726D01*
X181583910Y-97577075D01*
X181614090Y-97633538D01*
X181739117Y-97785883D01*
X181891462Y-97910910D01*
X182065273Y-98003814D01*
X182253868Y-98061024D01*
X182450000Y-98080341D01*
X182646132Y-98061024D01*
X182834727Y-98003814D01*
X183008538Y-97910910D01*
X183160883Y-97785883D01*
X183285910Y-97633538D01*
X183378814Y-97459727D01*
X183436024Y-97271132D01*
X183455341Y-97075000D01*
X183436024Y-96878868D01*
X183378814Y-96690273D01*
X183285910Y-96516462D01*
X183228647Y-96446687D01*
X183207749Y-96409796D01*
X183200500Y-96368022D01*
X183200500Y-96216976D01*
X183214969Y-96158847D01*
X183254999Y-96114284D01*
X183293177Y-96100303D01*
X183292890Y-96099534D01*
X183331168Y-96085257D01*
X183442331Y-96043796D01*
X183557546Y-95957546D01*
X183643796Y-95842331D01*
X183694091Y-95707483D01*
X183700500Y-95647873D01*
X183700499Y-94652128D01*
X183694091Y-94592517D01*
X183643796Y-94457669D01*
X183557546Y-94342454D01*
X183442331Y-94256204D01*
X183307483Y-94205909D01*
X183247873Y-94199500D01*
X183247869Y-94199500D01*
X181652130Y-94199500D01*
X181592515Y-94205909D01*
X181457669Y-94256204D01*
X181342454Y-94342454D01*
X181256204Y-94457668D01*
X181205909Y-94592515D01*
X181205909Y-94592517D01*
X181202177Y-94627233D01*
X181199500Y-94652130D01*
X181199500Y-95647869D01*
X178800500Y-95647869D01*
X178800499Y-94652128D01*
X178794091Y-94592517D01*
X178743796Y-94457669D01*
X178657546Y-94342454D01*
X178542331Y-94256204D01*
X178407483Y-94205909D01*
X178347873Y-94199500D01*
X178347869Y-94199500D01*
X176752130Y-94199500D01*
X176692515Y-94205909D01*
X176557669Y-94256204D01*
X176442451Y-94342455D01*
X176435991Y-94351086D01*
X176380058Y-94392955D01*
X176310367Y-94397939D01*
X176249045Y-94364454D01*
X176161819Y-94277228D01*
X176134939Y-94237000D01*
X176125500Y-94189547D01*
X176125500Y-92605873D01*
X176140668Y-92546446D01*
X176182460Y-92501558D01*
X176240654Y-92482189D01*
X176301011Y-92493078D01*
X176348767Y-92531562D01*
X176442810Y-92657188D01*
X176557910Y-92743352D01*
X176692624Y-92793597D01*
X176752176Y-92800000D01*
X177300000Y-92800000D01*
X177300000Y-92100000D01*
X177800000Y-92100000D01*
X177800000Y-92800000D01*
X178347824Y-92800000D01*
X178407375Y-92793597D01*
X178542089Y-92743352D01*
X178657188Y-92657188D01*
X178743352Y-92542089D01*
X178793597Y-92407375D01*
X178800000Y-92347824D01*
X178800000Y-92100000D01*
X177800000Y-92100000D01*
X177300000Y-92100000D01*
X176300000Y-92100000D01*
X176300000Y-92170680D01*
X176283518Y-92232454D01*
X176238452Y-92277805D01*
X176176784Y-92294678D01*
X176114907Y-92278586D01*
X176069274Y-92233810D01*
X176068420Y-92232366D01*
X176059861Y-92214895D01*
X176052486Y-92196268D01*
X176026808Y-92160925D01*
X176020401Y-92151171D01*
X175998169Y-92113579D01*
X175984006Y-92099416D01*
X175971367Y-92084617D01*
X175959595Y-92068413D01*
X175925941Y-92040573D01*
X175917299Y-92032709D01*
X175350802Y-91466211D01*
X175337906Y-91450113D01*
X175286775Y-91402098D01*
X175283978Y-91399387D01*
X175264470Y-91379879D01*
X175261290Y-91377412D01*
X175252424Y-91369839D01*
X175220582Y-91339938D01*
X175203024Y-91330285D01*
X175186764Y-91319604D01*
X175170936Y-91307327D01*
X175130851Y-91289980D01*
X175120361Y-91284841D01*
X175072385Y-91258466D01*
X175027008Y-91215584D01*
X175008278Y-91156026D01*
X175020944Y-91094890D01*
X175061795Y-91047676D01*
X175120471Y-91026352D01*
X175123695Y-91026048D01*
X175135344Y-91025500D01*
X176227440Y-91025500D01*
X176284915Y-91039624D01*
X176329296Y-91078780D01*
X176350473Y-91134047D01*
X176343622Y-91192834D01*
X176306402Y-91292624D01*
X176300000Y-91352176D01*
X176300000Y-91600000D01*
X178800000Y-91600000D01*
X178800000Y-91352176D01*
X178793597Y-91292624D01*
X178756378Y-91192834D01*
X178749527Y-91134047D01*
X178770704Y-91078780D01*
X178815085Y-91039624D01*
X178872560Y-91025500D01*
X180689548Y-91025500D01*
X180737001Y-91034939D01*
X180777229Y-91061819D01*
X181163181Y-91447771D01*
X181190061Y-91487999D01*
X181199500Y-91535452D01*
X181199500Y-92347869D01*
X181205252Y-92401373D01*
X181205909Y-92407483D01*
X181256204Y-92542331D01*
X181342454Y-92657546D01*
X181457669Y-92743796D01*
X181592517Y-92794091D01*
X181652127Y-92800500D01*
X183247872Y-92800499D01*
X183307483Y-92794091D01*
X183442331Y-92743796D01*
X183557546Y-92657546D01*
X183643796Y-92542331D01*
X183694091Y-92407483D01*
X183700500Y-92347873D01*
X183700499Y-91352128D01*
X183694091Y-91292517D01*
X183643796Y-91157669D01*
X183557546Y-91042454D01*
X183442331Y-90956204D01*
X183307483Y-90905909D01*
X183247873Y-90899500D01*
X183247869Y-90899500D01*
X182435452Y-90899500D01*
X182387999Y-90890061D01*
X182347771Y-90863181D01*
X181935300Y-90450710D01*
X181500802Y-90016211D01*
X181487906Y-90000113D01*
X181436775Y-89952098D01*
X181433978Y-89949387D01*
X181414470Y-89929879D01*
X181411290Y-89927412D01*
X181402424Y-89919839D01*
X181370582Y-89889938D01*
X181353024Y-89880285D01*
X181336764Y-89869604D01*
X181320936Y-89857327D01*
X181280851Y-89839980D01*
X181270361Y-89834841D01*
X181232091Y-89813802D01*
X181212691Y-89808821D01*
X181194284Y-89802519D01*
X181175897Y-89794562D01*
X181132758Y-89787729D01*
X181121324Y-89785361D01*
X181079019Y-89774500D01*
X181058984Y-89774500D01*
X181039586Y-89772973D01*
X181032162Y-89771797D01*
X181019805Y-89769840D01*
X181019804Y-89769840D01*
X180986751Y-89772964D01*
X180976325Y-89773950D01*
X180964656Y-89774500D01*
X175410452Y-89774500D01*
X175362999Y-89765061D01*
X175322771Y-89738181D01*
X171571772Y-85987181D01*
X171541522Y-85937818D01*
X171536980Y-85880102D01*
X171559135Y-85826615D01*
X171603158Y-85789015D01*
X171659453Y-85775500D01*
X177472485Y-85775500D01*
X177530700Y-85790015D01*
X177575286Y-85830160D01*
X177595805Y-85886536D01*
X177605676Y-85980455D01*
X177614326Y-86062757D01*
X177672820Y-86242784D01*
X177767466Y-86406716D01*
X177894129Y-86547389D01*
X178047269Y-86658651D01*
X178220197Y-86735644D01*
X178405352Y-86775000D01*
X178405354Y-86775000D01*
X178594646Y-86775000D01*
X178594648Y-86775000D01*
X178727492Y-86746763D01*
X178779803Y-86735644D01*
X178952730Y-86658651D01*
X179105871Y-86547388D01*
X179232533Y-86406716D01*
X179327179Y-86242784D01*
X179385674Y-86062756D01*
X179391073Y-86011381D01*
X179417013Y-85947578D01*
X179473000Y-85907458D01*
X179541759Y-85903402D01*
X179602074Y-85936664D01*
X184838181Y-91172771D01*
X184865061Y-91212999D01*
X184874500Y-91260452D01*
X184874500Y-99489547D01*
X184865061Y-99537000D01*
X184838181Y-99577228D01*
X183477228Y-100938181D01*
X183437000Y-100965061D01*
X183389547Y-100974500D01*
X175682741Y-100974500D01*
X175662237Y-100972236D01*
X175592145Y-100974439D01*
X175588251Y-100974500D01*
X175560648Y-100974500D01*
X175556653Y-100975004D01*
X175545029Y-100975918D01*
X175501368Y-100977290D01*
X175482128Y-100982880D01*
X175463081Y-100986825D01*
X175443209Y-100989335D01*
X175402599Y-101005413D01*
X175391554Y-101009194D01*
X175349611Y-101021380D01*
X175332369Y-101031578D01*
X175314897Y-101040138D01*
X175296266Y-101047514D01*
X175260938Y-101073181D01*
X175251180Y-101079591D01*
X175213579Y-101101829D01*
X175199410Y-101115998D01*
X175184622Y-101128628D01*
X175168413Y-101140405D01*
X175140572Y-101174058D01*
X175132711Y-101182696D01*
X167210787Y-109104620D01*
X167156243Y-109136429D01*
X167093106Y-109137255D01*
X167037748Y-109106883D01*
X167004523Y-109053189D01*
X167002046Y-108990096D01*
X167026038Y-108943515D01*
X167026017Y-108943503D01*
X167026281Y-108943044D01*
X167030958Y-108933964D01*
X167032533Y-108932216D01*
X167127179Y-108768284D01*
X167185674Y-108588256D01*
X167205460Y-108400000D01*
X167185674Y-108211744D01*
X167127179Y-108031716D01*
X167127179Y-108031715D01*
X167032533Y-107867783D01*
X166905870Y-107727110D01*
X166752730Y-107615848D01*
X166579802Y-107538855D01*
X166394648Y-107499500D01*
X166394646Y-107499500D01*
X166205354Y-107499500D01*
X166205352Y-107499500D01*
X166020197Y-107538855D01*
X165847269Y-107615848D01*
X165694129Y-107727110D01*
X165567466Y-107867783D01*
X165472820Y-108031715D01*
X165414326Y-108211742D01*
X165394540Y-108399999D01*
X165414326Y-108588257D01*
X165472821Y-108768286D01*
X165474871Y-108771837D01*
X165491340Y-108839737D01*
X165468487Y-108905762D01*
X165413566Y-108948950D01*
X165344014Y-108955590D01*
X165182698Y-108924500D01*
X165028768Y-108924500D01*
X164932996Y-108933645D01*
X164875531Y-108939132D01*
X164678460Y-108996998D01*
X164495893Y-109091117D01*
X164334445Y-109218082D01*
X164199937Y-109373312D01*
X164097241Y-109551187D01*
X164030062Y-109745287D01*
X164000832Y-109948591D01*
X164000832Y-109948593D01*
X164010605Y-110153756D01*
X164059029Y-110353362D01*
X164089889Y-110420936D01*
X164144354Y-110540199D01*
X164224975Y-110653414D01*
X164263494Y-110707506D01*
X164412146Y-110849245D01*
X164584936Y-110960291D01*
X164775618Y-111036629D01*
X164968041Y-111073715D01*
X165027434Y-111103224D01*
X165063125Y-111159124D01*
X165064901Y-111225422D01*
X165032254Y-111283153D01*
X164952229Y-111363180D01*
X164912000Y-111390061D01*
X164864547Y-111399500D01*
X164805352Y-111399500D01*
X164620197Y-111438855D01*
X164447269Y-111515848D01*
X164294129Y-111627110D01*
X164167466Y-111767783D01*
X164072820Y-111931715D01*
X164014326Y-112111742D01*
X163994540Y-112299999D01*
X164014326Y-112488257D01*
X164072820Y-112668284D01*
X164167466Y-112832216D01*
X164294129Y-112972889D01*
X164447269Y-113084151D01*
X164620197Y-113161144D01*
X164805352Y-113200500D01*
X164805354Y-113200500D01*
X164994646Y-113200500D01*
X164994648Y-113200500D01*
X165118084Y-113174262D01*
X165179803Y-113161144D01*
X165352730Y-113084151D01*
X165505871Y-112972888D01*
X165632533Y-112832216D01*
X165727179Y-112668284D01*
X165785674Y-112488256D01*
X165803321Y-112320344D01*
X165814721Y-112279925D01*
X165838958Y-112245630D01*
X168184589Y-109899999D01*
X170794540Y-109899999D01*
X170814326Y-110088257D01*
X170872820Y-110268284D01*
X170967466Y-110432216D01*
X171094129Y-110572889D01*
X171247269Y-110684151D01*
X171420197Y-110761144D01*
X171605352Y-110800500D01*
X171605354Y-110800500D01*
X171794646Y-110800500D01*
X171794648Y-110800500D01*
X171918084Y-110774262D01*
X171979803Y-110761144D01*
X172152730Y-110684151D01*
X172195036Y-110653414D01*
X172305870Y-110572889D01*
X172432533Y-110432216D01*
X172527179Y-110268284D01*
X172531589Y-110254712D01*
X172585674Y-110088256D01*
X172595973Y-109990258D01*
X172613480Y-109942864D01*
X172826502Y-109942864D01*
X172843153Y-109997323D01*
X172847485Y-110088256D01*
X172850605Y-110153756D01*
X172899029Y-110353362D01*
X172929889Y-110420936D01*
X172984354Y-110540199D01*
X173064975Y-110653414D01*
X173103494Y-110707506D01*
X173252146Y-110849245D01*
X173424936Y-110960291D01*
X173615618Y-111036629D01*
X173817302Y-111075500D01*
X173971227Y-111075500D01*
X173971232Y-111075500D01*
X174124466Y-111060868D01*
X174321541Y-111003001D01*
X174504104Y-110908884D01*
X174665556Y-110781916D01*
X174800061Y-110626689D01*
X174902759Y-110448811D01*
X174969937Y-110254712D01*
X174995963Y-110073697D01*
X176795807Y-110073697D01*
X176825296Y-110366827D01*
X176893592Y-110653413D01*
X176999477Y-110928338D01*
X177141063Y-111186699D01*
X177315822Y-111423884D01*
X177520635Y-111635658D01*
X177751845Y-111818244D01*
X177858500Y-111881415D01*
X178005331Y-111968383D01*
X178276566Y-112083397D01*
X178276567Y-112083397D01*
X178276569Y-112083398D01*
X178339194Y-112100552D01*
X178560710Y-112161232D01*
X178852694Y-112200500D01*
X179073571Y-112200500D01*
X179073573Y-112200500D01*
X179293955Y-112185747D01*
X179414573Y-112161230D01*
X179582663Y-112127064D01*
X179860974Y-112030424D01*
X180123921Y-111897551D01*
X180366812Y-111730816D01*
X180585312Y-111533195D01*
X180775522Y-111308213D01*
X180934047Y-111059887D01*
X181058060Y-110792647D01*
X181145346Y-110511262D01*
X181194349Y-110220754D01*
X181204193Y-109926306D01*
X181174704Y-109633173D01*
X181106407Y-109346586D01*
X181065389Y-109240085D01*
X181000522Y-109071661D01*
X180858936Y-108813300D01*
X180828386Y-108771837D01*
X180684178Y-108576116D01*
X180479365Y-108364342D01*
X180479364Y-108364341D01*
X180248154Y-108181755D01*
X180002896Y-108036490D01*
X179994669Y-108031617D01*
X179817104Y-107956322D01*
X179723430Y-107916601D01*
X179439294Y-107838769D01*
X179439293Y-107838768D01*
X179439290Y-107838768D01*
X179147306Y-107799500D01*
X178926429Y-107799500D01*
X178926427Y-107799500D01*
X178706044Y-107814252D01*
X178417338Y-107872935D01*
X178139022Y-107969577D01*
X177876081Y-108102447D01*
X177633187Y-108269184D01*
X177414689Y-108466803D01*
X177224478Y-108691786D01*
X177065951Y-108940115D01*
X176952706Y-109184153D01*
X176941940Y-109207353D01*
X176925983Y-109258791D01*
X176854654Y-109488737D01*
X176811379Y-109745287D01*
X176805651Y-109779246D01*
X176799990Y-109948591D01*
X176795807Y-110073697D01*
X174995963Y-110073697D01*
X174999168Y-110051407D01*
X174989395Y-109846244D01*
X174940971Y-109646638D01*
X174855647Y-109459804D01*
X174761407Y-109327462D01*
X174739812Y-109274096D01*
X174744645Y-109216727D01*
X174774866Y-109167724D01*
X174823960Y-109137651D01*
X174881343Y-109132990D01*
X175059445Y-109160500D01*
X175255177Y-109160500D01*
X175255179Y-109160500D01*
X175279536Y-109158629D01*
X175450344Y-109145516D01*
X175704586Y-109086021D01*
X175851384Y-109026856D01*
X175946762Y-108988416D01*
X175946764Y-108988414D01*
X175946766Y-108988414D01*
X176171208Y-108854982D01*
X176372652Y-108688852D01*
X176546375Y-108493920D01*
X176688306Y-108274753D01*
X176795118Y-108036489D01*
X176864307Y-107784713D01*
X176894252Y-107525325D01*
X176884251Y-107264407D01*
X176834538Y-107008073D01*
X176746279Y-106762332D01*
X176621541Y-106532943D01*
X176621539Y-106532939D01*
X176463250Y-106325284D01*
X176275112Y-106144220D01*
X176061546Y-105994002D01*
X175827546Y-105878140D01*
X175578608Y-105799359D01*
X175417562Y-105774484D01*
X175320555Y-105759500D01*
X175124823Y-105759500D01*
X175124821Y-105759500D01*
X174929656Y-105774484D01*
X174675412Y-105833979D01*
X174433237Y-105931583D01*
X174208791Y-106065017D01*
X174007346Y-106231148D01*
X173833622Y-106426082D01*
X173691693Y-106645247D01*
X173584881Y-106883509D01*
X173515693Y-107135283D01*
X173485747Y-107394675D01*
X173494226Y-107615849D01*
X173495749Y-107655593D01*
X173542921Y-107898827D01*
X173545463Y-107911930D01*
X173633719Y-108157664D01*
X173758460Y-108387060D01*
X173916749Y-108594715D01*
X174037738Y-108711155D01*
X174069083Y-108760379D01*
X174074441Y-108818489D01*
X174052627Y-108872615D01*
X174008471Y-108910768D01*
X173951753Y-108924500D01*
X173868768Y-108924500D01*
X173772996Y-108933645D01*
X173715531Y-108939132D01*
X173518460Y-108996998D01*
X173335893Y-109091117D01*
X173174445Y-109218082D01*
X173039937Y-109373312D01*
X172937241Y-109551187D01*
X172870063Y-109745287D01*
X172849671Y-109887113D01*
X172827482Y-109942032D01*
X172826502Y-109942864D01*
X172613480Y-109942864D01*
X172617157Y-109932909D01*
X172620690Y-109929817D01*
X172603613Y-109882429D01*
X172585674Y-109711744D01*
X172527179Y-109531716D01*
X172527179Y-109531715D01*
X172432533Y-109367783D01*
X172305870Y-109227110D01*
X172152730Y-109115848D01*
X171979802Y-109038855D01*
X171794648Y-108999500D01*
X171794646Y-108999500D01*
X171605354Y-108999500D01*
X171605352Y-108999500D01*
X171420197Y-109038855D01*
X171247269Y-109115848D01*
X171094129Y-109227110D01*
X170967466Y-109367783D01*
X170872820Y-109531715D01*
X170814326Y-109711742D01*
X170794540Y-109899999D01*
X168184589Y-109899999D01*
X173229914Y-104854675D01*
X179835747Y-104854675D01*
X179844701Y-105088256D01*
X179845749Y-105115593D01*
X179889103Y-105339140D01*
X179895463Y-105371930D01*
X179983719Y-105617664D01*
X180108460Y-105847060D01*
X180266749Y-106054715D01*
X180266750Y-106054716D01*
X180313284Y-106099500D01*
X180454887Y-106235779D01*
X180582137Y-106325284D01*
X180668456Y-106385999D01*
X180902452Y-106501858D01*
X180902453Y-106501859D01*
X181151391Y-106580640D01*
X181151392Y-106580640D01*
X181151395Y-106580641D01*
X181409445Y-106620500D01*
X181605177Y-106620500D01*
X181605179Y-106620500D01*
X181629536Y-106618629D01*
X181800344Y-106605516D01*
X182054586Y-106546021D01*
X182248706Y-106467784D01*
X182296762Y-106448416D01*
X182296764Y-106448414D01*
X182296766Y-106448414D01*
X182521208Y-106314982D01*
X182722652Y-106148852D01*
X182896375Y-105953920D01*
X183038306Y-105734753D01*
X183091712Y-105615620D01*
X183145118Y-105496490D01*
X183203849Y-105282768D01*
X183214307Y-105244713D01*
X183244252Y-104985325D01*
X183234251Y-104724407D01*
X183184538Y-104468073D01*
X183096279Y-104222332D01*
X182992897Y-104032216D01*
X182971539Y-103992939D01*
X182813250Y-103785284D01*
X182625112Y-103604220D01*
X182411546Y-103454002D01*
X182177546Y-103338140D01*
X181928608Y-103259359D01*
X181767562Y-103234484D01*
X181670555Y-103219500D01*
X181474823Y-103219500D01*
X181474821Y-103219500D01*
X181279656Y-103234484D01*
X181025412Y-103293979D01*
X180783237Y-103391583D01*
X180558791Y-103525017D01*
X180357346Y-103691148D01*
X180183622Y-103886082D01*
X180041693Y-104105247D01*
X179934881Y-104343509D01*
X179865693Y-104595283D01*
X179835747Y-104854675D01*
X173229914Y-104854675D01*
X175822771Y-102261819D01*
X175863000Y-102234939D01*
X175910453Y-102225500D01*
X183617256Y-102225500D01*
X183637762Y-102227764D01*
X183640665Y-102227672D01*
X183640667Y-102227673D01*
X183707872Y-102225561D01*
X183711768Y-102225500D01*
X183739349Y-102225500D01*
X183739350Y-102225500D01*
X183743319Y-102224998D01*
X183754965Y-102224080D01*
X183798627Y-102222709D01*
X183817859Y-102217120D01*
X183836918Y-102213174D01*
X183843196Y-102212381D01*
X183856792Y-102210664D01*
X183897407Y-102194582D01*
X183908444Y-102190803D01*
X183950390Y-102178618D01*
X183967629Y-102168422D01*
X183985102Y-102159862D01*
X184003732Y-102152486D01*
X184039064Y-102126814D01*
X184048830Y-102120400D01*
X184082480Y-102100500D01*
X184086420Y-102098170D01*
X184100585Y-102084004D01*
X184115373Y-102071373D01*
X184131587Y-102059594D01*
X184159438Y-102025926D01*
X184167279Y-102017309D01*
X185883789Y-100300800D01*
X185899885Y-100287906D01*
X185901873Y-100285787D01*
X185901877Y-100285786D01*
X185947948Y-100236723D01*
X185950566Y-100234023D01*
X185970120Y-100214471D01*
X185972581Y-100211298D01*
X185980156Y-100202427D01*
X186010062Y-100170582D01*
X186019717Y-100153018D01*
X186030394Y-100136764D01*
X186042673Y-100120936D01*
X186060018Y-100080852D01*
X186065160Y-100070356D01*
X186068071Y-100065061D01*
X186086197Y-100032092D01*
X186091179Y-100012684D01*
X186097481Y-99994280D01*
X186105437Y-99975896D01*
X186112269Y-99932752D01*
X186114633Y-99921338D01*
X186125500Y-99879019D01*
X186125500Y-99858984D01*
X186127027Y-99839585D01*
X186127545Y-99836313D01*
X186130160Y-99819804D01*
X186126050Y-99776325D01*
X186125500Y-99764656D01*
X186125500Y-91032744D01*
X186127764Y-91012236D01*
X186127550Y-91005438D01*
X186125561Y-90942113D01*
X186125500Y-90938219D01*
X186125500Y-90910654D01*
X186125500Y-90910650D01*
X186124997Y-90906670D01*
X186124081Y-90895028D01*
X186122710Y-90851373D01*
X186117118Y-90832126D01*
X186113174Y-90813085D01*
X186110664Y-90793208D01*
X186094579Y-90752583D01*
X186090808Y-90741568D01*
X186078618Y-90699610D01*
X186068414Y-90682355D01*
X186059861Y-90664895D01*
X186052486Y-90646269D01*
X186052486Y-90646268D01*
X186026808Y-90610925D01*
X186020401Y-90601171D01*
X186014635Y-90591421D01*
X185998170Y-90563580D01*
X185984005Y-90549415D01*
X185971367Y-90534617D01*
X185959595Y-90518413D01*
X185925941Y-90490573D01*
X185917299Y-90482709D01*
X180921772Y-85487181D01*
X180891522Y-85437818D01*
X180886980Y-85380102D01*
X180909135Y-85326615D01*
X180953158Y-85289015D01*
X181009453Y-85275500D01*
X181029498Y-85275500D01*
X181076951Y-85284939D01*
X181117179Y-85311819D01*
X187838181Y-92032822D01*
X187865061Y-92073050D01*
X187874500Y-92120503D01*
X187874500Y-106966604D01*
X187865061Y-107014057D01*
X187838181Y-107054285D01*
X185272669Y-109619794D01*
X185222041Y-109650448D01*
X185162971Y-109654143D01*
X185108917Y-109630038D01*
X185072194Y-109583625D01*
X185015647Y-109459804D01*
X185015646Y-109459803D01*
X185015645Y-109459800D01*
X184896507Y-109292496D01*
X184896506Y-109292494D01*
X184747854Y-109150755D01*
X184676067Y-109104620D01*
X184575065Y-109039709D01*
X184400658Y-108969887D01*
X184384382Y-108963371D01*
X184384381Y-108963370D01*
X184384379Y-108963370D01*
X184182698Y-108924500D01*
X184028768Y-108924500D01*
X183932996Y-108933645D01*
X183875531Y-108939132D01*
X183678460Y-108996998D01*
X183495893Y-109091117D01*
X183334445Y-109218082D01*
X183199937Y-109373312D01*
X183097241Y-109551187D01*
X183030062Y-109745287D01*
X183000832Y-109948591D01*
X183000832Y-109948593D01*
X183010605Y-110153756D01*
X183059029Y-110353362D01*
X183089889Y-110420936D01*
X183144354Y-110540199D01*
X183224975Y-110653414D01*
X183263494Y-110707506D01*
X183412146Y-110849245D01*
X183469512Y-110886112D01*
X183584933Y-110960290D01*
X183605647Y-110968582D01*
X183658378Y-110989693D01*
X183707438Y-111025292D01*
X183733762Y-111079894D01*
X183731059Y-111140450D01*
X183699974Y-111192489D01*
X183654286Y-111238179D01*
X183614057Y-111265061D01*
X183566603Y-111274500D01*
X183303747Y-111274500D01*
X183253312Y-111263780D01*
X183211598Y-111233473D01*
X183205871Y-111227112D01*
X183052730Y-111115849D01*
X183052729Y-111115848D01*
X183052727Y-111115847D01*
X182879802Y-111038855D01*
X182694648Y-110999500D01*
X182694646Y-110999500D01*
X182505354Y-110999500D01*
X182505352Y-110999500D01*
X182320197Y-111038855D01*
X182147269Y-111115848D01*
X181994129Y-111227110D01*
X181867466Y-111367783D01*
X181772820Y-111531715D01*
X181714326Y-111711742D01*
X181694540Y-111900000D01*
X181714326Y-112088257D01*
X181772820Y-112268284D01*
X181867466Y-112432216D01*
X181994129Y-112572889D01*
X182147269Y-112684151D01*
X182320197Y-112761144D01*
X182505352Y-112800500D01*
X182505354Y-112800500D01*
X182694646Y-112800500D01*
X182694648Y-112800500D01*
X182818084Y-112774262D01*
X182879803Y-112761144D01*
X183052730Y-112684151D01*
X183205871Y-112572888D01*
X183211598Y-112566526D01*
X183253312Y-112536220D01*
X183303747Y-112525500D01*
X183794312Y-112525500D01*
X183814818Y-112527764D01*
X183817721Y-112527672D01*
X183817723Y-112527673D01*
X183884928Y-112525561D01*
X183888824Y-112525500D01*
X183916405Y-112525500D01*
X183916406Y-112525500D01*
X183920375Y-112524998D01*
X183932021Y-112524080D01*
X183975683Y-112522709D01*
X183994915Y-112517120D01*
X184013974Y-112513174D01*
X184020252Y-112512381D01*
X184033848Y-112510664D01*
X184074463Y-112494582D01*
X184085500Y-112490803D01*
X184127446Y-112478618D01*
X184144685Y-112468422D01*
X184162158Y-112459862D01*
X184180788Y-112452486D01*
X184216120Y-112426814D01*
X184225886Y-112420400D01*
X184263474Y-112398171D01*
X184263473Y-112398171D01*
X184263476Y-112398170D01*
X184277641Y-112384004D01*
X184292429Y-112371373D01*
X184308643Y-112359594D01*
X184336494Y-112325926D01*
X184344335Y-112317309D01*
X188762818Y-107898827D01*
X188812182Y-107868577D01*
X188869898Y-107864035D01*
X188923385Y-107886190D01*
X188960985Y-107930213D01*
X188974500Y-107986508D01*
X188974500Y-126889548D01*
X188965061Y-126937001D01*
X188938181Y-126977229D01*
X184452228Y-131463181D01*
X184412000Y-131490061D01*
X184364547Y-131499500D01*
X184305352Y-131499500D01*
X184120197Y-131538855D01*
X183947269Y-131615848D01*
X183794129Y-131727110D01*
X183667466Y-131867783D01*
X183572820Y-132031715D01*
X183514326Y-132211742D01*
X183494540Y-132399999D01*
X183514326Y-132588257D01*
X183572820Y-132768284D01*
X183667466Y-132932216D01*
X183794129Y-133072889D01*
X183947269Y-133184151D01*
X184120197Y-133261144D01*
X184305352Y-133300500D01*
X184305354Y-133300500D01*
X184494646Y-133300500D01*
X184494648Y-133300500D01*
X184618084Y-133274262D01*
X184679803Y-133261144D01*
X184852730Y-133184151D01*
X184886083Y-133159919D01*
X185005870Y-133072889D01*
X185132533Y-132932216D01*
X185227179Y-132768284D01*
X185227179Y-132768283D01*
X185285674Y-132588256D01*
X185303321Y-132420344D01*
X185314721Y-132379925D01*
X185338958Y-132345630D01*
X189983786Y-127700802D01*
X189999887Y-127687904D01*
X190001874Y-127685787D01*
X190001877Y-127685786D01*
X190047932Y-127636741D01*
X190050613Y-127633976D01*
X190070120Y-127614470D01*
X190072581Y-127611295D01*
X190080152Y-127602431D01*
X190110062Y-127570582D01*
X190119713Y-127553026D01*
X190130393Y-127536767D01*
X190142674Y-127520936D01*
X190160018Y-127480851D01*
X190165160Y-127470356D01*
X190186197Y-127432092D01*
X190191178Y-127412688D01*
X190197480Y-127394283D01*
X190205438Y-127375895D01*
X190212270Y-127332748D01*
X190214639Y-127321316D01*
X190225500Y-127279020D01*
X190225500Y-127258984D01*
X190227027Y-127239585D01*
X190230160Y-127219804D01*
X190226050Y-127176325D01*
X190225500Y-127164656D01*
X190225500Y-104499999D01*
X190694531Y-104499999D01*
X190714364Y-104726689D01*
X190773261Y-104946497D01*
X190869432Y-105152735D01*
X190999953Y-105339140D01*
X191160859Y-105500046D01*
X191347264Y-105630567D01*
X191347265Y-105630567D01*
X191347266Y-105630568D01*
X191553504Y-105726739D01*
X191773308Y-105785635D01*
X191858262Y-105793067D01*
X191943214Y-105800500D01*
X191943216Y-105800500D01*
X192056784Y-105800500D01*
X192056786Y-105800500D01*
X192124747Y-105794554D01*
X192226692Y-105785635D01*
X192446496Y-105726739D01*
X192652734Y-105630568D01*
X192839139Y-105500047D01*
X193000047Y-105339139D01*
X193130568Y-105152734D01*
X193226739Y-104946496D01*
X193285635Y-104726692D01*
X193305468Y-104500000D01*
X193285635Y-104273308D01*
X193226739Y-104053504D01*
X193130568Y-103847266D01*
X193094461Y-103795700D01*
X193000046Y-103660859D01*
X192839140Y-103499953D01*
X192652735Y-103369432D01*
X192446497Y-103273261D01*
X192226689Y-103214364D01*
X192056786Y-103199500D01*
X192056784Y-103199500D01*
X191943216Y-103199500D01*
X191943214Y-103199500D01*
X191773310Y-103214364D01*
X191553502Y-103273261D01*
X191347264Y-103369432D01*
X191160859Y-103499953D01*
X190999953Y-103660859D01*
X190869432Y-103847264D01*
X190773261Y-104053502D01*
X190714364Y-104273310D01*
X190694531Y-104499999D01*
X190225500Y-104499999D01*
X190225500Y-90982740D01*
X190227763Y-90962236D01*
X190227587Y-90956647D01*
X190225561Y-90892144D01*
X190225500Y-90888250D01*
X190225500Y-90860657D01*
X190225500Y-90860650D01*
X190224995Y-90856653D01*
X190224080Y-90845023D01*
X190222709Y-90801373D01*
X190217120Y-90782140D01*
X190213174Y-90763082D01*
X190210664Y-90743208D01*
X190194588Y-90702606D01*
X190190804Y-90691552D01*
X190178619Y-90649613D01*
X190178618Y-90649612D01*
X190178618Y-90649610D01*
X190168417Y-90632361D01*
X190159860Y-90614895D01*
X190152486Y-90596268D01*
X190126813Y-90560932D01*
X190120402Y-90551172D01*
X190115282Y-90542515D01*
X190098170Y-90513579D01*
X190084005Y-90499414D01*
X190071369Y-90484620D01*
X190059595Y-90468414D01*
X190059594Y-90468413D01*
X190025935Y-90440568D01*
X190017305Y-90432714D01*
X183300802Y-83716211D01*
X183287906Y-83700113D01*
X183236775Y-83652098D01*
X183233978Y-83649387D01*
X183214470Y-83629879D01*
X183211290Y-83627412D01*
X183202424Y-83619839D01*
X183170582Y-83589938D01*
X183153024Y-83580285D01*
X183136764Y-83569604D01*
X183120936Y-83557327D01*
X183080851Y-83539980D01*
X183070361Y-83534841D01*
X183032091Y-83513802D01*
X183012691Y-83508821D01*
X182994284Y-83502519D01*
X182975897Y-83494562D01*
X182932758Y-83487729D01*
X182921324Y-83485361D01*
X182879019Y-83474500D01*
X182858984Y-83474500D01*
X182839586Y-83472973D01*
X182832162Y-83471797D01*
X182819805Y-83469840D01*
X182819804Y-83469840D01*
X182786751Y-83472964D01*
X182776325Y-83473950D01*
X182764656Y-83474500D01*
X173063189Y-83474500D01*
X173005248Y-83460130D01*
X172960736Y-83420352D01*
X172939969Y-83364384D01*
X172936383Y-83332560D01*
X172936313Y-83331941D01*
X172880456Y-83172310D01*
X172849505Y-83123053D01*
X172830500Y-83057082D01*
X172830500Y-81960120D01*
X172842405Y-81907103D01*
X172875835Y-81864267D01*
X172899787Y-81844609D01*
X172940883Y-81810883D01*
X173065910Y-81658538D01*
X173158814Y-81484727D01*
X173214851Y-81299999D01*
X178594540Y-81299999D01*
X178614326Y-81488257D01*
X178672820Y-81668284D01*
X178767466Y-81832216D01*
X178894129Y-81972889D01*
X179047269Y-82084151D01*
X179220197Y-82161144D01*
X179405352Y-82200500D01*
X179405354Y-82200500D01*
X179594646Y-82200500D01*
X179594648Y-82200500D01*
X179725492Y-82172688D01*
X179779803Y-82161144D01*
X179952730Y-82084151D01*
X180017956Y-82036762D01*
X180105870Y-81972889D01*
X180232533Y-81832216D01*
X180327179Y-81668284D01*
X180368101Y-81542339D01*
X180385674Y-81488256D01*
X180405460Y-81300000D01*
X180385674Y-81111744D01*
X180342153Y-80977801D01*
X180327179Y-80931715D01*
X180232533Y-80767783D01*
X180105870Y-80627110D01*
X179952730Y-80515848D01*
X179779802Y-80438855D01*
X179594648Y-80399500D01*
X179594646Y-80399500D01*
X179405354Y-80399500D01*
X179405352Y-80399500D01*
X179220197Y-80438855D01*
X179047269Y-80515848D01*
X178894129Y-80627110D01*
X178767466Y-80767783D01*
X178672820Y-80931715D01*
X178614326Y-81111742D01*
X178594540Y-81299999D01*
X173214851Y-81299999D01*
X173216024Y-81296132D01*
X173235341Y-81100000D01*
X173216024Y-80903868D01*
X173158814Y-80715273D01*
X173065910Y-80541462D01*
X172940883Y-80389117D01*
X172788538Y-80264090D01*
X172748060Y-80242454D01*
X172614726Y-80171185D01*
X172426133Y-80113976D01*
X172230000Y-80094659D01*
X172033866Y-80113976D01*
X171845273Y-80171185D01*
X171660691Y-80269847D01*
X171660197Y-80268923D01*
X171623157Y-80287190D01*
X171566843Y-80287190D01*
X171529802Y-80268923D01*
X171529309Y-80269847D01*
X171344726Y-80171185D01*
X171156133Y-80113976D01*
X170960000Y-80094659D01*
X170763866Y-80113976D01*
X170575273Y-80171185D01*
X170390691Y-80269847D01*
X170390252Y-80269026D01*
X170352760Y-80287514D01*
X170296445Y-80287512D01*
X170259539Y-80269310D01*
X170259030Y-80270264D01*
X170074534Y-80171649D01*
X169940001Y-80130839D01*
X169940000Y-80130840D01*
X169940000Y-82069160D01*
X169940001Y-82069160D01*
X170074532Y-82028350D01*
X170177048Y-81973556D01*
X170238544Y-81958952D01*
X170299249Y-81976557D01*
X170343391Y-82021796D01*
X170359500Y-82082915D01*
X170359500Y-82927771D01*
X170350061Y-82975224D01*
X170323181Y-83015452D01*
X170309524Y-83029108D01*
X170219544Y-83172310D01*
X170163686Y-83331943D01*
X170160031Y-83364384D01*
X170139264Y-83420352D01*
X170094752Y-83460130D01*
X170036811Y-83474500D01*
X169423472Y-83474500D01*
X169361472Y-83457887D01*
X169316085Y-83412500D01*
X169232533Y-83267783D01*
X169105870Y-83127110D01*
X168952730Y-83015848D01*
X168779802Y-82938855D01*
X168594648Y-82899500D01*
X168594646Y-82899500D01*
X168549096Y-82899500D01*
X168492801Y-82885985D01*
X168448778Y-82848385D01*
X168426623Y-82794898D01*
X168431165Y-82737182D01*
X168461415Y-82687819D01*
X168624929Y-82524305D01*
X168811043Y-82338190D01*
X168823223Y-82327509D01*
X168848282Y-82308282D01*
X168944536Y-82182841D01*
X169005044Y-82036762D01*
X169005044Y-82036759D01*
X169009997Y-82024803D01*
X169052330Y-81971462D01*
X169116448Y-81948521D01*
X169183011Y-81962897D01*
X169305465Y-82028350D01*
X169439998Y-82069160D01*
X169440000Y-82069160D01*
X169440000Y-80130840D01*
X169439998Y-80130839D01*
X169305465Y-80171649D01*
X169120970Y-80270264D01*
X169120460Y-80269311D01*
X169083546Y-80287514D01*
X169027231Y-80287512D01*
X168989747Y-80269025D01*
X168989309Y-80269847D01*
X168804726Y-80171185D01*
X168616133Y-80113976D01*
X168420000Y-80094659D01*
X168223866Y-80113976D01*
X168035270Y-80171186D01*
X168033139Y-80172326D01*
X168027834Y-80173442D01*
X168023587Y-80174731D01*
X168023474Y-80174360D01*
X167965292Y-80186607D01*
X167900384Y-80162232D01*
X167892333Y-80156205D01*
X167892331Y-80156204D01*
X167757483Y-80105909D01*
X167697873Y-80099500D01*
X167697869Y-80099500D01*
X166602130Y-80099500D01*
X166542515Y-80105909D01*
X166407669Y-80156204D01*
X166292454Y-80242454D01*
X166206202Y-80357671D01*
X166184317Y-80416348D01*
X166154061Y-80462417D01*
X166106829Y-80490823D01*
X166051953Y-80495953D01*
X166039529Y-80494317D01*
X166006134Y-80498714D01*
X166000166Y-80499500D01*
X165882764Y-80514956D01*
X165736688Y-80575462D01*
X165708166Y-80597348D01*
X165611245Y-80671718D01*
X165611243Y-80671719D01*
X165611242Y-80671721D01*
X165592017Y-80696774D01*
X165581325Y-80708965D01*
X164208965Y-82081325D01*
X164196773Y-82092018D01*
X164171717Y-82111244D01*
X164095651Y-82210378D01*
X164095649Y-82210379D01*
X164075463Y-82236686D01*
X164014956Y-82382764D01*
X163994317Y-82539526D01*
X163998439Y-82570828D01*
X163999500Y-82587014D01*
X163999500Y-82789916D01*
X163987421Y-82843299D01*
X163953536Y-82886282D01*
X163904447Y-82910490D01*
X163849719Y-82911206D01*
X163794647Y-82899500D01*
X163794646Y-82899500D01*
X163605354Y-82899500D01*
X163605352Y-82899500D01*
X163420197Y-82938855D01*
X163247269Y-83015848D01*
X163122885Y-83106218D01*
X163075781Y-83127190D01*
X163024219Y-83127190D01*
X162977115Y-83106218D01*
X162852730Y-83015848D01*
X162679802Y-82938855D01*
X162494648Y-82899500D01*
X162494646Y-82899500D01*
X162305354Y-82899500D01*
X162305352Y-82899500D01*
X162120197Y-82938855D01*
X161947269Y-83015848D01*
X161794129Y-83127110D01*
X161667466Y-83267783D01*
X161572820Y-83431715D01*
X161514326Y-83611742D01*
X161496679Y-83779649D01*
X161485279Y-83820070D01*
X161461039Y-83854368D01*
X161016208Y-84299199D01*
X161000110Y-84312096D01*
X160952096Y-84363225D01*
X160949391Y-84366017D01*
X160929874Y-84385534D01*
X160927415Y-84388705D01*
X160919842Y-84397572D01*
X160889935Y-84429420D01*
X160880285Y-84446974D01*
X160869609Y-84463228D01*
X160857326Y-84479063D01*
X160839975Y-84519158D01*
X160834838Y-84529644D01*
X160813802Y-84567907D01*
X160808821Y-84587309D01*
X160802520Y-84605711D01*
X160794561Y-84624102D01*
X160787728Y-84667242D01*
X160785360Y-84678674D01*
X160774500Y-84720978D01*
X160774500Y-84741016D01*
X160772973Y-84760413D01*
X160769840Y-84780196D01*
X160772543Y-84808789D01*
X160773950Y-84823675D01*
X160774500Y-84835344D01*
X160774500Y-85113933D01*
X160765061Y-85161386D01*
X160738181Y-85201614D01*
X151634456Y-94305337D01*
X151586634Y-94335075D01*
X151530590Y-94340595D01*
X151477885Y-94320758D01*
X151439388Y-94279657D01*
X151432532Y-94267782D01*
X151305870Y-94127110D01*
X151152730Y-94015848D01*
X150979802Y-93938855D01*
X150794648Y-93899500D01*
X150794646Y-93899500D01*
X150605354Y-93899500D01*
X150605352Y-93899500D01*
X150420197Y-93938855D01*
X150247269Y-94015848D01*
X150094129Y-94127110D01*
X149967466Y-94267783D01*
X149872820Y-94431715D01*
X149814326Y-94611742D01*
X149794540Y-94800000D01*
X149803456Y-94884830D01*
X149793415Y-94948226D01*
X149753021Y-94998109D01*
X149693097Y-95021112D01*
X149629700Y-95011071D01*
X149579801Y-94988854D01*
X149394648Y-94949500D01*
X149394646Y-94949500D01*
X149205354Y-94949500D01*
X149205352Y-94949500D01*
X149020197Y-94988855D01*
X148847269Y-95065848D01*
X148694129Y-95177110D01*
X148567466Y-95317783D01*
X148472820Y-95481715D01*
X148414326Y-95661742D01*
X148394540Y-95850000D01*
X148414326Y-96038257D01*
X148472820Y-96218284D01*
X148567466Y-96382216D01*
X148694129Y-96522889D01*
X148847269Y-96634151D01*
X149020197Y-96711144D01*
X149205352Y-96750500D01*
X149205354Y-96750500D01*
X149394646Y-96750500D01*
X149394648Y-96750500D01*
X149564649Y-96714365D01*
X149579803Y-96711144D01*
X149752730Y-96634151D01*
X149756082Y-96631716D01*
X149905870Y-96522889D01*
X150032533Y-96382216D01*
X150127179Y-96218284D01*
X150133764Y-96198018D01*
X150185674Y-96038256D01*
X150205460Y-95850000D01*
X150196543Y-95765165D01*
X150206584Y-95701773D01*
X150246978Y-95651890D01*
X150306902Y-95628887D01*
X150370299Y-95638928D01*
X150390381Y-95647869D01*
X150420197Y-95661144D01*
X150476283Y-95673065D01*
X150526841Y-95696641D01*
X150561950Y-95739997D01*
X150574500Y-95794355D01*
X150574500Y-99217256D01*
X150572235Y-99237762D01*
X150574439Y-99307873D01*
X150574500Y-99311768D01*
X150574500Y-99339349D01*
X150575003Y-99343334D01*
X150575918Y-99354967D01*
X150577290Y-99398626D01*
X150582879Y-99417860D01*
X150586825Y-99436916D01*
X150589335Y-99456792D01*
X150605414Y-99497404D01*
X150609197Y-99508451D01*
X150621382Y-99550391D01*
X150631580Y-99567635D01*
X150640136Y-99585100D01*
X150647514Y-99603732D01*
X150647515Y-99603733D01*
X150673180Y-99639059D01*
X150679593Y-99648822D01*
X150701826Y-99686416D01*
X150701829Y-99686419D01*
X150701830Y-99686420D01*
X150715995Y-99700585D01*
X150728627Y-99715375D01*
X150740406Y-99731587D01*
X150774058Y-99759426D01*
X150782699Y-99767289D01*
X151788181Y-100772772D01*
X151815061Y-100813000D01*
X151824500Y-100860453D01*
X151824500Y-103678658D01*
X151810667Y-103735572D01*
X151772255Y-103779788D01*
X151717834Y-103801440D01*
X151659548Y-103795700D01*
X151568059Y-103763687D01*
X151568055Y-103763686D01*
X151568054Y-103763686D01*
X151400000Y-103744750D01*
X151231943Y-103763686D01*
X151072310Y-103819543D01*
X151072310Y-103819544D01*
X150998130Y-103866155D01*
X150929107Y-103909525D01*
X150887680Y-103950952D01*
X150832093Y-103983045D01*
X150767907Y-103983045D01*
X150712320Y-103950952D01*
X150670892Y-103909525D01*
X150670890Y-103909523D01*
X150527690Y-103819544D01*
X150368059Y-103763687D01*
X150368058Y-103763686D01*
X150368056Y-103763686D01*
X150200000Y-103744750D01*
X150031943Y-103763686D01*
X149872310Y-103819544D01*
X149729108Y-103909524D01*
X149609524Y-104029108D01*
X149519544Y-104172310D01*
X149463686Y-104331943D01*
X149444750Y-104499999D01*
X149463686Y-104668056D01*
X149519544Y-104827690D01*
X149555494Y-104884904D01*
X149574500Y-104950876D01*
X149574500Y-109389548D01*
X149565061Y-109437001D01*
X149538181Y-109477229D01*
X148701146Y-110314262D01*
X148650095Y-110345047D01*
X148590577Y-110348450D01*
X148536350Y-110323685D01*
X148499946Y-110276476D01*
X148489781Y-110217738D01*
X148505355Y-110000000D01*
X148485961Y-109728840D01*
X148428175Y-109463199D01*
X148333172Y-109208487D01*
X148294277Y-109137255D01*
X148202890Y-108969891D01*
X148170033Y-108925999D01*
X148039971Y-108752258D01*
X147847742Y-108560029D01*
X147633970Y-108400000D01*
X147630108Y-108397109D01*
X147391519Y-108266831D01*
X147391517Y-108266830D01*
X147391513Y-108266828D01*
X147136801Y-108171825D01*
X147136796Y-108171823D01*
X146871161Y-108114039D01*
X146600000Y-108094644D01*
X146328838Y-108114039D01*
X146063203Y-108171823D01*
X145956172Y-108211744D01*
X145808487Y-108266828D01*
X145808484Y-108266829D01*
X145808480Y-108266831D01*
X145569891Y-108397109D01*
X145352255Y-108560031D01*
X145160031Y-108752255D01*
X144997109Y-108969891D01*
X144866831Y-109208480D01*
X144866829Y-109208484D01*
X144866828Y-109208487D01*
X144855043Y-109240085D01*
X144771823Y-109463203D01*
X144714039Y-109728838D01*
X144694644Y-110000000D01*
X144714039Y-110271161D01*
X144765272Y-110506680D01*
X144771825Y-110536801D01*
X144866828Y-110791513D01*
X144866830Y-110791517D01*
X144866831Y-110791519D01*
X144997109Y-111030108D01*
X144997113Y-111030113D01*
X145160029Y-111247742D01*
X145352258Y-111439971D01*
X145568281Y-111601685D01*
X145569891Y-111602890D01*
X145765802Y-111709864D01*
X145808487Y-111733172D01*
X146063199Y-111828175D01*
X146063202Y-111828175D01*
X146063203Y-111828176D01*
X146112852Y-111838976D01*
X146328840Y-111885961D01*
X146579110Y-111903860D01*
X146599999Y-111905355D01*
X146599999Y-111905354D01*
X146600000Y-111905355D01*
X146817738Y-111889781D01*
X146876476Y-111899946D01*
X146923685Y-111936350D01*
X146948450Y-111990577D01*
X146945047Y-112050095D01*
X146914262Y-112101146D01*
X144016747Y-114998662D01*
X143976519Y-115025542D01*
X143929066Y-115034981D01*
X140422263Y-115034981D01*
X140401755Y-115032716D01*
X140331632Y-115034920D01*
X140327738Y-115034981D01*
X140300169Y-115034981D01*
X140296190Y-115035483D01*
X140284560Y-115036398D01*
X140240891Y-115037770D01*
X140221647Y-115043361D01*
X140202603Y-115047305D01*
X140182727Y-115049816D01*
X140142119Y-115065894D01*
X140131073Y-115069675D01*
X140089129Y-115081863D01*
X140089126Y-115081864D01*
X140071884Y-115092060D01*
X140054423Y-115100614D01*
X140035786Y-115107993D01*
X140000450Y-115133666D01*
X139990693Y-115140076D01*
X139953099Y-115162310D01*
X139938932Y-115176477D01*
X139924143Y-115189107D01*
X139907932Y-115200885D01*
X139880091Y-115234539D01*
X139872230Y-115243178D01*
X139152227Y-115963181D01*
X139111999Y-115990061D01*
X139064546Y-115999500D01*
X137452130Y-115999500D01*
X137392515Y-116005909D01*
X137257669Y-116056204D01*
X137142454Y-116142454D01*
X137056204Y-116257668D01*
X137005909Y-116392516D01*
X136999500Y-116452130D01*
X136999500Y-118547869D01*
X125500500Y-118547869D01*
X125500500Y-110000000D01*
X133494644Y-110000000D01*
X133514039Y-110271161D01*
X133565272Y-110506680D01*
X133571825Y-110536801D01*
X133666828Y-110791513D01*
X133666830Y-110791517D01*
X133666831Y-110791519D01*
X133797109Y-111030108D01*
X133797113Y-111030113D01*
X133960029Y-111247742D01*
X134152258Y-111439971D01*
X134368281Y-111601685D01*
X134369891Y-111602890D01*
X134565802Y-111709864D01*
X134608487Y-111733172D01*
X134863199Y-111828175D01*
X134863202Y-111828175D01*
X134863203Y-111828176D01*
X134912852Y-111838976D01*
X135128840Y-111885961D01*
X135400000Y-111905355D01*
X135671160Y-111885961D01*
X135936801Y-111828175D01*
X136191513Y-111733172D01*
X136430113Y-111602887D01*
X136647742Y-111439971D01*
X136839971Y-111247742D01*
X137002887Y-111030113D01*
X137005520Y-111025292D01*
X137069084Y-110908882D01*
X137133172Y-110791513D01*
X137228175Y-110536801D01*
X137285961Y-110271160D01*
X137305355Y-110000000D01*
X137285961Y-109728840D01*
X137228175Y-109463199D01*
X137133172Y-109208487D01*
X137094277Y-109137255D01*
X137002890Y-108969891D01*
X136970033Y-108925999D01*
X136839971Y-108752258D01*
X136647742Y-108560029D01*
X136433970Y-108400000D01*
X136430108Y-108397109D01*
X136191519Y-108266831D01*
X136191517Y-108266830D01*
X136191513Y-108266828D01*
X135936801Y-108171825D01*
X135936796Y-108171823D01*
X135671161Y-108114039D01*
X135400000Y-108094644D01*
X135128838Y-108114039D01*
X134863203Y-108171823D01*
X134756172Y-108211744D01*
X134608487Y-108266828D01*
X134608484Y-108266829D01*
X134608480Y-108266831D01*
X134369891Y-108397109D01*
X134152255Y-108560031D01*
X133960031Y-108752255D01*
X133797109Y-108969891D01*
X133666831Y-109208480D01*
X133666829Y-109208484D01*
X133666828Y-109208487D01*
X133655043Y-109240085D01*
X133571823Y-109463203D01*
X133514039Y-109728838D01*
X133494644Y-110000000D01*
X125500500Y-110000000D01*
X125500500Y-107000000D01*
X144794540Y-107000000D01*
X144796428Y-107017966D01*
X144814326Y-107188257D01*
X144872820Y-107368284D01*
X144967466Y-107532216D01*
X145094129Y-107672889D01*
X145247269Y-107784151D01*
X145420197Y-107861144D01*
X145605352Y-107900500D01*
X145605354Y-107900500D01*
X145794646Y-107900500D01*
X145794648Y-107900500D01*
X145918083Y-107874262D01*
X145979803Y-107861144D01*
X146152730Y-107784151D01*
X146174716Y-107768177D01*
X146305870Y-107672889D01*
X146321444Y-107655593D01*
X146432533Y-107532216D01*
X146527179Y-107368284D01*
X146585674Y-107188256D01*
X146605460Y-107000000D01*
X146585674Y-106811744D01*
X146527179Y-106631716D01*
X146527179Y-106631715D01*
X146432533Y-106467783D01*
X146305870Y-106327110D01*
X146152730Y-106215848D01*
X145979802Y-106138855D01*
X145794648Y-106099500D01*
X145794646Y-106099500D01*
X145605354Y-106099500D01*
X145605352Y-106099500D01*
X145420197Y-106138855D01*
X145247269Y-106215848D01*
X145094129Y-106327110D01*
X144967466Y-106467783D01*
X144872820Y-106631715D01*
X144814326Y-106811742D01*
X144814325Y-106811744D01*
X144814326Y-106811744D01*
X144794540Y-107000000D01*
X125500500Y-107000000D01*
X125500500Y-104499999D01*
X126694531Y-104499999D01*
X126714364Y-104726689D01*
X126773261Y-104946497D01*
X126869432Y-105152735D01*
X126999953Y-105339140D01*
X127160859Y-105500046D01*
X127347264Y-105630567D01*
X127347265Y-105630567D01*
X127347266Y-105630568D01*
X127553504Y-105726739D01*
X127773308Y-105785635D01*
X127858262Y-105793067D01*
X127943214Y-105800500D01*
X127943216Y-105800500D01*
X128056784Y-105800500D01*
X128056786Y-105800500D01*
X128124747Y-105794554D01*
X128226692Y-105785635D01*
X128446496Y-105726739D01*
X128652734Y-105630568D01*
X128839139Y-105500047D01*
X129000047Y-105339139D01*
X129130568Y-105152734D01*
X129226739Y-104946496D01*
X129239198Y-104900000D01*
X134194540Y-104900000D01*
X134214326Y-105088257D01*
X134272820Y-105268284D01*
X134367466Y-105432216D01*
X134494129Y-105572889D01*
X134647269Y-105684151D01*
X134820197Y-105761144D01*
X135005352Y-105800500D01*
X135005354Y-105800500D01*
X135194646Y-105800500D01*
X135194648Y-105800500D01*
X135318083Y-105774262D01*
X135379803Y-105761144D01*
X135552730Y-105684151D01*
X135626481Y-105630568D01*
X135705870Y-105572889D01*
X135771458Y-105500047D01*
X135832533Y-105432216D01*
X135886243Y-105339188D01*
X135892613Y-105328155D01*
X135938000Y-105282768D01*
X136000000Y-105266155D01*
X136062000Y-105282768D01*
X136107387Y-105328155D01*
X136167466Y-105432216D01*
X136294129Y-105572889D01*
X136447269Y-105684151D01*
X136620197Y-105761144D01*
X136805352Y-105800500D01*
X136805354Y-105800500D01*
X136994646Y-105800500D01*
X136994648Y-105800500D01*
X137118083Y-105774262D01*
X137179803Y-105761144D01*
X137352730Y-105684151D01*
X137426481Y-105630568D01*
X137505870Y-105572889D01*
X137571458Y-105500047D01*
X137632533Y-105432216D01*
X137727179Y-105268284D01*
X137785674Y-105088256D01*
X137805460Y-104900000D01*
X137785674Y-104711744D01*
X137740557Y-104572888D01*
X137727179Y-104531715D01*
X137632533Y-104367784D01*
X137556168Y-104282972D01*
X137528001Y-104229998D01*
X137528001Y-104170002D01*
X137556168Y-104117028D01*
X137613365Y-104053504D01*
X137632533Y-104032216D01*
X137708868Y-103900000D01*
X144794540Y-103900000D01*
X144814326Y-104088257D01*
X144872820Y-104268284D01*
X144967466Y-104432216D01*
X145094129Y-104572889D01*
X145247269Y-104684151D01*
X145420197Y-104761144D01*
X145605352Y-104800500D01*
X145605354Y-104800500D01*
X145794646Y-104800500D01*
X145794648Y-104800500D01*
X145918084Y-104774262D01*
X145979803Y-104761144D01*
X146152730Y-104684151D01*
X146174883Y-104668056D01*
X146305870Y-104572889D01*
X146342943Y-104531716D01*
X146432533Y-104432216D01*
X146527179Y-104268284D01*
X146585674Y-104088256D01*
X146605460Y-103900000D01*
X146585674Y-103711744D01*
X146527179Y-103531716D01*
X146527179Y-103531715D01*
X146432533Y-103367783D01*
X146305870Y-103227110D01*
X146152730Y-103115848D01*
X145979802Y-103038855D01*
X145794648Y-102999500D01*
X145794646Y-102999500D01*
X145605354Y-102999500D01*
X145605352Y-102999500D01*
X145420197Y-103038855D01*
X145247269Y-103115848D01*
X145094129Y-103227110D01*
X144967466Y-103367783D01*
X144872820Y-103531715D01*
X144814326Y-103711742D01*
X144794540Y-103900000D01*
X137708868Y-103900000D01*
X137727179Y-103868284D01*
X137785674Y-103688256D01*
X137805460Y-103500000D01*
X137785674Y-103311744D01*
X137754033Y-103214364D01*
X137727179Y-103131715D01*
X137632533Y-102967783D01*
X137556168Y-102882971D01*
X137528001Y-102829997D01*
X137528002Y-102770000D01*
X137556168Y-102717027D01*
X137632533Y-102632216D01*
X137727179Y-102468284D01*
X137785674Y-102288256D01*
X137805460Y-102100000D01*
X137785674Y-101911744D01*
X137755332Y-101818363D01*
X137727179Y-101731715D01*
X137632533Y-101567783D01*
X137505870Y-101427110D01*
X137352730Y-101315848D01*
X137179802Y-101238855D01*
X136994648Y-101199500D01*
X136994646Y-101199500D01*
X136805354Y-101199500D01*
X136805352Y-101199500D01*
X136620197Y-101238855D01*
X136447269Y-101315848D01*
X136294129Y-101427110D01*
X136167466Y-101567784D01*
X136107387Y-101671844D01*
X136062000Y-101717231D01*
X136000000Y-101733844D01*
X135938000Y-101717231D01*
X135892613Y-101671844D01*
X135832533Y-101567784D01*
X135705870Y-101427110D01*
X135552730Y-101315848D01*
X135379802Y-101238855D01*
X135194648Y-101199500D01*
X135194646Y-101199500D01*
X135005354Y-101199500D01*
X135005352Y-101199500D01*
X134820197Y-101238855D01*
X134647269Y-101315848D01*
X134494129Y-101427110D01*
X134367466Y-101567783D01*
X134272820Y-101731715D01*
X134214326Y-101911742D01*
X134194540Y-102099999D01*
X134214326Y-102288257D01*
X134272820Y-102468284D01*
X134367466Y-102632216D01*
X134443831Y-102717027D01*
X134471998Y-102770000D01*
X134471998Y-102829997D01*
X134443832Y-102882970D01*
X134367466Y-102967783D01*
X134272820Y-103131715D01*
X134214326Y-103311742D01*
X134199374Y-103454002D01*
X134194540Y-103500000D01*
X134197873Y-103531715D01*
X134214326Y-103688257D01*
X134272820Y-103868284D01*
X134367466Y-104032215D01*
X134443832Y-104117028D01*
X134471999Y-104170002D01*
X134471999Y-104229998D01*
X134443832Y-104282972D01*
X134367466Y-104367784D01*
X134272820Y-104531715D01*
X134214326Y-104711742D01*
X134194540Y-104900000D01*
X129239198Y-104900000D01*
X129285635Y-104726692D01*
X129305468Y-104500000D01*
X129285635Y-104273308D01*
X129226739Y-104053504D01*
X129130568Y-103847266D01*
X129094461Y-103795700D01*
X129000046Y-103660859D01*
X128839140Y-103499953D01*
X128652735Y-103369432D01*
X128446497Y-103273261D01*
X128226689Y-103214364D01*
X128056786Y-103199500D01*
X128056784Y-103199500D01*
X127943216Y-103199500D01*
X127943214Y-103199500D01*
X127773310Y-103214364D01*
X127553502Y-103273261D01*
X127347264Y-103369432D01*
X127160859Y-103499953D01*
X126999953Y-103660859D01*
X126869432Y-103847264D01*
X126773261Y-104053502D01*
X126714364Y-104273310D01*
X126694531Y-104499999D01*
X125500500Y-104499999D01*
X125500500Y-101200000D01*
X129994540Y-101200000D01*
X130014326Y-101388257D01*
X130072820Y-101568284D01*
X130167466Y-101732216D01*
X130294129Y-101872889D01*
X130447269Y-101984151D01*
X130620197Y-102061144D01*
X130805352Y-102100500D01*
X130805354Y-102100500D01*
X130994646Y-102100500D01*
X130994648Y-102100500D01*
X131131712Y-102071366D01*
X131179803Y-102061144D01*
X131352730Y-101984151D01*
X131452393Y-101911742D01*
X131505870Y-101872889D01*
X131632533Y-101732216D01*
X131727179Y-101568284D01*
X131754515Y-101484152D01*
X131785674Y-101388256D01*
X131805460Y-101200000D01*
X131785674Y-101011744D01*
X131755332Y-100918363D01*
X131727179Y-100831715D01*
X131632533Y-100667783D01*
X131505870Y-100527110D01*
X131352730Y-100415848D01*
X131179802Y-100338855D01*
X130994648Y-100299500D01*
X130994646Y-100299500D01*
X130805354Y-100299500D01*
X130805352Y-100299500D01*
X130620197Y-100338855D01*
X130447269Y-100415848D01*
X130294129Y-100527110D01*
X130167466Y-100667783D01*
X130072820Y-100831715D01*
X130014326Y-101011742D01*
X129994540Y-101200000D01*
X125500500Y-101200000D01*
X125500500Y-99099999D01*
X131994540Y-99099999D01*
X132014326Y-99288257D01*
X132072820Y-99468284D01*
X132167466Y-99632216D01*
X132294129Y-99772889D01*
X132447269Y-99884151D01*
X132620197Y-99961144D01*
X132805352Y-100000500D01*
X132805354Y-100000500D01*
X132994646Y-100000500D01*
X132994648Y-100000500D01*
X133147270Y-99968059D01*
X133179803Y-99961144D01*
X133352730Y-99884151D01*
X133375410Y-99867673D01*
X133505870Y-99772889D01*
X133570979Y-99700579D01*
X133632533Y-99632216D01*
X133727179Y-99468284D01*
X133785674Y-99288256D01*
X133805460Y-99100000D01*
X133785674Y-98911744D01*
X133727179Y-98731716D01*
X133727179Y-98731715D01*
X133632533Y-98567783D01*
X133505870Y-98427110D01*
X133352730Y-98315848D01*
X133179802Y-98238855D01*
X132994648Y-98199500D01*
X132994646Y-98199500D01*
X132805354Y-98199500D01*
X132805352Y-98199500D01*
X132620197Y-98238855D01*
X132447269Y-98315848D01*
X132294129Y-98427110D01*
X132167466Y-98567783D01*
X132072820Y-98731715D01*
X132014326Y-98911742D01*
X131994540Y-99099999D01*
X125500500Y-99099999D01*
X125500500Y-96400000D01*
X130944659Y-96400000D01*
X130963976Y-96596133D01*
X131021185Y-96784726D01*
X131065449Y-96867537D01*
X131114090Y-96958538D01*
X131239117Y-97110883D01*
X131391462Y-97235910D01*
X131565273Y-97328814D01*
X131753868Y-97386024D01*
X131950000Y-97405341D01*
X132146132Y-97386024D01*
X132334727Y-97328814D01*
X132508538Y-97235910D01*
X132660883Y-97110883D01*
X132785910Y-96958538D01*
X132878814Y-96784727D01*
X132904516Y-96700000D01*
X134794540Y-96700000D01*
X134814326Y-96888257D01*
X134872820Y-97068284D01*
X134967466Y-97232216D01*
X135094129Y-97372889D01*
X135247269Y-97484151D01*
X135420197Y-97561144D01*
X135605352Y-97600500D01*
X135605354Y-97600500D01*
X135794646Y-97600500D01*
X135794648Y-97600500D01*
X135918084Y-97574262D01*
X135979803Y-97561144D01*
X136152730Y-97484151D01*
X136261203Y-97405341D01*
X136305870Y-97372889D01*
X136345556Y-97328814D01*
X136432533Y-97232216D01*
X136527179Y-97068284D01*
X136585674Y-96888256D01*
X136605460Y-96700000D01*
X139394540Y-96700000D01*
X139414326Y-96888257D01*
X139472820Y-97068284D01*
X139567466Y-97232216D01*
X139694129Y-97372889D01*
X139847269Y-97484151D01*
X140020197Y-97561144D01*
X140205352Y-97600500D01*
X140205354Y-97600500D01*
X140394646Y-97600500D01*
X140394648Y-97600500D01*
X140518084Y-97574262D01*
X140579803Y-97561144D01*
X140752730Y-97484151D01*
X140861203Y-97405341D01*
X140905870Y-97372889D01*
X140945556Y-97328814D01*
X141032533Y-97232216D01*
X141127179Y-97068284D01*
X141185674Y-96888256D01*
X141205460Y-96700000D01*
X141185674Y-96511744D01*
X141134580Y-96354493D01*
X141127179Y-96331715D01*
X141032533Y-96167783D01*
X140905870Y-96027110D01*
X140752730Y-95915848D01*
X140579802Y-95838855D01*
X140394648Y-95799500D01*
X140394646Y-95799500D01*
X140205354Y-95799500D01*
X140205352Y-95799500D01*
X140020197Y-95838855D01*
X139847269Y-95915848D01*
X139694129Y-96027110D01*
X139567466Y-96167783D01*
X139472820Y-96331715D01*
X139414326Y-96511742D01*
X139394540Y-96700000D01*
X136605460Y-96700000D01*
X136585674Y-96511744D01*
X136534580Y-96354493D01*
X136527179Y-96331715D01*
X136432533Y-96167783D01*
X136305870Y-96027110D01*
X136152730Y-95915848D01*
X135979802Y-95838855D01*
X135794648Y-95799500D01*
X135794646Y-95799500D01*
X135605354Y-95799500D01*
X135605352Y-95799500D01*
X135420197Y-95838855D01*
X135247269Y-95915848D01*
X135094129Y-96027110D01*
X134967466Y-96167783D01*
X134872820Y-96331715D01*
X134814326Y-96511742D01*
X134794540Y-96700000D01*
X132904516Y-96700000D01*
X132936024Y-96596132D01*
X132955341Y-96400000D01*
X132936024Y-96203868D01*
X132878814Y-96015273D01*
X132785910Y-95841462D01*
X132660883Y-95689117D01*
X132508538Y-95564090D01*
X132391613Y-95501592D01*
X132334726Y-95471185D01*
X132146133Y-95413976D01*
X131950000Y-95394659D01*
X131753866Y-95413976D01*
X131565273Y-95471185D01*
X131391463Y-95564089D01*
X131239117Y-95689117D01*
X131114089Y-95841463D01*
X131021185Y-96015273D01*
X130963976Y-96203866D01*
X130944659Y-96400000D01*
X125500500Y-96400000D01*
X125500500Y-94530000D01*
X132680000Y-94530000D01*
X132680000Y-94880710D01*
X132695419Y-95032339D01*
X132756303Y-95226389D01*
X132855003Y-95404214D01*
X132987479Y-95558531D01*
X133148307Y-95683021D01*
X133330905Y-95772589D01*
X133429999Y-95798246D01*
X133430000Y-95798247D01*
X133430000Y-94530000D01*
X133930000Y-94530000D01*
X133930000Y-95803366D01*
X133931948Y-95803067D01*
X134122663Y-95732435D01*
X134295263Y-95624854D01*
X134442669Y-95484733D01*
X134558855Y-95317805D01*
X134639059Y-95130907D01*
X134680000Y-94931689D01*
X134680000Y-94530000D01*
X141320000Y-94530000D01*
X141320000Y-94880710D01*
X141335419Y-95032339D01*
X141396303Y-95226389D01*
X141495003Y-95404214D01*
X141627479Y-95558531D01*
X141788307Y-95683021D01*
X141970905Y-95772589D01*
X142069999Y-95798246D01*
X142070000Y-95798247D01*
X142070000Y-94530000D01*
X142570000Y-94530000D01*
X142570000Y-95803366D01*
X142571948Y-95803067D01*
X142762663Y-95732435D01*
X142935263Y-95624854D01*
X143082669Y-95484733D01*
X143198855Y-95317805D01*
X143279059Y-95130907D01*
X143320000Y-94931689D01*
X143320000Y-94530000D01*
X142570000Y-94530000D01*
X142070000Y-94530000D01*
X141320000Y-94530000D01*
X134680000Y-94530000D01*
X133930000Y-94530000D01*
X133430000Y-94530000D01*
X132680000Y-94530000D01*
X125500500Y-94530000D01*
X125500500Y-94030000D01*
X132680000Y-94030000D01*
X133430000Y-94030000D01*
X133430000Y-92761753D01*
X133930000Y-92761753D01*
X133930000Y-94030000D01*
X134598601Y-94030000D01*
X134648003Y-94040266D01*
X134689225Y-94069364D01*
X134775244Y-94161469D01*
X134898670Y-94236526D01*
X135037772Y-94275500D01*
X135145949Y-94275500D01*
X135253111Y-94260771D01*
X135385609Y-94203219D01*
X135497665Y-94112054D01*
X135580971Y-93994037D01*
X135629346Y-93857921D01*
X135634252Y-93786199D01*
X140360796Y-93786199D01*
X140372165Y-93840909D01*
X140390186Y-93927634D01*
X140456646Y-94055896D01*
X140555244Y-94161469D01*
X140678670Y-94236526D01*
X140817772Y-94275500D01*
X140925949Y-94275500D01*
X141033111Y-94260771D01*
X141165609Y-94203219D01*
X141277665Y-94112054D01*
X141298532Y-94082491D01*
X141342787Y-94043903D01*
X141399836Y-94030000D01*
X142070000Y-94030000D01*
X142070000Y-92761753D01*
X142570000Y-92761753D01*
X142570000Y-94030000D01*
X143320000Y-94030000D01*
X143320000Y-93679290D01*
X143304580Y-93527660D01*
X143243696Y-93333610D01*
X143144996Y-93155785D01*
X143012520Y-93001468D01*
X142851692Y-92876978D01*
X142669094Y-92787410D01*
X142570000Y-92761753D01*
X142070000Y-92761753D01*
X142070000Y-92756634D01*
X142068051Y-92756932D01*
X141877336Y-92827564D01*
X141704736Y-92935145D01*
X141557330Y-93075266D01*
X141441142Y-93242197D01*
X141419605Y-93292384D01*
X141382572Y-93340745D01*
X141326978Y-93365636D01*
X141266239Y-93361052D01*
X141240914Y-93344760D01*
X141239318Y-93347386D01*
X141101329Y-93263473D01*
X140962228Y-93224500D01*
X140854051Y-93224500D01*
X140746889Y-93239229D01*
X140614391Y-93296781D01*
X140502333Y-93387946D01*
X140419030Y-93505960D01*
X140370653Y-93642081D01*
X140365748Y-93713801D01*
X140360796Y-93786199D01*
X135634252Y-93786199D01*
X135639204Y-93713801D01*
X135609814Y-93572366D01*
X135543354Y-93444105D01*
X135543353Y-93444103D01*
X135444755Y-93338530D01*
X135321329Y-93263473D01*
X135182228Y-93224500D01*
X135074051Y-93224500D01*
X134966889Y-93239229D01*
X134834390Y-93296781D01*
X134776211Y-93344113D01*
X134728177Y-93368185D01*
X134674469Y-93369679D01*
X134625171Y-93348314D01*
X134589538Y-93308101D01*
X134504996Y-93155785D01*
X134372520Y-93001468D01*
X134211692Y-92876978D01*
X134029094Y-92787410D01*
X133930000Y-92761753D01*
X133430000Y-92761753D01*
X133430000Y-92756634D01*
X133428051Y-92756932D01*
X133237336Y-92827564D01*
X133064736Y-92935145D01*
X132917330Y-93075266D01*
X132801144Y-93242194D01*
X132720940Y-93429092D01*
X132680000Y-93628311D01*
X132680000Y-94030000D01*
X125500500Y-94030000D01*
X125500500Y-90350000D01*
X132680000Y-90350000D01*
X132680000Y-90450710D01*
X132695419Y-90602339D01*
X132756303Y-90796389D01*
X132855003Y-90974214D01*
X132987479Y-91128531D01*
X133148307Y-91253021D01*
X133330905Y-91342589D01*
X133429999Y-91368246D01*
X133430000Y-91368247D01*
X133430000Y-90350000D01*
X133930000Y-90350000D01*
X133930000Y-91373366D01*
X133931948Y-91373067D01*
X134122663Y-91302435D01*
X134295263Y-91194854D01*
X134442669Y-91054733D01*
X134558855Y-90887805D01*
X134639059Y-90700907D01*
X134680000Y-90501689D01*
X134680000Y-90350000D01*
X141320000Y-90350000D01*
X141320000Y-90450710D01*
X141335419Y-90602339D01*
X141396303Y-90796389D01*
X141495003Y-90974214D01*
X141627479Y-91128531D01*
X141788307Y-91253021D01*
X141970905Y-91342589D01*
X142069999Y-91368246D01*
X142070000Y-91368247D01*
X142070000Y-90350000D01*
X142570000Y-90350000D01*
X142570000Y-91373366D01*
X142571948Y-91373067D01*
X142762663Y-91302435D01*
X142935263Y-91194854D01*
X143082669Y-91054733D01*
X143198855Y-90887805D01*
X143279059Y-90700907D01*
X143320000Y-90501689D01*
X143320000Y-90350000D01*
X142570000Y-90350000D01*
X142070000Y-90350000D01*
X141320000Y-90350000D01*
X134680000Y-90350000D01*
X133930000Y-90350000D01*
X133430000Y-90350000D01*
X132680000Y-90350000D01*
X125500500Y-90350000D01*
X125500500Y-89850000D01*
X132680000Y-89850000D01*
X133430000Y-89850000D01*
X133430000Y-88831753D01*
X133930000Y-88831753D01*
X133930000Y-89850000D01*
X134680000Y-89850000D01*
X141320000Y-89850000D01*
X142070000Y-89850000D01*
X142070000Y-88831753D01*
X142570000Y-88831753D01*
X142570000Y-89850000D01*
X143320000Y-89850000D01*
X143320000Y-89749290D01*
X143304580Y-89597660D01*
X143243696Y-89403610D01*
X143186188Y-89300000D01*
X147868586Y-89300000D01*
X147888178Y-89473878D01*
X147888178Y-89473880D01*
X147888179Y-89473881D01*
X147945971Y-89639042D01*
X148039067Y-89787203D01*
X148162797Y-89910933D01*
X148310958Y-90004029D01*
X148476119Y-90061821D01*
X148525988Y-90067440D01*
X148606394Y-90076500D01*
X148606397Y-90076500D01*
X148693603Y-90076500D01*
X148693606Y-90076500D01*
X148758741Y-90069160D01*
X148823881Y-90061821D01*
X148989042Y-90004029D01*
X149137203Y-89910933D01*
X149260933Y-89787203D01*
X149354029Y-89639042D01*
X149411821Y-89473881D01*
X149431413Y-89300000D01*
X149411821Y-89126119D01*
X149354029Y-88960958D01*
X149260933Y-88812797D01*
X149137203Y-88689067D01*
X148989042Y-88595971D01*
X148823881Y-88538179D01*
X148823880Y-88538178D01*
X148823878Y-88538178D01*
X148693606Y-88523500D01*
X148693603Y-88523500D01*
X148606397Y-88523500D01*
X148606394Y-88523500D01*
X148476121Y-88538178D01*
X148310957Y-88595971D01*
X148162795Y-88689068D01*
X148039068Y-88812795D01*
X147945971Y-88960957D01*
X147888178Y-89126121D01*
X147868586Y-89300000D01*
X143186188Y-89300000D01*
X143144996Y-89225785D01*
X143012520Y-89071468D01*
X142851692Y-88946978D01*
X142669094Y-88857410D01*
X142570000Y-88831753D01*
X142070000Y-88831753D01*
X142070000Y-88826634D01*
X142068051Y-88826932D01*
X141877336Y-88897564D01*
X141704736Y-89005145D01*
X141557330Y-89145266D01*
X141441144Y-89312194D01*
X141360940Y-89499092D01*
X141320000Y-89698311D01*
X141320000Y-89850000D01*
X134680000Y-89850000D01*
X134680000Y-89749290D01*
X134664580Y-89597660D01*
X134603696Y-89403610D01*
X134504996Y-89225785D01*
X134372520Y-89071468D01*
X134211692Y-88946978D01*
X134029094Y-88857410D01*
X133930000Y-88831753D01*
X133430000Y-88831753D01*
X133430000Y-88826634D01*
X133428051Y-88826932D01*
X133237336Y-88897564D01*
X133064736Y-89005145D01*
X132917330Y-89145266D01*
X132801144Y-89312194D01*
X132720940Y-89499092D01*
X132680000Y-89698311D01*
X132680000Y-89850000D01*
X125500500Y-89850000D01*
X125500500Y-84504428D01*
X125500816Y-84495582D01*
X125503681Y-84455525D01*
X125515130Y-84295436D01*
X125517646Y-84277938D01*
X125559356Y-84086199D01*
X125564333Y-84069248D01*
X125632911Y-83885385D01*
X125640259Y-83869298D01*
X125688727Y-83780535D01*
X125734291Y-83697089D01*
X125743845Y-83682221D01*
X125861448Y-83525123D01*
X125873020Y-83511769D01*
X126011769Y-83373020D01*
X126025123Y-83361448D01*
X126182221Y-83243845D01*
X126197089Y-83234291D01*
X126369298Y-83140258D01*
X126385385Y-83132911D01*
X126569248Y-83064333D01*
X126586199Y-83059356D01*
X126777938Y-83017646D01*
X126795436Y-83015130D01*
X126995581Y-83000816D01*
X127004428Y-83000500D01*
X127065892Y-83000500D01*
X127934108Y-83000500D01*
X127993038Y-83000500D01*
X128006922Y-83001280D01*
X128097266Y-83011459D01*
X128124331Y-83017636D01*
X128203540Y-83045352D01*
X128228553Y-83057398D01*
X128299606Y-83102043D01*
X128321313Y-83119355D01*
X128380644Y-83178686D01*
X128397957Y-83200395D01*
X128442600Y-83271444D01*
X128454648Y-83296462D01*
X128482362Y-83375666D01*
X128488540Y-83402735D01*
X128498720Y-83493077D01*
X128499500Y-83506962D01*
X128499500Y-85651251D01*
X128535962Y-85951550D01*
X128608357Y-86245267D01*
X128687327Y-86453492D01*
X128715627Y-86528113D01*
X128855112Y-86793878D01*
X128856210Y-86795970D01*
X129028051Y-87044926D01*
X129121447Y-87150348D01*
X129228648Y-87271352D01*
X129311198Y-87344485D01*
X129455073Y-87471948D01*
X129455076Y-87471950D01*
X129704033Y-87643792D01*
X129971887Y-87784373D01*
X130254734Y-87891643D01*
X130548449Y-87964037D01*
X130848748Y-88000500D01*
X130964201Y-88000500D01*
X131000000Y-88000500D01*
X131065892Y-88000500D01*
X138955954Y-88000500D01*
X138957165Y-88000585D01*
X138965183Y-88000569D01*
X138965188Y-88000570D01*
X139000464Y-88000500D01*
X139000671Y-88000500D01*
X139043930Y-88000500D01*
X139045126Y-88000411D01*
X139646532Y-87999225D01*
X139652988Y-87999638D01*
X139657528Y-87999577D01*
X139657532Y-87999578D01*
X139689943Y-87999146D01*
X139691120Y-87999136D01*
X139723458Y-87999074D01*
X139723465Y-87999072D01*
X139728018Y-87999064D01*
X139734445Y-87998554D01*
X140337343Y-87990537D01*
X140348655Y-87991074D01*
X140350239Y-87991018D01*
X140350241Y-87991019D01*
X140379362Y-87990006D01*
X140381964Y-87989943D01*
X140411081Y-87989557D01*
X140411086Y-87989556D01*
X140412675Y-87989535D01*
X140423931Y-87988456D01*
X141024140Y-87967591D01*
X141038056Y-87967889D01*
X141038754Y-87967944D01*
X141065025Y-87966226D01*
X141068720Y-87966041D01*
X141094995Y-87965129D01*
X141095685Y-87965004D01*
X141109494Y-87963318D01*
X141703099Y-87924515D01*
X141715991Y-87924346D01*
X141719251Y-87924473D01*
X141742890Y-87922006D01*
X141747586Y-87921607D01*
X141771290Y-87920059D01*
X141774483Y-87919384D01*
X141787203Y-87917382D01*
X142371050Y-87856467D01*
X142383022Y-87855803D01*
X142388539Y-87855765D01*
X142409766Y-87852559D01*
X142415379Y-87851843D01*
X142436756Y-87849613D01*
X142442114Y-87848263D01*
X142453867Y-87845900D01*
X143025322Y-87759616D01*
X143036491Y-87758445D01*
X143043935Y-87758005D01*
X143063099Y-87754081D01*
X143069407Y-87752959D01*
X143088756Y-87750039D01*
X143095879Y-87747892D01*
X143106783Y-87745139D01*
X143663787Y-87631119D01*
X143674295Y-87629435D01*
X143683200Y-87628397D01*
X143700631Y-87623780D01*
X143707458Y-87622179D01*
X143725138Y-87618561D01*
X143733596Y-87615523D01*
X143743724Y-87612370D01*
X144284664Y-87469135D01*
X144294608Y-87466936D01*
X144304497Y-87465175D01*
X144320596Y-87459854D01*
X144327736Y-87457730D01*
X144344158Y-87453383D01*
X144353412Y-87449451D01*
X144362960Y-87445853D01*
X144886514Y-87272834D01*
X144896099Y-87270090D01*
X144906396Y-87267588D01*
X144921648Y-87261474D01*
X144928852Y-87258842D01*
X144944464Y-87253684D01*
X144953922Y-87248974D01*
X144963045Y-87244882D01*
X145468418Y-87042330D01*
X145477847Y-87038987D01*
X145487912Y-87035871D01*
X145502772Y-87028817D01*
X145509812Y-87025740D01*
X145514260Y-87023957D01*
X145525093Y-87019616D01*
X145534223Y-87014339D01*
X145543086Y-87009686D01*
X146029830Y-86778684D01*
X146039252Y-86774681D01*
X146048571Y-86771171D01*
X146063506Y-86762949D01*
X146070125Y-86759561D01*
X146085531Y-86752251D01*
X146093825Y-86746745D01*
X146102565Y-86741451D01*
X146570780Y-86483747D01*
X146580343Y-86479010D01*
X146588440Y-86475426D01*
X146603844Y-86465774D01*
X146609858Y-86462239D01*
X146625755Y-86453491D01*
X146632824Y-86448160D01*
X146641596Y-86442123D01*
X147091805Y-86160074D01*
X147101638Y-86154522D01*
X147108149Y-86151228D01*
X147124248Y-86139944D01*
X147129583Y-86136408D01*
X147146271Y-86125953D01*
X147146270Y-86125953D01*
X147146276Y-86125950D01*
X147151865Y-86121217D01*
X147160813Y-86114318D01*
X147593933Y-85810777D01*
X147604118Y-85804353D01*
X147608853Y-85801680D01*
X147625917Y-85788519D01*
X147630469Y-85785172D01*
X147648129Y-85772797D01*
X147652098Y-85769067D01*
X147661244Y-85761278D01*
X148078764Y-85439314D01*
X148089352Y-85431995D01*
X148092161Y-85430263D01*
X148110360Y-85415067D01*
X148114061Y-85412097D01*
X148132842Y-85397615D01*
X148135142Y-85395247D01*
X148144582Y-85386492D01*
X148548161Y-85049518D01*
X148559214Y-85041290D01*
X148560046Y-85040741D01*
X148579471Y-85023454D01*
X148582405Y-85020926D01*
X148602338Y-85004285D01*
X148602997Y-85003552D01*
X148612796Y-84993801D01*
X149004330Y-84645403D01*
X149014018Y-84637766D01*
X149014753Y-84637079D01*
X149014757Y-84637077D01*
X149035516Y-84617699D01*
X149037687Y-84615721D01*
X149058868Y-84596875D01*
X149058873Y-84596868D01*
X149059619Y-84596205D01*
X149068118Y-84587268D01*
X149449715Y-84231086D01*
X149456483Y-84225530D01*
X149458714Y-84223379D01*
X149458722Y-84223374D01*
X149480978Y-84201924D01*
X149482243Y-84200724D01*
X149504881Y-84179596D01*
X149504887Y-84179587D01*
X149507148Y-84177478D01*
X149513058Y-84171010D01*
X149690515Y-83999999D01*
X156444750Y-83999999D01*
X156463686Y-84168056D01*
X156463686Y-84168058D01*
X156463687Y-84168059D01*
X156519544Y-84327690D01*
X156609523Y-84470890D01*
X156729110Y-84590477D01*
X156872310Y-84680456D01*
X157031941Y-84736313D01*
X157050966Y-84738456D01*
X157090880Y-84749955D01*
X157124760Y-84773995D01*
X157726004Y-85375239D01*
X157750043Y-85409118D01*
X157761543Y-85449035D01*
X157763686Y-85468056D01*
X157763686Y-85468058D01*
X157763687Y-85468059D01*
X157819544Y-85627690D01*
X157909523Y-85770890D01*
X158029110Y-85890477D01*
X158172310Y-85980456D01*
X158331941Y-86036313D01*
X158500000Y-86055249D01*
X158668059Y-86036313D01*
X158827690Y-85980456D01*
X158970890Y-85890477D01*
X159090477Y-85770890D01*
X159180456Y-85627690D01*
X159236313Y-85468059D01*
X159255249Y-85300000D01*
X159236313Y-85131941D01*
X159180456Y-84972310D01*
X159090477Y-84829110D01*
X158970890Y-84709523D01*
X158827690Y-84619544D01*
X158668059Y-84563687D01*
X158668058Y-84563686D01*
X158668056Y-84563686D01*
X158649035Y-84561543D01*
X158609118Y-84550043D01*
X158575239Y-84526004D01*
X157973995Y-83924760D01*
X157949955Y-83890880D01*
X157938456Y-83850966D01*
X157936313Y-83831941D01*
X157880456Y-83672310D01*
X157790477Y-83529110D01*
X157670890Y-83409523D01*
X157527690Y-83319544D01*
X157368059Y-83263687D01*
X157368058Y-83263686D01*
X157368056Y-83263686D01*
X157200000Y-83244750D01*
X157031943Y-83263686D01*
X156872310Y-83319544D01*
X156729108Y-83409524D01*
X156609524Y-83529108D01*
X156519544Y-83672310D01*
X156463686Y-83831943D01*
X156444750Y-83999999D01*
X149690515Y-83999999D01*
X149886818Y-83810826D01*
X149890392Y-83807820D01*
X149894469Y-83803827D01*
X149894474Y-83803824D01*
X149918297Y-83780494D01*
X149918818Y-83779988D01*
X149942963Y-83756722D01*
X149942967Y-83756715D01*
X149947076Y-83752757D01*
X149950189Y-83749265D01*
X150375747Y-83332560D01*
X150375747Y-83332559D01*
X150778565Y-82938116D01*
X150779243Y-82937459D01*
X150795367Y-82921921D01*
X151206633Y-82525592D01*
X151207914Y-82524377D01*
X151636745Y-82124107D01*
X151638774Y-82122257D01*
X152071355Y-81737334D01*
X152074198Y-81734885D01*
X152512646Y-81368799D01*
X152516336Y-81365837D01*
X152962806Y-81021549D01*
X152967338Y-81018216D01*
X153423829Y-80698296D01*
X153429123Y-80694786D01*
X153897703Y-80401227D01*
X153903729Y-80397685D01*
X154386307Y-80132076D01*
X154392921Y-80128692D01*
X154891470Y-79892089D01*
X154898488Y-79889020D01*
X155414824Y-79682073D01*
X155422001Y-79679452D01*
X155957745Y-79502404D01*
X155964845Y-79500293D01*
X156521256Y-79352961D01*
X156528065Y-79351364D01*
X157105835Y-79233094D01*
X157112156Y-79231970D01*
X157711365Y-79141495D01*
X157716925Y-79140785D01*
X158337065Y-79076084D01*
X158341743Y-79075688D01*
X158981302Y-79033880D01*
X158985079Y-79033692D01*
X159642080Y-79010852D01*
X159644664Y-79010789D01*
X160316537Y-79001855D01*
X160317706Y-79001845D01*
X161000291Y-79000500D01*
X180999542Y-79000500D01*
X181644572Y-79001057D01*
G37*
%TD.AperFunction*%
%TD*%
M02*
