%TF.GenerationSoftware,KiCad,Pcbnew,7.0.1*%
%TF.CreationDate,2023-07-01T02:03:31-04:00*%
%TF.ProjectId,Fluxpad,466c7578-7061-4642-9e6b-696361645f70,rev?*%
%TF.SameCoordinates,Original*%
%TF.FileFunction,Copper,L3,Inr*%
%TF.FilePolarity,Positive*%
%FSLAX46Y46*%
G04 Gerber Fmt 4.6, Leading zero omitted, Abs format (unit mm)*
G04 Created by KiCad (PCBNEW 7.0.1) date 2023-07-01 02:03:31*
%MOMM*%
%LPD*%
G01*
G04 APERTURE LIST*
%TA.AperFunction,ComponentPad*%
%ADD10R,2.000000X2.000000*%
%TD*%
%TA.AperFunction,ComponentPad*%
%ADD11C,2.000000*%
%TD*%
%TA.AperFunction,ComponentPad*%
%ADD12C,2.800000*%
%TD*%
%TA.AperFunction,ComponentPad*%
%ADD13R,1.000000X1.000000*%
%TD*%
%TA.AperFunction,ComponentPad*%
%ADD14O,1.000000X1.000000*%
%TD*%
%TA.AperFunction,ComponentPad*%
%ADD15O,1.000000X1.600000*%
%TD*%
%TA.AperFunction,ComponentPad*%
%ADD16O,1.000000X2.100000*%
%TD*%
%TA.AperFunction,ViaPad*%
%ADD17C,0.800000*%
%TD*%
%TA.AperFunction,ViaPad*%
%ADD18C,0.500000*%
%TD*%
%TA.AperFunction,ViaPad*%
%ADD19C,1.000000*%
%TD*%
%TA.AperFunction,Conductor*%
%ADD20C,0.500000*%
%TD*%
%TA.AperFunction,Conductor*%
%ADD21C,0.800000*%
%TD*%
G04 APERTURE END LIST*
D10*
%TO.N,/ENCA*%
%TO.C,SW3*%
X138500000Y-117500000D03*
D11*
%TO.N,/ENCB*%
X143500000Y-117500000D03*
%TO.N,GND*%
X141000000Y-117500000D03*
D12*
%TO.N,N/C*%
X135400000Y-110000000D03*
X146600000Y-110000000D03*
%TD*%
D13*
%TO.N,/UART0_TX*%
%TO.C,J4*%
X167150000Y-81100000D03*
D14*
%TO.N,/UART0_RX*%
X168420000Y-81100000D03*
%TO.N,GND*%
X169690000Y-81100000D03*
%TO.N,/SWDIO*%
X170960000Y-81100000D03*
%TO.N,/SWCLK*%
X172230000Y-81100000D03*
%TD*%
D15*
%TO.N,GND*%
%TO.C,J1*%
X133680000Y-90100000D03*
D16*
X133680000Y-94280000D03*
D15*
X142320000Y-90100000D03*
D16*
X142320000Y-94280000D03*
%TD*%
D17*
%TO.N,GND*%
X154000000Y-82500000D03*
X183500000Y-81500000D03*
X192000000Y-98000000D03*
X192000000Y-111000000D03*
X192000000Y-127000000D03*
X128000000Y-135000000D03*
X128000000Y-90000000D03*
X128000000Y-98000000D03*
X128000000Y-111050000D03*
X128000000Y-119000000D03*
X128000000Y-127000000D03*
X135500000Y-143500000D03*
X148500000Y-143500000D03*
X159950000Y-143500000D03*
X171000000Y-143500000D03*
X184500000Y-143500000D03*
X191800000Y-135000000D03*
X192000000Y-119000000D03*
X192000000Y-90000000D03*
D18*
%TO.N,+1V1*%
X162400000Y-92800000D03*
X157200000Y-84000000D03*
X162400000Y-90800000D03*
X161000000Y-87600000D03*
X166900000Y-91000000D03*
X158500000Y-85300000D03*
D17*
%TO.N,Net-(D1-A)*%
X161900000Y-115000000D03*
%TO.N,+3V3*%
X171100000Y-97100000D03*
X178500000Y-85874500D03*
X145700000Y-107000000D03*
D18*
X158500000Y-94000000D03*
D17*
X179500000Y-81300000D03*
X166700000Y-97000000D03*
X135100000Y-103500000D03*
X145700000Y-103900000D03*
X171400000Y-91200000D03*
X150700000Y-94800000D03*
X135100000Y-104900000D03*
X136900000Y-102100000D03*
X136900000Y-103500000D03*
X171700000Y-109900000D03*
X161287500Y-94500000D03*
X135100000Y-102100000D03*
X161300000Y-86700000D03*
X149300000Y-95850000D03*
X166300000Y-108400000D03*
X136900000Y-104900000D03*
%TO.N,SW1*%
X168600000Y-96400000D03*
X164700000Y-100700000D03*
%TO.N,SW4*%
X167000000Y-124500000D03*
X169000000Y-114300000D03*
%TO.N,+5V*%
X170200000Y-119700000D03*
X160200000Y-125500000D03*
D19*
X173400000Y-97075000D03*
X162800000Y-98700000D03*
D17*
X130900000Y-101200000D03*
X177100000Y-119100000D03*
X159400000Y-118600000D03*
X135700000Y-96700000D03*
X132900000Y-99100000D03*
X159400000Y-120400000D03*
D19*
X131950000Y-96400000D03*
D17*
X140300000Y-96700000D03*
X179000000Y-125500000D03*
X141200000Y-125500000D03*
D19*
X182450000Y-97075000D03*
D17*
%TO.N,GND*%
X138800000Y-134000000D03*
X143600000Y-88500000D03*
X130925000Y-105800000D03*
D18*
X162000000Y-97800000D03*
D17*
X164200000Y-89000000D03*
X160700000Y-98600000D03*
X164725000Y-89950000D03*
X159500000Y-121600000D03*
X141000000Y-132700000D03*
X132850000Y-108150000D03*
X174771142Y-87973223D03*
X179500000Y-120200000D03*
X184900000Y-102200000D03*
X172900000Y-93400000D03*
X157550000Y-97000000D03*
X157800000Y-123400000D03*
X171200000Y-94300000D03*
D18*
X167300000Y-85724500D03*
D17*
X160600000Y-81200000D03*
X133400000Y-96500000D03*
X160000000Y-132600000D03*
X177000000Y-126400000D03*
X179000000Y-132600000D03*
X156200000Y-88000000D03*
X165900000Y-102000000D03*
X163675000Y-89950000D03*
X176700000Y-115000000D03*
D18*
X166700000Y-98000000D03*
D17*
X142600000Y-96500000D03*
X159800000Y-84900000D03*
X149300000Y-100100000D03*
X143800000Y-103700000D03*
X165775000Y-89950000D03*
X165300000Y-89000000D03*
X143950000Y-96500000D03*
X132400000Y-88500000D03*
X140100000Y-123600000D03*
X168800000Y-119700000D03*
X177550000Y-93000000D03*
X176800000Y-134000000D03*
X178800000Y-89300000D03*
X157900000Y-115000000D03*
X150700000Y-91400000D03*
X187400000Y-92700000D03*
D18*
X163100000Y-85400000D03*
D17*
X159500000Y-117600000D03*
X157800000Y-134000000D03*
%TO.N,Net-(D2-A)*%
X180700000Y-115000000D03*
%TO.N,Net-(D3-A)*%
X143600000Y-134000000D03*
%TO.N,Net-(D4-A)*%
X162400000Y-134000000D03*
D18*
%TO.N,/UART0_TX*%
X162400000Y-88600000D03*
%TO.N,/UART0_RX*%
X163200000Y-88500000D03*
%TO.N,/SWDIO*%
X168300000Y-86900000D03*
X170900000Y-83500000D03*
X166800000Y-91900000D03*
%TO.N,/SWCLK*%
X167000000Y-92700000D03*
X172200000Y-83500000D03*
X168900000Y-87500000D03*
D17*
%TO.N,/RGB_DOUT*%
X168900000Y-86000000D03*
%TO.N,/SW5*%
X169300000Y-113300000D03*
X172000000Y-124600000D03*
%TO.N,Net-(D8-A)*%
X181300000Y-134000000D03*
%TO.N,/LED1*%
X165791237Y-83483675D03*
X164900000Y-112300000D03*
%TO.N,/LED2*%
X167300000Y-83800000D03*
X182600000Y-111900000D03*
%TO.N,/LED3*%
X148500000Y-134000000D03*
X162400000Y-83800000D03*
%TO.N,/LED4*%
X163700000Y-83800000D03*
X167500000Y-134000000D03*
%TO.N,/LED5*%
X168500000Y-83800000D03*
X184400000Y-132400000D03*
D18*
%TO.N,/ENCA*%
X164700000Y-93200000D03*
X150200000Y-104500000D03*
X159600000Y-99100000D03*
%TO.N,/ENCB*%
X161600000Y-99800000D03*
X151400000Y-104500000D03*
X165500000Y-93300000D03*
%TD*%
D20*
%TO.N,+3V3*%
X167800000Y-109900000D02*
X171700000Y-109900000D01*
D21*
X145700000Y-107000000D02*
X145700000Y-103900000D01*
D20*
X166300000Y-108400000D02*
X167800000Y-109900000D01*
%TD*%
%TA.AperFunction,Conductor*%
%TO.N,GND*%
G36*
X181644572Y-79001057D02*
G01*
X181644645Y-79001058D01*
X182284918Y-79004864D01*
X182286049Y-79004876D01*
X182920541Y-79014892D01*
X182922268Y-79014932D01*
X183549536Y-79033831D01*
X183551780Y-79033919D01*
X184170716Y-79064105D01*
X184173349Y-79064263D01*
X184782467Y-79107860D01*
X184785722Y-79108137D01*
X185383509Y-79166999D01*
X185387264Y-79167427D01*
X185972549Y-79243194D01*
X185976676Y-79243801D01*
X186548128Y-79337856D01*
X186552762Y-79338710D01*
X187108982Y-79452187D01*
X187114004Y-79453321D01*
X187653894Y-79587179D01*
X187659291Y-79588649D01*
X187953079Y-79675802D01*
X188181634Y-79743605D01*
X188187389Y-79745466D01*
X188554190Y-79874050D01*
X188691227Y-79922089D01*
X188697236Y-79924373D01*
X188967586Y-80035258D01*
X189181641Y-80123054D01*
X189187889Y-80125820D01*
X189283177Y-80171186D01*
X189652071Y-80346815D01*
X189658428Y-80350071D01*
X190101812Y-80593566D01*
X190108214Y-80597337D01*
X190530221Y-80863371D01*
X190536613Y-80867684D01*
X190936848Y-81156264D01*
X190943095Y-81161078D01*
X191321285Y-81472185D01*
X191327300Y-81477468D01*
X191683261Y-81811050D01*
X191688949Y-81816738D01*
X192022523Y-82172688D01*
X192027800Y-82178696D01*
X192338930Y-82556918D01*
X192343739Y-82563158D01*
X192632317Y-82963390D01*
X192636632Y-82969785D01*
X192728422Y-83115390D01*
X192900425Y-83388235D01*
X192902644Y-83391754D01*
X192906432Y-83398184D01*
X193116409Y-83780535D01*
X193149913Y-83841543D01*
X193153183Y-83847929D01*
X193374178Y-84312110D01*
X193376944Y-84318358D01*
X193575623Y-84802755D01*
X193577916Y-84808789D01*
X193754533Y-85312608D01*
X193756392Y-85318359D01*
X193784632Y-85413551D01*
X193911344Y-85840687D01*
X193912821Y-85846112D01*
X194046673Y-86385978D01*
X194047814Y-86391032D01*
X194161287Y-86947229D01*
X194162144Y-86951878D01*
X194256188Y-87523268D01*
X194256808Y-87527486D01*
X194332572Y-88112734D01*
X194333001Y-88116503D01*
X194391859Y-88714256D01*
X194392140Y-88717554D01*
X194410273Y-88970891D01*
X194432429Y-89280456D01*
X194435729Y-89326554D01*
X194435898Y-89329367D01*
X194466077Y-89948187D01*
X194466168Y-89950493D01*
X194485065Y-90577703D01*
X194485106Y-90579480D01*
X194495121Y-91213907D01*
X194495134Y-91215127D01*
X194498939Y-91855099D01*
X194498941Y-91855728D01*
X194499500Y-92500456D01*
X194499500Y-132499544D01*
X194498941Y-133144270D01*
X194498939Y-133144899D01*
X194495134Y-133784871D01*
X194495121Y-133786091D01*
X194485106Y-134420518D01*
X194485065Y-134422295D01*
X194466168Y-135049505D01*
X194466077Y-135051811D01*
X194435898Y-135670631D01*
X194435729Y-135673444D01*
X194392140Y-136282444D01*
X194391859Y-136285742D01*
X194333001Y-136883495D01*
X194332572Y-136887264D01*
X194256808Y-137472512D01*
X194256188Y-137476730D01*
X194162144Y-138048120D01*
X194161287Y-138052769D01*
X194047814Y-138608966D01*
X194046673Y-138614020D01*
X193912821Y-139153886D01*
X193911344Y-139159311D01*
X193756394Y-139681635D01*
X193754533Y-139687390D01*
X193577916Y-140191209D01*
X193575623Y-140197243D01*
X193376944Y-140681640D01*
X193374178Y-140687888D01*
X193153183Y-141152069D01*
X193149913Y-141158455D01*
X192906437Y-141601806D01*
X192902644Y-141608244D01*
X192636632Y-142030213D01*
X192632317Y-142036608D01*
X192343739Y-142436840D01*
X192338920Y-142443094D01*
X192027806Y-142821295D01*
X192022523Y-142827310D01*
X191688949Y-143183260D01*
X191683261Y-143188948D01*
X191327300Y-143522530D01*
X191321285Y-143527813D01*
X190943095Y-143838920D01*
X190936841Y-143843739D01*
X190536616Y-144132312D01*
X190530221Y-144136627D01*
X190108232Y-144402650D01*
X190101794Y-144406443D01*
X189658442Y-144649920D01*
X189652056Y-144653190D01*
X189187889Y-144874178D01*
X189181641Y-144876944D01*
X188697255Y-145075618D01*
X188691221Y-145077911D01*
X188187389Y-145254532D01*
X188181634Y-145256393D01*
X187659305Y-145411345D01*
X187653880Y-145412822D01*
X187114020Y-145546673D01*
X187108966Y-145547814D01*
X186552770Y-145661286D01*
X186548121Y-145662143D01*
X185976722Y-145756190D01*
X185972503Y-145756810D01*
X185387270Y-145832570D01*
X185383502Y-145832999D01*
X184785741Y-145891859D01*
X184782443Y-145892140D01*
X184223574Y-145932140D01*
X184173436Y-145935729D01*
X184170629Y-145935898D01*
X183551811Y-145966077D01*
X183549505Y-145966168D01*
X182922293Y-145985065D01*
X182920516Y-145985106D01*
X182286092Y-145995121D01*
X182284872Y-145995134D01*
X181644898Y-145998939D01*
X181644269Y-145998941D01*
X181001417Y-145999498D01*
X180999542Y-145999500D01*
X139000457Y-145999500D01*
X138998576Y-145999498D01*
X138355728Y-145998941D01*
X138355099Y-145998939D01*
X137715127Y-145995134D01*
X137713907Y-145995121D01*
X137079480Y-145985106D01*
X137077703Y-145985065D01*
X136450493Y-145966168D01*
X136448187Y-145966077D01*
X135863808Y-145937577D01*
X135829363Y-145935897D01*
X135826565Y-145935729D01*
X135716156Y-145927827D01*
X135217554Y-145892140D01*
X135214256Y-145891859D01*
X134616503Y-145833001D01*
X134612734Y-145832572D01*
X134027486Y-145756808D01*
X134023268Y-145756188D01*
X133451878Y-145662144D01*
X133447229Y-145661287D01*
X132891032Y-145547814D01*
X132885978Y-145546673D01*
X132346112Y-145412821D01*
X132340687Y-145411344D01*
X131893086Y-145278561D01*
X131818359Y-145256392D01*
X131812608Y-145254533D01*
X131812605Y-145254532D01*
X131713147Y-145219666D01*
X131308789Y-145077916D01*
X131302755Y-145075623D01*
X130818358Y-144876944D01*
X130812110Y-144874178D01*
X130347929Y-144653183D01*
X130341543Y-144649913D01*
X130313903Y-144634734D01*
X129898184Y-144406432D01*
X129891763Y-144402649D01*
X129644889Y-144247018D01*
X129469785Y-144136632D01*
X129463390Y-144132317D01*
X129063158Y-143843739D01*
X129056918Y-143838930D01*
X128678696Y-143527800D01*
X128672688Y-143522523D01*
X128648654Y-143500000D01*
X140694531Y-143500000D01*
X140714364Y-143726689D01*
X140773261Y-143946497D01*
X140869432Y-144152735D01*
X140999953Y-144339140D01*
X141160859Y-144500046D01*
X141347264Y-144630567D01*
X141347265Y-144630567D01*
X141347266Y-144630568D01*
X141553504Y-144726739D01*
X141773308Y-144785635D01*
X141858262Y-144793067D01*
X141943214Y-144800500D01*
X141943216Y-144800500D01*
X142056784Y-144800500D01*
X142056786Y-144800500D01*
X142124747Y-144794554D01*
X142226692Y-144785635D01*
X142446496Y-144726739D01*
X142652734Y-144630568D01*
X142839139Y-144500047D01*
X143000047Y-144339139D01*
X143130568Y-144152734D01*
X143226739Y-143946496D01*
X143285635Y-143726692D01*
X143305468Y-143500000D01*
X143305468Y-143499999D01*
X176694531Y-143499999D01*
X176714364Y-143726689D01*
X176773261Y-143946497D01*
X176869432Y-144152735D01*
X176999953Y-144339140D01*
X177160859Y-144500046D01*
X177347264Y-144630567D01*
X177347265Y-144630567D01*
X177347266Y-144630568D01*
X177553504Y-144726739D01*
X177773308Y-144785635D01*
X177858262Y-144793067D01*
X177943214Y-144800500D01*
X177943216Y-144800500D01*
X178056784Y-144800500D01*
X178056786Y-144800500D01*
X178124747Y-144794554D01*
X178226692Y-144785635D01*
X178446496Y-144726739D01*
X178652734Y-144630568D01*
X178839139Y-144500047D01*
X179000047Y-144339139D01*
X179130568Y-144152734D01*
X179226739Y-143946496D01*
X179285635Y-143726692D01*
X179305468Y-143500000D01*
X179285635Y-143273308D01*
X179226739Y-143053504D01*
X179130568Y-142847266D01*
X179114552Y-142824393D01*
X179000046Y-142660859D01*
X178839140Y-142499953D01*
X178652735Y-142369432D01*
X178446497Y-142273261D01*
X178226689Y-142214364D01*
X178056786Y-142199500D01*
X178056784Y-142199500D01*
X177943216Y-142199500D01*
X177943214Y-142199500D01*
X177773310Y-142214364D01*
X177553502Y-142273261D01*
X177347264Y-142369432D01*
X177160859Y-142499953D01*
X176999953Y-142660859D01*
X176869432Y-142847264D01*
X176773261Y-143053502D01*
X176714364Y-143273310D01*
X176694531Y-143499999D01*
X143305468Y-143499999D01*
X143285635Y-143273308D01*
X143226739Y-143053504D01*
X143130568Y-142847266D01*
X143114552Y-142824393D01*
X143000046Y-142660859D01*
X142839140Y-142499953D01*
X142652735Y-142369432D01*
X142446497Y-142273261D01*
X142226689Y-142214364D01*
X142056786Y-142199500D01*
X142056784Y-142199500D01*
X141943216Y-142199500D01*
X141943214Y-142199500D01*
X141773310Y-142214364D01*
X141553502Y-142273261D01*
X141347264Y-142369432D01*
X141160859Y-142499953D01*
X140999953Y-142660859D01*
X140869432Y-142847264D01*
X140773261Y-143053502D01*
X140714364Y-143273310D01*
X140694531Y-143500000D01*
X128648654Y-143500000D01*
X128316738Y-143188949D01*
X128311050Y-143183261D01*
X127977468Y-142827300D01*
X127972185Y-142821285D01*
X127661078Y-142443095D01*
X127661077Y-142443094D01*
X127661072Y-142443088D01*
X127656259Y-142436841D01*
X127656258Y-142436840D01*
X127367684Y-142036613D01*
X127363371Y-142030221D01*
X127119335Y-141643109D01*
X127097337Y-141608214D01*
X127093562Y-141601806D01*
X126850071Y-141158428D01*
X126846815Y-141152069D01*
X126625820Y-140687889D01*
X126623054Y-140681641D01*
X126555222Y-140516261D01*
X126424373Y-140197236D01*
X126422087Y-140191221D01*
X126245466Y-139687389D01*
X126243605Y-139681634D01*
X126088653Y-139159305D01*
X126087176Y-139153880D01*
X126016004Y-138866824D01*
X125953321Y-138614004D01*
X125952184Y-138608966D01*
X125937918Y-138539042D01*
X125868749Y-138200000D01*
X132618586Y-138200000D01*
X132638178Y-138373878D01*
X132638178Y-138373880D01*
X132638179Y-138373881D01*
X132695971Y-138539042D01*
X132789067Y-138687203D01*
X132912797Y-138810933D01*
X133060958Y-138904029D01*
X133226119Y-138961821D01*
X133278230Y-138967692D01*
X133356394Y-138976500D01*
X133356397Y-138976500D01*
X133443603Y-138976500D01*
X133443606Y-138976500D01*
X133508742Y-138969160D01*
X133573881Y-138961821D01*
X133739042Y-138904029D01*
X133887203Y-138810933D01*
X134010933Y-138687203D01*
X134104029Y-138539042D01*
X134161821Y-138373881D01*
X134181413Y-138200000D01*
X134161821Y-138026119D01*
X134104029Y-137860958D01*
X134010933Y-137712797D01*
X133887203Y-137589067D01*
X133739042Y-137495971D01*
X133573881Y-137438179D01*
X133573880Y-137438178D01*
X133573878Y-137438178D01*
X133443606Y-137423500D01*
X133443603Y-137423500D01*
X133356397Y-137423500D01*
X133356394Y-137423500D01*
X133226121Y-137438178D01*
X133060957Y-137495971D01*
X132912795Y-137589068D01*
X132789068Y-137712795D01*
X132695971Y-137860957D01*
X132638178Y-138026121D01*
X132618586Y-138200000D01*
X125868749Y-138200000D01*
X125838710Y-138052762D01*
X125837855Y-138048121D01*
X125823505Y-137960933D01*
X125743801Y-137476676D01*
X125743194Y-137472549D01*
X125727330Y-137349999D01*
X186368586Y-137349999D01*
X186388178Y-137523878D01*
X186388178Y-137523880D01*
X186388179Y-137523881D01*
X186445971Y-137689042D01*
X186539067Y-137837203D01*
X186662797Y-137960933D01*
X186810958Y-138054029D01*
X186976119Y-138111821D01*
X187028230Y-138117692D01*
X187106394Y-138126500D01*
X187106397Y-138126500D01*
X187193603Y-138126500D01*
X187193606Y-138126500D01*
X187258742Y-138119160D01*
X187323881Y-138111821D01*
X187489042Y-138054029D01*
X187637203Y-137960933D01*
X187760933Y-137837203D01*
X187854029Y-137689042D01*
X187911821Y-137523881D01*
X187931413Y-137350000D01*
X187911821Y-137176119D01*
X187854029Y-137010958D01*
X187760933Y-136862797D01*
X187637203Y-136739067D01*
X187489042Y-136645971D01*
X187323881Y-136588179D01*
X187323880Y-136588178D01*
X187323878Y-136588178D01*
X187193606Y-136573500D01*
X187193603Y-136573500D01*
X187106397Y-136573500D01*
X187106394Y-136573500D01*
X186976121Y-136588178D01*
X186810957Y-136645971D01*
X186662795Y-136739068D01*
X186539068Y-136862795D01*
X186445971Y-137010957D01*
X186388178Y-137176121D01*
X186368586Y-137349999D01*
X125727330Y-137349999D01*
X125667427Y-136887264D01*
X125666999Y-136883502D01*
X125613470Y-136339877D01*
X125608137Y-136285722D01*
X125607858Y-136282443D01*
X125564263Y-135673349D01*
X125564105Y-135670716D01*
X125533919Y-135051780D01*
X125533830Y-135049505D01*
X125525835Y-134784151D01*
X125514932Y-134422268D01*
X125514892Y-134420516D01*
X125514704Y-134408578D01*
X125508254Y-134000000D01*
X142694540Y-134000000D01*
X142714326Y-134188257D01*
X142772820Y-134368284D01*
X142867466Y-134532216D01*
X142994129Y-134672889D01*
X143147269Y-134784151D01*
X143320197Y-134861144D01*
X143505352Y-134900500D01*
X143505354Y-134900500D01*
X143694646Y-134900500D01*
X143694648Y-134900500D01*
X143818083Y-134874262D01*
X143879803Y-134861144D01*
X144052730Y-134784151D01*
X144205871Y-134672888D01*
X144332533Y-134532216D01*
X144427179Y-134368284D01*
X144485674Y-134188256D01*
X144505460Y-134000000D01*
X147594540Y-134000000D01*
X147614326Y-134188257D01*
X147672820Y-134368284D01*
X147767466Y-134532216D01*
X147894129Y-134672889D01*
X148047269Y-134784151D01*
X148220197Y-134861144D01*
X148405352Y-134900500D01*
X148405354Y-134900500D01*
X148594646Y-134900500D01*
X148594648Y-134900500D01*
X148718083Y-134874262D01*
X148779803Y-134861144D01*
X148952730Y-134784151D01*
X149105871Y-134672888D01*
X149232533Y-134532216D01*
X149327179Y-134368284D01*
X149385674Y-134188256D01*
X149405460Y-134000000D01*
X161494540Y-134000000D01*
X161514326Y-134188257D01*
X161572820Y-134368284D01*
X161667466Y-134532216D01*
X161794129Y-134672889D01*
X161947269Y-134784151D01*
X162120197Y-134861144D01*
X162305352Y-134900500D01*
X162305354Y-134900500D01*
X162494646Y-134900500D01*
X162494648Y-134900500D01*
X162618083Y-134874262D01*
X162679803Y-134861144D01*
X162852730Y-134784151D01*
X163005871Y-134672888D01*
X163132533Y-134532216D01*
X163227179Y-134368284D01*
X163285674Y-134188256D01*
X163305460Y-134000000D01*
X166594540Y-134000000D01*
X166614326Y-134188257D01*
X166672820Y-134368284D01*
X166767466Y-134532216D01*
X166894129Y-134672889D01*
X167047269Y-134784151D01*
X167220197Y-134861144D01*
X167405352Y-134900500D01*
X167405354Y-134900500D01*
X167594646Y-134900500D01*
X167594648Y-134900500D01*
X167718083Y-134874262D01*
X167779803Y-134861144D01*
X167952730Y-134784151D01*
X168105871Y-134672888D01*
X168232533Y-134532216D01*
X168327179Y-134368284D01*
X168385674Y-134188256D01*
X168405460Y-134000000D01*
X180394540Y-134000000D01*
X180414326Y-134188257D01*
X180472820Y-134368284D01*
X180567466Y-134532216D01*
X180694129Y-134672889D01*
X180847269Y-134784151D01*
X181020197Y-134861144D01*
X181205352Y-134900500D01*
X181205354Y-134900500D01*
X181394646Y-134900500D01*
X181394648Y-134900500D01*
X181518083Y-134874262D01*
X181579803Y-134861144D01*
X181752730Y-134784151D01*
X181905871Y-134672888D01*
X182032533Y-134532216D01*
X182127179Y-134368284D01*
X182185674Y-134188256D01*
X182205460Y-134000000D01*
X182185674Y-133811744D01*
X182127179Y-133631716D01*
X182127179Y-133631715D01*
X182032533Y-133467783D01*
X181905870Y-133327110D01*
X181752730Y-133215848D01*
X181579802Y-133138855D01*
X181394648Y-133099500D01*
X181394646Y-133099500D01*
X181205354Y-133099500D01*
X181205352Y-133099500D01*
X181020197Y-133138855D01*
X180847269Y-133215848D01*
X180694129Y-133327110D01*
X180567466Y-133467783D01*
X180472820Y-133631715D01*
X180414326Y-133811742D01*
X180394540Y-134000000D01*
X168405460Y-134000000D01*
X168385674Y-133811744D01*
X168327179Y-133631716D01*
X168327179Y-133631715D01*
X168232533Y-133467783D01*
X168105870Y-133327110D01*
X167952730Y-133215848D01*
X167779802Y-133138855D01*
X167594648Y-133099500D01*
X167594646Y-133099500D01*
X167405354Y-133099500D01*
X167405352Y-133099500D01*
X167220197Y-133138855D01*
X167047269Y-133215848D01*
X166894129Y-133327110D01*
X166767466Y-133467783D01*
X166672820Y-133631715D01*
X166614326Y-133811742D01*
X166594540Y-134000000D01*
X163305460Y-134000000D01*
X163285674Y-133811744D01*
X163227179Y-133631716D01*
X163227179Y-133631715D01*
X163132533Y-133467783D01*
X163005870Y-133327110D01*
X162852730Y-133215848D01*
X162679802Y-133138855D01*
X162494648Y-133099500D01*
X162494646Y-133099500D01*
X162305354Y-133099500D01*
X162305352Y-133099500D01*
X162120197Y-133138855D01*
X161947269Y-133215848D01*
X161794129Y-133327110D01*
X161667466Y-133467783D01*
X161572820Y-133631715D01*
X161514326Y-133811742D01*
X161494540Y-134000000D01*
X149405460Y-134000000D01*
X149385674Y-133811744D01*
X149327179Y-133631716D01*
X149327179Y-133631715D01*
X149232533Y-133467783D01*
X149105870Y-133327110D01*
X148952730Y-133215848D01*
X148779802Y-133138855D01*
X148594648Y-133099500D01*
X148594646Y-133099500D01*
X148405354Y-133099500D01*
X148405352Y-133099500D01*
X148220197Y-133138855D01*
X148047269Y-133215848D01*
X147894129Y-133327110D01*
X147767466Y-133467783D01*
X147672820Y-133631715D01*
X147614326Y-133811742D01*
X147594540Y-134000000D01*
X144505460Y-134000000D01*
X144485674Y-133811744D01*
X144427179Y-133631716D01*
X144427179Y-133631715D01*
X144332533Y-133467783D01*
X144205870Y-133327110D01*
X144052730Y-133215848D01*
X143879802Y-133138855D01*
X143694648Y-133099500D01*
X143694646Y-133099500D01*
X143505354Y-133099500D01*
X143505352Y-133099500D01*
X143320197Y-133138855D01*
X143147269Y-133215848D01*
X142994129Y-133327110D01*
X142867466Y-133467783D01*
X142772820Y-133631715D01*
X142714326Y-133811742D01*
X142694540Y-134000000D01*
X125508254Y-134000000D01*
X125504876Y-133786049D01*
X125504864Y-133784872D01*
X125504864Y-133784871D01*
X125501058Y-133144612D01*
X125500500Y-132499542D01*
X125500500Y-132399999D01*
X183494540Y-132399999D01*
X183514326Y-132588257D01*
X183572820Y-132768284D01*
X183667466Y-132932216D01*
X183794129Y-133072889D01*
X183947269Y-133184151D01*
X184120197Y-133261144D01*
X184305352Y-133300500D01*
X184305354Y-133300500D01*
X184494646Y-133300500D01*
X184494648Y-133300500D01*
X184618084Y-133274262D01*
X184679803Y-133261144D01*
X184852730Y-133184151D01*
X184855084Y-133182441D01*
X185005870Y-133072889D01*
X185132533Y-132932216D01*
X185227179Y-132768284D01*
X185227179Y-132768283D01*
X185285674Y-132588256D01*
X185305460Y-132400000D01*
X185285674Y-132211744D01*
X185227179Y-132031716D01*
X185227179Y-132031715D01*
X185132533Y-131867783D01*
X185005870Y-131727110D01*
X184852730Y-131615848D01*
X184679802Y-131538855D01*
X184494648Y-131499500D01*
X184494646Y-131499500D01*
X184305354Y-131499500D01*
X184305352Y-131499500D01*
X184120197Y-131538855D01*
X183947269Y-131615848D01*
X183794129Y-131727110D01*
X183667466Y-131867783D01*
X183572820Y-132031715D01*
X183514326Y-132211742D01*
X183494540Y-132399999D01*
X125500500Y-132399999D01*
X125500500Y-128948593D01*
X134840832Y-128948593D01*
X134850605Y-129153756D01*
X134899029Y-129353362D01*
X134942619Y-129448811D01*
X134984354Y-129540199D01*
X135090732Y-129689584D01*
X135103494Y-129707506D01*
X135252146Y-129849245D01*
X135424936Y-129960291D01*
X135615618Y-130036629D01*
X135817302Y-130075500D01*
X135971227Y-130075500D01*
X135971232Y-130075500D01*
X136124466Y-130060868D01*
X136321541Y-130003001D01*
X136504104Y-129908884D01*
X136665556Y-129781916D01*
X136800061Y-129626689D01*
X136902759Y-129448811D01*
X136969937Y-129254712D01*
X136999168Y-129051407D01*
X136994270Y-128948593D01*
X145000832Y-128948593D01*
X145010605Y-129153756D01*
X145059029Y-129353362D01*
X145102619Y-129448811D01*
X145144354Y-129540199D01*
X145250732Y-129689584D01*
X145263494Y-129707506D01*
X145412146Y-129849245D01*
X145584936Y-129960291D01*
X145775618Y-130036629D01*
X145977302Y-130075500D01*
X146131227Y-130075500D01*
X146131232Y-130075500D01*
X146284466Y-130060868D01*
X146481541Y-130003001D01*
X146664104Y-129908884D01*
X146825556Y-129781916D01*
X146960061Y-129626689D01*
X147062759Y-129448811D01*
X147129937Y-129254712D01*
X147159168Y-129051407D01*
X147154270Y-128948593D01*
X153840832Y-128948593D01*
X153850605Y-129153756D01*
X153899029Y-129353362D01*
X153942619Y-129448811D01*
X153984354Y-129540199D01*
X154090732Y-129689584D01*
X154103494Y-129707506D01*
X154252146Y-129849245D01*
X154424936Y-129960291D01*
X154615618Y-130036629D01*
X154817302Y-130075500D01*
X154971227Y-130075500D01*
X154971232Y-130075500D01*
X155124466Y-130060868D01*
X155321541Y-130003001D01*
X155504104Y-129908884D01*
X155665556Y-129781916D01*
X155800061Y-129626689D01*
X155902759Y-129448811D01*
X155969937Y-129254712D01*
X155999168Y-129051407D01*
X155994270Y-128948593D01*
X164000832Y-128948593D01*
X164010605Y-129153756D01*
X164059029Y-129353362D01*
X164102619Y-129448811D01*
X164144354Y-129540199D01*
X164250732Y-129689584D01*
X164263494Y-129707506D01*
X164412146Y-129849245D01*
X164584936Y-129960291D01*
X164775618Y-130036629D01*
X164977302Y-130075500D01*
X165131227Y-130075500D01*
X165131232Y-130075500D01*
X165284466Y-130060868D01*
X165481541Y-130003001D01*
X165664104Y-129908884D01*
X165825556Y-129781916D01*
X165960061Y-129626689D01*
X166062759Y-129448811D01*
X166129937Y-129254712D01*
X166159168Y-129051407D01*
X166154539Y-128954226D01*
X172840832Y-128954226D01*
X172850605Y-129159389D01*
X172899029Y-129358995D01*
X172940047Y-129448812D01*
X172984354Y-129545832D01*
X173041933Y-129626689D01*
X173103494Y-129713139D01*
X173252146Y-129854878D01*
X173424936Y-129965924D01*
X173615618Y-130042262D01*
X173817302Y-130081133D01*
X173971227Y-130081133D01*
X173971232Y-130081133D01*
X174124466Y-130066501D01*
X174321541Y-130008634D01*
X174504104Y-129914517D01*
X174665556Y-129787549D01*
X174800061Y-129632322D01*
X174902759Y-129454444D01*
X174969937Y-129260345D01*
X174999168Y-129057040D01*
X174994270Y-128954226D01*
X183000832Y-128954226D01*
X183010605Y-129159389D01*
X183059029Y-129358995D01*
X183100047Y-129448812D01*
X183144354Y-129545832D01*
X183201933Y-129626689D01*
X183263494Y-129713139D01*
X183412146Y-129854878D01*
X183584936Y-129965924D01*
X183775618Y-130042262D01*
X183977302Y-130081133D01*
X184131227Y-130081133D01*
X184131232Y-130081133D01*
X184284466Y-130066501D01*
X184481541Y-130008634D01*
X184664104Y-129914517D01*
X184825556Y-129787549D01*
X184960061Y-129632322D01*
X185062759Y-129454444D01*
X185129937Y-129260345D01*
X185159168Y-129057040D01*
X185149395Y-128851877D01*
X185100971Y-128652271D01*
X185015647Y-128465437D01*
X185015646Y-128465436D01*
X185015645Y-128465433D01*
X184896507Y-128298129D01*
X184896506Y-128298127D01*
X184747854Y-128156388D01*
X184655056Y-128096750D01*
X184575065Y-128045342D01*
X184448121Y-127994521D01*
X184384382Y-127969004D01*
X184384381Y-127969003D01*
X184384379Y-127969003D01*
X184182698Y-127930133D01*
X184028768Y-127930133D01*
X183934526Y-127939132D01*
X183875531Y-127944765D01*
X183678460Y-128002631D01*
X183495893Y-128096750D01*
X183334445Y-128223715D01*
X183199937Y-128378945D01*
X183097241Y-128556820D01*
X183030062Y-128750920D01*
X183001642Y-128948591D01*
X183000832Y-128954226D01*
X174994270Y-128954226D01*
X174989395Y-128851877D01*
X174940971Y-128652271D01*
X174855647Y-128465437D01*
X174855646Y-128465436D01*
X174855645Y-128465433D01*
X174736507Y-128298129D01*
X174736506Y-128298127D01*
X174587854Y-128156388D01*
X174495056Y-128096750D01*
X174415065Y-128045342D01*
X174288121Y-127994521D01*
X174224382Y-127969004D01*
X174224381Y-127969003D01*
X174224379Y-127969003D01*
X174022698Y-127930133D01*
X173868768Y-127930133D01*
X173774526Y-127939132D01*
X173715531Y-127944765D01*
X173518460Y-128002631D01*
X173335893Y-128096750D01*
X173174445Y-128223715D01*
X173039937Y-128378945D01*
X172937241Y-128556820D01*
X172870062Y-128750920D01*
X172841642Y-128948591D01*
X172840832Y-128954226D01*
X166154539Y-128954226D01*
X166149395Y-128846244D01*
X166100971Y-128646638D01*
X166015647Y-128459804D01*
X166015646Y-128459803D01*
X166015645Y-128459800D01*
X165936219Y-128348264D01*
X165896506Y-128292494D01*
X165747854Y-128150755D01*
X165663821Y-128096750D01*
X165575065Y-128039709D01*
X165398450Y-127969003D01*
X165384382Y-127963371D01*
X165384381Y-127963370D01*
X165384379Y-127963370D01*
X165182698Y-127924500D01*
X165028768Y-127924500D01*
X164932996Y-127933644D01*
X164875531Y-127939132D01*
X164678460Y-127996998D01*
X164495893Y-128091117D01*
X164334445Y-128218082D01*
X164199937Y-128373312D01*
X164097241Y-128551187D01*
X164030062Y-128745287D01*
X164000832Y-128948591D01*
X164000832Y-128948593D01*
X155994270Y-128948593D01*
X155989395Y-128846244D01*
X155940971Y-128646638D01*
X155855647Y-128459804D01*
X155855646Y-128459803D01*
X155855645Y-128459800D01*
X155776219Y-128348264D01*
X155736506Y-128292494D01*
X155587854Y-128150755D01*
X155503821Y-128096750D01*
X155415065Y-128039709D01*
X155238450Y-127969003D01*
X155224382Y-127963371D01*
X155224381Y-127963370D01*
X155224379Y-127963370D01*
X155022698Y-127924500D01*
X154868768Y-127924500D01*
X154772996Y-127933644D01*
X154715531Y-127939132D01*
X154518460Y-127996998D01*
X154335893Y-128091117D01*
X154174445Y-128218082D01*
X154039937Y-128373312D01*
X153937241Y-128551187D01*
X153870062Y-128745287D01*
X153840832Y-128948591D01*
X153840832Y-128948593D01*
X147154270Y-128948593D01*
X147149395Y-128846244D01*
X147100971Y-128646638D01*
X147015647Y-128459804D01*
X147015646Y-128459803D01*
X147015645Y-128459800D01*
X146936219Y-128348264D01*
X146896506Y-128292494D01*
X146747854Y-128150755D01*
X146663821Y-128096750D01*
X146575065Y-128039709D01*
X146398450Y-127969003D01*
X146384382Y-127963371D01*
X146384381Y-127963370D01*
X146384379Y-127963370D01*
X146182698Y-127924500D01*
X146028768Y-127924500D01*
X145932996Y-127933644D01*
X145875531Y-127939132D01*
X145678460Y-127996998D01*
X145495893Y-128091117D01*
X145334445Y-128218082D01*
X145199937Y-128373312D01*
X145097241Y-128551187D01*
X145030062Y-128745287D01*
X145000832Y-128948591D01*
X145000832Y-128948593D01*
X136994270Y-128948593D01*
X136989395Y-128846244D01*
X136940971Y-128646638D01*
X136855647Y-128459804D01*
X136855646Y-128459803D01*
X136855645Y-128459800D01*
X136776219Y-128348264D01*
X136736506Y-128292494D01*
X136587854Y-128150755D01*
X136503821Y-128096750D01*
X136415065Y-128039709D01*
X136238450Y-127969003D01*
X136224382Y-127963371D01*
X136224381Y-127963370D01*
X136224379Y-127963370D01*
X136022698Y-127924500D01*
X135868768Y-127924500D01*
X135772996Y-127933644D01*
X135715531Y-127939132D01*
X135518460Y-127996998D01*
X135335893Y-128091117D01*
X135174445Y-128218082D01*
X135039937Y-128373312D01*
X134937241Y-128551187D01*
X134870062Y-128745287D01*
X134840832Y-128948591D01*
X134840832Y-128948593D01*
X125500500Y-128948593D01*
X125500500Y-125500000D01*
X140294540Y-125500000D01*
X140314326Y-125688257D01*
X140372820Y-125868284D01*
X140467466Y-126032216D01*
X140594129Y-126172889D01*
X140747269Y-126284151D01*
X140920197Y-126361144D01*
X141105352Y-126400500D01*
X141105354Y-126400500D01*
X141294646Y-126400500D01*
X141294648Y-126400500D01*
X141418083Y-126374262D01*
X141479803Y-126361144D01*
X141652730Y-126284151D01*
X141805871Y-126172888D01*
X141932533Y-126032216D01*
X142027179Y-125868284D01*
X142085674Y-125688256D01*
X142105460Y-125500000D01*
X159294540Y-125500000D01*
X159314326Y-125688257D01*
X159372820Y-125868284D01*
X159467466Y-126032216D01*
X159594129Y-126172889D01*
X159747269Y-126284151D01*
X159920197Y-126361144D01*
X160105352Y-126400500D01*
X160105354Y-126400500D01*
X160294646Y-126400500D01*
X160294648Y-126400500D01*
X160418083Y-126374262D01*
X160479803Y-126361144D01*
X160652730Y-126284151D01*
X160805871Y-126172888D01*
X160932533Y-126032216D01*
X161027179Y-125868284D01*
X161085674Y-125688256D01*
X161105460Y-125500000D01*
X161085674Y-125311744D01*
X161040557Y-125172888D01*
X161027179Y-125131715D01*
X160932533Y-124967783D01*
X160805870Y-124827110D01*
X160652730Y-124715848D01*
X160479802Y-124638855D01*
X160294648Y-124599500D01*
X160294646Y-124599500D01*
X160105354Y-124599500D01*
X160105352Y-124599500D01*
X159920197Y-124638855D01*
X159747269Y-124715848D01*
X159594129Y-124827110D01*
X159467466Y-124967783D01*
X159372820Y-125131715D01*
X159314326Y-125311742D01*
X159294540Y-125500000D01*
X142105460Y-125500000D01*
X142085674Y-125311744D01*
X142040557Y-125172888D01*
X142027179Y-125131715D01*
X141932533Y-124967783D01*
X141805870Y-124827110D01*
X141652730Y-124715848D01*
X141479802Y-124638855D01*
X141294648Y-124599500D01*
X141294646Y-124599500D01*
X141105354Y-124599500D01*
X141105352Y-124599500D01*
X140920197Y-124638855D01*
X140747269Y-124715848D01*
X140594129Y-124827110D01*
X140467466Y-124967783D01*
X140372820Y-125131715D01*
X140314326Y-125311742D01*
X140294540Y-125500000D01*
X125500500Y-125500000D01*
X125500500Y-124500000D01*
X166094540Y-124500000D01*
X166114326Y-124688257D01*
X166172820Y-124868284D01*
X166267466Y-125032216D01*
X166394129Y-125172889D01*
X166547269Y-125284151D01*
X166720197Y-125361144D01*
X166905352Y-125400500D01*
X166905354Y-125400500D01*
X167094646Y-125400500D01*
X167094648Y-125400500D01*
X167218084Y-125374262D01*
X167279803Y-125361144D01*
X167452730Y-125284151D01*
X167605871Y-125172888D01*
X167732533Y-125032216D01*
X167827179Y-124868284D01*
X167885674Y-124688256D01*
X167894950Y-124600000D01*
X171094540Y-124600000D01*
X171114326Y-124788257D01*
X171172820Y-124968284D01*
X171267466Y-125132216D01*
X171394129Y-125272889D01*
X171547269Y-125384151D01*
X171720197Y-125461144D01*
X171905352Y-125500500D01*
X171905354Y-125500500D01*
X172094646Y-125500500D01*
X172094648Y-125500500D01*
X172097000Y-125500000D01*
X178094540Y-125500000D01*
X178114326Y-125688257D01*
X178172820Y-125868284D01*
X178267466Y-126032216D01*
X178394129Y-126172889D01*
X178547269Y-126284151D01*
X178720197Y-126361144D01*
X178905352Y-126400500D01*
X178905354Y-126400500D01*
X179094646Y-126400500D01*
X179094648Y-126400500D01*
X179218083Y-126374262D01*
X179279803Y-126361144D01*
X179452730Y-126284151D01*
X179605871Y-126172888D01*
X179732533Y-126032216D01*
X179827179Y-125868284D01*
X179885674Y-125688256D01*
X179905460Y-125500000D01*
X179885674Y-125311744D01*
X179840557Y-125172888D01*
X179827179Y-125131715D01*
X179732533Y-124967783D01*
X179605870Y-124827110D01*
X179452730Y-124715848D01*
X179279802Y-124638855D01*
X179094648Y-124599500D01*
X179094646Y-124599500D01*
X178905354Y-124599500D01*
X178905352Y-124599500D01*
X178720197Y-124638855D01*
X178547269Y-124715848D01*
X178394129Y-124827110D01*
X178267466Y-124967783D01*
X178172820Y-125131715D01*
X178114326Y-125311742D01*
X178094540Y-125500000D01*
X172097000Y-125500000D01*
X172218084Y-125474262D01*
X172279803Y-125461144D01*
X172452730Y-125384151D01*
X172605871Y-125272888D01*
X172732533Y-125132216D01*
X172827179Y-124968284D01*
X172885674Y-124788256D01*
X172905460Y-124600000D01*
X172885674Y-124411744D01*
X172827179Y-124231716D01*
X172827179Y-124231715D01*
X172732533Y-124067783D01*
X172605870Y-123927110D01*
X172452730Y-123815848D01*
X172279802Y-123738855D01*
X172094648Y-123699500D01*
X172094646Y-123699500D01*
X171905354Y-123699500D01*
X171905352Y-123699500D01*
X171720197Y-123738855D01*
X171547269Y-123815848D01*
X171394129Y-123927110D01*
X171267466Y-124067783D01*
X171172820Y-124231715D01*
X171114326Y-124411742D01*
X171094540Y-124600000D01*
X167894950Y-124600000D01*
X167905460Y-124500000D01*
X167885674Y-124311744D01*
X167827179Y-124131716D01*
X167827179Y-124131715D01*
X167732533Y-123967783D01*
X167605870Y-123827110D01*
X167452730Y-123715848D01*
X167279802Y-123638855D01*
X167094648Y-123599500D01*
X167094646Y-123599500D01*
X166905354Y-123599500D01*
X166905352Y-123599500D01*
X166720197Y-123638855D01*
X166547269Y-123715848D01*
X166394129Y-123827110D01*
X166267466Y-123967783D01*
X166172820Y-124131715D01*
X166114326Y-124311742D01*
X166094540Y-124500000D01*
X125500500Y-124500000D01*
X125500500Y-120400000D01*
X158494540Y-120400000D01*
X158514326Y-120588257D01*
X158572820Y-120768284D01*
X158667466Y-120932216D01*
X158794129Y-121072889D01*
X158947269Y-121184151D01*
X159120197Y-121261144D01*
X159305352Y-121300500D01*
X159305354Y-121300500D01*
X159494646Y-121300500D01*
X159494648Y-121300500D01*
X159618084Y-121274262D01*
X159679803Y-121261144D01*
X159852730Y-121184151D01*
X160005871Y-121072888D01*
X160132533Y-120932216D01*
X160227179Y-120768284D01*
X160285674Y-120588256D01*
X160305460Y-120400000D01*
X160285674Y-120211744D01*
X160227179Y-120031716D01*
X160227179Y-120031715D01*
X160132533Y-119867783D01*
X160005870Y-119727110D01*
X159968556Y-119700000D01*
X169294540Y-119700000D01*
X169314326Y-119888257D01*
X169372820Y-120068284D01*
X169467466Y-120232216D01*
X169594129Y-120372889D01*
X169747269Y-120484151D01*
X169920197Y-120561144D01*
X170105352Y-120600500D01*
X170105354Y-120600500D01*
X170294646Y-120600500D01*
X170294648Y-120600500D01*
X170418084Y-120574262D01*
X170479803Y-120561144D01*
X170652730Y-120484151D01*
X170652729Y-120484151D01*
X170805870Y-120372889D01*
X170932533Y-120232216D01*
X171027179Y-120068284D01*
X171061991Y-119961144D01*
X171085674Y-119888256D01*
X171105460Y-119700000D01*
X171085674Y-119511744D01*
X171027179Y-119331716D01*
X171027179Y-119331715D01*
X170932533Y-119167783D01*
X170871500Y-119099999D01*
X176194540Y-119099999D01*
X176214326Y-119288257D01*
X176272820Y-119468284D01*
X176367466Y-119632216D01*
X176494129Y-119772889D01*
X176647269Y-119884151D01*
X176820197Y-119961144D01*
X177005352Y-120000500D01*
X177005354Y-120000500D01*
X177194646Y-120000500D01*
X177194648Y-120000500D01*
X177318083Y-119974262D01*
X177379803Y-119961144D01*
X177552730Y-119884151D01*
X177705871Y-119772888D01*
X177832533Y-119632216D01*
X177927179Y-119468284D01*
X177985674Y-119288256D01*
X178005460Y-119100000D01*
X177985674Y-118911744D01*
X177955332Y-118818363D01*
X177927179Y-118731715D01*
X177832533Y-118567783D01*
X177705870Y-118427110D01*
X177552730Y-118315848D01*
X177379802Y-118238855D01*
X177194648Y-118199500D01*
X177194646Y-118199500D01*
X177005354Y-118199500D01*
X177005352Y-118199500D01*
X176820197Y-118238855D01*
X176647269Y-118315848D01*
X176494129Y-118427110D01*
X176367466Y-118567783D01*
X176272820Y-118731715D01*
X176214326Y-118911742D01*
X176194540Y-119099999D01*
X170871500Y-119099999D01*
X170805870Y-119027110D01*
X170652730Y-118915848D01*
X170479802Y-118838855D01*
X170294648Y-118799500D01*
X170294646Y-118799500D01*
X170105354Y-118799500D01*
X170105352Y-118799500D01*
X169920197Y-118838855D01*
X169747269Y-118915848D01*
X169594129Y-119027110D01*
X169467466Y-119167783D01*
X169372820Y-119331715D01*
X169314326Y-119511742D01*
X169294540Y-119700000D01*
X159968556Y-119700000D01*
X159852731Y-119615849D01*
X159846961Y-119613280D01*
X159801852Y-119579041D01*
X159776671Y-119528316D01*
X159776671Y-119471684D01*
X159801852Y-119420959D01*
X159846961Y-119386720D01*
X159849527Y-119385576D01*
X159852730Y-119384151D01*
X159929300Y-119328519D01*
X160005870Y-119272889D01*
X160132533Y-119132216D01*
X160227179Y-118968284D01*
X160244216Y-118915849D01*
X160285674Y-118788256D01*
X160305460Y-118600000D01*
X160285674Y-118411744D01*
X160227179Y-118231716D01*
X160227179Y-118231715D01*
X160132533Y-118067783D01*
X160005870Y-117927110D01*
X159852730Y-117815848D01*
X159679802Y-117738855D01*
X159494648Y-117699500D01*
X159494646Y-117699500D01*
X159305354Y-117699500D01*
X159305352Y-117699500D01*
X159120197Y-117738855D01*
X158947269Y-117815848D01*
X158794129Y-117927110D01*
X158667466Y-118067783D01*
X158572820Y-118231715D01*
X158514326Y-118411742D01*
X158494540Y-118600000D01*
X158514326Y-118788257D01*
X158572820Y-118968284D01*
X158667466Y-119132216D01*
X158794129Y-119272889D01*
X158947269Y-119384151D01*
X158953040Y-119386721D01*
X158998148Y-119420960D01*
X159023328Y-119471685D01*
X159023328Y-119528315D01*
X158998148Y-119579040D01*
X158953040Y-119613279D01*
X158947269Y-119615848D01*
X158794129Y-119727110D01*
X158667466Y-119867783D01*
X158572820Y-120031715D01*
X158514326Y-120211742D01*
X158494540Y-120400000D01*
X125500500Y-120400000D01*
X125500500Y-118547869D01*
X136999500Y-118547869D01*
X137005909Y-118607484D01*
X137031056Y-118674907D01*
X137056204Y-118742331D01*
X137142454Y-118857546D01*
X137257669Y-118943796D01*
X137392517Y-118994091D01*
X137452127Y-119000500D01*
X139547872Y-119000499D01*
X139607483Y-118994091D01*
X139742331Y-118943796D01*
X139857546Y-118857546D01*
X139943796Y-118742331D01*
X139943796Y-118742328D01*
X139945460Y-118740107D01*
X139996629Y-118700125D01*
X140060989Y-118691488D01*
X140120889Y-118716563D01*
X140176766Y-118760054D01*
X140395393Y-118878368D01*
X140630506Y-118959083D01*
X140875707Y-119000000D01*
X141124293Y-119000000D01*
X141369493Y-118959083D01*
X141604606Y-118878368D01*
X141823233Y-118760053D01*
X141870056Y-118723609D01*
X140734128Y-117587681D01*
X140702034Y-117532094D01*
X140702034Y-117500001D01*
X141353553Y-117500001D01*
X142232110Y-118378558D01*
X142263496Y-118383962D01*
X142303261Y-118418712D01*
X142304877Y-118417225D01*
X142311834Y-118424783D01*
X142311836Y-118424785D01*
X142480256Y-118607738D01*
X142480259Y-118607740D01*
X142676485Y-118760470D01*
X142676487Y-118760471D01*
X142676491Y-118760474D01*
X142895190Y-118878828D01*
X143130386Y-118959571D01*
X143375665Y-119000500D01*
X143624335Y-119000500D01*
X143869614Y-118959571D01*
X144104810Y-118878828D01*
X144323509Y-118760474D01*
X144519744Y-118607738D01*
X144688164Y-118424785D01*
X144824173Y-118216607D01*
X144924063Y-117988881D01*
X144985108Y-117747821D01*
X145005643Y-117500000D01*
X144985108Y-117252179D01*
X144924063Y-117011119D01*
X144824173Y-116783393D01*
X144688164Y-116575215D01*
X144519744Y-116392262D01*
X144412141Y-116308511D01*
X144323514Y-116239529D01*
X144323510Y-116239526D01*
X144323509Y-116239526D01*
X144104810Y-116121172D01*
X144104806Y-116121170D01*
X144104805Y-116121170D01*
X143869615Y-116040429D01*
X143624335Y-115999500D01*
X143375665Y-115999500D01*
X143130384Y-116040429D01*
X142895194Y-116121170D01*
X142676485Y-116239529D01*
X142480259Y-116392259D01*
X142480256Y-116392261D01*
X142480256Y-116392262D01*
X142425144Y-116452130D01*
X142304877Y-116582774D01*
X142303262Y-116581287D01*
X142263493Y-116616038D01*
X142232109Y-116621441D01*
X141353553Y-117500000D01*
X141353553Y-117500001D01*
X140702034Y-117500001D01*
X140702034Y-117467906D01*
X140734128Y-117412319D01*
X141870057Y-116276389D01*
X141870056Y-116276388D01*
X141823235Y-116239947D01*
X141604606Y-116121631D01*
X141369493Y-116040916D01*
X141124293Y-116000000D01*
X140875707Y-116000000D01*
X140630506Y-116040916D01*
X140395393Y-116121631D01*
X140176767Y-116239945D01*
X140120888Y-116283437D01*
X140060988Y-116308511D01*
X139996629Y-116299874D01*
X139945460Y-116259893D01*
X139943796Y-116257671D01*
X139943796Y-116257669D01*
X139857546Y-116142454D01*
X139829114Y-116121170D01*
X139742331Y-116056204D01*
X139607483Y-116005909D01*
X139547873Y-115999500D01*
X139547869Y-115999500D01*
X137452130Y-115999500D01*
X137392515Y-116005909D01*
X137257669Y-116056204D01*
X137142454Y-116142454D01*
X137056204Y-116257668D01*
X137005909Y-116392516D01*
X136999500Y-116452130D01*
X136999500Y-118547869D01*
X125500500Y-118547869D01*
X125500500Y-115000000D01*
X160994540Y-115000000D01*
X161014326Y-115188257D01*
X161072820Y-115368284D01*
X161167466Y-115532216D01*
X161294129Y-115672889D01*
X161447269Y-115784151D01*
X161620197Y-115861144D01*
X161805352Y-115900500D01*
X161805354Y-115900500D01*
X161994646Y-115900500D01*
X161994648Y-115900500D01*
X162118084Y-115874262D01*
X162179803Y-115861144D01*
X162352730Y-115784151D01*
X162505871Y-115672888D01*
X162632533Y-115532216D01*
X162727179Y-115368284D01*
X162785674Y-115188256D01*
X162805460Y-115000000D01*
X162785674Y-114811744D01*
X162727179Y-114631716D01*
X162727179Y-114631715D01*
X162632533Y-114467783D01*
X162505870Y-114327110D01*
X162468555Y-114299999D01*
X168094540Y-114299999D01*
X168114326Y-114488257D01*
X168172820Y-114668284D01*
X168267466Y-114832216D01*
X168394129Y-114972889D01*
X168547269Y-115084151D01*
X168720197Y-115161144D01*
X168905352Y-115200500D01*
X168905354Y-115200500D01*
X169094646Y-115200500D01*
X169094648Y-115200500D01*
X169218083Y-115174262D01*
X169279803Y-115161144D01*
X169452730Y-115084151D01*
X169452729Y-115084151D01*
X169568554Y-115000000D01*
X179794540Y-115000000D01*
X179814326Y-115188257D01*
X179872820Y-115368284D01*
X179967466Y-115532216D01*
X180094129Y-115672889D01*
X180247269Y-115784151D01*
X180420197Y-115861144D01*
X180605352Y-115900500D01*
X180605354Y-115900500D01*
X180794646Y-115900500D01*
X180794648Y-115900500D01*
X180918084Y-115874262D01*
X180979803Y-115861144D01*
X181152730Y-115784151D01*
X181305871Y-115672888D01*
X181432533Y-115532216D01*
X181527179Y-115368284D01*
X181585674Y-115188256D01*
X181605460Y-115000000D01*
X181585674Y-114811744D01*
X181527179Y-114631716D01*
X181527179Y-114631715D01*
X181432533Y-114467783D01*
X181305870Y-114327110D01*
X181152730Y-114215848D01*
X180979802Y-114138855D01*
X180794648Y-114099500D01*
X180794646Y-114099500D01*
X180605354Y-114099500D01*
X180605352Y-114099500D01*
X180420197Y-114138855D01*
X180247269Y-114215848D01*
X180094129Y-114327110D01*
X179967466Y-114467783D01*
X179872820Y-114631715D01*
X179814326Y-114811742D01*
X179794540Y-115000000D01*
X169568554Y-115000000D01*
X169605870Y-114972889D01*
X169732533Y-114832216D01*
X169827179Y-114668284D01*
X169839061Y-114631715D01*
X169885674Y-114488256D01*
X169905460Y-114300000D01*
X169885674Y-114111744D01*
X169879998Y-114094278D01*
X169876640Y-114030180D01*
X169905780Y-113972988D01*
X169905868Y-113972890D01*
X169905871Y-113972888D01*
X170032533Y-113832216D01*
X170127179Y-113668284D01*
X170185674Y-113488256D01*
X170205460Y-113300000D01*
X170185674Y-113111744D01*
X170127179Y-112931716D01*
X170127179Y-112931715D01*
X170032533Y-112767783D01*
X169905870Y-112627110D01*
X169752730Y-112515848D01*
X169579802Y-112438855D01*
X169394648Y-112399500D01*
X169394646Y-112399500D01*
X169205354Y-112399500D01*
X169205352Y-112399500D01*
X169020197Y-112438855D01*
X168847269Y-112515848D01*
X168694129Y-112627110D01*
X168567466Y-112767783D01*
X168472820Y-112931715D01*
X168414326Y-113111742D01*
X168394540Y-113300000D01*
X168414326Y-113488257D01*
X168420001Y-113505721D01*
X168423360Y-113569820D01*
X168394220Y-113627012D01*
X168394131Y-113627109D01*
X168394129Y-113627112D01*
X168337884Y-113689577D01*
X168267464Y-113767786D01*
X168172820Y-113931715D01*
X168114326Y-114111742D01*
X168094540Y-114299999D01*
X162468555Y-114299999D01*
X162352730Y-114215848D01*
X162179802Y-114138855D01*
X161994648Y-114099500D01*
X161994646Y-114099500D01*
X161805354Y-114099500D01*
X161805352Y-114099500D01*
X161620197Y-114138855D01*
X161447269Y-114215848D01*
X161294129Y-114327110D01*
X161167466Y-114467783D01*
X161072820Y-114631715D01*
X161014326Y-114811742D01*
X160994540Y-115000000D01*
X125500500Y-115000000D01*
X125500500Y-112299999D01*
X163994540Y-112299999D01*
X164014326Y-112488257D01*
X164072820Y-112668284D01*
X164167466Y-112832216D01*
X164294129Y-112972889D01*
X164447269Y-113084151D01*
X164620197Y-113161144D01*
X164805352Y-113200500D01*
X164805354Y-113200500D01*
X164994646Y-113200500D01*
X164994648Y-113200500D01*
X165118084Y-113174262D01*
X165179803Y-113161144D01*
X165352730Y-113084151D01*
X165505871Y-112972888D01*
X165632533Y-112832216D01*
X165727179Y-112668284D01*
X165785674Y-112488256D01*
X165805460Y-112300000D01*
X165785674Y-112111744D01*
X165727179Y-111931716D01*
X165727179Y-111931715D01*
X165632533Y-111767783D01*
X165505870Y-111627110D01*
X165352730Y-111515848D01*
X165179802Y-111438855D01*
X164994648Y-111399500D01*
X164994646Y-111399500D01*
X164805354Y-111399500D01*
X164805352Y-111399500D01*
X164620197Y-111438855D01*
X164447269Y-111515848D01*
X164294129Y-111627110D01*
X164167466Y-111767783D01*
X164072820Y-111931715D01*
X164014326Y-112111742D01*
X163994540Y-112299999D01*
X125500500Y-112299999D01*
X125500500Y-110000000D01*
X133494644Y-110000000D01*
X133514039Y-110271161D01*
X133571823Y-110536796D01*
X133585285Y-110572888D01*
X133666828Y-110791513D01*
X133666830Y-110791517D01*
X133666831Y-110791519D01*
X133797109Y-111030108D01*
X133797113Y-111030113D01*
X133960029Y-111247742D01*
X134152258Y-111439971D01*
X134368281Y-111601685D01*
X134369891Y-111602890D01*
X134565802Y-111709864D01*
X134608487Y-111733172D01*
X134863199Y-111828175D01*
X134863202Y-111828175D01*
X134863203Y-111828176D01*
X134912852Y-111838976D01*
X135128840Y-111885961D01*
X135400000Y-111905355D01*
X135671160Y-111885961D01*
X135936801Y-111828175D01*
X136191513Y-111733172D01*
X136430113Y-111602887D01*
X136647742Y-111439971D01*
X136839971Y-111247742D01*
X137002887Y-111030113D01*
X137133172Y-110791513D01*
X137228175Y-110536801D01*
X137285961Y-110271160D01*
X137305355Y-110000000D01*
X144694644Y-110000000D01*
X144714039Y-110271161D01*
X144771823Y-110536796D01*
X144785285Y-110572888D01*
X144866828Y-110791513D01*
X144866830Y-110791517D01*
X144866831Y-110791519D01*
X144997109Y-111030108D01*
X144997113Y-111030113D01*
X145160029Y-111247742D01*
X145352258Y-111439971D01*
X145568281Y-111601685D01*
X145569891Y-111602890D01*
X145765802Y-111709864D01*
X145808487Y-111733172D01*
X146063199Y-111828175D01*
X146063202Y-111828175D01*
X146063203Y-111828176D01*
X146112852Y-111838976D01*
X146328840Y-111885961D01*
X146600000Y-111905355D01*
X146871160Y-111885961D01*
X147136801Y-111828175D01*
X147391513Y-111733172D01*
X147630113Y-111602887D01*
X147847742Y-111439971D01*
X148039971Y-111247742D01*
X148202887Y-111030113D01*
X148333172Y-110791513D01*
X148428175Y-110536801D01*
X148485961Y-110271160D01*
X148505355Y-110000000D01*
X148501678Y-109948593D01*
X153840832Y-109948593D01*
X153850605Y-110153756D01*
X153899029Y-110353362D01*
X153913767Y-110385634D01*
X153984354Y-110540199D01*
X154064975Y-110653414D01*
X154103494Y-110707506D01*
X154252146Y-110849245D01*
X154424936Y-110960291D01*
X154615618Y-111036629D01*
X154817302Y-111075500D01*
X154971227Y-111075500D01*
X154971232Y-111075500D01*
X155124466Y-111060868D01*
X155321541Y-111003001D01*
X155504104Y-110908884D01*
X155665556Y-110781916D01*
X155800061Y-110626689D01*
X155902759Y-110448811D01*
X155969937Y-110254712D01*
X155995963Y-110073697D01*
X157795807Y-110073697D01*
X157825296Y-110366827D01*
X157893592Y-110653413D01*
X157999477Y-110928338D01*
X158141063Y-111186699D01*
X158315822Y-111423884D01*
X158520635Y-111635658D01*
X158751845Y-111818244D01*
X158858500Y-111881415D01*
X159005331Y-111968383D01*
X159276566Y-112083397D01*
X159276567Y-112083397D01*
X159276569Y-112083398D01*
X159339194Y-112100552D01*
X159560710Y-112161232D01*
X159852694Y-112200500D01*
X160073571Y-112200500D01*
X160073573Y-112200500D01*
X160293955Y-112185747D01*
X160414573Y-112161230D01*
X160582663Y-112127064D01*
X160860974Y-112030424D01*
X161123921Y-111897551D01*
X161366812Y-111730816D01*
X161585312Y-111533195D01*
X161775522Y-111308213D01*
X161934047Y-111059887D01*
X162058060Y-110792647D01*
X162145346Y-110511262D01*
X162194349Y-110220754D01*
X162203448Y-109948593D01*
X164000832Y-109948593D01*
X164010605Y-110153756D01*
X164059029Y-110353362D01*
X164073767Y-110385634D01*
X164144354Y-110540199D01*
X164224975Y-110653414D01*
X164263494Y-110707506D01*
X164412146Y-110849245D01*
X164584936Y-110960291D01*
X164775618Y-111036629D01*
X164977302Y-111075500D01*
X165131227Y-111075500D01*
X165131232Y-111075500D01*
X165284466Y-111060868D01*
X165481541Y-111003001D01*
X165664104Y-110908884D01*
X165825556Y-110781916D01*
X165960061Y-110626689D01*
X166062759Y-110448811D01*
X166129937Y-110254712D01*
X166159168Y-110051407D01*
X166149395Y-109846244D01*
X166100971Y-109646638D01*
X166094822Y-109633173D01*
X166063456Y-109564490D01*
X166053273Y-109497086D01*
X166080257Y-109434485D01*
X166136252Y-109395607D01*
X166204336Y-109392202D01*
X166263931Y-109425298D01*
X167224267Y-110385634D01*
X167236048Y-110399266D01*
X167250390Y-110418530D01*
X167288355Y-110450386D01*
X167296317Y-110457684D01*
X167300224Y-110461591D01*
X167324542Y-110480819D01*
X167327298Y-110483063D01*
X167384786Y-110531302D01*
X167384788Y-110531303D01*
X167385757Y-110532116D01*
X167402177Y-110542576D01*
X167403321Y-110543109D01*
X167403323Y-110543111D01*
X167471357Y-110574835D01*
X167474456Y-110576335D01*
X167541567Y-110610040D01*
X167542704Y-110610611D01*
X167561084Y-110616998D01*
X167562321Y-110617253D01*
X167562327Y-110617256D01*
X167635862Y-110632439D01*
X167639209Y-110633181D01*
X167712279Y-110650500D01*
X167712281Y-110650500D01*
X167713505Y-110650790D01*
X167732876Y-110652769D01*
X167734140Y-110652732D01*
X167734144Y-110652733D01*
X167809110Y-110650552D01*
X167812716Y-110650500D01*
X171160663Y-110650500D01*
X171198982Y-110656569D01*
X171233550Y-110674183D01*
X171247271Y-110684152D01*
X171420197Y-110761144D01*
X171605352Y-110800500D01*
X171605354Y-110800500D01*
X171794646Y-110800500D01*
X171794648Y-110800500D01*
X171918084Y-110774262D01*
X171979803Y-110761144D01*
X172152730Y-110684151D01*
X172195036Y-110653414D01*
X172305870Y-110572889D01*
X172432533Y-110432216D01*
X172527179Y-110268284D01*
X172531589Y-110254712D01*
X172585674Y-110088256D01*
X172595973Y-109990258D01*
X172613480Y-109942864D01*
X172826502Y-109942864D01*
X172843153Y-109997323D01*
X172846791Y-110073694D01*
X172850605Y-110153756D01*
X172899029Y-110353362D01*
X172913767Y-110385634D01*
X172984354Y-110540199D01*
X173064975Y-110653414D01*
X173103494Y-110707506D01*
X173252146Y-110849245D01*
X173424936Y-110960291D01*
X173615618Y-111036629D01*
X173817302Y-111075500D01*
X173971227Y-111075500D01*
X173971232Y-111075500D01*
X174124466Y-111060868D01*
X174321541Y-111003001D01*
X174504104Y-110908884D01*
X174665556Y-110781916D01*
X174800061Y-110626689D01*
X174902759Y-110448811D01*
X174969937Y-110254712D01*
X174995963Y-110073697D01*
X176795807Y-110073697D01*
X176825296Y-110366827D01*
X176893592Y-110653413D01*
X176999477Y-110928338D01*
X177141063Y-111186699D01*
X177315822Y-111423884D01*
X177520635Y-111635658D01*
X177751845Y-111818244D01*
X177858500Y-111881415D01*
X178005331Y-111968383D01*
X178276566Y-112083397D01*
X178276567Y-112083397D01*
X178276569Y-112083398D01*
X178339194Y-112100552D01*
X178560710Y-112161232D01*
X178852694Y-112200500D01*
X179073571Y-112200500D01*
X179073573Y-112200500D01*
X179293955Y-112185747D01*
X179414573Y-112161230D01*
X179582663Y-112127064D01*
X179860974Y-112030424D01*
X180119075Y-111900000D01*
X181694540Y-111900000D01*
X181714326Y-112088257D01*
X181772820Y-112268284D01*
X181867466Y-112432216D01*
X181994129Y-112572889D01*
X182147269Y-112684151D01*
X182320197Y-112761144D01*
X182505352Y-112800500D01*
X182505354Y-112800500D01*
X182694646Y-112800500D01*
X182694648Y-112800500D01*
X182818084Y-112774262D01*
X182879803Y-112761144D01*
X183052730Y-112684151D01*
X183205871Y-112572888D01*
X183332533Y-112432216D01*
X183427179Y-112268284D01*
X183485674Y-112088256D01*
X183505460Y-111900000D01*
X183485674Y-111711744D01*
X183427179Y-111531716D01*
X183427179Y-111531715D01*
X183332533Y-111367783D01*
X183205870Y-111227110D01*
X183052730Y-111115848D01*
X182879802Y-111038855D01*
X182694648Y-110999500D01*
X182694646Y-110999500D01*
X182505354Y-110999500D01*
X182505352Y-110999500D01*
X182320197Y-111038855D01*
X182147269Y-111115848D01*
X181994129Y-111227110D01*
X181867466Y-111367783D01*
X181772820Y-111531715D01*
X181714326Y-111711742D01*
X181694540Y-111900000D01*
X180119075Y-111900000D01*
X180123921Y-111897551D01*
X180366812Y-111730816D01*
X180585312Y-111533195D01*
X180775522Y-111308213D01*
X180934047Y-111059887D01*
X181058060Y-110792647D01*
X181145346Y-110511262D01*
X181194349Y-110220754D01*
X181203448Y-109948593D01*
X183000832Y-109948593D01*
X183010605Y-110153756D01*
X183059029Y-110353362D01*
X183073767Y-110385634D01*
X183144354Y-110540199D01*
X183224975Y-110653414D01*
X183263494Y-110707506D01*
X183412146Y-110849245D01*
X183584936Y-110960291D01*
X183775618Y-111036629D01*
X183977302Y-111075500D01*
X184131227Y-111075500D01*
X184131232Y-111075500D01*
X184284466Y-111060868D01*
X184481541Y-111003001D01*
X184664104Y-110908884D01*
X184825556Y-110781916D01*
X184960061Y-110626689D01*
X185062759Y-110448811D01*
X185129937Y-110254712D01*
X185159168Y-110051407D01*
X185149395Y-109846244D01*
X185100971Y-109646638D01*
X185015647Y-109459804D01*
X185015646Y-109459803D01*
X185015645Y-109459800D01*
X184896507Y-109292496D01*
X184896506Y-109292494D01*
X184747854Y-109150755D01*
X184655056Y-109091117D01*
X184575065Y-109039709D01*
X184400658Y-108969887D01*
X184384382Y-108963371D01*
X184384381Y-108963370D01*
X184384379Y-108963370D01*
X184182698Y-108924500D01*
X184028768Y-108924500D01*
X183932996Y-108933645D01*
X183875531Y-108939132D01*
X183678460Y-108996998D01*
X183495893Y-109091117D01*
X183334445Y-109218082D01*
X183199937Y-109373312D01*
X183097241Y-109551187D01*
X183030062Y-109745287D01*
X183000832Y-109948591D01*
X183000832Y-109948593D01*
X181203448Y-109948593D01*
X181204193Y-109926306D01*
X181174704Y-109633173D01*
X181106407Y-109346586D01*
X181085574Y-109292494D01*
X181000522Y-109071661D01*
X180858936Y-108813300D01*
X180828386Y-108771837D01*
X180684178Y-108576116D01*
X180479365Y-108364342D01*
X180479364Y-108364341D01*
X180248154Y-108181755D01*
X180002896Y-108036490D01*
X179994669Y-108031617D01*
X179817104Y-107956322D01*
X179723430Y-107916601D01*
X179439294Y-107838769D01*
X179439293Y-107838768D01*
X179439290Y-107838768D01*
X179147306Y-107799500D01*
X178926429Y-107799500D01*
X178926427Y-107799500D01*
X178706044Y-107814252D01*
X178417338Y-107872935D01*
X178139022Y-107969577D01*
X177876081Y-108102447D01*
X177633187Y-108269184D01*
X177414689Y-108466803D01*
X177224478Y-108691786D01*
X177065951Y-108940115D01*
X176941941Y-109207350D01*
X176854654Y-109488737D01*
X176811379Y-109745287D01*
X176805651Y-109779246D01*
X176799990Y-109948591D01*
X176795807Y-110073697D01*
X174995963Y-110073697D01*
X174999168Y-110051407D01*
X174989395Y-109846244D01*
X174940971Y-109646638D01*
X174855647Y-109459804D01*
X174761407Y-109327462D01*
X174739812Y-109274096D01*
X174744645Y-109216727D01*
X174774866Y-109167724D01*
X174823960Y-109137651D01*
X174881343Y-109132990D01*
X175059445Y-109160500D01*
X175255177Y-109160500D01*
X175255179Y-109160500D01*
X175279536Y-109158629D01*
X175450344Y-109145516D01*
X175704586Y-109086021D01*
X175919260Y-108999500D01*
X175946762Y-108988416D01*
X175946764Y-108988414D01*
X175946766Y-108988414D01*
X176171208Y-108854982D01*
X176372652Y-108688852D01*
X176546375Y-108493920D01*
X176688306Y-108274753D01*
X176795118Y-108036489D01*
X176864307Y-107784713D01*
X176894252Y-107525325D01*
X176884251Y-107264407D01*
X176834538Y-107008073D01*
X176746279Y-106762332D01*
X176621541Y-106532943D01*
X176621539Y-106532939D01*
X176463250Y-106325284D01*
X176275112Y-106144220D01*
X176061546Y-105994002D01*
X175827546Y-105878140D01*
X175578608Y-105799359D01*
X175417562Y-105774484D01*
X175320555Y-105759500D01*
X175124823Y-105759500D01*
X175124821Y-105759500D01*
X174929656Y-105774484D01*
X174675412Y-105833979D01*
X174433237Y-105931583D01*
X174208791Y-106065017D01*
X174007346Y-106231148D01*
X173833622Y-106426082D01*
X173691693Y-106645247D01*
X173584881Y-106883509D01*
X173515693Y-107135283D01*
X173485747Y-107394675D01*
X173494226Y-107615849D01*
X173495749Y-107655593D01*
X173537900Y-107872936D01*
X173545463Y-107911930D01*
X173633719Y-108157664D01*
X173758460Y-108387060D01*
X173916749Y-108594715D01*
X174037738Y-108711155D01*
X174069083Y-108760379D01*
X174074441Y-108818489D01*
X174052627Y-108872615D01*
X174008471Y-108910768D01*
X173951753Y-108924500D01*
X173868768Y-108924500D01*
X173772996Y-108933645D01*
X173715531Y-108939132D01*
X173518460Y-108996998D01*
X173335893Y-109091117D01*
X173174445Y-109218082D01*
X173039937Y-109373312D01*
X172937241Y-109551187D01*
X172870063Y-109745287D01*
X172849671Y-109887113D01*
X172827482Y-109942032D01*
X172826502Y-109942864D01*
X172613480Y-109942864D01*
X172617157Y-109932909D01*
X172620690Y-109929817D01*
X172603613Y-109882429D01*
X172585674Y-109711744D01*
X172527179Y-109531716D01*
X172527179Y-109531715D01*
X172432533Y-109367783D01*
X172305870Y-109227110D01*
X172152730Y-109115848D01*
X171979802Y-109038855D01*
X171794648Y-108999500D01*
X171794646Y-108999500D01*
X171605354Y-108999500D01*
X171605352Y-108999500D01*
X171420197Y-109038855D01*
X171247271Y-109115847D01*
X171233550Y-109125817D01*
X171198982Y-109143431D01*
X171160663Y-109149500D01*
X168162230Y-109149500D01*
X168114777Y-109140061D01*
X168074549Y-109113181D01*
X167212771Y-108251403D01*
X167182521Y-108202040D01*
X167127179Y-108031715D01*
X167032533Y-107867783D01*
X166905870Y-107727110D01*
X166752730Y-107615848D01*
X166579802Y-107538855D01*
X166394648Y-107499500D01*
X166394646Y-107499500D01*
X166205354Y-107499500D01*
X166205352Y-107499500D01*
X166020197Y-107538855D01*
X165847269Y-107615848D01*
X165694129Y-107727110D01*
X165567466Y-107867783D01*
X165472820Y-108031715D01*
X165414326Y-108211742D01*
X165394540Y-108399999D01*
X165414326Y-108588257D01*
X165472821Y-108768286D01*
X165474871Y-108771837D01*
X165491340Y-108839737D01*
X165468487Y-108905762D01*
X165413566Y-108948950D01*
X165344014Y-108955590D01*
X165182698Y-108924500D01*
X165028768Y-108924500D01*
X164932996Y-108933645D01*
X164875531Y-108939132D01*
X164678460Y-108996998D01*
X164495893Y-109091117D01*
X164334445Y-109218082D01*
X164199937Y-109373312D01*
X164097241Y-109551187D01*
X164030062Y-109745287D01*
X164000832Y-109948591D01*
X164000832Y-109948593D01*
X162203448Y-109948593D01*
X162204193Y-109926306D01*
X162174704Y-109633173D01*
X162106407Y-109346586D01*
X162085574Y-109292494D01*
X162000522Y-109071661D01*
X161858936Y-108813300D01*
X161828386Y-108771837D01*
X161684178Y-108576116D01*
X161479365Y-108364342D01*
X161479364Y-108364341D01*
X161248154Y-108181755D01*
X161002896Y-108036490D01*
X160994669Y-108031617D01*
X160817104Y-107956322D01*
X160723430Y-107916601D01*
X160439294Y-107838769D01*
X160439293Y-107838768D01*
X160439290Y-107838768D01*
X160147306Y-107799500D01*
X159926429Y-107799500D01*
X159926427Y-107799500D01*
X159706044Y-107814252D01*
X159417338Y-107872935D01*
X159139022Y-107969577D01*
X158876081Y-108102447D01*
X158633187Y-108269184D01*
X158414689Y-108466803D01*
X158224478Y-108691786D01*
X158065951Y-108940115D01*
X157941941Y-109207350D01*
X157854654Y-109488737D01*
X157811379Y-109745287D01*
X157805651Y-109779246D01*
X157799990Y-109948591D01*
X157795807Y-110073697D01*
X155995963Y-110073697D01*
X155999168Y-110051407D01*
X155989395Y-109846244D01*
X155940971Y-109646638D01*
X155855647Y-109459804D01*
X155761407Y-109327462D01*
X155739812Y-109274096D01*
X155744645Y-109216727D01*
X155774866Y-109167724D01*
X155823960Y-109137651D01*
X155881343Y-109132990D01*
X156059445Y-109160500D01*
X156255177Y-109160500D01*
X156255179Y-109160500D01*
X156279536Y-109158629D01*
X156450344Y-109145516D01*
X156704586Y-109086021D01*
X156919260Y-108999500D01*
X156946762Y-108988416D01*
X156946764Y-108988414D01*
X156946766Y-108988414D01*
X157171208Y-108854982D01*
X157372652Y-108688852D01*
X157546375Y-108493920D01*
X157688306Y-108274753D01*
X157795118Y-108036489D01*
X157864307Y-107784713D01*
X157894252Y-107525325D01*
X157884251Y-107264407D01*
X157834538Y-107008073D01*
X157746279Y-106762332D01*
X157621541Y-106532943D01*
X157621539Y-106532939D01*
X157463250Y-106325284D01*
X157275112Y-106144220D01*
X157061546Y-105994002D01*
X156827546Y-105878140D01*
X156578608Y-105799359D01*
X156417562Y-105774484D01*
X156320555Y-105759500D01*
X156124823Y-105759500D01*
X156124821Y-105759500D01*
X155929656Y-105774484D01*
X155675412Y-105833979D01*
X155433237Y-105931583D01*
X155208791Y-106065017D01*
X155007346Y-106231148D01*
X154833622Y-106426082D01*
X154691693Y-106645247D01*
X154584881Y-106883509D01*
X154515693Y-107135283D01*
X154485747Y-107394675D01*
X154494226Y-107615849D01*
X154495749Y-107655593D01*
X154537900Y-107872936D01*
X154545463Y-107911930D01*
X154633719Y-108157664D01*
X154758460Y-108387060D01*
X154916749Y-108594715D01*
X155037738Y-108711155D01*
X155069083Y-108760379D01*
X155074441Y-108818489D01*
X155052627Y-108872615D01*
X155008471Y-108910768D01*
X154951753Y-108924500D01*
X154868768Y-108924500D01*
X154772996Y-108933645D01*
X154715531Y-108939132D01*
X154518460Y-108996998D01*
X154335893Y-109091117D01*
X154174445Y-109218082D01*
X154039937Y-109373312D01*
X153937241Y-109551187D01*
X153870062Y-109745287D01*
X153840832Y-109948591D01*
X153840832Y-109948593D01*
X148501678Y-109948593D01*
X148485961Y-109728840D01*
X148428175Y-109463199D01*
X148333172Y-109208487D01*
X148282588Y-109115849D01*
X148202890Y-108969891D01*
X148170033Y-108925999D01*
X148039971Y-108752258D01*
X147847742Y-108560029D01*
X147633970Y-108400000D01*
X147630108Y-108397109D01*
X147391519Y-108266831D01*
X147391517Y-108266830D01*
X147391513Y-108266828D01*
X147136801Y-108171825D01*
X147136796Y-108171823D01*
X146871161Y-108114039D01*
X146600000Y-108094644D01*
X146328838Y-108114039D01*
X146063203Y-108171823D01*
X145956172Y-108211744D01*
X145808487Y-108266828D01*
X145808484Y-108266829D01*
X145808480Y-108266831D01*
X145569891Y-108397109D01*
X145352255Y-108560031D01*
X145160031Y-108752255D01*
X144997109Y-108969891D01*
X144866831Y-109208480D01*
X144866829Y-109208484D01*
X144866828Y-109208487D01*
X144847188Y-109261144D01*
X144771823Y-109463203D01*
X144714039Y-109728838D01*
X144694644Y-110000000D01*
X137305355Y-110000000D01*
X137285961Y-109728840D01*
X137228175Y-109463199D01*
X137133172Y-109208487D01*
X137082588Y-109115849D01*
X137002890Y-108969891D01*
X136970033Y-108925999D01*
X136839971Y-108752258D01*
X136647742Y-108560029D01*
X136433970Y-108400000D01*
X136430108Y-108397109D01*
X136191519Y-108266831D01*
X136191517Y-108266830D01*
X136191513Y-108266828D01*
X135936801Y-108171825D01*
X135936796Y-108171823D01*
X135671161Y-108114039D01*
X135400000Y-108094644D01*
X135128838Y-108114039D01*
X134863203Y-108171823D01*
X134756172Y-108211744D01*
X134608487Y-108266828D01*
X134608484Y-108266829D01*
X134608480Y-108266831D01*
X134369891Y-108397109D01*
X134152255Y-108560031D01*
X133960031Y-108752255D01*
X133797109Y-108969891D01*
X133666831Y-109208480D01*
X133666829Y-109208484D01*
X133666828Y-109208487D01*
X133647188Y-109261144D01*
X133571823Y-109463203D01*
X133514039Y-109728838D01*
X133494644Y-110000000D01*
X125500500Y-110000000D01*
X125500500Y-107000000D01*
X144794540Y-107000000D01*
X144804433Y-107094128D01*
X144814326Y-107188257D01*
X144872820Y-107368284D01*
X144967466Y-107532216D01*
X145094129Y-107672889D01*
X145247269Y-107784151D01*
X145420197Y-107861144D01*
X145605352Y-107900500D01*
X145605354Y-107900500D01*
X145794646Y-107900500D01*
X145794648Y-107900500D01*
X145918083Y-107874262D01*
X145979803Y-107861144D01*
X146152730Y-107784151D01*
X146305871Y-107672888D01*
X146432533Y-107532216D01*
X146527179Y-107368284D01*
X146585674Y-107188256D01*
X146605460Y-107000000D01*
X146601178Y-106959267D01*
X146600500Y-106946308D01*
X146600500Y-104499999D01*
X149444750Y-104499999D01*
X149463686Y-104668056D01*
X149463686Y-104668058D01*
X149463687Y-104668059D01*
X149519544Y-104827690D01*
X149609523Y-104970890D01*
X149729110Y-105090477D01*
X149872310Y-105180456D01*
X150031941Y-105236313D01*
X150200000Y-105255249D01*
X150368059Y-105236313D01*
X150527690Y-105180456D01*
X150670890Y-105090477D01*
X150712319Y-105049048D01*
X150767906Y-105016954D01*
X150832094Y-105016954D01*
X150887681Y-105049048D01*
X150929110Y-105090477D01*
X151072310Y-105180456D01*
X151231941Y-105236313D01*
X151400000Y-105255249D01*
X151568059Y-105236313D01*
X151727690Y-105180456D01*
X151870890Y-105090477D01*
X151990477Y-104970890D01*
X152063500Y-104854675D01*
X160835747Y-104854675D01*
X160841968Y-105016954D01*
X160845749Y-105115593D01*
X160889103Y-105339140D01*
X160895463Y-105371930D01*
X160983719Y-105617664D01*
X161108460Y-105847060D01*
X161266749Y-106054715D01*
X161266750Y-106054716D01*
X161359751Y-106144220D01*
X161454887Y-106235779D01*
X161582137Y-106325284D01*
X161668456Y-106385999D01*
X161749406Y-106426080D01*
X161902453Y-106501859D01*
X162151391Y-106580640D01*
X162151392Y-106580640D01*
X162151395Y-106580641D01*
X162409445Y-106620500D01*
X162605177Y-106620500D01*
X162605179Y-106620500D01*
X162629536Y-106618629D01*
X162800344Y-106605516D01*
X163054586Y-106546021D01*
X163201384Y-106486856D01*
X163296762Y-106448416D01*
X163296764Y-106448414D01*
X163296766Y-106448414D01*
X163521208Y-106314982D01*
X163722652Y-106148852D01*
X163896375Y-105953920D01*
X164038306Y-105734753D01*
X164091712Y-105615620D01*
X164145118Y-105496490D01*
X164203849Y-105282768D01*
X164214307Y-105244713D01*
X164244252Y-104985325D01*
X164239244Y-104854675D01*
X179835747Y-104854675D01*
X179841968Y-105016954D01*
X179845749Y-105115593D01*
X179889103Y-105339140D01*
X179895463Y-105371930D01*
X179983719Y-105617664D01*
X180108460Y-105847060D01*
X180266749Y-106054715D01*
X180266750Y-106054716D01*
X180359751Y-106144220D01*
X180454887Y-106235779D01*
X180582137Y-106325284D01*
X180668456Y-106385999D01*
X180749406Y-106426080D01*
X180902453Y-106501859D01*
X181151391Y-106580640D01*
X181151392Y-106580640D01*
X181151395Y-106580641D01*
X181409445Y-106620500D01*
X181605177Y-106620500D01*
X181605179Y-106620500D01*
X181629536Y-106618629D01*
X181800344Y-106605516D01*
X182054586Y-106546021D01*
X182201384Y-106486856D01*
X182296762Y-106448416D01*
X182296764Y-106448414D01*
X182296766Y-106448414D01*
X182521208Y-106314982D01*
X182722652Y-106148852D01*
X182896375Y-105953920D01*
X183038306Y-105734753D01*
X183091712Y-105615620D01*
X183145118Y-105496490D01*
X183203849Y-105282768D01*
X183214307Y-105244713D01*
X183244252Y-104985325D01*
X183234251Y-104724407D01*
X183190730Y-104499999D01*
X190694531Y-104499999D01*
X190714364Y-104726689D01*
X190773261Y-104946497D01*
X190869432Y-105152735D01*
X190999953Y-105339140D01*
X191160859Y-105500046D01*
X191347264Y-105630567D01*
X191347265Y-105630567D01*
X191347266Y-105630568D01*
X191553504Y-105726739D01*
X191773308Y-105785635D01*
X191858262Y-105793067D01*
X191943214Y-105800500D01*
X191943216Y-105800500D01*
X192056784Y-105800500D01*
X192056786Y-105800500D01*
X192124747Y-105794554D01*
X192226692Y-105785635D01*
X192446496Y-105726739D01*
X192652734Y-105630568D01*
X192839139Y-105500047D01*
X193000047Y-105339139D01*
X193130568Y-105152734D01*
X193226739Y-104946496D01*
X193285635Y-104726692D01*
X193305468Y-104500000D01*
X193285635Y-104273308D01*
X193226739Y-104053504D01*
X193130568Y-103847266D01*
X193087168Y-103785284D01*
X193000046Y-103660859D01*
X192839140Y-103499953D01*
X192652735Y-103369432D01*
X192446497Y-103273261D01*
X192226689Y-103214364D01*
X192056786Y-103199500D01*
X192056784Y-103199500D01*
X191943216Y-103199500D01*
X191943214Y-103199500D01*
X191773310Y-103214364D01*
X191553502Y-103273261D01*
X191347264Y-103369432D01*
X191160859Y-103499953D01*
X190999953Y-103660859D01*
X190869432Y-103847264D01*
X190773261Y-104053502D01*
X190714364Y-104273310D01*
X190694531Y-104499999D01*
X183190730Y-104499999D01*
X183184538Y-104468073D01*
X183096279Y-104222332D01*
X182992897Y-104032216D01*
X182971539Y-103992939D01*
X182813250Y-103785284D01*
X182625112Y-103604220D01*
X182411546Y-103454002D01*
X182177546Y-103338140D01*
X181928608Y-103259359D01*
X181767562Y-103234484D01*
X181670555Y-103219500D01*
X181474823Y-103219500D01*
X181474821Y-103219500D01*
X181279656Y-103234484D01*
X181025412Y-103293979D01*
X180783237Y-103391583D01*
X180558791Y-103525017D01*
X180357346Y-103691148D01*
X180183622Y-103886082D01*
X180041693Y-104105247D01*
X179934881Y-104343509D01*
X179865693Y-104595283D01*
X179835747Y-104854675D01*
X164239244Y-104854675D01*
X164234251Y-104724407D01*
X164184538Y-104468073D01*
X164096279Y-104222332D01*
X163992897Y-104032216D01*
X163971539Y-103992939D01*
X163813250Y-103785284D01*
X163625112Y-103604220D01*
X163411546Y-103454002D01*
X163177546Y-103338140D01*
X162928608Y-103259359D01*
X162767562Y-103234484D01*
X162670555Y-103219500D01*
X162474823Y-103219500D01*
X162474821Y-103219500D01*
X162279656Y-103234484D01*
X162025412Y-103293979D01*
X161783237Y-103391583D01*
X161558791Y-103525017D01*
X161357346Y-103691148D01*
X161183622Y-103886082D01*
X161041693Y-104105247D01*
X160934881Y-104343509D01*
X160865693Y-104595283D01*
X160835747Y-104854675D01*
X152063500Y-104854675D01*
X152080456Y-104827690D01*
X152136313Y-104668059D01*
X152155249Y-104500000D01*
X152136313Y-104331941D01*
X152080456Y-104172310D01*
X151990477Y-104029110D01*
X151870890Y-103909523D01*
X151727690Y-103819544D01*
X151568059Y-103763687D01*
X151568058Y-103763686D01*
X151568056Y-103763686D01*
X151400000Y-103744750D01*
X151231943Y-103763686D01*
X151072310Y-103819543D01*
X151072310Y-103819544D01*
X150998130Y-103866155D01*
X150929107Y-103909525D01*
X150887680Y-103950952D01*
X150832093Y-103983045D01*
X150767907Y-103983045D01*
X150712320Y-103950952D01*
X150670892Y-103909525D01*
X150670890Y-103909523D01*
X150527690Y-103819544D01*
X150368059Y-103763687D01*
X150368058Y-103763686D01*
X150368056Y-103763686D01*
X150200000Y-103744750D01*
X150031943Y-103763686D01*
X149872310Y-103819544D01*
X149729108Y-103909524D01*
X149609524Y-104029108D01*
X149519544Y-104172310D01*
X149463686Y-104331943D01*
X149444750Y-104499999D01*
X146600500Y-104499999D01*
X146600500Y-103953692D01*
X146601179Y-103940731D01*
X146605460Y-103900000D01*
X146585674Y-103711744D01*
X146527179Y-103531716D01*
X146527179Y-103531715D01*
X146432533Y-103367783D01*
X146305870Y-103227110D01*
X146152730Y-103115848D01*
X145979802Y-103038855D01*
X145794648Y-102999500D01*
X145794646Y-102999500D01*
X145605354Y-102999500D01*
X145605352Y-102999500D01*
X145420197Y-103038855D01*
X145247269Y-103115848D01*
X145094129Y-103227110D01*
X144967466Y-103367783D01*
X144872820Y-103531715D01*
X144814326Y-103711742D01*
X144794540Y-103900000D01*
X144798821Y-103940731D01*
X144799500Y-103953692D01*
X144799500Y-106946308D01*
X144798821Y-106959267D01*
X144794540Y-107000000D01*
X125500500Y-107000000D01*
X125500500Y-104499999D01*
X126694531Y-104499999D01*
X126714364Y-104726689D01*
X126773261Y-104946497D01*
X126869432Y-105152735D01*
X126999953Y-105339140D01*
X127160859Y-105500046D01*
X127347264Y-105630567D01*
X127347265Y-105630567D01*
X127347266Y-105630568D01*
X127553504Y-105726739D01*
X127773308Y-105785635D01*
X127858262Y-105793067D01*
X127943214Y-105800500D01*
X127943216Y-105800500D01*
X128056784Y-105800500D01*
X128056786Y-105800500D01*
X128124747Y-105794554D01*
X128226692Y-105785635D01*
X128446496Y-105726739D01*
X128652734Y-105630568D01*
X128839139Y-105500047D01*
X129000047Y-105339139D01*
X129130568Y-105152734D01*
X129226739Y-104946496D01*
X129239198Y-104900000D01*
X134194540Y-104900000D01*
X134214326Y-105088257D01*
X134272820Y-105268284D01*
X134367466Y-105432216D01*
X134494129Y-105572889D01*
X134647269Y-105684151D01*
X134820197Y-105761144D01*
X135005352Y-105800500D01*
X135005354Y-105800500D01*
X135194646Y-105800500D01*
X135194648Y-105800500D01*
X135318083Y-105774262D01*
X135379803Y-105761144D01*
X135552730Y-105684151D01*
X135626481Y-105630568D01*
X135705870Y-105572889D01*
X135771458Y-105500047D01*
X135832533Y-105432216D01*
X135867341Y-105371927D01*
X135892613Y-105328155D01*
X135938000Y-105282768D01*
X136000000Y-105266155D01*
X136062000Y-105282768D01*
X136107387Y-105328155D01*
X136167466Y-105432216D01*
X136294129Y-105572889D01*
X136447269Y-105684151D01*
X136620197Y-105761144D01*
X136805352Y-105800500D01*
X136805354Y-105800500D01*
X136994646Y-105800500D01*
X136994648Y-105800500D01*
X137118083Y-105774262D01*
X137179803Y-105761144D01*
X137352730Y-105684151D01*
X137426481Y-105630568D01*
X137505870Y-105572889D01*
X137571458Y-105500047D01*
X137632533Y-105432216D01*
X137727179Y-105268284D01*
X137785674Y-105088256D01*
X137805460Y-104900000D01*
X137785674Y-104711744D01*
X137747833Y-104595283D01*
X137727179Y-104531715D01*
X137632533Y-104367784D01*
X137556168Y-104282972D01*
X137528001Y-104229998D01*
X137528001Y-104170002D01*
X137556168Y-104117028D01*
X137613365Y-104053504D01*
X137632533Y-104032216D01*
X137727179Y-103868284D01*
X137785674Y-103688256D01*
X137805460Y-103500000D01*
X137785674Y-103311744D01*
X137754033Y-103214364D01*
X137727179Y-103131715D01*
X137632533Y-102967783D01*
X137556168Y-102882971D01*
X137528001Y-102829997D01*
X137528002Y-102770000D01*
X137556168Y-102717027D01*
X137632533Y-102632216D01*
X137727179Y-102468284D01*
X137785674Y-102288256D01*
X137805460Y-102100000D01*
X137785674Y-101911744D01*
X137755332Y-101818363D01*
X137727179Y-101731715D01*
X137632533Y-101567783D01*
X137505870Y-101427110D01*
X137352730Y-101315848D01*
X137179802Y-101238855D01*
X136994648Y-101199500D01*
X136994646Y-101199500D01*
X136805354Y-101199500D01*
X136805352Y-101199500D01*
X136620197Y-101238855D01*
X136447269Y-101315848D01*
X136294129Y-101427110D01*
X136167466Y-101567784D01*
X136107387Y-101671844D01*
X136062000Y-101717231D01*
X136000000Y-101733844D01*
X135938000Y-101717231D01*
X135892613Y-101671844D01*
X135832533Y-101567784D01*
X135705870Y-101427110D01*
X135552730Y-101315848D01*
X135379802Y-101238855D01*
X135194648Y-101199500D01*
X135194646Y-101199500D01*
X135005354Y-101199500D01*
X135005352Y-101199500D01*
X134820197Y-101238855D01*
X134647269Y-101315848D01*
X134494129Y-101427110D01*
X134367466Y-101567783D01*
X134272820Y-101731715D01*
X134214326Y-101911742D01*
X134194540Y-102099999D01*
X134214326Y-102288257D01*
X134272820Y-102468284D01*
X134367466Y-102632216D01*
X134443831Y-102717027D01*
X134471998Y-102770000D01*
X134471998Y-102829997D01*
X134443832Y-102882970D01*
X134367466Y-102967783D01*
X134272820Y-103131715D01*
X134214326Y-103311742D01*
X134199374Y-103454002D01*
X134194540Y-103500000D01*
X134197873Y-103531715D01*
X134214326Y-103688257D01*
X134272820Y-103868284D01*
X134367466Y-104032215D01*
X134443832Y-104117028D01*
X134471999Y-104170002D01*
X134471999Y-104229998D01*
X134443832Y-104282972D01*
X134367466Y-104367784D01*
X134272820Y-104531715D01*
X134214326Y-104711742D01*
X134194540Y-104900000D01*
X129239198Y-104900000D01*
X129285635Y-104726692D01*
X129305468Y-104500000D01*
X129285635Y-104273308D01*
X129226739Y-104053504D01*
X129130568Y-103847266D01*
X129087168Y-103785284D01*
X129000046Y-103660859D01*
X128839140Y-103499953D01*
X128652735Y-103369432D01*
X128446497Y-103273261D01*
X128226689Y-103214364D01*
X128056786Y-103199500D01*
X128056784Y-103199500D01*
X127943216Y-103199500D01*
X127943214Y-103199500D01*
X127773310Y-103214364D01*
X127553502Y-103273261D01*
X127347264Y-103369432D01*
X127160859Y-103499953D01*
X126999953Y-103660859D01*
X126869432Y-103847264D01*
X126773261Y-104053502D01*
X126714364Y-104273310D01*
X126694531Y-104499999D01*
X125500500Y-104499999D01*
X125500500Y-101200000D01*
X129994540Y-101200000D01*
X130014326Y-101388257D01*
X130072820Y-101568284D01*
X130167466Y-101732216D01*
X130294129Y-101872889D01*
X130447269Y-101984151D01*
X130620197Y-102061144D01*
X130805352Y-102100500D01*
X130805354Y-102100500D01*
X130994646Y-102100500D01*
X130994648Y-102100500D01*
X131118084Y-102074262D01*
X131179803Y-102061144D01*
X131352730Y-101984151D01*
X131505871Y-101872888D01*
X131632533Y-101732216D01*
X131727179Y-101568284D01*
X131785674Y-101388256D01*
X131805460Y-101200000D01*
X131785674Y-101011744D01*
X131755332Y-100918363D01*
X131727179Y-100831715D01*
X131651133Y-100700000D01*
X163794540Y-100700000D01*
X163814326Y-100888257D01*
X163872820Y-101068284D01*
X163967466Y-101232216D01*
X164094129Y-101372889D01*
X164247269Y-101484151D01*
X164420197Y-101561144D01*
X164605352Y-101600500D01*
X164605354Y-101600500D01*
X164794646Y-101600500D01*
X164794648Y-101600500D01*
X164918084Y-101574262D01*
X164979803Y-101561144D01*
X165152730Y-101484151D01*
X165231241Y-101427110D01*
X165305870Y-101372889D01*
X165432533Y-101232216D01*
X165527179Y-101068284D01*
X165545551Y-101011742D01*
X165585674Y-100888256D01*
X165605460Y-100700000D01*
X165585674Y-100511744D01*
X165527179Y-100331716D01*
X165527179Y-100331715D01*
X165432533Y-100167783D01*
X165305870Y-100027110D01*
X165152730Y-99915848D01*
X164979802Y-99838855D01*
X164794648Y-99799500D01*
X164794646Y-99799500D01*
X164605354Y-99799500D01*
X164605352Y-99799500D01*
X164420197Y-99838855D01*
X164247269Y-99915848D01*
X164094129Y-100027110D01*
X163967466Y-100167783D01*
X163872820Y-100331715D01*
X163814326Y-100511742D01*
X163794540Y-100700000D01*
X131651133Y-100700000D01*
X131632533Y-100667783D01*
X131505870Y-100527110D01*
X131352730Y-100415848D01*
X131179802Y-100338855D01*
X130994648Y-100299500D01*
X130994646Y-100299500D01*
X130805354Y-100299500D01*
X130805352Y-100299500D01*
X130620197Y-100338855D01*
X130447269Y-100415848D01*
X130294129Y-100527110D01*
X130167466Y-100667783D01*
X130072820Y-100831715D01*
X130014326Y-101011742D01*
X129994540Y-101200000D01*
X125500500Y-101200000D01*
X125500500Y-99099999D01*
X131994540Y-99099999D01*
X132014326Y-99288257D01*
X132072820Y-99468284D01*
X132167466Y-99632216D01*
X132294129Y-99772889D01*
X132447269Y-99884151D01*
X132620197Y-99961144D01*
X132805352Y-100000500D01*
X132805354Y-100000500D01*
X132994646Y-100000500D01*
X132994648Y-100000500D01*
X133147284Y-99968056D01*
X133179803Y-99961144D01*
X133352730Y-99884151D01*
X133392510Y-99855249D01*
X133505870Y-99772889D01*
X133632533Y-99632216D01*
X133727179Y-99468284D01*
X133745830Y-99410882D01*
X133785674Y-99288256D01*
X133805460Y-99100000D01*
X133785674Y-98911744D01*
X133727179Y-98731716D01*
X133727179Y-98731715D01*
X133632533Y-98567783D01*
X133505870Y-98427110D01*
X133352730Y-98315848D01*
X133179802Y-98238855D01*
X132994648Y-98199500D01*
X132994646Y-98199500D01*
X132805354Y-98199500D01*
X132805352Y-98199500D01*
X132620197Y-98238855D01*
X132447269Y-98315848D01*
X132294129Y-98427110D01*
X132167466Y-98567783D01*
X132072820Y-98731715D01*
X132014326Y-98911742D01*
X131994540Y-99099999D01*
X125500500Y-99099999D01*
X125500500Y-97999999D01*
X152694531Y-97999999D01*
X152714364Y-98226689D01*
X152773261Y-98446497D01*
X152869432Y-98652735D01*
X152999953Y-98839140D01*
X153160859Y-99000046D01*
X153347264Y-99130567D01*
X153347265Y-99130567D01*
X153347266Y-99130568D01*
X153553504Y-99226739D01*
X153773308Y-99285635D01*
X153858262Y-99293067D01*
X153943214Y-99300500D01*
X153943216Y-99300500D01*
X154056784Y-99300500D01*
X154056786Y-99300500D01*
X154124747Y-99294554D01*
X154226692Y-99285635D01*
X154446496Y-99226739D01*
X154652734Y-99130568D01*
X154696391Y-99099999D01*
X158844750Y-99099999D01*
X158863686Y-99268056D01*
X158863686Y-99268058D01*
X158863687Y-99268059D01*
X158919544Y-99427690D01*
X159009523Y-99570890D01*
X159129110Y-99690477D01*
X159272310Y-99780456D01*
X159431941Y-99836313D01*
X159600000Y-99855249D01*
X159768059Y-99836313D01*
X159871836Y-99800000D01*
X160844750Y-99800000D01*
X160863686Y-99968056D01*
X160863686Y-99968058D01*
X160863687Y-99968059D01*
X160919544Y-100127690D01*
X161009523Y-100270890D01*
X161129110Y-100390477D01*
X161272310Y-100480456D01*
X161431941Y-100536313D01*
X161600000Y-100555249D01*
X161768059Y-100536313D01*
X161927690Y-100480456D01*
X162070890Y-100390477D01*
X162190477Y-100270890D01*
X162280456Y-100127690D01*
X162336313Y-99968059D01*
X162350871Y-99838855D01*
X162355249Y-99800004D01*
X162355249Y-99800000D01*
X162354251Y-99791146D01*
X162362416Y-99731019D01*
X162398134Y-99681963D01*
X162452853Y-99655729D01*
X162513467Y-99658601D01*
X162603868Y-99686024D01*
X162800000Y-99705341D01*
X162996132Y-99686024D01*
X163184727Y-99628814D01*
X163358538Y-99535910D01*
X163510883Y-99410883D01*
X163635910Y-99258538D01*
X163728814Y-99084727D01*
X163786024Y-98896132D01*
X163805341Y-98700000D01*
X163786024Y-98503868D01*
X163728814Y-98315273D01*
X163635910Y-98141462D01*
X163510883Y-97989117D01*
X163358538Y-97864090D01*
X163336091Y-97852092D01*
X163184726Y-97771185D01*
X162996133Y-97713976D01*
X162800000Y-97694659D01*
X162603866Y-97713976D01*
X162415273Y-97771185D01*
X162241463Y-97864089D01*
X162089117Y-97989117D01*
X161964089Y-98141463D01*
X161871185Y-98315273D01*
X161813976Y-98503866D01*
X161794659Y-98700000D01*
X161815173Y-98908286D01*
X161814180Y-98908383D01*
X161816399Y-98955278D01*
X161790165Y-99009993D01*
X161741111Y-99045710D01*
X161680984Y-99053875D01*
X161600000Y-99044750D01*
X161431943Y-99063686D01*
X161272310Y-99119544D01*
X161129108Y-99209524D01*
X161009524Y-99329108D01*
X160919544Y-99472310D01*
X160863686Y-99631943D01*
X160844750Y-99800000D01*
X159871836Y-99800000D01*
X159927690Y-99780456D01*
X160070890Y-99690477D01*
X160190477Y-99570890D01*
X160280456Y-99427690D01*
X160336313Y-99268059D01*
X160355249Y-99100000D01*
X160336313Y-98931941D01*
X160280456Y-98772310D01*
X160190477Y-98629110D01*
X160070890Y-98509523D01*
X159927690Y-98419544D01*
X159768059Y-98363687D01*
X159768058Y-98363686D01*
X159768056Y-98363686D01*
X159600000Y-98344750D01*
X159431943Y-98363686D01*
X159272310Y-98419544D01*
X159129108Y-98509524D01*
X159009524Y-98629108D01*
X158919544Y-98772310D01*
X158863686Y-98931943D01*
X158844750Y-99099999D01*
X154696391Y-99099999D01*
X154839139Y-99000047D01*
X155000047Y-98839139D01*
X155130568Y-98652734D01*
X155226739Y-98446496D01*
X155285635Y-98226692D01*
X155305468Y-98000000D01*
X155285635Y-97773308D01*
X155226739Y-97553504D01*
X155130568Y-97347266D01*
X155097822Y-97300500D01*
X155000046Y-97160859D01*
X154839186Y-96999999D01*
X165794540Y-96999999D01*
X165814326Y-97188257D01*
X165872820Y-97368284D01*
X165967466Y-97532216D01*
X166094129Y-97672889D01*
X166247269Y-97784151D01*
X166420197Y-97861144D01*
X166605352Y-97900500D01*
X166605354Y-97900500D01*
X166794646Y-97900500D01*
X166794648Y-97900500D01*
X166918084Y-97874262D01*
X166979803Y-97861144D01*
X167152730Y-97784151D01*
X167305871Y-97672888D01*
X167432533Y-97532216D01*
X167527179Y-97368284D01*
X167585674Y-97188256D01*
X167605460Y-97000000D01*
X167599416Y-96942495D01*
X167610539Y-96876739D01*
X167654117Y-96826254D01*
X167717545Y-96805645D01*
X167782475Y-96820874D01*
X167830124Y-96867537D01*
X167867465Y-96932214D01*
X167994129Y-97072889D01*
X168147269Y-97184151D01*
X168320197Y-97261144D01*
X168505352Y-97300500D01*
X168505354Y-97300500D01*
X168694646Y-97300500D01*
X168694648Y-97300500D01*
X168832813Y-97271132D01*
X168879803Y-97261144D01*
X169052730Y-97184151D01*
X169153577Y-97110882D01*
X169168555Y-97100000D01*
X170194540Y-97100000D01*
X170214326Y-97288257D01*
X170272820Y-97468284D01*
X170367466Y-97632216D01*
X170494129Y-97772889D01*
X170647269Y-97884151D01*
X170820197Y-97961144D01*
X171005352Y-98000500D01*
X171005354Y-98000500D01*
X171194646Y-98000500D01*
X171194648Y-98000500D01*
X171318084Y-97974262D01*
X171379803Y-97961144D01*
X171552730Y-97884151D01*
X171687985Y-97785883D01*
X171705870Y-97772889D01*
X171832533Y-97632216D01*
X171927179Y-97468284D01*
X171929960Y-97459726D01*
X171985674Y-97288256D01*
X172005460Y-97100000D01*
X172002832Y-97075000D01*
X172394659Y-97075000D01*
X172413976Y-97271133D01*
X172471185Y-97459726D01*
X172546431Y-97600500D01*
X172564090Y-97633538D01*
X172689117Y-97785883D01*
X172841462Y-97910910D01*
X173015273Y-98003814D01*
X173203868Y-98061024D01*
X173400000Y-98080341D01*
X173596132Y-98061024D01*
X173784727Y-98003814D01*
X173958538Y-97910910D01*
X174110883Y-97785883D01*
X174235910Y-97633538D01*
X174328814Y-97459727D01*
X174386024Y-97271132D01*
X174405341Y-97075000D01*
X181444659Y-97075000D01*
X181463976Y-97271133D01*
X181521185Y-97459726D01*
X181596431Y-97600500D01*
X181614090Y-97633538D01*
X181739117Y-97785883D01*
X181891462Y-97910910D01*
X182065273Y-98003814D01*
X182253868Y-98061024D01*
X182450000Y-98080341D01*
X182646132Y-98061024D01*
X182834727Y-98003814D01*
X183008538Y-97910910D01*
X183160883Y-97785883D01*
X183285910Y-97633538D01*
X183378814Y-97459727D01*
X183436024Y-97271132D01*
X183455341Y-97075000D01*
X183436024Y-96878868D01*
X183378814Y-96690273D01*
X183285910Y-96516462D01*
X183160883Y-96364117D01*
X183008538Y-96239090D01*
X182957374Y-96211742D01*
X182834726Y-96146185D01*
X182646133Y-96088976D01*
X182450000Y-96069659D01*
X182253866Y-96088976D01*
X182065273Y-96146185D01*
X181891463Y-96239089D01*
X181739117Y-96364117D01*
X181614089Y-96516463D01*
X181521185Y-96690273D01*
X181463976Y-96878866D01*
X181444659Y-97075000D01*
X174405341Y-97075000D01*
X174386024Y-96878868D01*
X174328814Y-96690273D01*
X174235910Y-96516462D01*
X174110883Y-96364117D01*
X173958538Y-96239090D01*
X173907374Y-96211742D01*
X173784726Y-96146185D01*
X173596133Y-96088976D01*
X173400000Y-96069659D01*
X173203866Y-96088976D01*
X173015273Y-96146185D01*
X172841463Y-96239089D01*
X172689117Y-96364117D01*
X172564089Y-96516463D01*
X172471185Y-96690273D01*
X172413976Y-96878866D01*
X172394659Y-97075000D01*
X172002832Y-97075000D01*
X171985674Y-96911744D01*
X171951200Y-96805645D01*
X171927179Y-96731715D01*
X171832533Y-96567783D01*
X171705870Y-96427110D01*
X171552730Y-96315848D01*
X171379802Y-96238855D01*
X171194648Y-96199500D01*
X171194646Y-96199500D01*
X171005354Y-96199500D01*
X171005352Y-96199500D01*
X170820197Y-96238855D01*
X170647269Y-96315848D01*
X170494129Y-96427110D01*
X170367466Y-96567783D01*
X170272820Y-96731715D01*
X170214326Y-96911742D01*
X170194540Y-97100000D01*
X169168555Y-97100000D01*
X169205870Y-97072889D01*
X169332533Y-96932216D01*
X169427179Y-96768284D01*
X169452526Y-96690273D01*
X169485674Y-96588256D01*
X169505460Y-96400000D01*
X169485674Y-96211744D01*
X169455332Y-96118363D01*
X169427179Y-96031715D01*
X169332533Y-95867783D01*
X169205870Y-95727110D01*
X169052730Y-95615848D01*
X168879802Y-95538855D01*
X168694648Y-95499500D01*
X168694646Y-95499500D01*
X168505354Y-95499500D01*
X168505352Y-95499500D01*
X168320197Y-95538855D01*
X168147269Y-95615848D01*
X167994129Y-95727110D01*
X167867466Y-95867783D01*
X167772820Y-96031715D01*
X167714326Y-96211742D01*
X167694540Y-96400000D01*
X167700583Y-96457503D01*
X167689460Y-96523261D01*
X167645881Y-96573746D01*
X167582453Y-96594354D01*
X167517523Y-96579124D01*
X167469875Y-96532463D01*
X167432533Y-96467784D01*
X167339191Y-96364117D01*
X167305870Y-96327110D01*
X167152730Y-96215848D01*
X166979802Y-96138855D01*
X166794648Y-96099500D01*
X166794646Y-96099500D01*
X166605354Y-96099500D01*
X166605352Y-96099500D01*
X166420197Y-96138855D01*
X166247269Y-96215848D01*
X166094129Y-96327110D01*
X165967466Y-96467783D01*
X165872820Y-96631715D01*
X165814326Y-96811742D01*
X165794540Y-96999999D01*
X154839186Y-96999999D01*
X154839140Y-96999953D01*
X154652735Y-96869432D01*
X154446497Y-96773261D01*
X154226689Y-96714364D01*
X154056786Y-96699500D01*
X154056784Y-96699500D01*
X153943216Y-96699500D01*
X153943214Y-96699500D01*
X153773310Y-96714364D01*
X153553502Y-96773261D01*
X153347264Y-96869432D01*
X153160859Y-96999953D01*
X152999953Y-97160859D01*
X152869432Y-97347264D01*
X152773261Y-97553502D01*
X152714364Y-97773310D01*
X152694531Y-97999999D01*
X125500500Y-97999999D01*
X125500500Y-96400000D01*
X130944659Y-96400000D01*
X130963976Y-96596133D01*
X131021185Y-96784726D01*
X131065449Y-96867537D01*
X131114090Y-96958538D01*
X131239117Y-97110883D01*
X131391462Y-97235910D01*
X131565273Y-97328814D01*
X131753868Y-97386024D01*
X131950000Y-97405341D01*
X132146132Y-97386024D01*
X132334727Y-97328814D01*
X132508538Y-97235910D01*
X132660883Y-97110883D01*
X132785910Y-96958538D01*
X132878814Y-96784727D01*
X132904516Y-96700000D01*
X134794540Y-96700000D01*
X134814326Y-96888257D01*
X134872820Y-97068284D01*
X134967466Y-97232216D01*
X135094129Y-97372889D01*
X135247269Y-97484151D01*
X135420197Y-97561144D01*
X135605352Y-97600500D01*
X135605354Y-97600500D01*
X135794646Y-97600500D01*
X135794648Y-97600500D01*
X135918084Y-97574262D01*
X135979803Y-97561144D01*
X136152730Y-97484151D01*
X136261203Y-97405341D01*
X136305870Y-97372889D01*
X136345556Y-97328814D01*
X136432533Y-97232216D01*
X136527179Y-97068284D01*
X136585674Y-96888256D01*
X136605460Y-96700000D01*
X139394540Y-96700000D01*
X139414326Y-96888257D01*
X139472820Y-97068284D01*
X139567466Y-97232216D01*
X139694129Y-97372889D01*
X139847269Y-97484151D01*
X140020197Y-97561144D01*
X140205352Y-97600500D01*
X140205354Y-97600500D01*
X140394646Y-97600500D01*
X140394648Y-97600500D01*
X140518084Y-97574262D01*
X140579803Y-97561144D01*
X140752730Y-97484151D01*
X140861203Y-97405341D01*
X140905870Y-97372889D01*
X140945556Y-97328814D01*
X141032533Y-97232216D01*
X141127179Y-97068284D01*
X141185674Y-96888256D01*
X141205460Y-96700000D01*
X141185674Y-96511744D01*
X141127179Y-96331716D01*
X141127179Y-96331715D01*
X141032533Y-96167783D01*
X140905870Y-96027110D01*
X140752730Y-95915848D01*
X140604834Y-95850000D01*
X148394540Y-95850000D01*
X148414326Y-96038257D01*
X148472820Y-96218284D01*
X148567466Y-96382216D01*
X148694129Y-96522889D01*
X148847269Y-96634151D01*
X149020197Y-96711144D01*
X149205352Y-96750500D01*
X149205354Y-96750500D01*
X149394646Y-96750500D01*
X149394648Y-96750500D01*
X149564649Y-96714365D01*
X149579803Y-96711144D01*
X149752730Y-96634151D01*
X149756083Y-96631715D01*
X149905870Y-96522889D01*
X150032533Y-96382216D01*
X150127179Y-96218284D01*
X150133282Y-96199500D01*
X150185674Y-96038256D01*
X150205460Y-95850000D01*
X150196543Y-95765165D01*
X150206584Y-95701773D01*
X150246978Y-95651890D01*
X150306902Y-95628887D01*
X150370299Y-95638928D01*
X150420199Y-95661145D01*
X150605352Y-95700500D01*
X150605354Y-95700500D01*
X150794646Y-95700500D01*
X150794648Y-95700500D01*
X150918083Y-95674262D01*
X150979803Y-95661144D01*
X151152730Y-95584151D01*
X151187993Y-95558531D01*
X151305870Y-95472889D01*
X151367706Y-95404214D01*
X151432533Y-95332216D01*
X151527179Y-95168284D01*
X151585674Y-94988256D01*
X151605460Y-94800000D01*
X151585674Y-94611744D01*
X151539908Y-94470891D01*
X151527179Y-94431715D01*
X151432533Y-94267783D01*
X151305870Y-94127110D01*
X151152730Y-94015848D01*
X151117135Y-94000000D01*
X157744750Y-94000000D01*
X157763686Y-94168056D01*
X157763686Y-94168058D01*
X157763687Y-94168059D01*
X157819544Y-94327690D01*
X157909523Y-94470890D01*
X158029110Y-94590477D01*
X158172310Y-94680456D01*
X158331941Y-94736313D01*
X158500000Y-94755249D01*
X158668059Y-94736313D01*
X158827690Y-94680456D01*
X158970890Y-94590477D01*
X159061367Y-94500000D01*
X160382040Y-94500000D01*
X160401826Y-94688257D01*
X160460320Y-94868284D01*
X160554966Y-95032216D01*
X160681629Y-95172889D01*
X160834769Y-95284151D01*
X161007697Y-95361144D01*
X161192852Y-95400500D01*
X161192854Y-95400500D01*
X161382146Y-95400500D01*
X161382148Y-95400500D01*
X161505583Y-95374262D01*
X161567303Y-95361144D01*
X161740230Y-95284151D01*
X161819733Y-95226389D01*
X161893370Y-95172889D01*
X162020033Y-95032216D01*
X162114679Y-94868284D01*
X162136866Y-94799999D01*
X162173174Y-94688256D01*
X162192960Y-94500000D01*
X162173174Y-94311744D01*
X162126487Y-94168056D01*
X162114679Y-94131715D01*
X162020033Y-93967783D01*
X161893370Y-93827110D01*
X161740230Y-93715848D01*
X161567302Y-93638855D01*
X161382148Y-93599500D01*
X161382146Y-93599500D01*
X161192854Y-93599500D01*
X161192852Y-93599500D01*
X161007697Y-93638855D01*
X160834769Y-93715848D01*
X160681629Y-93827110D01*
X160554966Y-93967783D01*
X160460320Y-94131715D01*
X160401826Y-94311742D01*
X160382040Y-94500000D01*
X159061367Y-94500000D01*
X159090477Y-94470890D01*
X159180456Y-94327690D01*
X159236313Y-94168059D01*
X159255249Y-94000000D01*
X159236313Y-93831941D01*
X159180456Y-93672310D01*
X159090477Y-93529110D01*
X158970890Y-93409523D01*
X158827690Y-93319544D01*
X158668059Y-93263687D01*
X158668058Y-93263686D01*
X158668056Y-93263686D01*
X158500000Y-93244750D01*
X158331943Y-93263686D01*
X158172310Y-93319544D01*
X158029108Y-93409524D01*
X157909524Y-93529108D01*
X157819544Y-93672310D01*
X157763686Y-93831943D01*
X157744750Y-94000000D01*
X151117135Y-94000000D01*
X150979802Y-93938855D01*
X150794648Y-93899500D01*
X150794646Y-93899500D01*
X150605354Y-93899500D01*
X150605352Y-93899500D01*
X150420197Y-93938855D01*
X150247269Y-94015848D01*
X150094129Y-94127110D01*
X149967466Y-94267783D01*
X149872820Y-94431715D01*
X149814326Y-94611742D01*
X149794540Y-94800000D01*
X149803456Y-94884830D01*
X149793415Y-94948226D01*
X149753021Y-94998109D01*
X149693097Y-95021112D01*
X149629700Y-95011071D01*
X149579801Y-94988854D01*
X149394648Y-94949500D01*
X149394646Y-94949500D01*
X149205354Y-94949500D01*
X149205352Y-94949500D01*
X149020197Y-94988855D01*
X148847269Y-95065848D01*
X148694129Y-95177110D01*
X148567466Y-95317783D01*
X148472820Y-95481715D01*
X148414326Y-95661742D01*
X148394540Y-95850000D01*
X140604834Y-95850000D01*
X140579802Y-95838855D01*
X140394648Y-95799500D01*
X140394646Y-95799500D01*
X140205354Y-95799500D01*
X140205352Y-95799500D01*
X140020197Y-95838855D01*
X139847269Y-95915848D01*
X139694129Y-96027110D01*
X139567466Y-96167783D01*
X139472820Y-96331715D01*
X139414326Y-96511742D01*
X139394540Y-96700000D01*
X136605460Y-96700000D01*
X136585674Y-96511744D01*
X136527179Y-96331716D01*
X136527179Y-96331715D01*
X136432533Y-96167783D01*
X136305870Y-96027110D01*
X136152730Y-95915848D01*
X135979802Y-95838855D01*
X135794648Y-95799500D01*
X135794646Y-95799500D01*
X135605354Y-95799500D01*
X135605352Y-95799500D01*
X135420197Y-95838855D01*
X135247269Y-95915848D01*
X135094129Y-96027110D01*
X134967466Y-96167783D01*
X134872820Y-96331715D01*
X134814326Y-96511742D01*
X134794540Y-96700000D01*
X132904516Y-96700000D01*
X132936024Y-96596132D01*
X132955341Y-96400000D01*
X132936024Y-96203868D01*
X132878814Y-96015273D01*
X132785910Y-95841462D01*
X132660883Y-95689117D01*
X132508538Y-95564090D01*
X132360072Y-95484733D01*
X132334726Y-95471185D01*
X132146133Y-95413976D01*
X131950000Y-95394659D01*
X131753866Y-95413976D01*
X131565273Y-95471185D01*
X131391463Y-95564089D01*
X131239117Y-95689117D01*
X131114089Y-95841463D01*
X131021185Y-96015273D01*
X130963976Y-96203866D01*
X130944659Y-96400000D01*
X125500500Y-96400000D01*
X125500500Y-94530000D01*
X132680000Y-94530000D01*
X132680000Y-94880710D01*
X132695419Y-95032339D01*
X132756303Y-95226389D01*
X132855003Y-95404214D01*
X132987479Y-95558531D01*
X133148307Y-95683021D01*
X133330905Y-95772589D01*
X133429999Y-95798246D01*
X133430000Y-95798247D01*
X133430000Y-94530000D01*
X133930000Y-94530000D01*
X133930000Y-95803366D01*
X133931948Y-95803067D01*
X134122663Y-95732435D01*
X134295263Y-95624854D01*
X134442669Y-95484733D01*
X134558855Y-95317805D01*
X134639059Y-95130907D01*
X134680000Y-94931689D01*
X134680000Y-94530000D01*
X141320000Y-94530000D01*
X141320000Y-94880710D01*
X141335419Y-95032339D01*
X141396303Y-95226389D01*
X141495003Y-95404214D01*
X141627479Y-95558531D01*
X141788307Y-95683021D01*
X141970905Y-95772589D01*
X142069999Y-95798246D01*
X142070000Y-95798247D01*
X142070000Y-94530000D01*
X142570000Y-94530000D01*
X142570000Y-95803366D01*
X142571948Y-95803067D01*
X142762663Y-95732435D01*
X142935263Y-95624854D01*
X143082669Y-95484733D01*
X143198855Y-95317805D01*
X143279059Y-95130907D01*
X143320000Y-94931689D01*
X143320000Y-94530000D01*
X142570000Y-94530000D01*
X142070000Y-94530000D01*
X141320000Y-94530000D01*
X134680000Y-94530000D01*
X133930000Y-94530000D01*
X133430000Y-94530000D01*
X132680000Y-94530000D01*
X125500500Y-94530000D01*
X125500500Y-94030000D01*
X132680000Y-94030000D01*
X133430000Y-94030000D01*
X133430000Y-92761753D01*
X133930000Y-92761753D01*
X133930000Y-94030000D01*
X134598601Y-94030000D01*
X134648003Y-94040266D01*
X134689225Y-94069364D01*
X134775244Y-94161469D01*
X134898670Y-94236526D01*
X135037772Y-94275500D01*
X135145949Y-94275500D01*
X135253111Y-94260771D01*
X135385609Y-94203219D01*
X135497665Y-94112054D01*
X135580971Y-93994037D01*
X135629346Y-93857921D01*
X135634252Y-93786199D01*
X140360796Y-93786199D01*
X140382465Y-93890477D01*
X140390186Y-93927634D01*
X140456646Y-94055896D01*
X140555244Y-94161469D01*
X140678670Y-94236526D01*
X140817772Y-94275500D01*
X140925949Y-94275500D01*
X141033111Y-94260771D01*
X141165609Y-94203219D01*
X141277665Y-94112054D01*
X141298532Y-94082491D01*
X141342787Y-94043903D01*
X141399836Y-94030000D01*
X142070000Y-94030000D01*
X142070000Y-92761753D01*
X142570000Y-92761753D01*
X142570000Y-94030000D01*
X143320000Y-94030000D01*
X143320000Y-93679290D01*
X143304580Y-93527660D01*
X143243696Y-93333610D01*
X143144996Y-93155785D01*
X143012520Y-93001468D01*
X142851692Y-92876978D01*
X142694761Y-92800000D01*
X161644750Y-92800000D01*
X161663686Y-92968056D01*
X161663686Y-92968058D01*
X161663687Y-92968059D01*
X161719544Y-93127690D01*
X161809523Y-93270890D01*
X161929110Y-93390477D01*
X162072310Y-93480456D01*
X162231941Y-93536313D01*
X162400000Y-93555249D01*
X162568059Y-93536313D01*
X162727690Y-93480456D01*
X162870890Y-93390477D01*
X162990477Y-93270890D01*
X163035021Y-93199999D01*
X163944750Y-93199999D01*
X163963686Y-93368056D01*
X163963686Y-93368058D01*
X163963687Y-93368059D01*
X164019544Y-93527690D01*
X164109523Y-93670890D01*
X164229110Y-93790477D01*
X164372310Y-93880456D01*
X164531941Y-93936313D01*
X164700000Y-93955249D01*
X164868059Y-93936313D01*
X164961997Y-93903442D01*
X165016831Y-93897264D01*
X165068917Y-93915489D01*
X165172310Y-93980456D01*
X165331941Y-94036313D01*
X165500000Y-94055249D01*
X165668059Y-94036313D01*
X165827690Y-93980456D01*
X165970890Y-93890477D01*
X166090477Y-93770890D01*
X166180456Y-93627690D01*
X166236313Y-93468059D01*
X166255115Y-93301181D01*
X166281389Y-93237752D01*
X166337381Y-93198023D01*
X166405929Y-93194174D01*
X166466017Y-93227384D01*
X166529110Y-93290477D01*
X166672310Y-93380456D01*
X166831941Y-93436313D01*
X167000000Y-93455249D01*
X167168059Y-93436313D01*
X167327690Y-93380456D01*
X167470890Y-93290477D01*
X167590477Y-93170890D01*
X167680456Y-93027690D01*
X167736313Y-92868059D01*
X167755249Y-92700000D01*
X167736313Y-92531941D01*
X167680456Y-92372310D01*
X167590477Y-92229110D01*
X167563700Y-92202333D01*
X167530489Y-92142242D01*
X167534340Y-92073694D01*
X167536313Y-92068059D01*
X167555249Y-91900000D01*
X167536313Y-91731941D01*
X167480967Y-91573772D01*
X167474790Y-91518936D01*
X167493015Y-91466850D01*
X167580456Y-91327690D01*
X167625136Y-91200000D01*
X170494540Y-91200000D01*
X170514326Y-91388257D01*
X170572820Y-91568284D01*
X170667466Y-91732216D01*
X170794129Y-91872889D01*
X170947269Y-91984151D01*
X171120197Y-92061144D01*
X171305352Y-92100500D01*
X171305354Y-92100500D01*
X171494646Y-92100500D01*
X171494648Y-92100500D01*
X171647289Y-92068055D01*
X171679803Y-92061144D01*
X171852730Y-91984151D01*
X171852730Y-91984150D01*
X172005870Y-91872889D01*
X172056830Y-91816293D01*
X172132533Y-91732216D01*
X172227179Y-91568284D01*
X172285674Y-91388256D01*
X172305460Y-91200000D01*
X172285674Y-91011744D01*
X172227179Y-90831716D01*
X172227179Y-90831715D01*
X172132533Y-90667783D01*
X172005870Y-90527110D01*
X171852730Y-90415848D01*
X171679802Y-90338855D01*
X171494648Y-90299500D01*
X171494646Y-90299500D01*
X171305354Y-90299500D01*
X171305352Y-90299500D01*
X171120197Y-90338855D01*
X170947269Y-90415848D01*
X170794129Y-90527110D01*
X170667466Y-90667783D01*
X170572820Y-90831715D01*
X170514326Y-91011742D01*
X170494540Y-91200000D01*
X167625136Y-91200000D01*
X167636313Y-91168059D01*
X167655249Y-91000000D01*
X167636313Y-90831941D01*
X167580456Y-90672310D01*
X167490477Y-90529110D01*
X167370890Y-90409523D01*
X167227690Y-90319544D01*
X167068059Y-90263687D01*
X167068058Y-90263686D01*
X167068056Y-90263686D01*
X166900000Y-90244750D01*
X166731943Y-90263686D01*
X166572310Y-90319544D01*
X166429108Y-90409524D01*
X166309524Y-90529108D01*
X166219544Y-90672310D01*
X166163686Y-90831943D01*
X166144750Y-91000000D01*
X166163686Y-91168056D01*
X166219031Y-91326225D01*
X166225209Y-91381063D01*
X166206983Y-91433151D01*
X166119544Y-91572309D01*
X166063686Y-91731943D01*
X166044750Y-91900000D01*
X166063686Y-92068056D01*
X166063686Y-92068058D01*
X166063687Y-92068059D01*
X166119544Y-92227690D01*
X166183271Y-92329110D01*
X166209524Y-92370891D01*
X166236299Y-92397666D01*
X166269509Y-92457752D01*
X166265661Y-92526297D01*
X166263686Y-92531939D01*
X166244883Y-92698818D01*
X166218610Y-92762247D01*
X166162617Y-92801976D01*
X166094070Y-92805825D01*
X166033982Y-92772615D01*
X165970891Y-92709524D01*
X165970890Y-92709523D01*
X165827690Y-92619544D01*
X165668059Y-92563687D01*
X165668058Y-92563686D01*
X165668056Y-92563686D01*
X165500000Y-92544750D01*
X165331941Y-92563686D01*
X165238003Y-92596556D01*
X165183165Y-92602734D01*
X165131080Y-92584508D01*
X165027690Y-92519544D01*
X164868059Y-92463687D01*
X164868058Y-92463686D01*
X164868056Y-92463686D01*
X164699999Y-92444750D01*
X164531943Y-92463686D01*
X164372310Y-92519544D01*
X164229108Y-92609524D01*
X164109524Y-92729108D01*
X164019544Y-92872310D01*
X163963686Y-93031943D01*
X163944750Y-93199999D01*
X163035021Y-93199999D01*
X163080456Y-93127690D01*
X163136313Y-92968059D01*
X163155249Y-92800000D01*
X163136313Y-92631941D01*
X163080456Y-92472310D01*
X162990477Y-92329110D01*
X162870890Y-92209523D01*
X162727690Y-92119544D01*
X162568059Y-92063687D01*
X162568058Y-92063686D01*
X162568056Y-92063686D01*
X162400000Y-92044750D01*
X162231943Y-92063686D01*
X162072310Y-92119544D01*
X161929108Y-92209524D01*
X161809524Y-92329108D01*
X161719544Y-92472310D01*
X161663686Y-92631943D01*
X161644750Y-92800000D01*
X142694761Y-92800000D01*
X142669094Y-92787410D01*
X142570000Y-92761753D01*
X142070000Y-92761753D01*
X142070000Y-92756634D01*
X142068051Y-92756932D01*
X141877336Y-92827564D01*
X141704736Y-92935145D01*
X141557330Y-93075266D01*
X141441142Y-93242197D01*
X141419605Y-93292384D01*
X141382572Y-93340745D01*
X141326978Y-93365636D01*
X141266239Y-93361052D01*
X141240914Y-93344760D01*
X141239318Y-93347386D01*
X141101329Y-93263473D01*
X140962228Y-93224500D01*
X140854051Y-93224500D01*
X140746889Y-93239229D01*
X140614391Y-93296781D01*
X140502333Y-93387946D01*
X140419030Y-93505960D01*
X140370653Y-93642081D01*
X140365748Y-93713801D01*
X140360796Y-93786199D01*
X135634252Y-93786199D01*
X135639204Y-93713801D01*
X135609814Y-93572366D01*
X135543354Y-93444105D01*
X135543353Y-93444103D01*
X135444755Y-93338530D01*
X135321329Y-93263473D01*
X135182228Y-93224500D01*
X135074051Y-93224500D01*
X134966889Y-93239229D01*
X134834390Y-93296781D01*
X134776211Y-93344113D01*
X134728177Y-93368185D01*
X134674469Y-93369679D01*
X134625171Y-93348314D01*
X134589538Y-93308101D01*
X134504996Y-93155785D01*
X134372520Y-93001468D01*
X134211692Y-92876978D01*
X134029094Y-92787410D01*
X133930000Y-92761753D01*
X133430000Y-92761753D01*
X133430000Y-92756634D01*
X133428051Y-92756932D01*
X133237336Y-92827564D01*
X133064736Y-92935145D01*
X132917330Y-93075266D01*
X132801144Y-93242194D01*
X132720940Y-93429092D01*
X132680000Y-93628311D01*
X132680000Y-94030000D01*
X125500500Y-94030000D01*
X125500500Y-90350000D01*
X132680000Y-90350000D01*
X132680000Y-90450710D01*
X132695419Y-90602339D01*
X132756303Y-90796389D01*
X132855003Y-90974214D01*
X132987479Y-91128531D01*
X133148307Y-91253021D01*
X133330905Y-91342589D01*
X133429999Y-91368246D01*
X133430000Y-91368247D01*
X133430000Y-90350000D01*
X133930000Y-90350000D01*
X133930000Y-91373366D01*
X133931948Y-91373067D01*
X134122663Y-91302435D01*
X134295263Y-91194854D01*
X134442669Y-91054733D01*
X134558855Y-90887805D01*
X134639059Y-90700907D01*
X134680000Y-90501689D01*
X134680000Y-90350000D01*
X141320000Y-90350000D01*
X141320000Y-90450710D01*
X141335419Y-90602339D01*
X141396303Y-90796389D01*
X141495003Y-90974214D01*
X141627479Y-91128531D01*
X141788307Y-91253021D01*
X141970905Y-91342589D01*
X142069999Y-91368246D01*
X142070000Y-91368247D01*
X142070000Y-90350000D01*
X142570000Y-90350000D01*
X142570000Y-91373366D01*
X142571948Y-91373067D01*
X142762663Y-91302435D01*
X142935263Y-91194854D01*
X143082669Y-91054733D01*
X143198855Y-90887805D01*
X143236535Y-90799999D01*
X161644750Y-90799999D01*
X161663686Y-90968056D01*
X161663686Y-90968058D01*
X161663687Y-90968059D01*
X161719544Y-91127690D01*
X161809523Y-91270890D01*
X161929110Y-91390477D01*
X162072310Y-91480456D01*
X162231941Y-91536313D01*
X162400000Y-91555249D01*
X162568059Y-91536313D01*
X162727690Y-91480456D01*
X162870890Y-91390477D01*
X162990477Y-91270890D01*
X163080456Y-91127690D01*
X163136313Y-90968059D01*
X163155249Y-90800000D01*
X163136313Y-90631941D01*
X163080456Y-90472310D01*
X162990477Y-90329110D01*
X162870890Y-90209523D01*
X162727690Y-90119544D01*
X162568059Y-90063687D01*
X162568058Y-90063686D01*
X162568056Y-90063686D01*
X162400000Y-90044750D01*
X162231943Y-90063686D01*
X162072310Y-90119544D01*
X161929108Y-90209524D01*
X161809524Y-90329108D01*
X161719544Y-90472310D01*
X161663686Y-90631943D01*
X161644750Y-90799999D01*
X143236535Y-90799999D01*
X143279059Y-90700907D01*
X143320000Y-90501689D01*
X143320000Y-90350000D01*
X142570000Y-90350000D01*
X142070000Y-90350000D01*
X141320000Y-90350000D01*
X134680000Y-90350000D01*
X133930000Y-90350000D01*
X133430000Y-90350000D01*
X132680000Y-90350000D01*
X125500500Y-90350000D01*
X125500500Y-89850000D01*
X132680000Y-89850000D01*
X133430000Y-89850000D01*
X133430000Y-88831753D01*
X133930000Y-88831753D01*
X133930000Y-89850000D01*
X134680000Y-89850000D01*
X141320000Y-89850000D01*
X142070000Y-89850000D01*
X142070000Y-88831753D01*
X142570000Y-88831753D01*
X142570000Y-89850000D01*
X143320000Y-89850000D01*
X143320000Y-89749290D01*
X143304580Y-89597660D01*
X143243696Y-89403610D01*
X143186188Y-89300000D01*
X147868586Y-89300000D01*
X147888178Y-89473878D01*
X147888178Y-89473880D01*
X147888179Y-89473881D01*
X147945971Y-89639042D01*
X148039067Y-89787203D01*
X148162797Y-89910933D01*
X148310958Y-90004029D01*
X148476119Y-90061821D01*
X148528230Y-90067692D01*
X148606394Y-90076500D01*
X148606397Y-90076500D01*
X148693603Y-90076500D01*
X148693606Y-90076500D01*
X148758741Y-90069160D01*
X148823881Y-90061821D01*
X148989042Y-90004029D01*
X149137203Y-89910933D01*
X149260933Y-89787203D01*
X149354029Y-89639042D01*
X149411821Y-89473881D01*
X149431413Y-89300000D01*
X149411821Y-89126119D01*
X149354029Y-88960958D01*
X149260933Y-88812797D01*
X149137203Y-88689067D01*
X148989042Y-88595971D01*
X148823881Y-88538179D01*
X148823880Y-88538178D01*
X148823878Y-88538178D01*
X148693606Y-88523500D01*
X148693603Y-88523500D01*
X148606397Y-88523500D01*
X148606394Y-88523500D01*
X148476121Y-88538178D01*
X148310957Y-88595971D01*
X148162795Y-88689068D01*
X148039068Y-88812795D01*
X147945971Y-88960957D01*
X147888178Y-89126121D01*
X147868586Y-89300000D01*
X143186188Y-89300000D01*
X143144996Y-89225785D01*
X143012520Y-89071468D01*
X142851692Y-88946978D01*
X142669094Y-88857410D01*
X142570000Y-88831753D01*
X142070000Y-88831753D01*
X142070000Y-88826634D01*
X142068051Y-88826932D01*
X141877336Y-88897564D01*
X141704736Y-89005145D01*
X141557330Y-89145266D01*
X141441144Y-89312194D01*
X141360940Y-89499092D01*
X141320000Y-89698311D01*
X141320000Y-89850000D01*
X134680000Y-89850000D01*
X134680000Y-89749290D01*
X134664580Y-89597660D01*
X134603696Y-89403610D01*
X134504996Y-89225785D01*
X134372520Y-89071468D01*
X134211692Y-88946978D01*
X134029094Y-88857410D01*
X133930000Y-88831753D01*
X133430000Y-88831753D01*
X133430000Y-88826634D01*
X133428051Y-88826932D01*
X133237336Y-88897564D01*
X133064736Y-89005145D01*
X132917330Y-89145266D01*
X132801144Y-89312194D01*
X132720940Y-89499092D01*
X132680000Y-89698311D01*
X132680000Y-89850000D01*
X125500500Y-89850000D01*
X125500500Y-84504428D01*
X125500816Y-84495582D01*
X125503060Y-84464201D01*
X125515130Y-84295436D01*
X125517646Y-84277938D01*
X125559356Y-84086199D01*
X125564333Y-84069248D01*
X125632911Y-83885385D01*
X125640259Y-83869298D01*
X125660657Y-83831941D01*
X125734291Y-83697089D01*
X125743845Y-83682221D01*
X125861448Y-83525123D01*
X125873020Y-83511769D01*
X126011769Y-83373020D01*
X126025123Y-83361448D01*
X126182221Y-83243845D01*
X126197089Y-83234291D01*
X126369298Y-83140258D01*
X126385385Y-83132911D01*
X126569248Y-83064333D01*
X126586199Y-83059356D01*
X126777938Y-83017646D01*
X126795436Y-83015130D01*
X126995581Y-83000816D01*
X127004428Y-83000500D01*
X127065892Y-83000500D01*
X127934108Y-83000500D01*
X127993038Y-83000500D01*
X128006922Y-83001280D01*
X128097266Y-83011459D01*
X128124331Y-83017636D01*
X128203540Y-83045352D01*
X128228553Y-83057398D01*
X128299606Y-83102043D01*
X128321313Y-83119355D01*
X128380644Y-83178686D01*
X128397957Y-83200395D01*
X128442600Y-83271444D01*
X128454648Y-83296462D01*
X128482362Y-83375666D01*
X128488540Y-83402735D01*
X128498720Y-83493077D01*
X128499500Y-83506962D01*
X128499500Y-85651251D01*
X128535962Y-85951550D01*
X128608357Y-86245267D01*
X128687327Y-86453492D01*
X128715627Y-86528113D01*
X128855112Y-86793878D01*
X128856210Y-86795970D01*
X129028051Y-87044926D01*
X129048745Y-87068284D01*
X129228648Y-87271352D01*
X129311198Y-87344485D01*
X129455073Y-87471948D01*
X129455076Y-87471950D01*
X129704033Y-87643792D01*
X129971887Y-87784373D01*
X130254734Y-87891643D01*
X130548449Y-87964037D01*
X130848748Y-88000500D01*
X130964201Y-88000500D01*
X131000000Y-88000500D01*
X131065892Y-88000500D01*
X138955954Y-88000500D01*
X138957165Y-88000585D01*
X138965183Y-88000569D01*
X138965188Y-88000570D01*
X139000464Y-88000500D01*
X139000671Y-88000500D01*
X139043930Y-88000500D01*
X139045126Y-88000411D01*
X139646532Y-87999225D01*
X139652988Y-87999638D01*
X139657528Y-87999577D01*
X139657532Y-87999578D01*
X139689943Y-87999146D01*
X139691120Y-87999136D01*
X139723458Y-87999074D01*
X139723465Y-87999072D01*
X139728018Y-87999064D01*
X139734445Y-87998554D01*
X140337343Y-87990537D01*
X140348655Y-87991074D01*
X140350239Y-87991018D01*
X140350241Y-87991019D01*
X140379362Y-87990006D01*
X140381964Y-87989943D01*
X140411081Y-87989557D01*
X140411086Y-87989556D01*
X140412675Y-87989535D01*
X140423931Y-87988456D01*
X141024140Y-87967591D01*
X141038056Y-87967889D01*
X141038754Y-87967944D01*
X141065025Y-87966226D01*
X141068720Y-87966041D01*
X141094995Y-87965129D01*
X141095685Y-87965004D01*
X141109494Y-87963318D01*
X141703099Y-87924515D01*
X141715991Y-87924346D01*
X141719251Y-87924473D01*
X141742890Y-87922006D01*
X141747586Y-87921607D01*
X141771290Y-87920059D01*
X141774483Y-87919384D01*
X141787203Y-87917382D01*
X142371050Y-87856467D01*
X142383022Y-87855803D01*
X142388539Y-87855765D01*
X142409766Y-87852559D01*
X142415379Y-87851843D01*
X142436756Y-87849613D01*
X142442114Y-87848263D01*
X142453867Y-87845900D01*
X143025322Y-87759616D01*
X143036491Y-87758445D01*
X143043935Y-87758005D01*
X143063099Y-87754081D01*
X143069407Y-87752959D01*
X143088756Y-87750039D01*
X143095879Y-87747892D01*
X143106783Y-87745139D01*
X143663787Y-87631119D01*
X143674295Y-87629435D01*
X143683200Y-87628397D01*
X143700631Y-87623780D01*
X143707458Y-87622179D01*
X143725138Y-87618561D01*
X143733596Y-87615523D01*
X143743724Y-87612370D01*
X143790440Y-87600000D01*
X160244750Y-87600000D01*
X160263686Y-87768056D01*
X160263686Y-87768058D01*
X160263687Y-87768059D01*
X160319544Y-87927690D01*
X160409523Y-88070890D01*
X160529110Y-88190477D01*
X160672310Y-88280456D01*
X160831941Y-88336313D01*
X161000000Y-88355249D01*
X161168059Y-88336313D01*
X161327690Y-88280456D01*
X161470890Y-88190477D01*
X161513277Y-88148089D01*
X161570658Y-88115530D01*
X161636618Y-88117010D01*
X161692483Y-88152111D01*
X161722437Y-88210897D01*
X161717999Y-88276725D01*
X161663686Y-88431943D01*
X161644750Y-88599999D01*
X161663686Y-88768056D01*
X161663686Y-88768058D01*
X161663687Y-88768059D01*
X161719544Y-88927690D01*
X161809523Y-89070890D01*
X161929110Y-89190477D01*
X162072310Y-89280456D01*
X162231941Y-89336313D01*
X162400000Y-89355249D01*
X162568059Y-89336313D01*
X162727690Y-89280456D01*
X162831081Y-89215490D01*
X162883166Y-89197265D01*
X162938003Y-89203442D01*
X163031941Y-89236313D01*
X163200000Y-89255249D01*
X163368059Y-89236313D01*
X163527690Y-89180456D01*
X163670890Y-89090477D01*
X163790477Y-88970890D01*
X163880456Y-88827690D01*
X163936313Y-88668059D01*
X163955249Y-88500000D01*
X163936313Y-88331941D01*
X163880456Y-88172310D01*
X163790477Y-88029110D01*
X163670890Y-87909523D01*
X163527690Y-87819544D01*
X163368059Y-87763687D01*
X163368058Y-87763686D01*
X163368056Y-87763686D01*
X163200000Y-87744750D01*
X163031943Y-87763686D01*
X162872309Y-87819544D01*
X162768920Y-87884508D01*
X162716832Y-87902734D01*
X162661994Y-87896556D01*
X162647953Y-87891643D01*
X162568059Y-87863687D01*
X162568058Y-87863686D01*
X162568056Y-87863686D01*
X162400000Y-87844750D01*
X162231943Y-87863686D01*
X162100946Y-87909524D01*
X162072310Y-87919544D01*
X161942226Y-88001282D01*
X161929107Y-88009525D01*
X161886722Y-88051910D01*
X161829339Y-88084470D01*
X161763379Y-88082989D01*
X161707515Y-88047887D01*
X161677562Y-87989101D01*
X161682000Y-87923275D01*
X161736313Y-87768059D01*
X161755249Y-87600000D01*
X161753047Y-87580456D01*
X161751078Y-87562984D01*
X161760830Y-87499087D01*
X161801411Y-87448781D01*
X161905871Y-87372888D01*
X162032533Y-87232216D01*
X162127179Y-87068284D01*
X162181858Y-86899999D01*
X167544750Y-86899999D01*
X167563686Y-87068056D01*
X167563686Y-87068058D01*
X167563687Y-87068059D01*
X167619544Y-87227690D01*
X167709523Y-87370890D01*
X167829110Y-87490477D01*
X167972310Y-87580456D01*
X168099095Y-87624819D01*
X168145820Y-87654180D01*
X168175180Y-87700904D01*
X168219544Y-87827690D01*
X168309523Y-87970890D01*
X168429110Y-88090477D01*
X168572310Y-88180456D01*
X168731941Y-88236313D01*
X168900000Y-88255249D01*
X169068059Y-88236313D01*
X169227690Y-88180456D01*
X169370890Y-88090477D01*
X169490477Y-87970890D01*
X169580456Y-87827690D01*
X169636313Y-87668059D01*
X169655249Y-87500000D01*
X169653966Y-87488617D01*
X169640927Y-87372888D01*
X169636313Y-87331941D01*
X169580456Y-87172310D01*
X169490477Y-87029110D01*
X169393295Y-86931928D01*
X169364640Y-86887165D01*
X169357358Y-86834518D01*
X169372787Y-86783657D01*
X169408088Y-86743930D01*
X169505871Y-86672888D01*
X169632533Y-86532216D01*
X169727179Y-86368284D01*
X169785674Y-86188256D01*
X169805460Y-86000000D01*
X169792270Y-85874500D01*
X177594540Y-85874500D01*
X177614326Y-86062757D01*
X177672820Y-86242784D01*
X177767466Y-86406716D01*
X177894129Y-86547389D01*
X178047269Y-86658651D01*
X178220197Y-86735644D01*
X178405352Y-86775000D01*
X178405354Y-86775000D01*
X178594646Y-86775000D01*
X178594648Y-86775000D01*
X178727492Y-86746763D01*
X178779803Y-86735644D01*
X178952730Y-86658651D01*
X179105871Y-86547388D01*
X179232533Y-86406716D01*
X179327179Y-86242784D01*
X179385674Y-86062756D01*
X179405460Y-85874500D01*
X179385674Y-85686244D01*
X179355332Y-85592863D01*
X179327179Y-85506215D01*
X179232533Y-85342283D01*
X179105870Y-85201610D01*
X178952730Y-85090348D01*
X178779802Y-85013355D01*
X178594648Y-84974000D01*
X178594646Y-84974000D01*
X178405354Y-84974000D01*
X178405352Y-84974000D01*
X178220197Y-85013355D01*
X178047269Y-85090348D01*
X177894129Y-85201610D01*
X177767466Y-85342283D01*
X177672820Y-85506215D01*
X177614326Y-85686242D01*
X177594540Y-85874500D01*
X169792270Y-85874500D01*
X169785674Y-85811744D01*
X169733527Y-85651252D01*
X169727179Y-85631715D01*
X169632533Y-85467783D01*
X169505870Y-85327110D01*
X169352730Y-85215848D01*
X169179802Y-85138855D01*
X168994648Y-85099500D01*
X168994646Y-85099500D01*
X168805354Y-85099500D01*
X168805352Y-85099500D01*
X168620197Y-85138855D01*
X168447269Y-85215848D01*
X168294129Y-85327110D01*
X168167466Y-85467783D01*
X168072820Y-85631715D01*
X168014326Y-85811742D01*
X167994540Y-86000000D01*
X168006731Y-86115996D01*
X167994928Y-86183176D01*
X167949382Y-86233950D01*
X167883928Y-86275078D01*
X167829108Y-86309524D01*
X167709524Y-86429108D01*
X167619544Y-86572310D01*
X167563686Y-86731943D01*
X167544750Y-86899999D01*
X162181858Y-86899999D01*
X162185674Y-86888256D01*
X162205460Y-86700000D01*
X162185674Y-86511744D01*
X162127179Y-86331716D01*
X162127179Y-86331715D01*
X162032533Y-86167783D01*
X161905870Y-86027110D01*
X161752730Y-85915848D01*
X161579802Y-85838855D01*
X161394648Y-85799500D01*
X161394646Y-85799500D01*
X161205354Y-85799500D01*
X161205352Y-85799500D01*
X161020197Y-85838855D01*
X160847269Y-85915848D01*
X160694129Y-86027110D01*
X160567466Y-86167783D01*
X160472820Y-86331715D01*
X160414326Y-86511742D01*
X160394540Y-86700000D01*
X160414326Y-86888259D01*
X160448732Y-86994150D01*
X160451376Y-87061412D01*
X160418487Y-87120144D01*
X160409524Y-87129107D01*
X160319544Y-87272309D01*
X160263686Y-87431943D01*
X160244750Y-87600000D01*
X143790440Y-87600000D01*
X144284664Y-87469135D01*
X144294608Y-87466936D01*
X144304497Y-87465175D01*
X144320596Y-87459854D01*
X144327736Y-87457730D01*
X144344158Y-87453383D01*
X144353412Y-87449451D01*
X144362960Y-87445853D01*
X144886514Y-87272834D01*
X144896099Y-87270090D01*
X144906396Y-87267588D01*
X144921648Y-87261474D01*
X144928852Y-87258842D01*
X144944464Y-87253684D01*
X144953922Y-87248974D01*
X144963045Y-87244882D01*
X145468418Y-87042330D01*
X145477847Y-87038987D01*
X145487912Y-87035871D01*
X145502772Y-87028817D01*
X145509812Y-87025740D01*
X145514260Y-87023957D01*
X145525093Y-87019616D01*
X145534223Y-87014339D01*
X145543086Y-87009686D01*
X146029830Y-86778684D01*
X146039252Y-86774681D01*
X146048571Y-86771171D01*
X146063506Y-86762949D01*
X146070125Y-86759561D01*
X146085531Y-86752251D01*
X146093825Y-86746745D01*
X146102565Y-86741451D01*
X146570780Y-86483747D01*
X146580343Y-86479010D01*
X146588440Y-86475426D01*
X146603844Y-86465774D01*
X146609858Y-86462239D01*
X146625755Y-86453491D01*
X146632824Y-86448160D01*
X146641596Y-86442123D01*
X147091805Y-86160074D01*
X147101638Y-86154522D01*
X147108149Y-86151228D01*
X147124248Y-86139944D01*
X147129583Y-86136408D01*
X147146271Y-86125953D01*
X147146270Y-86125953D01*
X147146276Y-86125950D01*
X147151865Y-86121217D01*
X147160813Y-86114318D01*
X147593933Y-85810777D01*
X147604118Y-85804353D01*
X147608853Y-85801680D01*
X147625917Y-85788519D01*
X147630469Y-85785172D01*
X147648129Y-85772797D01*
X147652098Y-85769067D01*
X147661244Y-85761278D01*
X148078764Y-85439314D01*
X148089352Y-85431995D01*
X148092161Y-85430263D01*
X148110360Y-85415067D01*
X148114061Y-85412097D01*
X148132842Y-85397615D01*
X148135142Y-85395247D01*
X148144582Y-85386492D01*
X148248170Y-85300000D01*
X157744750Y-85300000D01*
X157763686Y-85468056D01*
X157763686Y-85468058D01*
X157763687Y-85468059D01*
X157819544Y-85627690D01*
X157909523Y-85770890D01*
X158029110Y-85890477D01*
X158172310Y-85980456D01*
X158331941Y-86036313D01*
X158500000Y-86055249D01*
X158668059Y-86036313D01*
X158827690Y-85980456D01*
X158970890Y-85890477D01*
X159090477Y-85770890D01*
X159180456Y-85627690D01*
X159236313Y-85468059D01*
X159255249Y-85300000D01*
X159236313Y-85131941D01*
X159180456Y-84972310D01*
X159090477Y-84829110D01*
X158970890Y-84709523D01*
X158827690Y-84619544D01*
X158668059Y-84563687D01*
X158668058Y-84563686D01*
X158668056Y-84563686D01*
X158500000Y-84544750D01*
X158331943Y-84563686D01*
X158172310Y-84619544D01*
X158029108Y-84709524D01*
X157909524Y-84829108D01*
X157819544Y-84972310D01*
X157763686Y-85131943D01*
X157744750Y-85300000D01*
X148248170Y-85300000D01*
X148548161Y-85049518D01*
X148559214Y-85041290D01*
X148560046Y-85040741D01*
X148579471Y-85023454D01*
X148582405Y-85020926D01*
X148602338Y-85004285D01*
X148602997Y-85003552D01*
X148612796Y-84993801D01*
X149004330Y-84645403D01*
X149014018Y-84637766D01*
X149014753Y-84637079D01*
X149014757Y-84637077D01*
X149035516Y-84617699D01*
X149037687Y-84615721D01*
X149058868Y-84596875D01*
X149058873Y-84596868D01*
X149059619Y-84596205D01*
X149068118Y-84587268D01*
X149449715Y-84231086D01*
X149456483Y-84225530D01*
X149458714Y-84223379D01*
X149458722Y-84223374D01*
X149480978Y-84201924D01*
X149482243Y-84200724D01*
X149504881Y-84179596D01*
X149504887Y-84179587D01*
X149507148Y-84177478D01*
X149513058Y-84171010D01*
X149690515Y-83999999D01*
X156444750Y-83999999D01*
X156463686Y-84168056D01*
X156463686Y-84168058D01*
X156463687Y-84168059D01*
X156519544Y-84327690D01*
X156609523Y-84470890D01*
X156729110Y-84590477D01*
X156872310Y-84680456D01*
X157031941Y-84736313D01*
X157200000Y-84755249D01*
X157368059Y-84736313D01*
X157527690Y-84680456D01*
X157670890Y-84590477D01*
X157790477Y-84470890D01*
X157880456Y-84327690D01*
X157936313Y-84168059D01*
X157955249Y-84000000D01*
X157936313Y-83831941D01*
X157925136Y-83800000D01*
X161494540Y-83800000D01*
X161514326Y-83988257D01*
X161572820Y-84168284D01*
X161667466Y-84332216D01*
X161794129Y-84472889D01*
X161947269Y-84584151D01*
X162120197Y-84661144D01*
X162305352Y-84700500D01*
X162305354Y-84700500D01*
X162494646Y-84700500D01*
X162494648Y-84700500D01*
X162618083Y-84674262D01*
X162679803Y-84661144D01*
X162773237Y-84619544D01*
X162852727Y-84584153D01*
X162880896Y-84563687D01*
X162977117Y-84493778D01*
X163024219Y-84472808D01*
X163075781Y-84472808D01*
X163122882Y-84493778D01*
X163205942Y-84554125D01*
X163247272Y-84584153D01*
X163420197Y-84661144D01*
X163605352Y-84700500D01*
X163605354Y-84700500D01*
X163794646Y-84700500D01*
X163794648Y-84700500D01*
X163918083Y-84674262D01*
X163979803Y-84661144D01*
X164152730Y-84584151D01*
X164206961Y-84544750D01*
X164305870Y-84472889D01*
X164432533Y-84332216D01*
X164527179Y-84168284D01*
X164556663Y-84077542D01*
X164585674Y-83988256D01*
X164605460Y-83800000D01*
X164585674Y-83611744D01*
X164544062Y-83483675D01*
X164885777Y-83483675D01*
X164905563Y-83671932D01*
X164964057Y-83851959D01*
X165058703Y-84015891D01*
X165185366Y-84156564D01*
X165338506Y-84267826D01*
X165511434Y-84344819D01*
X165696589Y-84384175D01*
X165696591Y-84384175D01*
X165885883Y-84384175D01*
X165885885Y-84384175D01*
X166052555Y-84348748D01*
X166071040Y-84344819D01*
X166144505Y-84312110D01*
X166243964Y-84267828D01*
X166249380Y-84263893D01*
X166334265Y-84202220D01*
X166398500Y-84178841D01*
X166465364Y-84193053D01*
X166514537Y-84240539D01*
X166567466Y-84332216D01*
X166694129Y-84472889D01*
X166847269Y-84584151D01*
X167020197Y-84661144D01*
X167205352Y-84700500D01*
X167205354Y-84700500D01*
X167394646Y-84700500D01*
X167394648Y-84700500D01*
X167518083Y-84674262D01*
X167579803Y-84661144D01*
X167752730Y-84584151D01*
X167827116Y-84530105D01*
X167874219Y-84509135D01*
X167925781Y-84509135D01*
X167972883Y-84530105D01*
X168047270Y-84584151D01*
X168047271Y-84584151D01*
X168047272Y-84584152D01*
X168220197Y-84661144D01*
X168405352Y-84700500D01*
X168405354Y-84700500D01*
X168594646Y-84700500D01*
X168594648Y-84700500D01*
X168718083Y-84674262D01*
X168779803Y-84661144D01*
X168952730Y-84584151D01*
X169006961Y-84544750D01*
X169105870Y-84472889D01*
X169232533Y-84332216D01*
X169327179Y-84168284D01*
X169356663Y-84077542D01*
X169385674Y-83988256D01*
X169405460Y-83800000D01*
X169385674Y-83611744D01*
X169349366Y-83499999D01*
X170144750Y-83499999D01*
X170163686Y-83668056D01*
X170163686Y-83668058D01*
X170163687Y-83668059D01*
X170219544Y-83827690D01*
X170309523Y-83970890D01*
X170429110Y-84090477D01*
X170572310Y-84180456D01*
X170731941Y-84236313D01*
X170900000Y-84255249D01*
X171068059Y-84236313D01*
X171227690Y-84180456D01*
X171370890Y-84090477D01*
X171462319Y-83999047D01*
X171517906Y-83966954D01*
X171582094Y-83966954D01*
X171637681Y-83999048D01*
X171729110Y-84090477D01*
X171872310Y-84180456D01*
X172031941Y-84236313D01*
X172200000Y-84255249D01*
X172368059Y-84236313D01*
X172527690Y-84180456D01*
X172670890Y-84090477D01*
X172790477Y-83970890D01*
X172880456Y-83827690D01*
X172936313Y-83668059D01*
X172955249Y-83500000D01*
X172936313Y-83331941D01*
X172880456Y-83172310D01*
X172790477Y-83029110D01*
X172670890Y-82909523D01*
X172527690Y-82819544D01*
X172368059Y-82763687D01*
X172368058Y-82763686D01*
X172368056Y-82763686D01*
X172200000Y-82744750D01*
X172031943Y-82763686D01*
X171872310Y-82819544D01*
X171729108Y-82909524D01*
X171637681Y-83000952D01*
X171582094Y-83033046D01*
X171517906Y-83033046D01*
X171462319Y-83000952D01*
X171370891Y-82909524D01*
X171370890Y-82909523D01*
X171227690Y-82819544D01*
X171068059Y-82763687D01*
X171068058Y-82763686D01*
X171068056Y-82763686D01*
X170900000Y-82744750D01*
X170731943Y-82763686D01*
X170572310Y-82819544D01*
X170429108Y-82909524D01*
X170309524Y-83029108D01*
X170219544Y-83172310D01*
X170163686Y-83331943D01*
X170144750Y-83499999D01*
X169349366Y-83499999D01*
X169341240Y-83474991D01*
X169327179Y-83431715D01*
X169232533Y-83267783D01*
X169105870Y-83127110D01*
X168952730Y-83015848D01*
X168779802Y-82938855D01*
X168594648Y-82899500D01*
X168594646Y-82899500D01*
X168405354Y-82899500D01*
X168405352Y-82899500D01*
X168220197Y-82938855D01*
X168047272Y-83015846D01*
X167972885Y-83069892D01*
X167925781Y-83090863D01*
X167874219Y-83090863D01*
X167827115Y-83069892D01*
X167752727Y-83015846D01*
X167579802Y-82938855D01*
X167394648Y-82899500D01*
X167394646Y-82899500D01*
X167205354Y-82899500D01*
X167205352Y-82899500D01*
X167020197Y-82938855D01*
X166847272Y-83015846D01*
X166756971Y-83081454D01*
X166692735Y-83104833D01*
X166625871Y-83090620D01*
X166576699Y-83043134D01*
X166523771Y-82951460D01*
X166397107Y-82810785D01*
X166243967Y-82699523D01*
X166071039Y-82622530D01*
X165885885Y-82583175D01*
X165885883Y-82583175D01*
X165696591Y-82583175D01*
X165696589Y-82583175D01*
X165511434Y-82622530D01*
X165338506Y-82699523D01*
X165185366Y-82810785D01*
X165058703Y-82951458D01*
X164964057Y-83115390D01*
X164905563Y-83295417D01*
X164885777Y-83483675D01*
X164544062Y-83483675D01*
X164541240Y-83474991D01*
X164527179Y-83431715D01*
X164432533Y-83267783D01*
X164305870Y-83127110D01*
X164152730Y-83015848D01*
X163979802Y-82938855D01*
X163794648Y-82899500D01*
X163794646Y-82899500D01*
X163605354Y-82899500D01*
X163605352Y-82899500D01*
X163420197Y-82938855D01*
X163247269Y-83015848D01*
X163122885Y-83106218D01*
X163075781Y-83127190D01*
X163024219Y-83127190D01*
X162977115Y-83106218D01*
X162852730Y-83015848D01*
X162679802Y-82938855D01*
X162494648Y-82899500D01*
X162494646Y-82899500D01*
X162305354Y-82899500D01*
X162305352Y-82899500D01*
X162120197Y-82938855D01*
X161947269Y-83015848D01*
X161794129Y-83127110D01*
X161667466Y-83267783D01*
X161572820Y-83431715D01*
X161514326Y-83611742D01*
X161494540Y-83800000D01*
X157925136Y-83800000D01*
X157880456Y-83672310D01*
X157790477Y-83529110D01*
X157670890Y-83409523D01*
X157527690Y-83319544D01*
X157368059Y-83263687D01*
X157368058Y-83263686D01*
X157368056Y-83263686D01*
X157200000Y-83244750D01*
X157031943Y-83263686D01*
X156872310Y-83319544D01*
X156729108Y-83409524D01*
X156609524Y-83529108D01*
X156519544Y-83672310D01*
X156463686Y-83831943D01*
X156444750Y-83999999D01*
X149690515Y-83999999D01*
X149886818Y-83810826D01*
X149890392Y-83807820D01*
X149894469Y-83803827D01*
X149894474Y-83803824D01*
X149918297Y-83780494D01*
X149918818Y-83779988D01*
X149942963Y-83756722D01*
X149942967Y-83756715D01*
X149947076Y-83752757D01*
X149950189Y-83749265D01*
X150375747Y-83332560D01*
X150375747Y-83332559D01*
X150778565Y-82938116D01*
X150779243Y-82937459D01*
X151206633Y-82525592D01*
X151207914Y-82524377D01*
X151636745Y-82124107D01*
X151638774Y-82122257D01*
X152071355Y-81737334D01*
X152074198Y-81734885D01*
X152178414Y-81647869D01*
X166149500Y-81647869D01*
X166151695Y-81668284D01*
X166155909Y-81707483D01*
X166206204Y-81842331D01*
X166292454Y-81957546D01*
X166407669Y-82043796D01*
X166542517Y-82094091D01*
X166602127Y-82100500D01*
X167697872Y-82100499D01*
X167757483Y-82094091D01*
X167892331Y-82043796D01*
X167900382Y-82037768D01*
X167965294Y-82013392D01*
X168023472Y-82025640D01*
X168023586Y-82025268D01*
X168027859Y-82026564D01*
X168033146Y-82027677D01*
X168035273Y-82028814D01*
X168223868Y-82086024D01*
X168420000Y-82105341D01*
X168616132Y-82086024D01*
X168804727Y-82028814D01*
X168880987Y-81988051D01*
X168989310Y-81930153D01*
X168989749Y-81930974D01*
X169027226Y-81912489D01*
X169083543Y-81912486D01*
X169120460Y-81930688D01*
X169120970Y-81929736D01*
X169305465Y-82028350D01*
X169439998Y-82069160D01*
X169440000Y-82069160D01*
X169940000Y-82069160D01*
X169940001Y-82069160D01*
X170074530Y-82028351D01*
X170259031Y-81929735D01*
X170259541Y-81930689D01*
X170296440Y-81912489D01*
X170352757Y-81912486D01*
X170390252Y-81930974D01*
X170390691Y-81930153D01*
X170503551Y-81990478D01*
X170575273Y-82028814D01*
X170763868Y-82086024D01*
X170960000Y-82105341D01*
X171156132Y-82086024D01*
X171344727Y-82028814D01*
X171420987Y-81988051D01*
X171529310Y-81930153D01*
X171529803Y-81931077D01*
X171566840Y-81912811D01*
X171623160Y-81912811D01*
X171660196Y-81931077D01*
X171660690Y-81930153D01*
X171773551Y-81990478D01*
X171845273Y-82028814D01*
X172033868Y-82086024D01*
X172230000Y-82105341D01*
X172426132Y-82086024D01*
X172614727Y-82028814D01*
X172788538Y-81935910D01*
X172940883Y-81810883D01*
X173065910Y-81658538D01*
X173158814Y-81484727D01*
X173214851Y-81299999D01*
X178594540Y-81299999D01*
X178614326Y-81488257D01*
X178672820Y-81668284D01*
X178767466Y-81832216D01*
X178894129Y-81972889D01*
X179047269Y-82084151D01*
X179220197Y-82161144D01*
X179405352Y-82200500D01*
X179405354Y-82200500D01*
X179594646Y-82200500D01*
X179594648Y-82200500D01*
X179725492Y-82172688D01*
X179779803Y-82161144D01*
X179952730Y-82084151D01*
X180008274Y-82043796D01*
X180105870Y-81972889D01*
X180232533Y-81832216D01*
X180327179Y-81668284D01*
X180368101Y-81542339D01*
X180385674Y-81488256D01*
X180405460Y-81300000D01*
X180385674Y-81111744D01*
X180342153Y-80977801D01*
X180327179Y-80931715D01*
X180232533Y-80767783D01*
X180105870Y-80627110D01*
X179952730Y-80515848D01*
X179779802Y-80438855D01*
X179594648Y-80399500D01*
X179594646Y-80399500D01*
X179405354Y-80399500D01*
X179405352Y-80399500D01*
X179220197Y-80438855D01*
X179047269Y-80515848D01*
X178894129Y-80627110D01*
X178767466Y-80767783D01*
X178672820Y-80931715D01*
X178614326Y-81111742D01*
X178594540Y-81299999D01*
X173214851Y-81299999D01*
X173216024Y-81296132D01*
X173235341Y-81100000D01*
X173216024Y-80903868D01*
X173158814Y-80715273D01*
X173065910Y-80541462D01*
X172940883Y-80389117D01*
X172788538Y-80264090D01*
X172748060Y-80242454D01*
X172614726Y-80171185D01*
X172426133Y-80113976D01*
X172230000Y-80094659D01*
X172033866Y-80113976D01*
X171845273Y-80171185D01*
X171660691Y-80269847D01*
X171660197Y-80268923D01*
X171623157Y-80287190D01*
X171566843Y-80287190D01*
X171529802Y-80268923D01*
X171529309Y-80269847D01*
X171344726Y-80171185D01*
X171156133Y-80113976D01*
X170960000Y-80094659D01*
X170763866Y-80113976D01*
X170575273Y-80171185D01*
X170390691Y-80269847D01*
X170390252Y-80269026D01*
X170352760Y-80287514D01*
X170296445Y-80287512D01*
X170259539Y-80269310D01*
X170259030Y-80270264D01*
X170074534Y-80171649D01*
X169940001Y-80130839D01*
X169940000Y-80130840D01*
X169940000Y-82069160D01*
X169440000Y-82069160D01*
X169440000Y-80130840D01*
X169439998Y-80130839D01*
X169305465Y-80171649D01*
X169120970Y-80270264D01*
X169120460Y-80269311D01*
X169083546Y-80287514D01*
X169027231Y-80287512D01*
X168989747Y-80269025D01*
X168989309Y-80269847D01*
X168804726Y-80171185D01*
X168616133Y-80113976D01*
X168420000Y-80094659D01*
X168223866Y-80113976D01*
X168035270Y-80171186D01*
X168033139Y-80172326D01*
X168027834Y-80173442D01*
X168023587Y-80174731D01*
X168023474Y-80174360D01*
X167965292Y-80186607D01*
X167900384Y-80162232D01*
X167892333Y-80156205D01*
X167892331Y-80156204D01*
X167757483Y-80105909D01*
X167697873Y-80099500D01*
X167697869Y-80099500D01*
X166602130Y-80099500D01*
X166542515Y-80105909D01*
X166407669Y-80156204D01*
X166292454Y-80242454D01*
X166206204Y-80357668D01*
X166175923Y-80438855D01*
X166155909Y-80492517D01*
X166153401Y-80515849D01*
X166149500Y-80552130D01*
X166149500Y-81647869D01*
X152178414Y-81647869D01*
X152512646Y-81368799D01*
X152516336Y-81365837D01*
X152962806Y-81021549D01*
X152967338Y-81018216D01*
X153423829Y-80698296D01*
X153429123Y-80694786D01*
X153897703Y-80401227D01*
X153903729Y-80397685D01*
X154386307Y-80132076D01*
X154392921Y-80128692D01*
X154891470Y-79892089D01*
X154898488Y-79889020D01*
X155414824Y-79682073D01*
X155422001Y-79679452D01*
X155957745Y-79502404D01*
X155964845Y-79500293D01*
X156521256Y-79352961D01*
X156528065Y-79351364D01*
X157105835Y-79233094D01*
X157112156Y-79231970D01*
X157711365Y-79141495D01*
X157716925Y-79140785D01*
X158337065Y-79076084D01*
X158341743Y-79075688D01*
X158981302Y-79033880D01*
X158985079Y-79033692D01*
X159642080Y-79010852D01*
X159644664Y-79010789D01*
X160316537Y-79001855D01*
X160317706Y-79001845D01*
X161000291Y-79000500D01*
X180999542Y-79000500D01*
X181644572Y-79001057D01*
G37*
%TD.AperFunction*%
%TD*%
M02*
