%TF.GenerationSoftware,KiCad,Pcbnew,7.0.1*%
%TF.CreationDate,2023-09-05T02:32:18-04:00*%
%TF.ProjectId,Fluxpad,466c7578-7061-4642-9e6b-696361645f70,rev?*%
%TF.SameCoordinates,Original*%
%TF.FileFunction,Soldermask,Top*%
%TF.FilePolarity,Negative*%
%FSLAX46Y46*%
G04 Gerber Fmt 4.6, Leading zero omitted, Abs format (unit mm)*
G04 Created by KiCad (PCBNEW 7.0.1) date 2023-09-05 02:32:18*
%MOMM*%
%LPD*%
G01*
G04 APERTURE LIST*
G04 Aperture macros list*
%AMRoundRect*
0 Rectangle with rounded corners*
0 $1 Rounding radius*
0 $2 $3 $4 $5 $6 $7 $8 $9 X,Y pos of 4 corners*
0 Add a 4 corners polygon primitive as box body*
4,1,4,$2,$3,$4,$5,$6,$7,$8,$9,$2,$3,0*
0 Add four circle primitives for the rounded corners*
1,1,$1+$1,$2,$3*
1,1,$1+$1,$4,$5*
1,1,$1+$1,$6,$7*
1,1,$1+$1,$8,$9*
0 Add four rect primitives between the rounded corners*
20,1,$1+$1,$2,$3,$4,$5,0*
20,1,$1+$1,$4,$5,$6,$7,0*
20,1,$1+$1,$6,$7,$8,$9,0*
20,1,$1+$1,$8,$9,$2,$3,0*%
G04 Aperture macros list end*
%ADD10C,2.200000*%
%ADD11RoundRect,0.140000X0.170000X-0.140000X0.170000X0.140000X-0.170000X0.140000X-0.170000X-0.140000X0*%
%ADD12R,1.500000X0.900000*%
%ADD13C,1.300000*%
%ADD14R,2.000000X2.000000*%
%ADD15C,2.000000*%
%ADD16C,2.800000*%
%ADD17R,0.650000X0.400000*%
%ADD18RoundRect,0.200000X-0.200000X-0.275000X0.200000X-0.275000X0.200000X0.275000X-0.200000X0.275000X0*%
%ADD19C,1.750000*%
%ADD20C,4.000000*%
%ADD21C,0.650000*%
%ADD22O,1.000000X1.600000*%
%ADD23O,1.000000X2.100000*%
%ADD24O,2.100000X3.400000*%
%ADD25C,3.000000*%
G04 APERTURE END LIST*
D10*
%TO.C,H2*%
X142000000Y-143500000D03*
%TD*%
%TO.C,H3*%
X178000000Y-143500000D03*
%TD*%
%TO.C,H5*%
X154000000Y-98000000D03*
%TD*%
D11*
%TO.C,C4*%
X175400000Y-94480000D03*
X175400000Y-93520000D03*
%TD*%
D12*
%TO.C,D8*%
X182450000Y-95150000D03*
X182450000Y-91850000D03*
X177550000Y-91850000D03*
X177550000Y-95150000D03*
%TD*%
D11*
%TO.C,C3*%
X166500000Y-94480000D03*
X166500000Y-93520000D03*
%TD*%
D12*
%TO.C,D6*%
X164450000Y-95150000D03*
X164450000Y-91850000D03*
X159550000Y-91850000D03*
X159550000Y-95150000D03*
%TD*%
D13*
%TO.C,H6*%
X148650000Y-89300000D03*
%TD*%
D11*
%TO.C,C10*%
X184400000Y-94480000D03*
X184400000Y-93520000D03*
%TD*%
D14*
%TO.C,SW3*%
X138500000Y-117500000D03*
D15*
X143500000Y-117500000D03*
X141000000Y-117500000D03*
D16*
X135400000Y-110000000D03*
X146600000Y-110000000D03*
%TD*%
D10*
%TO.C,H4*%
X192000000Y-104500000D03*
%TD*%
D17*
%TO.C,U1*%
X155550000Y-92850000D03*
X155550000Y-93500000D03*
X155550000Y-94150000D03*
X157450000Y-94150000D03*
X157450000Y-92850000D03*
%TD*%
D10*
%TO.C,H1*%
X128000000Y-104500000D03*
%TD*%
D18*
%TO.C,R5*%
X155675000Y-95700000D03*
X157325000Y-95700000D03*
%TD*%
D13*
%TO.C,H8*%
X187150000Y-137350000D03*
%TD*%
D19*
%TO.C,SW1*%
X154920000Y-110000000D03*
D20*
X160000000Y-110000000D03*
D19*
X165080000Y-110000000D03*
%TD*%
D13*
%TO.C,H7*%
X133400000Y-138200000D03*
%TD*%
D19*
%TO.C,SW2*%
X173920000Y-110000000D03*
D20*
X179000000Y-110000000D03*
D19*
X184080000Y-110000000D03*
%TD*%
D12*
%TO.C,D7*%
X173450000Y-95150000D03*
X173450000Y-91850000D03*
X168550000Y-91850000D03*
X168550000Y-95150000D03*
%TD*%
D21*
%TO.C,J1*%
X135110000Y-93750000D03*
X140890000Y-93750000D03*
D22*
X133680000Y-90100000D03*
D23*
X133680000Y-94280000D03*
D22*
X142320000Y-90100000D03*
D23*
X142320000Y-94280000D03*
%TD*%
D24*
%TO.C,D2*%
X179000000Y-115000000D03*
%TD*%
D19*
%TO.C,U2*%
X146080000Y-129000000D03*
X135920000Y-129000000D03*
%TD*%
D24*
%TO.C,D3*%
X141000000Y-134000000D03*
%TD*%
%TO.C,D4*%
X160000000Y-134000000D03*
%TD*%
D25*
%TO.C,SW6*%
X156190000Y-107460000D03*
X162540000Y-104920000D03*
%TD*%
D19*
%TO.C,U5*%
X184080000Y-129005633D03*
X173920000Y-129005633D03*
%TD*%
D24*
%TO.C,D1*%
X160000000Y-115000000D03*
%TD*%
%TO.C,D5*%
X179000000Y-134005633D03*
%TD*%
D25*
%TO.C,SW7*%
X175190000Y-107460000D03*
X181540000Y-104920000D03*
%TD*%
D19*
%TO.C,U3*%
X165080000Y-129000000D03*
X154920000Y-129000000D03*
%TD*%
M02*
