%TF.GenerationSoftware,KiCad,Pcbnew,7.0.1*%
%TF.CreationDate,2023-07-01T02:03:31-04:00*%
%TF.ProjectId,Fluxpad,466c7578-7061-4642-9e6b-696361645f70,rev?*%
%TF.SameCoordinates,Original*%
%TF.FileFunction,Legend,Bot*%
%TF.FilePolarity,Positive*%
%FSLAX46Y46*%
G04 Gerber Fmt 4.6, Leading zero omitted, Abs format (unit mm)*
G04 Created by KiCad (PCBNEW 7.0.1) date 2023-07-01 02:03:31*
%MOMM*%
%LPD*%
G01*
G04 APERTURE LIST*
G04 Aperture macros list*
%AMRoundRect*
0 Rectangle with rounded corners*
0 $1 Rounding radius*
0 $2 $3 $4 $5 $6 $7 $8 $9 X,Y pos of 4 corners*
0 Add a 4 corners polygon primitive as box body*
4,1,4,$2,$3,$4,$5,$6,$7,$8,$9,$2,$3,0*
0 Add four circle primitives for the rounded corners*
1,1,$1+$1,$2,$3*
1,1,$1+$1,$4,$5*
1,1,$1+$1,$6,$7*
1,1,$1+$1,$8,$9*
0 Add four rect primitives between the rounded corners*
20,1,$1+$1,$2,$3,$4,$5,0*
20,1,$1+$1,$4,$5,$6,$7,0*
20,1,$1+$1,$6,$7,$8,$9,0*
20,1,$1+$1,$8,$9,$2,$3,0*%
%AMRotRect*
0 Rectangle, with rotation*
0 The origin of the aperture is its center*
0 $1 length*
0 $2 width*
0 $3 Rotation angle, in degrees counterclockwise*
0 Add horizontal line*
21,1,$1,$2,0,0,$3*%
G04 Aperture macros list end*
%ADD10C,0.100000*%
%ADD11C,0.200000*%
%ADD12C,0.150000*%
%ADD13C,0.120000*%
%ADD14C,1.750000*%
%ADD15C,4.000000*%
%ADD16C,2.200000*%
%ADD17C,1.300000*%
%ADD18R,2.000000X2.000000*%
%ADD19C,2.000000*%
%ADD20C,2.800000*%
%ADD21R,1.000000X1.000000*%
%ADD22O,1.000000X1.000000*%
%ADD23RoundRect,0.135000X-0.185000X0.135000X-0.185000X-0.135000X0.185000X-0.135000X0.185000X0.135000X0*%
%ADD24RoundRect,0.150000X0.350000X0.225000X-0.350000X0.225000X-0.350000X-0.225000X0.350000X-0.225000X0*%
%ADD25RoundRect,0.200000X0.275000X-0.200000X0.275000X0.200000X-0.275000X0.200000X-0.275000X-0.200000X0*%
%ADD26RoundRect,0.135000X0.135000X0.185000X-0.135000X0.185000X-0.135000X-0.185000X0.135000X-0.185000X0*%
%ADD27RoundRect,0.140000X0.170000X-0.140000X0.170000X0.140000X-0.170000X0.140000X-0.170000X-0.140000X0*%
%ADD28RoundRect,0.140000X0.219203X0.021213X0.021213X0.219203X-0.219203X-0.021213X-0.021213X-0.219203X0*%
%ADD29RoundRect,0.225000X0.250000X-0.225000X0.250000X0.225000X-0.250000X0.225000X-0.250000X-0.225000X0*%
%ADD30C,0.650000*%
%ADD31R,0.600000X1.450000*%
%ADD32R,0.300000X1.450000*%
%ADD33O,1.000000X1.600000*%
%ADD34O,1.000000X2.100000*%
%ADD35RoundRect,0.135000X0.185000X-0.135000X0.185000X0.135000X-0.185000X0.135000X-0.185000X-0.135000X0*%
%ADD36RoundRect,0.140000X-0.170000X0.140000X-0.170000X-0.140000X0.170000X-0.140000X0.170000X0.140000X0*%
%ADD37RoundRect,0.050000X-0.050000X0.387500X-0.050000X-0.387500X0.050000X-0.387500X0.050000X0.387500X0*%
%ADD38RoundRect,0.050000X-0.387500X0.050000X-0.387500X-0.050000X0.387500X-0.050000X0.387500X0.050000X0*%
%ADD39R,3.200000X3.200000*%
%ADD40RoundRect,0.200000X-0.200000X-0.275000X0.200000X-0.275000X0.200000X0.275000X-0.200000X0.275000X0*%
%ADD41RoundRect,0.140000X0.140000X0.170000X-0.140000X0.170000X-0.140000X-0.170000X0.140000X-0.170000X0*%
%ADD42RoundRect,0.150000X-0.150000X0.587500X-0.150000X-0.587500X0.150000X-0.587500X0.150000X0.587500X0*%
%ADD43R,2.000000X1.500000*%
%ADD44R,2.000000X3.800000*%
%ADD45RoundRect,0.150000X0.825000X0.150000X-0.825000X0.150000X-0.825000X-0.150000X0.825000X-0.150000X0*%
%ADD46C,3.000000*%
%ADD47RoundRect,0.250000X-1.000000X-1.025000X1.000000X-1.025000X1.000000X1.025000X-1.000000X1.025000X0*%
%ADD48RotRect,1.400000X1.200000X315.000000*%
%ADD49RoundRect,0.140000X-0.140000X-0.170000X0.140000X-0.170000X0.140000X0.170000X-0.140000X0.170000X0*%
%ADD50RoundRect,0.250000X0.475000X-0.250000X0.475000X0.250000X-0.475000X0.250000X-0.475000X-0.250000X0*%
%ADD51RoundRect,0.150000X-0.512500X-0.150000X0.512500X-0.150000X0.512500X0.150000X-0.512500X0.150000X0*%
%ADD52RoundRect,0.150000X-0.150000X0.650000X-0.150000X-0.650000X0.150000X-0.650000X0.150000X0.650000X0*%
%ADD53RoundRect,0.150000X-0.350000X-0.225000X0.350000X-0.225000X0.350000X0.225000X-0.350000X0.225000X0*%
%ADD54RoundRect,0.140000X-0.219203X-0.021213X-0.021213X-0.219203X0.219203X0.021213X0.021213X0.219203X0*%
G04 APERTURE END LIST*
D10*
X147000000Y-97150000D02*
X147000000Y-96050000D01*
X147000000Y-95650000D02*
X147000000Y-94550000D01*
X147000000Y-94150000D02*
X147000000Y-93050000D01*
X147000000Y-92650000D02*
X147000000Y-91550000D01*
X147000000Y-91150000D02*
X147000000Y-90050000D01*
X147000000Y-89650000D02*
X147000000Y-88550000D01*
X145000000Y-87350742D02*
X145000000Y-88450742D01*
X145000000Y-88850742D02*
X145000000Y-89950742D01*
X145000000Y-90350742D02*
X145000000Y-91450742D01*
X145000000Y-91850742D02*
X145000000Y-92950742D01*
X145000000Y-93350742D02*
X145000000Y-94450742D01*
X145000000Y-94850742D02*
X145000000Y-95150000D01*
X132000000Y-99150000D02*
X133100000Y-99150000D01*
X133500000Y-99150000D02*
X134600000Y-99150000D01*
X135000000Y-99150000D02*
X136100000Y-99150000D01*
X136500000Y-99150000D02*
X137600000Y-99150000D01*
X138000000Y-99150000D02*
X139100000Y-99150000D01*
X139500000Y-99150000D02*
X140600000Y-99150000D01*
X141000000Y-99150000D02*
X142100000Y-99150000D01*
X142500000Y-99150000D02*
X143600000Y-99150000D01*
X144000000Y-99150000D02*
X145000000Y-99150000D01*
X143000000Y-97150000D02*
X141900000Y-97150000D01*
X141500000Y-97150000D02*
X140400000Y-97150000D01*
X140000000Y-97150000D02*
X138900000Y-97150000D01*
X138500000Y-97150000D02*
X137400000Y-97150000D01*
X137000000Y-97150000D02*
X135900000Y-97150000D01*
X135500000Y-97150000D02*
X134400000Y-97150000D01*
X134000000Y-97150000D02*
X133000000Y-97150000D01*
D11*
X190650000Y-82921333D02*
X191116666Y-82921333D01*
X191116666Y-83654666D02*
X191116666Y-82254666D01*
X191116666Y-82254666D02*
X190450000Y-82254666D01*
X189250000Y-83654666D02*
X189916666Y-83654666D01*
X189916666Y-83654666D02*
X189916666Y-82254666D01*
X188783333Y-82254666D02*
X188783333Y-83388000D01*
X188783333Y-83388000D02*
X188716667Y-83521333D01*
X188716667Y-83521333D02*
X188650000Y-83588000D01*
X188650000Y-83588000D02*
X188516667Y-83654666D01*
X188516667Y-83654666D02*
X188250000Y-83654666D01*
X188250000Y-83654666D02*
X188116667Y-83588000D01*
X188116667Y-83588000D02*
X188050000Y-83521333D01*
X188050000Y-83521333D02*
X187983333Y-83388000D01*
X187983333Y-83388000D02*
X187983333Y-82254666D01*
X187450000Y-82254666D02*
X186516666Y-83654666D01*
X186516666Y-82254666D02*
X187450000Y-83654666D01*
X185983333Y-83654666D02*
X185983333Y-82254666D01*
X185983333Y-82254666D02*
X185450000Y-82254666D01*
X185450000Y-82254666D02*
X185316667Y-82321333D01*
X185316667Y-82321333D02*
X185250000Y-82388000D01*
X185250000Y-82388000D02*
X185183333Y-82521333D01*
X185183333Y-82521333D02*
X185183333Y-82721333D01*
X185183333Y-82721333D02*
X185250000Y-82854666D01*
X185250000Y-82854666D02*
X185316667Y-82921333D01*
X185316667Y-82921333D02*
X185450000Y-82988000D01*
X185450000Y-82988000D02*
X185983333Y-82988000D01*
X184650000Y-83254666D02*
X183983333Y-83254666D01*
X184783333Y-83654666D02*
X184316667Y-82254666D01*
X184316667Y-82254666D02*
X183850000Y-83654666D01*
X183383333Y-83654666D02*
X183383333Y-82254666D01*
X183383333Y-82254666D02*
X183050000Y-82254666D01*
X183050000Y-82254666D02*
X182850000Y-82321333D01*
X182850000Y-82321333D02*
X182716667Y-82454666D01*
X182716667Y-82454666D02*
X182650000Y-82588000D01*
X182650000Y-82588000D02*
X182583333Y-82854666D01*
X182583333Y-82854666D02*
X182583333Y-83054666D01*
X182583333Y-83054666D02*
X182650000Y-83321333D01*
X182650000Y-83321333D02*
X182716667Y-83454666D01*
X182716667Y-83454666D02*
X182850000Y-83588000D01*
X182850000Y-83588000D02*
X183050000Y-83654666D01*
X183050000Y-83654666D02*
X183383333Y-83654666D01*
X190316666Y-85922666D02*
X190783333Y-85256000D01*
X191116666Y-85922666D02*
X191116666Y-84522666D01*
X191116666Y-84522666D02*
X190583333Y-84522666D01*
X190583333Y-84522666D02*
X190450000Y-84589333D01*
X190450000Y-84589333D02*
X190383333Y-84656000D01*
X190383333Y-84656000D02*
X190316666Y-84789333D01*
X190316666Y-84789333D02*
X190316666Y-84989333D01*
X190316666Y-84989333D02*
X190383333Y-85122666D01*
X190383333Y-85122666D02*
X190450000Y-85189333D01*
X190450000Y-85189333D02*
X190583333Y-85256000D01*
X190583333Y-85256000D02*
X191116666Y-85256000D01*
X189183333Y-85856000D02*
X189316666Y-85922666D01*
X189316666Y-85922666D02*
X189583333Y-85922666D01*
X189583333Y-85922666D02*
X189716666Y-85856000D01*
X189716666Y-85856000D02*
X189783333Y-85722666D01*
X189783333Y-85722666D02*
X189783333Y-85189333D01*
X189783333Y-85189333D02*
X189716666Y-85056000D01*
X189716666Y-85056000D02*
X189583333Y-84989333D01*
X189583333Y-84989333D02*
X189316666Y-84989333D01*
X189316666Y-84989333D02*
X189183333Y-85056000D01*
X189183333Y-85056000D02*
X189116666Y-85189333D01*
X189116666Y-85189333D02*
X189116666Y-85322666D01*
X189116666Y-85322666D02*
X189783333Y-85456000D01*
X188650000Y-84989333D02*
X188316666Y-85922666D01*
X188316666Y-85922666D02*
X187983333Y-84989333D01*
X187516666Y-85522666D02*
X186849999Y-85522666D01*
X187649999Y-85922666D02*
X187183333Y-84522666D01*
X187183333Y-84522666D02*
X186716666Y-85922666D01*
X191316666Y-86790666D02*
X190516666Y-86790666D01*
X190916666Y-88190666D02*
X190916666Y-86790666D01*
X190049999Y-88057333D02*
X189983333Y-88124000D01*
X189983333Y-88124000D02*
X190049999Y-88190666D01*
X190049999Y-88190666D02*
X190116666Y-88124000D01*
X190116666Y-88124000D02*
X190049999Y-88057333D01*
X190049999Y-88057333D02*
X190049999Y-88190666D01*
X189516666Y-86790666D02*
X189183332Y-88190666D01*
X189183332Y-88190666D02*
X188916666Y-87190666D01*
X188916666Y-87190666D02*
X188649999Y-88190666D01*
X188649999Y-88190666D02*
X188316666Y-86790666D01*
X187783332Y-88057333D02*
X187716666Y-88124000D01*
X187716666Y-88124000D02*
X187783332Y-88190666D01*
X187783332Y-88190666D02*
X187849999Y-88124000D01*
X187849999Y-88124000D02*
X187783332Y-88057333D01*
X187783332Y-88057333D02*
X187783332Y-88190666D01*
D12*
%TO.C,R14*%
X161123833Y-123049999D02*
X160790500Y-122816666D01*
X161123833Y-122649999D02*
X160423833Y-122649999D01*
X160423833Y-122649999D02*
X160423833Y-122916666D01*
X160423833Y-122916666D02*
X160457166Y-122983333D01*
X160457166Y-122983333D02*
X160490500Y-123016666D01*
X160490500Y-123016666D02*
X160557166Y-123049999D01*
X160557166Y-123049999D02*
X160657166Y-123049999D01*
X160657166Y-123049999D02*
X160723833Y-123016666D01*
X160723833Y-123016666D02*
X160757166Y-122983333D01*
X160757166Y-122983333D02*
X160790500Y-122916666D01*
X160790500Y-122916666D02*
X160790500Y-122649999D01*
X161123833Y-123716666D02*
X161123833Y-123316666D01*
X161123833Y-123516666D02*
X160423833Y-123516666D01*
X160423833Y-123516666D02*
X160523833Y-123449999D01*
X160523833Y-123449999D02*
X160590500Y-123383333D01*
X160590500Y-123383333D02*
X160623833Y-123316666D01*
X160657166Y-124316666D02*
X161123833Y-124316666D01*
X160390500Y-124150000D02*
X160890500Y-123983333D01*
X160890500Y-123983333D02*
X160890500Y-124416666D01*
D10*
%TO.C,SW4*%
X184233332Y-91215000D02*
X184090475Y-91262619D01*
X184090475Y-91262619D02*
X183852380Y-91262619D01*
X183852380Y-91262619D02*
X183757142Y-91215000D01*
X183757142Y-91215000D02*
X183709523Y-91167380D01*
X183709523Y-91167380D02*
X183661904Y-91072142D01*
X183661904Y-91072142D02*
X183661904Y-90976904D01*
X183661904Y-90976904D02*
X183709523Y-90881666D01*
X183709523Y-90881666D02*
X183757142Y-90834047D01*
X183757142Y-90834047D02*
X183852380Y-90786428D01*
X183852380Y-90786428D02*
X184042856Y-90738809D01*
X184042856Y-90738809D02*
X184138094Y-90691190D01*
X184138094Y-90691190D02*
X184185713Y-90643571D01*
X184185713Y-90643571D02*
X184233332Y-90548333D01*
X184233332Y-90548333D02*
X184233332Y-90453095D01*
X184233332Y-90453095D02*
X184185713Y-90357857D01*
X184185713Y-90357857D02*
X184138094Y-90310238D01*
X184138094Y-90310238D02*
X184042856Y-90262619D01*
X184042856Y-90262619D02*
X183804761Y-90262619D01*
X183804761Y-90262619D02*
X183661904Y-90310238D01*
X183328570Y-90262619D02*
X183090475Y-91262619D01*
X183090475Y-91262619D02*
X182899999Y-90548333D01*
X182899999Y-90548333D02*
X182709523Y-91262619D01*
X182709523Y-91262619D02*
X182471428Y-90262619D01*
X181661904Y-90595952D02*
X181661904Y-91262619D01*
X181899999Y-90215000D02*
X182138094Y-90929285D01*
X182138094Y-90929285D02*
X181519047Y-90929285D01*
D12*
%TO.C,TP_SW4*%
X166590475Y-125162619D02*
X166019047Y-125162619D01*
X166304761Y-126162619D02*
X166304761Y-125162619D01*
X165685713Y-126162619D02*
X165685713Y-125162619D01*
X165685713Y-125162619D02*
X165304761Y-125162619D01*
X165304761Y-125162619D02*
X165209523Y-125210238D01*
X165209523Y-125210238D02*
X165161904Y-125257857D01*
X165161904Y-125257857D02*
X165114285Y-125353095D01*
X165114285Y-125353095D02*
X165114285Y-125495952D01*
X165114285Y-125495952D02*
X165161904Y-125591190D01*
X165161904Y-125591190D02*
X165209523Y-125638809D01*
X165209523Y-125638809D02*
X165304761Y-125686428D01*
X165304761Y-125686428D02*
X165685713Y-125686428D01*
X164923809Y-126257857D02*
X164161904Y-126257857D01*
X163971427Y-126115000D02*
X163828570Y-126162619D01*
X163828570Y-126162619D02*
X163590475Y-126162619D01*
X163590475Y-126162619D02*
X163495237Y-126115000D01*
X163495237Y-126115000D02*
X163447618Y-126067380D01*
X163447618Y-126067380D02*
X163399999Y-125972142D01*
X163399999Y-125972142D02*
X163399999Y-125876904D01*
X163399999Y-125876904D02*
X163447618Y-125781666D01*
X163447618Y-125781666D02*
X163495237Y-125734047D01*
X163495237Y-125734047D02*
X163590475Y-125686428D01*
X163590475Y-125686428D02*
X163780951Y-125638809D01*
X163780951Y-125638809D02*
X163876189Y-125591190D01*
X163876189Y-125591190D02*
X163923808Y-125543571D01*
X163923808Y-125543571D02*
X163971427Y-125448333D01*
X163971427Y-125448333D02*
X163971427Y-125353095D01*
X163971427Y-125353095D02*
X163923808Y-125257857D01*
X163923808Y-125257857D02*
X163876189Y-125210238D01*
X163876189Y-125210238D02*
X163780951Y-125162619D01*
X163780951Y-125162619D02*
X163542856Y-125162619D01*
X163542856Y-125162619D02*
X163399999Y-125210238D01*
X163066665Y-125162619D02*
X162828570Y-126162619D01*
X162828570Y-126162619D02*
X162638094Y-125448333D01*
X162638094Y-125448333D02*
X162447618Y-126162619D01*
X162447618Y-126162619D02*
X162209523Y-125162619D01*
X161399999Y-125495952D02*
X161399999Y-126162619D01*
X161638094Y-125115000D02*
X161876189Y-125829285D01*
X161876189Y-125829285D02*
X161257142Y-125829285D01*
%TO.C,TP_SW1*%
X153390475Y-108714619D02*
X152819047Y-108714619D01*
X153104761Y-109714619D02*
X153104761Y-108714619D01*
X152485713Y-109714619D02*
X152485713Y-108714619D01*
X152485713Y-108714619D02*
X152104761Y-108714619D01*
X152104761Y-108714619D02*
X152009523Y-108762238D01*
X152009523Y-108762238D02*
X151961904Y-108809857D01*
X151961904Y-108809857D02*
X151914285Y-108905095D01*
X151914285Y-108905095D02*
X151914285Y-109047952D01*
X151914285Y-109047952D02*
X151961904Y-109143190D01*
X151961904Y-109143190D02*
X152009523Y-109190809D01*
X152009523Y-109190809D02*
X152104761Y-109238428D01*
X152104761Y-109238428D02*
X152485713Y-109238428D01*
X151723809Y-109809857D02*
X150961904Y-109809857D01*
X150771427Y-109667000D02*
X150628570Y-109714619D01*
X150628570Y-109714619D02*
X150390475Y-109714619D01*
X150390475Y-109714619D02*
X150295237Y-109667000D01*
X150295237Y-109667000D02*
X150247618Y-109619380D01*
X150247618Y-109619380D02*
X150199999Y-109524142D01*
X150199999Y-109524142D02*
X150199999Y-109428904D01*
X150199999Y-109428904D02*
X150247618Y-109333666D01*
X150247618Y-109333666D02*
X150295237Y-109286047D01*
X150295237Y-109286047D02*
X150390475Y-109238428D01*
X150390475Y-109238428D02*
X150580951Y-109190809D01*
X150580951Y-109190809D02*
X150676189Y-109143190D01*
X150676189Y-109143190D02*
X150723808Y-109095571D01*
X150723808Y-109095571D02*
X150771427Y-109000333D01*
X150771427Y-109000333D02*
X150771427Y-108905095D01*
X150771427Y-108905095D02*
X150723808Y-108809857D01*
X150723808Y-108809857D02*
X150676189Y-108762238D01*
X150676189Y-108762238D02*
X150580951Y-108714619D01*
X150580951Y-108714619D02*
X150342856Y-108714619D01*
X150342856Y-108714619D02*
X150199999Y-108762238D01*
X149866665Y-108714619D02*
X149628570Y-109714619D01*
X149628570Y-109714619D02*
X149438094Y-109000333D01*
X149438094Y-109000333D02*
X149247618Y-109714619D01*
X149247618Y-109714619D02*
X149009523Y-108714619D01*
X148104761Y-109714619D02*
X148676189Y-109714619D01*
X148390475Y-109714619D02*
X148390475Y-108714619D01*
X148390475Y-108714619D02*
X148485713Y-108857476D01*
X148485713Y-108857476D02*
X148580951Y-108952714D01*
X148580951Y-108952714D02*
X148676189Y-109000333D01*
%TO.C,R1*%
X164792619Y-114033333D02*
X164316428Y-113700000D01*
X164792619Y-113461905D02*
X163792619Y-113461905D01*
X163792619Y-113461905D02*
X163792619Y-113842857D01*
X163792619Y-113842857D02*
X163840238Y-113938095D01*
X163840238Y-113938095D02*
X163887857Y-113985714D01*
X163887857Y-113985714D02*
X163983095Y-114033333D01*
X163983095Y-114033333D02*
X164125952Y-114033333D01*
X164125952Y-114033333D02*
X164221190Y-113985714D01*
X164221190Y-113985714D02*
X164268809Y-113938095D01*
X164268809Y-113938095D02*
X164316428Y-113842857D01*
X164316428Y-113842857D02*
X164316428Y-113461905D01*
X164792619Y-114985714D02*
X164792619Y-114414286D01*
X164792619Y-114700000D02*
X163792619Y-114700000D01*
X163792619Y-114700000D02*
X163935476Y-114604762D01*
X163935476Y-114604762D02*
X164030714Y-114509524D01*
X164030714Y-114509524D02*
X164078333Y-114414286D01*
%TO.C,R10*%
X178550000Y-86023833D02*
X178783333Y-85690500D01*
X178950000Y-86023833D02*
X178950000Y-85323833D01*
X178950000Y-85323833D02*
X178683333Y-85323833D01*
X178683333Y-85323833D02*
X178616667Y-85357166D01*
X178616667Y-85357166D02*
X178583333Y-85390500D01*
X178583333Y-85390500D02*
X178550000Y-85457166D01*
X178550000Y-85457166D02*
X178550000Y-85557166D01*
X178550000Y-85557166D02*
X178583333Y-85623833D01*
X178583333Y-85623833D02*
X178616667Y-85657166D01*
X178616667Y-85657166D02*
X178683333Y-85690500D01*
X178683333Y-85690500D02*
X178950000Y-85690500D01*
X177883333Y-86023833D02*
X178283333Y-86023833D01*
X178083333Y-86023833D02*
X178083333Y-85323833D01*
X178083333Y-85323833D02*
X178150000Y-85423833D01*
X178150000Y-85423833D02*
X178216667Y-85490500D01*
X178216667Y-85490500D02*
X178283333Y-85523833D01*
X177450000Y-85323833D02*
X177383333Y-85323833D01*
X177383333Y-85323833D02*
X177316666Y-85357166D01*
X177316666Y-85357166D02*
X177283333Y-85390500D01*
X177283333Y-85390500D02*
X177250000Y-85457166D01*
X177250000Y-85457166D02*
X177216666Y-85590500D01*
X177216666Y-85590500D02*
X177216666Y-85757166D01*
X177216666Y-85757166D02*
X177250000Y-85890500D01*
X177250000Y-85890500D02*
X177283333Y-85957166D01*
X177283333Y-85957166D02*
X177316666Y-85990500D01*
X177316666Y-85990500D02*
X177383333Y-86023833D01*
X177383333Y-86023833D02*
X177450000Y-86023833D01*
X177450000Y-86023833D02*
X177516666Y-85990500D01*
X177516666Y-85990500D02*
X177550000Y-85957166D01*
X177550000Y-85957166D02*
X177583333Y-85890500D01*
X177583333Y-85890500D02*
X177616666Y-85757166D01*
X177616666Y-85757166D02*
X177616666Y-85590500D01*
X177616666Y-85590500D02*
X177583333Y-85457166D01*
X177583333Y-85457166D02*
X177550000Y-85390500D01*
X177550000Y-85390500D02*
X177516666Y-85357166D01*
X177516666Y-85357166D02*
X177450000Y-85323833D01*
%TO.C,C2*%
X158307166Y-124883333D02*
X158340500Y-124850000D01*
X158340500Y-124850000D02*
X158373833Y-124750000D01*
X158373833Y-124750000D02*
X158373833Y-124683333D01*
X158373833Y-124683333D02*
X158340500Y-124583333D01*
X158340500Y-124583333D02*
X158273833Y-124516667D01*
X158273833Y-124516667D02*
X158207166Y-124483333D01*
X158207166Y-124483333D02*
X158073833Y-124450000D01*
X158073833Y-124450000D02*
X157973833Y-124450000D01*
X157973833Y-124450000D02*
X157840500Y-124483333D01*
X157840500Y-124483333D02*
X157773833Y-124516667D01*
X157773833Y-124516667D02*
X157707166Y-124583333D01*
X157707166Y-124583333D02*
X157673833Y-124683333D01*
X157673833Y-124683333D02*
X157673833Y-124750000D01*
X157673833Y-124750000D02*
X157707166Y-124850000D01*
X157707166Y-124850000D02*
X157740500Y-124883333D01*
X157740500Y-125150000D02*
X157707166Y-125183333D01*
X157707166Y-125183333D02*
X157673833Y-125250000D01*
X157673833Y-125250000D02*
X157673833Y-125416667D01*
X157673833Y-125416667D02*
X157707166Y-125483333D01*
X157707166Y-125483333D02*
X157740500Y-125516667D01*
X157740500Y-125516667D02*
X157807166Y-125550000D01*
X157807166Y-125550000D02*
X157873833Y-125550000D01*
X157873833Y-125550000D02*
X157973833Y-125516667D01*
X157973833Y-125516667D02*
X158373833Y-125116667D01*
X158373833Y-125116667D02*
X158373833Y-125550000D01*
%TO.C,C21*%
X174436353Y-86700042D02*
X174436353Y-86747183D01*
X174436353Y-86747183D02*
X174483494Y-86841463D01*
X174483494Y-86841463D02*
X174530634Y-86888604D01*
X174530634Y-86888604D02*
X174624915Y-86935744D01*
X174624915Y-86935744D02*
X174719196Y-86935744D01*
X174719196Y-86935744D02*
X174789907Y-86912174D01*
X174789907Y-86912174D02*
X174907758Y-86841463D01*
X174907758Y-86841463D02*
X174978469Y-86770753D01*
X174978469Y-86770753D02*
X175049179Y-86652902D01*
X175049179Y-86652902D02*
X175072750Y-86582191D01*
X175072750Y-86582191D02*
X175072750Y-86487910D01*
X175072750Y-86487910D02*
X175025609Y-86393629D01*
X175025609Y-86393629D02*
X174978469Y-86346489D01*
X174978469Y-86346489D02*
X174884188Y-86299348D01*
X174884188Y-86299348D02*
X174837047Y-86299348D01*
X174648486Y-86110786D02*
X174648486Y-86063646D01*
X174648486Y-86063646D02*
X174624915Y-85992935D01*
X174624915Y-85992935D02*
X174507064Y-85875084D01*
X174507064Y-85875084D02*
X174436353Y-85851514D01*
X174436353Y-85851514D02*
X174389213Y-85851514D01*
X174389213Y-85851514D02*
X174318502Y-85875084D01*
X174318502Y-85875084D02*
X174271362Y-85922225D01*
X174271362Y-85922225D02*
X174224221Y-86016506D01*
X174224221Y-86016506D02*
X174224221Y-86582191D01*
X174224221Y-86582191D02*
X173917809Y-86275778D01*
X173446404Y-85804373D02*
X173729246Y-86087216D01*
X173587825Y-85945795D02*
X174082800Y-85450820D01*
X174082800Y-85450820D02*
X174059230Y-85568671D01*
X174059230Y-85568671D02*
X174059230Y-85662952D01*
X174059230Y-85662952D02*
X174082800Y-85733663D01*
%TO.C,C6*%
X130567380Y-93683333D02*
X130615000Y-93635714D01*
X130615000Y-93635714D02*
X130662619Y-93492857D01*
X130662619Y-93492857D02*
X130662619Y-93397619D01*
X130662619Y-93397619D02*
X130615000Y-93254762D01*
X130615000Y-93254762D02*
X130519761Y-93159524D01*
X130519761Y-93159524D02*
X130424523Y-93111905D01*
X130424523Y-93111905D02*
X130234047Y-93064286D01*
X130234047Y-93064286D02*
X130091190Y-93064286D01*
X130091190Y-93064286D02*
X129900714Y-93111905D01*
X129900714Y-93111905D02*
X129805476Y-93159524D01*
X129805476Y-93159524D02*
X129710238Y-93254762D01*
X129710238Y-93254762D02*
X129662619Y-93397619D01*
X129662619Y-93397619D02*
X129662619Y-93492857D01*
X129662619Y-93492857D02*
X129710238Y-93635714D01*
X129710238Y-93635714D02*
X129757857Y-93683333D01*
X129662619Y-94540476D02*
X129662619Y-94350000D01*
X129662619Y-94350000D02*
X129710238Y-94254762D01*
X129710238Y-94254762D02*
X129757857Y-94207143D01*
X129757857Y-94207143D02*
X129900714Y-94111905D01*
X129900714Y-94111905D02*
X130091190Y-94064286D01*
X130091190Y-94064286D02*
X130472142Y-94064286D01*
X130472142Y-94064286D02*
X130567380Y-94111905D01*
X130567380Y-94111905D02*
X130615000Y-94159524D01*
X130615000Y-94159524D02*
X130662619Y-94254762D01*
X130662619Y-94254762D02*
X130662619Y-94445238D01*
X130662619Y-94445238D02*
X130615000Y-94540476D01*
X130615000Y-94540476D02*
X130567380Y-94588095D01*
X130567380Y-94588095D02*
X130472142Y-94635714D01*
X130472142Y-94635714D02*
X130234047Y-94635714D01*
X130234047Y-94635714D02*
X130138809Y-94588095D01*
X130138809Y-94588095D02*
X130091190Y-94540476D01*
X130091190Y-94540476D02*
X130043571Y-94445238D01*
X130043571Y-94445238D02*
X130043571Y-94254762D01*
X130043571Y-94254762D02*
X130091190Y-94159524D01*
X130091190Y-94159524D02*
X130138809Y-94111905D01*
X130138809Y-94111905D02*
X130234047Y-94064286D01*
%TO.C,R6*%
X161192619Y-121333333D02*
X160716428Y-121000000D01*
X161192619Y-120761905D02*
X160192619Y-120761905D01*
X160192619Y-120761905D02*
X160192619Y-121142857D01*
X160192619Y-121142857D02*
X160240238Y-121238095D01*
X160240238Y-121238095D02*
X160287857Y-121285714D01*
X160287857Y-121285714D02*
X160383095Y-121333333D01*
X160383095Y-121333333D02*
X160525952Y-121333333D01*
X160525952Y-121333333D02*
X160621190Y-121285714D01*
X160621190Y-121285714D02*
X160668809Y-121238095D01*
X160668809Y-121238095D02*
X160716428Y-121142857D01*
X160716428Y-121142857D02*
X160716428Y-120761905D01*
X160192619Y-122190476D02*
X160192619Y-122000000D01*
X160192619Y-122000000D02*
X160240238Y-121904762D01*
X160240238Y-121904762D02*
X160287857Y-121857143D01*
X160287857Y-121857143D02*
X160430714Y-121761905D01*
X160430714Y-121761905D02*
X160621190Y-121714286D01*
X160621190Y-121714286D02*
X161002142Y-121714286D01*
X161002142Y-121714286D02*
X161097380Y-121761905D01*
X161097380Y-121761905D02*
X161145000Y-121809524D01*
X161145000Y-121809524D02*
X161192619Y-121904762D01*
X161192619Y-121904762D02*
X161192619Y-122095238D01*
X161192619Y-122095238D02*
X161145000Y-122190476D01*
X161145000Y-122190476D02*
X161097380Y-122238095D01*
X161097380Y-122238095D02*
X161002142Y-122285714D01*
X161002142Y-122285714D02*
X160764047Y-122285714D01*
X160764047Y-122285714D02*
X160668809Y-122238095D01*
X160668809Y-122238095D02*
X160621190Y-122190476D01*
X160621190Y-122190476D02*
X160573571Y-122095238D01*
X160573571Y-122095238D02*
X160573571Y-121904762D01*
X160573571Y-121904762D02*
X160621190Y-121809524D01*
X160621190Y-121809524D02*
X160668809Y-121761905D01*
X160668809Y-121761905D02*
X160764047Y-121714286D01*
%TO.C,R18*%
X163392619Y-117057142D02*
X162916428Y-116723809D01*
X163392619Y-116485714D02*
X162392619Y-116485714D01*
X162392619Y-116485714D02*
X162392619Y-116866666D01*
X162392619Y-116866666D02*
X162440238Y-116961904D01*
X162440238Y-116961904D02*
X162487857Y-117009523D01*
X162487857Y-117009523D02*
X162583095Y-117057142D01*
X162583095Y-117057142D02*
X162725952Y-117057142D01*
X162725952Y-117057142D02*
X162821190Y-117009523D01*
X162821190Y-117009523D02*
X162868809Y-116961904D01*
X162868809Y-116961904D02*
X162916428Y-116866666D01*
X162916428Y-116866666D02*
X162916428Y-116485714D01*
X163392619Y-118009523D02*
X163392619Y-117438095D01*
X163392619Y-117723809D02*
X162392619Y-117723809D01*
X162392619Y-117723809D02*
X162535476Y-117628571D01*
X162535476Y-117628571D02*
X162630714Y-117533333D01*
X162630714Y-117533333D02*
X162678333Y-117438095D01*
X162821190Y-118580952D02*
X162773571Y-118485714D01*
X162773571Y-118485714D02*
X162725952Y-118438095D01*
X162725952Y-118438095D02*
X162630714Y-118390476D01*
X162630714Y-118390476D02*
X162583095Y-118390476D01*
X162583095Y-118390476D02*
X162487857Y-118438095D01*
X162487857Y-118438095D02*
X162440238Y-118485714D01*
X162440238Y-118485714D02*
X162392619Y-118580952D01*
X162392619Y-118580952D02*
X162392619Y-118771428D01*
X162392619Y-118771428D02*
X162440238Y-118866666D01*
X162440238Y-118866666D02*
X162487857Y-118914285D01*
X162487857Y-118914285D02*
X162583095Y-118961904D01*
X162583095Y-118961904D02*
X162630714Y-118961904D01*
X162630714Y-118961904D02*
X162725952Y-118914285D01*
X162725952Y-118914285D02*
X162773571Y-118866666D01*
X162773571Y-118866666D02*
X162821190Y-118771428D01*
X162821190Y-118771428D02*
X162821190Y-118580952D01*
X162821190Y-118580952D02*
X162868809Y-118485714D01*
X162868809Y-118485714D02*
X162916428Y-118438095D01*
X162916428Y-118438095D02*
X163011666Y-118390476D01*
X163011666Y-118390476D02*
X163202142Y-118390476D01*
X163202142Y-118390476D02*
X163297380Y-118438095D01*
X163297380Y-118438095D02*
X163345000Y-118485714D01*
X163345000Y-118485714D02*
X163392619Y-118580952D01*
X163392619Y-118580952D02*
X163392619Y-118771428D01*
X163392619Y-118771428D02*
X163345000Y-118866666D01*
X163345000Y-118866666D02*
X163297380Y-118914285D01*
X163297380Y-118914285D02*
X163202142Y-118961904D01*
X163202142Y-118961904D02*
X163011666Y-118961904D01*
X163011666Y-118961904D02*
X162916428Y-118914285D01*
X162916428Y-118914285D02*
X162868809Y-118866666D01*
X162868809Y-118866666D02*
X162821190Y-118771428D01*
%TO.C,J1*%
X138333333Y-97412619D02*
X138333333Y-98126904D01*
X138333333Y-98126904D02*
X138380952Y-98269761D01*
X138380952Y-98269761D02*
X138476190Y-98365000D01*
X138476190Y-98365000D02*
X138619047Y-98412619D01*
X138619047Y-98412619D02*
X138714285Y-98412619D01*
X137333333Y-98412619D02*
X137904761Y-98412619D01*
X137619047Y-98412619D02*
X137619047Y-97412619D01*
X137619047Y-97412619D02*
X137714285Y-97555476D01*
X137714285Y-97555476D02*
X137809523Y-97650714D01*
X137809523Y-97650714D02*
X137904761Y-97698333D01*
%TO.C,R16*%
X162432619Y-117057142D02*
X161956428Y-116723809D01*
X162432619Y-116485714D02*
X161432619Y-116485714D01*
X161432619Y-116485714D02*
X161432619Y-116866666D01*
X161432619Y-116866666D02*
X161480238Y-116961904D01*
X161480238Y-116961904D02*
X161527857Y-117009523D01*
X161527857Y-117009523D02*
X161623095Y-117057142D01*
X161623095Y-117057142D02*
X161765952Y-117057142D01*
X161765952Y-117057142D02*
X161861190Y-117009523D01*
X161861190Y-117009523D02*
X161908809Y-116961904D01*
X161908809Y-116961904D02*
X161956428Y-116866666D01*
X161956428Y-116866666D02*
X161956428Y-116485714D01*
X162432619Y-118009523D02*
X162432619Y-117438095D01*
X162432619Y-117723809D02*
X161432619Y-117723809D01*
X161432619Y-117723809D02*
X161575476Y-117628571D01*
X161575476Y-117628571D02*
X161670714Y-117533333D01*
X161670714Y-117533333D02*
X161718333Y-117438095D01*
X161432619Y-118866666D02*
X161432619Y-118676190D01*
X161432619Y-118676190D02*
X161480238Y-118580952D01*
X161480238Y-118580952D02*
X161527857Y-118533333D01*
X161527857Y-118533333D02*
X161670714Y-118438095D01*
X161670714Y-118438095D02*
X161861190Y-118390476D01*
X161861190Y-118390476D02*
X162242142Y-118390476D01*
X162242142Y-118390476D02*
X162337380Y-118438095D01*
X162337380Y-118438095D02*
X162385000Y-118485714D01*
X162385000Y-118485714D02*
X162432619Y-118580952D01*
X162432619Y-118580952D02*
X162432619Y-118771428D01*
X162432619Y-118771428D02*
X162385000Y-118866666D01*
X162385000Y-118866666D02*
X162337380Y-118914285D01*
X162337380Y-118914285D02*
X162242142Y-118961904D01*
X162242142Y-118961904D02*
X162004047Y-118961904D01*
X162004047Y-118961904D02*
X161908809Y-118914285D01*
X161908809Y-118914285D02*
X161861190Y-118866666D01*
X161861190Y-118866666D02*
X161813571Y-118771428D01*
X161813571Y-118771428D02*
X161813571Y-118580952D01*
X161813571Y-118580952D02*
X161861190Y-118485714D01*
X161861190Y-118485714D02*
X161908809Y-118438095D01*
X161908809Y-118438095D02*
X162004047Y-118390476D01*
%TO.C,C9*%
X162257166Y-97983333D02*
X162290500Y-97950000D01*
X162290500Y-97950000D02*
X162323833Y-97850000D01*
X162323833Y-97850000D02*
X162323833Y-97783333D01*
X162323833Y-97783333D02*
X162290500Y-97683333D01*
X162290500Y-97683333D02*
X162223833Y-97616667D01*
X162223833Y-97616667D02*
X162157166Y-97583333D01*
X162157166Y-97583333D02*
X162023833Y-97550000D01*
X162023833Y-97550000D02*
X161923833Y-97550000D01*
X161923833Y-97550000D02*
X161790500Y-97583333D01*
X161790500Y-97583333D02*
X161723833Y-97616667D01*
X161723833Y-97616667D02*
X161657166Y-97683333D01*
X161657166Y-97683333D02*
X161623833Y-97783333D01*
X161623833Y-97783333D02*
X161623833Y-97850000D01*
X161623833Y-97850000D02*
X161657166Y-97950000D01*
X161657166Y-97950000D02*
X161690500Y-97983333D01*
X162323833Y-98316667D02*
X162323833Y-98450000D01*
X162323833Y-98450000D02*
X162290500Y-98516667D01*
X162290500Y-98516667D02*
X162257166Y-98550000D01*
X162257166Y-98550000D02*
X162157166Y-98616667D01*
X162157166Y-98616667D02*
X162023833Y-98650000D01*
X162023833Y-98650000D02*
X161757166Y-98650000D01*
X161757166Y-98650000D02*
X161690500Y-98616667D01*
X161690500Y-98616667D02*
X161657166Y-98583333D01*
X161657166Y-98583333D02*
X161623833Y-98516667D01*
X161623833Y-98516667D02*
X161623833Y-98383333D01*
X161623833Y-98383333D02*
X161657166Y-98316667D01*
X161657166Y-98316667D02*
X161690500Y-98283333D01*
X161690500Y-98283333D02*
X161757166Y-98250000D01*
X161757166Y-98250000D02*
X161923833Y-98250000D01*
X161923833Y-98250000D02*
X161990500Y-98283333D01*
X161990500Y-98283333D02*
X162023833Y-98316667D01*
X162023833Y-98316667D02*
X162057166Y-98383333D01*
X162057166Y-98383333D02*
X162057166Y-98516667D01*
X162057166Y-98516667D02*
X162023833Y-98583333D01*
X162023833Y-98583333D02*
X161990500Y-98616667D01*
X161990500Y-98616667D02*
X161923833Y-98650000D01*
%TO.C,R2*%
X183592619Y-114033333D02*
X183116428Y-113700000D01*
X183592619Y-113461905D02*
X182592619Y-113461905D01*
X182592619Y-113461905D02*
X182592619Y-113842857D01*
X182592619Y-113842857D02*
X182640238Y-113938095D01*
X182640238Y-113938095D02*
X182687857Y-113985714D01*
X182687857Y-113985714D02*
X182783095Y-114033333D01*
X182783095Y-114033333D02*
X182925952Y-114033333D01*
X182925952Y-114033333D02*
X183021190Y-113985714D01*
X183021190Y-113985714D02*
X183068809Y-113938095D01*
X183068809Y-113938095D02*
X183116428Y-113842857D01*
X183116428Y-113842857D02*
X183116428Y-113461905D01*
X182687857Y-114414286D02*
X182640238Y-114461905D01*
X182640238Y-114461905D02*
X182592619Y-114557143D01*
X182592619Y-114557143D02*
X182592619Y-114795238D01*
X182592619Y-114795238D02*
X182640238Y-114890476D01*
X182640238Y-114890476D02*
X182687857Y-114938095D01*
X182687857Y-114938095D02*
X182783095Y-114985714D01*
X182783095Y-114985714D02*
X182878333Y-114985714D01*
X182878333Y-114985714D02*
X183021190Y-114938095D01*
X183021190Y-114938095D02*
X183592619Y-114366667D01*
X183592619Y-114366667D02*
X183592619Y-114985714D01*
%TO.C,U4*%
X159312619Y-87838095D02*
X160122142Y-87838095D01*
X160122142Y-87838095D02*
X160217380Y-87885714D01*
X160217380Y-87885714D02*
X160265000Y-87933333D01*
X160265000Y-87933333D02*
X160312619Y-88028571D01*
X160312619Y-88028571D02*
X160312619Y-88219047D01*
X160312619Y-88219047D02*
X160265000Y-88314285D01*
X160265000Y-88314285D02*
X160217380Y-88361904D01*
X160217380Y-88361904D02*
X160122142Y-88409523D01*
X160122142Y-88409523D02*
X159312619Y-88409523D01*
X159645952Y-89314285D02*
X160312619Y-89314285D01*
X159265000Y-89076190D02*
X159979285Y-88838095D01*
X159979285Y-88838095D02*
X159979285Y-89457142D01*
%TO.C,R15*%
X184242857Y-135898252D02*
X184576190Y-135422061D01*
X184814285Y-135898252D02*
X184814285Y-134898252D01*
X184814285Y-134898252D02*
X184433333Y-134898252D01*
X184433333Y-134898252D02*
X184338095Y-134945871D01*
X184338095Y-134945871D02*
X184290476Y-134993490D01*
X184290476Y-134993490D02*
X184242857Y-135088728D01*
X184242857Y-135088728D02*
X184242857Y-135231585D01*
X184242857Y-135231585D02*
X184290476Y-135326823D01*
X184290476Y-135326823D02*
X184338095Y-135374442D01*
X184338095Y-135374442D02*
X184433333Y-135422061D01*
X184433333Y-135422061D02*
X184814285Y-135422061D01*
X183290476Y-135898252D02*
X183861904Y-135898252D01*
X183576190Y-135898252D02*
X183576190Y-134898252D01*
X183576190Y-134898252D02*
X183671428Y-135041109D01*
X183671428Y-135041109D02*
X183766666Y-135136347D01*
X183766666Y-135136347D02*
X183861904Y-135183966D01*
X182385714Y-134898252D02*
X182861904Y-134898252D01*
X182861904Y-134898252D02*
X182909523Y-135374442D01*
X182909523Y-135374442D02*
X182861904Y-135326823D01*
X182861904Y-135326823D02*
X182766666Y-135279204D01*
X182766666Y-135279204D02*
X182528571Y-135279204D01*
X182528571Y-135279204D02*
X182433333Y-135326823D01*
X182433333Y-135326823D02*
X182385714Y-135374442D01*
X182385714Y-135374442D02*
X182338095Y-135469680D01*
X182338095Y-135469680D02*
X182338095Y-135707775D01*
X182338095Y-135707775D02*
X182385714Y-135803013D01*
X182385714Y-135803013D02*
X182433333Y-135850633D01*
X182433333Y-135850633D02*
X182528571Y-135898252D01*
X182528571Y-135898252D02*
X182766666Y-135898252D01*
X182766666Y-135898252D02*
X182861904Y-135850633D01*
X182861904Y-135850633D02*
X182909523Y-135803013D01*
%TO.C,C19*%
X158950000Y-94257166D02*
X158983333Y-94290500D01*
X158983333Y-94290500D02*
X159083333Y-94323833D01*
X159083333Y-94323833D02*
X159150000Y-94323833D01*
X159150000Y-94323833D02*
X159250000Y-94290500D01*
X159250000Y-94290500D02*
X159316667Y-94223833D01*
X159316667Y-94223833D02*
X159350000Y-94157166D01*
X159350000Y-94157166D02*
X159383333Y-94023833D01*
X159383333Y-94023833D02*
X159383333Y-93923833D01*
X159383333Y-93923833D02*
X159350000Y-93790500D01*
X159350000Y-93790500D02*
X159316667Y-93723833D01*
X159316667Y-93723833D02*
X159250000Y-93657166D01*
X159250000Y-93657166D02*
X159150000Y-93623833D01*
X159150000Y-93623833D02*
X159083333Y-93623833D01*
X159083333Y-93623833D02*
X158983333Y-93657166D01*
X158983333Y-93657166D02*
X158950000Y-93690500D01*
X158283333Y-94323833D02*
X158683333Y-94323833D01*
X158483333Y-94323833D02*
X158483333Y-93623833D01*
X158483333Y-93623833D02*
X158550000Y-93723833D01*
X158550000Y-93723833D02*
X158616667Y-93790500D01*
X158616667Y-93790500D02*
X158683333Y-93823833D01*
X157950000Y-94323833D02*
X157816666Y-94323833D01*
X157816666Y-94323833D02*
X157750000Y-94290500D01*
X157750000Y-94290500D02*
X157716666Y-94257166D01*
X157716666Y-94257166D02*
X157650000Y-94157166D01*
X157650000Y-94157166D02*
X157616666Y-94023833D01*
X157616666Y-94023833D02*
X157616666Y-93757166D01*
X157616666Y-93757166D02*
X157650000Y-93690500D01*
X157650000Y-93690500D02*
X157683333Y-93657166D01*
X157683333Y-93657166D02*
X157750000Y-93623833D01*
X157750000Y-93623833D02*
X157883333Y-93623833D01*
X157883333Y-93623833D02*
X157950000Y-93657166D01*
X157950000Y-93657166D02*
X157983333Y-93690500D01*
X157983333Y-93690500D02*
X158016666Y-93757166D01*
X158016666Y-93757166D02*
X158016666Y-93923833D01*
X158016666Y-93923833D02*
X157983333Y-93990500D01*
X157983333Y-93990500D02*
X157950000Y-94023833D01*
X157950000Y-94023833D02*
X157883333Y-94057166D01*
X157883333Y-94057166D02*
X157750000Y-94057166D01*
X157750000Y-94057166D02*
X157683333Y-94023833D01*
X157683333Y-94023833D02*
X157650000Y-93990500D01*
X157650000Y-93990500D02*
X157616666Y-93923833D01*
%TO.C,R23*%
X164423833Y-123049999D02*
X164090500Y-122816666D01*
X164423833Y-122649999D02*
X163723833Y-122649999D01*
X163723833Y-122649999D02*
X163723833Y-122916666D01*
X163723833Y-122916666D02*
X163757166Y-122983333D01*
X163757166Y-122983333D02*
X163790500Y-123016666D01*
X163790500Y-123016666D02*
X163857166Y-123049999D01*
X163857166Y-123049999D02*
X163957166Y-123049999D01*
X163957166Y-123049999D02*
X164023833Y-123016666D01*
X164023833Y-123016666D02*
X164057166Y-122983333D01*
X164057166Y-122983333D02*
X164090500Y-122916666D01*
X164090500Y-122916666D02*
X164090500Y-122649999D01*
X163790500Y-123316666D02*
X163757166Y-123349999D01*
X163757166Y-123349999D02*
X163723833Y-123416666D01*
X163723833Y-123416666D02*
X163723833Y-123583333D01*
X163723833Y-123583333D02*
X163757166Y-123649999D01*
X163757166Y-123649999D02*
X163790500Y-123683333D01*
X163790500Y-123683333D02*
X163857166Y-123716666D01*
X163857166Y-123716666D02*
X163923833Y-123716666D01*
X163923833Y-123716666D02*
X164023833Y-123683333D01*
X164023833Y-123683333D02*
X164423833Y-123283333D01*
X164423833Y-123283333D02*
X164423833Y-123716666D01*
X163723833Y-123950000D02*
X163723833Y-124383333D01*
X163723833Y-124383333D02*
X163990500Y-124150000D01*
X163990500Y-124150000D02*
X163990500Y-124250000D01*
X163990500Y-124250000D02*
X164023833Y-124316666D01*
X164023833Y-124316666D02*
X164057166Y-124350000D01*
X164057166Y-124350000D02*
X164123833Y-124383333D01*
X164123833Y-124383333D02*
X164290500Y-124383333D01*
X164290500Y-124383333D02*
X164357166Y-124350000D01*
X164357166Y-124350000D02*
X164390500Y-124316666D01*
X164390500Y-124316666D02*
X164423833Y-124250000D01*
X164423833Y-124250000D02*
X164423833Y-124050000D01*
X164423833Y-124050000D02*
X164390500Y-123983333D01*
X164390500Y-123983333D02*
X164357166Y-123950000D01*
%TO.C,U2*%
X141761904Y-126162619D02*
X141761904Y-126972142D01*
X141761904Y-126972142D02*
X141714285Y-127067380D01*
X141714285Y-127067380D02*
X141666666Y-127115000D01*
X141666666Y-127115000D02*
X141571428Y-127162619D01*
X141571428Y-127162619D02*
X141380952Y-127162619D01*
X141380952Y-127162619D02*
X141285714Y-127115000D01*
X141285714Y-127115000D02*
X141238095Y-127067380D01*
X141238095Y-127067380D02*
X141190476Y-126972142D01*
X141190476Y-126972142D02*
X141190476Y-126162619D01*
X140761904Y-126257857D02*
X140714285Y-126210238D01*
X140714285Y-126210238D02*
X140619047Y-126162619D01*
X140619047Y-126162619D02*
X140380952Y-126162619D01*
X140380952Y-126162619D02*
X140285714Y-126210238D01*
X140285714Y-126210238D02*
X140238095Y-126257857D01*
X140238095Y-126257857D02*
X140190476Y-126353095D01*
X140190476Y-126353095D02*
X140190476Y-126448333D01*
X140190476Y-126448333D02*
X140238095Y-126591190D01*
X140238095Y-126591190D02*
X140809523Y-127162619D01*
X140809523Y-127162619D02*
X140190476Y-127162619D01*
%TO.C,C18*%
X149893904Y-92585714D02*
X149932000Y-92547618D01*
X149932000Y-92547618D02*
X149970095Y-92433333D01*
X149970095Y-92433333D02*
X149970095Y-92357142D01*
X149970095Y-92357142D02*
X149932000Y-92242856D01*
X149932000Y-92242856D02*
X149855809Y-92166666D01*
X149855809Y-92166666D02*
X149779619Y-92128571D01*
X149779619Y-92128571D02*
X149627238Y-92090475D01*
X149627238Y-92090475D02*
X149512952Y-92090475D01*
X149512952Y-92090475D02*
X149360571Y-92128571D01*
X149360571Y-92128571D02*
X149284380Y-92166666D01*
X149284380Y-92166666D02*
X149208190Y-92242856D01*
X149208190Y-92242856D02*
X149170095Y-92357142D01*
X149170095Y-92357142D02*
X149170095Y-92433333D01*
X149170095Y-92433333D02*
X149208190Y-92547618D01*
X149208190Y-92547618D02*
X149246285Y-92585714D01*
X149970095Y-93347618D02*
X149970095Y-92890475D01*
X149970095Y-93119047D02*
X149170095Y-93119047D01*
X149170095Y-93119047D02*
X149284380Y-93042856D01*
X149284380Y-93042856D02*
X149360571Y-92966666D01*
X149360571Y-92966666D02*
X149398666Y-92890475D01*
X149512952Y-93804761D02*
X149474857Y-93728571D01*
X149474857Y-93728571D02*
X149436761Y-93690476D01*
X149436761Y-93690476D02*
X149360571Y-93652380D01*
X149360571Y-93652380D02*
X149322476Y-93652380D01*
X149322476Y-93652380D02*
X149246285Y-93690476D01*
X149246285Y-93690476D02*
X149208190Y-93728571D01*
X149208190Y-93728571D02*
X149170095Y-93804761D01*
X149170095Y-93804761D02*
X149170095Y-93957142D01*
X149170095Y-93957142D02*
X149208190Y-94033333D01*
X149208190Y-94033333D02*
X149246285Y-94071428D01*
X149246285Y-94071428D02*
X149322476Y-94109523D01*
X149322476Y-94109523D02*
X149360571Y-94109523D01*
X149360571Y-94109523D02*
X149436761Y-94071428D01*
X149436761Y-94071428D02*
X149474857Y-94033333D01*
X149474857Y-94033333D02*
X149512952Y-93957142D01*
X149512952Y-93957142D02*
X149512952Y-93804761D01*
X149512952Y-93804761D02*
X149551047Y-93728571D01*
X149551047Y-93728571D02*
X149589142Y-93690476D01*
X149589142Y-93690476D02*
X149665333Y-93652380D01*
X149665333Y-93652380D02*
X149817714Y-93652380D01*
X149817714Y-93652380D02*
X149893904Y-93690476D01*
X149893904Y-93690476D02*
X149932000Y-93728571D01*
X149932000Y-93728571D02*
X149970095Y-93804761D01*
X149970095Y-93804761D02*
X149970095Y-93957142D01*
X149970095Y-93957142D02*
X149932000Y-94033333D01*
X149932000Y-94033333D02*
X149893904Y-94071428D01*
X149893904Y-94071428D02*
X149817714Y-94109523D01*
X149817714Y-94109523D02*
X149665333Y-94109523D01*
X149665333Y-94109523D02*
X149589142Y-94071428D01*
X149589142Y-94071428D02*
X149551047Y-94033333D01*
X149551047Y-94033333D02*
X149512952Y-93957142D01*
%TO.C,U8*%
X139961904Y-100062619D02*
X139961904Y-100872142D01*
X139961904Y-100872142D02*
X139914285Y-100967380D01*
X139914285Y-100967380D02*
X139866666Y-101015000D01*
X139866666Y-101015000D02*
X139771428Y-101062619D01*
X139771428Y-101062619D02*
X139580952Y-101062619D01*
X139580952Y-101062619D02*
X139485714Y-101015000D01*
X139485714Y-101015000D02*
X139438095Y-100967380D01*
X139438095Y-100967380D02*
X139390476Y-100872142D01*
X139390476Y-100872142D02*
X139390476Y-100062619D01*
X138771428Y-100491190D02*
X138866666Y-100443571D01*
X138866666Y-100443571D02*
X138914285Y-100395952D01*
X138914285Y-100395952D02*
X138961904Y-100300714D01*
X138961904Y-100300714D02*
X138961904Y-100253095D01*
X138961904Y-100253095D02*
X138914285Y-100157857D01*
X138914285Y-100157857D02*
X138866666Y-100110238D01*
X138866666Y-100110238D02*
X138771428Y-100062619D01*
X138771428Y-100062619D02*
X138580952Y-100062619D01*
X138580952Y-100062619D02*
X138485714Y-100110238D01*
X138485714Y-100110238D02*
X138438095Y-100157857D01*
X138438095Y-100157857D02*
X138390476Y-100253095D01*
X138390476Y-100253095D02*
X138390476Y-100300714D01*
X138390476Y-100300714D02*
X138438095Y-100395952D01*
X138438095Y-100395952D02*
X138485714Y-100443571D01*
X138485714Y-100443571D02*
X138580952Y-100491190D01*
X138580952Y-100491190D02*
X138771428Y-100491190D01*
X138771428Y-100491190D02*
X138866666Y-100538809D01*
X138866666Y-100538809D02*
X138914285Y-100586428D01*
X138914285Y-100586428D02*
X138961904Y-100681666D01*
X138961904Y-100681666D02*
X138961904Y-100872142D01*
X138961904Y-100872142D02*
X138914285Y-100967380D01*
X138914285Y-100967380D02*
X138866666Y-101015000D01*
X138866666Y-101015000D02*
X138771428Y-101062619D01*
X138771428Y-101062619D02*
X138580952Y-101062619D01*
X138580952Y-101062619D02*
X138485714Y-101015000D01*
X138485714Y-101015000D02*
X138438095Y-100967380D01*
X138438095Y-100967380D02*
X138390476Y-100872142D01*
X138390476Y-100872142D02*
X138390476Y-100681666D01*
X138390476Y-100681666D02*
X138438095Y-100586428D01*
X138438095Y-100586428D02*
X138485714Y-100538809D01*
X138485714Y-100538809D02*
X138580952Y-100491190D01*
%TO.C,R9*%
X171623833Y-96483333D02*
X171290500Y-96250000D01*
X171623833Y-96083333D02*
X170923833Y-96083333D01*
X170923833Y-96083333D02*
X170923833Y-96350000D01*
X170923833Y-96350000D02*
X170957166Y-96416667D01*
X170957166Y-96416667D02*
X170990500Y-96450000D01*
X170990500Y-96450000D02*
X171057166Y-96483333D01*
X171057166Y-96483333D02*
X171157166Y-96483333D01*
X171157166Y-96483333D02*
X171223833Y-96450000D01*
X171223833Y-96450000D02*
X171257166Y-96416667D01*
X171257166Y-96416667D02*
X171290500Y-96350000D01*
X171290500Y-96350000D02*
X171290500Y-96083333D01*
X171623833Y-96816667D02*
X171623833Y-96950000D01*
X171623833Y-96950000D02*
X171590500Y-97016667D01*
X171590500Y-97016667D02*
X171557166Y-97050000D01*
X171557166Y-97050000D02*
X171457166Y-97116667D01*
X171457166Y-97116667D02*
X171323833Y-97150000D01*
X171323833Y-97150000D02*
X171057166Y-97150000D01*
X171057166Y-97150000D02*
X170990500Y-97116667D01*
X170990500Y-97116667D02*
X170957166Y-97083333D01*
X170957166Y-97083333D02*
X170923833Y-97016667D01*
X170923833Y-97016667D02*
X170923833Y-96883333D01*
X170923833Y-96883333D02*
X170957166Y-96816667D01*
X170957166Y-96816667D02*
X170990500Y-96783333D01*
X170990500Y-96783333D02*
X171057166Y-96750000D01*
X171057166Y-96750000D02*
X171223833Y-96750000D01*
X171223833Y-96750000D02*
X171290500Y-96783333D01*
X171290500Y-96783333D02*
X171323833Y-96816667D01*
X171323833Y-96816667D02*
X171357166Y-96883333D01*
X171357166Y-96883333D02*
X171357166Y-97016667D01*
X171357166Y-97016667D02*
X171323833Y-97083333D01*
X171323833Y-97083333D02*
X171290500Y-97116667D01*
X171290500Y-97116667D02*
X171223833Y-97150000D01*
%TO.C,TP_SW3*%
X170490475Y-112112619D02*
X169919047Y-112112619D01*
X170204761Y-113112619D02*
X170204761Y-112112619D01*
X169585713Y-113112619D02*
X169585713Y-112112619D01*
X169585713Y-112112619D02*
X169204761Y-112112619D01*
X169204761Y-112112619D02*
X169109523Y-112160238D01*
X169109523Y-112160238D02*
X169061904Y-112207857D01*
X169061904Y-112207857D02*
X169014285Y-112303095D01*
X169014285Y-112303095D02*
X169014285Y-112445952D01*
X169014285Y-112445952D02*
X169061904Y-112541190D01*
X169061904Y-112541190D02*
X169109523Y-112588809D01*
X169109523Y-112588809D02*
X169204761Y-112636428D01*
X169204761Y-112636428D02*
X169585713Y-112636428D01*
X168823809Y-113207857D02*
X168061904Y-113207857D01*
X167871427Y-113065000D02*
X167728570Y-113112619D01*
X167728570Y-113112619D02*
X167490475Y-113112619D01*
X167490475Y-113112619D02*
X167395237Y-113065000D01*
X167395237Y-113065000D02*
X167347618Y-113017380D01*
X167347618Y-113017380D02*
X167299999Y-112922142D01*
X167299999Y-112922142D02*
X167299999Y-112826904D01*
X167299999Y-112826904D02*
X167347618Y-112731666D01*
X167347618Y-112731666D02*
X167395237Y-112684047D01*
X167395237Y-112684047D02*
X167490475Y-112636428D01*
X167490475Y-112636428D02*
X167680951Y-112588809D01*
X167680951Y-112588809D02*
X167776189Y-112541190D01*
X167776189Y-112541190D02*
X167823808Y-112493571D01*
X167823808Y-112493571D02*
X167871427Y-112398333D01*
X167871427Y-112398333D02*
X167871427Y-112303095D01*
X167871427Y-112303095D02*
X167823808Y-112207857D01*
X167823808Y-112207857D02*
X167776189Y-112160238D01*
X167776189Y-112160238D02*
X167680951Y-112112619D01*
X167680951Y-112112619D02*
X167442856Y-112112619D01*
X167442856Y-112112619D02*
X167299999Y-112160238D01*
X166966665Y-112112619D02*
X166728570Y-113112619D01*
X166728570Y-113112619D02*
X166538094Y-112398333D01*
X166538094Y-112398333D02*
X166347618Y-113112619D01*
X166347618Y-113112619D02*
X166109523Y-112112619D01*
X165823808Y-112112619D02*
X165204761Y-112112619D01*
X165204761Y-112112619D02*
X165538094Y-112493571D01*
X165538094Y-112493571D02*
X165395237Y-112493571D01*
X165395237Y-112493571D02*
X165299999Y-112541190D01*
X165299999Y-112541190D02*
X165252380Y-112588809D01*
X165252380Y-112588809D02*
X165204761Y-112684047D01*
X165204761Y-112684047D02*
X165204761Y-112922142D01*
X165204761Y-112922142D02*
X165252380Y-113017380D01*
X165252380Y-113017380D02*
X165299999Y-113065000D01*
X165299999Y-113065000D02*
X165395237Y-113112619D01*
X165395237Y-113112619D02*
X165680951Y-113112619D01*
X165680951Y-113112619D02*
X165776189Y-113065000D01*
X165776189Y-113065000D02*
X165823808Y-113017380D01*
%TO.C,R21*%
X163323833Y-123049999D02*
X162990500Y-122816666D01*
X163323833Y-122649999D02*
X162623833Y-122649999D01*
X162623833Y-122649999D02*
X162623833Y-122916666D01*
X162623833Y-122916666D02*
X162657166Y-122983333D01*
X162657166Y-122983333D02*
X162690500Y-123016666D01*
X162690500Y-123016666D02*
X162757166Y-123049999D01*
X162757166Y-123049999D02*
X162857166Y-123049999D01*
X162857166Y-123049999D02*
X162923833Y-123016666D01*
X162923833Y-123016666D02*
X162957166Y-122983333D01*
X162957166Y-122983333D02*
X162990500Y-122916666D01*
X162990500Y-122916666D02*
X162990500Y-122649999D01*
X162690500Y-123316666D02*
X162657166Y-123349999D01*
X162657166Y-123349999D02*
X162623833Y-123416666D01*
X162623833Y-123416666D02*
X162623833Y-123583333D01*
X162623833Y-123583333D02*
X162657166Y-123649999D01*
X162657166Y-123649999D02*
X162690500Y-123683333D01*
X162690500Y-123683333D02*
X162757166Y-123716666D01*
X162757166Y-123716666D02*
X162823833Y-123716666D01*
X162823833Y-123716666D02*
X162923833Y-123683333D01*
X162923833Y-123683333D02*
X163323833Y-123283333D01*
X163323833Y-123283333D02*
X163323833Y-123716666D01*
X163323833Y-124383333D02*
X163323833Y-123983333D01*
X163323833Y-124183333D02*
X162623833Y-124183333D01*
X162623833Y-124183333D02*
X162723833Y-124116666D01*
X162723833Y-124116666D02*
X162790500Y-124050000D01*
X162790500Y-124050000D02*
X162823833Y-123983333D01*
%TO.C,R22*%
X177632619Y-120067142D02*
X177156428Y-119733809D01*
X177632619Y-119495714D02*
X176632619Y-119495714D01*
X176632619Y-119495714D02*
X176632619Y-119876666D01*
X176632619Y-119876666D02*
X176680238Y-119971904D01*
X176680238Y-119971904D02*
X176727857Y-120019523D01*
X176727857Y-120019523D02*
X176823095Y-120067142D01*
X176823095Y-120067142D02*
X176965952Y-120067142D01*
X176965952Y-120067142D02*
X177061190Y-120019523D01*
X177061190Y-120019523D02*
X177108809Y-119971904D01*
X177108809Y-119971904D02*
X177156428Y-119876666D01*
X177156428Y-119876666D02*
X177156428Y-119495714D01*
X176727857Y-120448095D02*
X176680238Y-120495714D01*
X176680238Y-120495714D02*
X176632619Y-120590952D01*
X176632619Y-120590952D02*
X176632619Y-120829047D01*
X176632619Y-120829047D02*
X176680238Y-120924285D01*
X176680238Y-120924285D02*
X176727857Y-120971904D01*
X176727857Y-120971904D02*
X176823095Y-121019523D01*
X176823095Y-121019523D02*
X176918333Y-121019523D01*
X176918333Y-121019523D02*
X177061190Y-120971904D01*
X177061190Y-120971904D02*
X177632619Y-120400476D01*
X177632619Y-120400476D02*
X177632619Y-121019523D01*
X176727857Y-121400476D02*
X176680238Y-121448095D01*
X176680238Y-121448095D02*
X176632619Y-121543333D01*
X176632619Y-121543333D02*
X176632619Y-121781428D01*
X176632619Y-121781428D02*
X176680238Y-121876666D01*
X176680238Y-121876666D02*
X176727857Y-121924285D01*
X176727857Y-121924285D02*
X176823095Y-121971904D01*
X176823095Y-121971904D02*
X176918333Y-121971904D01*
X176918333Y-121971904D02*
X177061190Y-121924285D01*
X177061190Y-121924285D02*
X177632619Y-121352857D01*
X177632619Y-121352857D02*
X177632619Y-121971904D01*
%TO.C,R8*%
X145862619Y-90833333D02*
X145386428Y-90500000D01*
X145862619Y-90261905D02*
X144862619Y-90261905D01*
X144862619Y-90261905D02*
X144862619Y-90642857D01*
X144862619Y-90642857D02*
X144910238Y-90738095D01*
X144910238Y-90738095D02*
X144957857Y-90785714D01*
X144957857Y-90785714D02*
X145053095Y-90833333D01*
X145053095Y-90833333D02*
X145195952Y-90833333D01*
X145195952Y-90833333D02*
X145291190Y-90785714D01*
X145291190Y-90785714D02*
X145338809Y-90738095D01*
X145338809Y-90738095D02*
X145386428Y-90642857D01*
X145386428Y-90642857D02*
X145386428Y-90261905D01*
X145291190Y-91404762D02*
X145243571Y-91309524D01*
X145243571Y-91309524D02*
X145195952Y-91261905D01*
X145195952Y-91261905D02*
X145100714Y-91214286D01*
X145100714Y-91214286D02*
X145053095Y-91214286D01*
X145053095Y-91214286D02*
X144957857Y-91261905D01*
X144957857Y-91261905D02*
X144910238Y-91309524D01*
X144910238Y-91309524D02*
X144862619Y-91404762D01*
X144862619Y-91404762D02*
X144862619Y-91595238D01*
X144862619Y-91595238D02*
X144910238Y-91690476D01*
X144910238Y-91690476D02*
X144957857Y-91738095D01*
X144957857Y-91738095D02*
X145053095Y-91785714D01*
X145053095Y-91785714D02*
X145100714Y-91785714D01*
X145100714Y-91785714D02*
X145195952Y-91738095D01*
X145195952Y-91738095D02*
X145243571Y-91690476D01*
X145243571Y-91690476D02*
X145291190Y-91595238D01*
X145291190Y-91595238D02*
X145291190Y-91404762D01*
X145291190Y-91404762D02*
X145338809Y-91309524D01*
X145338809Y-91309524D02*
X145386428Y-91261905D01*
X145386428Y-91261905D02*
X145481666Y-91214286D01*
X145481666Y-91214286D02*
X145672142Y-91214286D01*
X145672142Y-91214286D02*
X145767380Y-91261905D01*
X145767380Y-91261905D02*
X145815000Y-91309524D01*
X145815000Y-91309524D02*
X145862619Y-91404762D01*
X145862619Y-91404762D02*
X145862619Y-91595238D01*
X145862619Y-91595238D02*
X145815000Y-91690476D01*
X145815000Y-91690476D02*
X145767380Y-91738095D01*
X145767380Y-91738095D02*
X145672142Y-91785714D01*
X145672142Y-91785714D02*
X145481666Y-91785714D01*
X145481666Y-91785714D02*
X145386428Y-91738095D01*
X145386428Y-91738095D02*
X145338809Y-91690476D01*
X145338809Y-91690476D02*
X145291190Y-91595238D01*
%TO.C,C8*%
X162543904Y-83816667D02*
X162582000Y-83778571D01*
X162582000Y-83778571D02*
X162620095Y-83664286D01*
X162620095Y-83664286D02*
X162620095Y-83588095D01*
X162620095Y-83588095D02*
X162582000Y-83473809D01*
X162582000Y-83473809D02*
X162505809Y-83397619D01*
X162505809Y-83397619D02*
X162429619Y-83359524D01*
X162429619Y-83359524D02*
X162277238Y-83321428D01*
X162277238Y-83321428D02*
X162162952Y-83321428D01*
X162162952Y-83321428D02*
X162010571Y-83359524D01*
X162010571Y-83359524D02*
X161934380Y-83397619D01*
X161934380Y-83397619D02*
X161858190Y-83473809D01*
X161858190Y-83473809D02*
X161820095Y-83588095D01*
X161820095Y-83588095D02*
X161820095Y-83664286D01*
X161820095Y-83664286D02*
X161858190Y-83778571D01*
X161858190Y-83778571D02*
X161896285Y-83816667D01*
X162162952Y-84273809D02*
X162124857Y-84197619D01*
X162124857Y-84197619D02*
X162086761Y-84159524D01*
X162086761Y-84159524D02*
X162010571Y-84121428D01*
X162010571Y-84121428D02*
X161972476Y-84121428D01*
X161972476Y-84121428D02*
X161896285Y-84159524D01*
X161896285Y-84159524D02*
X161858190Y-84197619D01*
X161858190Y-84197619D02*
X161820095Y-84273809D01*
X161820095Y-84273809D02*
X161820095Y-84426190D01*
X161820095Y-84426190D02*
X161858190Y-84502381D01*
X161858190Y-84502381D02*
X161896285Y-84540476D01*
X161896285Y-84540476D02*
X161972476Y-84578571D01*
X161972476Y-84578571D02*
X162010571Y-84578571D01*
X162010571Y-84578571D02*
X162086761Y-84540476D01*
X162086761Y-84540476D02*
X162124857Y-84502381D01*
X162124857Y-84502381D02*
X162162952Y-84426190D01*
X162162952Y-84426190D02*
X162162952Y-84273809D01*
X162162952Y-84273809D02*
X162201047Y-84197619D01*
X162201047Y-84197619D02*
X162239142Y-84159524D01*
X162239142Y-84159524D02*
X162315333Y-84121428D01*
X162315333Y-84121428D02*
X162467714Y-84121428D01*
X162467714Y-84121428D02*
X162543904Y-84159524D01*
X162543904Y-84159524D02*
X162582000Y-84197619D01*
X162582000Y-84197619D02*
X162620095Y-84273809D01*
X162620095Y-84273809D02*
X162620095Y-84426190D01*
X162620095Y-84426190D02*
X162582000Y-84502381D01*
X162582000Y-84502381D02*
X162543904Y-84540476D01*
X162543904Y-84540476D02*
X162467714Y-84578571D01*
X162467714Y-84578571D02*
X162315333Y-84578571D01*
X162315333Y-84578571D02*
X162239142Y-84540476D01*
X162239142Y-84540476D02*
X162201047Y-84502381D01*
X162201047Y-84502381D02*
X162162952Y-84426190D01*
%TO.C,C11*%
X167717166Y-85449999D02*
X167750500Y-85416666D01*
X167750500Y-85416666D02*
X167783833Y-85316666D01*
X167783833Y-85316666D02*
X167783833Y-85249999D01*
X167783833Y-85249999D02*
X167750500Y-85149999D01*
X167750500Y-85149999D02*
X167683833Y-85083333D01*
X167683833Y-85083333D02*
X167617166Y-85049999D01*
X167617166Y-85049999D02*
X167483833Y-85016666D01*
X167483833Y-85016666D02*
X167383833Y-85016666D01*
X167383833Y-85016666D02*
X167250500Y-85049999D01*
X167250500Y-85049999D02*
X167183833Y-85083333D01*
X167183833Y-85083333D02*
X167117166Y-85149999D01*
X167117166Y-85149999D02*
X167083833Y-85249999D01*
X167083833Y-85249999D02*
X167083833Y-85316666D01*
X167083833Y-85316666D02*
X167117166Y-85416666D01*
X167117166Y-85416666D02*
X167150500Y-85449999D01*
X167783833Y-86116666D02*
X167783833Y-85716666D01*
X167783833Y-85916666D02*
X167083833Y-85916666D01*
X167083833Y-85916666D02*
X167183833Y-85849999D01*
X167183833Y-85849999D02*
X167250500Y-85783333D01*
X167250500Y-85783333D02*
X167283833Y-85716666D01*
X167783833Y-86783333D02*
X167783833Y-86383333D01*
X167783833Y-86583333D02*
X167083833Y-86583333D01*
X167083833Y-86583333D02*
X167183833Y-86516666D01*
X167183833Y-86516666D02*
X167250500Y-86450000D01*
X167250500Y-86450000D02*
X167283833Y-86383333D01*
%TO.C,U1*%
X170261904Y-113882619D02*
X170261904Y-114692142D01*
X170261904Y-114692142D02*
X170214285Y-114787380D01*
X170214285Y-114787380D02*
X170166666Y-114835000D01*
X170166666Y-114835000D02*
X170071428Y-114882619D01*
X170071428Y-114882619D02*
X169880952Y-114882619D01*
X169880952Y-114882619D02*
X169785714Y-114835000D01*
X169785714Y-114835000D02*
X169738095Y-114787380D01*
X169738095Y-114787380D02*
X169690476Y-114692142D01*
X169690476Y-114692142D02*
X169690476Y-113882619D01*
X168690476Y-114882619D02*
X169261904Y-114882619D01*
X168976190Y-114882619D02*
X168976190Y-113882619D01*
X168976190Y-113882619D02*
X169071428Y-114025476D01*
X169071428Y-114025476D02*
X169166666Y-114120714D01*
X169166666Y-114120714D02*
X169261904Y-114168333D01*
D10*
%TO.C,SW6*%
X158031667Y-101475000D02*
X158174524Y-101427380D01*
X158174524Y-101427380D02*
X158412619Y-101427380D01*
X158412619Y-101427380D02*
X158507857Y-101475000D01*
X158507857Y-101475000D02*
X158555476Y-101522619D01*
X158555476Y-101522619D02*
X158603095Y-101617857D01*
X158603095Y-101617857D02*
X158603095Y-101713095D01*
X158603095Y-101713095D02*
X158555476Y-101808333D01*
X158555476Y-101808333D02*
X158507857Y-101855952D01*
X158507857Y-101855952D02*
X158412619Y-101903571D01*
X158412619Y-101903571D02*
X158222143Y-101951190D01*
X158222143Y-101951190D02*
X158126905Y-101998809D01*
X158126905Y-101998809D02*
X158079286Y-102046428D01*
X158079286Y-102046428D02*
X158031667Y-102141666D01*
X158031667Y-102141666D02*
X158031667Y-102236904D01*
X158031667Y-102236904D02*
X158079286Y-102332142D01*
X158079286Y-102332142D02*
X158126905Y-102379761D01*
X158126905Y-102379761D02*
X158222143Y-102427380D01*
X158222143Y-102427380D02*
X158460238Y-102427380D01*
X158460238Y-102427380D02*
X158603095Y-102379761D01*
X158936429Y-102427380D02*
X159174524Y-101427380D01*
X159174524Y-101427380D02*
X159365000Y-102141666D01*
X159365000Y-102141666D02*
X159555476Y-101427380D01*
X159555476Y-101427380D02*
X159793572Y-102427380D01*
X160603095Y-102427380D02*
X160412619Y-102427380D01*
X160412619Y-102427380D02*
X160317381Y-102379761D01*
X160317381Y-102379761D02*
X160269762Y-102332142D01*
X160269762Y-102332142D02*
X160174524Y-102189285D01*
X160174524Y-102189285D02*
X160126905Y-101998809D01*
X160126905Y-101998809D02*
X160126905Y-101617857D01*
X160126905Y-101617857D02*
X160174524Y-101522619D01*
X160174524Y-101522619D02*
X160222143Y-101475000D01*
X160222143Y-101475000D02*
X160317381Y-101427380D01*
X160317381Y-101427380D02*
X160507857Y-101427380D01*
X160507857Y-101427380D02*
X160603095Y-101475000D01*
X160603095Y-101475000D02*
X160650714Y-101522619D01*
X160650714Y-101522619D02*
X160698333Y-101617857D01*
X160698333Y-101617857D02*
X160698333Y-101855952D01*
X160698333Y-101855952D02*
X160650714Y-101951190D01*
X160650714Y-101951190D02*
X160603095Y-101998809D01*
X160603095Y-101998809D02*
X160507857Y-102046428D01*
X160507857Y-102046428D02*
X160317381Y-102046428D01*
X160317381Y-102046428D02*
X160222143Y-101998809D01*
X160222143Y-101998809D02*
X160174524Y-101951190D01*
X160174524Y-101951190D02*
X160126905Y-101855952D01*
D12*
%TO.C,C7*%
X161157166Y-97983333D02*
X161190500Y-97950000D01*
X161190500Y-97950000D02*
X161223833Y-97850000D01*
X161223833Y-97850000D02*
X161223833Y-97783333D01*
X161223833Y-97783333D02*
X161190500Y-97683333D01*
X161190500Y-97683333D02*
X161123833Y-97616667D01*
X161123833Y-97616667D02*
X161057166Y-97583333D01*
X161057166Y-97583333D02*
X160923833Y-97550000D01*
X160923833Y-97550000D02*
X160823833Y-97550000D01*
X160823833Y-97550000D02*
X160690500Y-97583333D01*
X160690500Y-97583333D02*
X160623833Y-97616667D01*
X160623833Y-97616667D02*
X160557166Y-97683333D01*
X160557166Y-97683333D02*
X160523833Y-97783333D01*
X160523833Y-97783333D02*
X160523833Y-97850000D01*
X160523833Y-97850000D02*
X160557166Y-97950000D01*
X160557166Y-97950000D02*
X160590500Y-97983333D01*
X160523833Y-98216667D02*
X160523833Y-98683333D01*
X160523833Y-98683333D02*
X161223833Y-98383333D01*
%TO.C,U5*%
X179761904Y-125868252D02*
X179761904Y-126677775D01*
X179761904Y-126677775D02*
X179714285Y-126773013D01*
X179714285Y-126773013D02*
X179666666Y-126820633D01*
X179666666Y-126820633D02*
X179571428Y-126868252D01*
X179571428Y-126868252D02*
X179380952Y-126868252D01*
X179380952Y-126868252D02*
X179285714Y-126820633D01*
X179285714Y-126820633D02*
X179238095Y-126773013D01*
X179238095Y-126773013D02*
X179190476Y-126677775D01*
X179190476Y-126677775D02*
X179190476Y-125868252D01*
X178238095Y-125868252D02*
X178714285Y-125868252D01*
X178714285Y-125868252D02*
X178761904Y-126344442D01*
X178761904Y-126344442D02*
X178714285Y-126296823D01*
X178714285Y-126296823D02*
X178619047Y-126249204D01*
X178619047Y-126249204D02*
X178380952Y-126249204D01*
X178380952Y-126249204D02*
X178285714Y-126296823D01*
X178285714Y-126296823D02*
X178238095Y-126344442D01*
X178238095Y-126344442D02*
X178190476Y-126439680D01*
X178190476Y-126439680D02*
X178190476Y-126677775D01*
X178190476Y-126677775D02*
X178238095Y-126773013D01*
X178238095Y-126773013D02*
X178285714Y-126820633D01*
X178285714Y-126820633D02*
X178380952Y-126868252D01*
X178380952Y-126868252D02*
X178619047Y-126868252D01*
X178619047Y-126868252D02*
X178714285Y-126820633D01*
X178714285Y-126820633D02*
X178761904Y-126773013D01*
%TO.C,TP_SW2*%
X175790475Y-99914619D02*
X175219047Y-99914619D01*
X175504761Y-100914619D02*
X175504761Y-99914619D01*
X174885713Y-100914619D02*
X174885713Y-99914619D01*
X174885713Y-99914619D02*
X174504761Y-99914619D01*
X174504761Y-99914619D02*
X174409523Y-99962238D01*
X174409523Y-99962238D02*
X174361904Y-100009857D01*
X174361904Y-100009857D02*
X174314285Y-100105095D01*
X174314285Y-100105095D02*
X174314285Y-100247952D01*
X174314285Y-100247952D02*
X174361904Y-100343190D01*
X174361904Y-100343190D02*
X174409523Y-100390809D01*
X174409523Y-100390809D02*
X174504761Y-100438428D01*
X174504761Y-100438428D02*
X174885713Y-100438428D01*
X174123809Y-101009857D02*
X173361904Y-101009857D01*
X173171427Y-100867000D02*
X173028570Y-100914619D01*
X173028570Y-100914619D02*
X172790475Y-100914619D01*
X172790475Y-100914619D02*
X172695237Y-100867000D01*
X172695237Y-100867000D02*
X172647618Y-100819380D01*
X172647618Y-100819380D02*
X172599999Y-100724142D01*
X172599999Y-100724142D02*
X172599999Y-100628904D01*
X172599999Y-100628904D02*
X172647618Y-100533666D01*
X172647618Y-100533666D02*
X172695237Y-100486047D01*
X172695237Y-100486047D02*
X172790475Y-100438428D01*
X172790475Y-100438428D02*
X172980951Y-100390809D01*
X172980951Y-100390809D02*
X173076189Y-100343190D01*
X173076189Y-100343190D02*
X173123808Y-100295571D01*
X173123808Y-100295571D02*
X173171427Y-100200333D01*
X173171427Y-100200333D02*
X173171427Y-100105095D01*
X173171427Y-100105095D02*
X173123808Y-100009857D01*
X173123808Y-100009857D02*
X173076189Y-99962238D01*
X173076189Y-99962238D02*
X172980951Y-99914619D01*
X172980951Y-99914619D02*
X172742856Y-99914619D01*
X172742856Y-99914619D02*
X172599999Y-99962238D01*
X172266665Y-99914619D02*
X172028570Y-100914619D01*
X172028570Y-100914619D02*
X171838094Y-100200333D01*
X171838094Y-100200333D02*
X171647618Y-100914619D01*
X171647618Y-100914619D02*
X171409523Y-99914619D01*
X171076189Y-100009857D02*
X171028570Y-99962238D01*
X171028570Y-99962238D02*
X170933332Y-99914619D01*
X170933332Y-99914619D02*
X170695237Y-99914619D01*
X170695237Y-99914619D02*
X170599999Y-99962238D01*
X170599999Y-99962238D02*
X170552380Y-100009857D01*
X170552380Y-100009857D02*
X170504761Y-100105095D01*
X170504761Y-100105095D02*
X170504761Y-100200333D01*
X170504761Y-100200333D02*
X170552380Y-100343190D01*
X170552380Y-100343190D02*
X171123808Y-100914619D01*
X171123808Y-100914619D02*
X170504761Y-100914619D01*
%TO.C,Y1*%
X170142419Y-86628984D02*
X169906717Y-86864686D01*
X170566683Y-86534703D02*
X170142419Y-86628984D01*
X170142419Y-86628984D02*
X170236700Y-86204720D01*
X169317461Y-86275431D02*
X169600304Y-86558273D01*
X169458882Y-86416852D02*
X169953857Y-85921877D01*
X169953857Y-85921877D02*
X169930287Y-86039728D01*
X169930287Y-86039728D02*
X169930287Y-86134009D01*
X169930287Y-86134009D02*
X169953857Y-86204720D01*
%TO.C,R19*%
X176392619Y-120067142D02*
X175916428Y-119733809D01*
X176392619Y-119495714D02*
X175392619Y-119495714D01*
X175392619Y-119495714D02*
X175392619Y-119876666D01*
X175392619Y-119876666D02*
X175440238Y-119971904D01*
X175440238Y-119971904D02*
X175487857Y-120019523D01*
X175487857Y-120019523D02*
X175583095Y-120067142D01*
X175583095Y-120067142D02*
X175725952Y-120067142D01*
X175725952Y-120067142D02*
X175821190Y-120019523D01*
X175821190Y-120019523D02*
X175868809Y-119971904D01*
X175868809Y-119971904D02*
X175916428Y-119876666D01*
X175916428Y-119876666D02*
X175916428Y-119495714D01*
X176392619Y-121019523D02*
X176392619Y-120448095D01*
X176392619Y-120733809D02*
X175392619Y-120733809D01*
X175392619Y-120733809D02*
X175535476Y-120638571D01*
X175535476Y-120638571D02*
X175630714Y-120543333D01*
X175630714Y-120543333D02*
X175678333Y-120448095D01*
X176392619Y-121495714D02*
X176392619Y-121686190D01*
X176392619Y-121686190D02*
X176345000Y-121781428D01*
X176345000Y-121781428D02*
X176297380Y-121829047D01*
X176297380Y-121829047D02*
X176154523Y-121924285D01*
X176154523Y-121924285D02*
X175964047Y-121971904D01*
X175964047Y-121971904D02*
X175583095Y-121971904D01*
X175583095Y-121971904D02*
X175487857Y-121924285D01*
X175487857Y-121924285D02*
X175440238Y-121876666D01*
X175440238Y-121876666D02*
X175392619Y-121781428D01*
X175392619Y-121781428D02*
X175392619Y-121590952D01*
X175392619Y-121590952D02*
X175440238Y-121495714D01*
X175440238Y-121495714D02*
X175487857Y-121448095D01*
X175487857Y-121448095D02*
X175583095Y-121400476D01*
X175583095Y-121400476D02*
X175821190Y-121400476D01*
X175821190Y-121400476D02*
X175916428Y-121448095D01*
X175916428Y-121448095D02*
X175964047Y-121495714D01*
X175964047Y-121495714D02*
X176011666Y-121590952D01*
X176011666Y-121590952D02*
X176011666Y-121781428D01*
X176011666Y-121781428D02*
X175964047Y-121876666D01*
X175964047Y-121876666D02*
X175916428Y-121924285D01*
X175916428Y-121924285D02*
X175821190Y-121971904D01*
%TO.C,C14*%
X173050000Y-92457166D02*
X173083333Y-92490500D01*
X173083333Y-92490500D02*
X173183333Y-92523833D01*
X173183333Y-92523833D02*
X173250000Y-92523833D01*
X173250000Y-92523833D02*
X173350000Y-92490500D01*
X173350000Y-92490500D02*
X173416667Y-92423833D01*
X173416667Y-92423833D02*
X173450000Y-92357166D01*
X173450000Y-92357166D02*
X173483333Y-92223833D01*
X173483333Y-92223833D02*
X173483333Y-92123833D01*
X173483333Y-92123833D02*
X173450000Y-91990500D01*
X173450000Y-91990500D02*
X173416667Y-91923833D01*
X173416667Y-91923833D02*
X173350000Y-91857166D01*
X173350000Y-91857166D02*
X173250000Y-91823833D01*
X173250000Y-91823833D02*
X173183333Y-91823833D01*
X173183333Y-91823833D02*
X173083333Y-91857166D01*
X173083333Y-91857166D02*
X173050000Y-91890500D01*
X172383333Y-92523833D02*
X172783333Y-92523833D01*
X172583333Y-92523833D02*
X172583333Y-91823833D01*
X172583333Y-91823833D02*
X172650000Y-91923833D01*
X172650000Y-91923833D02*
X172716667Y-91990500D01*
X172716667Y-91990500D02*
X172783333Y-92023833D01*
X171783333Y-92057166D02*
X171783333Y-92523833D01*
X171950000Y-91790500D02*
X172116666Y-92290500D01*
X172116666Y-92290500D02*
X171683333Y-92290500D01*
%TO.C,R11*%
X158723833Y-97049999D02*
X158390500Y-96816666D01*
X158723833Y-96649999D02*
X158023833Y-96649999D01*
X158023833Y-96649999D02*
X158023833Y-96916666D01*
X158023833Y-96916666D02*
X158057166Y-96983333D01*
X158057166Y-96983333D02*
X158090500Y-97016666D01*
X158090500Y-97016666D02*
X158157166Y-97049999D01*
X158157166Y-97049999D02*
X158257166Y-97049999D01*
X158257166Y-97049999D02*
X158323833Y-97016666D01*
X158323833Y-97016666D02*
X158357166Y-96983333D01*
X158357166Y-96983333D02*
X158390500Y-96916666D01*
X158390500Y-96916666D02*
X158390500Y-96649999D01*
X158723833Y-97716666D02*
X158723833Y-97316666D01*
X158723833Y-97516666D02*
X158023833Y-97516666D01*
X158023833Y-97516666D02*
X158123833Y-97449999D01*
X158123833Y-97449999D02*
X158190500Y-97383333D01*
X158190500Y-97383333D02*
X158223833Y-97316666D01*
X158723833Y-98383333D02*
X158723833Y-97983333D01*
X158723833Y-98183333D02*
X158023833Y-98183333D01*
X158023833Y-98183333D02*
X158123833Y-98116666D01*
X158123833Y-98116666D02*
X158190500Y-98050000D01*
X158190500Y-98050000D02*
X158223833Y-97983333D01*
%TO.C,C12*%
X165957166Y-97949999D02*
X165990500Y-97916666D01*
X165990500Y-97916666D02*
X166023833Y-97816666D01*
X166023833Y-97816666D02*
X166023833Y-97749999D01*
X166023833Y-97749999D02*
X165990500Y-97649999D01*
X165990500Y-97649999D02*
X165923833Y-97583333D01*
X165923833Y-97583333D02*
X165857166Y-97549999D01*
X165857166Y-97549999D02*
X165723833Y-97516666D01*
X165723833Y-97516666D02*
X165623833Y-97516666D01*
X165623833Y-97516666D02*
X165490500Y-97549999D01*
X165490500Y-97549999D02*
X165423833Y-97583333D01*
X165423833Y-97583333D02*
X165357166Y-97649999D01*
X165357166Y-97649999D02*
X165323833Y-97749999D01*
X165323833Y-97749999D02*
X165323833Y-97816666D01*
X165323833Y-97816666D02*
X165357166Y-97916666D01*
X165357166Y-97916666D02*
X165390500Y-97949999D01*
X166023833Y-98616666D02*
X166023833Y-98216666D01*
X166023833Y-98416666D02*
X165323833Y-98416666D01*
X165323833Y-98416666D02*
X165423833Y-98349999D01*
X165423833Y-98349999D02*
X165490500Y-98283333D01*
X165490500Y-98283333D02*
X165523833Y-98216666D01*
X165390500Y-98883333D02*
X165357166Y-98916666D01*
X165357166Y-98916666D02*
X165323833Y-98983333D01*
X165323833Y-98983333D02*
X165323833Y-99150000D01*
X165323833Y-99150000D02*
X165357166Y-99216666D01*
X165357166Y-99216666D02*
X165390500Y-99250000D01*
X165390500Y-99250000D02*
X165457166Y-99283333D01*
X165457166Y-99283333D02*
X165523833Y-99283333D01*
X165523833Y-99283333D02*
X165623833Y-99250000D01*
X165623833Y-99250000D02*
X166023833Y-98850000D01*
X166023833Y-98850000D02*
X166023833Y-99283333D01*
%TO.C,C17*%
X160157166Y-83949999D02*
X160190500Y-83916666D01*
X160190500Y-83916666D02*
X160223833Y-83816666D01*
X160223833Y-83816666D02*
X160223833Y-83749999D01*
X160223833Y-83749999D02*
X160190500Y-83649999D01*
X160190500Y-83649999D02*
X160123833Y-83583333D01*
X160123833Y-83583333D02*
X160057166Y-83549999D01*
X160057166Y-83549999D02*
X159923833Y-83516666D01*
X159923833Y-83516666D02*
X159823833Y-83516666D01*
X159823833Y-83516666D02*
X159690500Y-83549999D01*
X159690500Y-83549999D02*
X159623833Y-83583333D01*
X159623833Y-83583333D02*
X159557166Y-83649999D01*
X159557166Y-83649999D02*
X159523833Y-83749999D01*
X159523833Y-83749999D02*
X159523833Y-83816666D01*
X159523833Y-83816666D02*
X159557166Y-83916666D01*
X159557166Y-83916666D02*
X159590500Y-83949999D01*
X160223833Y-84616666D02*
X160223833Y-84216666D01*
X160223833Y-84416666D02*
X159523833Y-84416666D01*
X159523833Y-84416666D02*
X159623833Y-84349999D01*
X159623833Y-84349999D02*
X159690500Y-84283333D01*
X159690500Y-84283333D02*
X159723833Y-84216666D01*
X159523833Y-84850000D02*
X159523833Y-85316666D01*
X159523833Y-85316666D02*
X160223833Y-85016666D01*
%TO.C,C15*%
X173050000Y-93557166D02*
X173083333Y-93590500D01*
X173083333Y-93590500D02*
X173183333Y-93623833D01*
X173183333Y-93623833D02*
X173250000Y-93623833D01*
X173250000Y-93623833D02*
X173350000Y-93590500D01*
X173350000Y-93590500D02*
X173416667Y-93523833D01*
X173416667Y-93523833D02*
X173450000Y-93457166D01*
X173450000Y-93457166D02*
X173483333Y-93323833D01*
X173483333Y-93323833D02*
X173483333Y-93223833D01*
X173483333Y-93223833D02*
X173450000Y-93090500D01*
X173450000Y-93090500D02*
X173416667Y-93023833D01*
X173416667Y-93023833D02*
X173350000Y-92957166D01*
X173350000Y-92957166D02*
X173250000Y-92923833D01*
X173250000Y-92923833D02*
X173183333Y-92923833D01*
X173183333Y-92923833D02*
X173083333Y-92957166D01*
X173083333Y-92957166D02*
X173050000Y-92990500D01*
X172383333Y-93623833D02*
X172783333Y-93623833D01*
X172583333Y-93623833D02*
X172583333Y-92923833D01*
X172583333Y-92923833D02*
X172650000Y-93023833D01*
X172650000Y-93023833D02*
X172716667Y-93090500D01*
X172716667Y-93090500D02*
X172783333Y-93123833D01*
X171750000Y-92923833D02*
X172083333Y-92923833D01*
X172083333Y-92923833D02*
X172116666Y-93257166D01*
X172116666Y-93257166D02*
X172083333Y-93223833D01*
X172083333Y-93223833D02*
X172016666Y-93190500D01*
X172016666Y-93190500D02*
X171850000Y-93190500D01*
X171850000Y-93190500D02*
X171783333Y-93223833D01*
X171783333Y-93223833D02*
X171750000Y-93257166D01*
X171750000Y-93257166D02*
X171716666Y-93323833D01*
X171716666Y-93323833D02*
X171716666Y-93490500D01*
X171716666Y-93490500D02*
X171750000Y-93557166D01*
X171750000Y-93557166D02*
X171783333Y-93590500D01*
X171783333Y-93590500D02*
X171850000Y-93623833D01*
X171850000Y-93623833D02*
X172016666Y-93623833D01*
X172016666Y-93623833D02*
X172083333Y-93590500D01*
X172083333Y-93590500D02*
X172116666Y-93557166D01*
%TO.C,R13*%
X178450000Y-89323833D02*
X178683333Y-88990500D01*
X178850000Y-89323833D02*
X178850000Y-88623833D01*
X178850000Y-88623833D02*
X178583333Y-88623833D01*
X178583333Y-88623833D02*
X178516667Y-88657166D01*
X178516667Y-88657166D02*
X178483333Y-88690500D01*
X178483333Y-88690500D02*
X178450000Y-88757166D01*
X178450000Y-88757166D02*
X178450000Y-88857166D01*
X178450000Y-88857166D02*
X178483333Y-88923833D01*
X178483333Y-88923833D02*
X178516667Y-88957166D01*
X178516667Y-88957166D02*
X178583333Y-88990500D01*
X178583333Y-88990500D02*
X178850000Y-88990500D01*
X177783333Y-89323833D02*
X178183333Y-89323833D01*
X177983333Y-89323833D02*
X177983333Y-88623833D01*
X177983333Y-88623833D02*
X178050000Y-88723833D01*
X178050000Y-88723833D02*
X178116667Y-88790500D01*
X178116667Y-88790500D02*
X178183333Y-88823833D01*
X177550000Y-88623833D02*
X177116666Y-88623833D01*
X177116666Y-88623833D02*
X177350000Y-88890500D01*
X177350000Y-88890500D02*
X177250000Y-88890500D01*
X177250000Y-88890500D02*
X177183333Y-88923833D01*
X177183333Y-88923833D02*
X177150000Y-88957166D01*
X177150000Y-88957166D02*
X177116666Y-89023833D01*
X177116666Y-89023833D02*
X177116666Y-89190500D01*
X177116666Y-89190500D02*
X177150000Y-89257166D01*
X177150000Y-89257166D02*
X177183333Y-89290500D01*
X177183333Y-89290500D02*
X177250000Y-89323833D01*
X177250000Y-89323833D02*
X177450000Y-89323833D01*
X177450000Y-89323833D02*
X177516666Y-89290500D01*
X177516666Y-89290500D02*
X177550000Y-89257166D01*
%TO.C,C16*%
X158950000Y-91257166D02*
X158983333Y-91290500D01*
X158983333Y-91290500D02*
X159083333Y-91323833D01*
X159083333Y-91323833D02*
X159150000Y-91323833D01*
X159150000Y-91323833D02*
X159250000Y-91290500D01*
X159250000Y-91290500D02*
X159316667Y-91223833D01*
X159316667Y-91223833D02*
X159350000Y-91157166D01*
X159350000Y-91157166D02*
X159383333Y-91023833D01*
X159383333Y-91023833D02*
X159383333Y-90923833D01*
X159383333Y-90923833D02*
X159350000Y-90790500D01*
X159350000Y-90790500D02*
X159316667Y-90723833D01*
X159316667Y-90723833D02*
X159250000Y-90657166D01*
X159250000Y-90657166D02*
X159150000Y-90623833D01*
X159150000Y-90623833D02*
X159083333Y-90623833D01*
X159083333Y-90623833D02*
X158983333Y-90657166D01*
X158983333Y-90657166D02*
X158950000Y-90690500D01*
X158283333Y-91323833D02*
X158683333Y-91323833D01*
X158483333Y-91323833D02*
X158483333Y-90623833D01*
X158483333Y-90623833D02*
X158550000Y-90723833D01*
X158550000Y-90723833D02*
X158616667Y-90790500D01*
X158616667Y-90790500D02*
X158683333Y-90823833D01*
X157683333Y-90623833D02*
X157816666Y-90623833D01*
X157816666Y-90623833D02*
X157883333Y-90657166D01*
X157883333Y-90657166D02*
X157916666Y-90690500D01*
X157916666Y-90690500D02*
X157983333Y-90790500D01*
X157983333Y-90790500D02*
X158016666Y-90923833D01*
X158016666Y-90923833D02*
X158016666Y-91190500D01*
X158016666Y-91190500D02*
X157983333Y-91257166D01*
X157983333Y-91257166D02*
X157950000Y-91290500D01*
X157950000Y-91290500D02*
X157883333Y-91323833D01*
X157883333Y-91323833D02*
X157750000Y-91323833D01*
X157750000Y-91323833D02*
X157683333Y-91290500D01*
X157683333Y-91290500D02*
X157650000Y-91257166D01*
X157650000Y-91257166D02*
X157616666Y-91190500D01*
X157616666Y-91190500D02*
X157616666Y-91023833D01*
X157616666Y-91023833D02*
X157650000Y-90957166D01*
X157650000Y-90957166D02*
X157683333Y-90923833D01*
X157683333Y-90923833D02*
X157750000Y-90890500D01*
X157750000Y-90890500D02*
X157883333Y-90890500D01*
X157883333Y-90890500D02*
X157950000Y-90923833D01*
X157950000Y-90923833D02*
X157983333Y-90957166D01*
X157983333Y-90957166D02*
X158016666Y-91023833D01*
%TO.C,R3*%
X146166666Y-135892619D02*
X146499999Y-135416428D01*
X146738094Y-135892619D02*
X146738094Y-134892619D01*
X146738094Y-134892619D02*
X146357142Y-134892619D01*
X146357142Y-134892619D02*
X146261904Y-134940238D01*
X146261904Y-134940238D02*
X146214285Y-134987857D01*
X146214285Y-134987857D02*
X146166666Y-135083095D01*
X146166666Y-135083095D02*
X146166666Y-135225952D01*
X146166666Y-135225952D02*
X146214285Y-135321190D01*
X146214285Y-135321190D02*
X146261904Y-135368809D01*
X146261904Y-135368809D02*
X146357142Y-135416428D01*
X146357142Y-135416428D02*
X146738094Y-135416428D01*
X145833332Y-134892619D02*
X145214285Y-134892619D01*
X145214285Y-134892619D02*
X145547618Y-135273571D01*
X145547618Y-135273571D02*
X145404761Y-135273571D01*
X145404761Y-135273571D02*
X145309523Y-135321190D01*
X145309523Y-135321190D02*
X145261904Y-135368809D01*
X145261904Y-135368809D02*
X145214285Y-135464047D01*
X145214285Y-135464047D02*
X145214285Y-135702142D01*
X145214285Y-135702142D02*
X145261904Y-135797380D01*
X145261904Y-135797380D02*
X145309523Y-135845000D01*
X145309523Y-135845000D02*
X145404761Y-135892619D01*
X145404761Y-135892619D02*
X145690475Y-135892619D01*
X145690475Y-135892619D02*
X145785713Y-135845000D01*
X145785713Y-135845000D02*
X145833332Y-135797380D01*
%TO.C,C5*%
X151347380Y-97733333D02*
X151395000Y-97685714D01*
X151395000Y-97685714D02*
X151442619Y-97542857D01*
X151442619Y-97542857D02*
X151442619Y-97447619D01*
X151442619Y-97447619D02*
X151395000Y-97304762D01*
X151395000Y-97304762D02*
X151299761Y-97209524D01*
X151299761Y-97209524D02*
X151204523Y-97161905D01*
X151204523Y-97161905D02*
X151014047Y-97114286D01*
X151014047Y-97114286D02*
X150871190Y-97114286D01*
X150871190Y-97114286D02*
X150680714Y-97161905D01*
X150680714Y-97161905D02*
X150585476Y-97209524D01*
X150585476Y-97209524D02*
X150490238Y-97304762D01*
X150490238Y-97304762D02*
X150442619Y-97447619D01*
X150442619Y-97447619D02*
X150442619Y-97542857D01*
X150442619Y-97542857D02*
X150490238Y-97685714D01*
X150490238Y-97685714D02*
X150537857Y-97733333D01*
X150442619Y-98638095D02*
X150442619Y-98161905D01*
X150442619Y-98161905D02*
X150918809Y-98114286D01*
X150918809Y-98114286D02*
X150871190Y-98161905D01*
X150871190Y-98161905D02*
X150823571Y-98257143D01*
X150823571Y-98257143D02*
X150823571Y-98495238D01*
X150823571Y-98495238D02*
X150871190Y-98590476D01*
X150871190Y-98590476D02*
X150918809Y-98638095D01*
X150918809Y-98638095D02*
X151014047Y-98685714D01*
X151014047Y-98685714D02*
X151252142Y-98685714D01*
X151252142Y-98685714D02*
X151347380Y-98638095D01*
X151347380Y-98638095D02*
X151395000Y-98590476D01*
X151395000Y-98590476D02*
X151442619Y-98495238D01*
X151442619Y-98495238D02*
X151442619Y-98257143D01*
X151442619Y-98257143D02*
X151395000Y-98161905D01*
X151395000Y-98161905D02*
X151347380Y-98114286D01*
%TO.C,U7*%
X144561904Y-103437619D02*
X144561904Y-104247142D01*
X144561904Y-104247142D02*
X144514285Y-104342380D01*
X144514285Y-104342380D02*
X144466666Y-104390000D01*
X144466666Y-104390000D02*
X144371428Y-104437619D01*
X144371428Y-104437619D02*
X144180952Y-104437619D01*
X144180952Y-104437619D02*
X144085714Y-104390000D01*
X144085714Y-104390000D02*
X144038095Y-104342380D01*
X144038095Y-104342380D02*
X143990476Y-104247142D01*
X143990476Y-104247142D02*
X143990476Y-103437619D01*
X143609523Y-103437619D02*
X142942857Y-103437619D01*
X142942857Y-103437619D02*
X143371428Y-104437619D01*
%TO.C,R24*%
X176532619Y-120057142D02*
X176056428Y-119723809D01*
X176532619Y-119485714D02*
X175532619Y-119485714D01*
X175532619Y-119485714D02*
X175532619Y-119866666D01*
X175532619Y-119866666D02*
X175580238Y-119961904D01*
X175580238Y-119961904D02*
X175627857Y-120009523D01*
X175627857Y-120009523D02*
X175723095Y-120057142D01*
X175723095Y-120057142D02*
X175865952Y-120057142D01*
X175865952Y-120057142D02*
X175961190Y-120009523D01*
X175961190Y-120009523D02*
X176008809Y-119961904D01*
X176008809Y-119961904D02*
X176056428Y-119866666D01*
X176056428Y-119866666D02*
X176056428Y-119485714D01*
X175627857Y-120438095D02*
X175580238Y-120485714D01*
X175580238Y-120485714D02*
X175532619Y-120580952D01*
X175532619Y-120580952D02*
X175532619Y-120819047D01*
X175532619Y-120819047D02*
X175580238Y-120914285D01*
X175580238Y-120914285D02*
X175627857Y-120961904D01*
X175627857Y-120961904D02*
X175723095Y-121009523D01*
X175723095Y-121009523D02*
X175818333Y-121009523D01*
X175818333Y-121009523D02*
X175961190Y-120961904D01*
X175961190Y-120961904D02*
X176532619Y-120390476D01*
X176532619Y-120390476D02*
X176532619Y-121009523D01*
X175865952Y-121866666D02*
X176532619Y-121866666D01*
X175485000Y-121628571D02*
X176199285Y-121390476D01*
X176199285Y-121390476D02*
X176199285Y-122009523D01*
%TO.C,R17*%
X164632619Y-117057142D02*
X164156428Y-116723809D01*
X164632619Y-116485714D02*
X163632619Y-116485714D01*
X163632619Y-116485714D02*
X163632619Y-116866666D01*
X163632619Y-116866666D02*
X163680238Y-116961904D01*
X163680238Y-116961904D02*
X163727857Y-117009523D01*
X163727857Y-117009523D02*
X163823095Y-117057142D01*
X163823095Y-117057142D02*
X163965952Y-117057142D01*
X163965952Y-117057142D02*
X164061190Y-117009523D01*
X164061190Y-117009523D02*
X164108809Y-116961904D01*
X164108809Y-116961904D02*
X164156428Y-116866666D01*
X164156428Y-116866666D02*
X164156428Y-116485714D01*
X164632619Y-118009523D02*
X164632619Y-117438095D01*
X164632619Y-117723809D02*
X163632619Y-117723809D01*
X163632619Y-117723809D02*
X163775476Y-117628571D01*
X163775476Y-117628571D02*
X163870714Y-117533333D01*
X163870714Y-117533333D02*
X163918333Y-117438095D01*
X163632619Y-118342857D02*
X163632619Y-119009523D01*
X163632619Y-119009523D02*
X164632619Y-118580952D01*
%TO.C,U6*%
X150202619Y-89238095D02*
X151012142Y-89238095D01*
X151012142Y-89238095D02*
X151107380Y-89285714D01*
X151107380Y-89285714D02*
X151155000Y-89333333D01*
X151155000Y-89333333D02*
X151202619Y-89428571D01*
X151202619Y-89428571D02*
X151202619Y-89619047D01*
X151202619Y-89619047D02*
X151155000Y-89714285D01*
X151155000Y-89714285D02*
X151107380Y-89761904D01*
X151107380Y-89761904D02*
X151012142Y-89809523D01*
X151012142Y-89809523D02*
X150202619Y-89809523D01*
X150202619Y-90714285D02*
X150202619Y-90523809D01*
X150202619Y-90523809D02*
X150250238Y-90428571D01*
X150250238Y-90428571D02*
X150297857Y-90380952D01*
X150297857Y-90380952D02*
X150440714Y-90285714D01*
X150440714Y-90285714D02*
X150631190Y-90238095D01*
X150631190Y-90238095D02*
X151012142Y-90238095D01*
X151012142Y-90238095D02*
X151107380Y-90285714D01*
X151107380Y-90285714D02*
X151155000Y-90333333D01*
X151155000Y-90333333D02*
X151202619Y-90428571D01*
X151202619Y-90428571D02*
X151202619Y-90619047D01*
X151202619Y-90619047D02*
X151155000Y-90714285D01*
X151155000Y-90714285D02*
X151107380Y-90761904D01*
X151107380Y-90761904D02*
X151012142Y-90809523D01*
X151012142Y-90809523D02*
X150774047Y-90809523D01*
X150774047Y-90809523D02*
X150678809Y-90761904D01*
X150678809Y-90761904D02*
X150631190Y-90714285D01*
X150631190Y-90714285D02*
X150583571Y-90619047D01*
X150583571Y-90619047D02*
X150583571Y-90428571D01*
X150583571Y-90428571D02*
X150631190Y-90333333D01*
X150631190Y-90333333D02*
X150678809Y-90285714D01*
X150678809Y-90285714D02*
X150774047Y-90238095D01*
%TO.C,R20*%
X177492619Y-120067142D02*
X177016428Y-119733809D01*
X177492619Y-119495714D02*
X176492619Y-119495714D01*
X176492619Y-119495714D02*
X176492619Y-119876666D01*
X176492619Y-119876666D02*
X176540238Y-119971904D01*
X176540238Y-119971904D02*
X176587857Y-120019523D01*
X176587857Y-120019523D02*
X176683095Y-120067142D01*
X176683095Y-120067142D02*
X176825952Y-120067142D01*
X176825952Y-120067142D02*
X176921190Y-120019523D01*
X176921190Y-120019523D02*
X176968809Y-119971904D01*
X176968809Y-119971904D02*
X177016428Y-119876666D01*
X177016428Y-119876666D02*
X177016428Y-119495714D01*
X176587857Y-120448095D02*
X176540238Y-120495714D01*
X176540238Y-120495714D02*
X176492619Y-120590952D01*
X176492619Y-120590952D02*
X176492619Y-120829047D01*
X176492619Y-120829047D02*
X176540238Y-120924285D01*
X176540238Y-120924285D02*
X176587857Y-120971904D01*
X176587857Y-120971904D02*
X176683095Y-121019523D01*
X176683095Y-121019523D02*
X176778333Y-121019523D01*
X176778333Y-121019523D02*
X176921190Y-120971904D01*
X176921190Y-120971904D02*
X177492619Y-120400476D01*
X177492619Y-120400476D02*
X177492619Y-121019523D01*
X176492619Y-121638571D02*
X176492619Y-121733809D01*
X176492619Y-121733809D02*
X176540238Y-121829047D01*
X176540238Y-121829047D02*
X176587857Y-121876666D01*
X176587857Y-121876666D02*
X176683095Y-121924285D01*
X176683095Y-121924285D02*
X176873571Y-121971904D01*
X176873571Y-121971904D02*
X177111666Y-121971904D01*
X177111666Y-121971904D02*
X177302142Y-121924285D01*
X177302142Y-121924285D02*
X177397380Y-121876666D01*
X177397380Y-121876666D02*
X177445000Y-121829047D01*
X177445000Y-121829047D02*
X177492619Y-121733809D01*
X177492619Y-121733809D02*
X177492619Y-121638571D01*
X177492619Y-121638571D02*
X177445000Y-121543333D01*
X177445000Y-121543333D02*
X177397380Y-121495714D01*
X177397380Y-121495714D02*
X177302142Y-121448095D01*
X177302142Y-121448095D02*
X177111666Y-121400476D01*
X177111666Y-121400476D02*
X176873571Y-121400476D01*
X176873571Y-121400476D02*
X176683095Y-121448095D01*
X176683095Y-121448095D02*
X176587857Y-121495714D01*
X176587857Y-121495714D02*
X176540238Y-121543333D01*
X176540238Y-121543333D02*
X176492619Y-121638571D01*
%TO.C,R7*%
X130712619Y-90833333D02*
X130236428Y-90500000D01*
X130712619Y-90261905D02*
X129712619Y-90261905D01*
X129712619Y-90261905D02*
X129712619Y-90642857D01*
X129712619Y-90642857D02*
X129760238Y-90738095D01*
X129760238Y-90738095D02*
X129807857Y-90785714D01*
X129807857Y-90785714D02*
X129903095Y-90833333D01*
X129903095Y-90833333D02*
X130045952Y-90833333D01*
X130045952Y-90833333D02*
X130141190Y-90785714D01*
X130141190Y-90785714D02*
X130188809Y-90738095D01*
X130188809Y-90738095D02*
X130236428Y-90642857D01*
X130236428Y-90642857D02*
X130236428Y-90261905D01*
X129712619Y-91166667D02*
X129712619Y-91833333D01*
X129712619Y-91833333D02*
X130712619Y-91404762D01*
%TO.C,R12*%
X159823833Y-97049999D02*
X159490500Y-96816666D01*
X159823833Y-96649999D02*
X159123833Y-96649999D01*
X159123833Y-96649999D02*
X159123833Y-96916666D01*
X159123833Y-96916666D02*
X159157166Y-96983333D01*
X159157166Y-96983333D02*
X159190500Y-97016666D01*
X159190500Y-97016666D02*
X159257166Y-97049999D01*
X159257166Y-97049999D02*
X159357166Y-97049999D01*
X159357166Y-97049999D02*
X159423833Y-97016666D01*
X159423833Y-97016666D02*
X159457166Y-96983333D01*
X159457166Y-96983333D02*
X159490500Y-96916666D01*
X159490500Y-96916666D02*
X159490500Y-96649999D01*
X159823833Y-97716666D02*
X159823833Y-97316666D01*
X159823833Y-97516666D02*
X159123833Y-97516666D01*
X159123833Y-97516666D02*
X159223833Y-97449999D01*
X159223833Y-97449999D02*
X159290500Y-97383333D01*
X159290500Y-97383333D02*
X159323833Y-97316666D01*
X159190500Y-97983333D02*
X159157166Y-98016666D01*
X159157166Y-98016666D02*
X159123833Y-98083333D01*
X159123833Y-98083333D02*
X159123833Y-98250000D01*
X159123833Y-98250000D02*
X159157166Y-98316666D01*
X159157166Y-98316666D02*
X159190500Y-98350000D01*
X159190500Y-98350000D02*
X159257166Y-98383333D01*
X159257166Y-98383333D02*
X159323833Y-98383333D01*
X159323833Y-98383333D02*
X159423833Y-98350000D01*
X159423833Y-98350000D02*
X159823833Y-97950000D01*
X159823833Y-97950000D02*
X159823833Y-98383333D01*
%TO.C,C1*%
X141627380Y-124833333D02*
X141675000Y-124785714D01*
X141675000Y-124785714D02*
X141722619Y-124642857D01*
X141722619Y-124642857D02*
X141722619Y-124547619D01*
X141722619Y-124547619D02*
X141675000Y-124404762D01*
X141675000Y-124404762D02*
X141579761Y-124309524D01*
X141579761Y-124309524D02*
X141484523Y-124261905D01*
X141484523Y-124261905D02*
X141294047Y-124214286D01*
X141294047Y-124214286D02*
X141151190Y-124214286D01*
X141151190Y-124214286D02*
X140960714Y-124261905D01*
X140960714Y-124261905D02*
X140865476Y-124309524D01*
X140865476Y-124309524D02*
X140770238Y-124404762D01*
X140770238Y-124404762D02*
X140722619Y-124547619D01*
X140722619Y-124547619D02*
X140722619Y-124642857D01*
X140722619Y-124642857D02*
X140770238Y-124785714D01*
X140770238Y-124785714D02*
X140817857Y-124833333D01*
X141722619Y-125785714D02*
X141722619Y-125214286D01*
X141722619Y-125500000D02*
X140722619Y-125500000D01*
X140722619Y-125500000D02*
X140865476Y-125404762D01*
X140865476Y-125404762D02*
X140960714Y-125309524D01*
X140960714Y-125309524D02*
X141008333Y-125214286D01*
%TO.C,GND1*%
X163438095Y-79262238D02*
X163533333Y-79214619D01*
X163533333Y-79214619D02*
X163676190Y-79214619D01*
X163676190Y-79214619D02*
X163819047Y-79262238D01*
X163819047Y-79262238D02*
X163914285Y-79357476D01*
X163914285Y-79357476D02*
X163961904Y-79452714D01*
X163961904Y-79452714D02*
X164009523Y-79643190D01*
X164009523Y-79643190D02*
X164009523Y-79786047D01*
X164009523Y-79786047D02*
X163961904Y-79976523D01*
X163961904Y-79976523D02*
X163914285Y-80071761D01*
X163914285Y-80071761D02*
X163819047Y-80167000D01*
X163819047Y-80167000D02*
X163676190Y-80214619D01*
X163676190Y-80214619D02*
X163580952Y-80214619D01*
X163580952Y-80214619D02*
X163438095Y-80167000D01*
X163438095Y-80167000D02*
X163390476Y-80119380D01*
X163390476Y-80119380D02*
X163390476Y-79786047D01*
X163390476Y-79786047D02*
X163580952Y-79786047D01*
X162961904Y-80214619D02*
X162961904Y-79214619D01*
X162961904Y-79214619D02*
X162390476Y-80214619D01*
X162390476Y-80214619D02*
X162390476Y-79214619D01*
X161914285Y-80214619D02*
X161914285Y-79214619D01*
X161914285Y-79214619D02*
X161676190Y-79214619D01*
X161676190Y-79214619D02*
X161533333Y-79262238D01*
X161533333Y-79262238D02*
X161438095Y-79357476D01*
X161438095Y-79357476D02*
X161390476Y-79452714D01*
X161390476Y-79452714D02*
X161342857Y-79643190D01*
X161342857Y-79643190D02*
X161342857Y-79786047D01*
X161342857Y-79786047D02*
X161390476Y-79976523D01*
X161390476Y-79976523D02*
X161438095Y-80071761D01*
X161438095Y-80071761D02*
X161533333Y-80167000D01*
X161533333Y-80167000D02*
X161676190Y-80214619D01*
X161676190Y-80214619D02*
X161914285Y-80214619D01*
X160390476Y-80214619D02*
X160961904Y-80214619D01*
X160676190Y-80214619D02*
X160676190Y-79214619D01*
X160676190Y-79214619D02*
X160771428Y-79357476D01*
X160771428Y-79357476D02*
X160866666Y-79452714D01*
X160866666Y-79452714D02*
X160961904Y-79500333D01*
%TO.C,1V1*%
X157819047Y-81514619D02*
X158390475Y-81514619D01*
X158104761Y-81514619D02*
X158104761Y-80514619D01*
X158104761Y-80514619D02*
X158199999Y-80657476D01*
X158199999Y-80657476D02*
X158295237Y-80752714D01*
X158295237Y-80752714D02*
X158390475Y-80800333D01*
X157533332Y-80514619D02*
X157199999Y-81514619D01*
X157199999Y-81514619D02*
X156866666Y-80514619D01*
X156009523Y-81514619D02*
X156580951Y-81514619D01*
X156295237Y-81514619D02*
X156295237Y-80514619D01*
X156295237Y-80514619D02*
X156390475Y-80657476D01*
X156390475Y-80657476D02*
X156485713Y-80752714D01*
X156485713Y-80752714D02*
X156580951Y-80800333D01*
D10*
%TO.C,SW7*%
X177031667Y-101475000D02*
X177174524Y-101427380D01*
X177174524Y-101427380D02*
X177412619Y-101427380D01*
X177412619Y-101427380D02*
X177507857Y-101475000D01*
X177507857Y-101475000D02*
X177555476Y-101522619D01*
X177555476Y-101522619D02*
X177603095Y-101617857D01*
X177603095Y-101617857D02*
X177603095Y-101713095D01*
X177603095Y-101713095D02*
X177555476Y-101808333D01*
X177555476Y-101808333D02*
X177507857Y-101855952D01*
X177507857Y-101855952D02*
X177412619Y-101903571D01*
X177412619Y-101903571D02*
X177222143Y-101951190D01*
X177222143Y-101951190D02*
X177126905Y-101998809D01*
X177126905Y-101998809D02*
X177079286Y-102046428D01*
X177079286Y-102046428D02*
X177031667Y-102141666D01*
X177031667Y-102141666D02*
X177031667Y-102236904D01*
X177031667Y-102236904D02*
X177079286Y-102332142D01*
X177079286Y-102332142D02*
X177126905Y-102379761D01*
X177126905Y-102379761D02*
X177222143Y-102427380D01*
X177222143Y-102427380D02*
X177460238Y-102427380D01*
X177460238Y-102427380D02*
X177603095Y-102379761D01*
X177936429Y-102427380D02*
X178174524Y-101427380D01*
X178174524Y-101427380D02*
X178365000Y-102141666D01*
X178365000Y-102141666D02*
X178555476Y-101427380D01*
X178555476Y-101427380D02*
X178793572Y-102427380D01*
X179079286Y-102427380D02*
X179745952Y-102427380D01*
X179745952Y-102427380D02*
X179317381Y-101427380D01*
D12*
%TO.C,U3*%
X160761904Y-126162619D02*
X160761904Y-126972142D01*
X160761904Y-126972142D02*
X160714285Y-127067380D01*
X160714285Y-127067380D02*
X160666666Y-127115000D01*
X160666666Y-127115000D02*
X160571428Y-127162619D01*
X160571428Y-127162619D02*
X160380952Y-127162619D01*
X160380952Y-127162619D02*
X160285714Y-127115000D01*
X160285714Y-127115000D02*
X160238095Y-127067380D01*
X160238095Y-127067380D02*
X160190476Y-126972142D01*
X160190476Y-126972142D02*
X160190476Y-126162619D01*
X159809523Y-126162619D02*
X159190476Y-126162619D01*
X159190476Y-126162619D02*
X159523809Y-126543571D01*
X159523809Y-126543571D02*
X159380952Y-126543571D01*
X159380952Y-126543571D02*
X159285714Y-126591190D01*
X159285714Y-126591190D02*
X159238095Y-126638809D01*
X159238095Y-126638809D02*
X159190476Y-126734047D01*
X159190476Y-126734047D02*
X159190476Y-126972142D01*
X159190476Y-126972142D02*
X159238095Y-127067380D01*
X159238095Y-127067380D02*
X159285714Y-127115000D01*
X159285714Y-127115000D02*
X159380952Y-127162619D01*
X159380952Y-127162619D02*
X159666666Y-127162619D01*
X159666666Y-127162619D02*
X159761904Y-127115000D01*
X159761904Y-127115000D02*
X159809523Y-127067380D01*
%TO.C,3V3*%
X178938094Y-79314619D02*
X178319047Y-79314619D01*
X178319047Y-79314619D02*
X178652380Y-79695571D01*
X178652380Y-79695571D02*
X178509523Y-79695571D01*
X178509523Y-79695571D02*
X178414285Y-79743190D01*
X178414285Y-79743190D02*
X178366666Y-79790809D01*
X178366666Y-79790809D02*
X178319047Y-79886047D01*
X178319047Y-79886047D02*
X178319047Y-80124142D01*
X178319047Y-80124142D02*
X178366666Y-80219380D01*
X178366666Y-80219380D02*
X178414285Y-80267000D01*
X178414285Y-80267000D02*
X178509523Y-80314619D01*
X178509523Y-80314619D02*
X178795237Y-80314619D01*
X178795237Y-80314619D02*
X178890475Y-80267000D01*
X178890475Y-80267000D02*
X178938094Y-80219380D01*
X178033332Y-79314619D02*
X177699999Y-80314619D01*
X177699999Y-80314619D02*
X177366666Y-79314619D01*
X177128570Y-79314619D02*
X176509523Y-79314619D01*
X176509523Y-79314619D02*
X176842856Y-79695571D01*
X176842856Y-79695571D02*
X176699999Y-79695571D01*
X176699999Y-79695571D02*
X176604761Y-79743190D01*
X176604761Y-79743190D02*
X176557142Y-79790809D01*
X176557142Y-79790809D02*
X176509523Y-79886047D01*
X176509523Y-79886047D02*
X176509523Y-80124142D01*
X176509523Y-80124142D02*
X176557142Y-80219380D01*
X176557142Y-80219380D02*
X176604761Y-80267000D01*
X176604761Y-80267000D02*
X176699999Y-80314619D01*
X176699999Y-80314619D02*
X176985713Y-80314619D01*
X176985713Y-80314619D02*
X177080951Y-80267000D01*
X177080951Y-80267000D02*
X177128570Y-80219380D01*
%TO.C,R5*%
X162273833Y-123083333D02*
X161940500Y-122850000D01*
X162273833Y-122683333D02*
X161573833Y-122683333D01*
X161573833Y-122683333D02*
X161573833Y-122950000D01*
X161573833Y-122950000D02*
X161607166Y-123016667D01*
X161607166Y-123016667D02*
X161640500Y-123050000D01*
X161640500Y-123050000D02*
X161707166Y-123083333D01*
X161707166Y-123083333D02*
X161807166Y-123083333D01*
X161807166Y-123083333D02*
X161873833Y-123050000D01*
X161873833Y-123050000D02*
X161907166Y-123016667D01*
X161907166Y-123016667D02*
X161940500Y-122950000D01*
X161940500Y-122950000D02*
X161940500Y-122683333D01*
X161573833Y-123716667D02*
X161573833Y-123383333D01*
X161573833Y-123383333D02*
X161907166Y-123350000D01*
X161907166Y-123350000D02*
X161873833Y-123383333D01*
X161873833Y-123383333D02*
X161840500Y-123450000D01*
X161840500Y-123450000D02*
X161840500Y-123616667D01*
X161840500Y-123616667D02*
X161873833Y-123683333D01*
X161873833Y-123683333D02*
X161907166Y-123716667D01*
X161907166Y-123716667D02*
X161973833Y-123750000D01*
X161973833Y-123750000D02*
X162140500Y-123750000D01*
X162140500Y-123750000D02*
X162207166Y-123716667D01*
X162207166Y-123716667D02*
X162240500Y-123683333D01*
X162240500Y-123683333D02*
X162273833Y-123616667D01*
X162273833Y-123616667D02*
X162273833Y-123450000D01*
X162273833Y-123450000D02*
X162240500Y-123383333D01*
X162240500Y-123383333D02*
X162207166Y-123350000D01*
D10*
%TO.C,SW5*%
X181566667Y-91885000D02*
X181709524Y-91837380D01*
X181709524Y-91837380D02*
X181947619Y-91837380D01*
X181947619Y-91837380D02*
X182042857Y-91885000D01*
X182042857Y-91885000D02*
X182090476Y-91932619D01*
X182090476Y-91932619D02*
X182138095Y-92027857D01*
X182138095Y-92027857D02*
X182138095Y-92123095D01*
X182138095Y-92123095D02*
X182090476Y-92218333D01*
X182090476Y-92218333D02*
X182042857Y-92265952D01*
X182042857Y-92265952D02*
X181947619Y-92313571D01*
X181947619Y-92313571D02*
X181757143Y-92361190D01*
X181757143Y-92361190D02*
X181661905Y-92408809D01*
X181661905Y-92408809D02*
X181614286Y-92456428D01*
X181614286Y-92456428D02*
X181566667Y-92551666D01*
X181566667Y-92551666D02*
X181566667Y-92646904D01*
X181566667Y-92646904D02*
X181614286Y-92742142D01*
X181614286Y-92742142D02*
X181661905Y-92789761D01*
X181661905Y-92789761D02*
X181757143Y-92837380D01*
X181757143Y-92837380D02*
X181995238Y-92837380D01*
X181995238Y-92837380D02*
X182138095Y-92789761D01*
X182471429Y-92837380D02*
X182709524Y-91837380D01*
X182709524Y-91837380D02*
X182900000Y-92551666D01*
X182900000Y-92551666D02*
X183090476Y-91837380D01*
X183090476Y-91837380D02*
X183328572Y-92837380D01*
X184185714Y-92837380D02*
X183709524Y-92837380D01*
X183709524Y-92837380D02*
X183661905Y-92361190D01*
X183661905Y-92361190D02*
X183709524Y-92408809D01*
X183709524Y-92408809D02*
X183804762Y-92456428D01*
X183804762Y-92456428D02*
X184042857Y-92456428D01*
X184042857Y-92456428D02*
X184138095Y-92408809D01*
X184138095Y-92408809D02*
X184185714Y-92361190D01*
X184185714Y-92361190D02*
X184233333Y-92265952D01*
X184233333Y-92265952D02*
X184233333Y-92027857D01*
X184233333Y-92027857D02*
X184185714Y-91932619D01*
X184185714Y-91932619D02*
X184138095Y-91885000D01*
X184138095Y-91885000D02*
X184042857Y-91837380D01*
X184042857Y-91837380D02*
X183804762Y-91837380D01*
X183804762Y-91837380D02*
X183709524Y-91885000D01*
X183709524Y-91885000D02*
X183661905Y-91932619D01*
D12*
%TO.C,C22*%
X178162857Y-124707380D02*
X178210476Y-124755000D01*
X178210476Y-124755000D02*
X178353333Y-124802619D01*
X178353333Y-124802619D02*
X178448571Y-124802619D01*
X178448571Y-124802619D02*
X178591428Y-124755000D01*
X178591428Y-124755000D02*
X178686666Y-124659761D01*
X178686666Y-124659761D02*
X178734285Y-124564523D01*
X178734285Y-124564523D02*
X178781904Y-124374047D01*
X178781904Y-124374047D02*
X178781904Y-124231190D01*
X178781904Y-124231190D02*
X178734285Y-124040714D01*
X178734285Y-124040714D02*
X178686666Y-123945476D01*
X178686666Y-123945476D02*
X178591428Y-123850238D01*
X178591428Y-123850238D02*
X178448571Y-123802619D01*
X178448571Y-123802619D02*
X178353333Y-123802619D01*
X178353333Y-123802619D02*
X178210476Y-123850238D01*
X178210476Y-123850238D02*
X178162857Y-123897857D01*
X177781904Y-123897857D02*
X177734285Y-123850238D01*
X177734285Y-123850238D02*
X177639047Y-123802619D01*
X177639047Y-123802619D02*
X177400952Y-123802619D01*
X177400952Y-123802619D02*
X177305714Y-123850238D01*
X177305714Y-123850238D02*
X177258095Y-123897857D01*
X177258095Y-123897857D02*
X177210476Y-123993095D01*
X177210476Y-123993095D02*
X177210476Y-124088333D01*
X177210476Y-124088333D02*
X177258095Y-124231190D01*
X177258095Y-124231190D02*
X177829523Y-124802619D01*
X177829523Y-124802619D02*
X177210476Y-124802619D01*
X176829523Y-123897857D02*
X176781904Y-123850238D01*
X176781904Y-123850238D02*
X176686666Y-123802619D01*
X176686666Y-123802619D02*
X176448571Y-123802619D01*
X176448571Y-123802619D02*
X176353333Y-123850238D01*
X176353333Y-123850238D02*
X176305714Y-123897857D01*
X176305714Y-123897857D02*
X176258095Y-123993095D01*
X176258095Y-123993095D02*
X176258095Y-124088333D01*
X176258095Y-124088333D02*
X176305714Y-124231190D01*
X176305714Y-124231190D02*
X176877142Y-124802619D01*
X176877142Y-124802619D02*
X176258095Y-124802619D01*
%TO.C,C20*%
X169836353Y-91500042D02*
X169836353Y-91547183D01*
X169836353Y-91547183D02*
X169883494Y-91641463D01*
X169883494Y-91641463D02*
X169930634Y-91688604D01*
X169930634Y-91688604D02*
X170024915Y-91735744D01*
X170024915Y-91735744D02*
X170119196Y-91735744D01*
X170119196Y-91735744D02*
X170189907Y-91712174D01*
X170189907Y-91712174D02*
X170307758Y-91641463D01*
X170307758Y-91641463D02*
X170378469Y-91570753D01*
X170378469Y-91570753D02*
X170449179Y-91452902D01*
X170449179Y-91452902D02*
X170472750Y-91382191D01*
X170472750Y-91382191D02*
X170472750Y-91287910D01*
X170472750Y-91287910D02*
X170425609Y-91193629D01*
X170425609Y-91193629D02*
X170378469Y-91146489D01*
X170378469Y-91146489D02*
X170284188Y-91099348D01*
X170284188Y-91099348D02*
X170237047Y-91099348D01*
X170048486Y-90910786D02*
X170048486Y-90863646D01*
X170048486Y-90863646D02*
X170024915Y-90792935D01*
X170024915Y-90792935D02*
X169907064Y-90675084D01*
X169907064Y-90675084D02*
X169836353Y-90651514D01*
X169836353Y-90651514D02*
X169789213Y-90651514D01*
X169789213Y-90651514D02*
X169718502Y-90675084D01*
X169718502Y-90675084D02*
X169671362Y-90722225D01*
X169671362Y-90722225D02*
X169624221Y-90816506D01*
X169624221Y-90816506D02*
X169624221Y-91382191D01*
X169624221Y-91382191D02*
X169317809Y-91075778D01*
X169506370Y-90274390D02*
X169459230Y-90227250D01*
X169459230Y-90227250D02*
X169388519Y-90203679D01*
X169388519Y-90203679D02*
X169341379Y-90203679D01*
X169341379Y-90203679D02*
X169270668Y-90227250D01*
X169270668Y-90227250D02*
X169152817Y-90297960D01*
X169152817Y-90297960D02*
X169034966Y-90415811D01*
X169034966Y-90415811D02*
X168964255Y-90533663D01*
X168964255Y-90533663D02*
X168940685Y-90604373D01*
X168940685Y-90604373D02*
X168940685Y-90651514D01*
X168940685Y-90651514D02*
X168964255Y-90722224D01*
X168964255Y-90722224D02*
X169011395Y-90769365D01*
X169011395Y-90769365D02*
X169082106Y-90792935D01*
X169082106Y-90792935D02*
X169129246Y-90792935D01*
X169129246Y-90792935D02*
X169199957Y-90769365D01*
X169199957Y-90769365D02*
X169317808Y-90698654D01*
X169317808Y-90698654D02*
X169435659Y-90580803D01*
X169435659Y-90580803D02*
X169506370Y-90462952D01*
X169506370Y-90462952D02*
X169529940Y-90392241D01*
X169529940Y-90392241D02*
X169529940Y-90345101D01*
X169529940Y-90345101D02*
X169506370Y-90274390D01*
%TO.C,R4*%
X165166666Y-135892619D02*
X165499999Y-135416428D01*
X165738094Y-135892619D02*
X165738094Y-134892619D01*
X165738094Y-134892619D02*
X165357142Y-134892619D01*
X165357142Y-134892619D02*
X165261904Y-134940238D01*
X165261904Y-134940238D02*
X165214285Y-134987857D01*
X165214285Y-134987857D02*
X165166666Y-135083095D01*
X165166666Y-135083095D02*
X165166666Y-135225952D01*
X165166666Y-135225952D02*
X165214285Y-135321190D01*
X165214285Y-135321190D02*
X165261904Y-135368809D01*
X165261904Y-135368809D02*
X165357142Y-135416428D01*
X165357142Y-135416428D02*
X165738094Y-135416428D01*
X164309523Y-135225952D02*
X164309523Y-135892619D01*
X164547618Y-134845000D02*
X164785713Y-135559285D01*
X164785713Y-135559285D02*
X164166666Y-135559285D01*
D13*
%TO.C,R14*%
X161180000Y-121346359D02*
X161180000Y-121653641D01*
X160420000Y-121346359D02*
X160420000Y-121653641D01*
D10*
%TO.C,SW4*%
X184000000Y-94600000D02*
G75*
G03*
X184000000Y-94600000I-1100000J0D01*
G01*
X185500000Y-93300000D02*
X185500000Y-95900000D01*
X184200000Y-97200000D01*
X181600000Y-97200000D01*
X180300000Y-95900000D01*
X180300000Y-93300000D01*
X181600000Y-92000000D01*
X184200000Y-92000000D01*
X185500000Y-93300000D01*
D13*
%TO.C,TP_SW4*%
X164400000Y-124600000D02*
X164400000Y-123200000D01*
X164400000Y-123200000D02*
X163000000Y-123200000D01*
X163000000Y-124600000D02*
X164400000Y-124600000D01*
X163000000Y-123200000D02*
X163000000Y-124600000D01*
%TO.C,TP_SW1*%
X151400000Y-111400000D02*
X151400000Y-110000000D01*
X151400000Y-110000000D02*
X150000000Y-110000000D01*
X150000000Y-111400000D02*
X151400000Y-111400000D01*
X150000000Y-110000000D02*
X150000000Y-111400000D01*
%TO.C,R1*%
X162377500Y-114437258D02*
X162377500Y-113962742D01*
X163422500Y-114437258D02*
X163422500Y-113962742D01*
%TO.C,R10*%
X178153641Y-87180000D02*
X177846359Y-87180000D01*
X178153641Y-86420000D02*
X177846359Y-86420000D01*
%TO.C,C2*%
X158740000Y-125107836D02*
X158740000Y-124892164D01*
X159460000Y-125107836D02*
X159460000Y-124892164D01*
%TO.C,C21*%
X173421693Y-87230810D02*
X173269190Y-87078307D01*
X173930810Y-86721693D02*
X173778307Y-86569190D01*
%TO.C,C6*%
X131440000Y-93940580D02*
X131440000Y-93659420D01*
X132460000Y-93940580D02*
X132460000Y-93659420D01*
%TO.C,R6*%
X162280000Y-121346359D02*
X162280000Y-121653641D01*
X161520000Y-121346359D02*
X161520000Y-121653641D01*
%TO.C,R18*%
X164480000Y-117546359D02*
X164480000Y-117853641D01*
X163720000Y-117546359D02*
X163720000Y-117853641D01*
%TO.C,J1*%
X133300000Y-87250000D02*
X142700000Y-87250000D01*
X133300000Y-89150000D02*
X133300000Y-87250000D01*
X133300000Y-93050000D02*
X133300000Y-91050000D01*
X142700000Y-89150000D02*
X142700000Y-87250000D01*
X142700000Y-93050000D02*
X142700000Y-91050000D01*
%TO.C,R16*%
X160420000Y-117853641D02*
X160420000Y-117546359D01*
X161180000Y-117853641D02*
X161180000Y-117546359D01*
%TO.C,C9*%
X162360000Y-96192164D02*
X162360000Y-96407836D01*
X161640000Y-96192164D02*
X161640000Y-96407836D01*
%TO.C,R2*%
X181177500Y-114437258D02*
X181177500Y-113962742D01*
X182222500Y-114437258D02*
X182222500Y-113962742D01*
%TO.C,U4*%
X168335000Y-87390000D02*
X167685000Y-87390000D01*
X168335000Y-88040000D02*
X168335000Y-87390000D01*
X161115000Y-88040000D02*
X161115000Y-87390000D01*
X168335000Y-93960000D02*
X168335000Y-94610000D01*
X161115000Y-93960000D02*
X161115000Y-94610000D01*
X168335000Y-94610000D02*
X167685000Y-94610000D01*
X161115000Y-94610000D02*
X161765000Y-94610000D01*
%TO.C,R15*%
X183362742Y-133483133D02*
X183837258Y-133483133D01*
X183362742Y-134528133D02*
X183837258Y-134528133D01*
%TO.C,C19*%
X158607836Y-93460000D02*
X158392164Y-93460000D01*
X158607836Y-92740000D02*
X158392164Y-92740000D01*
%TO.C,R23*%
X164480000Y-121346359D02*
X164480000Y-121653641D01*
X163720000Y-121346359D02*
X163720000Y-121653641D01*
%TO.C,U2*%
X142560000Y-129200000D02*
X142560000Y-129850000D01*
X142560000Y-129200000D02*
X142560000Y-128550000D01*
X139440000Y-129200000D02*
X139440000Y-129850000D01*
X139440000Y-129200000D02*
X139440000Y-127525000D01*
%TO.C,C18*%
X150340000Y-93207836D02*
X150340000Y-92992164D01*
X151060000Y-93207836D02*
X151060000Y-92992164D01*
%TO.C,U8*%
X131900000Y-106910000D02*
X137910000Y-106910000D01*
X134150000Y-100090000D02*
X137910000Y-100090000D01*
X137910000Y-100090000D02*
X137910000Y-101350000D01*
X137910000Y-106910000D02*
X137910000Y-105650000D01*
%TO.C,R9*%
X169720000Y-96753641D02*
X169720000Y-96446359D01*
X170480000Y-96753641D02*
X170480000Y-96446359D01*
%TO.C,TP_SW3*%
X166700000Y-114800000D02*
X166700000Y-113400000D01*
X166700000Y-113400000D02*
X165300000Y-113400000D01*
X165300000Y-114800000D02*
X166700000Y-114800000D01*
X165300000Y-113400000D02*
X165300000Y-114800000D01*
%TO.C,R21*%
X162620000Y-121653641D02*
X162620000Y-121346359D01*
X163380000Y-121653641D02*
X163380000Y-121346359D01*
%TO.C,R22*%
X175620000Y-120863641D02*
X175620000Y-120556359D01*
X176380000Y-120863641D02*
X176380000Y-120556359D01*
%TO.C,R8*%
X144230000Y-90846359D02*
X144230000Y-91153641D01*
X143470000Y-90846359D02*
X143470000Y-91153641D01*
%TO.C,C8*%
X161840000Y-86007836D02*
X161840000Y-85792164D01*
X162560000Y-86007836D02*
X162560000Y-85792164D01*
%TO.C,C11*%
X165940000Y-86007836D02*
X165940000Y-85792164D01*
X166660000Y-86007836D02*
X166660000Y-85792164D01*
%TO.C,U1*%
X169500000Y-124135000D02*
X171450000Y-124135000D01*
X169500000Y-124135000D02*
X167550000Y-124135000D01*
X169500000Y-115265000D02*
X172950000Y-115265000D01*
X169500000Y-115265000D02*
X167550000Y-115265000D01*
D10*
%TO.C,SW6*%
X153865000Y-105890000D02*
X153865000Y-105554000D01*
X153865000Y-109140000D02*
X157365000Y-109140000D01*
X159265000Y-107240000D02*
X164865000Y-107240000D01*
X164865000Y-103240000D02*
X156179000Y-103240000D01*
X164865000Y-107240000D02*
X164865000Y-106490000D01*
X156169000Y-103250000D02*
G75*
G03*
X153865000Y-105554000I0J-2304000D01*
G01*
X159265000Y-107240000D02*
G75*
G03*
X157365109Y-109139584I669000J-2569000D01*
G01*
D13*
%TO.C,C7*%
X161260000Y-96192164D02*
X161260000Y-96407836D01*
X160540000Y-96192164D02*
X160540000Y-96407836D01*
%TO.C,U5*%
X180560000Y-129205633D02*
X180560000Y-129855633D01*
X180560000Y-129205633D02*
X180560000Y-128555633D01*
X177440000Y-129205633D02*
X177440000Y-129855633D01*
X177440000Y-129205633D02*
X177440000Y-127530633D01*
%TO.C,TP_SW2*%
X173800000Y-102600000D02*
X173800000Y-101200000D01*
X173800000Y-101200000D02*
X172400000Y-101200000D01*
X172400000Y-102600000D02*
X173800000Y-102600000D01*
X172400000Y-101200000D02*
X172400000Y-102600000D01*
%TO.C,Y1*%
X171752513Y-85919060D02*
X174580940Y-88747487D01*
X169419060Y-88252513D02*
X171752513Y-85919060D01*
%TO.C,R19*%
X177480000Y-120556359D02*
X177480000Y-120863641D01*
X176720000Y-120556359D02*
X176720000Y-120863641D01*
%TO.C,C14*%
X170292164Y-91840000D02*
X170507836Y-91840000D01*
X170292164Y-92560000D02*
X170507836Y-92560000D01*
%TO.C,R11*%
X158020000Y-95553641D02*
X158020000Y-95246359D01*
X158780000Y-95553641D02*
X158780000Y-95246359D01*
%TO.C,C12*%
X166060000Y-96192164D02*
X166060000Y-96407836D01*
X165340000Y-96192164D02*
X165340000Y-96407836D01*
%TO.C,C17*%
X159440000Y-86607836D02*
X159440000Y-86392164D01*
X160160000Y-86607836D02*
X160160000Y-86392164D01*
%TO.C,C15*%
X170292164Y-92940000D02*
X170507836Y-92940000D01*
X170292164Y-93660000D02*
X170507836Y-93660000D01*
%TO.C,R13*%
X178153641Y-88280000D02*
X177846359Y-88280000D01*
X178153641Y-87520000D02*
X177846359Y-87520000D01*
%TO.C,C16*%
X158607836Y-92360000D02*
X158392164Y-92360000D01*
X158607836Y-91640000D02*
X158392164Y-91640000D01*
%TO.C,R3*%
X145762742Y-133477500D02*
X146237258Y-133477500D01*
X145762742Y-134522500D02*
X146237258Y-134522500D01*
%TO.C,C5*%
X148565000Y-98161252D02*
X148565000Y-97638748D01*
X150035000Y-98161252D02*
X150035000Y-97638748D01*
%TO.C,U7*%
X143800000Y-100015000D02*
X143000000Y-100015000D01*
X143800000Y-100015000D02*
X144600000Y-100015000D01*
X143800000Y-103135000D02*
X142000000Y-103135000D01*
X143800000Y-103135000D02*
X144600000Y-103135000D01*
%TO.C,R24*%
X174520000Y-120853641D02*
X174520000Y-120546359D01*
X175280000Y-120853641D02*
X175280000Y-120546359D01*
%TO.C,R17*%
X162620000Y-117853641D02*
X162620000Y-117546359D01*
X163380000Y-117853641D02*
X163380000Y-117546359D01*
%TO.C,U6*%
X157025000Y-87275000D02*
X156765000Y-87275000D01*
X151835000Y-87275000D02*
X151835000Y-85600000D01*
X151575000Y-87275000D02*
X151835000Y-87275000D01*
X157025000Y-90000000D02*
X157025000Y-87275000D01*
X157025000Y-90000000D02*
X157025000Y-92725000D01*
X151575000Y-90000000D02*
X151575000Y-87275000D01*
X151575000Y-90000000D02*
X151575000Y-92725000D01*
X157025000Y-92725000D02*
X156765000Y-92725000D01*
X151575000Y-92725000D02*
X151835000Y-92725000D01*
%TO.C,R20*%
X178580000Y-120556359D02*
X178580000Y-120863641D01*
X177820000Y-120556359D02*
X177820000Y-120863641D01*
%TO.C,R7*%
X131770000Y-91153641D02*
X131770000Y-90846359D01*
X132530000Y-91153641D02*
X132530000Y-90846359D01*
%TO.C,R12*%
X159880000Y-95246359D02*
X159880000Y-95553641D01*
X159120000Y-95246359D02*
X159120000Y-95553641D01*
%TO.C,C1*%
X139740000Y-125107836D02*
X139740000Y-124892164D01*
X140460000Y-125107836D02*
X140460000Y-124892164D01*
%TO.C,GND1*%
X162900000Y-81900000D02*
X162900000Y-80500000D01*
X162900000Y-80500000D02*
X161500000Y-80500000D01*
X161500000Y-81900000D02*
X162900000Y-81900000D01*
X161500000Y-80500000D02*
X161500000Y-81900000D01*
%TO.C,1V1*%
X157900000Y-83200000D02*
X157900000Y-81800000D01*
X157900000Y-81800000D02*
X156500000Y-81800000D01*
X156500000Y-83200000D02*
X157900000Y-83200000D01*
X156500000Y-81800000D02*
X156500000Y-83200000D01*
D10*
%TO.C,SW7*%
X172865000Y-105890000D02*
X172865000Y-105554000D01*
X172865000Y-109140000D02*
X176365000Y-109140000D01*
X178265000Y-107240000D02*
X183865000Y-107240000D01*
X183865000Y-103240000D02*
X175179000Y-103240000D01*
X183865000Y-107240000D02*
X183865000Y-106490000D01*
X175169000Y-103250000D02*
G75*
G03*
X172865000Y-105554000I0J-2304000D01*
G01*
X178265000Y-107240000D02*
G75*
G03*
X176365109Y-109139584I669000J-2569000D01*
G01*
D13*
%TO.C,U3*%
X161560000Y-129200000D02*
X161560000Y-129850000D01*
X161560000Y-129200000D02*
X161560000Y-128550000D01*
X158440000Y-129200000D02*
X158440000Y-129850000D01*
X158440000Y-129200000D02*
X158440000Y-127525000D01*
%TO.C,3V3*%
X178400000Y-82000000D02*
X178400000Y-80600000D01*
X178400000Y-80600000D02*
X177000000Y-80600000D01*
X177000000Y-82000000D02*
X178400000Y-82000000D01*
X177000000Y-80600000D02*
X177000000Y-82000000D01*
%TO.C,R5*%
X161520000Y-117853641D02*
X161520000Y-117546359D01*
X162280000Y-117853641D02*
X162280000Y-117546359D01*
D10*
%TO.C,SW5*%
X184000000Y-88500000D02*
G75*
G03*
X184000000Y-88500000I-1100000J0D01*
G01*
X185500000Y-87200000D02*
X185500000Y-89800000D01*
X184200000Y-91100000D01*
X181600000Y-91100000D01*
X180300000Y-89800000D01*
X180300000Y-87200000D01*
X181600000Y-85900000D01*
X184200000Y-85900000D01*
X185500000Y-87200000D01*
D13*
%TO.C,C22*%
X177627836Y-125860000D02*
X177412164Y-125860000D01*
X177627836Y-125140000D02*
X177412164Y-125140000D01*
%TO.C,C20*%
X170478307Y-89669190D02*
X170630810Y-89821693D01*
X169969190Y-90178307D02*
X170121693Y-90330810D01*
%TO.C,R4*%
X164762742Y-133477500D02*
X165237258Y-133477500D01*
X164762742Y-134522500D02*
X165237258Y-134522500D01*
%TD*%
%LPC*%
D14*
%TO.C,SW2*%
X173920000Y-110000000D03*
D15*
X179000000Y-110000000D03*
D14*
X184080000Y-110000000D03*
%TD*%
%TO.C,SW1*%
X154920000Y-110000000D03*
D15*
X160000000Y-110000000D03*
D14*
X165080000Y-110000000D03*
%TD*%
D16*
%TO.C,H2*%
X142000000Y-143500000D03*
%TD*%
%TO.C,H3*%
X178000000Y-143500000D03*
%TD*%
%TO.C,H5*%
X154000000Y-98000000D03*
%TD*%
D17*
%TO.C,H6*%
X148650000Y-89300000D03*
%TD*%
D18*
%TO.C,SW3*%
X138500000Y-117500000D03*
D19*
X143500000Y-117500000D03*
X141000000Y-117500000D03*
D20*
X135400000Y-110000000D03*
X146600000Y-110000000D03*
%TD*%
D16*
%TO.C,H4*%
X192000000Y-104500000D03*
%TD*%
%TO.C,H1*%
X128000000Y-104500000D03*
%TD*%
D17*
%TO.C,H8*%
X187150000Y-137350000D03*
%TD*%
%TO.C,H7*%
X133400000Y-138200000D03*
%TD*%
D21*
%TO.C,J4*%
X167150000Y-81100000D03*
D22*
X168420000Y-81100000D03*
X169690000Y-81100000D03*
X170960000Y-81100000D03*
X172230000Y-81100000D03*
%TD*%
D23*
%TO.C,R14*%
X160800000Y-120990000D03*
X160800000Y-122010000D03*
%TD*%
D24*
%TO.C,SW4*%
X185900000Y-92725000D03*
X179900000Y-92725000D03*
X185900000Y-96475000D03*
X179900000Y-96475000D03*
%TD*%
D21*
%TO.C,TP_SW4*%
X163700000Y-123900000D03*
%TD*%
%TO.C,TP_SW1*%
X150700000Y-110700000D03*
%TD*%
D25*
%TO.C,R1*%
X162900000Y-115025000D03*
X162900000Y-113375000D03*
%TD*%
D26*
%TO.C,R10*%
X178510000Y-86800000D03*
X177490000Y-86800000D03*
%TD*%
D27*
%TO.C,C2*%
X159100000Y-125480000D03*
X159100000Y-124520000D03*
%TD*%
D28*
%TO.C,C21*%
X173939411Y-87239411D03*
X173260589Y-86560589D03*
%TD*%
D29*
%TO.C,C6*%
X131950000Y-94575000D03*
X131950000Y-93025000D03*
%TD*%
D23*
%TO.C,R6*%
X161900000Y-120990000D03*
X161900000Y-122010000D03*
%TD*%
%TO.C,R18*%
X164100000Y-117190000D03*
X164100000Y-118210000D03*
%TD*%
D30*
%TO.C,J1*%
X135110000Y-93750000D03*
X140890000Y-93750000D03*
D31*
X134750000Y-95195000D03*
X135550000Y-95195000D03*
D32*
X136750000Y-95195000D03*
X137750000Y-95195000D03*
X138250000Y-95195000D03*
X139250000Y-95195000D03*
D31*
X140450000Y-95195000D03*
X141250000Y-95195000D03*
X141250000Y-95195000D03*
X140450000Y-95195000D03*
D32*
X139750000Y-95195000D03*
X138750000Y-95195000D03*
X137250000Y-95195000D03*
X136250000Y-95195000D03*
D31*
X135550000Y-95195000D03*
X134750000Y-95195000D03*
D33*
X133680000Y-90100000D03*
D34*
X133680000Y-94280000D03*
D33*
X142320000Y-90100000D03*
D34*
X142320000Y-94280000D03*
%TD*%
D35*
%TO.C,R16*%
X160800000Y-118210000D03*
X160800000Y-117190000D03*
%TD*%
D36*
%TO.C,C9*%
X162000000Y-95820000D03*
X162000000Y-96780000D03*
%TD*%
D25*
%TO.C,R2*%
X181700000Y-115025000D03*
X181700000Y-113375000D03*
%TD*%
D37*
%TO.C,U4*%
X162125000Y-87562500D03*
X162525000Y-87562500D03*
X162925000Y-87562500D03*
X163325000Y-87562500D03*
X163725000Y-87562500D03*
X164125000Y-87562500D03*
X164525000Y-87562500D03*
X164925000Y-87562500D03*
X165325000Y-87562500D03*
X165725000Y-87562500D03*
X166125000Y-87562500D03*
X166525000Y-87562500D03*
X166925000Y-87562500D03*
X167325000Y-87562500D03*
D38*
X168162500Y-88400000D03*
X168162500Y-88800000D03*
X168162500Y-89200000D03*
X168162500Y-89600000D03*
X168162500Y-90000000D03*
X168162500Y-90400000D03*
X168162500Y-90800000D03*
X168162500Y-91200000D03*
X168162500Y-91600000D03*
X168162500Y-92000000D03*
X168162500Y-92400000D03*
X168162500Y-92800000D03*
X168162500Y-93200000D03*
X168162500Y-93600000D03*
D37*
X167325000Y-94437500D03*
X166925000Y-94437500D03*
X166525000Y-94437500D03*
X166125000Y-94437500D03*
X165725000Y-94437500D03*
X165325000Y-94437500D03*
X164925000Y-94437500D03*
X164525000Y-94437500D03*
X164125000Y-94437500D03*
X163725000Y-94437500D03*
X163325000Y-94437500D03*
X162925000Y-94437500D03*
X162525000Y-94437500D03*
X162125000Y-94437500D03*
D38*
X161287500Y-93600000D03*
X161287500Y-93200000D03*
X161287500Y-92800000D03*
X161287500Y-92400000D03*
X161287500Y-92000000D03*
X161287500Y-91600000D03*
X161287500Y-91200000D03*
X161287500Y-90800000D03*
X161287500Y-90400000D03*
X161287500Y-90000000D03*
X161287500Y-89600000D03*
X161287500Y-89200000D03*
X161287500Y-88800000D03*
X161287500Y-88400000D03*
D39*
X164725000Y-91000000D03*
%TD*%
D40*
%TO.C,R15*%
X182775000Y-134005633D03*
X184425000Y-134005633D03*
%TD*%
D41*
%TO.C,C19*%
X158980000Y-93100000D03*
X158020000Y-93100000D03*
%TD*%
D23*
%TO.C,R23*%
X164100000Y-120990000D03*
X164100000Y-122010000D03*
%TD*%
D14*
%TO.C,U2*%
X146080000Y-129000000D03*
X135920000Y-129000000D03*
D42*
X140050000Y-128262500D03*
X141950000Y-128262500D03*
X141000000Y-130137500D03*
%TD*%
D27*
%TO.C,C18*%
X150700000Y-93580000D03*
X150700000Y-92620000D03*
%TD*%
D43*
%TO.C,U8*%
X132850000Y-105800000D03*
X132850000Y-103500000D03*
D44*
X139150000Y-103500000D03*
D43*
X132850000Y-101200000D03*
%TD*%
D35*
%TO.C,R9*%
X170100000Y-97110000D03*
X170100000Y-96090000D03*
%TD*%
D21*
%TO.C,TP_SW3*%
X166000000Y-114100000D03*
%TD*%
D35*
%TO.C,R21*%
X163000000Y-122010000D03*
X163000000Y-120990000D03*
%TD*%
%TO.C,R22*%
X176000000Y-121220000D03*
X176000000Y-120200000D03*
%TD*%
D23*
%TO.C,R8*%
X143850000Y-90490000D03*
X143850000Y-91510000D03*
%TD*%
D27*
%TO.C,C8*%
X162200000Y-86380000D03*
X162200000Y-85420000D03*
%TD*%
%TO.C,C11*%
X166300000Y-86380000D03*
X166300000Y-85420000D03*
%TD*%
D45*
%TO.C,U1*%
X171975000Y-115890000D03*
X171975000Y-117160000D03*
X171975000Y-118430000D03*
X171975000Y-119700000D03*
X171975000Y-120970000D03*
X171975000Y-122240000D03*
X171975000Y-123510000D03*
X167025000Y-123510000D03*
X167025000Y-122240000D03*
X167025000Y-120970000D03*
X167025000Y-119700000D03*
X167025000Y-118430000D03*
X167025000Y-117160000D03*
X167025000Y-115890000D03*
%TD*%
D46*
%TO.C,SW6*%
X156190000Y-107460000D03*
X162540000Y-104920000D03*
D47*
X152640000Y-107460000D03*
X166090000Y-104920000D03*
%TD*%
D36*
%TO.C,C7*%
X160900000Y-95820000D03*
X160900000Y-96780000D03*
%TD*%
D14*
%TO.C,U5*%
X184080000Y-129005633D03*
X173920000Y-129005633D03*
D42*
X178050000Y-128268133D03*
X179950000Y-128268133D03*
X179000000Y-130143133D03*
%TD*%
D21*
%TO.C,TP_SW2*%
X173100000Y-101900000D03*
%TD*%
D48*
%TO.C,Y1*%
X171823223Y-87121142D03*
X173378858Y-88676777D03*
X172176777Y-89878858D03*
X170621142Y-88323223D03*
%TD*%
D23*
%TO.C,R19*%
X177100000Y-120200000D03*
X177100000Y-121220000D03*
%TD*%
D49*
%TO.C,C14*%
X169920000Y-92200000D03*
X170880000Y-92200000D03*
%TD*%
D35*
%TO.C,R11*%
X158400000Y-95910000D03*
X158400000Y-94890000D03*
%TD*%
D36*
%TO.C,C12*%
X165700000Y-95820000D03*
X165700000Y-96780000D03*
%TD*%
D27*
%TO.C,C17*%
X159800000Y-86980000D03*
X159800000Y-86020000D03*
%TD*%
D49*
%TO.C,C15*%
X169920000Y-93300000D03*
X170880000Y-93300000D03*
%TD*%
D26*
%TO.C,R13*%
X178510000Y-87900000D03*
X177490000Y-87900000D03*
%TD*%
D41*
%TO.C,C16*%
X158980000Y-92000000D03*
X158020000Y-92000000D03*
%TD*%
D40*
%TO.C,R3*%
X145175000Y-134000000D03*
X146825000Y-134000000D03*
%TD*%
D50*
%TO.C,C5*%
X149300000Y-98850000D03*
X149300000Y-96950000D03*
%TD*%
D51*
%TO.C,U7*%
X142662500Y-102525000D03*
X142662500Y-101575000D03*
X142662500Y-100625000D03*
X144937500Y-100625000D03*
X144937500Y-101575000D03*
X144937500Y-102525000D03*
%TD*%
D35*
%TO.C,R24*%
X174900000Y-121210000D03*
X174900000Y-120190000D03*
%TD*%
%TO.C,R17*%
X163000000Y-118210000D03*
X163000000Y-117190000D03*
%TD*%
D52*
%TO.C,U6*%
X152395000Y-86400000D03*
X153665000Y-86400000D03*
X154935000Y-86400000D03*
X156205000Y-86400000D03*
X156205000Y-93600000D03*
X154935000Y-93600000D03*
X153665000Y-93600000D03*
X152395000Y-93600000D03*
%TD*%
D23*
%TO.C,R20*%
X178200000Y-120200000D03*
X178200000Y-121220000D03*
%TD*%
D35*
%TO.C,R7*%
X132150000Y-91510000D03*
X132150000Y-90490000D03*
%TD*%
D23*
%TO.C,R12*%
X159500000Y-94890000D03*
X159500000Y-95910000D03*
%TD*%
D27*
%TO.C,C1*%
X140100000Y-125480000D03*
X140100000Y-124520000D03*
%TD*%
D21*
%TO.C,GND1*%
X162200000Y-81200000D03*
%TD*%
%TO.C,1V1*%
X157200000Y-82500000D03*
%TD*%
D46*
%TO.C,SW7*%
X175190000Y-107460000D03*
X181540000Y-104920000D03*
D47*
X171640000Y-107460000D03*
X185090000Y-104920000D03*
%TD*%
D14*
%TO.C,U3*%
X165080000Y-129000000D03*
X154920000Y-129000000D03*
D42*
X159050000Y-128262500D03*
X160950000Y-128262500D03*
X160000000Y-130137500D03*
%TD*%
D21*
%TO.C,3V3*%
X177700000Y-81300000D03*
%TD*%
D35*
%TO.C,R5*%
X161900000Y-118210000D03*
X161900000Y-117190000D03*
%TD*%
D53*
%TO.C,SW5*%
X179900000Y-90375000D03*
X185900000Y-90375000D03*
X179900000Y-86625000D03*
X185900000Y-86625000D03*
%TD*%
D41*
%TO.C,C22*%
X178000000Y-125500000D03*
X177040000Y-125500000D03*
%TD*%
D54*
%TO.C,C20*%
X169960589Y-89660589D03*
X170639411Y-90339411D03*
%TD*%
D40*
%TO.C,R4*%
X164175000Y-134000000D03*
X165825000Y-134000000D03*
%TD*%
M02*
