M48
; DRILL file {KiCad 7.0.1} date Sat Jul  1 02:03:31 2023
; FORMAT={-:-/ absolute / inch / decimal}
; #@! TF.CreationDate,2023-07-01T02:03:31-04:00
; #@! TF.GenerationSoftware,Kicad,Pcbnew,7.0.1
; #@! TF.FileFunction,Plated,1,4,PTH
FMAT,2
INCH
; #@! TA.AperFunction,Plated,PTH,ViaDrill
T1C0.0118
; #@! TA.AperFunction,Plated,PTH,ViaDrill
T2C0.0157
; #@! TA.AperFunction,Plated,PTH,ViaDrill
T3C0.0197
; #@! TA.AperFunction,Plated,PTH,ViaDrill
T4C0.0236
; #@! TA.AperFunction,Plated,PTH,ComponentDrill
T5C0.0236
; #@! TA.AperFunction,Plated,PTH,ComponentDrill
T6C0.0256
; #@! TA.AperFunction,Plated,PTH,ComponentDrill
T7C0.0394
; #@! TA.AperFunction,Plated,PTH,ComponentDrill
T8C0.0866
%
G90
G05
T1
X5.9134Y-4.1142
X5.9606Y-4.1142
X6.189Y-3.3071
X6.2402Y-3.3583
X6.2402Y-3.7008
X6.2835Y-3.9016
X6.3386Y-3.4488
X6.3622Y-3.9291
X6.378Y-3.8504
X6.3937Y-3.4882
X6.3937Y-3.5748
X6.3937Y-3.6535
X6.4213Y-3.3622
X6.4252Y-3.4843
X6.4843Y-3.6693
X6.5157Y-3.6732
X6.563Y-3.8583
X6.5669Y-3.6181
X6.5709Y-3.5827
X6.5748Y-3.6496
X6.5866Y-3.375
X6.626Y-3.4213
X6.6496Y-3.4449
X6.7283Y-3.2874
X6.7795Y-3.2874
T2
X5.0394Y-3.5433
X5.0394Y-3.8583
X5.0394Y-4.372
X5.0394Y-4.685
X5.0394Y-5.0
X5.0394Y-5.315
X5.1545Y-4.1654
X5.2126Y-3.4843
X5.2303Y-4.2579
X5.252Y-3.7992
X5.3189Y-4.0197
X5.3189Y-4.0748
X5.3189Y-4.1299
X5.3346Y-5.6496
X5.3898Y-4.0197
X5.3898Y-4.0748
X5.3898Y-4.1299
X5.4646Y-5.2756
X5.5157Y-4.8661
X5.5512Y-5.2244
X5.5591Y-4.9409
X5.6142Y-3.7992
X5.6535Y-3.4843
X5.6535Y-5.2756
X5.6614Y-4.0827
X5.6673Y-3.7992
X5.7362Y-4.0906
X5.7362Y-4.2126
X5.8465Y-5.2756
X5.8465Y-5.6496
X5.878Y-3.7736
X5.878Y-3.9409
X5.9331Y-3.5984
X5.9331Y-3.7323
X6.063Y-3.248
X6.1496Y-3.4646
X6.2028Y-3.8189
X6.2126Y-4.8583
X6.2126Y-5.2756
X6.2165Y-4.5276
X6.2756Y-4.6693
X6.2756Y-4.7402
X6.2795Y-4.6299
X6.2795Y-4.7874
X6.2913Y-3.3425
X6.2972Y-5.6496
X6.2992Y-5.2205
X6.3071Y-4.9409
X6.3228Y-3.1969
X6.3268Y-3.8819
X6.3499Y-3.7205
X6.3504Y-3.4134
X6.374Y-4.5276
X6.3937Y-3.2992
X6.3937Y-5.2756
X6.4439Y-3.5413
X6.4449Y-3.2992
X6.4646Y-3.5039
X6.4843Y-3.9646
X6.4852Y-3.5413
X6.4921Y-4.4213
X6.5079Y-3.5039
X6.5266Y-3.5413
X6.5272Y-3.2868
X6.5315Y-4.0157
X6.5472Y-4.2677
X6.563Y-3.8189
X6.5748Y-4.9016
X6.5866Y-3.2992
X6.5945Y-5.2756
X6.6339Y-3.2992
X6.6378Y-3.7953
X6.6457Y-4.7126
X6.6496Y-3.3858
X6.6535Y-4.5
X6.6654Y-4.4606
X6.7008Y-4.7126
X6.7323Y-5.6496
X6.7362Y-3.8228
X6.7402Y-3.7126
X6.748Y-3.5906
X6.7598Y-4.3268
X6.7717Y-4.9055
X6.8071Y-3.6772
X6.8808Y-3.4635
X6.9567Y-4.5276
X6.9606Y-5.2756
X6.9685Y-4.9764
X6.9724Y-4.689
X6.9902Y-3.6614
X7.0276Y-3.3809
X7.0394Y-3.5157
X7.0472Y-4.9409
X7.0472Y-5.2205
X7.0669Y-3.2008
X7.0669Y-4.7323
X7.1142Y-4.5276
X7.1378Y-5.2756
X7.189Y-4.4055
X7.2244Y-3.2087
X7.2598Y-5.2126
X7.2638Y-5.6496
X7.2795Y-4.0236
X7.378Y-3.6496
X7.5512Y-5.315
X7.5591Y-3.5433
X7.5591Y-3.8583
X7.5591Y-4.3701
X7.5591Y-4.685
X7.5591Y-5.0
T3
X5.1535Y-3.9843
X5.2323Y-3.9016
X5.3425Y-3.8071
X5.5236Y-3.8071
T4
X5.1949Y-3.7953
X6.4094Y-3.8858
X6.8268Y-3.8219
X7.1831Y-3.8219
T6
X6.5807Y-3.1929
X6.6307Y-3.1929
X6.6807Y-3.1929
X6.7307Y-3.1929
X6.7807Y-3.1929
T7
X5.4528Y-4.626
X5.5512Y-4.626
X5.6496Y-4.626
T8
X5.3307Y-4.3307
X5.7717Y-4.3307
T5
G00X5.263Y-3.5354
M15
G01X5.263Y-3.5591
M16
G05
G00X5.263Y-3.6902
M15
G01X5.263Y-3.7335
M16
G05
G00X5.6031Y-3.5354
M15
G01X5.6031Y-3.5591
M16
G05
G00X5.6031Y-3.6902
M15
G01X5.6031Y-3.7335
M16
G05
T0
M30
